%TF.GenerationSoftware,KiCad,Pcbnew,9.0.3*%
%TF.CreationDate,2026-07-22T18:49:46+05:30*%
%TF.ProjectId,08_LM7805_Power_Supply,30385f4c-4d37-4383-9035-5f506f776572,rev?*%
%TF.SameCoordinates,Original*%
%TF.FileFunction,Copper,L1,Top*%
%TF.FilePolarity,Positive*%
%FSLAX46Y46*%
G04 Gerber Fmt 4.6, Leading zero omitted, Abs format (unit mm)*
G04 Created by KiCad (PCBNEW 9.0.3) date 2026-07-22 18:49:46*
%MOMM*%
%LPD*%
G01*
G04 APERTURE LIST*
%TA.AperFunction,NonConductor*%
%ADD10C,0.200000*%
%TD*%
%TA.AperFunction,ComponentPad*%
%ADD11C,1.600000*%
%TD*%
%TA.AperFunction,ComponentPad*%
%ADD12R,1.905000X2.000000*%
%TD*%
%TA.AperFunction,ComponentPad*%
%ADD13O,1.905000X2.000000*%
%TD*%
%TA.AperFunction,ComponentPad*%
%ADD14R,1.700000X1.700000*%
%TD*%
%TA.AperFunction,ComponentPad*%
%ADD15C,1.700000*%
%TD*%
G04 APERTURE END LIST*
D10*
X120500000Y-88000000D02*
X147000000Y-88000000D01*
X147000000Y-110000000D01*
X120500000Y-110000000D01*
X120500000Y-88000000D01*
D11*
%TO.P,C2,1*%
%TO.N,/VR_OUT*%
X136975000Y-99800000D03*
%TO.P,C2,2*%
%TO.N,GND*%
X136975000Y-104800000D03*
%TD*%
D12*
%TO.P,U1,1,VI*%
%TO.N,/VR_IN*%
X131270000Y-95225000D03*
D13*
%TO.P,U1,2,GND*%
%TO.N,GND*%
X133810000Y-95225000D03*
%TO.P,U1,3,VO*%
%TO.N,/VR_OUT*%
X136350000Y-95225000D03*
%TD*%
D14*
%TO.P,J2,1,Pin_1*%
%TO.N,/VR_OUT*%
X142525000Y-100725000D03*
D15*
%TO.P,J2,2,Pin_2*%
%TO.N,GND*%
X142525000Y-103265000D03*
%TD*%
D14*
%TO.P,J1,1,Pin_1*%
%TO.N,/VR_IN*%
X124975000Y-101375000D03*
D15*
%TO.P,J1,2,Pin_2*%
%TO.N,GND*%
X124975000Y-103915000D03*
%TD*%
D11*
%TO.P,C1,1*%
%TO.N,/VR_IN*%
X130450000Y-99600000D03*
%TO.P,C1,2*%
%TO.N,GND*%
X130450000Y-104600000D03*
%TD*%
%TA.AperFunction,NonConductor*%
G36*
X144442539Y-90270185D02*
G01*
X144488294Y-90322989D01*
X144499500Y-90374500D01*
X144499500Y-107375500D01*
X144479815Y-107442539D01*
X144427011Y-107488294D01*
X144375500Y-107499500D01*
X123124500Y-107499500D01*
X123057461Y-107479815D01*
X123011706Y-107427011D01*
X123000500Y-107375500D01*
X123000500Y-100477135D01*
X123624500Y-100477135D01*
X123624500Y-102272870D01*
X123624501Y-102272876D01*
X123630908Y-102332483D01*
X123681202Y-102467328D01*
X123681206Y-102467335D01*
X123767452Y-102582544D01*
X123767455Y-102582547D01*
X123882664Y-102668793D01*
X123882671Y-102668797D01*
X124014082Y-102717810D01*
X124070016Y-102759681D01*
X124094433Y-102825145D01*
X124079582Y-102893418D01*
X124058431Y-102921673D01*
X123944889Y-103035215D01*
X123819951Y-103207179D01*
X123723444Y-103396585D01*
X123657753Y-103598760D01*
X123643664Y-103687715D01*
X123624500Y-103808713D01*
X123624500Y-104021287D01*
X123657754Y-104231243D01*
X123680348Y-104300781D01*
X123723444Y-104433414D01*
X123819951Y-104622820D01*
X123944890Y-104794786D01*
X124095213Y-104945109D01*
X124267179Y-105070048D01*
X124267181Y-105070049D01*
X124267184Y-105070051D01*
X124456588Y-105166557D01*
X124658757Y-105232246D01*
X124868713Y-105265500D01*
X124868714Y-105265500D01*
X125081286Y-105265500D01*
X125081287Y-105265500D01*
X125291243Y-105232246D01*
X125493412Y-105166557D01*
X125682816Y-105070051D01*
X125704789Y-105054086D01*
X125854786Y-104945109D01*
X125854788Y-104945106D01*
X125854792Y-104945104D01*
X126005104Y-104794792D01*
X126005106Y-104794788D01*
X126005109Y-104794786D01*
X126130048Y-104622820D01*
X126130047Y-104622820D01*
X126130051Y-104622816D01*
X126193827Y-104497648D01*
X129149500Y-104497648D01*
X129149500Y-104702351D01*
X129181522Y-104904534D01*
X129244781Y-105099223D01*
X129337715Y-105281613D01*
X129458028Y-105447213D01*
X129602786Y-105591971D01*
X129757749Y-105704556D01*
X129768390Y-105712287D01*
X129884607Y-105771503D01*
X129950776Y-105805218D01*
X129950778Y-105805218D01*
X129950781Y-105805220D01*
X130055137Y-105839127D01*
X130145465Y-105868477D01*
X130246557Y-105884488D01*
X130347648Y-105900500D01*
X130347649Y-105900500D01*
X130552351Y-105900500D01*
X130552352Y-105900500D01*
X130754534Y-105868477D01*
X130949219Y-105805220D01*
X131131610Y-105712287D01*
X131224590Y-105644732D01*
X131297213Y-105591971D01*
X131297215Y-105591968D01*
X131297219Y-105591966D01*
X131441966Y-105447219D01*
X131441968Y-105447215D01*
X131441971Y-105447213D01*
X131494732Y-105374590D01*
X131562287Y-105281610D01*
X131655220Y-105099219D01*
X131718477Y-104904534D01*
X131750500Y-104702352D01*
X131750500Y-104697648D01*
X135674500Y-104697648D01*
X135674500Y-104902351D01*
X135706522Y-105104534D01*
X135769781Y-105299223D01*
X135862715Y-105481613D01*
X135983028Y-105647213D01*
X136127786Y-105791971D01*
X136233090Y-105868477D01*
X136293390Y-105912287D01*
X136409607Y-105971503D01*
X136475776Y-106005218D01*
X136475778Y-106005218D01*
X136475781Y-106005220D01*
X136580137Y-106039127D01*
X136670465Y-106068477D01*
X136771557Y-106084488D01*
X136872648Y-106100500D01*
X136872649Y-106100500D01*
X137077351Y-106100500D01*
X137077352Y-106100500D01*
X137279534Y-106068477D01*
X137474219Y-106005220D01*
X137656610Y-105912287D01*
X137749590Y-105844732D01*
X137822213Y-105791971D01*
X137822215Y-105791968D01*
X137822219Y-105791966D01*
X137966966Y-105647219D01*
X137966968Y-105647215D01*
X137966971Y-105647213D01*
X138019732Y-105574590D01*
X138087287Y-105481610D01*
X138180220Y-105299219D01*
X138243477Y-105104534D01*
X138275500Y-104902352D01*
X138275500Y-104697648D01*
X138243477Y-104495466D01*
X138223315Y-104433415D01*
X138180218Y-104300776D01*
X138144789Y-104231243D01*
X138087287Y-104118390D01*
X138074490Y-104100776D01*
X137966971Y-103952786D01*
X137822213Y-103808028D01*
X137656613Y-103687715D01*
X137656612Y-103687714D01*
X137656610Y-103687713D01*
X137599653Y-103658691D01*
X137474223Y-103594781D01*
X137279534Y-103531522D01*
X137104995Y-103503878D01*
X137077352Y-103499500D01*
X136872648Y-103499500D01*
X136848329Y-103503351D01*
X136670465Y-103531522D01*
X136475776Y-103594781D01*
X136293386Y-103687715D01*
X136127786Y-103808028D01*
X135983028Y-103952786D01*
X135862715Y-104118386D01*
X135769781Y-104300776D01*
X135706522Y-104495465D01*
X135674500Y-104697648D01*
X131750500Y-104697648D01*
X131750500Y-104497648D01*
X131740812Y-104436481D01*
X131718477Y-104295465D01*
X131669518Y-104144786D01*
X131655220Y-104100781D01*
X131655218Y-104100778D01*
X131655218Y-104100776D01*
X131614715Y-104021286D01*
X131562287Y-103918390D01*
X131554556Y-103907749D01*
X131441971Y-103752786D01*
X131297213Y-103608028D01*
X131131613Y-103487715D01*
X131131612Y-103487714D01*
X131131610Y-103487713D01*
X131074653Y-103458691D01*
X130949223Y-103394781D01*
X130754534Y-103331522D01*
X130579995Y-103303878D01*
X130552352Y-103299500D01*
X130347648Y-103299500D01*
X130323329Y-103303351D01*
X130145465Y-103331522D01*
X129950776Y-103394781D01*
X129768386Y-103487715D01*
X129602786Y-103608028D01*
X129458028Y-103752786D01*
X129337715Y-103918386D01*
X129244781Y-104100776D01*
X129181522Y-104295465D01*
X129149500Y-104497648D01*
X126193827Y-104497648D01*
X126226557Y-104433412D01*
X126292246Y-104231243D01*
X126325500Y-104021287D01*
X126325500Y-103808713D01*
X126292246Y-103598757D01*
X126226557Y-103396588D01*
X126130051Y-103207184D01*
X126130049Y-103207181D01*
X126130048Y-103207179D01*
X126005109Y-103035213D01*
X125891569Y-102921673D01*
X125858084Y-102860350D01*
X125863068Y-102790658D01*
X125904940Y-102734725D01*
X125935915Y-102717810D01*
X126067331Y-102668796D01*
X126182546Y-102582546D01*
X126268796Y-102467331D01*
X126319091Y-102332483D01*
X126325500Y-102272873D01*
X126325499Y-100477128D01*
X126319091Y-100417517D01*
X126274970Y-100299223D01*
X126268797Y-100282671D01*
X126268793Y-100282664D01*
X126182547Y-100167455D01*
X126182544Y-100167452D01*
X126067335Y-100081206D01*
X126067328Y-100081202D01*
X125932482Y-100030908D01*
X125932483Y-100030908D01*
X125872883Y-100024501D01*
X125872881Y-100024500D01*
X125872873Y-100024500D01*
X125872864Y-100024500D01*
X124077129Y-100024500D01*
X124077123Y-100024501D01*
X124017516Y-100030908D01*
X123882671Y-100081202D01*
X123882664Y-100081206D01*
X123767455Y-100167452D01*
X123767452Y-100167455D01*
X123681206Y-100282664D01*
X123681202Y-100282671D01*
X123630908Y-100417517D01*
X123624501Y-100477116D01*
X123624501Y-100477123D01*
X123624500Y-100477135D01*
X123000500Y-100477135D01*
X123000500Y-99497648D01*
X129149500Y-99497648D01*
X129149500Y-99702351D01*
X129181522Y-99904534D01*
X129244781Y-100099223D01*
X129337715Y-100281613D01*
X129458028Y-100447213D01*
X129602786Y-100591971D01*
X129757749Y-100704556D01*
X129768390Y-100712287D01*
X129884607Y-100771503D01*
X129950776Y-100805218D01*
X129950778Y-100805218D01*
X129950781Y-100805220D01*
X130055137Y-100839127D01*
X130145465Y-100868477D01*
X130246557Y-100884488D01*
X130347648Y-100900500D01*
X130347649Y-100900500D01*
X130552351Y-100900500D01*
X130552352Y-100900500D01*
X130754534Y-100868477D01*
X130949219Y-100805220D01*
X131131610Y-100712287D01*
X131224590Y-100644732D01*
X131297213Y-100591971D01*
X131297215Y-100591968D01*
X131297219Y-100591966D01*
X131441966Y-100447219D01*
X131441968Y-100447215D01*
X131441971Y-100447213D01*
X131494732Y-100374590D01*
X131562287Y-100281610D01*
X131655220Y-100099219D01*
X131718477Y-99904534D01*
X131750500Y-99702352D01*
X131750500Y-99697648D01*
X135674500Y-99697648D01*
X135674500Y-99902351D01*
X135706522Y-100104534D01*
X135769781Y-100299223D01*
X135830055Y-100417516D01*
X135860429Y-100477128D01*
X135862715Y-100481613D01*
X135983028Y-100647213D01*
X136127786Y-100791971D01*
X136233090Y-100868477D01*
X136293390Y-100912287D01*
X136409607Y-100971503D01*
X136475776Y-101005218D01*
X136475778Y-101005218D01*
X136475781Y-101005220D01*
X136580137Y-101039127D01*
X136670465Y-101068477D01*
X136771557Y-101084488D01*
X136872648Y-101100500D01*
X136872649Y-101100500D01*
X137077351Y-101100500D01*
X137077352Y-101100500D01*
X137279534Y-101068477D01*
X137474219Y-101005220D01*
X137656610Y-100912287D01*
X137749590Y-100844732D01*
X137822213Y-100791971D01*
X137822215Y-100791968D01*
X137822219Y-100791966D01*
X137966966Y-100647219D01*
X137966968Y-100647215D01*
X137966971Y-100647213D01*
X138019732Y-100574590D01*
X138087287Y-100481610D01*
X138180220Y-100299219D01*
X138243477Y-100104534D01*
X138275500Y-99902352D01*
X138275500Y-99827135D01*
X141174500Y-99827135D01*
X141174500Y-101622870D01*
X141174501Y-101622876D01*
X141180908Y-101682483D01*
X141231202Y-101817328D01*
X141231206Y-101817335D01*
X141317452Y-101932544D01*
X141317455Y-101932547D01*
X141432664Y-102018793D01*
X141432671Y-102018797D01*
X141564082Y-102067810D01*
X141620016Y-102109681D01*
X141644433Y-102175145D01*
X141629582Y-102243418D01*
X141608431Y-102271673D01*
X141494889Y-102385215D01*
X141369951Y-102557179D01*
X141273444Y-102746585D01*
X141207753Y-102948760D01*
X141174500Y-103158713D01*
X141174500Y-103371286D01*
X141192940Y-103487715D01*
X141207754Y-103581243D01*
X141263490Y-103752781D01*
X141273444Y-103783414D01*
X141369951Y-103972820D01*
X141494890Y-104144786D01*
X141645213Y-104295109D01*
X141817179Y-104420048D01*
X141817181Y-104420049D01*
X141817184Y-104420051D01*
X142006588Y-104516557D01*
X142208757Y-104582246D01*
X142418713Y-104615500D01*
X142418714Y-104615500D01*
X142631286Y-104615500D01*
X142631287Y-104615500D01*
X142841243Y-104582246D01*
X143043412Y-104516557D01*
X143232816Y-104420051D01*
X143254789Y-104404086D01*
X143404786Y-104295109D01*
X143404788Y-104295106D01*
X143404792Y-104295104D01*
X143555104Y-104144792D01*
X143555106Y-104144788D01*
X143555109Y-104144786D01*
X143680048Y-103972820D01*
X143680047Y-103972820D01*
X143680051Y-103972816D01*
X143776557Y-103783412D01*
X143842246Y-103581243D01*
X143875500Y-103371287D01*
X143875500Y-103158713D01*
X143842246Y-102948757D01*
X143776557Y-102746588D01*
X143680051Y-102557184D01*
X143680049Y-102557181D01*
X143680048Y-102557179D01*
X143555109Y-102385213D01*
X143441569Y-102271673D01*
X143408084Y-102210350D01*
X143413068Y-102140658D01*
X143454940Y-102084725D01*
X143485915Y-102067810D01*
X143617331Y-102018796D01*
X143732546Y-101932546D01*
X143818796Y-101817331D01*
X143869091Y-101682483D01*
X143875500Y-101622873D01*
X143875499Y-99827128D01*
X143869091Y-99767517D01*
X143818796Y-99632669D01*
X143818795Y-99632668D01*
X143818793Y-99632664D01*
X143732547Y-99517455D01*
X143732544Y-99517452D01*
X143617335Y-99431206D01*
X143617328Y-99431202D01*
X143482482Y-99380908D01*
X143482483Y-99380908D01*
X143422883Y-99374501D01*
X143422881Y-99374500D01*
X143422873Y-99374500D01*
X143422864Y-99374500D01*
X141627129Y-99374500D01*
X141627123Y-99374501D01*
X141567516Y-99380908D01*
X141432671Y-99431202D01*
X141432664Y-99431206D01*
X141317455Y-99517452D01*
X141317452Y-99517455D01*
X141231206Y-99632664D01*
X141231202Y-99632671D01*
X141180908Y-99767517D01*
X141174501Y-99827116D01*
X141174501Y-99827123D01*
X141174500Y-99827135D01*
X138275500Y-99827135D01*
X138275500Y-99697648D01*
X138243477Y-99495465D01*
X138180218Y-99300776D01*
X138146503Y-99234607D01*
X138087287Y-99118390D01*
X138074490Y-99100776D01*
X137966971Y-98952786D01*
X137822213Y-98808028D01*
X137656613Y-98687715D01*
X137656612Y-98687714D01*
X137656610Y-98687713D01*
X137599653Y-98658691D01*
X137474223Y-98594781D01*
X137279534Y-98531522D01*
X137104995Y-98503878D01*
X137077352Y-98499500D01*
X136872648Y-98499500D01*
X136848329Y-98503351D01*
X136670465Y-98531522D01*
X136475776Y-98594781D01*
X136293386Y-98687715D01*
X136127786Y-98808028D01*
X135983028Y-98952786D01*
X135862715Y-99118386D01*
X135769781Y-99300776D01*
X135706522Y-99495465D01*
X135674500Y-99697648D01*
X131750500Y-99697648D01*
X131750500Y-99497648D01*
X131750154Y-99495465D01*
X131718477Y-99295465D01*
X131689127Y-99205137D01*
X131655220Y-99100781D01*
X131655218Y-99100778D01*
X131655218Y-99100776D01*
X131621503Y-99034607D01*
X131562287Y-98918390D01*
X131554556Y-98907749D01*
X131441971Y-98752786D01*
X131297213Y-98608028D01*
X131131613Y-98487715D01*
X131131612Y-98487714D01*
X131131610Y-98487713D01*
X131074653Y-98458691D01*
X130949223Y-98394781D01*
X130754534Y-98331522D01*
X130579995Y-98303878D01*
X130552352Y-98299500D01*
X130347648Y-98299500D01*
X130323329Y-98303351D01*
X130145465Y-98331522D01*
X129950776Y-98394781D01*
X129768386Y-98487715D01*
X129602786Y-98608028D01*
X129458028Y-98752786D01*
X129337715Y-98918386D01*
X129244781Y-99100776D01*
X129181522Y-99295465D01*
X129149500Y-99497648D01*
X123000500Y-99497648D01*
X123000500Y-94177135D01*
X129817000Y-94177135D01*
X129817000Y-96272870D01*
X129817001Y-96272876D01*
X129823408Y-96332483D01*
X129873702Y-96467328D01*
X129873706Y-96467335D01*
X129959952Y-96582544D01*
X129959955Y-96582547D01*
X130075164Y-96668793D01*
X130075171Y-96668797D01*
X130210017Y-96719091D01*
X130210016Y-96719091D01*
X130216944Y-96719835D01*
X130269627Y-96725500D01*
X132270372Y-96725499D01*
X132329983Y-96719091D01*
X132464831Y-96668796D01*
X132580046Y-96582546D01*
X132666296Y-96467331D01*
X132676690Y-96439460D01*
X132718560Y-96383527D01*
X132784023Y-96359108D01*
X132852297Y-96373958D01*
X132865746Y-96382465D01*
X133048462Y-96515217D01*
X133180599Y-96582544D01*
X133252244Y-96619049D01*
X133469751Y-96689721D01*
X133469752Y-96689721D01*
X133469755Y-96689722D01*
X133695646Y-96725500D01*
X133695647Y-96725500D01*
X133924353Y-96725500D01*
X133924354Y-96725500D01*
X134150245Y-96689722D01*
X134150248Y-96689721D01*
X134150249Y-96689721D01*
X134367755Y-96619049D01*
X134367755Y-96619048D01*
X134367758Y-96619048D01*
X134571538Y-96515217D01*
X134756566Y-96380786D01*
X134918286Y-96219066D01*
X134979683Y-96134559D01*
X135035012Y-96091896D01*
X135104625Y-96085917D01*
X135166420Y-96118523D01*
X135180314Y-96134556D01*
X135241714Y-96219066D01*
X135403434Y-96380786D01*
X135588462Y-96515217D01*
X135720599Y-96582544D01*
X135792244Y-96619049D01*
X136009751Y-96689721D01*
X136009752Y-96689721D01*
X136009755Y-96689722D01*
X136235646Y-96725500D01*
X136235647Y-96725500D01*
X136464353Y-96725500D01*
X136464354Y-96725500D01*
X136690245Y-96689722D01*
X136690248Y-96689721D01*
X136690249Y-96689721D01*
X136907755Y-96619049D01*
X136907755Y-96619048D01*
X136907758Y-96619048D01*
X137111538Y-96515217D01*
X137296566Y-96380786D01*
X137458286Y-96219066D01*
X137592717Y-96034038D01*
X137696548Y-95830258D01*
X137767222Y-95612745D01*
X137803000Y-95386854D01*
X137803000Y-95063146D01*
X137767222Y-94837255D01*
X137767221Y-94837251D01*
X137767221Y-94837250D01*
X137696549Y-94619744D01*
X137696548Y-94619742D01*
X137592717Y-94415962D01*
X137458286Y-94230934D01*
X137296566Y-94069214D01*
X137111538Y-93934783D01*
X136907755Y-93830950D01*
X136690248Y-93760278D01*
X136504812Y-93730908D01*
X136464354Y-93724500D01*
X136235646Y-93724500D01*
X136195188Y-93730908D01*
X136009753Y-93760278D01*
X136009750Y-93760278D01*
X135792244Y-93830950D01*
X135588461Y-93934783D01*
X135522550Y-93982671D01*
X135403434Y-94069214D01*
X135403432Y-94069216D01*
X135403431Y-94069216D01*
X135241715Y-94230932D01*
X135180318Y-94315438D01*
X135124987Y-94358103D01*
X135055374Y-94364082D01*
X134993579Y-94331476D01*
X134979682Y-94315438D01*
X134968773Y-94300423D01*
X134918286Y-94230934D01*
X134756566Y-94069214D01*
X134571538Y-93934783D01*
X134367755Y-93830950D01*
X134150248Y-93760278D01*
X133964812Y-93730908D01*
X133924354Y-93724500D01*
X133695646Y-93724500D01*
X133655188Y-93730908D01*
X133469753Y-93760278D01*
X133469750Y-93760278D01*
X133252244Y-93830950D01*
X133048461Y-93934783D01*
X132865759Y-94067525D01*
X132799952Y-94091005D01*
X132731898Y-94075180D01*
X132683203Y-94025074D01*
X132676690Y-94010538D01*
X132666296Y-93982669D01*
X132666293Y-93982664D01*
X132580047Y-93867455D01*
X132580044Y-93867452D01*
X132464835Y-93781206D01*
X132464828Y-93781202D01*
X132329982Y-93730908D01*
X132329983Y-93730908D01*
X132270383Y-93724501D01*
X132270381Y-93724500D01*
X132270373Y-93724500D01*
X132270364Y-93724500D01*
X130269629Y-93724500D01*
X130269623Y-93724501D01*
X130210016Y-93730908D01*
X130075171Y-93781202D01*
X130075164Y-93781206D01*
X129959955Y-93867452D01*
X129959952Y-93867455D01*
X129873706Y-93982664D01*
X129873702Y-93982671D01*
X129823408Y-94117517D01*
X129817001Y-94177116D01*
X129817000Y-94177135D01*
X123000500Y-94177135D01*
X123000500Y-90374500D01*
X123020185Y-90307461D01*
X123072989Y-90261706D01*
X123124500Y-90250500D01*
X144375500Y-90250500D01*
X144442539Y-90270185D01*
G37*
%TD.AperFunction*%
M02*
