%TF.GenerationSoftware,KiCad,Pcbnew,9.0.3*%
%TF.CreationDate,2026-07-22T18:49:46+05:30*%
%TF.ProjectId,08_LM7805_Power_Supply,30385f4c-4d37-4383-9035-5f506f776572,rev?*%
%TF.SameCoordinates,Original*%
%TF.FileFunction,Legend,Top*%
%TF.FilePolarity,Positive*%
%FSLAX46Y46*%
G04 Gerber Fmt 4.6, Leading zero omitted, Abs format (unit mm)*
G04 Created by KiCad (PCBNEW 9.0.3) date 2026-07-22 18:49:46*
%MOMM*%
%LPD*%
G01*
G04 APERTURE LIST*
%ADD10C,0.150000*%
%ADD11C,0.120000*%
G04 APERTURE END LIST*
D10*
X136833333Y-107059580D02*
X136785714Y-107107200D01*
X136785714Y-107107200D02*
X136642857Y-107154819D01*
X136642857Y-107154819D02*
X136547619Y-107154819D01*
X136547619Y-107154819D02*
X136404762Y-107107200D01*
X136404762Y-107107200D02*
X136309524Y-107011961D01*
X136309524Y-107011961D02*
X136261905Y-106916723D01*
X136261905Y-106916723D02*
X136214286Y-106726247D01*
X136214286Y-106726247D02*
X136214286Y-106583390D01*
X136214286Y-106583390D02*
X136261905Y-106392914D01*
X136261905Y-106392914D02*
X136309524Y-106297676D01*
X136309524Y-106297676D02*
X136404762Y-106202438D01*
X136404762Y-106202438D02*
X136547619Y-106154819D01*
X136547619Y-106154819D02*
X136642857Y-106154819D01*
X136642857Y-106154819D02*
X136785714Y-106202438D01*
X136785714Y-106202438D02*
X136833333Y-106250057D01*
X137214286Y-106250057D02*
X137261905Y-106202438D01*
X137261905Y-106202438D02*
X137357143Y-106154819D01*
X137357143Y-106154819D02*
X137595238Y-106154819D01*
X137595238Y-106154819D02*
X137690476Y-106202438D01*
X137690476Y-106202438D02*
X137738095Y-106250057D01*
X137738095Y-106250057D02*
X137785714Y-106345295D01*
X137785714Y-106345295D02*
X137785714Y-106440533D01*
X137785714Y-106440533D02*
X137738095Y-106583390D01*
X137738095Y-106583390D02*
X137166667Y-107154819D01*
X137166667Y-107154819D02*
X137785714Y-107154819D01*
X133048095Y-90579819D02*
X133048095Y-91389342D01*
X133048095Y-91389342D02*
X133095714Y-91484580D01*
X133095714Y-91484580D02*
X133143333Y-91532200D01*
X133143333Y-91532200D02*
X133238571Y-91579819D01*
X133238571Y-91579819D02*
X133429047Y-91579819D01*
X133429047Y-91579819D02*
X133524285Y-91532200D01*
X133524285Y-91532200D02*
X133571904Y-91484580D01*
X133571904Y-91484580D02*
X133619523Y-91389342D01*
X133619523Y-91389342D02*
X133619523Y-90579819D01*
X134619523Y-91579819D02*
X134048095Y-91579819D01*
X134333809Y-91579819D02*
X134333809Y-90579819D01*
X134333809Y-90579819D02*
X134238571Y-90722676D01*
X134238571Y-90722676D02*
X134143333Y-90817914D01*
X134143333Y-90817914D02*
X134048095Y-90865533D01*
X142191666Y-97799819D02*
X142191666Y-98514104D01*
X142191666Y-98514104D02*
X142144047Y-98656961D01*
X142144047Y-98656961D02*
X142048809Y-98752200D01*
X142048809Y-98752200D02*
X141905952Y-98799819D01*
X141905952Y-98799819D02*
X141810714Y-98799819D01*
X142620238Y-97895057D02*
X142667857Y-97847438D01*
X142667857Y-97847438D02*
X142763095Y-97799819D01*
X142763095Y-97799819D02*
X143001190Y-97799819D01*
X143001190Y-97799819D02*
X143096428Y-97847438D01*
X143096428Y-97847438D02*
X143144047Y-97895057D01*
X143144047Y-97895057D02*
X143191666Y-97990295D01*
X143191666Y-97990295D02*
X143191666Y-98085533D01*
X143191666Y-98085533D02*
X143144047Y-98228390D01*
X143144047Y-98228390D02*
X142572619Y-98799819D01*
X142572619Y-98799819D02*
X143191666Y-98799819D01*
X124641666Y-98449819D02*
X124641666Y-99164104D01*
X124641666Y-99164104D02*
X124594047Y-99306961D01*
X124594047Y-99306961D02*
X124498809Y-99402200D01*
X124498809Y-99402200D02*
X124355952Y-99449819D01*
X124355952Y-99449819D02*
X124260714Y-99449819D01*
X125641666Y-99449819D02*
X125070238Y-99449819D01*
X125355952Y-99449819D02*
X125355952Y-98449819D01*
X125355952Y-98449819D02*
X125260714Y-98592676D01*
X125260714Y-98592676D02*
X125165476Y-98687914D01*
X125165476Y-98687914D02*
X125070238Y-98735533D01*
X130233333Y-106859580D02*
X130185714Y-106907200D01*
X130185714Y-106907200D02*
X130042857Y-106954819D01*
X130042857Y-106954819D02*
X129947619Y-106954819D01*
X129947619Y-106954819D02*
X129804762Y-106907200D01*
X129804762Y-106907200D02*
X129709524Y-106811961D01*
X129709524Y-106811961D02*
X129661905Y-106716723D01*
X129661905Y-106716723D02*
X129614286Y-106526247D01*
X129614286Y-106526247D02*
X129614286Y-106383390D01*
X129614286Y-106383390D02*
X129661905Y-106192914D01*
X129661905Y-106192914D02*
X129709524Y-106097676D01*
X129709524Y-106097676D02*
X129804762Y-106002438D01*
X129804762Y-106002438D02*
X129947619Y-105954819D01*
X129947619Y-105954819D02*
X130042857Y-105954819D01*
X130042857Y-105954819D02*
X130185714Y-106002438D01*
X130185714Y-106002438D02*
X130233333Y-106050057D01*
X131185714Y-106954819D02*
X130614286Y-106954819D01*
X130900000Y-106954819D02*
X130900000Y-105954819D01*
X130900000Y-105954819D02*
X130804762Y-106097676D01*
X130804762Y-106097676D02*
X130709524Y-106192914D01*
X130709524Y-106192914D02*
X130614286Y-106240533D01*
D11*
%TO.C,C2*%
X138345000Y-99680000D02*
X138345000Y-104920000D01*
X138008000Y-99680000D02*
X138345000Y-99680000D01*
X135605000Y-99680000D02*
X135942000Y-99680000D01*
X138345000Y-104920000D02*
X138008000Y-104920000D01*
X135942000Y-104920000D02*
X135605000Y-104920000D01*
X135605000Y-104920000D02*
X135605000Y-99680000D01*
%TO.C,U1*%
X128700000Y-91965000D02*
X138920000Y-91965000D01*
X128700000Y-93345000D02*
X138920000Y-93345000D01*
X128700000Y-96585000D02*
X128700000Y-91965000D01*
X131960000Y-91965000D02*
X131960000Y-93345000D01*
X135660000Y-91965000D02*
X135660000Y-93345000D01*
X138920000Y-91965000D02*
X138920000Y-96585000D01*
X138920000Y-96585000D02*
X128700000Y-96585000D01*
%TO.C,J2*%
X141145000Y-99345000D02*
X142525000Y-99345000D01*
X141145000Y-100725000D02*
X141145000Y-99345000D01*
X141145000Y-101995000D02*
X141145000Y-104645000D01*
X141145000Y-101995000D02*
X143905000Y-101995000D01*
X141145000Y-104645000D02*
X143905000Y-104645000D01*
X143905000Y-101995000D02*
X143905000Y-104645000D01*
%TO.C,J1*%
X123595000Y-99995000D02*
X124975000Y-99995000D01*
X123595000Y-101375000D02*
X123595000Y-99995000D01*
X123595000Y-102645000D02*
X123595000Y-105295000D01*
X123595000Y-102645000D02*
X126355000Y-102645000D01*
X123595000Y-105295000D02*
X126355000Y-105295000D01*
X126355000Y-102645000D02*
X126355000Y-105295000D01*
%TO.C,C1*%
X131820000Y-99480000D02*
X131820000Y-104720000D01*
X131483000Y-99480000D02*
X131820000Y-99480000D01*
X129080000Y-99480000D02*
X129417000Y-99480000D01*
X131820000Y-104720000D02*
X131483000Y-104720000D01*
X129417000Y-104720000D02*
X129080000Y-104720000D01*
X129080000Y-104720000D02*
X129080000Y-99480000D01*
%TD*%
M02*
