%TF.GenerationSoftware,KiCad,Pcbnew,9.0.3*%
%TF.CreationDate,2026-07-30T20:35:59+05:30*%
%TF.ProjectId,12_555_Monostable_Multivibrator,31325f35-3535-45f4-9d6f-6e6f73746162,rev?*%
%TF.SameCoordinates,Original*%
%TF.FileFunction,Legend,Top*%
%TF.FilePolarity,Positive*%
%FSLAX46Y46*%
G04 Gerber Fmt 4.6, Leading zero omitted, Abs format (unit mm)*
G04 Created by KiCad (PCBNEW 9.0.3) date 2026-07-30 20:35:59*
%MOMM*%
%LPD*%
G01*
G04 APERTURE LIST*
%ADD10C,0.150000*%
%ADD11C,0.120000*%
G04 APERTURE END LIST*
D10*
X122938095Y-95454819D02*
X122938095Y-96264342D01*
X122938095Y-96264342D02*
X122985714Y-96359580D01*
X122985714Y-96359580D02*
X123033333Y-96407200D01*
X123033333Y-96407200D02*
X123128571Y-96454819D01*
X123128571Y-96454819D02*
X123319047Y-96454819D01*
X123319047Y-96454819D02*
X123414285Y-96407200D01*
X123414285Y-96407200D02*
X123461904Y-96359580D01*
X123461904Y-96359580D02*
X123509523Y-96264342D01*
X123509523Y-96264342D02*
X123509523Y-95454819D01*
X124509523Y-96454819D02*
X123938095Y-96454819D01*
X124223809Y-96454819D02*
X124223809Y-95454819D01*
X124223809Y-95454819D02*
X124128571Y-95597676D01*
X124128571Y-95597676D02*
X124033333Y-95692914D01*
X124033333Y-95692914D02*
X123938095Y-95740533D01*
X105141667Y-80442200D02*
X105284524Y-80489819D01*
X105284524Y-80489819D02*
X105522619Y-80489819D01*
X105522619Y-80489819D02*
X105617857Y-80442200D01*
X105617857Y-80442200D02*
X105665476Y-80394580D01*
X105665476Y-80394580D02*
X105713095Y-80299342D01*
X105713095Y-80299342D02*
X105713095Y-80204104D01*
X105713095Y-80204104D02*
X105665476Y-80108866D01*
X105665476Y-80108866D02*
X105617857Y-80061247D01*
X105617857Y-80061247D02*
X105522619Y-80013628D01*
X105522619Y-80013628D02*
X105332143Y-79966009D01*
X105332143Y-79966009D02*
X105236905Y-79918390D01*
X105236905Y-79918390D02*
X105189286Y-79870771D01*
X105189286Y-79870771D02*
X105141667Y-79775533D01*
X105141667Y-79775533D02*
X105141667Y-79680295D01*
X105141667Y-79680295D02*
X105189286Y-79585057D01*
X105189286Y-79585057D02*
X105236905Y-79537438D01*
X105236905Y-79537438D02*
X105332143Y-79489819D01*
X105332143Y-79489819D02*
X105570238Y-79489819D01*
X105570238Y-79489819D02*
X105713095Y-79537438D01*
X106046429Y-79489819D02*
X106284524Y-80489819D01*
X106284524Y-80489819D02*
X106475000Y-79775533D01*
X106475000Y-79775533D02*
X106665476Y-80489819D01*
X106665476Y-80489819D02*
X106903572Y-79489819D01*
X107808333Y-80489819D02*
X107236905Y-80489819D01*
X107522619Y-80489819D02*
X107522619Y-79489819D01*
X107522619Y-79489819D02*
X107427381Y-79632676D01*
X107427381Y-79632676D02*
X107332143Y-79727914D01*
X107332143Y-79727914D02*
X107236905Y-79775533D01*
X114733333Y-100679819D02*
X114400000Y-100203628D01*
X114161905Y-100679819D02*
X114161905Y-99679819D01*
X114161905Y-99679819D02*
X114542857Y-99679819D01*
X114542857Y-99679819D02*
X114638095Y-99727438D01*
X114638095Y-99727438D02*
X114685714Y-99775057D01*
X114685714Y-99775057D02*
X114733333Y-99870295D01*
X114733333Y-99870295D02*
X114733333Y-100013152D01*
X114733333Y-100013152D02*
X114685714Y-100108390D01*
X114685714Y-100108390D02*
X114638095Y-100156009D01*
X114638095Y-100156009D02*
X114542857Y-100203628D01*
X114542857Y-100203628D02*
X114161905Y-100203628D01*
X115066667Y-99679819D02*
X115685714Y-99679819D01*
X115685714Y-99679819D02*
X115352381Y-100060771D01*
X115352381Y-100060771D02*
X115495238Y-100060771D01*
X115495238Y-100060771D02*
X115590476Y-100108390D01*
X115590476Y-100108390D02*
X115638095Y-100156009D01*
X115638095Y-100156009D02*
X115685714Y-100251247D01*
X115685714Y-100251247D02*
X115685714Y-100489342D01*
X115685714Y-100489342D02*
X115638095Y-100584580D01*
X115638095Y-100584580D02*
X115590476Y-100632200D01*
X115590476Y-100632200D02*
X115495238Y-100679819D01*
X115495238Y-100679819D02*
X115209524Y-100679819D01*
X115209524Y-100679819D02*
X115114286Y-100632200D01*
X115114286Y-100632200D02*
X115066667Y-100584580D01*
X134368333Y-83984819D02*
X134035000Y-83508628D01*
X133796905Y-83984819D02*
X133796905Y-82984819D01*
X133796905Y-82984819D02*
X134177857Y-82984819D01*
X134177857Y-82984819D02*
X134273095Y-83032438D01*
X134273095Y-83032438D02*
X134320714Y-83080057D01*
X134320714Y-83080057D02*
X134368333Y-83175295D01*
X134368333Y-83175295D02*
X134368333Y-83318152D01*
X134368333Y-83318152D02*
X134320714Y-83413390D01*
X134320714Y-83413390D02*
X134273095Y-83461009D01*
X134273095Y-83461009D02*
X134177857Y-83508628D01*
X134177857Y-83508628D02*
X133796905Y-83508628D01*
X134749286Y-83080057D02*
X134796905Y-83032438D01*
X134796905Y-83032438D02*
X134892143Y-82984819D01*
X134892143Y-82984819D02*
X135130238Y-82984819D01*
X135130238Y-82984819D02*
X135225476Y-83032438D01*
X135225476Y-83032438D02*
X135273095Y-83080057D01*
X135273095Y-83080057D02*
X135320714Y-83175295D01*
X135320714Y-83175295D02*
X135320714Y-83270533D01*
X135320714Y-83270533D02*
X135273095Y-83413390D01*
X135273095Y-83413390D02*
X134701667Y-83984819D01*
X134701667Y-83984819D02*
X135320714Y-83984819D01*
X114708333Y-78914819D02*
X114375000Y-78438628D01*
X114136905Y-78914819D02*
X114136905Y-77914819D01*
X114136905Y-77914819D02*
X114517857Y-77914819D01*
X114517857Y-77914819D02*
X114613095Y-77962438D01*
X114613095Y-77962438D02*
X114660714Y-78010057D01*
X114660714Y-78010057D02*
X114708333Y-78105295D01*
X114708333Y-78105295D02*
X114708333Y-78248152D01*
X114708333Y-78248152D02*
X114660714Y-78343390D01*
X114660714Y-78343390D02*
X114613095Y-78391009D01*
X114613095Y-78391009D02*
X114517857Y-78438628D01*
X114517857Y-78438628D02*
X114136905Y-78438628D01*
X115660714Y-78914819D02*
X115089286Y-78914819D01*
X115375000Y-78914819D02*
X115375000Y-77914819D01*
X115375000Y-77914819D02*
X115279762Y-78057676D01*
X115279762Y-78057676D02*
X115184524Y-78152914D01*
X115184524Y-78152914D02*
X115089286Y-78200533D01*
X123266666Y-77954819D02*
X123266666Y-78669104D01*
X123266666Y-78669104D02*
X123219047Y-78811961D01*
X123219047Y-78811961D02*
X123123809Y-78907200D01*
X123123809Y-78907200D02*
X122980952Y-78954819D01*
X122980952Y-78954819D02*
X122885714Y-78954819D01*
X124266666Y-78954819D02*
X123695238Y-78954819D01*
X123980952Y-78954819D02*
X123980952Y-77954819D01*
X123980952Y-77954819D02*
X123885714Y-78097676D01*
X123885714Y-78097676D02*
X123790476Y-78192914D01*
X123790476Y-78192914D02*
X123695238Y-78240533D01*
X105481905Y-90879819D02*
X105481905Y-89879819D01*
X105481905Y-89879819D02*
X105720000Y-89879819D01*
X105720000Y-89879819D02*
X105862857Y-89927438D01*
X105862857Y-89927438D02*
X105958095Y-90022676D01*
X105958095Y-90022676D02*
X106005714Y-90117914D01*
X106005714Y-90117914D02*
X106053333Y-90308390D01*
X106053333Y-90308390D02*
X106053333Y-90451247D01*
X106053333Y-90451247D02*
X106005714Y-90641723D01*
X106005714Y-90641723D02*
X105958095Y-90736961D01*
X105958095Y-90736961D02*
X105862857Y-90832200D01*
X105862857Y-90832200D02*
X105720000Y-90879819D01*
X105720000Y-90879819D02*
X105481905Y-90879819D01*
X107005714Y-90879819D02*
X106434286Y-90879819D01*
X106720000Y-90879819D02*
X106720000Y-89879819D01*
X106720000Y-89879819D02*
X106624762Y-90022676D01*
X106624762Y-90022676D02*
X106529524Y-90117914D01*
X106529524Y-90117914D02*
X106434286Y-90165533D01*
X133433333Y-93659580D02*
X133385714Y-93707200D01*
X133385714Y-93707200D02*
X133242857Y-93754819D01*
X133242857Y-93754819D02*
X133147619Y-93754819D01*
X133147619Y-93754819D02*
X133004762Y-93707200D01*
X133004762Y-93707200D02*
X132909524Y-93611961D01*
X132909524Y-93611961D02*
X132861905Y-93516723D01*
X132861905Y-93516723D02*
X132814286Y-93326247D01*
X132814286Y-93326247D02*
X132814286Y-93183390D01*
X132814286Y-93183390D02*
X132861905Y-92992914D01*
X132861905Y-92992914D02*
X132909524Y-92897676D01*
X132909524Y-92897676D02*
X133004762Y-92802438D01*
X133004762Y-92802438D02*
X133147619Y-92754819D01*
X133147619Y-92754819D02*
X133242857Y-92754819D01*
X133242857Y-92754819D02*
X133385714Y-92802438D01*
X133385714Y-92802438D02*
X133433333Y-92850057D01*
X133814286Y-92850057D02*
X133861905Y-92802438D01*
X133861905Y-92802438D02*
X133957143Y-92754819D01*
X133957143Y-92754819D02*
X134195238Y-92754819D01*
X134195238Y-92754819D02*
X134290476Y-92802438D01*
X134290476Y-92802438D02*
X134338095Y-92850057D01*
X134338095Y-92850057D02*
X134385714Y-92945295D01*
X134385714Y-92945295D02*
X134385714Y-93040533D01*
X134385714Y-93040533D02*
X134338095Y-93183390D01*
X134338095Y-93183390D02*
X133766667Y-93754819D01*
X133766667Y-93754819D02*
X134385714Y-93754819D01*
X133633333Y-88659580D02*
X133585714Y-88707200D01*
X133585714Y-88707200D02*
X133442857Y-88754819D01*
X133442857Y-88754819D02*
X133347619Y-88754819D01*
X133347619Y-88754819D02*
X133204762Y-88707200D01*
X133204762Y-88707200D02*
X133109524Y-88611961D01*
X133109524Y-88611961D02*
X133061905Y-88516723D01*
X133061905Y-88516723D02*
X133014286Y-88326247D01*
X133014286Y-88326247D02*
X133014286Y-88183390D01*
X133014286Y-88183390D02*
X133061905Y-87992914D01*
X133061905Y-87992914D02*
X133109524Y-87897676D01*
X133109524Y-87897676D02*
X133204762Y-87802438D01*
X133204762Y-87802438D02*
X133347619Y-87754819D01*
X133347619Y-87754819D02*
X133442857Y-87754819D01*
X133442857Y-87754819D02*
X133585714Y-87802438D01*
X133585714Y-87802438D02*
X133633333Y-87850057D01*
X134585714Y-88754819D02*
X134014286Y-88754819D01*
X134300000Y-88754819D02*
X134300000Y-87754819D01*
X134300000Y-87754819D02*
X134204762Y-87897676D01*
X134204762Y-87897676D02*
X134109524Y-87992914D01*
X134109524Y-87992914D02*
X134014286Y-88040533D01*
D11*
%TO.C,U1*%
X120905000Y-84610000D02*
X120905000Y-94890000D01*
X120905000Y-94890000D02*
X126205000Y-94890000D01*
X122555000Y-84610000D02*
X120905000Y-84610000D01*
X126205000Y-84610000D02*
X124555000Y-84610000D01*
X126205000Y-94890000D02*
X126205000Y-84610000D01*
X124555000Y-84610000D02*
G75*
G02*
X122555000Y-84610000I-1000000J0D01*
G01*
%TO.C,SW1*%
X102975000Y-83535000D02*
X102975000Y-85035000D01*
X104225000Y-87535000D02*
X108725000Y-87535000D01*
X108725000Y-81035000D02*
X104225000Y-81035000D01*
X109975000Y-85035000D02*
X109975000Y-83535000D01*
%TO.C,R3*%
X116170000Y-91290000D02*
X116170000Y-97830000D01*
X115840000Y-91290000D02*
X116170000Y-91290000D01*
X113760000Y-91290000D02*
X113430000Y-91290000D01*
X113430000Y-91290000D02*
X113430000Y-97830000D01*
X116170000Y-97830000D02*
X115840000Y-97830000D01*
X113430000Y-97830000D02*
X113760000Y-97830000D01*
%TO.C,R2*%
X131265000Y-84530000D02*
X137805000Y-84530000D01*
X131265000Y-84860000D02*
X131265000Y-84530000D01*
X131265000Y-86940000D02*
X131265000Y-87270000D01*
X131265000Y-87270000D02*
X137805000Y-87270000D01*
X137805000Y-84530000D02*
X137805000Y-84860000D01*
X137805000Y-87270000D02*
X137805000Y-86940000D01*
%TO.C,R1*%
X116195000Y-80765000D02*
X116195000Y-87305000D01*
X115865000Y-80765000D02*
X116195000Y-80765000D01*
X113785000Y-80765000D02*
X113455000Y-80765000D01*
X113455000Y-80765000D02*
X113455000Y-87305000D01*
X116195000Y-87305000D02*
X115865000Y-87305000D01*
X113455000Y-87305000D02*
X113785000Y-87305000D01*
%TO.C,J1*%
X126105000Y-79570000D02*
X126105000Y-80950000D01*
X124725000Y-79570000D02*
X126105000Y-79570000D01*
X123455000Y-79570000D02*
X120805000Y-79570000D01*
X123455000Y-79570000D02*
X123455000Y-82330000D01*
X120805000Y-79570000D02*
X120805000Y-82330000D01*
X123455000Y-82330000D02*
X120805000Y-82330000D01*
%TO.C,D1*%
X103660000Y-92840000D02*
X103660000Y-95930000D01*
X103660000Y-92840170D02*
G75*
G02*
X109210000Y-94385000I2560000J-1544830D01*
G01*
X109210000Y-94385000D02*
G75*
G02*
X103660000Y-95929830I-2990000J0D01*
G01*
X108720000Y-94385000D02*
G75*
G02*
X103720000Y-94385000I-2500000J0D01*
G01*
X103720000Y-94385000D02*
G75*
G02*
X108720000Y-94385000I2500000J0D01*
G01*
%TO.C,C2*%
X131005000Y-94155000D02*
X136245000Y-94155000D01*
X131005000Y-94492000D02*
X131005000Y-94155000D01*
X131005000Y-96895000D02*
X131005000Y-96558000D01*
X136245000Y-94155000D02*
X136245000Y-94492000D01*
X136245000Y-96558000D02*
X136245000Y-96895000D01*
X136245000Y-96895000D02*
X131005000Y-96895000D01*
%TO.C,C1*%
X131105000Y-89180000D02*
X136345000Y-89180000D01*
X131105000Y-89517000D02*
X131105000Y-89180000D01*
X131105000Y-91920000D02*
X131105000Y-91583000D01*
X136345000Y-89180000D02*
X136345000Y-89517000D01*
X136345000Y-91583000D02*
X136345000Y-91920000D01*
X136345000Y-91920000D02*
X131105000Y-91920000D01*
%TD*%
M02*
