%TF.GenerationSoftware,KiCad,Pcbnew,9.0.3*%
%TF.CreationDate,2026-07-30T20:35:59+05:30*%
%TF.ProjectId,12_555_Monostable_Multivibrator,31325f35-3535-45f4-9d6f-6e6f73746162,rev?*%
%TF.SameCoordinates,Original*%
%TF.FileFunction,Copper,L2,Bot*%
%TF.FilePolarity,Positive*%
%FSLAX46Y46*%
G04 Gerber Fmt 4.6, Leading zero omitted, Abs format (unit mm)*
G04 Created by KiCad (PCBNEW 9.0.3) date 2026-07-30 20:35:59*
%MOMM*%
%LPD*%
G01*
G04 APERTURE LIST*
G04 Aperture macros list*
%AMRoundRect*
0 Rectangle with rounded corners*
0 $1 Rounding radius*
0 $2 $3 $4 $5 $6 $7 $8 $9 X,Y pos of 4 corners*
0 Add a 4 corners polygon primitive as box body*
4,1,4,$2,$3,$4,$5,$6,$7,$8,$9,$2,$3,0*
0 Add four circle primitives for the rounded corners*
1,1,$1+$1,$2,$3*
1,1,$1+$1,$4,$5*
1,1,$1+$1,$6,$7*
1,1,$1+$1,$8,$9*
0 Add four rect primitives between the rounded corners*
20,1,$1+$1,$2,$3,$4,$5,0*
20,1,$1+$1,$4,$5,$6,$7,0*
20,1,$1+$1,$6,$7,$8,$9,0*
20,1,$1+$1,$8,$9,$2,$3,0*%
G04 Aperture macros list end*
%TA.AperFunction,NonConductor*%
%ADD10C,0.200000*%
%TD*%
%TA.AperFunction,ComponentPad*%
%ADD11RoundRect,0.250000X-0.550000X-0.550000X0.550000X-0.550000X0.550000X0.550000X-0.550000X0.550000X0*%
%TD*%
%TA.AperFunction,ComponentPad*%
%ADD12C,1.600000*%
%TD*%
%TA.AperFunction,ComponentPad*%
%ADD13C,2.000000*%
%TD*%
%TA.AperFunction,ComponentPad*%
%ADD14R,1.700000X1.700000*%
%TD*%
%TA.AperFunction,ComponentPad*%
%ADD15C,1.700000*%
%TD*%
%TA.AperFunction,ComponentPad*%
%ADD16R,1.800000X1.800000*%
%TD*%
%TA.AperFunction,ComponentPad*%
%ADD17C,1.800000*%
%TD*%
%TA.AperFunction,Conductor*%
%ADD18C,0.200000*%
%TD*%
G04 APERTURE END LIST*
D10*
X99500000Y-75500000D02*
X141500000Y-75500000D01*
X141500000Y-103000000D01*
X99500000Y-103000000D01*
X99500000Y-75500000D01*
D11*
%TO.P,U1,1,GND*%
%TO.N,GND*%
X119745000Y-85940000D03*
D12*
%TO.P,U1,2,TR*%
%TO.N,Net-(U1-TR)*%
X119745000Y-88480000D03*
%TO.P,U1,3,Q*%
%TO.N,Net-(U1-Q)*%
X119745000Y-91020000D03*
%TO.P,U1,4,R*%
%TO.N,+5V*%
X119745000Y-93560000D03*
%TO.P,U1,5,CV*%
%TO.N,Net-(U1-CV)*%
X127365000Y-93560000D03*
%TO.P,U1,6,THR*%
%TO.N,Net-(U1-DIS)*%
X127365000Y-91020000D03*
%TO.P,U1,7,DIS*%
X127365000Y-88480000D03*
%TO.P,U1,8,VCC*%
%TO.N,+5V*%
X127365000Y-85940000D03*
%TD*%
D13*
%TO.P,SW1,1,1*%
%TO.N,GND*%
X103225000Y-82035000D03*
X109725000Y-82035000D03*
%TO.P,SW1,2,2*%
%TO.N,Net-(U1-TR)*%
X103225000Y-86535000D03*
X109725000Y-86535000D03*
%TD*%
D12*
%TO.P,R3,1*%
%TO.N,Net-(U1-Q)*%
X114800000Y-90750000D03*
%TO.P,R3,2*%
%TO.N,Net-(D1-A)*%
X114800000Y-98370000D03*
%TD*%
%TO.P,R2,1*%
%TO.N,+5V*%
X130725000Y-85900000D03*
%TO.P,R2,2*%
%TO.N,Net-(U1-DIS)*%
X138345000Y-85900000D03*
%TD*%
%TO.P,R1,1*%
%TO.N,+5V*%
X114825000Y-80225000D03*
%TO.P,R1,2*%
%TO.N,Net-(U1-TR)*%
X114825000Y-87845000D03*
%TD*%
D14*
%TO.P,J1,1,Pin_1*%
%TO.N,+5V*%
X124725000Y-80950000D03*
D15*
%TO.P,J1,2,Pin_2*%
%TO.N,GND*%
X122185000Y-80950000D03*
%TD*%
D16*
%TO.P,D1,1,K*%
%TO.N,GND*%
X104950000Y-94385000D03*
D17*
%TO.P,D1,2,A*%
%TO.N,Net-(D1-A)*%
X107490000Y-94385000D03*
%TD*%
D12*
%TO.P,C2,1*%
%TO.N,GND*%
X131125000Y-95525000D03*
%TO.P,C2,2*%
%TO.N,Net-(U1-CV)*%
X136125000Y-95525000D03*
%TD*%
%TO.P,C1,1*%
%TO.N,Net-(U1-DIS)*%
X131225000Y-90550000D03*
%TO.P,C1,2*%
%TO.N,GND*%
X136225000Y-90550000D03*
%TD*%
D18*
%TO.N,GND*%
X102935000Y-94385000D02*
X104950000Y-94385000D01*
X101924000Y-93374000D02*
X102935000Y-94385000D01*
X103225000Y-82035000D02*
X101924000Y-83336000D01*
X101924000Y-83336000D02*
X101924000Y-93374000D01*
X119745000Y-81455000D02*
X119745000Y-85940000D01*
X120250000Y-80950000D02*
X119745000Y-81455000D01*
X122185000Y-80950000D02*
X120250000Y-80950000D01*
%TO.N,+5V*%
X125490000Y-85940000D02*
X124725000Y-85175000D01*
X124725000Y-85175000D02*
X124725000Y-80950000D01*
X127365000Y-85940000D02*
X125490000Y-85940000D01*
%TO.N,Net-(U1-DIS)*%
X135875000Y-85900000D02*
X131225000Y-90550000D01*
X138345000Y-85900000D02*
X135875000Y-85900000D01*
X127365000Y-91020000D02*
X127365000Y-88480000D01*
X127835000Y-90550000D02*
X127365000Y-91020000D01*
X131225000Y-90550000D02*
X127835000Y-90550000D01*
%TO.N,GND*%
X132800000Y-93850000D02*
X132925000Y-93850000D01*
X132925000Y-93850000D02*
X136225000Y-90550000D01*
X131125000Y-95525000D02*
X132800000Y-93850000D01*
X131064000Y-95586000D02*
X131125000Y-95525000D01*
X106151000Y-95586000D02*
X131064000Y-95586000D01*
X104950000Y-94385000D02*
X106151000Y-95586000D01*
X109725000Y-82035000D02*
X103225000Y-82035000D01*
X119745000Y-85940000D02*
X113630000Y-85940000D01*
X113630000Y-85940000D02*
X109725000Y-82035000D01*
%TO.N,+5V*%
X115624999Y-79425001D02*
X114825000Y-80225000D01*
X124725000Y-80950000D02*
X123200001Y-79425001D01*
X123200001Y-79425001D02*
X115624999Y-79425001D01*
X130685000Y-85940000D02*
X130725000Y-85900000D01*
X127365000Y-85940000D02*
X130685000Y-85940000D01*
X119745000Y-93560000D02*
X127365000Y-85940000D01*
%TO.N,Net-(U1-Q)*%
X115070000Y-91020000D02*
X114800000Y-90750000D01*
X119745000Y-91020000D02*
X115070000Y-91020000D01*
%TO.N,Net-(U1-TR)*%
X115460000Y-88480000D02*
X114825000Y-87845000D01*
X119745000Y-88480000D02*
X115460000Y-88480000D01*
X109725000Y-86535000D02*
X103225000Y-86535000D01*
X111035000Y-87845000D02*
X109725000Y-86535000D01*
X114825000Y-87845000D02*
X111035000Y-87845000D01*
%TD*%
%TA.AperFunction,Conductor*%
%TO.N,+5V*%
G36*
X108337971Y-87155185D02*
G01*
X108381416Y-87203203D01*
X108441657Y-87321433D01*
X108580483Y-87512510D01*
X108747490Y-87679517D01*
X108938567Y-87818343D01*
X109024500Y-87862128D01*
X109149003Y-87925566D01*
X109149005Y-87925566D01*
X109149008Y-87925568D01*
X109241292Y-87955553D01*
X109373631Y-87998553D01*
X109606903Y-88035500D01*
X109606908Y-88035500D01*
X109843097Y-88035500D01*
X109949126Y-88018705D01*
X110076368Y-87998553D01*
X110202566Y-87957547D01*
X110272404Y-87955553D01*
X110328562Y-87987797D01*
X110666284Y-88325520D01*
X110666286Y-88325521D01*
X110666290Y-88325524D01*
X110756573Y-88377648D01*
X110803216Y-88404577D01*
X110955943Y-88445501D01*
X110955945Y-88445501D01*
X111121654Y-88445501D01*
X111121670Y-88445500D01*
X113595398Y-88445500D01*
X113662437Y-88465185D01*
X113705883Y-88513205D01*
X113712715Y-88526614D01*
X113833028Y-88692213D01*
X113977786Y-88836971D01*
X114132749Y-88949556D01*
X114143390Y-88957287D01*
X114259607Y-89016503D01*
X114325776Y-89050218D01*
X114325778Y-89050218D01*
X114325781Y-89050220D01*
X114368361Y-89064055D01*
X114520465Y-89113477D01*
X114621557Y-89129488D01*
X114722648Y-89145500D01*
X114722649Y-89145500D01*
X114927351Y-89145500D01*
X114927352Y-89145500D01*
X115129534Y-89113477D01*
X115263851Y-89069834D01*
X115310632Y-89064055D01*
X115322633Y-89064876D01*
X115380943Y-89080501D01*
X115539058Y-89080501D01*
X115539062Y-89080500D01*
X118515398Y-89080500D01*
X118582437Y-89100185D01*
X118625883Y-89148205D01*
X118632715Y-89161614D01*
X118753028Y-89327213D01*
X118897786Y-89471971D01*
X119016236Y-89558028D01*
X119063390Y-89592287D01*
X119143427Y-89633068D01*
X119156080Y-89639515D01*
X119206876Y-89687490D01*
X119223671Y-89755311D01*
X119201134Y-89821446D01*
X119156080Y-89860485D01*
X119063386Y-89907715D01*
X118897786Y-90028028D01*
X118753028Y-90172786D01*
X118632715Y-90338385D01*
X118625883Y-90351795D01*
X118577909Y-90402591D01*
X118515398Y-90419500D01*
X116150132Y-90419500D01*
X116083093Y-90399815D01*
X116037338Y-90347011D01*
X116032201Y-90333818D01*
X116005221Y-90250783D01*
X116002511Y-90245465D01*
X115912287Y-90068390D01*
X115882963Y-90028028D01*
X115791971Y-89902786D01*
X115647213Y-89758028D01*
X115481613Y-89637715D01*
X115481612Y-89637714D01*
X115481610Y-89637713D01*
X115424653Y-89608691D01*
X115299223Y-89544781D01*
X115104534Y-89481522D01*
X114929995Y-89453878D01*
X114902352Y-89449500D01*
X114697648Y-89449500D01*
X114673329Y-89453351D01*
X114495465Y-89481522D01*
X114300776Y-89544781D01*
X114118386Y-89637715D01*
X113952786Y-89758028D01*
X113808028Y-89902786D01*
X113687715Y-90068386D01*
X113594781Y-90250776D01*
X113531522Y-90445465D01*
X113499500Y-90647648D01*
X113499500Y-90852351D01*
X113531522Y-91054534D01*
X113594781Y-91249223D01*
X113687715Y-91431613D01*
X113808028Y-91597213D01*
X113952786Y-91741971D01*
X114058090Y-91818477D01*
X114118390Y-91862287D01*
X114234607Y-91921503D01*
X114300776Y-91955218D01*
X114300778Y-91955218D01*
X114300781Y-91955220D01*
X114405137Y-91989127D01*
X114495465Y-92018477D01*
X114596557Y-92034488D01*
X114697648Y-92050500D01*
X114697649Y-92050500D01*
X114902351Y-92050500D01*
X114902352Y-92050500D01*
X115104534Y-92018477D01*
X115299219Y-91955220D01*
X115481610Y-91862287D01*
X115580629Y-91790346D01*
X115647213Y-91741971D01*
X115647215Y-91741968D01*
X115647219Y-91741966D01*
X115732366Y-91656819D01*
X115793689Y-91623334D01*
X115820047Y-91620500D01*
X118515398Y-91620500D01*
X118582437Y-91640185D01*
X118625883Y-91688205D01*
X118632715Y-91701614D01*
X118753028Y-91867213D01*
X118897786Y-92011971D01*
X119063385Y-92132284D01*
X119063387Y-92132285D01*
X119063390Y-92132287D01*
X119156080Y-92179515D01*
X119156630Y-92179795D01*
X119207426Y-92227770D01*
X119224221Y-92295591D01*
X119201684Y-92361725D01*
X119156630Y-92400765D01*
X119063644Y-92448143D01*
X119019077Y-92480523D01*
X119019077Y-92480524D01*
X119698554Y-93160000D01*
X119692339Y-93160000D01*
X119590606Y-93187259D01*
X119499394Y-93239920D01*
X119424920Y-93314394D01*
X119372259Y-93405606D01*
X119345000Y-93507339D01*
X119345000Y-93513553D01*
X118665524Y-92834077D01*
X118665523Y-92834077D01*
X118633143Y-92878644D01*
X118540244Y-93060968D01*
X118477009Y-93255582D01*
X118445000Y-93457682D01*
X118445000Y-93662317D01*
X118477009Y-93864417D01*
X118540244Y-94059031D01*
X118633141Y-94241350D01*
X118633147Y-94241359D01*
X118665523Y-94285921D01*
X118665524Y-94285922D01*
X119345000Y-93606446D01*
X119345000Y-93612661D01*
X119372259Y-93714394D01*
X119424920Y-93805606D01*
X119499394Y-93880080D01*
X119590606Y-93932741D01*
X119692339Y-93960000D01*
X119698553Y-93960000D01*
X119019076Y-94639474D01*
X119063650Y-94671859D01*
X119219002Y-94751015D01*
X119269798Y-94798989D01*
X119286593Y-94866810D01*
X119264056Y-94932945D01*
X119209341Y-94976397D01*
X119162707Y-94985500D01*
X108938131Y-94985500D01*
X108871092Y-94965815D01*
X108825337Y-94913011D01*
X108815393Y-94843853D01*
X108820200Y-94823183D01*
X108856014Y-94712954D01*
X108856013Y-94712954D01*
X108856015Y-94712951D01*
X108890500Y-94495222D01*
X108890500Y-94274778D01*
X108856015Y-94057049D01*
X108821955Y-93952221D01*
X108787896Y-93847396D01*
X108787895Y-93847393D01*
X108720127Y-93714394D01*
X108687815Y-93650978D01*
X108621717Y-93560001D01*
X108596799Y-93525704D01*
X108596796Y-93525701D01*
X108583455Y-93507339D01*
X108558242Y-93472635D01*
X108402365Y-93316758D01*
X108402363Y-93316756D01*
X108402358Y-93316752D01*
X108224025Y-93187187D01*
X108224024Y-93187186D01*
X108224022Y-93187185D01*
X108106791Y-93127452D01*
X108027606Y-93087104D01*
X108027603Y-93087103D01*
X107817952Y-93018985D01*
X107709086Y-93001742D01*
X107600222Y-92984500D01*
X107379778Y-92984500D01*
X107307201Y-92995995D01*
X107162047Y-93018985D01*
X106952396Y-93087103D01*
X106952393Y-93087104D01*
X106755974Y-93187187D01*
X106577641Y-93316752D01*
X106577636Y-93316756D01*
X106527463Y-93366929D01*
X106466140Y-93400413D01*
X106396448Y-93395428D01*
X106340515Y-93353557D01*
X106323601Y-93322580D01*
X106293797Y-93242671D01*
X106293793Y-93242664D01*
X106207547Y-93127455D01*
X106207544Y-93127452D01*
X106092335Y-93041206D01*
X106092328Y-93041202D01*
X105957482Y-92990908D01*
X105957483Y-92990908D01*
X105897883Y-92984501D01*
X105897881Y-92984500D01*
X105897873Y-92984500D01*
X105897864Y-92984500D01*
X104002129Y-92984500D01*
X104002123Y-92984501D01*
X103942516Y-92990908D01*
X103807671Y-93041202D01*
X103807664Y-93041206D01*
X103692455Y-93127452D01*
X103692452Y-93127455D01*
X103606206Y-93242664D01*
X103606202Y-93242671D01*
X103555908Y-93377517D01*
X103549501Y-93437116D01*
X103549500Y-93437135D01*
X103549500Y-93660500D01*
X103546949Y-93669185D01*
X103548238Y-93678147D01*
X103537259Y-93702187D01*
X103529815Y-93727539D01*
X103522974Y-93733466D01*
X103519213Y-93741703D01*
X103496978Y-93755992D01*
X103477011Y-93773294D01*
X103466496Y-93775581D01*
X103460435Y-93779477D01*
X103425500Y-93784500D01*
X103235097Y-93784500D01*
X103168058Y-93764815D01*
X103147416Y-93748181D01*
X102560819Y-93161584D01*
X102527334Y-93100261D01*
X102524500Y-93073903D01*
X102524500Y-88055784D01*
X102544185Y-87988745D01*
X102596989Y-87942990D01*
X102666147Y-87933046D01*
X102686812Y-87937851D01*
X102806459Y-87976727D01*
X102873631Y-87998553D01*
X103106903Y-88035500D01*
X103106908Y-88035500D01*
X103343097Y-88035500D01*
X103576368Y-87998553D01*
X103631064Y-87980781D01*
X103800992Y-87925568D01*
X104011433Y-87818343D01*
X104202510Y-87679517D01*
X104369517Y-87512510D01*
X104508343Y-87321433D01*
X104568583Y-87203204D01*
X104616558Y-87152409D01*
X104679068Y-87135500D01*
X108270932Y-87135500D01*
X108337971Y-87155185D01*
G37*
%TD.AperFunction*%
%TA.AperFunction,Conductor*%
G36*
X139942539Y-77020185D02*
G01*
X139988294Y-77072989D01*
X139999500Y-77124500D01*
X139999500Y-101375500D01*
X139979815Y-101442539D01*
X139927011Y-101488294D01*
X139875500Y-101499500D01*
X101124500Y-101499500D01*
X101057461Y-101479815D01*
X101011706Y-101427011D01*
X101000500Y-101375500D01*
X101000500Y-98267648D01*
X113499500Y-98267648D01*
X113499500Y-98472351D01*
X113531522Y-98674534D01*
X113594781Y-98869223D01*
X113687715Y-99051613D01*
X113808028Y-99217213D01*
X113952786Y-99361971D01*
X114107749Y-99474556D01*
X114118390Y-99482287D01*
X114234607Y-99541503D01*
X114300776Y-99575218D01*
X114300778Y-99575218D01*
X114300781Y-99575220D01*
X114405137Y-99609127D01*
X114495465Y-99638477D01*
X114596557Y-99654488D01*
X114697648Y-99670500D01*
X114697649Y-99670500D01*
X114902351Y-99670500D01*
X114902352Y-99670500D01*
X115104534Y-99638477D01*
X115299219Y-99575220D01*
X115481610Y-99482287D01*
X115574590Y-99414732D01*
X115647213Y-99361971D01*
X115647215Y-99361968D01*
X115647219Y-99361966D01*
X115791966Y-99217219D01*
X115791968Y-99217215D01*
X115791971Y-99217213D01*
X115844732Y-99144590D01*
X115912287Y-99051610D01*
X116005220Y-98869219D01*
X116068477Y-98674534D01*
X116100500Y-98472352D01*
X116100500Y-98267648D01*
X116068477Y-98065466D01*
X116005220Y-97870781D01*
X116005218Y-97870778D01*
X116005218Y-97870776D01*
X115971503Y-97804607D01*
X115912287Y-97688390D01*
X115904556Y-97677749D01*
X115791971Y-97522786D01*
X115647213Y-97378028D01*
X115481613Y-97257715D01*
X115481612Y-97257714D01*
X115481610Y-97257713D01*
X115424653Y-97228691D01*
X115299223Y-97164781D01*
X115104534Y-97101522D01*
X114929995Y-97073878D01*
X114902352Y-97069500D01*
X114697648Y-97069500D01*
X114673329Y-97073351D01*
X114495465Y-97101522D01*
X114300776Y-97164781D01*
X114118386Y-97257715D01*
X113952786Y-97378028D01*
X113808028Y-97522786D01*
X113687715Y-97688386D01*
X113594781Y-97870776D01*
X113531522Y-98065465D01*
X113499500Y-98267648D01*
X101000500Y-98267648D01*
X101000500Y-93453054D01*
X101323498Y-93453054D01*
X101364423Y-93605785D01*
X101393358Y-93655900D01*
X101393359Y-93655904D01*
X101393360Y-93655904D01*
X101443479Y-93742714D01*
X101443481Y-93742717D01*
X101562349Y-93861585D01*
X101562355Y-93861590D01*
X102450139Y-94749374D01*
X102450149Y-94749385D01*
X102454479Y-94753715D01*
X102454480Y-94753716D01*
X102566284Y-94865520D01*
X102648543Y-94913011D01*
X102653095Y-94915639D01*
X102653097Y-94915641D01*
X102683070Y-94932946D01*
X102703215Y-94944577D01*
X102855943Y-94985501D01*
X102855946Y-94985501D01*
X103021653Y-94985501D01*
X103021669Y-94985500D01*
X103425501Y-94985500D01*
X103492540Y-95005185D01*
X103538295Y-95057989D01*
X103549501Y-95109500D01*
X103549501Y-95332876D01*
X103555908Y-95392483D01*
X103606202Y-95527328D01*
X103606206Y-95527335D01*
X103692452Y-95642544D01*
X103692455Y-95642547D01*
X103807664Y-95728793D01*
X103807671Y-95728797D01*
X103942517Y-95779091D01*
X103942516Y-95779091D01*
X103949444Y-95779835D01*
X104002127Y-95785500D01*
X105449902Y-95785499D01*
X105479342Y-95794143D01*
X105509329Y-95800667D01*
X105514344Y-95804421D01*
X105516941Y-95805184D01*
X105537583Y-95821818D01*
X105666139Y-95950374D01*
X105666149Y-95950385D01*
X105670479Y-95954715D01*
X105670480Y-95954716D01*
X105782284Y-96066520D01*
X105782286Y-96066521D01*
X105782290Y-96066524D01*
X105919209Y-96145573D01*
X105919216Y-96145577D01*
X106031019Y-96175534D01*
X106071942Y-96186500D01*
X106071943Y-96186500D01*
X129934920Y-96186500D01*
X130001959Y-96206185D01*
X130035238Y-96237615D01*
X130133028Y-96372212D01*
X130133032Y-96372217D01*
X130277786Y-96516971D01*
X130432749Y-96629556D01*
X130443390Y-96637287D01*
X130559607Y-96696503D01*
X130625776Y-96730218D01*
X130625778Y-96730218D01*
X130625781Y-96730220D01*
X130730137Y-96764127D01*
X130820465Y-96793477D01*
X130921557Y-96809488D01*
X131022648Y-96825500D01*
X131022649Y-96825500D01*
X131227351Y-96825500D01*
X131227352Y-96825500D01*
X131429534Y-96793477D01*
X131624219Y-96730220D01*
X131806610Y-96637287D01*
X131899590Y-96569732D01*
X131972213Y-96516971D01*
X131972215Y-96516968D01*
X131972219Y-96516966D01*
X132116966Y-96372219D01*
X132116968Y-96372215D01*
X132116971Y-96372213D01*
X132169732Y-96299590D01*
X132237287Y-96206610D01*
X132330220Y-96024219D01*
X132393477Y-95829534D01*
X132425500Y-95627352D01*
X132425500Y-95422648D01*
X134824500Y-95422648D01*
X134824500Y-95627351D01*
X134856522Y-95829534D01*
X134919781Y-96024223D01*
X134981613Y-96145573D01*
X135012496Y-96206185D01*
X135012715Y-96206613D01*
X135133028Y-96372213D01*
X135277786Y-96516971D01*
X135432749Y-96629556D01*
X135443390Y-96637287D01*
X135559607Y-96696503D01*
X135625776Y-96730218D01*
X135625778Y-96730218D01*
X135625781Y-96730220D01*
X135730137Y-96764127D01*
X135820465Y-96793477D01*
X135921557Y-96809488D01*
X136022648Y-96825500D01*
X136022649Y-96825500D01*
X136227351Y-96825500D01*
X136227352Y-96825500D01*
X136429534Y-96793477D01*
X136624219Y-96730220D01*
X136806610Y-96637287D01*
X136899590Y-96569732D01*
X136972213Y-96516971D01*
X136972215Y-96516968D01*
X136972219Y-96516966D01*
X137116966Y-96372219D01*
X137116968Y-96372215D01*
X137116971Y-96372213D01*
X137169732Y-96299590D01*
X137237287Y-96206610D01*
X137330220Y-96024219D01*
X137393477Y-95829534D01*
X137425500Y-95627352D01*
X137425500Y-95422648D01*
X137411281Y-95332872D01*
X137393477Y-95220465D01*
X137330218Y-95025776D01*
X137282918Y-94932946D01*
X137237287Y-94843390D01*
X137172136Y-94753716D01*
X137116971Y-94677786D01*
X136972213Y-94533028D01*
X136806613Y-94412715D01*
X136806612Y-94412714D01*
X136806610Y-94412713D01*
X136749653Y-94383691D01*
X136624223Y-94319781D01*
X136429534Y-94256522D01*
X136254995Y-94228878D01*
X136227352Y-94224500D01*
X136022648Y-94224500D01*
X135998329Y-94228351D01*
X135820465Y-94256522D01*
X135625776Y-94319781D01*
X135443386Y-94412715D01*
X135277786Y-94533028D01*
X135133028Y-94677786D01*
X135012715Y-94843386D01*
X134919781Y-95025776D01*
X134856522Y-95220465D01*
X134824500Y-95422648D01*
X132425500Y-95422648D01*
X132393477Y-95220466D01*
X132388826Y-95206154D01*
X132386832Y-95136315D01*
X132419075Y-95080159D01*
X133041596Y-94457638D01*
X133078677Y-94432115D01*
X133087666Y-94428097D01*
X133156785Y-94409577D01*
X133246096Y-94358013D01*
X133293716Y-94330520D01*
X133405520Y-94218716D01*
X133405520Y-94218714D01*
X133415724Y-94208511D01*
X133415727Y-94208506D01*
X135780159Y-91844075D01*
X135841480Y-91810592D01*
X135906154Y-91813826D01*
X135920466Y-91818477D01*
X136122648Y-91850500D01*
X136122649Y-91850500D01*
X136327351Y-91850500D01*
X136327352Y-91850500D01*
X136529534Y-91818477D01*
X136724219Y-91755220D01*
X136906610Y-91662287D01*
X136999590Y-91594732D01*
X137072213Y-91541971D01*
X137072215Y-91541968D01*
X137072219Y-91541966D01*
X137216966Y-91397219D01*
X137216968Y-91397215D01*
X137216971Y-91397213D01*
X137320219Y-91255102D01*
X137337287Y-91231610D01*
X137430220Y-91049219D01*
X137493477Y-90854534D01*
X137525500Y-90652352D01*
X137525500Y-90447648D01*
X137493477Y-90245466D01*
X137430220Y-90050781D01*
X137430218Y-90050778D01*
X137430218Y-90050776D01*
X137396503Y-89984607D01*
X137337287Y-89868390D01*
X137318247Y-89842183D01*
X137216971Y-89702786D01*
X137072213Y-89558028D01*
X136906613Y-89437715D01*
X136906612Y-89437714D01*
X136906610Y-89437713D01*
X136849653Y-89408691D01*
X136724223Y-89344781D01*
X136529534Y-89281522D01*
X136354995Y-89253878D01*
X136327352Y-89249500D01*
X136122648Y-89249500D01*
X136098329Y-89253351D01*
X135920465Y-89281522D01*
X135725776Y-89344781D01*
X135543386Y-89437715D01*
X135377786Y-89558028D01*
X135233028Y-89702786D01*
X135112715Y-89868386D01*
X135019781Y-90050776D01*
X134956522Y-90245465D01*
X134924500Y-90447648D01*
X134924500Y-90652351D01*
X134956523Y-90854535D01*
X134961172Y-90868845D01*
X134963165Y-90938687D01*
X134930921Y-90994841D01*
X132683405Y-93242358D01*
X132627819Y-93274451D01*
X132568222Y-93290420D01*
X132568209Y-93290426D01*
X132431290Y-93369475D01*
X132431282Y-93369481D01*
X131569841Y-94230921D01*
X131508518Y-94264406D01*
X131443845Y-94261172D01*
X131429535Y-94256523D01*
X131328443Y-94240511D01*
X131227352Y-94224500D01*
X131022648Y-94224500D01*
X130998329Y-94228351D01*
X130820465Y-94256522D01*
X130625776Y-94319781D01*
X130443386Y-94412715D01*
X130277786Y-94533028D01*
X130133028Y-94677786D01*
X130012715Y-94843385D01*
X130012477Y-94843853D01*
X129975901Y-94915639D01*
X129974802Y-94917795D01*
X129926828Y-94968591D01*
X129864317Y-94985500D01*
X127948393Y-94985500D01*
X127881354Y-94965815D01*
X127835599Y-94913011D01*
X127825655Y-94843853D01*
X127854680Y-94780297D01*
X127892098Y-94751015D01*
X127900252Y-94746860D01*
X128046610Y-94672287D01*
X128139590Y-94604732D01*
X128212213Y-94551971D01*
X128212215Y-94551968D01*
X128212219Y-94551966D01*
X128356966Y-94407219D01*
X128356968Y-94407215D01*
X128356971Y-94407213D01*
X128420494Y-94319780D01*
X128477287Y-94241610D01*
X128570220Y-94059219D01*
X128633477Y-93864534D01*
X128665500Y-93662352D01*
X128665500Y-93457648D01*
X128652808Y-93377517D01*
X128633477Y-93255465D01*
X128578773Y-93087104D01*
X128570220Y-93060781D01*
X128570218Y-93060778D01*
X128570218Y-93060776D01*
X128477419Y-92878650D01*
X128477287Y-92878390D01*
X128445092Y-92834077D01*
X128356971Y-92712786D01*
X128212213Y-92568028D01*
X128046614Y-92447715D01*
X128040006Y-92444348D01*
X127953917Y-92400483D01*
X127903123Y-92352511D01*
X127886328Y-92284690D01*
X127908865Y-92218555D01*
X127953917Y-92179516D01*
X128046610Y-92132287D01*
X128067770Y-92116913D01*
X128212213Y-92011971D01*
X128212215Y-92011968D01*
X128212219Y-92011966D01*
X128356966Y-91867219D01*
X128356968Y-91867215D01*
X128356971Y-91867213D01*
X128438337Y-91755220D01*
X128477287Y-91701610D01*
X128570220Y-91519219D01*
X128633477Y-91324534D01*
X128644474Y-91255101D01*
X128674403Y-91191967D01*
X128733715Y-91155036D01*
X128766947Y-91150500D01*
X129995398Y-91150500D01*
X130062437Y-91170185D01*
X130105883Y-91218205D01*
X130112715Y-91231614D01*
X130233028Y-91397213D01*
X130377786Y-91541971D01*
X130489775Y-91623334D01*
X130543390Y-91662287D01*
X130659607Y-91721503D01*
X130725776Y-91755218D01*
X130725778Y-91755218D01*
X130725781Y-91755220D01*
X130830137Y-91789127D01*
X130920465Y-91818477D01*
X131021557Y-91834488D01*
X131122648Y-91850500D01*
X131122649Y-91850500D01*
X131327351Y-91850500D01*
X131327352Y-91850500D01*
X131529534Y-91818477D01*
X131724219Y-91755220D01*
X131906610Y-91662287D01*
X131999590Y-91594732D01*
X132072213Y-91541971D01*
X132072215Y-91541968D01*
X132072219Y-91541966D01*
X132216966Y-91397219D01*
X132216968Y-91397215D01*
X132216971Y-91397213D01*
X132320219Y-91255102D01*
X132337287Y-91231610D01*
X132430220Y-91049219D01*
X132493477Y-90854534D01*
X132525500Y-90652352D01*
X132525500Y-90447648D01*
X132493477Y-90245466D01*
X132488825Y-90231151D01*
X132486832Y-90161312D01*
X132519075Y-90105158D01*
X136087416Y-86536819D01*
X136148739Y-86503334D01*
X136175097Y-86500500D01*
X137115398Y-86500500D01*
X137182437Y-86520185D01*
X137225883Y-86568205D01*
X137232715Y-86581614D01*
X137353028Y-86747213D01*
X137497786Y-86891971D01*
X137618226Y-86979474D01*
X137663390Y-87012287D01*
X137779607Y-87071503D01*
X137845776Y-87105218D01*
X137845778Y-87105218D01*
X137845781Y-87105220D01*
X137938973Y-87135500D01*
X138040465Y-87168477D01*
X138110061Y-87179500D01*
X138242648Y-87200500D01*
X138242649Y-87200500D01*
X138447351Y-87200500D01*
X138447352Y-87200500D01*
X138649534Y-87168477D01*
X138844219Y-87105220D01*
X139026610Y-87012287D01*
X139119590Y-86944732D01*
X139192213Y-86891971D01*
X139192215Y-86891968D01*
X139192219Y-86891966D01*
X139336966Y-86747219D01*
X139336968Y-86747215D01*
X139336971Y-86747213D01*
X139415024Y-86639780D01*
X139457287Y-86581610D01*
X139550220Y-86399219D01*
X139613477Y-86204534D01*
X139645500Y-86002352D01*
X139645500Y-85797648D01*
X139629146Y-85694394D01*
X139613477Y-85595465D01*
X139582458Y-85500000D01*
X139550220Y-85400781D01*
X139550218Y-85400778D01*
X139550218Y-85400776D01*
X139500346Y-85302898D01*
X139457287Y-85218390D01*
X139425092Y-85174077D01*
X139336971Y-85052786D01*
X139192213Y-84908028D01*
X139026613Y-84787715D01*
X139026612Y-84787714D01*
X139026610Y-84787713D01*
X138969653Y-84758691D01*
X138844223Y-84694781D01*
X138649534Y-84631522D01*
X138474995Y-84603878D01*
X138447352Y-84599500D01*
X138242648Y-84599500D01*
X138218329Y-84603351D01*
X138040465Y-84631522D01*
X137845776Y-84694781D01*
X137663386Y-84787715D01*
X137497786Y-84908028D01*
X137353028Y-85052786D01*
X137232715Y-85218385D01*
X137225883Y-85231795D01*
X137177909Y-85282591D01*
X137115398Y-85299500D01*
X135954057Y-85299500D01*
X135795943Y-85299500D01*
X135643215Y-85340423D01*
X135643214Y-85340423D01*
X135643212Y-85340424D01*
X135643209Y-85340425D01*
X135593096Y-85369359D01*
X135593095Y-85369360D01*
X135556509Y-85390483D01*
X135506285Y-85419479D01*
X135506282Y-85419481D01*
X135394478Y-85531286D01*
X131669842Y-89255921D01*
X131608519Y-89289406D01*
X131543848Y-89286173D01*
X131529534Y-89281522D01*
X131354995Y-89253878D01*
X131327352Y-89249500D01*
X131122648Y-89249500D01*
X131098329Y-89253351D01*
X130920465Y-89281522D01*
X130725776Y-89344781D01*
X130543386Y-89437715D01*
X130377786Y-89558028D01*
X130233028Y-89702786D01*
X130112715Y-89868385D01*
X130105883Y-89881795D01*
X130057909Y-89932591D01*
X129995398Y-89949500D01*
X128144415Y-89949500D01*
X128127375Y-89944519D01*
X128109770Y-89944562D01*
X128083541Y-89931706D01*
X128077630Y-89929978D01*
X128074511Y-89927984D01*
X128046610Y-89907713D01*
X128027825Y-89898141D01*
X128022715Y-89894875D01*
X128003587Y-89872908D01*
X127982406Y-89852903D01*
X127980712Y-89846639D01*
X127976831Y-89842183D01*
X127973680Y-89820643D01*
X127965500Y-89790397D01*
X127965500Y-89709601D01*
X127985185Y-89642562D01*
X128033206Y-89599116D01*
X128046610Y-89592287D01*
X128212219Y-89471966D01*
X128356966Y-89327219D01*
X128356968Y-89327215D01*
X128356971Y-89327213D01*
X128413432Y-89249500D01*
X128477287Y-89161610D01*
X128570220Y-88979219D01*
X128633477Y-88784534D01*
X128665500Y-88582352D01*
X128665500Y-88377648D01*
X128633477Y-88175466D01*
X128570220Y-87980781D01*
X128570218Y-87980778D01*
X128570218Y-87980776D01*
X128536503Y-87914607D01*
X128477287Y-87798390D01*
X128446126Y-87755500D01*
X128356971Y-87632786D01*
X128212213Y-87488028D01*
X128046611Y-87367713D01*
X127953369Y-87320203D01*
X127902574Y-87272229D01*
X127885779Y-87204407D01*
X127908317Y-87138273D01*
X127953371Y-87099234D01*
X128046346Y-87051861D01*
X128046347Y-87051861D01*
X128090921Y-87019474D01*
X127411447Y-86340000D01*
X127417661Y-86340000D01*
X127519394Y-86312741D01*
X127610606Y-86260080D01*
X127685080Y-86185606D01*
X127737741Y-86094394D01*
X127765000Y-85992661D01*
X127765000Y-85986448D01*
X128444474Y-86665922D01*
X128444474Y-86665921D01*
X128476859Y-86621349D01*
X128569755Y-86439031D01*
X128632990Y-86244417D01*
X128665000Y-86042317D01*
X128665000Y-85837683D01*
X128660966Y-85812215D01*
X128660966Y-85812214D01*
X128658664Y-85797682D01*
X129425000Y-85797682D01*
X129425000Y-86002317D01*
X129457009Y-86204417D01*
X129520244Y-86399031D01*
X129613141Y-86581350D01*
X129613147Y-86581359D01*
X129645523Y-86625921D01*
X129645524Y-86625922D01*
X130325000Y-85946446D01*
X130325000Y-85952661D01*
X130352259Y-86054394D01*
X130404920Y-86145606D01*
X130479394Y-86220080D01*
X130570606Y-86272741D01*
X130672339Y-86300000D01*
X130678553Y-86300000D01*
X129999076Y-86979474D01*
X130043650Y-87011859D01*
X130225968Y-87104755D01*
X130420582Y-87167990D01*
X130622683Y-87200000D01*
X130827317Y-87200000D01*
X131029417Y-87167990D01*
X131224031Y-87104755D01*
X131406349Y-87011859D01*
X131450921Y-86979474D01*
X130771447Y-86300000D01*
X130777661Y-86300000D01*
X130879394Y-86272741D01*
X130970606Y-86220080D01*
X131045080Y-86145606D01*
X131097741Y-86054394D01*
X131125000Y-85952661D01*
X131125000Y-85946448D01*
X131804474Y-86625922D01*
X131804474Y-86625921D01*
X131836859Y-86581349D01*
X131929755Y-86399031D01*
X131992990Y-86204417D01*
X132025000Y-86002317D01*
X132025000Y-85797682D01*
X131992990Y-85595582D01*
X131929755Y-85400968D01*
X131836859Y-85218650D01*
X131804474Y-85174077D01*
X131804474Y-85174076D01*
X131125000Y-85853551D01*
X131125000Y-85847339D01*
X131097741Y-85745606D01*
X131045080Y-85654394D01*
X130970606Y-85579920D01*
X130879394Y-85527259D01*
X130777661Y-85500000D01*
X130771446Y-85500000D01*
X131450922Y-84820524D01*
X131450921Y-84820523D01*
X131406359Y-84788147D01*
X131406350Y-84788141D01*
X131224031Y-84695244D01*
X131029417Y-84632009D01*
X130827317Y-84600000D01*
X130622683Y-84600000D01*
X130420582Y-84632009D01*
X130225968Y-84695244D01*
X130043644Y-84788143D01*
X129999077Y-84820523D01*
X129999077Y-84820524D01*
X130678554Y-85500000D01*
X130672339Y-85500000D01*
X130570606Y-85527259D01*
X130479394Y-85579920D01*
X130404920Y-85654394D01*
X130352259Y-85745606D01*
X130325000Y-85847339D01*
X130325000Y-85853553D01*
X129645524Y-85174077D01*
X129645523Y-85174077D01*
X129613143Y-85218644D01*
X129520244Y-85400968D01*
X129457009Y-85595582D01*
X129425000Y-85797682D01*
X128658664Y-85797682D01*
X128632990Y-85635582D01*
X128569755Y-85440968D01*
X128476859Y-85258650D01*
X128444474Y-85214077D01*
X128444474Y-85214076D01*
X127765000Y-85893551D01*
X127765000Y-85887339D01*
X127737741Y-85785606D01*
X127685080Y-85694394D01*
X127610606Y-85619920D01*
X127519394Y-85567259D01*
X127417661Y-85540000D01*
X127411446Y-85540000D01*
X128090922Y-84860524D01*
X128090921Y-84860523D01*
X128046359Y-84828147D01*
X128046350Y-84828141D01*
X127864031Y-84735244D01*
X127669417Y-84672009D01*
X127467317Y-84640000D01*
X127262683Y-84640000D01*
X127060582Y-84672009D01*
X126865968Y-84735244D01*
X126683644Y-84828143D01*
X126639077Y-84860523D01*
X126639077Y-84860524D01*
X127318554Y-85540000D01*
X127312339Y-85540000D01*
X127210606Y-85567259D01*
X127119394Y-85619920D01*
X127044920Y-85694394D01*
X126992259Y-85785606D01*
X126965000Y-85887339D01*
X126965000Y-85893553D01*
X126285524Y-85214077D01*
X126285523Y-85214077D01*
X126253143Y-85258644D01*
X126160244Y-85440968D01*
X126097009Y-85635582D01*
X126065000Y-85837682D01*
X126065000Y-86042317D01*
X126097009Y-86244417D01*
X126160244Y-86439031D01*
X126253141Y-86621350D01*
X126253147Y-86621359D01*
X126285523Y-86665921D01*
X126285524Y-86665922D01*
X126965000Y-85986446D01*
X126965000Y-85992661D01*
X126992259Y-86094394D01*
X127044920Y-86185606D01*
X127119394Y-86260080D01*
X127210606Y-86312741D01*
X127312339Y-86340000D01*
X127318553Y-86340000D01*
X126639076Y-87019474D01*
X126683652Y-87051861D01*
X126776628Y-87099234D01*
X126827425Y-87147208D01*
X126844220Y-87215029D01*
X126821683Y-87281164D01*
X126776630Y-87320203D01*
X126683388Y-87367713D01*
X126517786Y-87488028D01*
X126373028Y-87632786D01*
X126252715Y-87798386D01*
X126159781Y-87980776D01*
X126096522Y-88175465D01*
X126064500Y-88377648D01*
X126064500Y-88582351D01*
X126096522Y-88784534D01*
X126159781Y-88979223D01*
X126252715Y-89161613D01*
X126373028Y-89327213D01*
X126373034Y-89327219D01*
X126517781Y-89471966D01*
X126683390Y-89592287D01*
X126696793Y-89599116D01*
X126707856Y-89609564D01*
X126721703Y-89615888D01*
X126732744Y-89633068D01*
X126747589Y-89647088D01*
X126751830Y-89662768D01*
X126759477Y-89674666D01*
X126764500Y-89709601D01*
X126764500Y-89790397D01*
X126744815Y-89857436D01*
X126696800Y-89900879D01*
X126683389Y-89907712D01*
X126517786Y-90028028D01*
X126373028Y-90172786D01*
X126252715Y-90338386D01*
X126159781Y-90520776D01*
X126096522Y-90715465D01*
X126064500Y-90917648D01*
X126064500Y-91122351D01*
X126096522Y-91324534D01*
X126159781Y-91519223D01*
X126199520Y-91597213D01*
X126232675Y-91662284D01*
X126252715Y-91701613D01*
X126373028Y-91867213D01*
X126517786Y-92011971D01*
X126672749Y-92124556D01*
X126683390Y-92132287D01*
X126774840Y-92178883D01*
X126776080Y-92179515D01*
X126826876Y-92227490D01*
X126843671Y-92295311D01*
X126821134Y-92361446D01*
X126776080Y-92400485D01*
X126683386Y-92447715D01*
X126517786Y-92568028D01*
X126373028Y-92712786D01*
X126252715Y-92878386D01*
X126159781Y-93060776D01*
X126096522Y-93255465D01*
X126064500Y-93457648D01*
X126064500Y-93662351D01*
X126096522Y-93864534D01*
X126159781Y-94059223D01*
X126223691Y-94184653D01*
X126252585Y-94241359D01*
X126252715Y-94241613D01*
X126373028Y-94407213D01*
X126517786Y-94551971D01*
X126638226Y-94639474D01*
X126683390Y-94672287D01*
X126825767Y-94744832D01*
X126837902Y-94751015D01*
X126888698Y-94798990D01*
X126905493Y-94866811D01*
X126882956Y-94932946D01*
X126828240Y-94976397D01*
X126781607Y-94985500D01*
X120327293Y-94985500D01*
X120260254Y-94965815D01*
X120214499Y-94913011D01*
X120204555Y-94843853D01*
X120233580Y-94780297D01*
X120270998Y-94751015D01*
X120426349Y-94671859D01*
X120470921Y-94639474D01*
X119791447Y-93960000D01*
X119797661Y-93960000D01*
X119899394Y-93932741D01*
X119990606Y-93880080D01*
X120065080Y-93805606D01*
X120117741Y-93714394D01*
X120145000Y-93612661D01*
X120145000Y-93606448D01*
X120824474Y-94285922D01*
X120824474Y-94285921D01*
X120856859Y-94241349D01*
X120949755Y-94059031D01*
X121012990Y-93864417D01*
X121045000Y-93662317D01*
X121045000Y-93457682D01*
X121012990Y-93255582D01*
X120949755Y-93060968D01*
X120856859Y-92878650D01*
X120824474Y-92834077D01*
X120824474Y-92834076D01*
X120145000Y-93513551D01*
X120145000Y-93507339D01*
X120117741Y-93405606D01*
X120065080Y-93314394D01*
X119990606Y-93239920D01*
X119899394Y-93187259D01*
X119797661Y-93160000D01*
X119791446Y-93160000D01*
X120470922Y-92480524D01*
X120470921Y-92480523D01*
X120426359Y-92448147D01*
X120426350Y-92448141D01*
X120333369Y-92400765D01*
X120282573Y-92352790D01*
X120265778Y-92284969D01*
X120288315Y-92218835D01*
X120333370Y-92179795D01*
X120333920Y-92179515D01*
X120426610Y-92132287D01*
X120476144Y-92096298D01*
X120592213Y-92011971D01*
X120592215Y-92011968D01*
X120592219Y-92011966D01*
X120736966Y-91867219D01*
X120736968Y-91867215D01*
X120736971Y-91867213D01*
X120818337Y-91755220D01*
X120857287Y-91701610D01*
X120950220Y-91519219D01*
X121013477Y-91324534D01*
X121045500Y-91122352D01*
X121045500Y-90917648D01*
X121013477Y-90715466D01*
X120950220Y-90520781D01*
X120950218Y-90520778D01*
X120950218Y-90520776D01*
X120911845Y-90445466D01*
X120857287Y-90338390D01*
X120849556Y-90327749D01*
X120736971Y-90172786D01*
X120592213Y-90028028D01*
X120426614Y-89907715D01*
X120416930Y-89902781D01*
X120333917Y-89860483D01*
X120283123Y-89812511D01*
X120266328Y-89744690D01*
X120288865Y-89678555D01*
X120333917Y-89639516D01*
X120426610Y-89592287D01*
X120491997Y-89544781D01*
X120592213Y-89471971D01*
X120592215Y-89471968D01*
X120592219Y-89471966D01*
X120736966Y-89327219D01*
X120736968Y-89327215D01*
X120736971Y-89327213D01*
X120793432Y-89249500D01*
X120857287Y-89161610D01*
X120950220Y-88979219D01*
X121013477Y-88784534D01*
X121045500Y-88582352D01*
X121045500Y-88377648D01*
X121013477Y-88175466D01*
X120950220Y-87980781D01*
X120950218Y-87980778D01*
X120950218Y-87980776D01*
X120916503Y-87914607D01*
X120857287Y-87798390D01*
X120826126Y-87755500D01*
X120736971Y-87632786D01*
X120592219Y-87488034D01*
X120592211Y-87488028D01*
X120498547Y-87419978D01*
X120455882Y-87364649D01*
X120449903Y-87295036D01*
X120482508Y-87233240D01*
X120532426Y-87201955D01*
X120614334Y-87174814D01*
X120763656Y-87082712D01*
X120887712Y-86958656D01*
X120979814Y-86809334D01*
X121034999Y-86642797D01*
X121045500Y-86540009D01*
X121045499Y-85339992D01*
X121036475Y-85251657D01*
X121034999Y-85237203D01*
X121034998Y-85237200D01*
X121014081Y-85174077D01*
X120979814Y-85070666D01*
X120887712Y-84921344D01*
X120763656Y-84797288D01*
X120614334Y-84705186D01*
X120514213Y-84672009D01*
X120447795Y-84650000D01*
X120443533Y-84649088D01*
X120382102Y-84615801D01*
X120348419Y-84554586D01*
X120345500Y-84527837D01*
X120345500Y-81755097D01*
X120354144Y-81725656D01*
X120360668Y-81695670D01*
X120364422Y-81690654D01*
X120365185Y-81688058D01*
X120381819Y-81667416D01*
X120462416Y-81586819D01*
X120523739Y-81553334D01*
X120550097Y-81550500D01*
X120899281Y-81550500D01*
X120966320Y-81570185D01*
X121009765Y-81618205D01*
X121029947Y-81657814D01*
X121029948Y-81657815D01*
X121154890Y-81829786D01*
X121305213Y-81980109D01*
X121477179Y-82105048D01*
X121477181Y-82105049D01*
X121477184Y-82105051D01*
X121666588Y-82201557D01*
X121868757Y-82267246D01*
X122078713Y-82300500D01*
X122078714Y-82300500D01*
X122291286Y-82300500D01*
X122291287Y-82300500D01*
X122501243Y-82267246D01*
X122703412Y-82201557D01*
X122892816Y-82105051D01*
X122979478Y-82042088D01*
X123064784Y-81980110D01*
X123064784Y-81980109D01*
X123064792Y-81980104D01*
X123178717Y-81866178D01*
X123240036Y-81832696D01*
X123309728Y-81837680D01*
X123365662Y-81879551D01*
X123382577Y-81910528D01*
X123431646Y-82042088D01*
X123431649Y-82042093D01*
X123517809Y-82157187D01*
X123517812Y-82157190D01*
X123632906Y-82243350D01*
X123632913Y-82243354D01*
X123767620Y-82293596D01*
X123767627Y-82293598D01*
X123827155Y-82299999D01*
X123827172Y-82300000D01*
X124475000Y-82300000D01*
X124475000Y-81383012D01*
X124532007Y-81415925D01*
X124659174Y-81450000D01*
X124790826Y-81450000D01*
X124917993Y-81415925D01*
X124975000Y-81383012D01*
X124975000Y-82300000D01*
X125622828Y-82300000D01*
X125622844Y-82299999D01*
X125682372Y-82293598D01*
X125682379Y-82293596D01*
X125817086Y-82243354D01*
X125817093Y-82243350D01*
X125932187Y-82157190D01*
X125932190Y-82157187D01*
X126018350Y-82042093D01*
X126018354Y-82042086D01*
X126068596Y-81907379D01*
X126068598Y-81907372D01*
X126074999Y-81847844D01*
X126075000Y-81847827D01*
X126075000Y-81200000D01*
X125158012Y-81200000D01*
X125190925Y-81142993D01*
X125225000Y-81015826D01*
X125225000Y-80884174D01*
X125190925Y-80757007D01*
X125158012Y-80700000D01*
X126075000Y-80700000D01*
X126075000Y-80052172D01*
X126074999Y-80052155D01*
X126068598Y-79992627D01*
X126068596Y-79992620D01*
X126018354Y-79857913D01*
X126018350Y-79857906D01*
X125932190Y-79742812D01*
X125932187Y-79742809D01*
X125817093Y-79656649D01*
X125817086Y-79656645D01*
X125682379Y-79606403D01*
X125682372Y-79606401D01*
X125622844Y-79600000D01*
X124975000Y-79600000D01*
X124975000Y-80516988D01*
X124917993Y-80484075D01*
X124790826Y-80450000D01*
X124659174Y-80450000D01*
X124532007Y-80484075D01*
X124475000Y-80516988D01*
X124475000Y-79600000D01*
X123827155Y-79600000D01*
X123767627Y-79606401D01*
X123767620Y-79606403D01*
X123632913Y-79656645D01*
X123632906Y-79656649D01*
X123517812Y-79742809D01*
X123517809Y-79742812D01*
X123431649Y-79857906D01*
X123431646Y-79857912D01*
X123382577Y-79989471D01*
X123340705Y-80045404D01*
X123275241Y-80069821D01*
X123206968Y-80054969D01*
X123178714Y-80033818D01*
X123064786Y-79919890D01*
X122892820Y-79794951D01*
X122703414Y-79698444D01*
X122703413Y-79698443D01*
X122703412Y-79698443D01*
X122501243Y-79632754D01*
X122501241Y-79632753D01*
X122501240Y-79632753D01*
X122339957Y-79607208D01*
X122291287Y-79599500D01*
X122078713Y-79599500D01*
X122030042Y-79607208D01*
X121868760Y-79632753D01*
X121666585Y-79698444D01*
X121477179Y-79794951D01*
X121305213Y-79919890D01*
X121154890Y-80070213D01*
X121029948Y-80242184D01*
X121029947Y-80242185D01*
X121009765Y-80281795D01*
X120961791Y-80332591D01*
X120899281Y-80349500D01*
X120336669Y-80349500D01*
X120336653Y-80349499D01*
X120329057Y-80349499D01*
X120170943Y-80349499D01*
X120063587Y-80378265D01*
X120018210Y-80390424D01*
X120018209Y-80390425D01*
X119968096Y-80419359D01*
X119968095Y-80419360D01*
X119924689Y-80444420D01*
X119881285Y-80469479D01*
X119881282Y-80469481D01*
X119378279Y-80972484D01*
X119378268Y-80972495D01*
X119376286Y-80974478D01*
X119376284Y-80974480D01*
X119264480Y-81086284D01*
X119254218Y-81104059D01*
X119247485Y-81115720D01*
X119247483Y-81115723D01*
X119231739Y-81142993D01*
X119185423Y-81223215D01*
X119144499Y-81375943D01*
X119144499Y-81375945D01*
X119144499Y-81544046D01*
X119144500Y-81544059D01*
X119144500Y-84527837D01*
X119124815Y-84594876D01*
X119072011Y-84640631D01*
X119046459Y-84649089D01*
X119042207Y-84649999D01*
X118875668Y-84705185D01*
X118875663Y-84705187D01*
X118726342Y-84797289D01*
X118602289Y-84921342D01*
X118510187Y-85070663D01*
X118510185Y-85070668D01*
X118455000Y-85237204D01*
X118454088Y-85241467D01*
X118420801Y-85302898D01*
X118359586Y-85336581D01*
X118332837Y-85339500D01*
X113930097Y-85339500D01*
X113863058Y-85319815D01*
X113842416Y-85303181D01*
X111177798Y-82638563D01*
X111144313Y-82577240D01*
X111147547Y-82512566D01*
X111188553Y-82386368D01*
X111217824Y-82201557D01*
X111225500Y-82153097D01*
X111225500Y-81916902D01*
X111188553Y-81683631D01*
X111126609Y-81492990D01*
X111115568Y-81459008D01*
X111115566Y-81459005D01*
X111115566Y-81459003D01*
X111041433Y-81313510D01*
X111008342Y-81248566D01*
X110869517Y-81057490D01*
X110702510Y-80890483D01*
X110511433Y-80751657D01*
X110457214Y-80724031D01*
X110300996Y-80644433D01*
X110076368Y-80571446D01*
X109843097Y-80534500D01*
X109843092Y-80534500D01*
X109606908Y-80534500D01*
X109606903Y-80534500D01*
X109373631Y-80571446D01*
X109149003Y-80644433D01*
X108938566Y-80751657D01*
X108829550Y-80830862D01*
X108747490Y-80890483D01*
X108747488Y-80890485D01*
X108747487Y-80890485D01*
X108580485Y-81057487D01*
X108580485Y-81057488D01*
X108580483Y-81057490D01*
X108559563Y-81086284D01*
X108441657Y-81248566D01*
X108381417Y-81366795D01*
X108333442Y-81417591D01*
X108270932Y-81434500D01*
X104679068Y-81434500D01*
X104612029Y-81414815D01*
X104568583Y-81366795D01*
X104508342Y-81248566D01*
X104369517Y-81057490D01*
X104202510Y-80890483D01*
X104011433Y-80751657D01*
X103957214Y-80724031D01*
X103800996Y-80644433D01*
X103576368Y-80571446D01*
X103343097Y-80534500D01*
X103343092Y-80534500D01*
X103106908Y-80534500D01*
X103106903Y-80534500D01*
X102873631Y-80571446D01*
X102649003Y-80644433D01*
X102438566Y-80751657D01*
X102329550Y-80830862D01*
X102247490Y-80890483D01*
X102247488Y-80890485D01*
X102247487Y-80890485D01*
X102080485Y-81057487D01*
X102080485Y-81057488D01*
X102080483Y-81057490D01*
X102059563Y-81086284D01*
X101941657Y-81248566D01*
X101834433Y-81459003D01*
X101761446Y-81683631D01*
X101724500Y-81916902D01*
X101724500Y-82153097D01*
X101761447Y-82386369D01*
X101761447Y-82386372D01*
X101802450Y-82512564D01*
X101804445Y-82582405D01*
X101772200Y-82638563D01*
X101558510Y-82852252D01*
X101558497Y-82852266D01*
X101555286Y-82855478D01*
X101555284Y-82855480D01*
X101443480Y-82967284D01*
X101417369Y-83012510D01*
X101364423Y-83104215D01*
X101323499Y-83256943D01*
X101323499Y-83256945D01*
X101323499Y-83425046D01*
X101323500Y-83425059D01*
X101323500Y-93287330D01*
X101323499Y-93287348D01*
X101323499Y-93453054D01*
X101323498Y-93453054D01*
X101000500Y-93453054D01*
X101000500Y-80122682D01*
X113525000Y-80122682D01*
X113525000Y-80327317D01*
X113557009Y-80529417D01*
X113620244Y-80724031D01*
X113713141Y-80906350D01*
X113713147Y-80906359D01*
X113745523Y-80950921D01*
X113745524Y-80950922D01*
X114425000Y-80271446D01*
X114425000Y-80277661D01*
X114452259Y-80379394D01*
X114504920Y-80470606D01*
X114579394Y-80545080D01*
X114670606Y-80597741D01*
X114772339Y-80625000D01*
X114778553Y-80625000D01*
X114099076Y-81304474D01*
X114143650Y-81336859D01*
X114325968Y-81429755D01*
X114520582Y-81492990D01*
X114722683Y-81525000D01*
X114927317Y-81525000D01*
X115129417Y-81492990D01*
X115324031Y-81429755D01*
X115506349Y-81336859D01*
X115550921Y-81304474D01*
X114871447Y-80625000D01*
X114877661Y-80625000D01*
X114979394Y-80597741D01*
X115070606Y-80545080D01*
X115145080Y-80470606D01*
X115197741Y-80379394D01*
X115225000Y-80277661D01*
X115225000Y-80271447D01*
X115904474Y-80950921D01*
X115936859Y-80906349D01*
X116029755Y-80724031D01*
X116092990Y-80529417D01*
X116125000Y-80327317D01*
X116125000Y-80122682D01*
X116092990Y-79920582D01*
X116029755Y-79725968D01*
X115936859Y-79543650D01*
X115904474Y-79499077D01*
X115904474Y-79499076D01*
X115225000Y-80178551D01*
X115225000Y-80172339D01*
X115197741Y-80070606D01*
X115145080Y-79979394D01*
X115070606Y-79904920D01*
X114979394Y-79852259D01*
X114877661Y-79825000D01*
X114871446Y-79825000D01*
X115550922Y-79145524D01*
X115550921Y-79145523D01*
X115506359Y-79113147D01*
X115506350Y-79113141D01*
X115324031Y-79020244D01*
X115129417Y-78957009D01*
X114927317Y-78925000D01*
X114722683Y-78925000D01*
X114520582Y-78957009D01*
X114325968Y-79020244D01*
X114143644Y-79113143D01*
X114099077Y-79145523D01*
X114099077Y-79145524D01*
X114778554Y-79825000D01*
X114772339Y-79825000D01*
X114670606Y-79852259D01*
X114579394Y-79904920D01*
X114504920Y-79979394D01*
X114452259Y-80070606D01*
X114425000Y-80172339D01*
X114425000Y-80178553D01*
X113745524Y-79499077D01*
X113745523Y-79499077D01*
X113713143Y-79543644D01*
X113620244Y-79725968D01*
X113557009Y-79920582D01*
X113525000Y-80122682D01*
X101000500Y-80122682D01*
X101000500Y-77124500D01*
X101020185Y-77057461D01*
X101072989Y-77011706D01*
X101124500Y-77000500D01*
X139875500Y-77000500D01*
X139942539Y-77020185D01*
G37*
%TD.AperFunction*%
%TD*%
M02*
