%TF.GenerationSoftware,KiCad,Pcbnew,9.0.3*%
%TF.CreationDate,2026-07-30T20:35:58+05:30*%
%TF.ProjectId,12_555_Monostable_Multivibrator,31325f35-3535-45f4-9d6f-6e6f73746162,rev?*%
%TF.SameCoordinates,Original*%
%TF.FileFunction,Copper,L1,Top*%
%TF.FilePolarity,Positive*%
%FSLAX46Y46*%
G04 Gerber Fmt 4.6, Leading zero omitted, Abs format (unit mm)*
G04 Created by KiCad (PCBNEW 9.0.3) date 2026-07-30 20:35:58*
%MOMM*%
%LPD*%
G01*
G04 APERTURE LIST*
G04 Aperture macros list*
%AMRoundRect*
0 Rectangle with rounded corners*
0 $1 Rounding radius*
0 $2 $3 $4 $5 $6 $7 $8 $9 X,Y pos of 4 corners*
0 Add a 4 corners polygon primitive as box body*
4,1,4,$2,$3,$4,$5,$6,$7,$8,$9,$2,$3,0*
0 Add four circle primitives for the rounded corners*
1,1,$1+$1,$2,$3*
1,1,$1+$1,$4,$5*
1,1,$1+$1,$6,$7*
1,1,$1+$1,$8,$9*
0 Add four rect primitives between the rounded corners*
20,1,$1+$1,$2,$3,$4,$5,0*
20,1,$1+$1,$4,$5,$6,$7,0*
20,1,$1+$1,$6,$7,$8,$9,0*
20,1,$1+$1,$8,$9,$2,$3,0*%
G04 Aperture macros list end*
%TA.AperFunction,NonConductor*%
%ADD10C,0.200000*%
%TD*%
%TA.AperFunction,ComponentPad*%
%ADD11RoundRect,0.250000X-0.550000X-0.550000X0.550000X-0.550000X0.550000X0.550000X-0.550000X0.550000X0*%
%TD*%
%TA.AperFunction,ComponentPad*%
%ADD12C,1.600000*%
%TD*%
%TA.AperFunction,ComponentPad*%
%ADD13C,2.000000*%
%TD*%
%TA.AperFunction,ComponentPad*%
%ADD14R,1.700000X1.700000*%
%TD*%
%TA.AperFunction,ComponentPad*%
%ADD15C,1.700000*%
%TD*%
%TA.AperFunction,ComponentPad*%
%ADD16R,1.800000X1.800000*%
%TD*%
%TA.AperFunction,ComponentPad*%
%ADD17C,1.800000*%
%TD*%
%TA.AperFunction,Conductor*%
%ADD18C,0.200000*%
%TD*%
G04 APERTURE END LIST*
D10*
X98500000Y-74500000D02*
X142500000Y-74500000D01*
X142500000Y-104000000D01*
X98500000Y-104000000D01*
X98500000Y-74500000D01*
D11*
%TO.P,U1,1,GND*%
%TO.N,GND*%
X119745000Y-85940000D03*
D12*
%TO.P,U1,2,TR*%
%TO.N,Net-(U1-TR)*%
X119745000Y-88480000D03*
%TO.P,U1,3,Q*%
%TO.N,Net-(U1-Q)*%
X119745000Y-91020000D03*
%TO.P,U1,4,R*%
%TO.N,+5V*%
X119745000Y-93560000D03*
%TO.P,U1,5,CV*%
%TO.N,Net-(U1-CV)*%
X127365000Y-93560000D03*
%TO.P,U1,6,THR*%
%TO.N,Net-(U1-DIS)*%
X127365000Y-91020000D03*
%TO.P,U1,7,DIS*%
X127365000Y-88480000D03*
%TO.P,U1,8,VCC*%
%TO.N,+5V*%
X127365000Y-85940000D03*
%TD*%
D13*
%TO.P,SW1,1,1*%
%TO.N,GND*%
X103225000Y-82035000D03*
X109725000Y-82035000D03*
%TO.P,SW1,2,2*%
%TO.N,Net-(U1-TR)*%
X103225000Y-86535000D03*
X109725000Y-86535000D03*
%TD*%
D12*
%TO.P,R3,1*%
%TO.N,Net-(U1-Q)*%
X114800000Y-90750000D03*
%TO.P,R3,2*%
%TO.N,Net-(D1-A)*%
X114800000Y-98370000D03*
%TD*%
%TO.P,R2,1*%
%TO.N,+5V*%
X130725000Y-85900000D03*
%TO.P,R2,2*%
%TO.N,Net-(U1-DIS)*%
X138345000Y-85900000D03*
%TD*%
%TO.P,R1,1*%
%TO.N,+5V*%
X114825000Y-80225000D03*
%TO.P,R1,2*%
%TO.N,Net-(U1-TR)*%
X114825000Y-87845000D03*
%TD*%
D14*
%TO.P,J1,1,Pin_1*%
%TO.N,+5V*%
X124725000Y-80950000D03*
D15*
%TO.P,J1,2,Pin_2*%
%TO.N,GND*%
X122185000Y-80950000D03*
%TD*%
D16*
%TO.P,D1,1,K*%
%TO.N,GND*%
X104950000Y-94385000D03*
D17*
%TO.P,D1,2,A*%
%TO.N,Net-(D1-A)*%
X107490000Y-94385000D03*
%TD*%
D12*
%TO.P,C2,1*%
%TO.N,GND*%
X131125000Y-95525000D03*
%TO.P,C2,2*%
%TO.N,Net-(U1-CV)*%
X136125000Y-95525000D03*
%TD*%
%TO.P,C1,1*%
%TO.N,Net-(U1-DIS)*%
X131225000Y-90550000D03*
%TO.P,C1,2*%
%TO.N,GND*%
X136225000Y-90550000D03*
%TD*%
D18*
%TO.N,Net-(U1-CV)*%
X135860000Y-93560000D02*
X127365000Y-93560000D01*
X136125000Y-95525000D02*
X136125000Y-93825000D01*
X136125000Y-93825000D02*
X135860000Y-93560000D01*
%TO.N,Net-(D1-A)*%
X108470000Y-98370000D02*
X114800000Y-98370000D01*
X107490000Y-94385000D02*
X107490000Y-97390000D01*
X107490000Y-97390000D02*
X108470000Y-98370000D01*
%TD*%
%TA.AperFunction,NonConductor*%
G36*
X139942539Y-77020185D02*
G01*
X139988294Y-77072989D01*
X139999500Y-77124500D01*
X139999500Y-101375500D01*
X139979815Y-101442539D01*
X139927011Y-101488294D01*
X139875500Y-101499500D01*
X101124500Y-101499500D01*
X101057461Y-101479815D01*
X101011706Y-101427011D01*
X101000500Y-101375500D01*
X101000500Y-93437135D01*
X103549500Y-93437135D01*
X103549500Y-95332870D01*
X103549501Y-95332876D01*
X103555908Y-95392483D01*
X103606202Y-95527328D01*
X103606206Y-95527335D01*
X103692452Y-95642544D01*
X103692455Y-95642547D01*
X103807664Y-95728793D01*
X103807671Y-95728797D01*
X103942517Y-95779091D01*
X103942516Y-95779091D01*
X103949444Y-95779835D01*
X104002127Y-95785500D01*
X105897872Y-95785499D01*
X105957483Y-95779091D01*
X106092331Y-95728796D01*
X106207546Y-95642546D01*
X106293796Y-95527331D01*
X106321429Y-95453243D01*
X106323601Y-95447420D01*
X106365471Y-95391486D01*
X106430936Y-95367068D01*
X106499209Y-95381919D01*
X106527464Y-95403071D01*
X106577636Y-95453243D01*
X106577641Y-95453247D01*
X106755976Y-95582814D01*
X106821794Y-95616350D01*
X106872591Y-95664324D01*
X106889500Y-95726835D01*
X106889500Y-97303330D01*
X106889499Y-97303348D01*
X106889499Y-97469054D01*
X106889498Y-97469054D01*
X106930423Y-97621784D01*
X106930424Y-97621788D01*
X106958569Y-97670537D01*
X106958570Y-97670537D01*
X107009477Y-97758712D01*
X107009481Y-97758717D01*
X107128349Y-97877585D01*
X107128355Y-97877590D01*
X107985139Y-98734374D01*
X107985149Y-98734385D01*
X107989479Y-98738715D01*
X107989480Y-98738716D01*
X108101284Y-98850520D01*
X108188095Y-98900639D01*
X108188097Y-98900641D01*
X108238213Y-98929576D01*
X108238215Y-98929577D01*
X108390942Y-98970500D01*
X108390943Y-98970500D01*
X113570398Y-98970500D01*
X113637437Y-98990185D01*
X113680883Y-99038205D01*
X113687715Y-99051614D01*
X113808028Y-99217213D01*
X113952786Y-99361971D01*
X114107749Y-99474556D01*
X114118390Y-99482287D01*
X114234607Y-99541503D01*
X114300776Y-99575218D01*
X114300778Y-99575218D01*
X114300781Y-99575220D01*
X114405137Y-99609127D01*
X114495465Y-99638477D01*
X114596557Y-99654488D01*
X114697648Y-99670500D01*
X114697649Y-99670500D01*
X114902351Y-99670500D01*
X114902352Y-99670500D01*
X115104534Y-99638477D01*
X115299219Y-99575220D01*
X115481610Y-99482287D01*
X115574590Y-99414732D01*
X115647213Y-99361971D01*
X115647215Y-99361968D01*
X115647219Y-99361966D01*
X115791966Y-99217219D01*
X115791968Y-99217215D01*
X115791971Y-99217213D01*
X115844732Y-99144590D01*
X115912287Y-99051610D01*
X116005220Y-98869219D01*
X116068477Y-98674534D01*
X116100500Y-98472352D01*
X116100500Y-98267648D01*
X116068477Y-98065466D01*
X116005220Y-97870781D01*
X116005218Y-97870778D01*
X116005218Y-97870776D01*
X115971503Y-97804607D01*
X115912287Y-97688390D01*
X115899315Y-97670536D01*
X115791971Y-97522786D01*
X115647213Y-97378028D01*
X115481613Y-97257715D01*
X115481612Y-97257714D01*
X115481610Y-97257713D01*
X115424653Y-97228691D01*
X115299223Y-97164781D01*
X115104534Y-97101522D01*
X114929995Y-97073878D01*
X114902352Y-97069500D01*
X114697648Y-97069500D01*
X114673329Y-97073351D01*
X114495465Y-97101522D01*
X114300776Y-97164781D01*
X114118386Y-97257715D01*
X113952786Y-97378028D01*
X113808028Y-97522786D01*
X113687715Y-97688385D01*
X113680883Y-97701795D01*
X113632909Y-97752591D01*
X113570398Y-97769500D01*
X108770097Y-97769500D01*
X108703058Y-97749815D01*
X108682416Y-97733181D01*
X108126819Y-97177584D01*
X108093334Y-97116261D01*
X108090500Y-97089903D01*
X108090500Y-95726835D01*
X108110185Y-95659796D01*
X108158206Y-95616350D01*
X108158547Y-95616175D01*
X108224022Y-95582815D01*
X108402365Y-95453242D01*
X108558242Y-95297365D01*
X108687815Y-95119022D01*
X108787895Y-94922606D01*
X108856015Y-94712951D01*
X108890500Y-94495222D01*
X108890500Y-94274778D01*
X108856015Y-94057049D01*
X108787895Y-93847394D01*
X108787895Y-93847393D01*
X108736203Y-93745944D01*
X108687815Y-93650978D01*
X108629501Y-93570715D01*
X108558247Y-93472641D01*
X108558243Y-93472636D01*
X108402363Y-93316756D01*
X108402358Y-93316752D01*
X108224025Y-93187187D01*
X108224024Y-93187186D01*
X108224022Y-93187185D01*
X108106791Y-93127452D01*
X108027606Y-93087104D01*
X108027603Y-93087103D01*
X107817952Y-93018985D01*
X107709086Y-93001742D01*
X107600222Y-92984500D01*
X107379778Y-92984500D01*
X107307201Y-92995995D01*
X107162047Y-93018985D01*
X106952396Y-93087103D01*
X106952393Y-93087104D01*
X106755974Y-93187187D01*
X106577641Y-93316752D01*
X106577636Y-93316756D01*
X106527463Y-93366929D01*
X106466140Y-93400413D01*
X106396448Y-93395428D01*
X106340515Y-93353557D01*
X106323601Y-93322580D01*
X106293797Y-93242671D01*
X106293793Y-93242664D01*
X106207547Y-93127455D01*
X106207544Y-93127452D01*
X106092335Y-93041206D01*
X106092328Y-93041202D01*
X105957482Y-92990908D01*
X105957483Y-92990908D01*
X105897883Y-92984501D01*
X105897881Y-92984500D01*
X105897873Y-92984500D01*
X105897864Y-92984500D01*
X104002129Y-92984500D01*
X104002123Y-92984501D01*
X103942516Y-92990908D01*
X103807671Y-93041202D01*
X103807664Y-93041206D01*
X103692455Y-93127452D01*
X103692452Y-93127455D01*
X103606206Y-93242664D01*
X103606202Y-93242671D01*
X103555908Y-93377517D01*
X103549501Y-93437116D01*
X103549500Y-93437135D01*
X101000500Y-93437135D01*
X101000500Y-90647648D01*
X113499500Y-90647648D01*
X113499500Y-90852351D01*
X113531522Y-91054534D01*
X113594781Y-91249223D01*
X113687715Y-91431613D01*
X113808028Y-91597213D01*
X113952786Y-91741971D01*
X114058090Y-91818477D01*
X114118390Y-91862287D01*
X114234607Y-91921503D01*
X114300776Y-91955218D01*
X114300778Y-91955218D01*
X114300781Y-91955220D01*
X114405137Y-91989127D01*
X114495465Y-92018477D01*
X114596557Y-92034488D01*
X114697648Y-92050500D01*
X114697649Y-92050500D01*
X114902351Y-92050500D01*
X114902352Y-92050500D01*
X115104534Y-92018477D01*
X115299219Y-91955220D01*
X115481610Y-91862287D01*
X115574590Y-91794732D01*
X115647213Y-91741971D01*
X115647215Y-91741968D01*
X115647219Y-91741966D01*
X115791966Y-91597219D01*
X115791968Y-91597215D01*
X115791971Y-91597213D01*
X115848636Y-91519219D01*
X115912287Y-91431610D01*
X116005220Y-91249219D01*
X116068477Y-91054534D01*
X116100500Y-90852352D01*
X116100500Y-90647648D01*
X116080405Y-90520774D01*
X116068477Y-90445465D01*
X116005218Y-90250776D01*
X115971503Y-90184607D01*
X115912287Y-90068390D01*
X115882963Y-90028028D01*
X115791971Y-89902786D01*
X115647213Y-89758028D01*
X115481613Y-89637715D01*
X115481612Y-89637714D01*
X115481610Y-89637713D01*
X115392451Y-89592284D01*
X115299223Y-89544781D01*
X115104534Y-89481522D01*
X114929995Y-89453878D01*
X114902352Y-89449500D01*
X114697648Y-89449500D01*
X114673329Y-89453351D01*
X114495465Y-89481522D01*
X114300776Y-89544781D01*
X114118386Y-89637715D01*
X113952786Y-89758028D01*
X113808028Y-89902786D01*
X113687715Y-90068386D01*
X113594781Y-90250776D01*
X113531522Y-90445465D01*
X113499500Y-90647648D01*
X101000500Y-90647648D01*
X101000500Y-86416902D01*
X101724500Y-86416902D01*
X101724500Y-86653097D01*
X101761446Y-86886368D01*
X101834433Y-87110996D01*
X101928207Y-87295036D01*
X101941657Y-87321433D01*
X102080483Y-87512510D01*
X102247490Y-87679517D01*
X102438567Y-87818343D01*
X102537991Y-87869002D01*
X102649003Y-87925566D01*
X102649005Y-87925566D01*
X102649008Y-87925568D01*
X102769412Y-87964689D01*
X102873631Y-87998553D01*
X103106903Y-88035500D01*
X103106908Y-88035500D01*
X103343097Y-88035500D01*
X103576368Y-87998553D01*
X103631064Y-87980781D01*
X103800992Y-87925568D01*
X104011433Y-87818343D01*
X104202510Y-87679517D01*
X104369517Y-87512510D01*
X104508343Y-87321433D01*
X104615568Y-87110992D01*
X104688553Y-86886368D01*
X104693833Y-86853034D01*
X104725500Y-86653097D01*
X104725500Y-86416902D01*
X108224500Y-86416902D01*
X108224500Y-86653097D01*
X108261446Y-86886368D01*
X108334433Y-87110996D01*
X108428207Y-87295036D01*
X108441657Y-87321433D01*
X108580483Y-87512510D01*
X108747490Y-87679517D01*
X108938567Y-87818343D01*
X109037991Y-87869002D01*
X109149003Y-87925566D01*
X109149005Y-87925566D01*
X109149008Y-87925568D01*
X109269412Y-87964689D01*
X109373631Y-87998553D01*
X109606903Y-88035500D01*
X109606908Y-88035500D01*
X109843097Y-88035500D01*
X110076368Y-87998553D01*
X110131064Y-87980781D01*
X110300992Y-87925568D01*
X110511433Y-87818343D01*
X110615618Y-87742648D01*
X113524500Y-87742648D01*
X113524500Y-87947351D01*
X113556522Y-88149534D01*
X113619781Y-88344223D01*
X113712715Y-88526613D01*
X113833028Y-88692213D01*
X113977786Y-88836971D01*
X114132749Y-88949556D01*
X114143390Y-88957287D01*
X114259607Y-89016503D01*
X114325776Y-89050218D01*
X114325778Y-89050218D01*
X114325781Y-89050220D01*
X114430137Y-89084127D01*
X114520465Y-89113477D01*
X114621557Y-89129488D01*
X114722648Y-89145500D01*
X114722649Y-89145500D01*
X114927351Y-89145500D01*
X114927352Y-89145500D01*
X115129534Y-89113477D01*
X115324219Y-89050220D01*
X115506610Y-88957287D01*
X115599590Y-88889732D01*
X115672213Y-88836971D01*
X115672215Y-88836968D01*
X115672219Y-88836966D01*
X115816966Y-88692219D01*
X115816968Y-88692215D01*
X115816971Y-88692213D01*
X115896789Y-88582351D01*
X115937287Y-88526610D01*
X116030220Y-88344219D01*
X116093477Y-88149534D01*
X116125500Y-87947352D01*
X116125500Y-87742648D01*
X116108099Y-87632786D01*
X116093477Y-87540465D01*
X116054328Y-87419978D01*
X116030220Y-87345781D01*
X116030218Y-87345778D01*
X116030218Y-87345776D01*
X115992887Y-87272511D01*
X115937287Y-87163390D01*
X115924086Y-87145220D01*
X115816971Y-86997786D01*
X115672213Y-86853028D01*
X115506613Y-86732715D01*
X115506612Y-86732714D01*
X115506610Y-86732713D01*
X115449653Y-86703691D01*
X115324223Y-86639781D01*
X115129534Y-86576522D01*
X114954995Y-86548878D01*
X114927352Y-86544500D01*
X114722648Y-86544500D01*
X114698329Y-86548351D01*
X114520465Y-86576522D01*
X114325776Y-86639781D01*
X114143386Y-86732715D01*
X113977786Y-86853028D01*
X113833028Y-86997786D01*
X113712715Y-87163386D01*
X113619781Y-87345776D01*
X113556522Y-87540465D01*
X113524500Y-87742648D01*
X110615618Y-87742648D01*
X110702510Y-87679517D01*
X110869517Y-87512510D01*
X111008343Y-87321433D01*
X111115568Y-87110992D01*
X111188553Y-86886368D01*
X111193833Y-86853034D01*
X111225500Y-86653097D01*
X111225500Y-86416902D01*
X111188553Y-86183631D01*
X111115566Y-85959003D01*
X111008342Y-85748566D01*
X110869517Y-85557490D01*
X110702510Y-85390483D01*
X110633003Y-85339983D01*
X118444500Y-85339983D01*
X118444500Y-86540001D01*
X118444501Y-86540018D01*
X118455000Y-86642796D01*
X118455001Y-86642799D01*
X118510185Y-86809331D01*
X118510187Y-86809336D01*
X118537140Y-86853034D01*
X118602288Y-86958656D01*
X118726344Y-87082712D01*
X118875666Y-87174814D01*
X118957570Y-87201954D01*
X119015015Y-87241727D01*
X119041838Y-87306243D01*
X119029523Y-87375018D01*
X118991451Y-87419978D01*
X118897787Y-87488028D01*
X118897782Y-87488032D01*
X118753028Y-87632786D01*
X118632715Y-87798386D01*
X118539781Y-87980776D01*
X118476522Y-88175465D01*
X118444500Y-88377648D01*
X118444500Y-88582351D01*
X118476522Y-88784534D01*
X118539781Y-88979223D01*
X118632715Y-89161613D01*
X118753028Y-89327213D01*
X118897786Y-89471971D01*
X119016236Y-89558028D01*
X119063390Y-89592287D01*
X119152543Y-89637713D01*
X119156080Y-89639515D01*
X119206876Y-89687490D01*
X119223671Y-89755311D01*
X119201134Y-89821446D01*
X119156080Y-89860485D01*
X119063386Y-89907715D01*
X118897786Y-90028028D01*
X118753028Y-90172786D01*
X118632715Y-90338386D01*
X118539781Y-90520776D01*
X118476522Y-90715465D01*
X118444500Y-90917648D01*
X118444500Y-91122351D01*
X118476522Y-91324534D01*
X118539781Y-91519223D01*
X118579520Y-91597213D01*
X118612675Y-91662284D01*
X118632715Y-91701613D01*
X118753028Y-91867213D01*
X118897786Y-92011971D01*
X119052749Y-92124556D01*
X119063390Y-92132287D01*
X119154840Y-92178883D01*
X119156080Y-92179515D01*
X119206876Y-92227490D01*
X119223671Y-92295311D01*
X119201134Y-92361446D01*
X119156080Y-92400485D01*
X119063386Y-92447715D01*
X118897786Y-92568028D01*
X118753028Y-92712786D01*
X118632715Y-92878386D01*
X118539781Y-93060776D01*
X118476522Y-93255465D01*
X118444500Y-93457648D01*
X118444500Y-93662351D01*
X118476522Y-93864534D01*
X118539781Y-94059223D01*
X118597622Y-94172740D01*
X118628320Y-94232989D01*
X118632715Y-94241613D01*
X118753028Y-94407213D01*
X118897786Y-94551971D01*
X119052749Y-94664556D01*
X119063390Y-94672287D01*
X119179607Y-94731503D01*
X119245776Y-94765218D01*
X119245778Y-94765218D01*
X119245781Y-94765220D01*
X119350137Y-94799127D01*
X119440465Y-94828477D01*
X119534596Y-94843386D01*
X119642648Y-94860500D01*
X119642649Y-94860500D01*
X119847351Y-94860500D01*
X119847352Y-94860500D01*
X120049534Y-94828477D01*
X120244219Y-94765220D01*
X120426610Y-94672287D01*
X120519590Y-94604732D01*
X120592213Y-94551971D01*
X120592215Y-94551968D01*
X120592219Y-94551966D01*
X120736966Y-94407219D01*
X120736968Y-94407215D01*
X120736971Y-94407213D01*
X120800494Y-94319780D01*
X120857287Y-94241610D01*
X120950220Y-94059219D01*
X121013477Y-93864534D01*
X121045500Y-93662352D01*
X121045500Y-93457648D01*
X121013477Y-93255466D01*
X121009317Y-93242664D01*
X120958773Y-93087104D01*
X120950220Y-93060781D01*
X120950218Y-93060778D01*
X120950218Y-93060776D01*
X120911353Y-92984500D01*
X120857287Y-92878390D01*
X120849556Y-92867749D01*
X120736971Y-92712786D01*
X120592213Y-92568028D01*
X120426614Y-92447715D01*
X120420006Y-92444348D01*
X120333917Y-92400483D01*
X120283123Y-92352511D01*
X120266328Y-92284690D01*
X120288865Y-92218555D01*
X120333917Y-92179516D01*
X120426610Y-92132287D01*
X120447770Y-92116913D01*
X120592213Y-92011971D01*
X120592215Y-92011968D01*
X120592219Y-92011966D01*
X120736966Y-91867219D01*
X120736968Y-91867215D01*
X120736971Y-91867213D01*
X120818337Y-91755220D01*
X120857287Y-91701610D01*
X120950220Y-91519219D01*
X121013477Y-91324534D01*
X121045500Y-91122352D01*
X121045500Y-90917648D01*
X121013477Y-90715466D01*
X120950220Y-90520781D01*
X120950218Y-90520778D01*
X120950218Y-90520776D01*
X120911845Y-90445466D01*
X120857287Y-90338390D01*
X120849556Y-90327749D01*
X120736971Y-90172786D01*
X120592213Y-90028028D01*
X120426614Y-89907715D01*
X120349434Y-89868390D01*
X120333917Y-89860483D01*
X120283123Y-89812511D01*
X120266328Y-89744690D01*
X120288865Y-89678555D01*
X120333917Y-89639516D01*
X120426610Y-89592287D01*
X120491997Y-89544781D01*
X120592213Y-89471971D01*
X120592215Y-89471968D01*
X120592219Y-89471966D01*
X120736966Y-89327219D01*
X120736968Y-89327215D01*
X120736971Y-89327213D01*
X120793432Y-89249500D01*
X120857287Y-89161610D01*
X120950220Y-88979219D01*
X121013477Y-88784534D01*
X121045500Y-88582352D01*
X121045500Y-88377648D01*
X121013477Y-88175466D01*
X120950220Y-87980781D01*
X120950218Y-87980778D01*
X120950218Y-87980776D01*
X120916503Y-87914607D01*
X120857287Y-87798390D01*
X120849556Y-87787749D01*
X120736971Y-87632786D01*
X120592219Y-87488034D01*
X120592211Y-87488028D01*
X120498547Y-87419978D01*
X120455882Y-87364649D01*
X120449903Y-87295036D01*
X120482508Y-87233240D01*
X120532426Y-87201955D01*
X120614334Y-87174814D01*
X120763656Y-87082712D01*
X120887712Y-86958656D01*
X120979814Y-86809334D01*
X121034999Y-86642797D01*
X121045500Y-86540009D01*
X121045499Y-85837648D01*
X126064500Y-85837648D01*
X126064500Y-86042351D01*
X126096522Y-86244534D01*
X126159781Y-86439223D01*
X126211135Y-86540009D01*
X126232333Y-86581613D01*
X126252715Y-86621613D01*
X126373028Y-86787213D01*
X126517786Y-86931971D01*
X126628330Y-87012284D01*
X126683390Y-87052287D01*
X126774840Y-87098883D01*
X126776080Y-87099515D01*
X126826876Y-87147490D01*
X126843671Y-87215311D01*
X126821134Y-87281446D01*
X126776080Y-87320485D01*
X126683386Y-87367715D01*
X126517786Y-87488028D01*
X126373028Y-87632786D01*
X126252715Y-87798386D01*
X126159781Y-87980776D01*
X126096522Y-88175465D01*
X126064500Y-88377648D01*
X126064500Y-88582351D01*
X126096522Y-88784534D01*
X126159781Y-88979223D01*
X126252715Y-89161613D01*
X126373028Y-89327213D01*
X126517786Y-89471971D01*
X126636236Y-89558028D01*
X126683390Y-89592287D01*
X126772543Y-89637713D01*
X126776080Y-89639515D01*
X126826876Y-89687490D01*
X126843671Y-89755311D01*
X126821134Y-89821446D01*
X126776080Y-89860485D01*
X126683386Y-89907715D01*
X126517786Y-90028028D01*
X126373028Y-90172786D01*
X126252715Y-90338386D01*
X126159781Y-90520776D01*
X126096522Y-90715465D01*
X126064500Y-90917648D01*
X126064500Y-91122351D01*
X126096522Y-91324534D01*
X126159781Y-91519223D01*
X126199520Y-91597213D01*
X126232675Y-91662284D01*
X126252715Y-91701613D01*
X126373028Y-91867213D01*
X126517786Y-92011971D01*
X126672749Y-92124556D01*
X126683390Y-92132287D01*
X126774840Y-92178883D01*
X126776080Y-92179515D01*
X126826876Y-92227490D01*
X126843671Y-92295311D01*
X126821134Y-92361446D01*
X126776080Y-92400485D01*
X126683386Y-92447715D01*
X126517786Y-92568028D01*
X126373028Y-92712786D01*
X126252715Y-92878386D01*
X126159781Y-93060776D01*
X126096522Y-93255465D01*
X126064500Y-93457648D01*
X126064500Y-93662351D01*
X126096522Y-93864534D01*
X126159781Y-94059223D01*
X126217622Y-94172740D01*
X126248320Y-94232989D01*
X126252715Y-94241613D01*
X126373028Y-94407213D01*
X126517786Y-94551971D01*
X126672749Y-94664556D01*
X126683390Y-94672287D01*
X126799607Y-94731503D01*
X126865776Y-94765218D01*
X126865778Y-94765218D01*
X126865781Y-94765220D01*
X126970137Y-94799127D01*
X127060465Y-94828477D01*
X127154596Y-94843386D01*
X127262648Y-94860500D01*
X127262649Y-94860500D01*
X127467351Y-94860500D01*
X127467352Y-94860500D01*
X127669534Y-94828477D01*
X127864219Y-94765220D01*
X128046610Y-94672287D01*
X128139590Y-94604732D01*
X128212213Y-94551971D01*
X128212215Y-94551968D01*
X128212219Y-94551966D01*
X128356966Y-94407219D01*
X128356968Y-94407215D01*
X128356971Y-94407213D01*
X128477284Y-94241614D01*
X128477285Y-94241613D01*
X128477287Y-94241610D01*
X128484117Y-94228204D01*
X128532091Y-94177409D01*
X128594602Y-94160500D01*
X130421888Y-94160500D01*
X130488927Y-94180185D01*
X130534682Y-94232989D01*
X130544626Y-94302147D01*
X130515601Y-94365703D01*
X130478183Y-94394985D01*
X130443386Y-94412715D01*
X130277786Y-94533028D01*
X130133028Y-94677786D01*
X130012715Y-94843386D01*
X129919781Y-95025776D01*
X129856522Y-95220465D01*
X129824500Y-95422648D01*
X129824500Y-95627351D01*
X129856522Y-95829534D01*
X129919781Y-96024223D01*
X130012715Y-96206613D01*
X130133028Y-96372213D01*
X130277786Y-96516971D01*
X130432749Y-96629556D01*
X130443390Y-96637287D01*
X130559607Y-96696503D01*
X130625776Y-96730218D01*
X130625778Y-96730218D01*
X130625781Y-96730220D01*
X130730137Y-96764127D01*
X130820465Y-96793477D01*
X130921557Y-96809488D01*
X131022648Y-96825500D01*
X131022649Y-96825500D01*
X131227351Y-96825500D01*
X131227352Y-96825500D01*
X131429534Y-96793477D01*
X131624219Y-96730220D01*
X131806610Y-96637287D01*
X131899590Y-96569732D01*
X131972213Y-96516971D01*
X131972215Y-96516968D01*
X131972219Y-96516966D01*
X132116966Y-96372219D01*
X132116968Y-96372215D01*
X132116971Y-96372213D01*
X132169732Y-96299590D01*
X132237287Y-96206610D01*
X132330220Y-96024219D01*
X132393477Y-95829534D01*
X132425500Y-95627352D01*
X132425500Y-95422648D01*
X132405657Y-95297365D01*
X132393477Y-95220465D01*
X132330218Y-95025776D01*
X132296503Y-94959607D01*
X132237287Y-94843390D01*
X132180494Y-94765220D01*
X132116971Y-94677786D01*
X131972213Y-94533028D01*
X131806613Y-94412715D01*
X131806612Y-94412714D01*
X131806610Y-94412713D01*
X131771817Y-94394985D01*
X131721021Y-94347010D01*
X131704226Y-94279189D01*
X131726764Y-94213054D01*
X131781479Y-94169603D01*
X131828112Y-94160500D01*
X135400500Y-94160500D01*
X135409185Y-94163050D01*
X135418147Y-94161762D01*
X135442187Y-94172740D01*
X135467539Y-94180185D01*
X135473466Y-94187025D01*
X135481703Y-94190787D01*
X135495992Y-94213021D01*
X135513294Y-94232989D01*
X135515581Y-94243503D01*
X135519477Y-94249565D01*
X135524500Y-94284500D01*
X135524500Y-94295397D01*
X135504815Y-94362436D01*
X135456800Y-94405879D01*
X135443389Y-94412712D01*
X135277786Y-94533028D01*
X135133028Y-94677786D01*
X135012715Y-94843386D01*
X134919781Y-95025776D01*
X134856522Y-95220465D01*
X134824500Y-95422648D01*
X134824500Y-95627351D01*
X134856522Y-95829534D01*
X134919781Y-96024223D01*
X135012715Y-96206613D01*
X135133028Y-96372213D01*
X135277786Y-96516971D01*
X135432749Y-96629556D01*
X135443390Y-96637287D01*
X135559607Y-96696503D01*
X135625776Y-96730218D01*
X135625778Y-96730218D01*
X135625781Y-96730220D01*
X135730137Y-96764127D01*
X135820465Y-96793477D01*
X135921557Y-96809488D01*
X136022648Y-96825500D01*
X136022649Y-96825500D01*
X136227351Y-96825500D01*
X136227352Y-96825500D01*
X136429534Y-96793477D01*
X136624219Y-96730220D01*
X136806610Y-96637287D01*
X136899590Y-96569732D01*
X136972213Y-96516971D01*
X136972215Y-96516968D01*
X136972219Y-96516966D01*
X137116966Y-96372219D01*
X137116968Y-96372215D01*
X137116971Y-96372213D01*
X137169732Y-96299590D01*
X137237287Y-96206610D01*
X137330220Y-96024219D01*
X137393477Y-95829534D01*
X137425500Y-95627352D01*
X137425500Y-95422648D01*
X137405657Y-95297365D01*
X137393477Y-95220465D01*
X137330218Y-95025776D01*
X137296503Y-94959607D01*
X137237287Y-94843390D01*
X137180494Y-94765220D01*
X137116971Y-94677786D01*
X136972213Y-94533028D01*
X136806610Y-94412712D01*
X136793200Y-94405879D01*
X136742406Y-94357903D01*
X136725500Y-94295397D01*
X136725500Y-93914060D01*
X136725501Y-93914047D01*
X136725501Y-93745944D01*
X136703102Y-93662351D01*
X136684577Y-93593216D01*
X136614961Y-93472636D01*
X136605524Y-93456290D01*
X136605518Y-93456282D01*
X136357961Y-93208726D01*
X136357959Y-93208723D01*
X136228717Y-93079481D01*
X136228709Y-93079475D01*
X136123936Y-93018985D01*
X136123933Y-93018984D01*
X136091786Y-93000423D01*
X136091787Y-93000423D01*
X136030693Y-92984053D01*
X135939057Y-92959499D01*
X135780943Y-92959499D01*
X135773347Y-92959499D01*
X135773331Y-92959500D01*
X128594602Y-92959500D01*
X128527563Y-92939815D01*
X128484117Y-92891795D01*
X128477284Y-92878385D01*
X128356971Y-92712786D01*
X128212213Y-92568028D01*
X128046614Y-92447715D01*
X128040006Y-92444348D01*
X127953917Y-92400483D01*
X127903123Y-92352511D01*
X127886328Y-92284690D01*
X127908865Y-92218555D01*
X127953917Y-92179516D01*
X128046610Y-92132287D01*
X128067770Y-92116913D01*
X128212213Y-92011971D01*
X128212215Y-92011968D01*
X128212219Y-92011966D01*
X128356966Y-91867219D01*
X128356968Y-91867215D01*
X128356971Y-91867213D01*
X128438337Y-91755220D01*
X128477287Y-91701610D01*
X128570220Y-91519219D01*
X128633477Y-91324534D01*
X128665500Y-91122352D01*
X128665500Y-90917648D01*
X128633477Y-90715466D01*
X128570220Y-90520781D01*
X128570217Y-90520777D01*
X128570217Y-90520774D01*
X128559159Y-90499072D01*
X128559158Y-90499071D01*
X128532957Y-90447648D01*
X129924500Y-90447648D01*
X129924500Y-90652351D01*
X129956522Y-90854534D01*
X130019781Y-91049223D01*
X130112715Y-91231613D01*
X130233028Y-91397213D01*
X130377786Y-91541971D01*
X130532749Y-91654556D01*
X130543390Y-91662287D01*
X130620566Y-91701610D01*
X130725776Y-91755218D01*
X130725778Y-91755218D01*
X130725781Y-91755220D01*
X130830137Y-91789127D01*
X130920465Y-91818477D01*
X131021557Y-91834488D01*
X131122648Y-91850500D01*
X131122649Y-91850500D01*
X131327351Y-91850500D01*
X131327352Y-91850500D01*
X131529534Y-91818477D01*
X131724219Y-91755220D01*
X131906610Y-91662287D01*
X131999590Y-91594732D01*
X132072213Y-91541971D01*
X132072215Y-91541968D01*
X132072219Y-91541966D01*
X132216966Y-91397219D01*
X132216968Y-91397215D01*
X132216971Y-91397213D01*
X132269774Y-91324534D01*
X132337287Y-91231610D01*
X132430220Y-91049219D01*
X132493477Y-90854534D01*
X132525500Y-90652352D01*
X132525500Y-90447648D01*
X134924500Y-90447648D01*
X134924500Y-90652351D01*
X134956522Y-90854534D01*
X135019781Y-91049223D01*
X135112715Y-91231613D01*
X135233028Y-91397213D01*
X135377786Y-91541971D01*
X135532749Y-91654556D01*
X135543390Y-91662287D01*
X135620566Y-91701610D01*
X135725776Y-91755218D01*
X135725778Y-91755218D01*
X135725781Y-91755220D01*
X135830137Y-91789127D01*
X135920465Y-91818477D01*
X136021557Y-91834488D01*
X136122648Y-91850500D01*
X136122649Y-91850500D01*
X136327351Y-91850500D01*
X136327352Y-91850500D01*
X136529534Y-91818477D01*
X136724219Y-91755220D01*
X136906610Y-91662287D01*
X136999590Y-91594732D01*
X137072213Y-91541971D01*
X137072215Y-91541968D01*
X137072219Y-91541966D01*
X137216966Y-91397219D01*
X137216968Y-91397215D01*
X137216971Y-91397213D01*
X137269774Y-91324534D01*
X137337287Y-91231610D01*
X137430220Y-91049219D01*
X137493477Y-90854534D01*
X137525500Y-90652352D01*
X137525500Y-90447648D01*
X137493477Y-90245466D01*
X137430220Y-90050781D01*
X137430218Y-90050778D01*
X137430218Y-90050776D01*
X137396503Y-89984607D01*
X137337287Y-89868390D01*
X137329556Y-89857749D01*
X137216971Y-89702786D01*
X137072213Y-89558028D01*
X136906613Y-89437715D01*
X136906612Y-89437714D01*
X136906610Y-89437713D01*
X136849653Y-89408691D01*
X136724223Y-89344781D01*
X136529534Y-89281522D01*
X136354995Y-89253878D01*
X136327352Y-89249500D01*
X136122648Y-89249500D01*
X136098329Y-89253351D01*
X135920465Y-89281522D01*
X135725776Y-89344781D01*
X135543386Y-89437715D01*
X135377786Y-89558028D01*
X135233028Y-89702786D01*
X135112715Y-89868386D01*
X135019781Y-90050776D01*
X134956522Y-90245465D01*
X134924500Y-90447648D01*
X132525500Y-90447648D01*
X132493477Y-90245466D01*
X132430220Y-90050781D01*
X132430218Y-90050778D01*
X132430218Y-90050776D01*
X132396503Y-89984607D01*
X132337287Y-89868390D01*
X132329556Y-89857749D01*
X132216971Y-89702786D01*
X132072213Y-89558028D01*
X131906613Y-89437715D01*
X131906612Y-89437714D01*
X131906610Y-89437713D01*
X131849653Y-89408691D01*
X131724223Y-89344781D01*
X131529534Y-89281522D01*
X131354995Y-89253878D01*
X131327352Y-89249500D01*
X131122648Y-89249500D01*
X131098329Y-89253351D01*
X130920465Y-89281522D01*
X130725776Y-89344781D01*
X130543386Y-89437715D01*
X130377786Y-89558028D01*
X130233028Y-89702786D01*
X130112715Y-89868386D01*
X130019781Y-90050776D01*
X129956522Y-90245465D01*
X129924500Y-90447648D01*
X128532957Y-90447648D01*
X128531845Y-90445466D01*
X128477287Y-90338390D01*
X128477285Y-90338387D01*
X128477284Y-90338385D01*
X128356971Y-90172786D01*
X128212213Y-90028028D01*
X128046614Y-89907715D01*
X127969434Y-89868390D01*
X127953917Y-89860483D01*
X127903123Y-89812511D01*
X127886328Y-89744690D01*
X127908865Y-89678555D01*
X127953917Y-89639516D01*
X128046610Y-89592287D01*
X128111997Y-89544781D01*
X128212213Y-89471971D01*
X128212215Y-89471968D01*
X128212219Y-89471966D01*
X128356966Y-89327219D01*
X128356968Y-89327215D01*
X128356971Y-89327213D01*
X128413432Y-89249500D01*
X128477287Y-89161610D01*
X128570220Y-88979219D01*
X128633477Y-88784534D01*
X128665500Y-88582352D01*
X128665500Y-88377648D01*
X128633477Y-88175466D01*
X128570220Y-87980781D01*
X128570218Y-87980778D01*
X128570218Y-87980776D01*
X128536503Y-87914607D01*
X128477287Y-87798390D01*
X128469556Y-87787749D01*
X128356971Y-87632786D01*
X128212213Y-87488028D01*
X128046614Y-87367715D01*
X128003556Y-87345776D01*
X127953917Y-87320483D01*
X127903123Y-87272511D01*
X127886328Y-87204690D01*
X127908865Y-87138555D01*
X127953917Y-87099516D01*
X128046610Y-87052287D01*
X128175482Y-86958657D01*
X128212213Y-86931971D01*
X128212215Y-86931968D01*
X128212219Y-86931966D01*
X128356966Y-86787219D01*
X128356968Y-86787215D01*
X128356971Y-86787213D01*
X128409732Y-86714590D01*
X128477287Y-86621610D01*
X128570220Y-86439219D01*
X128633477Y-86244534D01*
X128665500Y-86042352D01*
X128665500Y-85837648D01*
X128659165Y-85797648D01*
X129424500Y-85797648D01*
X129424500Y-86002351D01*
X129456522Y-86204534D01*
X129519781Y-86399223D01*
X129583691Y-86524653D01*
X129593804Y-86544500D01*
X129612715Y-86581613D01*
X129733028Y-86747213D01*
X129877786Y-86891971D01*
X130023424Y-86997781D01*
X130043390Y-87012287D01*
X130159607Y-87071503D01*
X130225776Y-87105218D01*
X130225778Y-87105218D01*
X130225781Y-87105220D01*
X130328376Y-87138555D01*
X130420465Y-87168477D01*
X130521557Y-87184488D01*
X130622648Y-87200500D01*
X130622649Y-87200500D01*
X130827351Y-87200500D01*
X130827352Y-87200500D01*
X131029534Y-87168477D01*
X131224219Y-87105220D01*
X131406610Y-87012287D01*
X131499590Y-86944732D01*
X131572213Y-86891971D01*
X131572215Y-86891968D01*
X131572219Y-86891966D01*
X131716966Y-86747219D01*
X131716968Y-86747215D01*
X131716971Y-86747213D01*
X131792834Y-86642795D01*
X131837287Y-86581610D01*
X131930220Y-86399219D01*
X131993477Y-86204534D01*
X132025500Y-86002352D01*
X132025500Y-85797648D01*
X137044500Y-85797648D01*
X137044500Y-86002351D01*
X137076522Y-86204534D01*
X137139781Y-86399223D01*
X137203691Y-86524653D01*
X137213804Y-86544500D01*
X137232715Y-86581613D01*
X137353028Y-86747213D01*
X137497786Y-86891971D01*
X137643424Y-86997781D01*
X137663390Y-87012287D01*
X137779607Y-87071503D01*
X137845776Y-87105218D01*
X137845778Y-87105218D01*
X137845781Y-87105220D01*
X137948376Y-87138555D01*
X138040465Y-87168477D01*
X138141557Y-87184488D01*
X138242648Y-87200500D01*
X138242649Y-87200500D01*
X138447351Y-87200500D01*
X138447352Y-87200500D01*
X138649534Y-87168477D01*
X138844219Y-87105220D01*
X139026610Y-87012287D01*
X139119590Y-86944732D01*
X139192213Y-86891971D01*
X139192215Y-86891968D01*
X139192219Y-86891966D01*
X139336966Y-86747219D01*
X139336968Y-86747215D01*
X139336971Y-86747213D01*
X139412834Y-86642795D01*
X139457287Y-86581610D01*
X139550220Y-86399219D01*
X139613477Y-86204534D01*
X139645500Y-86002352D01*
X139645500Y-85797648D01*
X139637726Y-85748566D01*
X139613477Y-85595465D01*
X139550218Y-85400776D01*
X139516503Y-85334607D01*
X139457287Y-85218390D01*
X139403554Y-85144432D01*
X139336971Y-85052786D01*
X139192213Y-84908028D01*
X139026613Y-84787715D01*
X139026612Y-84787714D01*
X139026610Y-84787713D01*
X138969653Y-84758691D01*
X138844223Y-84694781D01*
X138649534Y-84631522D01*
X138474995Y-84603878D01*
X138447352Y-84599500D01*
X138242648Y-84599500D01*
X138218329Y-84603351D01*
X138040465Y-84631522D01*
X137845776Y-84694781D01*
X137663386Y-84787715D01*
X137497786Y-84908028D01*
X137353028Y-85052786D01*
X137232715Y-85218386D01*
X137139781Y-85400776D01*
X137076522Y-85595465D01*
X137044500Y-85797648D01*
X132025500Y-85797648D01*
X132017726Y-85748566D01*
X131993477Y-85595465D01*
X131930218Y-85400776D01*
X131896503Y-85334607D01*
X131837287Y-85218390D01*
X131783554Y-85144432D01*
X131716971Y-85052786D01*
X131572213Y-84908028D01*
X131406613Y-84787715D01*
X131406612Y-84787714D01*
X131406610Y-84787713D01*
X131349653Y-84758691D01*
X131224223Y-84694781D01*
X131029534Y-84631522D01*
X130854995Y-84603878D01*
X130827352Y-84599500D01*
X130622648Y-84599500D01*
X130598329Y-84603351D01*
X130420465Y-84631522D01*
X130225776Y-84694781D01*
X130043386Y-84787715D01*
X129877786Y-84908028D01*
X129733028Y-85052786D01*
X129612715Y-85218386D01*
X129519781Y-85400776D01*
X129456522Y-85595465D01*
X129424500Y-85797648D01*
X128659165Y-85797648D01*
X128633477Y-85635466D01*
X128570220Y-85440781D01*
X128570218Y-85440778D01*
X128570218Y-85440776D01*
X128518865Y-85339991D01*
X128477287Y-85258390D01*
X128448223Y-85218386D01*
X128356971Y-85092786D01*
X128212213Y-84948028D01*
X128046613Y-84827715D01*
X128046612Y-84827714D01*
X128046610Y-84827713D01*
X127968106Y-84787713D01*
X127864223Y-84734781D01*
X127669534Y-84671522D01*
X127494995Y-84643878D01*
X127467352Y-84639500D01*
X127262648Y-84639500D01*
X127238329Y-84643351D01*
X127060465Y-84671522D01*
X126865776Y-84734781D01*
X126683386Y-84827715D01*
X126517786Y-84948028D01*
X126373028Y-85092786D01*
X126252715Y-85258386D01*
X126159781Y-85440776D01*
X126096522Y-85635465D01*
X126064500Y-85837648D01*
X121045499Y-85837648D01*
X121045499Y-85339992D01*
X121036475Y-85251657D01*
X121034999Y-85237203D01*
X121034998Y-85237200D01*
X121004258Y-85144433D01*
X120979814Y-85070666D01*
X120887712Y-84921344D01*
X120763656Y-84797288D01*
X120614334Y-84705186D01*
X120447797Y-84650001D01*
X120447795Y-84650000D01*
X120345010Y-84639500D01*
X119144998Y-84639500D01*
X119144981Y-84639501D01*
X119042203Y-84650000D01*
X119042200Y-84650001D01*
X118875668Y-84705185D01*
X118875663Y-84705187D01*
X118726342Y-84797289D01*
X118602289Y-84921342D01*
X118510187Y-85070663D01*
X118510185Y-85070668D01*
X118509927Y-85071447D01*
X118455001Y-85237203D01*
X118455001Y-85237204D01*
X118455000Y-85237204D01*
X118444500Y-85339983D01*
X110633003Y-85339983D01*
X110511433Y-85251657D01*
X110300996Y-85144433D01*
X110076368Y-85071446D01*
X109843097Y-85034500D01*
X109843092Y-85034500D01*
X109606908Y-85034500D01*
X109606903Y-85034500D01*
X109373631Y-85071446D01*
X109149003Y-85144433D01*
X108938566Y-85251657D01*
X108829550Y-85330862D01*
X108747490Y-85390483D01*
X108747488Y-85390485D01*
X108747487Y-85390485D01*
X108580485Y-85557487D01*
X108580485Y-85557488D01*
X108580483Y-85557490D01*
X108552892Y-85595466D01*
X108441657Y-85748566D01*
X108334433Y-85959003D01*
X108261446Y-86183631D01*
X108224500Y-86416902D01*
X104725500Y-86416902D01*
X104688553Y-86183631D01*
X104615566Y-85959003D01*
X104508342Y-85748566D01*
X104369517Y-85557490D01*
X104202510Y-85390483D01*
X104011433Y-85251657D01*
X103800996Y-85144433D01*
X103576368Y-85071446D01*
X103343097Y-85034500D01*
X103343092Y-85034500D01*
X103106908Y-85034500D01*
X103106903Y-85034500D01*
X102873631Y-85071446D01*
X102649003Y-85144433D01*
X102438566Y-85251657D01*
X102329550Y-85330862D01*
X102247490Y-85390483D01*
X102247488Y-85390485D01*
X102247487Y-85390485D01*
X102080485Y-85557487D01*
X102080485Y-85557488D01*
X102080483Y-85557490D01*
X102052892Y-85595466D01*
X101941657Y-85748566D01*
X101834433Y-85959003D01*
X101761446Y-86183631D01*
X101724500Y-86416902D01*
X101000500Y-86416902D01*
X101000500Y-81916902D01*
X101724500Y-81916902D01*
X101724500Y-82153097D01*
X101761446Y-82386368D01*
X101834433Y-82610996D01*
X101941657Y-82821433D01*
X102080483Y-83012510D01*
X102247490Y-83179517D01*
X102438567Y-83318343D01*
X102537991Y-83369002D01*
X102649003Y-83425566D01*
X102649005Y-83425566D01*
X102649008Y-83425568D01*
X102769412Y-83464689D01*
X102873631Y-83498553D01*
X103106903Y-83535500D01*
X103106908Y-83535500D01*
X103343097Y-83535500D01*
X103576368Y-83498553D01*
X103800992Y-83425568D01*
X104011433Y-83318343D01*
X104202510Y-83179517D01*
X104369517Y-83012510D01*
X104508343Y-82821433D01*
X104615568Y-82610992D01*
X104688553Y-82386368D01*
X104702153Y-82300499D01*
X104725500Y-82153097D01*
X104725500Y-81916902D01*
X108224500Y-81916902D01*
X108224500Y-82153097D01*
X108261446Y-82386368D01*
X108334433Y-82610996D01*
X108441657Y-82821433D01*
X108580483Y-83012510D01*
X108747490Y-83179517D01*
X108938567Y-83318343D01*
X109037991Y-83369002D01*
X109149003Y-83425566D01*
X109149005Y-83425566D01*
X109149008Y-83425568D01*
X109269412Y-83464689D01*
X109373631Y-83498553D01*
X109606903Y-83535500D01*
X109606908Y-83535500D01*
X109843097Y-83535500D01*
X110076368Y-83498553D01*
X110300992Y-83425568D01*
X110511433Y-83318343D01*
X110702510Y-83179517D01*
X110869517Y-83012510D01*
X111008343Y-82821433D01*
X111115568Y-82610992D01*
X111188553Y-82386368D01*
X111202153Y-82300499D01*
X111225500Y-82153097D01*
X111225500Y-81916902D01*
X111188553Y-81683631D01*
X111154689Y-81579412D01*
X111115568Y-81459008D01*
X111115566Y-81459005D01*
X111115566Y-81459003D01*
X111053548Y-81337287D01*
X111008343Y-81248567D01*
X110869517Y-81057490D01*
X110702510Y-80890483D01*
X110511433Y-80751657D01*
X110457583Y-80724219D01*
X110300996Y-80644433D01*
X110076368Y-80571446D01*
X109843097Y-80534500D01*
X109843092Y-80534500D01*
X109606908Y-80534500D01*
X109606903Y-80534500D01*
X109373631Y-80571446D01*
X109149003Y-80644433D01*
X108938566Y-80751657D01*
X108829550Y-80830862D01*
X108747490Y-80890483D01*
X108747488Y-80890485D01*
X108747487Y-80890485D01*
X108580485Y-81057487D01*
X108580485Y-81057488D01*
X108580483Y-81057490D01*
X108569782Y-81072219D01*
X108441657Y-81248566D01*
X108334433Y-81459003D01*
X108261446Y-81683631D01*
X108224500Y-81916902D01*
X104725500Y-81916902D01*
X104688553Y-81683631D01*
X104654689Y-81579412D01*
X104615568Y-81459008D01*
X104615566Y-81459005D01*
X104615566Y-81459003D01*
X104553548Y-81337287D01*
X104508343Y-81248567D01*
X104369517Y-81057490D01*
X104202510Y-80890483D01*
X104011433Y-80751657D01*
X103957583Y-80724219D01*
X103800996Y-80644433D01*
X103576368Y-80571446D01*
X103343097Y-80534500D01*
X103343092Y-80534500D01*
X103106908Y-80534500D01*
X103106903Y-80534500D01*
X102873631Y-80571446D01*
X102649003Y-80644433D01*
X102438566Y-80751657D01*
X102329550Y-80830862D01*
X102247490Y-80890483D01*
X102247488Y-80890485D01*
X102247487Y-80890485D01*
X102080485Y-81057487D01*
X102080485Y-81057488D01*
X102080483Y-81057490D01*
X102069782Y-81072219D01*
X101941657Y-81248566D01*
X101834433Y-81459003D01*
X101761446Y-81683631D01*
X101724500Y-81916902D01*
X101000500Y-81916902D01*
X101000500Y-80122648D01*
X113524500Y-80122648D01*
X113524500Y-80327351D01*
X113556522Y-80529534D01*
X113619781Y-80724223D01*
X113712715Y-80906613D01*
X113833028Y-81072213D01*
X113977786Y-81216971D01*
X114132749Y-81329556D01*
X114143390Y-81337287D01*
X114259607Y-81396503D01*
X114325776Y-81430218D01*
X114325778Y-81430218D01*
X114325781Y-81430220D01*
X114430137Y-81464127D01*
X114520465Y-81493477D01*
X114621557Y-81509488D01*
X114722648Y-81525500D01*
X114722649Y-81525500D01*
X114927351Y-81525500D01*
X114927352Y-81525500D01*
X115129534Y-81493477D01*
X115324219Y-81430220D01*
X115506610Y-81337287D01*
X115599590Y-81269732D01*
X115672213Y-81216971D01*
X115672215Y-81216968D01*
X115672219Y-81216966D01*
X115816966Y-81072219D01*
X115816968Y-81072215D01*
X115816971Y-81072213D01*
X115869732Y-80999590D01*
X115937287Y-80906610D01*
X115969335Y-80843713D01*
X120834500Y-80843713D01*
X120834500Y-81056287D01*
X120867754Y-81266243D01*
X120930387Y-81459008D01*
X120933444Y-81468414D01*
X121029951Y-81657820D01*
X121154890Y-81829786D01*
X121305213Y-81980109D01*
X121477179Y-82105048D01*
X121477181Y-82105049D01*
X121477184Y-82105051D01*
X121666588Y-82201557D01*
X121868757Y-82267246D01*
X122078713Y-82300500D01*
X122078714Y-82300500D01*
X122291286Y-82300500D01*
X122291287Y-82300500D01*
X122501243Y-82267246D01*
X122703412Y-82201557D01*
X122892816Y-82105051D01*
X123064792Y-81980104D01*
X123178329Y-81866566D01*
X123239648Y-81833084D01*
X123309340Y-81838068D01*
X123365274Y-81879939D01*
X123382189Y-81910917D01*
X123431202Y-82042328D01*
X123431206Y-82042335D01*
X123517452Y-82157544D01*
X123517455Y-82157547D01*
X123632664Y-82243793D01*
X123632671Y-82243797D01*
X123767517Y-82294091D01*
X123767516Y-82294091D01*
X123774444Y-82294835D01*
X123827127Y-82300500D01*
X125622872Y-82300499D01*
X125682483Y-82294091D01*
X125817331Y-82243796D01*
X125932546Y-82157546D01*
X126018796Y-82042331D01*
X126069091Y-81907483D01*
X126075500Y-81847873D01*
X126075499Y-80052128D01*
X126069091Y-79992517D01*
X126067810Y-79989083D01*
X126018797Y-79857671D01*
X126018793Y-79857664D01*
X125932547Y-79742455D01*
X125932544Y-79742452D01*
X125817335Y-79656206D01*
X125817328Y-79656202D01*
X125682482Y-79605908D01*
X125682483Y-79605908D01*
X125622883Y-79599501D01*
X125622881Y-79599500D01*
X125622873Y-79599500D01*
X125622864Y-79599500D01*
X123827129Y-79599500D01*
X123827123Y-79599501D01*
X123767516Y-79605908D01*
X123632671Y-79656202D01*
X123632664Y-79656206D01*
X123517455Y-79742452D01*
X123517452Y-79742455D01*
X123431206Y-79857664D01*
X123431203Y-79857669D01*
X123382189Y-79989083D01*
X123340317Y-80045016D01*
X123274853Y-80069433D01*
X123206580Y-80054581D01*
X123178326Y-80033430D01*
X123064786Y-79919890D01*
X122892820Y-79794951D01*
X122703414Y-79698444D01*
X122703413Y-79698443D01*
X122703412Y-79698443D01*
X122501243Y-79632754D01*
X122501241Y-79632753D01*
X122501240Y-79632753D01*
X122339957Y-79607208D01*
X122291287Y-79599500D01*
X122078713Y-79599500D01*
X122030042Y-79607208D01*
X121868760Y-79632753D01*
X121666585Y-79698444D01*
X121477179Y-79794951D01*
X121305213Y-79919890D01*
X121154890Y-80070213D01*
X121029951Y-80242179D01*
X120933444Y-80431585D01*
X120867753Y-80633760D01*
X120866063Y-80644432D01*
X120834500Y-80843713D01*
X115969335Y-80843713D01*
X116030220Y-80724219D01*
X116093477Y-80529534D01*
X116125500Y-80327352D01*
X116125500Y-80122648D01*
X116093477Y-79920466D01*
X116030220Y-79725781D01*
X116030218Y-79725778D01*
X116030218Y-79725776D01*
X115969142Y-79605909D01*
X115937287Y-79543390D01*
X115929556Y-79532749D01*
X115816971Y-79377786D01*
X115672213Y-79233028D01*
X115506613Y-79112715D01*
X115506612Y-79112714D01*
X115506610Y-79112713D01*
X115449653Y-79083691D01*
X115324223Y-79019781D01*
X115129534Y-78956522D01*
X114954995Y-78928878D01*
X114927352Y-78924500D01*
X114722648Y-78924500D01*
X114698329Y-78928351D01*
X114520465Y-78956522D01*
X114325776Y-79019781D01*
X114143386Y-79112715D01*
X113977786Y-79233028D01*
X113833028Y-79377786D01*
X113712715Y-79543386D01*
X113619781Y-79725776D01*
X113556522Y-79920465D01*
X113524500Y-80122648D01*
X101000500Y-80122648D01*
X101000500Y-77124500D01*
X101020185Y-77057461D01*
X101072989Y-77011706D01*
X101124500Y-77000500D01*
X139875500Y-77000500D01*
X139942539Y-77020185D01*
G37*
%TD.AperFunction*%
M02*
