M48
; DRILL file {KiCad 9.0.3} date 2026-07-21T20:10:56+0530
; FORMAT={-:-/ absolute / metric / decimal}
; #@! TF.CreationDate,2026-07-21T20:10:56+05:30
; #@! TF.GenerationSoftware,Kicad,Pcbnew,9.0.3
; #@! TF.FileFunction,Plated,1,2,PTH
FMAT,2
METRIC
; #@! TA.AperFunction,Plated,PTH,ComponentDrill
T1C0.800
; #@! TA.AperFunction,Plated,PTH,ComponentDrill
T2C1.000
%
G90
G05
T1
X48.475Y-48.915
X53.425Y-37.35
X53.475Y-48.915
X53.55Y-53.79
X53.55Y-61.41
X57.39Y-48.965
X59.975Y-56.415
X59.975Y-61.415
X61.045Y-37.35
X64.775Y-37.15
X65.01Y-48.965
X69.775Y-37.15
X80.515Y-49.1
X80.755Y-55.825
X81.5Y-62.725
X83.55Y-37.3
X86.5Y-62.725
X88.135Y-49.1
X88.375Y-55.825
X88.55Y-37.3
X91.7Y-37.3
X92.23Y-49.1
X93.625Y-62.725
X93.7Y-55.75
X98.625Y-62.725
X98.7Y-55.75
X99.32Y-37.3
X99.85Y-49.1
T2
X47.925Y-34.925
X47.925Y-37.465
X48.4Y-54.865
X48.4Y-57.405
X60.6Y-30.625
X63.14Y-30.625
X65.3Y-57.09
X65.3Y-59.63
X75.65Y-49.35
X75.65Y-51.89
X78.37Y-34.585
X78.37Y-37.125
X88.595Y-31.475
X91.135Y-31.475
X104.525Y-51.575
X104.525Y-54.115
M30
