%TF.GenerationSoftware,KiCad,Pcbnew,9.0.3*%
%TF.CreationDate,2026-07-21T20:10:53+05:30*%
%TF.ProjectId,07_RC_Filter_Demonstration_Board,30375f52-435f-4466-996c-7465725f4465,rev?*%
%TF.SameCoordinates,Original*%
%TF.FileFunction,Legend,Top*%
%TF.FilePolarity,Positive*%
%FSLAX46Y46*%
G04 Gerber Fmt 4.6, Leading zero omitted, Abs format (unit mm)*
G04 Created by KiCad (PCBNEW 9.0.3) date 2026-07-21 20:10:53*
%MOMM*%
%LPD*%
G01*
G04 APERTURE LIST*
%ADD10C,0.150000*%
%ADD11C,0.120000*%
G04 APERTURE END LIST*
D10*
X95873333Y-47184819D02*
X95540000Y-46708628D01*
X95301905Y-47184819D02*
X95301905Y-46184819D01*
X95301905Y-46184819D02*
X95682857Y-46184819D01*
X95682857Y-46184819D02*
X95778095Y-46232438D01*
X95778095Y-46232438D02*
X95825714Y-46280057D01*
X95825714Y-46280057D02*
X95873333Y-46375295D01*
X95873333Y-46375295D02*
X95873333Y-46518152D01*
X95873333Y-46518152D02*
X95825714Y-46613390D01*
X95825714Y-46613390D02*
X95778095Y-46661009D01*
X95778095Y-46661009D02*
X95682857Y-46708628D01*
X95682857Y-46708628D02*
X95301905Y-46708628D01*
X96730476Y-46184819D02*
X96540000Y-46184819D01*
X96540000Y-46184819D02*
X96444762Y-46232438D01*
X96444762Y-46232438D02*
X96397143Y-46280057D01*
X96397143Y-46280057D02*
X96301905Y-46422914D01*
X96301905Y-46422914D02*
X96254286Y-46613390D01*
X96254286Y-46613390D02*
X96254286Y-46994342D01*
X96254286Y-46994342D02*
X96301905Y-47089580D01*
X96301905Y-47089580D02*
X96349524Y-47137200D01*
X96349524Y-47137200D02*
X96444762Y-47184819D01*
X96444762Y-47184819D02*
X96635238Y-47184819D01*
X96635238Y-47184819D02*
X96730476Y-47137200D01*
X96730476Y-47137200D02*
X96778095Y-47089580D01*
X96778095Y-47089580D02*
X96825714Y-46994342D01*
X96825714Y-46994342D02*
X96825714Y-46756247D01*
X96825714Y-46756247D02*
X96778095Y-46661009D01*
X96778095Y-46661009D02*
X96730476Y-46613390D01*
X96730476Y-46613390D02*
X96635238Y-46565771D01*
X96635238Y-46565771D02*
X96444762Y-46565771D01*
X96444762Y-46565771D02*
X96349524Y-46613390D01*
X96349524Y-46613390D02*
X96301905Y-46661009D01*
X96301905Y-46661009D02*
X96254286Y-46756247D01*
X96208333Y-65384580D02*
X96160714Y-65432200D01*
X96160714Y-65432200D02*
X96017857Y-65479819D01*
X96017857Y-65479819D02*
X95922619Y-65479819D01*
X95922619Y-65479819D02*
X95779762Y-65432200D01*
X95779762Y-65432200D02*
X95684524Y-65336961D01*
X95684524Y-65336961D02*
X95636905Y-65241723D01*
X95636905Y-65241723D02*
X95589286Y-65051247D01*
X95589286Y-65051247D02*
X95589286Y-64908390D01*
X95589286Y-64908390D02*
X95636905Y-64717914D01*
X95636905Y-64717914D02*
X95684524Y-64622676D01*
X95684524Y-64622676D02*
X95779762Y-64527438D01*
X95779762Y-64527438D02*
X95922619Y-64479819D01*
X95922619Y-64479819D02*
X96017857Y-64479819D01*
X96017857Y-64479819D02*
X96160714Y-64527438D01*
X96160714Y-64527438D02*
X96208333Y-64575057D01*
X97065476Y-64479819D02*
X96875000Y-64479819D01*
X96875000Y-64479819D02*
X96779762Y-64527438D01*
X96779762Y-64527438D02*
X96732143Y-64575057D01*
X96732143Y-64575057D02*
X96636905Y-64717914D01*
X96636905Y-64717914D02*
X96589286Y-64908390D01*
X96589286Y-64908390D02*
X96589286Y-65289342D01*
X96589286Y-65289342D02*
X96636905Y-65384580D01*
X96636905Y-65384580D02*
X96684524Y-65432200D01*
X96684524Y-65432200D02*
X96779762Y-65479819D01*
X96779762Y-65479819D02*
X96970238Y-65479819D01*
X96970238Y-65479819D02*
X97065476Y-65432200D01*
X97065476Y-65432200D02*
X97113095Y-65384580D01*
X97113095Y-65384580D02*
X97160714Y-65289342D01*
X97160714Y-65289342D02*
X97160714Y-65051247D01*
X97160714Y-65051247D02*
X97113095Y-64956009D01*
X97113095Y-64956009D02*
X97065476Y-64908390D01*
X97065476Y-64908390D02*
X96970238Y-64860771D01*
X96970238Y-64860771D02*
X96779762Y-64860771D01*
X96779762Y-64860771D02*
X96684524Y-64908390D01*
X96684524Y-64908390D02*
X96636905Y-64956009D01*
X96636905Y-64956009D02*
X96589286Y-65051247D01*
X61033333Y-47049819D02*
X60700000Y-46573628D01*
X60461905Y-47049819D02*
X60461905Y-46049819D01*
X60461905Y-46049819D02*
X60842857Y-46049819D01*
X60842857Y-46049819D02*
X60938095Y-46097438D01*
X60938095Y-46097438D02*
X60985714Y-46145057D01*
X60985714Y-46145057D02*
X61033333Y-46240295D01*
X61033333Y-46240295D02*
X61033333Y-46383152D01*
X61033333Y-46383152D02*
X60985714Y-46478390D01*
X60985714Y-46478390D02*
X60938095Y-46526009D01*
X60938095Y-46526009D02*
X60842857Y-46573628D01*
X60842857Y-46573628D02*
X60461905Y-46573628D01*
X61890476Y-46383152D02*
X61890476Y-47049819D01*
X61652381Y-46002200D02*
X61414286Y-46716485D01*
X61414286Y-46716485D02*
X62033333Y-46716485D01*
X65766666Y-54154819D02*
X65766666Y-54869104D01*
X65766666Y-54869104D02*
X65719047Y-55011961D01*
X65719047Y-55011961D02*
X65623809Y-55107200D01*
X65623809Y-55107200D02*
X65480952Y-55154819D01*
X65480952Y-55154819D02*
X65385714Y-55154819D01*
X66671428Y-54154819D02*
X66480952Y-54154819D01*
X66480952Y-54154819D02*
X66385714Y-54202438D01*
X66385714Y-54202438D02*
X66338095Y-54250057D01*
X66338095Y-54250057D02*
X66242857Y-54392914D01*
X66242857Y-54392914D02*
X66195238Y-54583390D01*
X66195238Y-54583390D02*
X66195238Y-54964342D01*
X66195238Y-54964342D02*
X66242857Y-55059580D01*
X66242857Y-55059580D02*
X66290476Y-55107200D01*
X66290476Y-55107200D02*
X66385714Y-55154819D01*
X66385714Y-55154819D02*
X66576190Y-55154819D01*
X66576190Y-55154819D02*
X66671428Y-55107200D01*
X66671428Y-55107200D02*
X66719047Y-55059580D01*
X66719047Y-55059580D02*
X66766666Y-54964342D01*
X66766666Y-54964342D02*
X66766666Y-54726247D01*
X66766666Y-54726247D02*
X66719047Y-54631009D01*
X66719047Y-54631009D02*
X66671428Y-54583390D01*
X66671428Y-54583390D02*
X66576190Y-54535771D01*
X66576190Y-54535771D02*
X66385714Y-54535771D01*
X66385714Y-54535771D02*
X66290476Y-54583390D01*
X66290476Y-54583390D02*
X66242857Y-54631009D01*
X66242857Y-54631009D02*
X66195238Y-54726247D01*
X57068333Y-35434819D02*
X56735000Y-34958628D01*
X56496905Y-35434819D02*
X56496905Y-34434819D01*
X56496905Y-34434819D02*
X56877857Y-34434819D01*
X56877857Y-34434819D02*
X56973095Y-34482438D01*
X56973095Y-34482438D02*
X57020714Y-34530057D01*
X57020714Y-34530057D02*
X57068333Y-34625295D01*
X57068333Y-34625295D02*
X57068333Y-34768152D01*
X57068333Y-34768152D02*
X57020714Y-34863390D01*
X57020714Y-34863390D02*
X56973095Y-34911009D01*
X56973095Y-34911009D02*
X56877857Y-34958628D01*
X56877857Y-34958628D02*
X56496905Y-34958628D01*
X58020714Y-35434819D02*
X57449286Y-35434819D01*
X57735000Y-35434819D02*
X57735000Y-34434819D01*
X57735000Y-34434819D02*
X57639762Y-34577676D01*
X57639762Y-34577676D02*
X57544524Y-34672914D01*
X57544524Y-34672914D02*
X57449286Y-34720533D01*
X67108333Y-35009580D02*
X67060714Y-35057200D01*
X67060714Y-35057200D02*
X66917857Y-35104819D01*
X66917857Y-35104819D02*
X66822619Y-35104819D01*
X66822619Y-35104819D02*
X66679762Y-35057200D01*
X66679762Y-35057200D02*
X66584524Y-34961961D01*
X66584524Y-34961961D02*
X66536905Y-34866723D01*
X66536905Y-34866723D02*
X66489286Y-34676247D01*
X66489286Y-34676247D02*
X66489286Y-34533390D01*
X66489286Y-34533390D02*
X66536905Y-34342914D01*
X66536905Y-34342914D02*
X66584524Y-34247676D01*
X66584524Y-34247676D02*
X66679762Y-34152438D01*
X66679762Y-34152438D02*
X66822619Y-34104819D01*
X66822619Y-34104819D02*
X66917857Y-34104819D01*
X66917857Y-34104819D02*
X67060714Y-34152438D01*
X67060714Y-34152438D02*
X67108333Y-34200057D01*
X68060714Y-35104819D02*
X67489286Y-35104819D01*
X67775000Y-35104819D02*
X67775000Y-34104819D01*
X67775000Y-34104819D02*
X67679762Y-34247676D01*
X67679762Y-34247676D02*
X67584524Y-34342914D01*
X67584524Y-34342914D02*
X67489286Y-34390533D01*
X57454819Y-30958333D02*
X58169104Y-30958333D01*
X58169104Y-30958333D02*
X58311961Y-31005952D01*
X58311961Y-31005952D02*
X58407200Y-31101190D01*
X58407200Y-31101190D02*
X58454819Y-31244047D01*
X58454819Y-31244047D02*
X58454819Y-31339285D01*
X57550057Y-30529761D02*
X57502438Y-30482142D01*
X57502438Y-30482142D02*
X57454819Y-30386904D01*
X57454819Y-30386904D02*
X57454819Y-30148809D01*
X57454819Y-30148809D02*
X57502438Y-30053571D01*
X57502438Y-30053571D02*
X57550057Y-30005952D01*
X57550057Y-30005952D02*
X57645295Y-29958333D01*
X57645295Y-29958333D02*
X57740533Y-29958333D01*
X57740533Y-29958333D02*
X57883390Y-30005952D01*
X57883390Y-30005952D02*
X58454819Y-30577380D01*
X58454819Y-30577380D02*
X58454819Y-29958333D01*
X75316666Y-46424819D02*
X75316666Y-47139104D01*
X75316666Y-47139104D02*
X75269047Y-47281961D01*
X75269047Y-47281961D02*
X75173809Y-47377200D01*
X75173809Y-47377200D02*
X75030952Y-47424819D01*
X75030952Y-47424819D02*
X74935714Y-47424819D01*
X75697619Y-46424819D02*
X76364285Y-46424819D01*
X76364285Y-46424819D02*
X75935714Y-47424819D01*
X47591666Y-31999819D02*
X47591666Y-32714104D01*
X47591666Y-32714104D02*
X47544047Y-32856961D01*
X47544047Y-32856961D02*
X47448809Y-32952200D01*
X47448809Y-32952200D02*
X47305952Y-32999819D01*
X47305952Y-32999819D02*
X47210714Y-32999819D01*
X48591666Y-32999819D02*
X48020238Y-32999819D01*
X48305952Y-32999819D02*
X48305952Y-31999819D01*
X48305952Y-31999819D02*
X48210714Y-32142676D01*
X48210714Y-32142676D02*
X48115476Y-32237914D01*
X48115476Y-32237914D02*
X48020238Y-32285533D01*
X50808333Y-46774580D02*
X50760714Y-46822200D01*
X50760714Y-46822200D02*
X50617857Y-46869819D01*
X50617857Y-46869819D02*
X50522619Y-46869819D01*
X50522619Y-46869819D02*
X50379762Y-46822200D01*
X50379762Y-46822200D02*
X50284524Y-46726961D01*
X50284524Y-46726961D02*
X50236905Y-46631723D01*
X50236905Y-46631723D02*
X50189286Y-46441247D01*
X50189286Y-46441247D02*
X50189286Y-46298390D01*
X50189286Y-46298390D02*
X50236905Y-46107914D01*
X50236905Y-46107914D02*
X50284524Y-46012676D01*
X50284524Y-46012676D02*
X50379762Y-45917438D01*
X50379762Y-45917438D02*
X50522619Y-45869819D01*
X50522619Y-45869819D02*
X50617857Y-45869819D01*
X50617857Y-45869819D02*
X50760714Y-45917438D01*
X50760714Y-45917438D02*
X50808333Y-45965057D01*
X51141667Y-45869819D02*
X51760714Y-45869819D01*
X51760714Y-45869819D02*
X51427381Y-46250771D01*
X51427381Y-46250771D02*
X51570238Y-46250771D01*
X51570238Y-46250771D02*
X51665476Y-46298390D01*
X51665476Y-46298390D02*
X51713095Y-46346009D01*
X51713095Y-46346009D02*
X51760714Y-46441247D01*
X51760714Y-46441247D02*
X51760714Y-46679342D01*
X51760714Y-46679342D02*
X51713095Y-46774580D01*
X51713095Y-46774580D02*
X51665476Y-46822200D01*
X51665476Y-46822200D02*
X51570238Y-46869819D01*
X51570238Y-46869819D02*
X51284524Y-46869819D01*
X51284524Y-46869819D02*
X51189286Y-46822200D01*
X51189286Y-46822200D02*
X51141667Y-46774580D01*
X96008333Y-58384580D02*
X95960714Y-58432200D01*
X95960714Y-58432200D02*
X95817857Y-58479819D01*
X95817857Y-58479819D02*
X95722619Y-58479819D01*
X95722619Y-58479819D02*
X95579762Y-58432200D01*
X95579762Y-58432200D02*
X95484524Y-58336961D01*
X95484524Y-58336961D02*
X95436905Y-58241723D01*
X95436905Y-58241723D02*
X95389286Y-58051247D01*
X95389286Y-58051247D02*
X95389286Y-57908390D01*
X95389286Y-57908390D02*
X95436905Y-57717914D01*
X95436905Y-57717914D02*
X95484524Y-57622676D01*
X95484524Y-57622676D02*
X95579762Y-57527438D01*
X95579762Y-57527438D02*
X95722619Y-57479819D01*
X95722619Y-57479819D02*
X95817857Y-57479819D01*
X95817857Y-57479819D02*
X95960714Y-57527438D01*
X95960714Y-57527438D02*
X96008333Y-57575057D01*
X96341667Y-57479819D02*
X97008333Y-57479819D01*
X97008333Y-57479819D02*
X96579762Y-58479819D01*
X62834580Y-59081666D02*
X62882200Y-59129285D01*
X62882200Y-59129285D02*
X62929819Y-59272142D01*
X62929819Y-59272142D02*
X62929819Y-59367380D01*
X62929819Y-59367380D02*
X62882200Y-59510237D01*
X62882200Y-59510237D02*
X62786961Y-59605475D01*
X62786961Y-59605475D02*
X62691723Y-59653094D01*
X62691723Y-59653094D02*
X62501247Y-59700713D01*
X62501247Y-59700713D02*
X62358390Y-59700713D01*
X62358390Y-59700713D02*
X62167914Y-59653094D01*
X62167914Y-59653094D02*
X62072676Y-59605475D01*
X62072676Y-59605475D02*
X61977438Y-59510237D01*
X61977438Y-59510237D02*
X61929819Y-59367380D01*
X61929819Y-59367380D02*
X61929819Y-59272142D01*
X61929819Y-59272142D02*
X61977438Y-59129285D01*
X61977438Y-59129285D02*
X62025057Y-59081666D01*
X62263152Y-58224523D02*
X62929819Y-58224523D01*
X61882200Y-58462618D02*
X62596485Y-58700713D01*
X62596485Y-58700713D02*
X62596485Y-58081666D01*
X56374819Y-57766666D02*
X55898628Y-58099999D01*
X56374819Y-58338094D02*
X55374819Y-58338094D01*
X55374819Y-58338094D02*
X55374819Y-57957142D01*
X55374819Y-57957142D02*
X55422438Y-57861904D01*
X55422438Y-57861904D02*
X55470057Y-57814285D01*
X55470057Y-57814285D02*
X55565295Y-57766666D01*
X55565295Y-57766666D02*
X55708152Y-57766666D01*
X55708152Y-57766666D02*
X55803390Y-57814285D01*
X55803390Y-57814285D02*
X55851009Y-57861904D01*
X55851009Y-57861904D02*
X55898628Y-57957142D01*
X55898628Y-57957142D02*
X55898628Y-58338094D01*
X55374819Y-57433332D02*
X55374819Y-56814285D01*
X55374819Y-56814285D02*
X55755771Y-57147618D01*
X55755771Y-57147618D02*
X55755771Y-57004761D01*
X55755771Y-57004761D02*
X55803390Y-56909523D01*
X55803390Y-56909523D02*
X55851009Y-56861904D01*
X55851009Y-56861904D02*
X55946247Y-56814285D01*
X55946247Y-56814285D02*
X56184342Y-56814285D01*
X56184342Y-56814285D02*
X56279580Y-56861904D01*
X56279580Y-56861904D02*
X56327200Y-56909523D01*
X56327200Y-56909523D02*
X56374819Y-57004761D01*
X56374819Y-57004761D02*
X56374819Y-57290475D01*
X56374819Y-57290475D02*
X56327200Y-57385713D01*
X56327200Y-57385713D02*
X56279580Y-57433332D01*
X95343333Y-35384819D02*
X95010000Y-34908628D01*
X94771905Y-35384819D02*
X94771905Y-34384819D01*
X94771905Y-34384819D02*
X95152857Y-34384819D01*
X95152857Y-34384819D02*
X95248095Y-34432438D01*
X95248095Y-34432438D02*
X95295714Y-34480057D01*
X95295714Y-34480057D02*
X95343333Y-34575295D01*
X95343333Y-34575295D02*
X95343333Y-34718152D01*
X95343333Y-34718152D02*
X95295714Y-34813390D01*
X95295714Y-34813390D02*
X95248095Y-34861009D01*
X95248095Y-34861009D02*
X95152857Y-34908628D01*
X95152857Y-34908628D02*
X94771905Y-34908628D01*
X95724286Y-34480057D02*
X95771905Y-34432438D01*
X95771905Y-34432438D02*
X95867143Y-34384819D01*
X95867143Y-34384819D02*
X96105238Y-34384819D01*
X96105238Y-34384819D02*
X96200476Y-34432438D01*
X96200476Y-34432438D02*
X96248095Y-34480057D01*
X96248095Y-34480057D02*
X96295714Y-34575295D01*
X96295714Y-34575295D02*
X96295714Y-34670533D01*
X96295714Y-34670533D02*
X96248095Y-34813390D01*
X96248095Y-34813390D02*
X95676667Y-35384819D01*
X95676667Y-35384819D02*
X96295714Y-35384819D01*
X85669819Y-31808333D02*
X86384104Y-31808333D01*
X86384104Y-31808333D02*
X86526961Y-31855952D01*
X86526961Y-31855952D02*
X86622200Y-31951190D01*
X86622200Y-31951190D02*
X86669819Y-32094047D01*
X86669819Y-32094047D02*
X86669819Y-32189285D01*
X86003152Y-30903571D02*
X86669819Y-30903571D01*
X85622200Y-31141666D02*
X86336485Y-31379761D01*
X86336485Y-31379761D02*
X86336485Y-30760714D01*
X84158333Y-47184819D02*
X83825000Y-46708628D01*
X83586905Y-47184819D02*
X83586905Y-46184819D01*
X83586905Y-46184819D02*
X83967857Y-46184819D01*
X83967857Y-46184819D02*
X84063095Y-46232438D01*
X84063095Y-46232438D02*
X84110714Y-46280057D01*
X84110714Y-46280057D02*
X84158333Y-46375295D01*
X84158333Y-46375295D02*
X84158333Y-46518152D01*
X84158333Y-46518152D02*
X84110714Y-46613390D01*
X84110714Y-46613390D02*
X84063095Y-46661009D01*
X84063095Y-46661009D02*
X83967857Y-46708628D01*
X83967857Y-46708628D02*
X83586905Y-46708628D01*
X85063095Y-46184819D02*
X84586905Y-46184819D01*
X84586905Y-46184819D02*
X84539286Y-46661009D01*
X84539286Y-46661009D02*
X84586905Y-46613390D01*
X84586905Y-46613390D02*
X84682143Y-46565771D01*
X84682143Y-46565771D02*
X84920238Y-46565771D01*
X84920238Y-46565771D02*
X85015476Y-46613390D01*
X85015476Y-46613390D02*
X85063095Y-46661009D01*
X85063095Y-46661009D02*
X85110714Y-46756247D01*
X85110714Y-46756247D02*
X85110714Y-46994342D01*
X85110714Y-46994342D02*
X85063095Y-47089580D01*
X85063095Y-47089580D02*
X85015476Y-47137200D01*
X85015476Y-47137200D02*
X84920238Y-47184819D01*
X84920238Y-47184819D02*
X84682143Y-47184819D01*
X84682143Y-47184819D02*
X84586905Y-47137200D01*
X84586905Y-47137200D02*
X84539286Y-47089580D01*
X83908333Y-65284580D02*
X83860714Y-65332200D01*
X83860714Y-65332200D02*
X83717857Y-65379819D01*
X83717857Y-65379819D02*
X83622619Y-65379819D01*
X83622619Y-65379819D02*
X83479762Y-65332200D01*
X83479762Y-65332200D02*
X83384524Y-65236961D01*
X83384524Y-65236961D02*
X83336905Y-65141723D01*
X83336905Y-65141723D02*
X83289286Y-64951247D01*
X83289286Y-64951247D02*
X83289286Y-64808390D01*
X83289286Y-64808390D02*
X83336905Y-64617914D01*
X83336905Y-64617914D02*
X83384524Y-64522676D01*
X83384524Y-64522676D02*
X83479762Y-64427438D01*
X83479762Y-64427438D02*
X83622619Y-64379819D01*
X83622619Y-64379819D02*
X83717857Y-64379819D01*
X83717857Y-64379819D02*
X83860714Y-64427438D01*
X83860714Y-64427438D02*
X83908333Y-64475057D01*
X84813095Y-64379819D02*
X84336905Y-64379819D01*
X84336905Y-64379819D02*
X84289286Y-64856009D01*
X84289286Y-64856009D02*
X84336905Y-64808390D01*
X84336905Y-64808390D02*
X84432143Y-64760771D01*
X84432143Y-64760771D02*
X84670238Y-64760771D01*
X84670238Y-64760771D02*
X84765476Y-64808390D01*
X84765476Y-64808390D02*
X84813095Y-64856009D01*
X84813095Y-64856009D02*
X84860714Y-64951247D01*
X84860714Y-64951247D02*
X84860714Y-65189342D01*
X84860714Y-65189342D02*
X84813095Y-65284580D01*
X84813095Y-65284580D02*
X84765476Y-65332200D01*
X84765476Y-65332200D02*
X84670238Y-65379819D01*
X84670238Y-65379819D02*
X84432143Y-65379819D01*
X84432143Y-65379819D02*
X84336905Y-65332200D01*
X84336905Y-65332200D02*
X84289286Y-65284580D01*
X78036666Y-31659819D02*
X78036666Y-32374104D01*
X78036666Y-32374104D02*
X77989047Y-32516961D01*
X77989047Y-32516961D02*
X77893809Y-32612200D01*
X77893809Y-32612200D02*
X77750952Y-32659819D01*
X77750952Y-32659819D02*
X77655714Y-32659819D01*
X78417619Y-31659819D02*
X79036666Y-31659819D01*
X79036666Y-31659819D02*
X78703333Y-32040771D01*
X78703333Y-32040771D02*
X78846190Y-32040771D01*
X78846190Y-32040771D02*
X78941428Y-32088390D01*
X78941428Y-32088390D02*
X78989047Y-32136009D01*
X78989047Y-32136009D02*
X79036666Y-32231247D01*
X79036666Y-32231247D02*
X79036666Y-32469342D01*
X79036666Y-32469342D02*
X78989047Y-32564580D01*
X78989047Y-32564580D02*
X78941428Y-32612200D01*
X78941428Y-32612200D02*
X78846190Y-32659819D01*
X78846190Y-32659819D02*
X78560476Y-32659819D01*
X78560476Y-32659819D02*
X78465238Y-32612200D01*
X78465238Y-32612200D02*
X78417619Y-32564580D01*
X85883333Y-35159580D02*
X85835714Y-35207200D01*
X85835714Y-35207200D02*
X85692857Y-35254819D01*
X85692857Y-35254819D02*
X85597619Y-35254819D01*
X85597619Y-35254819D02*
X85454762Y-35207200D01*
X85454762Y-35207200D02*
X85359524Y-35111961D01*
X85359524Y-35111961D02*
X85311905Y-35016723D01*
X85311905Y-35016723D02*
X85264286Y-34826247D01*
X85264286Y-34826247D02*
X85264286Y-34683390D01*
X85264286Y-34683390D02*
X85311905Y-34492914D01*
X85311905Y-34492914D02*
X85359524Y-34397676D01*
X85359524Y-34397676D02*
X85454762Y-34302438D01*
X85454762Y-34302438D02*
X85597619Y-34254819D01*
X85597619Y-34254819D02*
X85692857Y-34254819D01*
X85692857Y-34254819D02*
X85835714Y-34302438D01*
X85835714Y-34302438D02*
X85883333Y-34350057D01*
X86264286Y-34350057D02*
X86311905Y-34302438D01*
X86311905Y-34302438D02*
X86407143Y-34254819D01*
X86407143Y-34254819D02*
X86645238Y-34254819D01*
X86645238Y-34254819D02*
X86740476Y-34302438D01*
X86740476Y-34302438D02*
X86788095Y-34350057D01*
X86788095Y-34350057D02*
X86835714Y-34445295D01*
X86835714Y-34445295D02*
X86835714Y-34540533D01*
X86835714Y-34540533D02*
X86788095Y-34683390D01*
X86788095Y-34683390D02*
X86216667Y-35254819D01*
X86216667Y-35254819D02*
X86835714Y-35254819D01*
X84398333Y-58649819D02*
X84065000Y-58173628D01*
X83826905Y-58649819D02*
X83826905Y-57649819D01*
X83826905Y-57649819D02*
X84207857Y-57649819D01*
X84207857Y-57649819D02*
X84303095Y-57697438D01*
X84303095Y-57697438D02*
X84350714Y-57745057D01*
X84350714Y-57745057D02*
X84398333Y-57840295D01*
X84398333Y-57840295D02*
X84398333Y-57983152D01*
X84398333Y-57983152D02*
X84350714Y-58078390D01*
X84350714Y-58078390D02*
X84303095Y-58126009D01*
X84303095Y-58126009D02*
X84207857Y-58173628D01*
X84207857Y-58173628D02*
X83826905Y-58173628D01*
X84731667Y-57649819D02*
X85398333Y-57649819D01*
X85398333Y-57649819D02*
X84969762Y-58649819D01*
X104191666Y-48649819D02*
X104191666Y-49364104D01*
X104191666Y-49364104D02*
X104144047Y-49506961D01*
X104144047Y-49506961D02*
X104048809Y-49602200D01*
X104048809Y-49602200D02*
X103905952Y-49649819D01*
X103905952Y-49649819D02*
X103810714Y-49649819D01*
X104810714Y-49078390D02*
X104715476Y-49030771D01*
X104715476Y-49030771D02*
X104667857Y-48983152D01*
X104667857Y-48983152D02*
X104620238Y-48887914D01*
X104620238Y-48887914D02*
X104620238Y-48840295D01*
X104620238Y-48840295D02*
X104667857Y-48745057D01*
X104667857Y-48745057D02*
X104715476Y-48697438D01*
X104715476Y-48697438D02*
X104810714Y-48649819D01*
X104810714Y-48649819D02*
X105001190Y-48649819D01*
X105001190Y-48649819D02*
X105096428Y-48697438D01*
X105096428Y-48697438D02*
X105144047Y-48745057D01*
X105144047Y-48745057D02*
X105191666Y-48840295D01*
X105191666Y-48840295D02*
X105191666Y-48887914D01*
X105191666Y-48887914D02*
X105144047Y-48983152D01*
X105144047Y-48983152D02*
X105096428Y-49030771D01*
X105096428Y-49030771D02*
X105001190Y-49078390D01*
X105001190Y-49078390D02*
X104810714Y-49078390D01*
X104810714Y-49078390D02*
X104715476Y-49126009D01*
X104715476Y-49126009D02*
X104667857Y-49173628D01*
X104667857Y-49173628D02*
X104620238Y-49268866D01*
X104620238Y-49268866D02*
X104620238Y-49459342D01*
X104620238Y-49459342D02*
X104667857Y-49554580D01*
X104667857Y-49554580D02*
X104715476Y-49602200D01*
X104715476Y-49602200D02*
X104810714Y-49649819D01*
X104810714Y-49649819D02*
X105001190Y-49649819D01*
X105001190Y-49649819D02*
X105096428Y-49602200D01*
X105096428Y-49602200D02*
X105144047Y-49554580D01*
X105144047Y-49554580D02*
X105191666Y-49459342D01*
X105191666Y-49459342D02*
X105191666Y-49268866D01*
X105191666Y-49268866D02*
X105144047Y-49173628D01*
X105144047Y-49173628D02*
X105096428Y-49126009D01*
X105096428Y-49126009D02*
X105001190Y-49078390D01*
X47066666Y-51854819D02*
X47066666Y-52569104D01*
X47066666Y-52569104D02*
X47019047Y-52711961D01*
X47019047Y-52711961D02*
X46923809Y-52807200D01*
X46923809Y-52807200D02*
X46780952Y-52854819D01*
X46780952Y-52854819D02*
X46685714Y-52854819D01*
X48019047Y-51854819D02*
X47542857Y-51854819D01*
X47542857Y-51854819D02*
X47495238Y-52331009D01*
X47495238Y-52331009D02*
X47542857Y-52283390D01*
X47542857Y-52283390D02*
X47638095Y-52235771D01*
X47638095Y-52235771D02*
X47876190Y-52235771D01*
X47876190Y-52235771D02*
X47971428Y-52283390D01*
X47971428Y-52283390D02*
X48019047Y-52331009D01*
X48019047Y-52331009D02*
X48066666Y-52426247D01*
X48066666Y-52426247D02*
X48066666Y-52664342D01*
X48066666Y-52664342D02*
X48019047Y-52759580D01*
X48019047Y-52759580D02*
X47971428Y-52807200D01*
X47971428Y-52807200D02*
X47876190Y-52854819D01*
X47876190Y-52854819D02*
X47638095Y-52854819D01*
X47638095Y-52854819D02*
X47542857Y-52807200D01*
X47542857Y-52807200D02*
X47495238Y-52759580D01*
D11*
%TO.C,R6*%
X92770000Y-47730000D02*
X99310000Y-47730000D01*
X92770000Y-48060000D02*
X92770000Y-47730000D01*
X92770000Y-50140000D02*
X92770000Y-50470000D01*
X92770000Y-50470000D02*
X99310000Y-50470000D01*
X99310000Y-47730000D02*
X99310000Y-48060000D01*
X99310000Y-50470000D02*
X99310000Y-50140000D01*
%TO.C,C6*%
X93505000Y-61355000D02*
X98745000Y-61355000D01*
X93505000Y-61692000D02*
X93505000Y-61355000D01*
X93505000Y-64095000D02*
X93505000Y-63758000D01*
X98745000Y-61355000D02*
X98745000Y-61692000D01*
X98745000Y-63758000D02*
X98745000Y-64095000D01*
X98745000Y-64095000D02*
X93505000Y-64095000D01*
%TO.C,R4*%
X57930000Y-47595000D02*
X64470000Y-47595000D01*
X57930000Y-47925000D02*
X57930000Y-47595000D01*
X57930000Y-50005000D02*
X57930000Y-50335000D01*
X57930000Y-50335000D02*
X64470000Y-50335000D01*
X64470000Y-47595000D02*
X64470000Y-47925000D01*
X64470000Y-50335000D02*
X64470000Y-50005000D01*
%TO.C,J6*%
X63920000Y-55710000D02*
X65300000Y-55710000D01*
X63920000Y-57090000D02*
X63920000Y-55710000D01*
X63920000Y-58360000D02*
X63920000Y-61010000D01*
X63920000Y-58360000D02*
X66680000Y-58360000D01*
X63920000Y-61010000D02*
X66680000Y-61010000D01*
X66680000Y-58360000D02*
X66680000Y-61010000D01*
%TO.C,R1*%
X53965000Y-35980000D02*
X60505000Y-35980000D01*
X53965000Y-36310000D02*
X53965000Y-35980000D01*
X53965000Y-38390000D02*
X53965000Y-38720000D01*
X53965000Y-38720000D02*
X60505000Y-38720000D01*
X60505000Y-35980000D02*
X60505000Y-36310000D01*
X60505000Y-38720000D02*
X60505000Y-38390000D01*
%TO.C,C1*%
X64655000Y-35780000D02*
X69895000Y-35780000D01*
X64655000Y-36117000D02*
X64655000Y-35780000D01*
X64655000Y-38520000D02*
X64655000Y-38183000D01*
X69895000Y-35780000D02*
X69895000Y-36117000D01*
X69895000Y-38183000D02*
X69895000Y-38520000D01*
X69895000Y-38520000D02*
X64655000Y-38520000D01*
%TO.C,J2*%
X59220000Y-32005000D02*
X59220000Y-30625000D01*
X60600000Y-32005000D02*
X59220000Y-32005000D01*
X61870000Y-29245000D02*
X64520000Y-29245000D01*
X61870000Y-32005000D02*
X61870000Y-29245000D01*
X61870000Y-32005000D02*
X64520000Y-32005000D01*
X64520000Y-32005000D02*
X64520000Y-29245000D01*
%TO.C,J7*%
X74270000Y-47970000D02*
X75650000Y-47970000D01*
X74270000Y-49350000D02*
X74270000Y-47970000D01*
X74270000Y-50620000D02*
X74270000Y-53270000D01*
X74270000Y-50620000D02*
X77030000Y-50620000D01*
X74270000Y-53270000D02*
X77030000Y-53270000D01*
X77030000Y-50620000D02*
X77030000Y-53270000D01*
%TO.C,J1*%
X46545000Y-33545000D02*
X47925000Y-33545000D01*
X46545000Y-34925000D02*
X46545000Y-33545000D01*
X46545000Y-36195000D02*
X46545000Y-38845000D01*
X46545000Y-36195000D02*
X49305000Y-36195000D01*
X46545000Y-38845000D02*
X49305000Y-38845000D01*
X49305000Y-36195000D02*
X49305000Y-38845000D01*
%TO.C,C3*%
X48355000Y-47545000D02*
X53595000Y-47545000D01*
X48355000Y-47882000D02*
X48355000Y-47545000D01*
X48355000Y-50285000D02*
X48355000Y-49948000D01*
X53595000Y-47545000D02*
X53595000Y-47882000D01*
X53595000Y-49948000D02*
X53595000Y-50285000D01*
X53595000Y-50285000D02*
X48355000Y-50285000D01*
%TO.C,C7*%
X93580000Y-54380000D02*
X98820000Y-54380000D01*
X93580000Y-54717000D02*
X93580000Y-54380000D01*
X93580000Y-57120000D02*
X93580000Y-56783000D01*
X98820000Y-54380000D02*
X98820000Y-54717000D01*
X98820000Y-56783000D02*
X98820000Y-57120000D01*
X98820000Y-57120000D02*
X93580000Y-57120000D01*
%TO.C,C4*%
X58605000Y-56295000D02*
X58942000Y-56295000D01*
X58605000Y-61535000D02*
X58605000Y-56295000D01*
X58942000Y-61535000D02*
X58605000Y-61535000D01*
X61008000Y-56295000D02*
X61345000Y-56295000D01*
X61345000Y-56295000D02*
X61345000Y-61535000D01*
X61345000Y-61535000D02*
X61008000Y-61535000D01*
%TO.C,R3*%
X52180000Y-54330000D02*
X52180000Y-60870000D01*
X52180000Y-60870000D02*
X52510000Y-60870000D01*
X52510000Y-54330000D02*
X52180000Y-54330000D01*
X54590000Y-54330000D02*
X54920000Y-54330000D01*
X54920000Y-54330000D02*
X54920000Y-60870000D01*
X54920000Y-60870000D02*
X54590000Y-60870000D01*
%TO.C,R2*%
X92240000Y-35930000D02*
X98780000Y-35930000D01*
X92240000Y-36260000D02*
X92240000Y-35930000D01*
X92240000Y-38340000D02*
X92240000Y-38670000D01*
X92240000Y-38670000D02*
X98780000Y-38670000D01*
X98780000Y-35930000D02*
X98780000Y-36260000D01*
X98780000Y-38670000D02*
X98780000Y-38340000D01*
%TO.C,J4*%
X87215000Y-32855000D02*
X87215000Y-31475000D01*
X88595000Y-32855000D02*
X87215000Y-32855000D01*
X89865000Y-30095000D02*
X92515000Y-30095000D01*
X89865000Y-32855000D02*
X89865000Y-30095000D01*
X89865000Y-32855000D02*
X92515000Y-32855000D01*
X92515000Y-32855000D02*
X92515000Y-30095000D01*
%TO.C,R5*%
X81055000Y-47730000D02*
X87595000Y-47730000D01*
X81055000Y-48060000D02*
X81055000Y-47730000D01*
X81055000Y-50140000D02*
X81055000Y-50470000D01*
X81055000Y-50470000D02*
X87595000Y-50470000D01*
X87595000Y-47730000D02*
X87595000Y-48060000D01*
X87595000Y-50470000D02*
X87595000Y-50140000D01*
%TO.C,C5*%
X81380000Y-61355000D02*
X86620000Y-61355000D01*
X81380000Y-61692000D02*
X81380000Y-61355000D01*
X81380000Y-64095000D02*
X81380000Y-63758000D01*
X86620000Y-61355000D02*
X86620000Y-61692000D01*
X86620000Y-63758000D02*
X86620000Y-64095000D01*
X86620000Y-64095000D02*
X81380000Y-64095000D01*
%TO.C,J3*%
X76990000Y-33205000D02*
X78370000Y-33205000D01*
X76990000Y-34585000D02*
X76990000Y-33205000D01*
X76990000Y-35855000D02*
X76990000Y-38505000D01*
X76990000Y-35855000D02*
X79750000Y-35855000D01*
X76990000Y-38505000D02*
X79750000Y-38505000D01*
X79750000Y-35855000D02*
X79750000Y-38505000D01*
%TO.C,C2*%
X83430000Y-35930000D02*
X88670000Y-35930000D01*
X83430000Y-36267000D02*
X83430000Y-35930000D01*
X83430000Y-38670000D02*
X83430000Y-38333000D01*
X88670000Y-35930000D02*
X88670000Y-36267000D01*
X88670000Y-38333000D02*
X88670000Y-38670000D01*
X88670000Y-38670000D02*
X83430000Y-38670000D01*
%TO.C,R7*%
X81295000Y-54455000D02*
X81295000Y-54785000D01*
X81295000Y-57195000D02*
X81295000Y-56865000D01*
X87835000Y-54455000D02*
X81295000Y-54455000D01*
X87835000Y-54785000D02*
X87835000Y-54455000D01*
X87835000Y-56865000D02*
X87835000Y-57195000D01*
X87835000Y-57195000D02*
X81295000Y-57195000D01*
%TO.C,J8*%
X103145000Y-50195000D02*
X104525000Y-50195000D01*
X103145000Y-51575000D02*
X103145000Y-50195000D01*
X103145000Y-52845000D02*
X103145000Y-55495000D01*
X103145000Y-52845000D02*
X105905000Y-52845000D01*
X103145000Y-55495000D02*
X105905000Y-55495000D01*
X105905000Y-52845000D02*
X105905000Y-55495000D01*
%TO.C,J5*%
X47020000Y-53485000D02*
X48400000Y-53485000D01*
X47020000Y-54865000D02*
X47020000Y-53485000D01*
X47020000Y-56135000D02*
X47020000Y-58785000D01*
X47020000Y-56135000D02*
X49780000Y-56135000D01*
X47020000Y-58785000D02*
X49780000Y-58785000D01*
X49780000Y-56135000D02*
X49780000Y-58785000D01*
%TD*%
M02*
