%TF.GenerationSoftware,KiCad,Pcbnew,9.0.3*%
%TF.CreationDate,2026-07-21T20:10:53+05:30*%
%TF.ProjectId,07_RC_Filter_Demonstration_Board,30375f52-435f-4466-996c-7465725f4465,rev?*%
%TF.SameCoordinates,Original*%
%TF.FileFunction,Copper,L2,Bot*%
%TF.FilePolarity,Positive*%
%FSLAX46Y46*%
G04 Gerber Fmt 4.6, Leading zero omitted, Abs format (unit mm)*
G04 Created by KiCad (PCBNEW 9.0.3) date 2026-07-21 20:10:53*
%MOMM*%
%LPD*%
G01*
G04 APERTURE LIST*
%TA.AperFunction,NonConductor*%
%ADD10C,0.200000*%
%TD*%
%TA.AperFunction,ComponentPad*%
%ADD11C,1.600000*%
%TD*%
%TA.AperFunction,ComponentPad*%
%ADD12R,1.700000X1.700000*%
%TD*%
%TA.AperFunction,ComponentPad*%
%ADD13C,1.700000*%
%TD*%
%TA.AperFunction,Conductor*%
%ADD14C,0.200000*%
%TD*%
G04 APERTURE END LIST*
D10*
X41500000Y-24500000D02*
X111000000Y-24500000D01*
X111000000Y-70000000D01*
X41500000Y-70000000D01*
X41500000Y-24500000D01*
D11*
%TO.P,R6,1*%
%TO.N,Net-(C7-Pad1)*%
X92230000Y-49100000D03*
%TO.P,R6,2*%
%TO.N,/BS_OUT*%
X99850000Y-49100000D03*
%TD*%
%TO.P,C6,1*%
%TO.N,Net-(C5-Pad2)*%
X93625000Y-62725000D03*
%TO.P,C6,2*%
%TO.N,/BS_OUT*%
X98625000Y-62725000D03*
%TD*%
%TO.P,R4,1*%
%TO.N,Net-(C3-Pad2)*%
X57390000Y-48965000D03*
%TO.P,R4,2*%
%TO.N,/BP_OUT*%
X65010000Y-48965000D03*
%TD*%
D12*
%TO.P,J6,1,Pin_1*%
%TO.N,/BP_OUT*%
X65300000Y-57090000D03*
D13*
%TO.P,J6,2,Pin_2*%
%TO.N,GND*%
X65300000Y-59630000D03*
%TD*%
D11*
%TO.P,R1,1*%
%TO.N,/LP_IN*%
X53425000Y-37350000D03*
%TO.P,R1,2*%
%TO.N,/LP_OUT*%
X61045000Y-37350000D03*
%TD*%
%TO.P,C1,1*%
%TO.N,/LP_OUT*%
X64775000Y-37150000D03*
%TO.P,C1,2*%
%TO.N,GND*%
X69775000Y-37150000D03*
%TD*%
D12*
%TO.P,J2,1,Pin_1*%
%TO.N,/LP_OUT*%
X60600000Y-30625000D03*
D13*
%TO.P,J2,2,Pin_2*%
%TO.N,GND*%
X63140000Y-30625000D03*
%TD*%
D12*
%TO.P,J7,1,Pin_1*%
%TO.N,/BS_IN*%
X75650000Y-49350000D03*
D13*
%TO.P,J7,2,Pin_2*%
%TO.N,GND*%
X75650000Y-51890000D03*
%TD*%
D12*
%TO.P,J1,1,Pin_1*%
%TO.N,/LP_IN*%
X47925000Y-34925000D03*
D13*
%TO.P,J1,2,Pin_2*%
%TO.N,GND*%
X47925000Y-37465000D03*
%TD*%
D11*
%TO.P,C3,1*%
%TO.N,/BP_IN*%
X48475000Y-48915000D03*
%TO.P,C3,2*%
%TO.N,Net-(C3-Pad2)*%
X53475000Y-48915000D03*
%TD*%
%TO.P,C7,1*%
%TO.N,Net-(C7-Pad1)*%
X93700000Y-55750000D03*
%TO.P,C7,2*%
%TO.N,GND*%
X98700000Y-55750000D03*
%TD*%
%TO.P,C4,1*%
%TO.N,/BP_OUT*%
X59975000Y-56415000D03*
%TO.P,C4,2*%
%TO.N,GND*%
X59975000Y-61415000D03*
%TD*%
%TO.P,R3,1*%
%TO.N,Net-(C3-Pad2)*%
X53550000Y-53790000D03*
%TO.P,R3,2*%
%TO.N,GND*%
X53550000Y-61410000D03*
%TD*%
%TO.P,R2,1*%
%TO.N,/HP_OUT*%
X91700000Y-37300000D03*
%TO.P,R2,2*%
%TO.N,GND*%
X99320000Y-37300000D03*
%TD*%
D12*
%TO.P,J4,1,Pin_1*%
%TO.N,/HP_OUT*%
X88595000Y-31475000D03*
D13*
%TO.P,J4,2,Pin_2*%
%TO.N,GND*%
X91135000Y-31475000D03*
%TD*%
D11*
%TO.P,R5,1*%
%TO.N,/BS_IN*%
X80515000Y-49100000D03*
%TO.P,R5,2*%
%TO.N,Net-(C7-Pad1)*%
X88135000Y-49100000D03*
%TD*%
%TO.P,C5,1*%
%TO.N,/BS_IN*%
X81500000Y-62725000D03*
%TO.P,C5,2*%
%TO.N,Net-(C5-Pad2)*%
X86500000Y-62725000D03*
%TD*%
D12*
%TO.P,J3,1,Pin_1*%
%TO.N,/HP_IN*%
X78370000Y-34585000D03*
D13*
%TO.P,J3,2,Pin_2*%
%TO.N,GND*%
X78370000Y-37125000D03*
%TD*%
D11*
%TO.P,C2,1*%
%TO.N,/HP_IN*%
X83550000Y-37300000D03*
%TO.P,C2,2*%
%TO.N,/HP_OUT*%
X88550000Y-37300000D03*
%TD*%
%TO.P,R7,1*%
%TO.N,Net-(C5-Pad2)*%
X88375000Y-55825000D03*
%TO.P,R7,2*%
%TO.N,GND*%
X80755000Y-55825000D03*
%TD*%
D12*
%TO.P,J8,1,Pin_1*%
%TO.N,/BS_OUT*%
X104525000Y-51575000D03*
D13*
%TO.P,J8,2,Pin_2*%
%TO.N,GND*%
X104525000Y-54115000D03*
%TD*%
D12*
%TO.P,J5,1,Pin_1*%
%TO.N,/BP_IN*%
X48400000Y-54865000D03*
D13*
%TO.P,J5,2,Pin_2*%
%TO.N,GND*%
X48400000Y-57405000D03*
%TD*%
D14*
%TO.N,/LP_OUT*%
X61045000Y-37350000D02*
X61045000Y-31070000D01*
X61045000Y-31070000D02*
X60600000Y-30625000D01*
X61045000Y-37350000D02*
X64575000Y-37350000D01*
X64575000Y-37350000D02*
X64775000Y-37150000D01*
%TO.N,GND*%
X53550000Y-61410000D02*
X52405000Y-61410000D01*
X78920000Y-39475000D02*
X99070000Y-39475000D01*
X69775000Y-38975000D02*
X69775000Y-37150000D01*
X99320000Y-39225000D02*
X99320000Y-37300000D01*
X78345000Y-37150000D02*
X78370000Y-37125000D01*
X63515000Y-61415000D02*
X59975000Y-61415000D01*
X97870000Y-31475000D02*
X91135000Y-31475000D01*
X47925000Y-37465000D02*
X47925000Y-38625000D01*
X53555000Y-61415000D02*
X53550000Y-61410000D01*
X99320000Y-32925000D02*
X97870000Y-31475000D01*
X70940000Y-51890000D02*
X69775000Y-50725000D01*
X75650000Y-51890000D02*
X70940000Y-51890000D01*
X48700000Y-39400000D02*
X69775000Y-39400000D01*
X99070000Y-39475000D02*
X99320000Y-39225000D01*
X78370000Y-38925000D02*
X78920000Y-39475000D01*
X69775000Y-37150000D02*
X78345000Y-37150000D01*
X65300000Y-59630000D02*
X63515000Y-61415000D01*
X75650000Y-58500000D02*
X74520000Y-59630000D01*
X47925000Y-38625000D02*
X48700000Y-39400000D01*
X59975000Y-61415000D02*
X53555000Y-61415000D01*
X52405000Y-61410000D02*
X48400000Y-57405000D01*
X68925000Y-30625000D02*
X63140000Y-30625000D01*
X78370000Y-37125000D02*
X78370000Y-38925000D01*
X69775000Y-37150000D02*
X69775000Y-31475000D01*
X69775000Y-39400000D02*
X69775000Y-38975000D01*
X75650000Y-51890000D02*
X75650000Y-58500000D01*
X69775000Y-50725000D02*
X69775000Y-38975000D01*
X99320000Y-37300000D02*
X99320000Y-32925000D01*
X74520000Y-59630000D02*
X65300000Y-59630000D01*
X69775000Y-31475000D02*
X68925000Y-30625000D01*
%TO.N,/HP_IN*%
X78370000Y-34585000D02*
X82730000Y-34585000D01*
X83550000Y-35405000D02*
X83550000Y-37300000D01*
X82730000Y-34585000D02*
X83550000Y-35405000D01*
%TO.N,/HP_OUT*%
X91700000Y-37300000D02*
X88550000Y-37300000D01*
X88550000Y-31520000D02*
X88595000Y-31475000D01*
X88550000Y-37300000D02*
X88550000Y-31520000D01*
%TO.N,Net-(C3-Pad2)*%
X53550000Y-53790000D02*
X53550000Y-48990000D01*
X57340000Y-48915000D02*
X57390000Y-48965000D01*
X53550000Y-48990000D02*
X53475000Y-48915000D01*
X53475000Y-48915000D02*
X57340000Y-48915000D01*
%TO.N,/BP_IN*%
X48400000Y-54865000D02*
X48400000Y-48990000D01*
X48400000Y-48990000D02*
X48475000Y-48915000D01*
%TO.N,/BP_OUT*%
X65010000Y-48965000D02*
X65010000Y-56800000D01*
X64625000Y-56415000D02*
X65300000Y-57090000D01*
X59975000Y-56415000D02*
X64625000Y-56415000D01*
X65010000Y-56800000D02*
X65300000Y-57090000D01*
%TO.N,/BS_IN*%
X80500000Y-49085000D02*
X80515000Y-49100000D01*
X79675000Y-62725000D02*
X78875000Y-61925000D01*
X81500000Y-62725000D02*
X79675000Y-62725000D01*
X78875000Y-61925000D02*
X78875000Y-49575000D01*
X79350001Y-49100000D02*
X80515000Y-49100000D01*
X78650000Y-49350000D02*
X75650000Y-49350000D01*
X78875000Y-49575000D02*
X78650000Y-49350000D01*
X78875000Y-49575000D02*
X79350001Y-49100000D01*
%TO.N,Net-(C5-Pad2)*%
X88375000Y-55825000D02*
X88375000Y-60925000D01*
X86500000Y-62725000D02*
X90175000Y-62725000D01*
X90175000Y-62725000D02*
X93625000Y-62725000D01*
X88375000Y-60925000D02*
X90175000Y-62725000D01*
%TO.N,/BS_OUT*%
X103175000Y-51575000D02*
X101575000Y-49975000D01*
X101575000Y-49975000D02*
X100700000Y-49100000D01*
X100700000Y-49100000D02*
X99850000Y-49100000D01*
X98625000Y-62725000D02*
X100675000Y-62725000D01*
X104525000Y-51575000D02*
X103175000Y-51575000D01*
X101575000Y-61825000D02*
X101575000Y-49975000D01*
X100675000Y-62725000D02*
X101575000Y-61825000D01*
%TO.N,Net-(C7-Pad1)*%
X92230000Y-54280000D02*
X93700000Y-55750000D01*
X88135000Y-49100000D02*
X92230000Y-49100000D01*
X92230000Y-49100000D02*
X92230000Y-54280000D01*
%TO.N,/LP_IN*%
X52575000Y-34925000D02*
X53425000Y-35775000D01*
X53425000Y-35775000D02*
X53425000Y-37350000D01*
X47925000Y-34925000D02*
X52575000Y-34925000D01*
%TD*%
%TA.AperFunction,Conductor*%
%TO.N,GND*%
G36*
X108442539Y-27020185D02*
G01*
X108488294Y-27072989D01*
X108499500Y-27124500D01*
X108499500Y-67375500D01*
X108479815Y-67442539D01*
X108427011Y-67488294D01*
X108375500Y-67499500D01*
X44124500Y-67499500D01*
X44057461Y-67479815D01*
X44011706Y-67427011D01*
X44000500Y-67375500D01*
X44000500Y-61307682D01*
X52250000Y-61307682D01*
X52250000Y-61512317D01*
X52282009Y-61714417D01*
X52345244Y-61909031D01*
X52438141Y-62091350D01*
X52438147Y-62091359D01*
X52470523Y-62135921D01*
X52470524Y-62135922D01*
X53150000Y-61456446D01*
X53150000Y-61462661D01*
X53177259Y-61564394D01*
X53229920Y-61655606D01*
X53304394Y-61730080D01*
X53395606Y-61782741D01*
X53497339Y-61810000D01*
X53503553Y-61810000D01*
X52824076Y-62489474D01*
X52868650Y-62521859D01*
X53050968Y-62614755D01*
X53245582Y-62677990D01*
X53447683Y-62710000D01*
X53652317Y-62710000D01*
X53854417Y-62677990D01*
X54049031Y-62614755D01*
X54231349Y-62521859D01*
X54275921Y-62489474D01*
X54275921Y-62489473D01*
X53596447Y-61810000D01*
X53602661Y-61810000D01*
X53704394Y-61782741D01*
X53795606Y-61730080D01*
X53870080Y-61655606D01*
X53922741Y-61564394D01*
X53950000Y-61462661D01*
X53950000Y-61456447D01*
X54629474Y-62135921D01*
X54661859Y-62091349D01*
X54754755Y-61909031D01*
X54817990Y-61714417D01*
X54850000Y-61512317D01*
X54850000Y-61312682D01*
X58675000Y-61312682D01*
X58675000Y-61517317D01*
X58707009Y-61719417D01*
X58770244Y-61914031D01*
X58863141Y-62096350D01*
X58863147Y-62096359D01*
X58895523Y-62140921D01*
X58895524Y-62140922D01*
X59575000Y-61461446D01*
X59575000Y-61467661D01*
X59602259Y-61569394D01*
X59654920Y-61660606D01*
X59729394Y-61735080D01*
X59820606Y-61787741D01*
X59922339Y-61815000D01*
X59928553Y-61815000D01*
X59249076Y-62494474D01*
X59293650Y-62526859D01*
X59475968Y-62619755D01*
X59670582Y-62682990D01*
X59872683Y-62715000D01*
X60077317Y-62715000D01*
X60279417Y-62682990D01*
X60474031Y-62619755D01*
X60656349Y-62526859D01*
X60700921Y-62494474D01*
X60021447Y-61815000D01*
X60027661Y-61815000D01*
X60129394Y-61787741D01*
X60220606Y-61735080D01*
X60295080Y-61660606D01*
X60347741Y-61569394D01*
X60375000Y-61467661D01*
X60375000Y-61461447D01*
X61054474Y-62140921D01*
X61086859Y-62096349D01*
X61179755Y-61914031D01*
X61242990Y-61719417D01*
X61275000Y-61517317D01*
X61275000Y-61312682D01*
X61242990Y-61110582D01*
X61179755Y-60915968D01*
X61097384Y-60754306D01*
X61097383Y-60754304D01*
X61086861Y-60733652D01*
X61054474Y-60689077D01*
X61054474Y-60689076D01*
X60375000Y-61368551D01*
X60375000Y-61362339D01*
X60347741Y-61260606D01*
X60295080Y-61169394D01*
X60220606Y-61094920D01*
X60129394Y-61042259D01*
X60027661Y-61015000D01*
X60021446Y-61015000D01*
X60700922Y-60335524D01*
X60700921Y-60335523D01*
X60656359Y-60303147D01*
X60656350Y-60303141D01*
X60474031Y-60210244D01*
X60279417Y-60147009D01*
X60077317Y-60115000D01*
X59872683Y-60115000D01*
X59670582Y-60147009D01*
X59475968Y-60210244D01*
X59293644Y-60303143D01*
X59249077Y-60335523D01*
X59249077Y-60335524D01*
X59928554Y-61015000D01*
X59922339Y-61015000D01*
X59820606Y-61042259D01*
X59729394Y-61094920D01*
X59654920Y-61169394D01*
X59602259Y-61260606D01*
X59575000Y-61362339D01*
X59575000Y-61368553D01*
X58895524Y-60689077D01*
X58895523Y-60689077D01*
X58863143Y-60733644D01*
X58770244Y-60915968D01*
X58707009Y-61110582D01*
X58675000Y-61312682D01*
X54850000Y-61312682D01*
X54850000Y-61307682D01*
X54817990Y-61105582D01*
X54754755Y-60910968D01*
X54661859Y-60728650D01*
X54629474Y-60684077D01*
X54629474Y-60684076D01*
X53950000Y-61363551D01*
X53950000Y-61357339D01*
X53922741Y-61255606D01*
X53870080Y-61164394D01*
X53795606Y-61089920D01*
X53704394Y-61037259D01*
X53602661Y-61010000D01*
X53596446Y-61010000D01*
X54275922Y-60330524D01*
X54275921Y-60330523D01*
X54231359Y-60298147D01*
X54231350Y-60298141D01*
X54049031Y-60205244D01*
X53854417Y-60142009D01*
X53652317Y-60110000D01*
X53447683Y-60110000D01*
X53245582Y-60142009D01*
X53050968Y-60205244D01*
X52868644Y-60298143D01*
X52824077Y-60330523D01*
X52824077Y-60330524D01*
X53503554Y-61010000D01*
X53497339Y-61010000D01*
X53395606Y-61037259D01*
X53304394Y-61089920D01*
X53229920Y-61164394D01*
X53177259Y-61255606D01*
X53150000Y-61357339D01*
X53150000Y-61363553D01*
X52470524Y-60684077D01*
X52470523Y-60684077D01*
X52438143Y-60728644D01*
X52345244Y-60910968D01*
X52282009Y-61105582D01*
X52250000Y-61307682D01*
X44000500Y-61307682D01*
X44000500Y-53967135D01*
X47049500Y-53967135D01*
X47049500Y-55762870D01*
X47049501Y-55762876D01*
X47055908Y-55822483D01*
X47106202Y-55957328D01*
X47106206Y-55957335D01*
X47192452Y-56072544D01*
X47192455Y-56072547D01*
X47307664Y-56158793D01*
X47307671Y-56158797D01*
X47352618Y-56175561D01*
X47442517Y-56209091D01*
X47502127Y-56215500D01*
X47512685Y-56215499D01*
X47579723Y-56235179D01*
X47600372Y-56251818D01*
X48270591Y-56922037D01*
X48207007Y-56939075D01*
X48092993Y-57004901D01*
X47999901Y-57097993D01*
X47934075Y-57212007D01*
X47917037Y-57275591D01*
X47284728Y-56643282D01*
X47284727Y-56643282D01*
X47245380Y-56697439D01*
X47148904Y-56886782D01*
X47083242Y-57088869D01*
X47083242Y-57088872D01*
X47050000Y-57298753D01*
X47050000Y-57511246D01*
X47083242Y-57721127D01*
X47083242Y-57721130D01*
X47148904Y-57923217D01*
X47245375Y-58112550D01*
X47284728Y-58166716D01*
X47917037Y-57534408D01*
X47934075Y-57597993D01*
X47999901Y-57712007D01*
X48092993Y-57805099D01*
X48207007Y-57870925D01*
X48270590Y-57887962D01*
X47638282Y-58520269D01*
X47638282Y-58520270D01*
X47692449Y-58559624D01*
X47881782Y-58656095D01*
X48083870Y-58721757D01*
X48293754Y-58755000D01*
X48506246Y-58755000D01*
X48716127Y-58721757D01*
X48716130Y-58721757D01*
X48918217Y-58656095D01*
X49107554Y-58559622D01*
X49161716Y-58520270D01*
X49161717Y-58520270D01*
X48529408Y-57887962D01*
X48592993Y-57870925D01*
X48707007Y-57805099D01*
X48800099Y-57712007D01*
X48865925Y-57597993D01*
X48882962Y-57534408D01*
X49515270Y-58166717D01*
X49515270Y-58166716D01*
X49554622Y-58112554D01*
X49651095Y-57923217D01*
X49716757Y-57721130D01*
X49716757Y-57721127D01*
X49750000Y-57511246D01*
X49750000Y-57298753D01*
X49716757Y-57088872D01*
X49716757Y-57088869D01*
X49651095Y-56886782D01*
X49554624Y-56697449D01*
X49515270Y-56643282D01*
X49515269Y-56643282D01*
X48882962Y-57275590D01*
X48865925Y-57212007D01*
X48800099Y-57097993D01*
X48707007Y-57004901D01*
X48592993Y-56939075D01*
X48529409Y-56922037D01*
X49138797Y-56312648D01*
X58674500Y-56312648D01*
X58674500Y-56517351D01*
X58706522Y-56719534D01*
X58769781Y-56914223D01*
X58807150Y-56987562D01*
X58858770Y-57088872D01*
X58862715Y-57096613D01*
X58983028Y-57262213D01*
X59127786Y-57406971D01*
X59215677Y-57470826D01*
X59293390Y-57527287D01*
X59409607Y-57586503D01*
X59475776Y-57620218D01*
X59475778Y-57620218D01*
X59475781Y-57620220D01*
X59580137Y-57654127D01*
X59670465Y-57683477D01*
X59771557Y-57699488D01*
X59872648Y-57715500D01*
X59872649Y-57715500D01*
X60077351Y-57715500D01*
X60077352Y-57715500D01*
X60279534Y-57683477D01*
X60474219Y-57620220D01*
X60656610Y-57527287D01*
X60749590Y-57459732D01*
X60822213Y-57406971D01*
X60822215Y-57406968D01*
X60822219Y-57406966D01*
X60966966Y-57262219D01*
X60966968Y-57262215D01*
X60966971Y-57262213D01*
X61087284Y-57096614D01*
X61087285Y-57096613D01*
X61087287Y-57096610D01*
X61094117Y-57083204D01*
X61142091Y-57032409D01*
X61204602Y-57015500D01*
X63825500Y-57015500D01*
X63892539Y-57035185D01*
X63938294Y-57087989D01*
X63949500Y-57139500D01*
X63949500Y-57987870D01*
X63949501Y-57987876D01*
X63955908Y-58047483D01*
X64006202Y-58182328D01*
X64006206Y-58182335D01*
X64092452Y-58297544D01*
X64092455Y-58297547D01*
X64207664Y-58383793D01*
X64207671Y-58383797D01*
X64252618Y-58400561D01*
X64342517Y-58434091D01*
X64402127Y-58440500D01*
X64412685Y-58440499D01*
X64479723Y-58460179D01*
X64500372Y-58476818D01*
X65170591Y-59147037D01*
X65107007Y-59164075D01*
X64992993Y-59229901D01*
X64899901Y-59322993D01*
X64834075Y-59437007D01*
X64817037Y-59500591D01*
X64184728Y-58868282D01*
X64184727Y-58868282D01*
X64145380Y-58922439D01*
X64048904Y-59111782D01*
X63983242Y-59313869D01*
X63983242Y-59313872D01*
X63950000Y-59523753D01*
X63950000Y-59736246D01*
X63983242Y-59946127D01*
X63983242Y-59946130D01*
X64048904Y-60148217D01*
X64145375Y-60337550D01*
X64184728Y-60391716D01*
X64817037Y-59759408D01*
X64834075Y-59822993D01*
X64899901Y-59937007D01*
X64992993Y-60030099D01*
X65107007Y-60095925D01*
X65170590Y-60112962D01*
X64538282Y-60745269D01*
X64538282Y-60745270D01*
X64592449Y-60784624D01*
X64781782Y-60881095D01*
X64983870Y-60946757D01*
X65193754Y-60980000D01*
X65406246Y-60980000D01*
X65616127Y-60946757D01*
X65616130Y-60946757D01*
X65818217Y-60881095D01*
X66007554Y-60784622D01*
X66061716Y-60745270D01*
X66061717Y-60745270D01*
X65429408Y-60112962D01*
X65492993Y-60095925D01*
X65607007Y-60030099D01*
X65700099Y-59937007D01*
X65765925Y-59822993D01*
X65782962Y-59759408D01*
X66415270Y-60391717D01*
X66415270Y-60391716D01*
X66454622Y-60337554D01*
X66551095Y-60148217D01*
X66616757Y-59946130D01*
X66616757Y-59946127D01*
X66650000Y-59736246D01*
X66650000Y-59523753D01*
X66616757Y-59313872D01*
X66616757Y-59313869D01*
X66551095Y-59111782D01*
X66454624Y-58922449D01*
X66415270Y-58868282D01*
X66415269Y-58868282D01*
X65782962Y-59500590D01*
X65765925Y-59437007D01*
X65700099Y-59322993D01*
X65607007Y-59229901D01*
X65492993Y-59164075D01*
X65429409Y-59147037D01*
X66099627Y-58476818D01*
X66160950Y-58443333D01*
X66187307Y-58440499D01*
X66197872Y-58440499D01*
X66257483Y-58434091D01*
X66392331Y-58383796D01*
X66507546Y-58297546D01*
X66593796Y-58182331D01*
X66644091Y-58047483D01*
X66650500Y-57987873D01*
X66650499Y-56192128D01*
X66644091Y-56132517D01*
X66642978Y-56129534D01*
X66593797Y-55997671D01*
X66593793Y-55997664D01*
X66507547Y-55882455D01*
X66507544Y-55882452D01*
X66392335Y-55796206D01*
X66392328Y-55796202D01*
X66257482Y-55745908D01*
X66257483Y-55745908D01*
X66197883Y-55739501D01*
X66197881Y-55739500D01*
X66197873Y-55739500D01*
X66197865Y-55739500D01*
X65734500Y-55739500D01*
X65667461Y-55719815D01*
X65621706Y-55667011D01*
X65610500Y-55615500D01*
X65610500Y-50194601D01*
X65630185Y-50127562D01*
X65678206Y-50084116D01*
X65691610Y-50077287D01*
X65857219Y-49956966D01*
X66001966Y-49812219D01*
X66001968Y-49812215D01*
X66001971Y-49812213D01*
X66083134Y-49700500D01*
X66122287Y-49646610D01*
X66215220Y-49464219D01*
X66278477Y-49269534D01*
X66310500Y-49067352D01*
X66310500Y-48862648D01*
X66278477Y-48660466D01*
X66278476Y-48660462D01*
X66278476Y-48660461D01*
X66222155Y-48487124D01*
X66222154Y-48487122D01*
X66215220Y-48465780D01*
X66208267Y-48452135D01*
X74299500Y-48452135D01*
X74299500Y-50247870D01*
X74299501Y-50247876D01*
X74305908Y-50307483D01*
X74356202Y-50442328D01*
X74356206Y-50442335D01*
X74442452Y-50557544D01*
X74442455Y-50557547D01*
X74557664Y-50643793D01*
X74557671Y-50643797D01*
X74602618Y-50660561D01*
X74692517Y-50694091D01*
X74752127Y-50700500D01*
X74762685Y-50700499D01*
X74829723Y-50720179D01*
X74850372Y-50736818D01*
X75520591Y-51407037D01*
X75457007Y-51424075D01*
X75342993Y-51489901D01*
X75249901Y-51582993D01*
X75184075Y-51697007D01*
X75167037Y-51760591D01*
X74534728Y-51128282D01*
X74534727Y-51128282D01*
X74495380Y-51182439D01*
X74398904Y-51371782D01*
X74333242Y-51573869D01*
X74333242Y-51573872D01*
X74300000Y-51783753D01*
X74300000Y-51996246D01*
X74333242Y-52206127D01*
X74333242Y-52206130D01*
X74398904Y-52408217D01*
X74495375Y-52597550D01*
X74534728Y-52651716D01*
X75167037Y-52019408D01*
X75184075Y-52082993D01*
X75249901Y-52197007D01*
X75342993Y-52290099D01*
X75457007Y-52355925D01*
X75520590Y-52372962D01*
X74888282Y-53005269D01*
X74888282Y-53005270D01*
X74942449Y-53044624D01*
X75131782Y-53141095D01*
X75333870Y-53206757D01*
X75543754Y-53240000D01*
X75756246Y-53240000D01*
X75966127Y-53206757D01*
X75966130Y-53206757D01*
X76168217Y-53141095D01*
X76357554Y-53044622D01*
X76411716Y-53005270D01*
X76411717Y-53005270D01*
X75779408Y-52372962D01*
X75842993Y-52355925D01*
X75957007Y-52290099D01*
X76050099Y-52197007D01*
X76115925Y-52082993D01*
X76132962Y-52019408D01*
X76765270Y-52651717D01*
X76765270Y-52651716D01*
X76804622Y-52597554D01*
X76901095Y-52408217D01*
X76966757Y-52206130D01*
X76966757Y-52206127D01*
X77000000Y-51996246D01*
X77000000Y-51783753D01*
X76966757Y-51573872D01*
X76966757Y-51573869D01*
X76901095Y-51371782D01*
X76804624Y-51182449D01*
X76765270Y-51128282D01*
X76765269Y-51128282D01*
X76132962Y-51760590D01*
X76115925Y-51697007D01*
X76050099Y-51582993D01*
X75957007Y-51489901D01*
X75842993Y-51424075D01*
X75779409Y-51407037D01*
X76449627Y-50736818D01*
X76510950Y-50703333D01*
X76537307Y-50700499D01*
X76547872Y-50700499D01*
X76607483Y-50694091D01*
X76742331Y-50643796D01*
X76857546Y-50557546D01*
X76943796Y-50442331D01*
X76994091Y-50307483D01*
X77000500Y-50247873D01*
X77000500Y-50074500D01*
X77020185Y-50007461D01*
X77072989Y-49961706D01*
X77124500Y-49950500D01*
X78150500Y-49950500D01*
X78217539Y-49970185D01*
X78263294Y-50022989D01*
X78274500Y-50074500D01*
X78274500Y-61838330D01*
X78274499Y-61838348D01*
X78274499Y-62004054D01*
X78274498Y-62004054D01*
X78315423Y-62156785D01*
X78344358Y-62206900D01*
X78344359Y-62206904D01*
X78344360Y-62206904D01*
X78394479Y-62293714D01*
X78394481Y-62293717D01*
X78513349Y-62412585D01*
X78513355Y-62412590D01*
X79190139Y-63089374D01*
X79190149Y-63089385D01*
X79194479Y-63093715D01*
X79194480Y-63093716D01*
X79306284Y-63205520D01*
X79393095Y-63255639D01*
X79393097Y-63255641D01*
X79431151Y-63277611D01*
X79443215Y-63284577D01*
X79595943Y-63325501D01*
X79595946Y-63325501D01*
X79761653Y-63325501D01*
X79761669Y-63325500D01*
X80270398Y-63325500D01*
X80337437Y-63345185D01*
X80380883Y-63393205D01*
X80387715Y-63406614D01*
X80508028Y-63572213D01*
X80652786Y-63716971D01*
X80807749Y-63829556D01*
X80818390Y-63837287D01*
X80934607Y-63896503D01*
X81000776Y-63930218D01*
X81000778Y-63930218D01*
X81000781Y-63930220D01*
X81105137Y-63964127D01*
X81195465Y-63993477D01*
X81296557Y-64009488D01*
X81397648Y-64025500D01*
X81397649Y-64025500D01*
X81602351Y-64025500D01*
X81602352Y-64025500D01*
X81804534Y-63993477D01*
X81999219Y-63930220D01*
X82181610Y-63837287D01*
X82274590Y-63769732D01*
X82347213Y-63716971D01*
X82347215Y-63716968D01*
X82347219Y-63716966D01*
X82491966Y-63572219D01*
X82491968Y-63572215D01*
X82491971Y-63572213D01*
X82544732Y-63499590D01*
X82612287Y-63406610D01*
X82705220Y-63224219D01*
X82768477Y-63029534D01*
X82800500Y-62827352D01*
X82800500Y-62622648D01*
X85199500Y-62622648D01*
X85199500Y-62827351D01*
X85231522Y-63029534D01*
X85294781Y-63224223D01*
X85387715Y-63406613D01*
X85508028Y-63572213D01*
X85652786Y-63716971D01*
X85807749Y-63829556D01*
X85818390Y-63837287D01*
X85934607Y-63896503D01*
X86000776Y-63930218D01*
X86000778Y-63930218D01*
X86000781Y-63930220D01*
X86105137Y-63964127D01*
X86195465Y-63993477D01*
X86296557Y-64009488D01*
X86397648Y-64025500D01*
X86397649Y-64025500D01*
X86602351Y-64025500D01*
X86602352Y-64025500D01*
X86804534Y-63993477D01*
X86999219Y-63930220D01*
X87181610Y-63837287D01*
X87274590Y-63769732D01*
X87347213Y-63716971D01*
X87347215Y-63716968D01*
X87347219Y-63716966D01*
X87491966Y-63572219D01*
X87491968Y-63572215D01*
X87491971Y-63572213D01*
X87612284Y-63406614D01*
X87612285Y-63406613D01*
X87612287Y-63406610D01*
X87619117Y-63393204D01*
X87667091Y-63342409D01*
X87729602Y-63325500D01*
X90095942Y-63325500D01*
X90095943Y-63325500D01*
X92395398Y-63325500D01*
X92462437Y-63345185D01*
X92505883Y-63393205D01*
X92512715Y-63406614D01*
X92633028Y-63572213D01*
X92777786Y-63716971D01*
X92932749Y-63829556D01*
X92943390Y-63837287D01*
X93059607Y-63896503D01*
X93125776Y-63930218D01*
X93125778Y-63930218D01*
X93125781Y-63930220D01*
X93230137Y-63964127D01*
X93320465Y-63993477D01*
X93421557Y-64009488D01*
X93522648Y-64025500D01*
X93522649Y-64025500D01*
X93727351Y-64025500D01*
X93727352Y-64025500D01*
X93929534Y-63993477D01*
X94124219Y-63930220D01*
X94306610Y-63837287D01*
X94399590Y-63769732D01*
X94472213Y-63716971D01*
X94472215Y-63716968D01*
X94472219Y-63716966D01*
X94616966Y-63572219D01*
X94616968Y-63572215D01*
X94616971Y-63572213D01*
X94669732Y-63499590D01*
X94737287Y-63406610D01*
X94830220Y-63224219D01*
X94893477Y-63029534D01*
X94925500Y-62827352D01*
X94925500Y-62622648D01*
X97324500Y-62622648D01*
X97324500Y-62827351D01*
X97356522Y-63029534D01*
X97419781Y-63224223D01*
X97512715Y-63406613D01*
X97633028Y-63572213D01*
X97777786Y-63716971D01*
X97932749Y-63829556D01*
X97943390Y-63837287D01*
X98059607Y-63896503D01*
X98125776Y-63930218D01*
X98125778Y-63930218D01*
X98125781Y-63930220D01*
X98230137Y-63964127D01*
X98320465Y-63993477D01*
X98421557Y-64009488D01*
X98522648Y-64025500D01*
X98522649Y-64025500D01*
X98727351Y-64025500D01*
X98727352Y-64025500D01*
X98929534Y-63993477D01*
X99124219Y-63930220D01*
X99306610Y-63837287D01*
X99399590Y-63769732D01*
X99472213Y-63716971D01*
X99472215Y-63716968D01*
X99472219Y-63716966D01*
X99616966Y-63572219D01*
X99616968Y-63572215D01*
X99616971Y-63572213D01*
X99737284Y-63406614D01*
X99737285Y-63406613D01*
X99737287Y-63406610D01*
X99744117Y-63393204D01*
X99792091Y-63342409D01*
X99854602Y-63325500D01*
X100588331Y-63325500D01*
X100588347Y-63325501D01*
X100595943Y-63325501D01*
X100754054Y-63325501D01*
X100754057Y-63325501D01*
X100906785Y-63284577D01*
X100956904Y-63255639D01*
X101043716Y-63205520D01*
X101155520Y-63093716D01*
X101155520Y-63093714D01*
X101165728Y-63083507D01*
X101165730Y-63083504D01*
X101943713Y-62305521D01*
X101943716Y-62305520D01*
X102055520Y-62193716D01*
X102105639Y-62106904D01*
X102134577Y-62056785D01*
X102175500Y-61904058D01*
X102175500Y-61745943D01*
X102175500Y-51724097D01*
X102195185Y-51657058D01*
X102247989Y-51611303D01*
X102317147Y-51601359D01*
X102380703Y-51630384D01*
X102387176Y-51636411D01*
X102806284Y-52055520D01*
X102806286Y-52055521D01*
X102806290Y-52055524D01*
X102943209Y-52134573D01*
X102943216Y-52134577D01*
X103082598Y-52171925D01*
X103142255Y-52208288D01*
X103172784Y-52271135D01*
X103174501Y-52291698D01*
X103174501Y-52472876D01*
X103180908Y-52532483D01*
X103231202Y-52667328D01*
X103231206Y-52667335D01*
X103317452Y-52782544D01*
X103317455Y-52782547D01*
X103432664Y-52868793D01*
X103432671Y-52868797D01*
X103477618Y-52885561D01*
X103567517Y-52919091D01*
X103627127Y-52925500D01*
X103637685Y-52925499D01*
X103704723Y-52945179D01*
X103725372Y-52961818D01*
X104395591Y-53632037D01*
X104332007Y-53649075D01*
X104217993Y-53714901D01*
X104124901Y-53807993D01*
X104059075Y-53922007D01*
X104042037Y-53985591D01*
X103409728Y-53353282D01*
X103409727Y-53353282D01*
X103370380Y-53407439D01*
X103273904Y-53596782D01*
X103208242Y-53798869D01*
X103208242Y-53798872D01*
X103175000Y-54008753D01*
X103175000Y-54221246D01*
X103208242Y-54431127D01*
X103208242Y-54431130D01*
X103273904Y-54633217D01*
X103370375Y-54822550D01*
X103409728Y-54876716D01*
X104042037Y-54244408D01*
X104059075Y-54307993D01*
X104124901Y-54422007D01*
X104217993Y-54515099D01*
X104332007Y-54580925D01*
X104395590Y-54597962D01*
X103763282Y-55230269D01*
X103763282Y-55230270D01*
X103817449Y-55269624D01*
X104006782Y-55366095D01*
X104208870Y-55431757D01*
X104418754Y-55465000D01*
X104631246Y-55465000D01*
X104841127Y-55431757D01*
X104841130Y-55431757D01*
X105043217Y-55366095D01*
X105232554Y-55269622D01*
X105286716Y-55230270D01*
X105286717Y-55230270D01*
X104654408Y-54597962D01*
X104717993Y-54580925D01*
X104832007Y-54515099D01*
X104925099Y-54422007D01*
X104990925Y-54307993D01*
X105007962Y-54244409D01*
X105640270Y-54876717D01*
X105640270Y-54876716D01*
X105679622Y-54822554D01*
X105776095Y-54633217D01*
X105841757Y-54431130D01*
X105841757Y-54431127D01*
X105875000Y-54221246D01*
X105875000Y-54008753D01*
X105841757Y-53798872D01*
X105841757Y-53798869D01*
X105776095Y-53596782D01*
X105679624Y-53407449D01*
X105640270Y-53353282D01*
X105640269Y-53353282D01*
X105007962Y-53985590D01*
X104990925Y-53922007D01*
X104925099Y-53807993D01*
X104832007Y-53714901D01*
X104717993Y-53649075D01*
X104654409Y-53632037D01*
X105324627Y-52961818D01*
X105385950Y-52928333D01*
X105412307Y-52925499D01*
X105422872Y-52925499D01*
X105482483Y-52919091D01*
X105617331Y-52868796D01*
X105732546Y-52782546D01*
X105818796Y-52667331D01*
X105869091Y-52532483D01*
X105875500Y-52472873D01*
X105875499Y-50677128D01*
X105869091Y-50617517D01*
X105853536Y-50575813D01*
X105818797Y-50482671D01*
X105818793Y-50482664D01*
X105732547Y-50367455D01*
X105732544Y-50367452D01*
X105617335Y-50281206D01*
X105617328Y-50281202D01*
X105482482Y-50230908D01*
X105482483Y-50230908D01*
X105422883Y-50224501D01*
X105422881Y-50224500D01*
X105422873Y-50224500D01*
X105422864Y-50224500D01*
X103627129Y-50224500D01*
X103627123Y-50224501D01*
X103567516Y-50230908D01*
X103432671Y-50281202D01*
X103432664Y-50281206D01*
X103317455Y-50367452D01*
X103317452Y-50367455D01*
X103231206Y-50482664D01*
X103231203Y-50482670D01*
X103217325Y-50519879D01*
X103175453Y-50575813D01*
X103109988Y-50600229D01*
X103041716Y-50585377D01*
X103013462Y-50564226D01*
X102062590Y-49613355D01*
X102055521Y-49606286D01*
X102055520Y-49606284D01*
X101943716Y-49494480D01*
X101943713Y-49494478D01*
X101187590Y-48738355D01*
X101187588Y-48738352D01*
X101074514Y-48625278D01*
X101051710Y-48593892D01*
X101041334Y-48573529D01*
X100962287Y-48418390D01*
X100943489Y-48392516D01*
X100841971Y-48252786D01*
X100697213Y-48108028D01*
X100531613Y-47987715D01*
X100531612Y-47987714D01*
X100531610Y-47987713D01*
X100474653Y-47958691D01*
X100349223Y-47894781D01*
X100154534Y-47831522D01*
X99972650Y-47802715D01*
X99952352Y-47799500D01*
X99747648Y-47799500D01*
X99727362Y-47802713D01*
X99545465Y-47831522D01*
X99350776Y-47894781D01*
X99168386Y-47987715D01*
X99002786Y-48108028D01*
X98858028Y-48252786D01*
X98737715Y-48418386D01*
X98644781Y-48600776D01*
X98581522Y-48795465D01*
X98549500Y-48997648D01*
X98549500Y-49202351D01*
X98581522Y-49404534D01*
X98644781Y-49599223D01*
X98737715Y-49781613D01*
X98858028Y-49947213D01*
X99002786Y-50091971D01*
X99144047Y-50194601D01*
X99168390Y-50212287D01*
X99249499Y-50253614D01*
X99350776Y-50305218D01*
X99350778Y-50305218D01*
X99350781Y-50305220D01*
X99425818Y-50329601D01*
X99545465Y-50368477D01*
X99646557Y-50384488D01*
X99747648Y-50400500D01*
X99747649Y-50400500D01*
X99952351Y-50400500D01*
X99952352Y-50400500D01*
X100154534Y-50368477D01*
X100349219Y-50305220D01*
X100531610Y-50212287D01*
X100695819Y-50092982D01*
X100727931Y-50081524D01*
X100759858Y-50069617D01*
X100760757Y-50069812D01*
X100761625Y-50069503D01*
X100794824Y-50077223D01*
X100828131Y-50084469D01*
X100829099Y-50085194D01*
X100829679Y-50085329D01*
X100856385Y-50105620D01*
X100938181Y-50187416D01*
X100971666Y-50248739D01*
X100974500Y-50275097D01*
X100974500Y-61524903D01*
X100954815Y-61591942D01*
X100938181Y-61612584D01*
X100462584Y-62088181D01*
X100401261Y-62121666D01*
X100374903Y-62124500D01*
X99854602Y-62124500D01*
X99787563Y-62104815D01*
X99744117Y-62056795D01*
X99744112Y-62056785D01*
X99737287Y-62043390D01*
X99737285Y-62043387D01*
X99737284Y-62043385D01*
X99616971Y-61877786D01*
X99472213Y-61733028D01*
X99306613Y-61612715D01*
X99306612Y-61612714D01*
X99306610Y-61612713D01*
X99211779Y-61564394D01*
X99124223Y-61519781D01*
X98929534Y-61456522D01*
X98754995Y-61428878D01*
X98727352Y-61424500D01*
X98522648Y-61424500D01*
X98498329Y-61428351D01*
X98320465Y-61456522D01*
X98125776Y-61519781D01*
X97943386Y-61612715D01*
X97777786Y-61733028D01*
X97633028Y-61877786D01*
X97512715Y-62043386D01*
X97419781Y-62225776D01*
X97356522Y-62420465D01*
X97324500Y-62622648D01*
X94925500Y-62622648D01*
X94893477Y-62420466D01*
X94890916Y-62412585D01*
X94830218Y-62225776D01*
X94786982Y-62140922D01*
X94737287Y-62043390D01*
X94686976Y-61974142D01*
X94616971Y-61877786D01*
X94472213Y-61733028D01*
X94306613Y-61612715D01*
X94306612Y-61612714D01*
X94306610Y-61612713D01*
X94211779Y-61564394D01*
X94124223Y-61519781D01*
X93929534Y-61456522D01*
X93754995Y-61428878D01*
X93727352Y-61424500D01*
X93522648Y-61424500D01*
X93498329Y-61428351D01*
X93320465Y-61456522D01*
X93125776Y-61519781D01*
X92943386Y-61612715D01*
X92777786Y-61733028D01*
X92633028Y-61877786D01*
X92512715Y-62043385D01*
X92508043Y-62052554D01*
X92505889Y-62056784D01*
X92505883Y-62056795D01*
X92457909Y-62107591D01*
X92395398Y-62124500D01*
X90475097Y-62124500D01*
X90408058Y-62104815D01*
X90387416Y-62088181D01*
X89011819Y-60712584D01*
X88978334Y-60651261D01*
X88975500Y-60624903D01*
X88975500Y-57054601D01*
X88995185Y-56987562D01*
X89043206Y-56944116D01*
X89056610Y-56937287D01*
X89222219Y-56816966D01*
X89366966Y-56672219D01*
X89366968Y-56672215D01*
X89366971Y-56672213D01*
X89426551Y-56590207D01*
X89487287Y-56506610D01*
X89580220Y-56324219D01*
X89643477Y-56129534D01*
X89675500Y-55927352D01*
X89675500Y-55722648D01*
X89655378Y-55595606D01*
X89643477Y-55520465D01*
X89588089Y-55350000D01*
X89580220Y-55325781D01*
X89580218Y-55325778D01*
X89580218Y-55325776D01*
X89542101Y-55250968D01*
X89487287Y-55143390D01*
X89467017Y-55115490D01*
X89366971Y-54977786D01*
X89222213Y-54833028D01*
X89056613Y-54712715D01*
X89056612Y-54712714D01*
X89056610Y-54712713D01*
X88973808Y-54670523D01*
X88874223Y-54619781D01*
X88679534Y-54556522D01*
X88504995Y-54528878D01*
X88477352Y-54524500D01*
X88272648Y-54524500D01*
X88248329Y-54528351D01*
X88070465Y-54556522D01*
X87875776Y-54619781D01*
X87693386Y-54712715D01*
X87527786Y-54833028D01*
X87383028Y-54977786D01*
X87262715Y-55143386D01*
X87169781Y-55325776D01*
X87106522Y-55520465D01*
X87074500Y-55722648D01*
X87074500Y-55927351D01*
X87106522Y-56129534D01*
X87169781Y-56324223D01*
X87262715Y-56506613D01*
X87383028Y-56672213D01*
X87383034Y-56672219D01*
X87527781Y-56816966D01*
X87693390Y-56937287D01*
X87706793Y-56944116D01*
X87757589Y-56992088D01*
X87774500Y-57054601D01*
X87774500Y-60838330D01*
X87774499Y-60838348D01*
X87774499Y-61004054D01*
X87774498Y-61004054D01*
X87815423Y-61156785D01*
X87844358Y-61206900D01*
X87844359Y-61206904D01*
X87844360Y-61206904D01*
X87894479Y-61293714D01*
X87894481Y-61293717D01*
X88013349Y-61412585D01*
X88013355Y-61412590D01*
X88513584Y-61912819D01*
X88547069Y-61974142D01*
X88542085Y-62043834D01*
X88500213Y-62099767D01*
X88434749Y-62124184D01*
X88425903Y-62124500D01*
X87729602Y-62124500D01*
X87662563Y-62104815D01*
X87619117Y-62056795D01*
X87619112Y-62056785D01*
X87612287Y-62043390D01*
X87612285Y-62043387D01*
X87612284Y-62043385D01*
X87491971Y-61877786D01*
X87347213Y-61733028D01*
X87181613Y-61612715D01*
X87181612Y-61612714D01*
X87181610Y-61612713D01*
X87086779Y-61564394D01*
X86999223Y-61519781D01*
X86804534Y-61456522D01*
X86629995Y-61428878D01*
X86602352Y-61424500D01*
X86397648Y-61424500D01*
X86373329Y-61428351D01*
X86195465Y-61456522D01*
X86000776Y-61519781D01*
X85818386Y-61612715D01*
X85652786Y-61733028D01*
X85508028Y-61877786D01*
X85387715Y-62043386D01*
X85294781Y-62225776D01*
X85231522Y-62420465D01*
X85199500Y-62622648D01*
X82800500Y-62622648D01*
X82768477Y-62420466D01*
X82765916Y-62412585D01*
X82705218Y-62225776D01*
X82661982Y-62140922D01*
X82612287Y-62043390D01*
X82561976Y-61974142D01*
X82491971Y-61877786D01*
X82347213Y-61733028D01*
X82181613Y-61612715D01*
X82181612Y-61612714D01*
X82181610Y-61612713D01*
X82086779Y-61564394D01*
X81999223Y-61519781D01*
X81804534Y-61456522D01*
X81629995Y-61428878D01*
X81602352Y-61424500D01*
X81397648Y-61424500D01*
X81373329Y-61428351D01*
X81195465Y-61456522D01*
X81000776Y-61519781D01*
X80818386Y-61612715D01*
X80652786Y-61733028D01*
X80508028Y-61877786D01*
X80387715Y-62043385D01*
X80383043Y-62052554D01*
X80380889Y-62056784D01*
X80380883Y-62056795D01*
X80332909Y-62107591D01*
X80270398Y-62124500D01*
X79975097Y-62124500D01*
X79908058Y-62104815D01*
X79887416Y-62088181D01*
X79511819Y-61712584D01*
X79478334Y-61651261D01*
X79475500Y-61624903D01*
X79475500Y-56657246D01*
X79495185Y-56590207D01*
X79547989Y-56544452D01*
X79617147Y-56534508D01*
X79648417Y-56548788D01*
X79675524Y-56550922D01*
X80355000Y-55871446D01*
X80355000Y-55877661D01*
X80382259Y-55979394D01*
X80434920Y-56070606D01*
X80509394Y-56145080D01*
X80600606Y-56197741D01*
X80702339Y-56225000D01*
X80708553Y-56225000D01*
X80029076Y-56904474D01*
X80073650Y-56936859D01*
X80255968Y-57029755D01*
X80450582Y-57092990D01*
X80652683Y-57125000D01*
X80857317Y-57125000D01*
X81059417Y-57092990D01*
X81254031Y-57029755D01*
X81436349Y-56936859D01*
X81480921Y-56904474D01*
X80801447Y-56225000D01*
X80807661Y-56225000D01*
X80909394Y-56197741D01*
X81000606Y-56145080D01*
X81075080Y-56070606D01*
X81127741Y-55979394D01*
X81155000Y-55877661D01*
X81155000Y-55871447D01*
X81834474Y-56550921D01*
X81866859Y-56506349D01*
X81959755Y-56324031D01*
X82022990Y-56129417D01*
X82055000Y-55927317D01*
X82055000Y-55722682D01*
X82022990Y-55520582D01*
X81959755Y-55325968D01*
X81866859Y-55143650D01*
X81834474Y-55099077D01*
X81834474Y-55099076D01*
X81155000Y-55778551D01*
X81155000Y-55772339D01*
X81127741Y-55670606D01*
X81075080Y-55579394D01*
X81000606Y-55504920D01*
X80909394Y-55452259D01*
X80807661Y-55425000D01*
X80801446Y-55425000D01*
X81480922Y-54745524D01*
X81480921Y-54745523D01*
X81436359Y-54713147D01*
X81436350Y-54713141D01*
X81254031Y-54620244D01*
X81059417Y-54557009D01*
X80857317Y-54525000D01*
X80652683Y-54525000D01*
X80450582Y-54557009D01*
X80255968Y-54620244D01*
X80073644Y-54713143D01*
X80029077Y-54745523D01*
X80029077Y-54745524D01*
X80708554Y-55425000D01*
X80702339Y-55425000D01*
X80600606Y-55452259D01*
X80509394Y-55504920D01*
X80434920Y-55579394D01*
X80382259Y-55670606D01*
X80355000Y-55772339D01*
X80355000Y-55778553D01*
X79675524Y-55099077D01*
X79656772Y-55100553D01*
X79651011Y-55105546D01*
X79647388Y-55106066D01*
X79644487Y-55108304D01*
X79613061Y-55111002D01*
X79581853Y-55115490D01*
X79578521Y-55113968D01*
X79574874Y-55114282D01*
X79546983Y-55099565D01*
X79518297Y-55086465D01*
X79516317Y-55083384D01*
X79513079Y-55081676D01*
X79497570Y-55054213D01*
X79480523Y-55027687D01*
X79479816Y-55022775D01*
X79478722Y-55020837D01*
X79475500Y-54992752D01*
X79475500Y-50195629D01*
X79495185Y-50128590D01*
X79547989Y-50082835D01*
X79617147Y-50072891D01*
X79672385Y-50095311D01*
X79833390Y-50212287D01*
X79914499Y-50253614D01*
X80015776Y-50305218D01*
X80015778Y-50305218D01*
X80015781Y-50305220D01*
X80090818Y-50329601D01*
X80210465Y-50368477D01*
X80311557Y-50384488D01*
X80412648Y-50400500D01*
X80412649Y-50400500D01*
X80617351Y-50400500D01*
X80617352Y-50400500D01*
X80819534Y-50368477D01*
X81014219Y-50305220D01*
X81196610Y-50212287D01*
X81289590Y-50144732D01*
X81362213Y-50091971D01*
X81362215Y-50091968D01*
X81362219Y-50091966D01*
X81506966Y-49947219D01*
X81506968Y-49947215D01*
X81506971Y-49947213D01*
X81605048Y-49812219D01*
X81627287Y-49781610D01*
X81720220Y-49599219D01*
X81783477Y-49404534D01*
X81815500Y-49202352D01*
X81815500Y-48997648D01*
X86834500Y-48997648D01*
X86834500Y-49202351D01*
X86866522Y-49404534D01*
X86929781Y-49599223D01*
X87022715Y-49781613D01*
X87143028Y-49947213D01*
X87287786Y-50091971D01*
X87429047Y-50194601D01*
X87453390Y-50212287D01*
X87534499Y-50253614D01*
X87635776Y-50305218D01*
X87635778Y-50305218D01*
X87635781Y-50305220D01*
X87710818Y-50329601D01*
X87830465Y-50368477D01*
X87931557Y-50384488D01*
X88032648Y-50400500D01*
X88032649Y-50400500D01*
X88237351Y-50400500D01*
X88237352Y-50400500D01*
X88439534Y-50368477D01*
X88634219Y-50305220D01*
X88816610Y-50212287D01*
X88909590Y-50144732D01*
X88982213Y-50091971D01*
X88982215Y-50091968D01*
X88982219Y-50091966D01*
X89126966Y-49947219D01*
X89126968Y-49947215D01*
X89126971Y-49947213D01*
X89247284Y-49781614D01*
X89247285Y-49781613D01*
X89247287Y-49781610D01*
X89254117Y-49768204D01*
X89302091Y-49717409D01*
X89364602Y-49700500D01*
X91000398Y-49700500D01*
X91067437Y-49720185D01*
X91110883Y-49768205D01*
X91117715Y-49781614D01*
X91238028Y-49947213D01*
X91238034Y-49947219D01*
X91382781Y-50091966D01*
X91548390Y-50212287D01*
X91561793Y-50219116D01*
X91612589Y-50267088D01*
X91629500Y-50329601D01*
X91629500Y-54193330D01*
X91629499Y-54193348D01*
X91629499Y-54359054D01*
X91629498Y-54359054D01*
X91669851Y-54509653D01*
X91670423Y-54511785D01*
X91689473Y-54544780D01*
X91743129Y-54637715D01*
X91749479Y-54648714D01*
X91749481Y-54648717D01*
X91868349Y-54767585D01*
X91868355Y-54767590D01*
X92405922Y-55305157D01*
X92439407Y-55366480D01*
X92436173Y-55431155D01*
X92431522Y-55445468D01*
X92399500Y-55647648D01*
X92399500Y-55852351D01*
X92431522Y-56054534D01*
X92494781Y-56249223D01*
X92558691Y-56374653D01*
X92587585Y-56431359D01*
X92587715Y-56431613D01*
X92708028Y-56597213D01*
X92852786Y-56741971D01*
X92956010Y-56816966D01*
X93018390Y-56862287D01*
X93101187Y-56904474D01*
X93200776Y-56955218D01*
X93200778Y-56955218D01*
X93200781Y-56955220D01*
X93300319Y-56987562D01*
X93395465Y-57018477D01*
X93466671Y-57029755D01*
X93597648Y-57050500D01*
X93597649Y-57050500D01*
X93802351Y-57050500D01*
X93802352Y-57050500D01*
X94004534Y-57018477D01*
X94199219Y-56955220D01*
X94381610Y-56862287D01*
X94474590Y-56794732D01*
X94547213Y-56741971D01*
X94547215Y-56741968D01*
X94547219Y-56741966D01*
X94691966Y-56597219D01*
X94691968Y-56597215D01*
X94691971Y-56597213D01*
X94749993Y-56517351D01*
X94812287Y-56431610D01*
X94905220Y-56249219D01*
X94968477Y-56054534D01*
X95000500Y-55852352D01*
X95000500Y-55647682D01*
X97400000Y-55647682D01*
X97400000Y-55852317D01*
X97432009Y-56054417D01*
X97495244Y-56249031D01*
X97588141Y-56431350D01*
X97588147Y-56431359D01*
X97620523Y-56475921D01*
X97620524Y-56475922D01*
X98300000Y-55796446D01*
X98300000Y-55802661D01*
X98327259Y-55904394D01*
X98379920Y-55995606D01*
X98454394Y-56070080D01*
X98545606Y-56122741D01*
X98647339Y-56150000D01*
X98653553Y-56150000D01*
X97974076Y-56829474D01*
X98018650Y-56861859D01*
X98200968Y-56954755D01*
X98395582Y-57017990D01*
X98597683Y-57050000D01*
X98802317Y-57050000D01*
X99004417Y-57017990D01*
X99199031Y-56954755D01*
X99381349Y-56861859D01*
X99425921Y-56829474D01*
X98746447Y-56150000D01*
X98752661Y-56150000D01*
X98854394Y-56122741D01*
X98945606Y-56070080D01*
X99020080Y-55995606D01*
X99072741Y-55904394D01*
X99100000Y-55802661D01*
X99100000Y-55796447D01*
X99779474Y-56475921D01*
X99811859Y-56431349D01*
X99904755Y-56249031D01*
X99967990Y-56054417D01*
X100000000Y-55852317D01*
X100000000Y-55647682D01*
X99967990Y-55445582D01*
X99904755Y-55250968D01*
X99811859Y-55068650D01*
X99779474Y-55024077D01*
X99779474Y-55024076D01*
X99100000Y-55703551D01*
X99100000Y-55697339D01*
X99072741Y-55595606D01*
X99020080Y-55504394D01*
X98945606Y-55429920D01*
X98854394Y-55377259D01*
X98752661Y-55350000D01*
X98746446Y-55350000D01*
X99425922Y-54670524D01*
X99425921Y-54670523D01*
X99381359Y-54638147D01*
X99381350Y-54638141D01*
X99199031Y-54545244D01*
X99004417Y-54482009D01*
X98802317Y-54450000D01*
X98597683Y-54450000D01*
X98395582Y-54482009D01*
X98200968Y-54545244D01*
X98018644Y-54638143D01*
X97974077Y-54670523D01*
X97974077Y-54670524D01*
X98653554Y-55350000D01*
X98647339Y-55350000D01*
X98545606Y-55377259D01*
X98454394Y-55429920D01*
X98379920Y-55504394D01*
X98327259Y-55595606D01*
X98300000Y-55697339D01*
X98300000Y-55703553D01*
X97620524Y-55024077D01*
X97620523Y-55024077D01*
X97588143Y-55068644D01*
X97495244Y-55250968D01*
X97432009Y-55445582D01*
X97400000Y-55647682D01*
X95000500Y-55647682D01*
X95000500Y-55647648D01*
X94992257Y-55595606D01*
X94968477Y-55445465D01*
X94911342Y-55269622D01*
X94905220Y-55250781D01*
X94905218Y-55250778D01*
X94905218Y-55250776D01*
X94871503Y-55184607D01*
X94812287Y-55068390D01*
X94780092Y-55024077D01*
X94691971Y-54902786D01*
X94547213Y-54758028D01*
X94381613Y-54637715D01*
X94381612Y-54637714D01*
X94381610Y-54637713D01*
X94324653Y-54608691D01*
X94199223Y-54544781D01*
X94004534Y-54481522D01*
X93829995Y-54453878D01*
X93802352Y-54449500D01*
X93597648Y-54449500D01*
X93559599Y-54455526D01*
X93395468Y-54481522D01*
X93386717Y-54484365D01*
X93381154Y-54486173D01*
X93311313Y-54488167D01*
X93255157Y-54455922D01*
X92866819Y-54067584D01*
X92833334Y-54006261D01*
X92830500Y-53979903D01*
X92830500Y-50329601D01*
X92850185Y-50262562D01*
X92898206Y-50219116D01*
X92911610Y-50212287D01*
X93077219Y-50091966D01*
X93221966Y-49947219D01*
X93221968Y-49947215D01*
X93221971Y-49947213D01*
X93320048Y-49812219D01*
X93342287Y-49781610D01*
X93435220Y-49599219D01*
X93498477Y-49404534D01*
X93530500Y-49202352D01*
X93530500Y-48997648D01*
X93509118Y-48862648D01*
X93498477Y-48795465D01*
X93454613Y-48660466D01*
X93435220Y-48600781D01*
X93435218Y-48600778D01*
X93435218Y-48600776D01*
X93401503Y-48534607D01*
X93342287Y-48418390D01*
X93323489Y-48392516D01*
X93221971Y-48252786D01*
X93077213Y-48108028D01*
X92911613Y-47987715D01*
X92911612Y-47987714D01*
X92911610Y-47987713D01*
X92854653Y-47958691D01*
X92729223Y-47894781D01*
X92534534Y-47831522D01*
X92352650Y-47802715D01*
X92332352Y-47799500D01*
X92127648Y-47799500D01*
X92107362Y-47802713D01*
X91925465Y-47831522D01*
X91730776Y-47894781D01*
X91548386Y-47987715D01*
X91382786Y-48108028D01*
X91238028Y-48252786D01*
X91117715Y-48418385D01*
X91110883Y-48431795D01*
X91062909Y-48482591D01*
X91000398Y-48499500D01*
X89364602Y-48499500D01*
X89297563Y-48479815D01*
X89254117Y-48431795D01*
X89247284Y-48418385D01*
X89126971Y-48252786D01*
X88982213Y-48108028D01*
X88816613Y-47987715D01*
X88816612Y-47987714D01*
X88816610Y-47987713D01*
X88759653Y-47958691D01*
X88634223Y-47894781D01*
X88439534Y-47831522D01*
X88257650Y-47802715D01*
X88237352Y-47799500D01*
X88032648Y-47799500D01*
X88012362Y-47802713D01*
X87830465Y-47831522D01*
X87635776Y-47894781D01*
X87453386Y-47987715D01*
X87287786Y-48108028D01*
X87143028Y-48252786D01*
X87022715Y-48418386D01*
X86929781Y-48600776D01*
X86866522Y-48795465D01*
X86834500Y-48997648D01*
X81815500Y-48997648D01*
X81794118Y-48862648D01*
X81783477Y-48795465D01*
X81739613Y-48660466D01*
X81720220Y-48600781D01*
X81720218Y-48600778D01*
X81720218Y-48600776D01*
X81686503Y-48534607D01*
X81627287Y-48418390D01*
X81608489Y-48392516D01*
X81506971Y-48252786D01*
X81362213Y-48108028D01*
X81196613Y-47987715D01*
X81196612Y-47987714D01*
X81196610Y-47987713D01*
X81139653Y-47958691D01*
X81014223Y-47894781D01*
X80819534Y-47831522D01*
X80637650Y-47802715D01*
X80617352Y-47799500D01*
X80412648Y-47799500D01*
X80392362Y-47802713D01*
X80210465Y-47831522D01*
X80015776Y-47894781D01*
X79833386Y-47987715D01*
X79667786Y-48108028D01*
X79523028Y-48252786D01*
X79402714Y-48418386D01*
X79395882Y-48431796D01*
X79347906Y-48482591D01*
X79285398Y-48499499D01*
X79270944Y-48499499D01*
X79225965Y-48511551D01*
X79125572Y-48538451D01*
X79125573Y-48538452D01*
X79118217Y-48540423D01*
X79118210Y-48540426D01*
X78981291Y-48619475D01*
X78981287Y-48619478D01*
X78876553Y-48724212D01*
X78876456Y-48724308D01*
X78875971Y-48724792D01*
X78875969Y-48724792D01*
X78875882Y-48724880D01*
X78873011Y-48726440D01*
X78869570Y-48730678D01*
X78869563Y-48730684D01*
X78868176Y-48729066D01*
X78845159Y-48741574D01*
X78814613Y-48758213D01*
X78814543Y-48758211D01*
X78814491Y-48758240D01*
X78813882Y-48758195D01*
X78756289Y-48756795D01*
X78729061Y-48749499D01*
X78729057Y-48749499D01*
X78570943Y-48749499D01*
X78563347Y-48749499D01*
X78563331Y-48749500D01*
X77124499Y-48749500D01*
X77057460Y-48729815D01*
X77011705Y-48677011D01*
X77000499Y-48625500D01*
X77000499Y-48452129D01*
X77000498Y-48452123D01*
X77000497Y-48452116D01*
X76994091Y-48392517D01*
X76961841Y-48306051D01*
X76943797Y-48257671D01*
X76943793Y-48257664D01*
X76857547Y-48142455D01*
X76857544Y-48142452D01*
X76742335Y-48056206D01*
X76742328Y-48056202D01*
X76607482Y-48005908D01*
X76607483Y-48005908D01*
X76547883Y-47999501D01*
X76547881Y-47999500D01*
X76547873Y-47999500D01*
X76547864Y-47999500D01*
X74752129Y-47999500D01*
X74752123Y-47999501D01*
X74692516Y-48005908D01*
X74557671Y-48056202D01*
X74557664Y-48056206D01*
X74442455Y-48142452D01*
X74442452Y-48142455D01*
X74356206Y-48257664D01*
X74356202Y-48257671D01*
X74305908Y-48392517D01*
X74299501Y-48452116D01*
X74299501Y-48452123D01*
X74299500Y-48452135D01*
X66208267Y-48452135D01*
X66177890Y-48392517D01*
X66122287Y-48283390D01*
X66100052Y-48252786D01*
X66001971Y-48117786D01*
X65857213Y-47973028D01*
X65691613Y-47852715D01*
X65691612Y-47852714D01*
X65691610Y-47852713D01*
X65593480Y-47802713D01*
X65509223Y-47759781D01*
X65314534Y-47696522D01*
X65139995Y-47668878D01*
X65112352Y-47664500D01*
X64907648Y-47664500D01*
X64883329Y-47668351D01*
X64705465Y-47696522D01*
X64510776Y-47759781D01*
X64328386Y-47852715D01*
X64162786Y-47973028D01*
X64018028Y-48117786D01*
X63897715Y-48283386D01*
X63804781Y-48465776D01*
X63741522Y-48660465D01*
X63709500Y-48862648D01*
X63709500Y-49067351D01*
X63741522Y-49269534D01*
X63804781Y-49464223D01*
X63897715Y-49646613D01*
X64018028Y-49812213D01*
X64018034Y-49812219D01*
X64162781Y-49956966D01*
X64328390Y-50077287D01*
X64341793Y-50084116D01*
X64392589Y-50132088D01*
X64409500Y-50194601D01*
X64409500Y-55634830D01*
X64403503Y-55655250D01*
X64402289Y-55676500D01*
X64393856Y-55688106D01*
X64389815Y-55701869D01*
X64373731Y-55715805D01*
X64361220Y-55733026D01*
X64340718Y-55744411D01*
X64337011Y-55747624D01*
X64330488Y-55750381D01*
X64329600Y-55750726D01*
X64207669Y-55796204D01*
X64202116Y-55800360D01*
X64187501Y-55806051D01*
X64169586Y-55807589D01*
X64142513Y-55814500D01*
X61204602Y-55814500D01*
X61137563Y-55794815D01*
X61094117Y-55746795D01*
X61093665Y-55745908D01*
X61087287Y-55733390D01*
X61087285Y-55733387D01*
X61087284Y-55733385D01*
X60966971Y-55567786D01*
X60822213Y-55423028D01*
X60656613Y-55302715D01*
X60656612Y-55302714D01*
X60656610Y-55302713D01*
X60591665Y-55269622D01*
X60474223Y-55209781D01*
X60279534Y-55146522D01*
X60104995Y-55118878D01*
X60077352Y-55114500D01*
X59872648Y-55114500D01*
X59848329Y-55118351D01*
X59670465Y-55146522D01*
X59475776Y-55209781D01*
X59293386Y-55302715D01*
X59127786Y-55423028D01*
X58983028Y-55567786D01*
X58862715Y-55733386D01*
X58769781Y-55915776D01*
X58706522Y-56110465D01*
X58674500Y-56312648D01*
X49138797Y-56312648D01*
X49199627Y-56251818D01*
X49260950Y-56218333D01*
X49263253Y-56217855D01*
X49275166Y-56215499D01*
X49297872Y-56215499D01*
X49357483Y-56209091D01*
X49492331Y-56158796D01*
X49607546Y-56072546D01*
X49693796Y-55957331D01*
X49744091Y-55822483D01*
X49750500Y-55762873D01*
X49750499Y-53967128D01*
X49744091Y-53907517D01*
X49738434Y-53892351D01*
X49693797Y-53772671D01*
X49693793Y-53772664D01*
X49607547Y-53657455D01*
X49607544Y-53657452D01*
X49492335Y-53571206D01*
X49492328Y-53571202D01*
X49357482Y-53520908D01*
X49357483Y-53520908D01*
X49297883Y-53514501D01*
X49297881Y-53514500D01*
X49297873Y-53514500D01*
X49297865Y-53514500D01*
X49124500Y-53514500D01*
X49057461Y-53494815D01*
X49011706Y-53442011D01*
X49000500Y-53390500D01*
X49000500Y-50182816D01*
X49020185Y-50115777D01*
X49068206Y-50072331D01*
X49073150Y-50069812D01*
X49156610Y-50027287D01*
X49235205Y-49970185D01*
X49322213Y-49906971D01*
X49322215Y-49906968D01*
X49322219Y-49906966D01*
X49466966Y-49762219D01*
X49466968Y-49762215D01*
X49466971Y-49762213D01*
X49550960Y-49646610D01*
X49587287Y-49596610D01*
X49680220Y-49414219D01*
X49743477Y-49219534D01*
X49775500Y-49017352D01*
X49775500Y-48812648D01*
X52174500Y-48812648D01*
X52174500Y-49017351D01*
X52206522Y-49219534D01*
X52269781Y-49414223D01*
X52295256Y-49464219D01*
X52355883Y-49583206D01*
X52362715Y-49596613D01*
X52483028Y-49762213D01*
X52627786Y-49906971D01*
X52793388Y-50027286D01*
X52881794Y-50072331D01*
X52932591Y-50120305D01*
X52949500Y-50182816D01*
X52949500Y-52560397D01*
X52929815Y-52627436D01*
X52881800Y-52670879D01*
X52868389Y-52677712D01*
X52702786Y-52798028D01*
X52558028Y-52942786D01*
X52437715Y-53108386D01*
X52344781Y-53290776D01*
X52281522Y-53485465D01*
X52249500Y-53687648D01*
X52249500Y-53892351D01*
X52281522Y-54094534D01*
X52344781Y-54289223D01*
X52380364Y-54359057D01*
X52426447Y-54449500D01*
X52437715Y-54471613D01*
X52558028Y-54637213D01*
X52702786Y-54781971D01*
X52857749Y-54894556D01*
X52868390Y-54902287D01*
X52984607Y-54961503D01*
X53050776Y-54995218D01*
X53050778Y-54995218D01*
X53050781Y-54995220D01*
X53129622Y-55020837D01*
X53245465Y-55058477D01*
X53346557Y-55074488D01*
X53447648Y-55090500D01*
X53447649Y-55090500D01*
X53652351Y-55090500D01*
X53652352Y-55090500D01*
X53854534Y-55058477D01*
X54049219Y-54995220D01*
X54231610Y-54902287D01*
X54341354Y-54822554D01*
X54397213Y-54781971D01*
X54397215Y-54781968D01*
X54397219Y-54781966D01*
X54541966Y-54637219D01*
X54541968Y-54637215D01*
X54541971Y-54637213D01*
X54594732Y-54564590D01*
X54662287Y-54471610D01*
X54755220Y-54289219D01*
X54818477Y-54094534D01*
X54850500Y-53892352D01*
X54850500Y-53687648D01*
X54832057Y-53571204D01*
X54818477Y-53485465D01*
X54755218Y-53290776D01*
X54721503Y-53224607D01*
X54662287Y-53108390D01*
X54615959Y-53044624D01*
X54541971Y-52942786D01*
X54397213Y-52798028D01*
X54231610Y-52677712D01*
X54218200Y-52670879D01*
X54167406Y-52622903D01*
X54150500Y-52560397D01*
X54150500Y-50094907D01*
X54170185Y-50027868D01*
X54201614Y-49994589D01*
X54322219Y-49906966D01*
X54466966Y-49762219D01*
X54466968Y-49762215D01*
X54466971Y-49762213D01*
X54580258Y-49606284D01*
X54587287Y-49596610D01*
X54594117Y-49583204D01*
X54642091Y-49532409D01*
X54704602Y-49515500D01*
X56134922Y-49515500D01*
X56201961Y-49535185D01*
X56245407Y-49583206D01*
X56277713Y-49646611D01*
X56398028Y-49812213D01*
X56542786Y-49956971D01*
X56670719Y-50049918D01*
X56708390Y-50077287D01*
X56807060Y-50127562D01*
X56890776Y-50170218D01*
X56890778Y-50170218D01*
X56890781Y-50170220D01*
X56943705Y-50187416D01*
X57085465Y-50233477D01*
X57176300Y-50247864D01*
X57287648Y-50265500D01*
X57287649Y-50265500D01*
X57492351Y-50265500D01*
X57492352Y-50265500D01*
X57694534Y-50233477D01*
X57889219Y-50170220D01*
X58071610Y-50077287D01*
X58167718Y-50007461D01*
X58237213Y-49956971D01*
X58237215Y-49956968D01*
X58237219Y-49956966D01*
X58381966Y-49812219D01*
X58381968Y-49812215D01*
X58381971Y-49812213D01*
X58463134Y-49700500D01*
X58502287Y-49646610D01*
X58595220Y-49464219D01*
X58658477Y-49269534D01*
X58690500Y-49067352D01*
X58690500Y-48862648D01*
X58672579Y-48749499D01*
X58658477Y-48660465D01*
X58619473Y-48540423D01*
X58595220Y-48465781D01*
X58595218Y-48465778D01*
X58595218Y-48465776D01*
X58513833Y-48306051D01*
X58502287Y-48283390D01*
X58480052Y-48252786D01*
X58381971Y-48117786D01*
X58237213Y-47973028D01*
X58071613Y-47852715D01*
X58071612Y-47852714D01*
X58071610Y-47852713D01*
X57973480Y-47802713D01*
X57889223Y-47759781D01*
X57694534Y-47696522D01*
X57519995Y-47668878D01*
X57492352Y-47664500D01*
X57287648Y-47664500D01*
X57263329Y-47668351D01*
X57085465Y-47696522D01*
X56890776Y-47759781D01*
X56708386Y-47852715D01*
X56542786Y-47973028D01*
X56398034Y-48117780D01*
X56380108Y-48142454D01*
X56292246Y-48263386D01*
X56236918Y-48306051D01*
X56191929Y-48314500D01*
X54704602Y-48314500D01*
X54637563Y-48294815D01*
X54594117Y-48246795D01*
X54587284Y-48233385D01*
X54466971Y-48067786D01*
X54322213Y-47923028D01*
X54156613Y-47802715D01*
X54156612Y-47802714D01*
X54156610Y-47802713D01*
X54099653Y-47773691D01*
X53974223Y-47709781D01*
X53779534Y-47646522D01*
X53604995Y-47618878D01*
X53577352Y-47614500D01*
X53372648Y-47614500D01*
X53348329Y-47618351D01*
X53170465Y-47646522D01*
X52975776Y-47709781D01*
X52793386Y-47802715D01*
X52627786Y-47923028D01*
X52483028Y-48067786D01*
X52362715Y-48233386D01*
X52269781Y-48415776D01*
X52206522Y-48610465D01*
X52174500Y-48812648D01*
X49775500Y-48812648D01*
X49769589Y-48775325D01*
X49743477Y-48610465D01*
X49696466Y-48465781D01*
X49680220Y-48415781D01*
X49680218Y-48415778D01*
X49680218Y-48415776D01*
X49646503Y-48349607D01*
X49587287Y-48233390D01*
X49579556Y-48222749D01*
X49466971Y-48067786D01*
X49322213Y-47923028D01*
X49156613Y-47802715D01*
X49156612Y-47802714D01*
X49156610Y-47802713D01*
X49099653Y-47773691D01*
X48974223Y-47709781D01*
X48779534Y-47646522D01*
X48604995Y-47618878D01*
X48577352Y-47614500D01*
X48372648Y-47614500D01*
X48348329Y-47618351D01*
X48170465Y-47646522D01*
X47975776Y-47709781D01*
X47793386Y-47802715D01*
X47627786Y-47923028D01*
X47483028Y-48067786D01*
X47362715Y-48233386D01*
X47269781Y-48415776D01*
X47206522Y-48610465D01*
X47174500Y-48812648D01*
X47174500Y-49017351D01*
X47206522Y-49219534D01*
X47269781Y-49414223D01*
X47295256Y-49464219D01*
X47355883Y-49583206D01*
X47362715Y-49596613D01*
X47483028Y-49762213D01*
X47627784Y-49906969D01*
X47703073Y-49961668D01*
X47748384Y-49994589D01*
X47791051Y-50049918D01*
X47799500Y-50094907D01*
X47799500Y-53390500D01*
X47779815Y-53457539D01*
X47727011Y-53503294D01*
X47675501Y-53514500D01*
X47502130Y-53514500D01*
X47502123Y-53514501D01*
X47442516Y-53520908D01*
X47307671Y-53571202D01*
X47307664Y-53571206D01*
X47192455Y-53657452D01*
X47192452Y-53657455D01*
X47106206Y-53772664D01*
X47106202Y-53772671D01*
X47055908Y-53907517D01*
X47049501Y-53967116D01*
X47049501Y-53967123D01*
X47049500Y-53967135D01*
X44000500Y-53967135D01*
X44000500Y-34027135D01*
X46574500Y-34027135D01*
X46574500Y-35822870D01*
X46574501Y-35822876D01*
X46580908Y-35882483D01*
X46631202Y-36017328D01*
X46631206Y-36017335D01*
X46717452Y-36132544D01*
X46717455Y-36132547D01*
X46832664Y-36218793D01*
X46832671Y-36218797D01*
X46865065Y-36230879D01*
X46967517Y-36269091D01*
X47027127Y-36275500D01*
X47037685Y-36275499D01*
X47104723Y-36295179D01*
X47125372Y-36311818D01*
X47795591Y-36982037D01*
X47732007Y-36999075D01*
X47617993Y-37064901D01*
X47524901Y-37157993D01*
X47459075Y-37272007D01*
X47442037Y-37335591D01*
X46809728Y-36703282D01*
X46809727Y-36703282D01*
X46770380Y-36757439D01*
X46673904Y-36946782D01*
X46608242Y-37148869D01*
X46608242Y-37148872D01*
X46575000Y-37358753D01*
X46575000Y-37571246D01*
X46608242Y-37781127D01*
X46608242Y-37781130D01*
X46673904Y-37983217D01*
X46770375Y-38172550D01*
X46809728Y-38226716D01*
X47442037Y-37594408D01*
X47459075Y-37657993D01*
X47524901Y-37772007D01*
X47617993Y-37865099D01*
X47732007Y-37930925D01*
X47795590Y-37947962D01*
X47163282Y-38580269D01*
X47163282Y-38580270D01*
X47217449Y-38619624D01*
X47406782Y-38716095D01*
X47608870Y-38781757D01*
X47818754Y-38815000D01*
X48031246Y-38815000D01*
X48241127Y-38781757D01*
X48241130Y-38781757D01*
X48443217Y-38716095D01*
X48632554Y-38619622D01*
X48686716Y-38580270D01*
X48686717Y-38580270D01*
X48054408Y-37947962D01*
X48117993Y-37930925D01*
X48232007Y-37865099D01*
X48325099Y-37772007D01*
X48390925Y-37657993D01*
X48407962Y-37594409D01*
X49040270Y-38226717D01*
X49040270Y-38226716D01*
X49079622Y-38172554D01*
X49176095Y-37983217D01*
X49241757Y-37781130D01*
X49241757Y-37781127D01*
X49275000Y-37571246D01*
X49275000Y-37358753D01*
X49241757Y-37148872D01*
X49241757Y-37148869D01*
X49176095Y-36946782D01*
X49079624Y-36757449D01*
X49040270Y-36703282D01*
X49040269Y-36703282D01*
X48407962Y-37335590D01*
X48390925Y-37272007D01*
X48325099Y-37157993D01*
X48232007Y-37064901D01*
X48117993Y-36999075D01*
X48054409Y-36982037D01*
X48724627Y-36311818D01*
X48785950Y-36278333D01*
X48812307Y-36275499D01*
X48822872Y-36275499D01*
X48882483Y-36269091D01*
X49017331Y-36218796D01*
X49132546Y-36132546D01*
X49218796Y-36017331D01*
X49269091Y-35882483D01*
X49275500Y-35822873D01*
X49275500Y-35649500D01*
X49295185Y-35582461D01*
X49347989Y-35536706D01*
X49399500Y-35525500D01*
X52274903Y-35525500D01*
X52341942Y-35545185D01*
X52362584Y-35561819D01*
X52788181Y-35987416D01*
X52802884Y-36014343D01*
X52819477Y-36040162D01*
X52820368Y-36046362D01*
X52821666Y-36048739D01*
X52824500Y-36075097D01*
X52824500Y-36120397D01*
X52804815Y-36187436D01*
X52756800Y-36230879D01*
X52743389Y-36237712D01*
X52577786Y-36358028D01*
X52433028Y-36502786D01*
X52312715Y-36668386D01*
X52219781Y-36850776D01*
X52156522Y-37045465D01*
X52139966Y-37149999D01*
X52124500Y-37247648D01*
X52124500Y-37452352D01*
X52127308Y-37470080D01*
X52156522Y-37654534D01*
X52219781Y-37849223D01*
X52255939Y-37920185D01*
X52309814Y-38025921D01*
X52312715Y-38031613D01*
X52433028Y-38197213D01*
X52577786Y-38341971D01*
X52726478Y-38450000D01*
X52743390Y-38462287D01*
X52827647Y-38505218D01*
X52925776Y-38555218D01*
X52925778Y-38555218D01*
X52925781Y-38555220D01*
X53002874Y-38580269D01*
X53120465Y-38618477D01*
X53221557Y-38634488D01*
X53322648Y-38650500D01*
X53322649Y-38650500D01*
X53527351Y-38650500D01*
X53527352Y-38650500D01*
X53729534Y-38618477D01*
X53924219Y-38555220D01*
X54106610Y-38462287D01*
X54199590Y-38394732D01*
X54272213Y-38341971D01*
X54272215Y-38341968D01*
X54272219Y-38341966D01*
X54416966Y-38197219D01*
X54416968Y-38197215D01*
X54416971Y-38197213D01*
X54491570Y-38094534D01*
X54537287Y-38031610D01*
X54630220Y-37849219D01*
X54693477Y-37654534D01*
X54725500Y-37452352D01*
X54725500Y-37247648D01*
X54693477Y-37045466D01*
X54684797Y-37018753D01*
X54630218Y-36850776D01*
X54578869Y-36750000D01*
X54537287Y-36668390D01*
X54524490Y-36650776D01*
X54416971Y-36502786D01*
X54272213Y-36358028D01*
X54106610Y-36237712D01*
X54093200Y-36230879D01*
X54042406Y-36182903D01*
X54025500Y-36120397D01*
X54025500Y-35864060D01*
X54025501Y-35864047D01*
X54025501Y-35695944D01*
X54004459Y-35617416D01*
X53984577Y-35543216D01*
X53984153Y-35542482D01*
X53905524Y-35406290D01*
X53905518Y-35406282D01*
X53062590Y-34563355D01*
X53062588Y-34563352D01*
X52943717Y-34444481D01*
X52943716Y-34444480D01*
X52856904Y-34394360D01*
X52856904Y-34394359D01*
X52856900Y-34394358D01*
X52806785Y-34365423D01*
X52654057Y-34324499D01*
X52495943Y-34324499D01*
X52488347Y-34324499D01*
X52488331Y-34324500D01*
X49399499Y-34324500D01*
X49332460Y-34304815D01*
X49286705Y-34252011D01*
X49275499Y-34200500D01*
X49275499Y-34027129D01*
X49275498Y-34027123D01*
X49275497Y-34027116D01*
X49269091Y-33967517D01*
X49268083Y-33964815D01*
X49218797Y-33832671D01*
X49218793Y-33832664D01*
X49132547Y-33717455D01*
X49132544Y-33717452D01*
X49017335Y-33631206D01*
X49017328Y-33631202D01*
X48882482Y-33580908D01*
X48882483Y-33580908D01*
X48822883Y-33574501D01*
X48822881Y-33574500D01*
X48822873Y-33574500D01*
X48822864Y-33574500D01*
X47027129Y-33574500D01*
X47027123Y-33574501D01*
X46967516Y-33580908D01*
X46832671Y-33631202D01*
X46832664Y-33631206D01*
X46717455Y-33717452D01*
X46717452Y-33717455D01*
X46631206Y-33832664D01*
X46631202Y-33832671D01*
X46580908Y-33967517D01*
X46574683Y-34025423D01*
X46574501Y-34027123D01*
X46574500Y-34027135D01*
X44000500Y-34027135D01*
X44000500Y-29727135D01*
X59249500Y-29727135D01*
X59249500Y-31522870D01*
X59249501Y-31522876D01*
X59255908Y-31582483D01*
X59306202Y-31717328D01*
X59306206Y-31717335D01*
X59392452Y-31832544D01*
X59392455Y-31832547D01*
X59507664Y-31918793D01*
X59507671Y-31918797D01*
X59552618Y-31935561D01*
X59642517Y-31969091D01*
X59702127Y-31975500D01*
X60320500Y-31975499D01*
X60387539Y-31995183D01*
X60433294Y-32047987D01*
X60444500Y-32099499D01*
X60444500Y-36120397D01*
X60424815Y-36187436D01*
X60376800Y-36230879D01*
X60363389Y-36237712D01*
X60197786Y-36358028D01*
X60053028Y-36502786D01*
X59932715Y-36668386D01*
X59839781Y-36850776D01*
X59776522Y-37045465D01*
X59759966Y-37149999D01*
X59744500Y-37247648D01*
X59744500Y-37452352D01*
X59747308Y-37470080D01*
X59776522Y-37654534D01*
X59839781Y-37849223D01*
X59875939Y-37920185D01*
X59929814Y-38025921D01*
X59932715Y-38031613D01*
X60053028Y-38197213D01*
X60197786Y-38341971D01*
X60346478Y-38450000D01*
X60363390Y-38462287D01*
X60447647Y-38505218D01*
X60545776Y-38555218D01*
X60545778Y-38555218D01*
X60545781Y-38555220D01*
X60622874Y-38580269D01*
X60740465Y-38618477D01*
X60841557Y-38634488D01*
X60942648Y-38650500D01*
X60942649Y-38650500D01*
X61147351Y-38650500D01*
X61147352Y-38650500D01*
X61349534Y-38618477D01*
X61544219Y-38555220D01*
X61726610Y-38462287D01*
X61819590Y-38394732D01*
X61892213Y-38341971D01*
X61892215Y-38341968D01*
X61892219Y-38341966D01*
X62036966Y-38197219D01*
X62036968Y-38197215D01*
X62036971Y-38197213D01*
X62157284Y-38031614D01*
X62157285Y-38031613D01*
X62157287Y-38031610D01*
X62164117Y-38018204D01*
X62212091Y-37967409D01*
X62274602Y-37950500D01*
X63685967Y-37950500D01*
X63753006Y-37970185D01*
X63780252Y-37993962D01*
X63783035Y-37997220D01*
X63927786Y-38141971D01*
X64063086Y-38240270D01*
X64093390Y-38262287D01*
X64209607Y-38321503D01*
X64275776Y-38355218D01*
X64275778Y-38355218D01*
X64275781Y-38355220D01*
X64340028Y-38376095D01*
X64470465Y-38418477D01*
X64571557Y-38434488D01*
X64672648Y-38450500D01*
X64672649Y-38450500D01*
X64877351Y-38450500D01*
X64877352Y-38450500D01*
X65079534Y-38418477D01*
X65274219Y-38355220D01*
X65456610Y-38262287D01*
X65580118Y-38172554D01*
X65622213Y-38141971D01*
X65622215Y-38141968D01*
X65622219Y-38141966D01*
X65766966Y-37997219D01*
X65766968Y-37997215D01*
X65766971Y-37997213D01*
X65837236Y-37900500D01*
X65887287Y-37831610D01*
X65980220Y-37649219D01*
X66043477Y-37454534D01*
X66075500Y-37252352D01*
X66075500Y-37047682D01*
X68475000Y-37047682D01*
X68475000Y-37252317D01*
X68507009Y-37454417D01*
X68570244Y-37649031D01*
X68663141Y-37831350D01*
X68663147Y-37831359D01*
X68695523Y-37875921D01*
X68695524Y-37875922D01*
X69375000Y-37196446D01*
X69375000Y-37202661D01*
X69402259Y-37304394D01*
X69454920Y-37395606D01*
X69529394Y-37470080D01*
X69620606Y-37522741D01*
X69722339Y-37550000D01*
X69728553Y-37550000D01*
X69049076Y-38229474D01*
X69093650Y-38261859D01*
X69275968Y-38354755D01*
X69470582Y-38417990D01*
X69672683Y-38450000D01*
X69877317Y-38450000D01*
X70079417Y-38417990D01*
X70274031Y-38354755D01*
X70456349Y-38261859D01*
X70500921Y-38229474D01*
X70500921Y-38229473D01*
X69821447Y-37550000D01*
X69827661Y-37550000D01*
X69929394Y-37522741D01*
X70020606Y-37470080D01*
X70095080Y-37395606D01*
X70147741Y-37304394D01*
X70175000Y-37202661D01*
X70175000Y-37196447D01*
X70854474Y-37875921D01*
X70886859Y-37831349D01*
X70979755Y-37649031D01*
X71042990Y-37454417D01*
X71075000Y-37252317D01*
X71075000Y-37047686D01*
X71072718Y-37033277D01*
X71072718Y-37033274D01*
X71042990Y-36845582D01*
X70979755Y-36650968D01*
X70886859Y-36468650D01*
X70854474Y-36424077D01*
X70854474Y-36424076D01*
X70175000Y-37103551D01*
X70175000Y-37097339D01*
X70147741Y-36995606D01*
X70095080Y-36904394D01*
X70020606Y-36829920D01*
X69929394Y-36777259D01*
X69827661Y-36750000D01*
X69821446Y-36750000D01*
X70500922Y-36070524D01*
X70500921Y-36070523D01*
X70456359Y-36038147D01*
X70456350Y-36038141D01*
X70274031Y-35945244D01*
X70079417Y-35882009D01*
X69877317Y-35850000D01*
X69672683Y-35850000D01*
X69470582Y-35882009D01*
X69275968Y-35945244D01*
X69093644Y-36038143D01*
X69049077Y-36070523D01*
X69049077Y-36070524D01*
X69728554Y-36750000D01*
X69722339Y-36750000D01*
X69620606Y-36777259D01*
X69529394Y-36829920D01*
X69454920Y-36904394D01*
X69402259Y-36995606D01*
X69375000Y-37097339D01*
X69375000Y-37103553D01*
X68695524Y-36424077D01*
X68695523Y-36424077D01*
X68663143Y-36468644D01*
X68570244Y-36650968D01*
X68507009Y-36845582D01*
X68475000Y-37047682D01*
X66075500Y-37047682D01*
X66075500Y-37047648D01*
X66056432Y-36927259D01*
X66043477Y-36845465D01*
X66003196Y-36721495D01*
X65980220Y-36650781D01*
X65980218Y-36650778D01*
X65980218Y-36650776D01*
X65941137Y-36574076D01*
X65887287Y-36468390D01*
X65875950Y-36452786D01*
X65766971Y-36302786D01*
X65622213Y-36158028D01*
X65456613Y-36037715D01*
X65456612Y-36037714D01*
X65456610Y-36037713D01*
X65357897Y-35987416D01*
X65274223Y-35944781D01*
X65079534Y-35881522D01*
X64904995Y-35853878D01*
X64877352Y-35849500D01*
X64672648Y-35849500D01*
X64648329Y-35853351D01*
X64470465Y-35881522D01*
X64275776Y-35944781D01*
X64093386Y-36037715D01*
X63927786Y-36158028D01*
X63783028Y-36302786D01*
X63662715Y-36468386D01*
X63569779Y-36650780D01*
X63565543Y-36663820D01*
X63526105Y-36721495D01*
X63461746Y-36748692D01*
X63447613Y-36749500D01*
X62274602Y-36749500D01*
X62207563Y-36729815D01*
X62164117Y-36681795D01*
X62157284Y-36668385D01*
X62036971Y-36502786D01*
X61892213Y-36358028D01*
X61726610Y-36237712D01*
X61713200Y-36230879D01*
X61662406Y-36182903D01*
X61645500Y-36120397D01*
X61645500Y-33687135D01*
X77019500Y-33687135D01*
X77019500Y-35482870D01*
X77019501Y-35482876D01*
X77025908Y-35542483D01*
X77076202Y-35677328D01*
X77076206Y-35677335D01*
X77162452Y-35792544D01*
X77162455Y-35792547D01*
X77277664Y-35878793D01*
X77277671Y-35878797D01*
X77287554Y-35882483D01*
X77412517Y-35929091D01*
X77472127Y-35935500D01*
X77482685Y-35935499D01*
X77549723Y-35955179D01*
X77570372Y-35971818D01*
X78240591Y-36642037D01*
X78177007Y-36659075D01*
X78062993Y-36724901D01*
X77969901Y-36817993D01*
X77904075Y-36932007D01*
X77887037Y-36995591D01*
X77254728Y-36363282D01*
X77254727Y-36363282D01*
X77215380Y-36417439D01*
X77118904Y-36606782D01*
X77053242Y-36808869D01*
X77053242Y-36808872D01*
X77020000Y-37018753D01*
X77020000Y-37231246D01*
X77053242Y-37441127D01*
X77053242Y-37441130D01*
X77118904Y-37643217D01*
X77215375Y-37832550D01*
X77254728Y-37886716D01*
X77887037Y-37254408D01*
X77904075Y-37317993D01*
X77969901Y-37432007D01*
X78062993Y-37525099D01*
X78177007Y-37590925D01*
X78240590Y-37607962D01*
X77608282Y-38240269D01*
X77608282Y-38240270D01*
X77662449Y-38279624D01*
X77851782Y-38376095D01*
X78053870Y-38441757D01*
X78263754Y-38475000D01*
X78476246Y-38475000D01*
X78686127Y-38441757D01*
X78686130Y-38441757D01*
X78888217Y-38376095D01*
X79077554Y-38279622D01*
X79131716Y-38240270D01*
X79131717Y-38240270D01*
X78499408Y-37607962D01*
X78562993Y-37590925D01*
X78677007Y-37525099D01*
X78770099Y-37432007D01*
X78835925Y-37317993D01*
X78852962Y-37254408D01*
X79485270Y-37886717D01*
X79485270Y-37886716D01*
X79524622Y-37832554D01*
X79621095Y-37643217D01*
X79686757Y-37441130D01*
X79686757Y-37441127D01*
X79720000Y-37231246D01*
X79720000Y-37018753D01*
X79686757Y-36808872D01*
X79686757Y-36808869D01*
X79621095Y-36606782D01*
X79524624Y-36417449D01*
X79485270Y-36363282D01*
X79485269Y-36363282D01*
X78852962Y-36995590D01*
X78835925Y-36932007D01*
X78770099Y-36817993D01*
X78677007Y-36724901D01*
X78562993Y-36659075D01*
X78499409Y-36642037D01*
X79169627Y-35971818D01*
X79230950Y-35938333D01*
X79257307Y-35935499D01*
X79267872Y-35935499D01*
X79327483Y-35929091D01*
X79462331Y-35878796D01*
X79577546Y-35792546D01*
X79663796Y-35677331D01*
X79714091Y-35542483D01*
X79720500Y-35482873D01*
X79720500Y-35309500D01*
X79740185Y-35242461D01*
X79792989Y-35196706D01*
X79844500Y-35185500D01*
X82429903Y-35185500D01*
X82496942Y-35205185D01*
X82517584Y-35221819D01*
X82913181Y-35617416D01*
X82946666Y-35678739D01*
X82949500Y-35705097D01*
X82949500Y-36070397D01*
X82929815Y-36137436D01*
X82881800Y-36180879D01*
X82868389Y-36187712D01*
X82702786Y-36308028D01*
X82558028Y-36452786D01*
X82437715Y-36618386D01*
X82344781Y-36800776D01*
X82281522Y-36995465D01*
X82249500Y-37197648D01*
X82249500Y-37402351D01*
X82281522Y-37604534D01*
X82344781Y-37799223D01*
X82396385Y-37900500D01*
X82437585Y-37981359D01*
X82437715Y-37981613D01*
X82558028Y-38147213D01*
X82702786Y-38291971D01*
X82823226Y-38379474D01*
X82868390Y-38412287D01*
X82984607Y-38471503D01*
X83050776Y-38505218D01*
X83050778Y-38505218D01*
X83050781Y-38505220D01*
X83155137Y-38539127D01*
X83245465Y-38568477D01*
X83319923Y-38580270D01*
X83447648Y-38600500D01*
X83447649Y-38600500D01*
X83652351Y-38600500D01*
X83652352Y-38600500D01*
X83854534Y-38568477D01*
X84049219Y-38505220D01*
X84231610Y-38412287D01*
X84324590Y-38344732D01*
X84397213Y-38291971D01*
X84397215Y-38291968D01*
X84397219Y-38291966D01*
X84541966Y-38147219D01*
X84541968Y-38147215D01*
X84541971Y-38147213D01*
X84625960Y-38031610D01*
X84662287Y-37981610D01*
X84755220Y-37799219D01*
X84818477Y-37604534D01*
X84850500Y-37402352D01*
X84850500Y-37197648D01*
X84828568Y-37059174D01*
X84818477Y-36995465D01*
X84769739Y-36845466D01*
X84755220Y-36800781D01*
X84755218Y-36800778D01*
X84755218Y-36800776D01*
X84714822Y-36721495D01*
X84662287Y-36618390D01*
X84630092Y-36574077D01*
X84541971Y-36452786D01*
X84397213Y-36308028D01*
X84231610Y-36187712D01*
X84218200Y-36180879D01*
X84167406Y-36132903D01*
X84150500Y-36070397D01*
X84150500Y-35325945D01*
X84150500Y-35325943D01*
X84121265Y-35216835D01*
X84109577Y-35173215D01*
X84043585Y-35058914D01*
X84030520Y-35036284D01*
X83918716Y-34924480D01*
X83918713Y-34924478D01*
X83217590Y-34223355D01*
X83217588Y-34223352D01*
X83098717Y-34104481D01*
X83098709Y-34104475D01*
X82984207Y-34038368D01*
X82984206Y-34038367D01*
X82964750Y-34027135D01*
X82961785Y-34025423D01*
X82809057Y-33984499D01*
X82650943Y-33984499D01*
X82643347Y-33984499D01*
X82643331Y-33984500D01*
X79844499Y-33984500D01*
X79777460Y-33964815D01*
X79731705Y-33912011D01*
X79720499Y-33860500D01*
X79720499Y-33687129D01*
X79720498Y-33687123D01*
X79720497Y-33687116D01*
X79714091Y-33627517D01*
X79696707Y-33580909D01*
X79663797Y-33492671D01*
X79663793Y-33492664D01*
X79577547Y-33377455D01*
X79577544Y-33377452D01*
X79462335Y-33291206D01*
X79462328Y-33291202D01*
X79327482Y-33240908D01*
X79327483Y-33240908D01*
X79267883Y-33234501D01*
X79267881Y-33234500D01*
X79267873Y-33234500D01*
X79267864Y-33234500D01*
X77472129Y-33234500D01*
X77472123Y-33234501D01*
X77412516Y-33240908D01*
X77277671Y-33291202D01*
X77277664Y-33291206D01*
X77162455Y-33377452D01*
X77162452Y-33377455D01*
X77076206Y-33492664D01*
X77076202Y-33492671D01*
X77025908Y-33627517D01*
X77019501Y-33687116D01*
X77019501Y-33687123D01*
X77019500Y-33687135D01*
X61645500Y-33687135D01*
X61645500Y-32015923D01*
X61665185Y-31948884D01*
X61695187Y-31916657D01*
X61807546Y-31832546D01*
X61893796Y-31717331D01*
X61944091Y-31582483D01*
X61950500Y-31522873D01*
X61950499Y-31498979D01*
X61953330Y-31485963D01*
X61963940Y-31466525D01*
X61970179Y-31445275D01*
X61986803Y-31424643D01*
X61986808Y-31424636D01*
X61986811Y-31424634D01*
X61986818Y-31424626D01*
X62657037Y-30754408D01*
X62674075Y-30817993D01*
X62739901Y-30932007D01*
X62832993Y-31025099D01*
X62947007Y-31090925D01*
X63010590Y-31107962D01*
X62378282Y-31740269D01*
X62378282Y-31740270D01*
X62432449Y-31779624D01*
X62621782Y-31876095D01*
X62823870Y-31941757D01*
X63033754Y-31975000D01*
X63246246Y-31975000D01*
X63456127Y-31941757D01*
X63456130Y-31941757D01*
X63658217Y-31876095D01*
X63847554Y-31779622D01*
X63901716Y-31740270D01*
X63901717Y-31740270D01*
X63269408Y-31107962D01*
X63332993Y-31090925D01*
X63447007Y-31025099D01*
X63540099Y-30932007D01*
X63605925Y-30817993D01*
X63622962Y-30754408D01*
X64255270Y-31386717D01*
X64255270Y-31386716D01*
X64294622Y-31332554D01*
X64391095Y-31143217D01*
X64456757Y-30941130D01*
X64456757Y-30941127D01*
X64490000Y-30731246D01*
X64490000Y-30577135D01*
X87244500Y-30577135D01*
X87244500Y-32372870D01*
X87244501Y-32372876D01*
X87250908Y-32432483D01*
X87301202Y-32567328D01*
X87301206Y-32567335D01*
X87387452Y-32682544D01*
X87387455Y-32682547D01*
X87502664Y-32768793D01*
X87502671Y-32768797D01*
X87547618Y-32785561D01*
X87637517Y-32819091D01*
X87697127Y-32825500D01*
X87825500Y-32825499D01*
X87892539Y-32845183D01*
X87938294Y-32897987D01*
X87949500Y-32949499D01*
X87949500Y-36070397D01*
X87929815Y-36137436D01*
X87881800Y-36180879D01*
X87868389Y-36187712D01*
X87702786Y-36308028D01*
X87558028Y-36452786D01*
X87437715Y-36618386D01*
X87344781Y-36800776D01*
X87281522Y-36995465D01*
X87249500Y-37197648D01*
X87249500Y-37402351D01*
X87281522Y-37604534D01*
X87344781Y-37799223D01*
X87396385Y-37900500D01*
X87437585Y-37981359D01*
X87437715Y-37981613D01*
X87558028Y-38147213D01*
X87702786Y-38291971D01*
X87823226Y-38379474D01*
X87868390Y-38412287D01*
X87984607Y-38471503D01*
X88050776Y-38505218D01*
X88050778Y-38505218D01*
X88050781Y-38505220D01*
X88155137Y-38539127D01*
X88245465Y-38568477D01*
X88319923Y-38580270D01*
X88447648Y-38600500D01*
X88447649Y-38600500D01*
X88652351Y-38600500D01*
X88652352Y-38600500D01*
X88854534Y-38568477D01*
X89049219Y-38505220D01*
X89231610Y-38412287D01*
X89324590Y-38344732D01*
X89397213Y-38291971D01*
X89397215Y-38291968D01*
X89397219Y-38291966D01*
X89541966Y-38147219D01*
X89541968Y-38147215D01*
X89541971Y-38147213D01*
X89662284Y-37981614D01*
X89662285Y-37981613D01*
X89662287Y-37981610D01*
X89669117Y-37968204D01*
X89717091Y-37917409D01*
X89779602Y-37900500D01*
X90470398Y-37900500D01*
X90537437Y-37920185D01*
X90580883Y-37968205D01*
X90587715Y-37981614D01*
X90708028Y-38147213D01*
X90852786Y-38291971D01*
X90973226Y-38379474D01*
X91018390Y-38412287D01*
X91134607Y-38471503D01*
X91200776Y-38505218D01*
X91200778Y-38505218D01*
X91200781Y-38505220D01*
X91305137Y-38539127D01*
X91395465Y-38568477D01*
X91469923Y-38580270D01*
X91597648Y-38600500D01*
X91597649Y-38600500D01*
X91802351Y-38600500D01*
X91802352Y-38600500D01*
X92004534Y-38568477D01*
X92199219Y-38505220D01*
X92381610Y-38412287D01*
X92474590Y-38344732D01*
X92547213Y-38291971D01*
X92547215Y-38291968D01*
X92547219Y-38291966D01*
X92691966Y-38147219D01*
X92691968Y-38147215D01*
X92691971Y-38147213D01*
X92775960Y-38031610D01*
X92812287Y-37981610D01*
X92905220Y-37799219D01*
X92968477Y-37604534D01*
X93000500Y-37402352D01*
X93000500Y-37197682D01*
X98020000Y-37197682D01*
X98020000Y-37402317D01*
X98052009Y-37604417D01*
X98115244Y-37799031D01*
X98208141Y-37981350D01*
X98208147Y-37981359D01*
X98240523Y-38025921D01*
X98240524Y-38025922D01*
X98920000Y-37346446D01*
X98920000Y-37352661D01*
X98947259Y-37454394D01*
X98999920Y-37545606D01*
X99074394Y-37620080D01*
X99165606Y-37672741D01*
X99267339Y-37700000D01*
X99273553Y-37700000D01*
X98594076Y-38379474D01*
X98638650Y-38411859D01*
X98820968Y-38504755D01*
X99015582Y-38567990D01*
X99217683Y-38600000D01*
X99422317Y-38600000D01*
X99624417Y-38567990D01*
X99819031Y-38504755D01*
X100001349Y-38411859D01*
X100045921Y-38379474D01*
X99366447Y-37700000D01*
X99372661Y-37700000D01*
X99474394Y-37672741D01*
X99565606Y-37620080D01*
X99640080Y-37545606D01*
X99692741Y-37454394D01*
X99720000Y-37352661D01*
X99720000Y-37346447D01*
X100399474Y-38025921D01*
X100431859Y-37981349D01*
X100524755Y-37799031D01*
X100587990Y-37604417D01*
X100620000Y-37402317D01*
X100620000Y-37197682D01*
X100587990Y-36995582D01*
X100524755Y-36800968D01*
X100431859Y-36618650D01*
X100399474Y-36574077D01*
X100399474Y-36574076D01*
X99720000Y-37253551D01*
X99720000Y-37247339D01*
X99692741Y-37145606D01*
X99640080Y-37054394D01*
X99565606Y-36979920D01*
X99474394Y-36927259D01*
X99372661Y-36900000D01*
X99366446Y-36900000D01*
X100045922Y-36220524D01*
X100045921Y-36220523D01*
X100001359Y-36188147D01*
X100001350Y-36188141D01*
X99819031Y-36095244D01*
X99624417Y-36032009D01*
X99422317Y-36000000D01*
X99217683Y-36000000D01*
X99015582Y-36032009D01*
X98820968Y-36095244D01*
X98638644Y-36188143D01*
X98594077Y-36220523D01*
X98594077Y-36220524D01*
X99273554Y-36900000D01*
X99267339Y-36900000D01*
X99165606Y-36927259D01*
X99074394Y-36979920D01*
X98999920Y-37054394D01*
X98947259Y-37145606D01*
X98920000Y-37247339D01*
X98920000Y-37253553D01*
X98240524Y-36574077D01*
X98240523Y-36574077D01*
X98208143Y-36618644D01*
X98115244Y-36800968D01*
X98052009Y-36995582D01*
X98020000Y-37197682D01*
X93000500Y-37197682D01*
X93000500Y-37197648D01*
X92978568Y-37059174D01*
X92968477Y-36995465D01*
X92919739Y-36845466D01*
X92905220Y-36800781D01*
X92905218Y-36800778D01*
X92905218Y-36800776D01*
X92864822Y-36721495D01*
X92812287Y-36618390D01*
X92780092Y-36574077D01*
X92691971Y-36452786D01*
X92547213Y-36308028D01*
X92381613Y-36187715D01*
X92381612Y-36187714D01*
X92381610Y-36187713D01*
X92323350Y-36158028D01*
X92199223Y-36094781D01*
X92004534Y-36031522D01*
X91829995Y-36003878D01*
X91802352Y-35999500D01*
X91597648Y-35999500D01*
X91573329Y-36003351D01*
X91395465Y-36031522D01*
X91200776Y-36094781D01*
X91018386Y-36187715D01*
X90852786Y-36308028D01*
X90708028Y-36452786D01*
X90587715Y-36618385D01*
X90580883Y-36631795D01*
X90532909Y-36682591D01*
X90470398Y-36699500D01*
X89779602Y-36699500D01*
X89712563Y-36679815D01*
X89669117Y-36631795D01*
X89662284Y-36618385D01*
X89541971Y-36452786D01*
X89397213Y-36308028D01*
X89231610Y-36187712D01*
X89218200Y-36180879D01*
X89167406Y-36132903D01*
X89150500Y-36070397D01*
X89150500Y-32949499D01*
X89170185Y-32882460D01*
X89222989Y-32836705D01*
X89274500Y-32825499D01*
X89492871Y-32825499D01*
X89492872Y-32825499D01*
X89552483Y-32819091D01*
X89687331Y-32768796D01*
X89802546Y-32682546D01*
X89888796Y-32567331D01*
X89939091Y-32432483D01*
X89945500Y-32372873D01*
X89945499Y-32348979D01*
X89948330Y-32335963D01*
X89958940Y-32316525D01*
X89965179Y-32295275D01*
X89981803Y-32274643D01*
X89981808Y-32274636D01*
X89981811Y-32274634D01*
X89981818Y-32274626D01*
X90652037Y-31604408D01*
X90669075Y-31667993D01*
X90734901Y-31782007D01*
X90827993Y-31875099D01*
X90942007Y-31940925D01*
X91005590Y-31957962D01*
X90373282Y-32590269D01*
X90373282Y-32590270D01*
X90427449Y-32629624D01*
X90616782Y-32726095D01*
X90818870Y-32791757D01*
X91028754Y-32825000D01*
X91241246Y-32825000D01*
X91451127Y-32791757D01*
X91451130Y-32791757D01*
X91653217Y-32726095D01*
X91842554Y-32629622D01*
X91896716Y-32590270D01*
X91896717Y-32590270D01*
X91264408Y-31957962D01*
X91327993Y-31940925D01*
X91442007Y-31875099D01*
X91535099Y-31782007D01*
X91600925Y-31667993D01*
X91617962Y-31604408D01*
X92250270Y-32236717D01*
X92250270Y-32236716D01*
X92289622Y-32182554D01*
X92386095Y-31993217D01*
X92451757Y-31791130D01*
X92451757Y-31791127D01*
X92485000Y-31581246D01*
X92485000Y-31368753D01*
X92451757Y-31158872D01*
X92451757Y-31158869D01*
X92386095Y-30956782D01*
X92289624Y-30767449D01*
X92250270Y-30713282D01*
X92250269Y-30713282D01*
X91617962Y-31345590D01*
X91600925Y-31282007D01*
X91535099Y-31167993D01*
X91442007Y-31074901D01*
X91327993Y-31009075D01*
X91264409Y-30992037D01*
X91896716Y-30359728D01*
X91842550Y-30320375D01*
X91653217Y-30223904D01*
X91451129Y-30158242D01*
X91241246Y-30125000D01*
X91028754Y-30125000D01*
X90818872Y-30158242D01*
X90818869Y-30158242D01*
X90616782Y-30223904D01*
X90427439Y-30320380D01*
X90373282Y-30359727D01*
X90373282Y-30359728D01*
X91005591Y-30992037D01*
X90942007Y-31009075D01*
X90827993Y-31074901D01*
X90734901Y-31167993D01*
X90669075Y-31282007D01*
X90652037Y-31345591D01*
X89981818Y-30675372D01*
X89948333Y-30614049D01*
X89948330Y-30614036D01*
X89945499Y-30601015D01*
X89945499Y-30577128D01*
X89939091Y-30517517D01*
X89907198Y-30432007D01*
X89888798Y-30382673D01*
X89888793Y-30382664D01*
X89802547Y-30267455D01*
X89802544Y-30267452D01*
X89687335Y-30181206D01*
X89687328Y-30181202D01*
X89552482Y-30130908D01*
X89552483Y-30130908D01*
X89492883Y-30124501D01*
X89492881Y-30124500D01*
X89492873Y-30124500D01*
X89492864Y-30124500D01*
X87697129Y-30124500D01*
X87697123Y-30124501D01*
X87637516Y-30130908D01*
X87502671Y-30181202D01*
X87502664Y-30181206D01*
X87387455Y-30267452D01*
X87387452Y-30267455D01*
X87301206Y-30382664D01*
X87301202Y-30382671D01*
X87250908Y-30517517D01*
X87244501Y-30577116D01*
X87244500Y-30577135D01*
X64490000Y-30577135D01*
X64490000Y-30518753D01*
X64456757Y-30308872D01*
X64456757Y-30308869D01*
X64391095Y-30106782D01*
X64294624Y-29917449D01*
X64255270Y-29863282D01*
X64255269Y-29863282D01*
X63622962Y-30495590D01*
X63605925Y-30432007D01*
X63540099Y-30317993D01*
X63447007Y-30224901D01*
X63332993Y-30159075D01*
X63269409Y-30142037D01*
X63901716Y-29509728D01*
X63847550Y-29470375D01*
X63658217Y-29373904D01*
X63456129Y-29308242D01*
X63246246Y-29275000D01*
X63033754Y-29275000D01*
X62823872Y-29308242D01*
X62823869Y-29308242D01*
X62621782Y-29373904D01*
X62432439Y-29470380D01*
X62378282Y-29509727D01*
X62378282Y-29509728D01*
X63010591Y-30142037D01*
X62947007Y-30159075D01*
X62832993Y-30224901D01*
X62739901Y-30317993D01*
X62674075Y-30432007D01*
X62657037Y-30495591D01*
X61986818Y-29825372D01*
X61953333Y-29764049D01*
X61953330Y-29764036D01*
X61950499Y-29751015D01*
X61950499Y-29727128D01*
X61944091Y-29667517D01*
X61915926Y-29592002D01*
X61893798Y-29532673D01*
X61893793Y-29532664D01*
X61807547Y-29417455D01*
X61807544Y-29417452D01*
X61692335Y-29331206D01*
X61692328Y-29331202D01*
X61557482Y-29280908D01*
X61557483Y-29280908D01*
X61497883Y-29274501D01*
X61497881Y-29274500D01*
X61497873Y-29274500D01*
X61497864Y-29274500D01*
X59702129Y-29274500D01*
X59702123Y-29274501D01*
X59642516Y-29280908D01*
X59507671Y-29331202D01*
X59507664Y-29331206D01*
X59392455Y-29417452D01*
X59392452Y-29417455D01*
X59306206Y-29532664D01*
X59306202Y-29532671D01*
X59255908Y-29667517D01*
X59249501Y-29727116D01*
X59249500Y-29727135D01*
X44000500Y-29727135D01*
X44000500Y-27124500D01*
X44020185Y-27057461D01*
X44072989Y-27011706D01*
X44124500Y-27000500D01*
X108375500Y-27000500D01*
X108442539Y-27020185D01*
G37*
%TD.AperFunction*%
%TD*%
M02*
