%TF.GenerationSoftware,KiCad,Pcbnew,9.0.3*%
%TF.CreationDate,2026-07-21T20:10:54+05:30*%
%TF.ProjectId,07_RC_Filter_Demonstration_Board,30375f52-435f-4466-996c-7465725f4465,rev?*%
%TF.SameCoordinates,Original*%
%TF.FileFunction,Soldermask,Bot*%
%TF.FilePolarity,Negative*%
%FSLAX46Y46*%
G04 Gerber Fmt 4.6, Leading zero omitted, Abs format (unit mm)*
G04 Created by KiCad (PCBNEW 9.0.3) date 2026-07-21 20:10:54*
%MOMM*%
%LPD*%
G01*
G04 APERTURE LIST*
%ADD10C,1.600000*%
%ADD11R,1.700000X1.700000*%
%ADD12C,1.700000*%
G04 APERTURE END LIST*
D10*
%TO.C,R6*%
X92230000Y-49100000D03*
X99850000Y-49100000D03*
%TD*%
%TO.C,C6*%
X93625000Y-62725000D03*
X98625000Y-62725000D03*
%TD*%
%TO.C,R4*%
X57390000Y-48965000D03*
X65010000Y-48965000D03*
%TD*%
D11*
%TO.C,J6*%
X65300000Y-57090000D03*
D12*
X65300000Y-59630000D03*
%TD*%
D10*
%TO.C,R1*%
X53425000Y-37350000D03*
X61045000Y-37350000D03*
%TD*%
%TO.C,C1*%
X64775000Y-37150000D03*
X69775000Y-37150000D03*
%TD*%
D11*
%TO.C,J2*%
X60600000Y-30625000D03*
D12*
X63140000Y-30625000D03*
%TD*%
D11*
%TO.C,J7*%
X75650000Y-49350000D03*
D12*
X75650000Y-51890000D03*
%TD*%
D11*
%TO.C,J1*%
X47925000Y-34925000D03*
D12*
X47925000Y-37465000D03*
%TD*%
D10*
%TO.C,C3*%
X48475000Y-48915000D03*
X53475000Y-48915000D03*
%TD*%
%TO.C,C7*%
X93700000Y-55750000D03*
X98700000Y-55750000D03*
%TD*%
%TO.C,C4*%
X59975000Y-56415000D03*
X59975000Y-61415000D03*
%TD*%
%TO.C,R3*%
X53550000Y-53790000D03*
X53550000Y-61410000D03*
%TD*%
%TO.C,R2*%
X91700000Y-37300000D03*
X99320000Y-37300000D03*
%TD*%
D11*
%TO.C,J4*%
X88595000Y-31475000D03*
D12*
X91135000Y-31475000D03*
%TD*%
D10*
%TO.C,R5*%
X80515000Y-49100000D03*
X88135000Y-49100000D03*
%TD*%
%TO.C,C5*%
X81500000Y-62725000D03*
X86500000Y-62725000D03*
%TD*%
D11*
%TO.C,J3*%
X78370000Y-34585000D03*
D12*
X78370000Y-37125000D03*
%TD*%
D10*
%TO.C,C2*%
X83550000Y-37300000D03*
X88550000Y-37300000D03*
%TD*%
%TO.C,R7*%
X88375000Y-55825000D03*
X80755000Y-55825000D03*
%TD*%
D11*
%TO.C,J8*%
X104525000Y-51575000D03*
D12*
X104525000Y-54115000D03*
%TD*%
D11*
%TO.C,J5*%
X48400000Y-54865000D03*
D12*
X48400000Y-57405000D03*
%TD*%
M02*
