%TF.GenerationSoftware,KiCad,Pcbnew,9.0.3*%
%TF.CreationDate,2026-07-21T19:57:26+05:30*%
%TF.ProjectId,06_Potentiometer,30365f50-6f74-4656-9e74-696f6d657465,rev?*%
%TF.SameCoordinates,Original*%
%TF.FileFunction,Copper,L2,Bot*%
%TF.FilePolarity,Positive*%
%FSLAX46Y46*%
G04 Gerber Fmt 4.6, Leading zero omitted, Abs format (unit mm)*
G04 Created by KiCad (PCBNEW 9.0.3) date 2026-07-21 19:57:26*
%MOMM*%
%LPD*%
G01*
G04 APERTURE LIST*
G04 Aperture macros list*
%AMRoundRect*
0 Rectangle with rounded corners*
0 $1 Rounding radius*
0 $2 $3 $4 $5 $6 $7 $8 $9 X,Y pos of 4 corners*
0 Add a 4 corners polygon primitive as box body*
4,1,4,$2,$3,$4,$5,$6,$7,$8,$9,$2,$3,0*
0 Add four circle primitives for the rounded corners*
1,1,$1+$1,$2,$3*
1,1,$1+$1,$4,$5*
1,1,$1+$1,$6,$7*
1,1,$1+$1,$8,$9*
0 Add four rect primitives between the rounded corners*
20,1,$1+$1,$2,$3,$4,$5,0*
20,1,$1+$1,$4,$5,$6,$7,0*
20,1,$1+$1,$6,$7,$8,$9,0*
20,1,$1+$1,$8,$9,$2,$3,0*%
G04 Aperture macros list end*
%TA.AperFunction,NonConductor*%
%ADD10C,0.200000*%
%TD*%
%TA.AperFunction,ComponentPad*%
%ADD11R,1.800000X1.800000*%
%TD*%
%TA.AperFunction,ComponentPad*%
%ADD12C,1.800000*%
%TD*%
%TA.AperFunction,ComponentPad*%
%ADD13C,1.600000*%
%TD*%
%TA.AperFunction,ComponentPad*%
%ADD14RoundRect,0.750000X-1.250000X-0.750000X1.250000X-0.750000X1.250000X0.750000X-1.250000X0.750000X0*%
%TD*%
%TA.AperFunction,ComponentPad*%
%ADD15R,1.700000X1.700000*%
%TD*%
%TA.AperFunction,ComponentPad*%
%ADD16C,1.700000*%
%TD*%
%TA.AperFunction,Conductor*%
%ADD17C,0.200000*%
%TD*%
G04 APERTURE END LIST*
D10*
X129000000Y-77000000D02*
X157500000Y-77000000D01*
X157500000Y-113000000D01*
X129000000Y-113000000D01*
X129000000Y-77000000D01*
D11*
%TO.P,D1,1,K*%
%TO.N,/GND*%
X141100000Y-107600000D03*
D12*
%TO.P,D1,2,A*%
%TO.N,Net-(D1-A)*%
X141100000Y-105060000D03*
%TD*%
D13*
%TO.P,R1,1*%
%TO.N,/+5V*%
X139665000Y-83125000D03*
%TO.P,R1,2*%
%TO.N,Net-(R1-Pad2)*%
X147285000Y-83125000D03*
%TD*%
D11*
%TO.P,RV1,1,1*%
%TO.N,Net-(R1-Pad2)*%
X141150000Y-90790000D03*
D12*
%TO.P,RV1,2,2*%
%TO.N,Net-(D1-A)*%
X141150000Y-93290000D03*
%TO.P,RV1,3,3*%
%TO.N,/GND*%
X141150000Y-95790000D03*
D14*
%TO.P,RV1,MP*%
%TO.N,N/C*%
X148150000Y-88890000D03*
X148150000Y-97690000D03*
%TD*%
D15*
%TO.P,J1,1,Pin_1*%
%TO.N,/+5V*%
X136000000Y-91375000D03*
D16*
%TO.P,J1,2,Pin_2*%
%TO.N,/GND*%
X136000000Y-93915000D03*
%TD*%
D17*
%TO.N,/GND*%
X137150000Y-107600000D02*
X141100000Y-107600000D01*
X142301000Y-106399000D02*
X141100000Y-107600000D01*
X136000000Y-106450000D02*
X137150000Y-107600000D01*
X141150000Y-95790000D02*
X142301000Y-96941000D01*
X136000000Y-93915000D02*
X136000000Y-106450000D01*
X142301000Y-96941000D02*
X142301000Y-106399000D01*
%TO.N,Net-(D1-A)*%
X141150000Y-93290000D02*
X139410000Y-93290000D01*
X138650000Y-94050000D02*
X138650000Y-102700000D01*
X138650000Y-102700000D02*
X141010000Y-105060000D01*
X141010000Y-105060000D02*
X141100000Y-105060000D01*
X139410000Y-93290000D02*
X138650000Y-94050000D01*
%TO.N,/+5V*%
X136000000Y-91375000D02*
X136000000Y-84800000D01*
X136000000Y-84800000D02*
X137675000Y-83125000D01*
X137675000Y-83125000D02*
X139665000Y-83125000D01*
%TO.N,Net-(R1-Pad2)*%
X147285000Y-84655000D02*
X141150000Y-90790000D01*
X147285000Y-83125000D02*
X147285000Y-84655000D01*
%TD*%
%TA.AperFunction,NonConductor*%
G36*
X154942539Y-79520185D02*
G01*
X154988294Y-79572989D01*
X154999500Y-79624500D01*
X154999500Y-110375500D01*
X154979815Y-110442539D01*
X154927011Y-110488294D01*
X154875500Y-110499500D01*
X131624500Y-110499500D01*
X131557461Y-110479815D01*
X131511706Y-110427011D01*
X131500500Y-110375500D01*
X131500500Y-90477135D01*
X134649500Y-90477135D01*
X134649500Y-92272870D01*
X134649501Y-92272876D01*
X134655908Y-92332483D01*
X134706202Y-92467328D01*
X134706206Y-92467335D01*
X134792452Y-92582544D01*
X134792455Y-92582547D01*
X134907664Y-92668793D01*
X134907671Y-92668797D01*
X135039082Y-92717810D01*
X135095016Y-92759681D01*
X135119433Y-92825145D01*
X135104582Y-92893418D01*
X135083431Y-92921673D01*
X134969889Y-93035215D01*
X134844951Y-93207179D01*
X134748444Y-93396585D01*
X134682753Y-93598760D01*
X134656595Y-93763915D01*
X134649500Y-93808713D01*
X134649500Y-94021287D01*
X134682754Y-94231243D01*
X134724020Y-94358247D01*
X134748444Y-94433414D01*
X134844951Y-94622820D01*
X134969890Y-94794786D01*
X135120213Y-94945109D01*
X135292184Y-95070051D01*
X135292184Y-95070052D01*
X135331793Y-95090233D01*
X135382590Y-95138206D01*
X135399500Y-95200718D01*
X135399500Y-106363330D01*
X135399499Y-106363348D01*
X135399499Y-106529054D01*
X135399498Y-106529054D01*
X135440423Y-106681785D01*
X135469358Y-106731900D01*
X135469359Y-106731904D01*
X135469360Y-106731904D01*
X135519479Y-106818714D01*
X135519481Y-106818717D01*
X135638349Y-106937585D01*
X135638354Y-106937589D01*
X136781284Y-108080520D01*
X136781286Y-108080521D01*
X136781290Y-108080524D01*
X136918209Y-108159573D01*
X136918216Y-108159577D01*
X137070943Y-108200501D01*
X137070945Y-108200501D01*
X137236654Y-108200501D01*
X137236670Y-108200500D01*
X139575501Y-108200500D01*
X139642540Y-108220185D01*
X139688295Y-108272989D01*
X139699501Y-108324500D01*
X139699501Y-108547876D01*
X139705908Y-108607483D01*
X139756202Y-108742328D01*
X139756206Y-108742335D01*
X139842452Y-108857544D01*
X139842455Y-108857547D01*
X139957664Y-108943793D01*
X139957671Y-108943797D01*
X140092517Y-108994091D01*
X140092516Y-108994091D01*
X140099444Y-108994835D01*
X140152127Y-109000500D01*
X142047872Y-109000499D01*
X142107483Y-108994091D01*
X142242331Y-108943796D01*
X142357546Y-108857546D01*
X142443796Y-108742331D01*
X142494091Y-108607483D01*
X142500500Y-108547873D01*
X142500499Y-107100095D01*
X142509143Y-107070655D01*
X142515667Y-107040669D01*
X142519421Y-107035653D01*
X142520184Y-107033057D01*
X142536813Y-107012420D01*
X142659506Y-106889728D01*
X142659511Y-106889724D01*
X142669714Y-106879520D01*
X142669716Y-106879520D01*
X142781520Y-106767716D01*
X142860577Y-106630784D01*
X142901500Y-106478057D01*
X142901500Y-97020061D01*
X142901501Y-97020058D01*
X142901501Y-96875777D01*
X145649500Y-96875777D01*
X145649500Y-98504208D01*
X145649501Y-98504223D01*
X145659904Y-98636413D01*
X145659905Y-98636420D01*
X145714902Y-98854678D01*
X145714903Y-98854681D01*
X145807991Y-99059622D01*
X145807997Y-99059632D01*
X145936174Y-99244645D01*
X145936178Y-99244650D01*
X145936181Y-99244654D01*
X146095346Y-99403819D01*
X146095350Y-99403822D01*
X146095354Y-99403825D01*
X146234603Y-99500297D01*
X146280374Y-99532007D01*
X146485317Y-99625096D01*
X146485321Y-99625097D01*
X146703579Y-99680094D01*
X146703581Y-99680094D01*
X146703588Y-99680096D01*
X146835783Y-99690500D01*
X149464216Y-99690499D01*
X149596412Y-99680096D01*
X149814683Y-99625096D01*
X150019626Y-99532007D01*
X150204654Y-99403819D01*
X150363819Y-99244654D01*
X150492007Y-99059626D01*
X150585096Y-98854683D01*
X150640096Y-98636412D01*
X150650500Y-98504217D01*
X150650499Y-96875784D01*
X150640096Y-96743588D01*
X150631434Y-96709214D01*
X150585097Y-96525321D01*
X150585096Y-96525318D01*
X150584507Y-96524022D01*
X150492007Y-96320374D01*
X150363819Y-96135346D01*
X150204654Y-95976181D01*
X150204650Y-95976178D01*
X150204645Y-95976174D01*
X150019632Y-95847997D01*
X150019630Y-95847995D01*
X150019626Y-95847993D01*
X149814683Y-95754904D01*
X149814681Y-95754903D01*
X149814678Y-95754902D01*
X149596420Y-95699905D01*
X149596413Y-95699904D01*
X149552347Y-95696436D01*
X149464217Y-95689500D01*
X149464215Y-95689500D01*
X146835791Y-95689500D01*
X146835776Y-95689501D01*
X146703586Y-95699904D01*
X146703579Y-95699905D01*
X146485321Y-95754902D01*
X146485318Y-95754903D01*
X146280377Y-95847991D01*
X146280367Y-95847997D01*
X146095354Y-95976174D01*
X146095342Y-95976184D01*
X145936184Y-96135342D01*
X145936174Y-96135354D01*
X145807997Y-96320367D01*
X145807991Y-96320377D01*
X145714903Y-96525318D01*
X145714902Y-96525321D01*
X145659905Y-96743579D01*
X145659904Y-96743586D01*
X145649500Y-96875777D01*
X142901501Y-96875777D01*
X142901501Y-96861943D01*
X142860577Y-96709215D01*
X142831639Y-96659095D01*
X142781520Y-96572284D01*
X142669716Y-96460480D01*
X142669715Y-96460479D01*
X142665385Y-96456149D01*
X142665374Y-96456139D01*
X142523438Y-96314203D01*
X142489953Y-96252880D01*
X142493187Y-96188205D01*
X142516015Y-96117951D01*
X142550500Y-95900222D01*
X142550500Y-95679778D01*
X142516015Y-95462049D01*
X142447895Y-95252394D01*
X142447895Y-95252393D01*
X142413237Y-95184375D01*
X142347815Y-95055978D01*
X142331260Y-95033192D01*
X142218247Y-94877641D01*
X142218243Y-94877636D01*
X142062365Y-94721758D01*
X142062357Y-94721752D01*
X141950270Y-94640317D01*
X141907606Y-94584989D01*
X141901627Y-94515376D01*
X141934232Y-94453580D01*
X141950265Y-94439686D01*
X142062365Y-94358242D01*
X142218242Y-94202365D01*
X142347815Y-94024022D01*
X142447895Y-93827606D01*
X142516015Y-93617951D01*
X142550500Y-93400222D01*
X142550500Y-93179778D01*
X142516015Y-92962049D01*
X142447895Y-92752394D01*
X142447895Y-92752393D01*
X142381351Y-92621796D01*
X142347815Y-92555978D01*
X142331260Y-92533192D01*
X142218247Y-92377641D01*
X142218243Y-92377636D01*
X142197205Y-92356598D01*
X142163720Y-92295275D01*
X142168704Y-92225583D01*
X142210576Y-92169650D01*
X142241554Y-92152735D01*
X142292326Y-92133798D01*
X142292326Y-92133797D01*
X142292331Y-92133796D01*
X142407546Y-92047546D01*
X142493796Y-91932331D01*
X142544091Y-91797483D01*
X142550500Y-91737873D01*
X142550499Y-90290095D01*
X142570184Y-90223057D01*
X142586813Y-90202420D01*
X144713456Y-88075777D01*
X145649500Y-88075777D01*
X145649500Y-89704208D01*
X145649501Y-89704223D01*
X145659904Y-89836413D01*
X145659905Y-89836420D01*
X145714902Y-90054678D01*
X145714903Y-90054681D01*
X145807991Y-90259622D01*
X145807997Y-90259632D01*
X145936174Y-90444645D01*
X145936178Y-90444650D01*
X145936181Y-90444654D01*
X146095346Y-90603819D01*
X146095350Y-90603822D01*
X146095354Y-90603825D01*
X146234603Y-90700297D01*
X146280374Y-90732007D01*
X146485317Y-90825096D01*
X146485321Y-90825097D01*
X146703579Y-90880094D01*
X146703581Y-90880094D01*
X146703588Y-90880096D01*
X146835783Y-90890500D01*
X149464216Y-90890499D01*
X149596412Y-90880096D01*
X149814683Y-90825096D01*
X150019626Y-90732007D01*
X150204654Y-90603819D01*
X150363819Y-90444654D01*
X150492007Y-90259626D01*
X150585096Y-90054683D01*
X150640096Y-89836412D01*
X150650500Y-89704217D01*
X150650499Y-88075784D01*
X150640096Y-87943588D01*
X150585096Y-87725317D01*
X150492007Y-87520374D01*
X150363819Y-87335346D01*
X150204654Y-87176181D01*
X150204650Y-87176178D01*
X150204645Y-87176174D01*
X150019632Y-87047997D01*
X150019630Y-87047995D01*
X150019626Y-87047993D01*
X149814683Y-86954904D01*
X149814681Y-86954903D01*
X149814678Y-86954902D01*
X149596420Y-86899905D01*
X149596413Y-86899904D01*
X149552347Y-86896436D01*
X149464217Y-86889500D01*
X149464215Y-86889500D01*
X146835791Y-86889500D01*
X146835776Y-86889501D01*
X146703586Y-86899904D01*
X146703579Y-86899905D01*
X146485321Y-86954902D01*
X146485318Y-86954903D01*
X146280377Y-87047991D01*
X146280367Y-87047997D01*
X146095354Y-87176174D01*
X146095342Y-87176184D01*
X145936184Y-87335342D01*
X145936174Y-87335354D01*
X145807997Y-87520367D01*
X145807991Y-87520377D01*
X145714903Y-87725318D01*
X145714902Y-87725321D01*
X145659905Y-87943579D01*
X145659904Y-87943586D01*
X145649500Y-88075777D01*
X144713456Y-88075777D01*
X147653713Y-85135521D01*
X147653716Y-85135520D01*
X147765520Y-85023716D01*
X147815639Y-84936904D01*
X147844577Y-84886785D01*
X147885500Y-84734058D01*
X147885500Y-84575943D01*
X147885500Y-84354601D01*
X147905185Y-84287562D01*
X147953206Y-84244116D01*
X147966610Y-84237287D01*
X148132219Y-84116966D01*
X148276966Y-83972219D01*
X148276968Y-83972215D01*
X148276971Y-83972213D01*
X148329732Y-83899590D01*
X148397287Y-83806610D01*
X148490220Y-83624219D01*
X148553477Y-83429534D01*
X148585500Y-83227352D01*
X148585500Y-83022648D01*
X148553477Y-82820466D01*
X148490220Y-82625781D01*
X148490218Y-82625778D01*
X148490218Y-82625776D01*
X148456503Y-82559607D01*
X148397287Y-82443390D01*
X148389556Y-82432749D01*
X148276971Y-82277786D01*
X148132213Y-82133028D01*
X147966613Y-82012715D01*
X147966612Y-82012714D01*
X147966610Y-82012713D01*
X147909653Y-81983691D01*
X147784223Y-81919781D01*
X147589534Y-81856522D01*
X147414995Y-81828878D01*
X147387352Y-81824500D01*
X147182648Y-81824500D01*
X147158329Y-81828351D01*
X146980465Y-81856522D01*
X146785776Y-81919781D01*
X146603386Y-82012715D01*
X146437786Y-82133028D01*
X146293028Y-82277786D01*
X146172715Y-82443386D01*
X146079781Y-82625776D01*
X146016522Y-82820465D01*
X145984500Y-83022648D01*
X145984500Y-83227351D01*
X146016522Y-83429534D01*
X146079781Y-83624223D01*
X146172715Y-83806613D01*
X146293028Y-83972213D01*
X146293034Y-83972219D01*
X146437781Y-84116966D01*
X146603390Y-84237287D01*
X146616793Y-84244116D01*
X146627856Y-84254564D01*
X146641703Y-84260888D01*
X146652744Y-84278068D01*
X146667589Y-84292088D01*
X146671830Y-84307768D01*
X146679477Y-84319666D01*
X146684500Y-84354601D01*
X146684500Y-84354902D01*
X146664815Y-84421941D01*
X146648181Y-84442583D01*
X141737582Y-89353181D01*
X141676259Y-89386666D01*
X141649901Y-89389500D01*
X140202129Y-89389500D01*
X140202123Y-89389501D01*
X140142516Y-89395908D01*
X140007671Y-89446202D01*
X140007664Y-89446206D01*
X139892455Y-89532452D01*
X139892452Y-89532455D01*
X139806206Y-89647664D01*
X139806202Y-89647671D01*
X139755908Y-89782517D01*
X139749501Y-89842116D01*
X139749500Y-89842135D01*
X139749500Y-91737870D01*
X139749501Y-91737876D01*
X139755908Y-91797483D01*
X139806202Y-91932328D01*
X139806206Y-91932335D01*
X139892452Y-92047544D01*
X139892455Y-92047547D01*
X140007664Y-92133793D01*
X140007671Y-92133797D01*
X140058446Y-92152735D01*
X140114380Y-92194606D01*
X140138797Y-92260070D01*
X140123945Y-92328343D01*
X140102796Y-92356596D01*
X140081757Y-92377635D01*
X140081752Y-92377641D01*
X139952185Y-92555976D01*
X139918648Y-92621796D01*
X139870674Y-92672591D01*
X139808164Y-92689500D01*
X139330942Y-92689500D01*
X139178216Y-92730422D01*
X139140159Y-92752395D01*
X139140158Y-92752394D01*
X139041287Y-92809477D01*
X139041282Y-92809481D01*
X138169481Y-93681282D01*
X138169479Y-93681285D01*
X138121775Y-93763913D01*
X138121773Y-93763915D01*
X138090425Y-93818209D01*
X138090424Y-93818210D01*
X138074544Y-93877472D01*
X138049499Y-93970943D01*
X138049499Y-93970945D01*
X138049499Y-94139046D01*
X138049500Y-94139059D01*
X138049500Y-102613330D01*
X138049499Y-102613348D01*
X138049499Y-102779054D01*
X138049498Y-102779054D01*
X138090423Y-102931785D01*
X138119358Y-102981900D01*
X138119359Y-102981904D01*
X138119360Y-102981904D01*
X138169479Y-103068714D01*
X138169481Y-103068717D01*
X138288349Y-103187585D01*
X138288355Y-103187590D01*
X139704490Y-104603725D01*
X139737975Y-104665048D01*
X139734864Y-104727244D01*
X139735123Y-104727306D01*
X139734793Y-104728680D01*
X139734741Y-104729722D01*
X139733984Y-104732049D01*
X139699500Y-104949778D01*
X139699500Y-105170221D01*
X139733985Y-105387952D01*
X139802103Y-105597603D01*
X139802104Y-105597606D01*
X139902187Y-105794025D01*
X140031752Y-105972358D01*
X140031756Y-105972363D01*
X140081928Y-106022535D01*
X140115413Y-106083858D01*
X140110429Y-106153550D01*
X140068557Y-106209483D01*
X140037581Y-106226398D01*
X139957669Y-106256203D01*
X139957664Y-106256206D01*
X139842455Y-106342452D01*
X139842452Y-106342455D01*
X139756206Y-106457664D01*
X139756202Y-106457671D01*
X139705908Y-106592517D01*
X139699501Y-106652116D01*
X139699500Y-106652135D01*
X139699500Y-106875500D01*
X139679815Y-106942539D01*
X139627011Y-106988294D01*
X139575500Y-106999500D01*
X137450098Y-106999500D01*
X137383059Y-106979815D01*
X137362417Y-106963181D01*
X136636819Y-106237583D01*
X136603334Y-106176260D01*
X136600500Y-106149902D01*
X136600500Y-95200718D01*
X136620185Y-95133679D01*
X136668207Y-95090233D01*
X136707815Y-95070052D01*
X136707815Y-95070051D01*
X136707816Y-95070051D01*
X136799193Y-95003661D01*
X136879786Y-94945109D01*
X136879788Y-94945106D01*
X136879792Y-94945104D01*
X137030104Y-94794792D01*
X137030106Y-94794788D01*
X137030109Y-94794786D01*
X137142335Y-94640318D01*
X137155051Y-94622816D01*
X137251557Y-94433412D01*
X137317246Y-94231243D01*
X137350500Y-94021287D01*
X137350500Y-93808713D01*
X137317246Y-93598757D01*
X137251557Y-93396588D01*
X137155051Y-93207184D01*
X137155049Y-93207181D01*
X137155048Y-93207179D01*
X137030109Y-93035213D01*
X136916569Y-92921673D01*
X136883084Y-92860350D01*
X136888068Y-92790658D01*
X136929940Y-92734725D01*
X136960915Y-92717810D01*
X137092331Y-92668796D01*
X137207546Y-92582546D01*
X137293796Y-92467331D01*
X137344091Y-92332483D01*
X137350500Y-92272873D01*
X137350499Y-90477128D01*
X137344091Y-90417517D01*
X137293796Y-90282669D01*
X137293795Y-90282668D01*
X137293793Y-90282664D01*
X137207547Y-90167455D01*
X137207544Y-90167452D01*
X137092335Y-90081206D01*
X137092328Y-90081202D01*
X136957482Y-90030908D01*
X136957483Y-90030908D01*
X136897883Y-90024501D01*
X136897881Y-90024500D01*
X136897873Y-90024500D01*
X136897865Y-90024500D01*
X136724500Y-90024500D01*
X136657461Y-90004815D01*
X136611706Y-89952011D01*
X136600500Y-89900500D01*
X136600500Y-85100097D01*
X136620185Y-85033058D01*
X136636819Y-85012416D01*
X137887417Y-83761819D01*
X137948740Y-83728334D01*
X137975098Y-83725500D01*
X138435398Y-83725500D01*
X138502437Y-83745185D01*
X138545883Y-83793205D01*
X138552715Y-83806614D01*
X138673028Y-83972213D01*
X138817786Y-84116971D01*
X138972749Y-84229556D01*
X138983390Y-84237287D01*
X139064499Y-84278614D01*
X139165776Y-84330218D01*
X139165778Y-84330218D01*
X139165781Y-84330220D01*
X139270137Y-84364127D01*
X139360465Y-84393477D01*
X139441205Y-84406265D01*
X139562648Y-84425500D01*
X139562649Y-84425500D01*
X139767351Y-84425500D01*
X139767352Y-84425500D01*
X139969534Y-84393477D01*
X140164219Y-84330220D01*
X140346610Y-84237287D01*
X140439590Y-84169732D01*
X140512213Y-84116971D01*
X140512215Y-84116968D01*
X140512219Y-84116966D01*
X140656966Y-83972219D01*
X140656968Y-83972215D01*
X140656971Y-83972213D01*
X140709732Y-83899590D01*
X140777287Y-83806610D01*
X140870220Y-83624219D01*
X140933477Y-83429534D01*
X140965500Y-83227352D01*
X140965500Y-83022648D01*
X140933477Y-82820466D01*
X140870220Y-82625781D01*
X140870218Y-82625778D01*
X140870218Y-82625776D01*
X140836503Y-82559607D01*
X140777287Y-82443390D01*
X140769556Y-82432749D01*
X140656971Y-82277786D01*
X140512213Y-82133028D01*
X140346613Y-82012715D01*
X140346612Y-82012714D01*
X140346610Y-82012713D01*
X140289653Y-81983691D01*
X140164223Y-81919781D01*
X139969534Y-81856522D01*
X139794995Y-81828878D01*
X139767352Y-81824500D01*
X139562648Y-81824500D01*
X139538329Y-81828351D01*
X139360465Y-81856522D01*
X139165776Y-81919781D01*
X138983386Y-82012715D01*
X138817786Y-82133028D01*
X138673028Y-82277786D01*
X138552715Y-82443385D01*
X138545883Y-82456795D01*
X138497909Y-82507591D01*
X138435398Y-82524500D01*
X137761670Y-82524500D01*
X137761654Y-82524499D01*
X137754058Y-82524499D01*
X137595943Y-82524499D01*
X137519579Y-82544961D01*
X137443214Y-82565423D01*
X137443209Y-82565426D01*
X137306290Y-82644475D01*
X137306282Y-82644481D01*
X135519481Y-84431282D01*
X135519479Y-84431285D01*
X135469361Y-84518094D01*
X135469359Y-84518096D01*
X135440425Y-84568209D01*
X135440424Y-84568210D01*
X135440423Y-84568215D01*
X135399499Y-84720943D01*
X135399499Y-84720945D01*
X135399499Y-84889046D01*
X135399500Y-84889059D01*
X135399500Y-89900500D01*
X135379815Y-89967539D01*
X135327011Y-90013294D01*
X135275501Y-90024500D01*
X135102130Y-90024500D01*
X135102123Y-90024501D01*
X135042516Y-90030908D01*
X134907671Y-90081202D01*
X134907664Y-90081206D01*
X134792455Y-90167452D01*
X134792452Y-90167455D01*
X134706206Y-90282664D01*
X134706202Y-90282671D01*
X134655908Y-90417517D01*
X134649501Y-90477116D01*
X134649501Y-90477123D01*
X134649500Y-90477135D01*
X131500500Y-90477135D01*
X131500500Y-79624500D01*
X131520185Y-79557461D01*
X131572989Y-79511706D01*
X131624500Y-79500500D01*
X154875500Y-79500500D01*
X154942539Y-79520185D01*
G37*
%TD.AperFunction*%
%TA.AperFunction,NonConductor*%
G36*
X139875203Y-93910185D02*
G01*
X139918648Y-93958204D01*
X139952185Y-94024023D01*
X140081752Y-94202358D01*
X140081756Y-94202363D01*
X140237636Y-94358243D01*
X140237641Y-94358247D01*
X140349727Y-94439682D01*
X140392393Y-94495011D01*
X140398372Y-94564625D01*
X140365767Y-94626420D01*
X140349727Y-94640318D01*
X140237641Y-94721752D01*
X140237636Y-94721756D01*
X140081756Y-94877636D01*
X140081752Y-94877641D01*
X139952187Y-95055974D01*
X139852104Y-95252393D01*
X139852103Y-95252396D01*
X139783985Y-95462047D01*
X139749500Y-95679778D01*
X139749500Y-95900221D01*
X139783985Y-96117952D01*
X139852103Y-96327603D01*
X139852104Y-96327606D01*
X139952187Y-96524025D01*
X140081752Y-96702358D01*
X140081756Y-96702363D01*
X140237636Y-96858243D01*
X140237641Y-96858247D01*
X140261789Y-96875791D01*
X140415978Y-96987815D01*
X140498886Y-97030059D01*
X140612393Y-97087895D01*
X140612396Y-97087896D01*
X140679525Y-97109707D01*
X140822049Y-97156015D01*
X141039778Y-97190500D01*
X141039779Y-97190500D01*
X141260221Y-97190500D01*
X141260222Y-97190500D01*
X141477951Y-97156015D01*
X141538181Y-97136444D01*
X141608022Y-97134450D01*
X141667855Y-97170530D01*
X141698684Y-97233231D01*
X141700500Y-97254376D01*
X141700500Y-103611869D01*
X141680815Y-103678908D01*
X141628011Y-103724663D01*
X141558853Y-103734607D01*
X141538183Y-103729800D01*
X141427953Y-103693985D01*
X141427954Y-103693985D01*
X141264654Y-103668121D01*
X141210222Y-103659500D01*
X140989778Y-103659500D01*
X140946232Y-103666397D01*
X140772045Y-103693985D01*
X140633865Y-103738882D01*
X140564024Y-103740877D01*
X140507867Y-103708632D01*
X139286819Y-102487584D01*
X139253334Y-102426261D01*
X139250500Y-102399903D01*
X139250500Y-94350097D01*
X139270185Y-94283058D01*
X139286819Y-94262416D01*
X139622416Y-93926819D01*
X139649343Y-93912115D01*
X139675162Y-93895523D01*
X139681362Y-93894631D01*
X139683739Y-93893334D01*
X139710097Y-93890500D01*
X139808164Y-93890500D01*
X139875203Y-93910185D01*
G37*
%TD.AperFunction*%
M02*
