%TF.GenerationSoftware,KiCad,Pcbnew,9.0.3*%
%TF.CreationDate,2026-07-21T19:57:25+05:30*%
%TF.ProjectId,06_Potentiometer,30365f50-6f74-4656-9e74-696f6d657465,rev?*%
%TF.SameCoordinates,Original*%
%TF.FileFunction,Copper,L1,Top*%
%TF.FilePolarity,Positive*%
%FSLAX46Y46*%
G04 Gerber Fmt 4.6, Leading zero omitted, Abs format (unit mm)*
G04 Created by KiCad (PCBNEW 9.0.3) date 2026-07-21 19:57:25*
%MOMM*%
%LPD*%
G01*
G04 APERTURE LIST*
G04 Aperture macros list*
%AMRoundRect*
0 Rectangle with rounded corners*
0 $1 Rounding radius*
0 $2 $3 $4 $5 $6 $7 $8 $9 X,Y pos of 4 corners*
0 Add a 4 corners polygon primitive as box body*
4,1,4,$2,$3,$4,$5,$6,$7,$8,$9,$2,$3,0*
0 Add four circle primitives for the rounded corners*
1,1,$1+$1,$2,$3*
1,1,$1+$1,$4,$5*
1,1,$1+$1,$6,$7*
1,1,$1+$1,$8,$9*
0 Add four rect primitives between the rounded corners*
20,1,$1+$1,$2,$3,$4,$5,0*
20,1,$1+$1,$4,$5,$6,$7,0*
20,1,$1+$1,$6,$7,$8,$9,0*
20,1,$1+$1,$8,$9,$2,$3,0*%
G04 Aperture macros list end*
%TA.AperFunction,NonConductor*%
%ADD10C,0.200000*%
%TD*%
%TA.AperFunction,ComponentPad*%
%ADD11R,1.800000X1.800000*%
%TD*%
%TA.AperFunction,ComponentPad*%
%ADD12C,1.800000*%
%TD*%
%TA.AperFunction,ComponentPad*%
%ADD13C,1.600000*%
%TD*%
%TA.AperFunction,ComponentPad*%
%ADD14RoundRect,0.750000X-1.250000X-0.750000X1.250000X-0.750000X1.250000X0.750000X-1.250000X0.750000X0*%
%TD*%
%TA.AperFunction,ComponentPad*%
%ADD15R,1.700000X1.700000*%
%TD*%
%TA.AperFunction,ComponentPad*%
%ADD16C,1.700000*%
%TD*%
G04 APERTURE END LIST*
D10*
X130000000Y-78000000D02*
X156500000Y-78000000D01*
X156500000Y-112000000D01*
X130000000Y-112000000D01*
X130000000Y-78000000D01*
D11*
%TO.P,D1,1,K*%
%TO.N,/GND*%
X141100000Y-107600000D03*
D12*
%TO.P,D1,2,A*%
%TO.N,Net-(D1-A)*%
X141100000Y-105060000D03*
%TD*%
D13*
%TO.P,R1,1*%
%TO.N,/+5V*%
X139665000Y-83125000D03*
%TO.P,R1,2*%
%TO.N,Net-(R1-Pad2)*%
X147285000Y-83125000D03*
%TD*%
D11*
%TO.P,RV1,1,1*%
%TO.N,Net-(R1-Pad2)*%
X141150000Y-90790000D03*
D12*
%TO.P,RV1,2,2*%
%TO.N,Net-(D1-A)*%
X141150000Y-93290000D03*
%TO.P,RV1,3,3*%
%TO.N,/GND*%
X141150000Y-95790000D03*
D14*
%TO.P,RV1,MP*%
%TO.N,N/C*%
X148150000Y-88890000D03*
X148150000Y-97690000D03*
%TD*%
D15*
%TO.P,J1,1,Pin_1*%
%TO.N,/+5V*%
X136000000Y-91375000D03*
D16*
%TO.P,J1,2,Pin_2*%
%TO.N,/GND*%
X136000000Y-93915000D03*
%TD*%
%TA.AperFunction,NonConductor*%
G36*
X154942539Y-79520185D02*
G01*
X154988294Y-79572989D01*
X154999500Y-79624500D01*
X154999500Y-110375500D01*
X154979815Y-110442539D01*
X154927011Y-110488294D01*
X154875500Y-110499500D01*
X131624500Y-110499500D01*
X131557461Y-110479815D01*
X131511706Y-110427011D01*
X131500500Y-110375500D01*
X131500500Y-104949778D01*
X139699500Y-104949778D01*
X139699500Y-105170221D01*
X139733985Y-105387952D01*
X139802103Y-105597603D01*
X139802104Y-105597606D01*
X139902187Y-105794025D01*
X140031752Y-105972358D01*
X140031756Y-105972363D01*
X140081928Y-106022535D01*
X140115413Y-106083858D01*
X140110429Y-106153550D01*
X140068557Y-106209483D01*
X140037581Y-106226398D01*
X139957669Y-106256203D01*
X139957664Y-106256206D01*
X139842455Y-106342452D01*
X139842452Y-106342455D01*
X139756206Y-106457664D01*
X139756202Y-106457671D01*
X139705908Y-106592517D01*
X139699501Y-106652116D01*
X139699501Y-106652123D01*
X139699500Y-106652135D01*
X139699500Y-108547870D01*
X139699501Y-108547876D01*
X139705908Y-108607483D01*
X139756202Y-108742328D01*
X139756206Y-108742335D01*
X139842452Y-108857544D01*
X139842455Y-108857547D01*
X139957664Y-108943793D01*
X139957671Y-108943797D01*
X140092517Y-108994091D01*
X140092516Y-108994091D01*
X140099444Y-108994835D01*
X140152127Y-109000500D01*
X142047872Y-109000499D01*
X142107483Y-108994091D01*
X142242331Y-108943796D01*
X142357546Y-108857546D01*
X142443796Y-108742331D01*
X142494091Y-108607483D01*
X142500500Y-108547873D01*
X142500499Y-106652128D01*
X142494091Y-106592517D01*
X142443796Y-106457669D01*
X142443795Y-106457668D01*
X142443793Y-106457664D01*
X142357547Y-106342455D01*
X142357544Y-106342452D01*
X142242335Y-106256206D01*
X142242328Y-106256202D01*
X142162419Y-106226398D01*
X142106485Y-106184527D01*
X142082068Y-106119062D01*
X142096920Y-106050789D01*
X142118069Y-106022537D01*
X142168242Y-105972365D01*
X142297815Y-105794022D01*
X142397895Y-105597606D01*
X142466015Y-105387951D01*
X142500500Y-105170222D01*
X142500500Y-104949778D01*
X142466015Y-104732049D01*
X142397895Y-104522394D01*
X142397895Y-104522393D01*
X142363237Y-104454375D01*
X142297815Y-104325978D01*
X142281260Y-104303192D01*
X142168247Y-104147641D01*
X142168243Y-104147636D01*
X142012363Y-103991756D01*
X142012358Y-103991752D01*
X141834025Y-103862187D01*
X141834024Y-103862186D01*
X141834022Y-103862185D01*
X141771096Y-103830122D01*
X141637606Y-103762104D01*
X141637603Y-103762103D01*
X141427952Y-103693985D01*
X141319086Y-103676742D01*
X141210222Y-103659500D01*
X140989778Y-103659500D01*
X140917201Y-103670995D01*
X140772047Y-103693985D01*
X140562396Y-103762103D01*
X140562393Y-103762104D01*
X140365974Y-103862187D01*
X140187641Y-103991752D01*
X140187636Y-103991756D01*
X140031756Y-104147636D01*
X140031752Y-104147641D01*
X139902187Y-104325974D01*
X139802104Y-104522393D01*
X139802103Y-104522396D01*
X139733985Y-104732047D01*
X139699500Y-104949778D01*
X131500500Y-104949778D01*
X131500500Y-90477135D01*
X134649500Y-90477135D01*
X134649500Y-92272870D01*
X134649501Y-92272876D01*
X134655908Y-92332483D01*
X134706202Y-92467328D01*
X134706206Y-92467335D01*
X134792452Y-92582544D01*
X134792455Y-92582547D01*
X134907664Y-92668793D01*
X134907671Y-92668797D01*
X135039082Y-92717810D01*
X135095016Y-92759681D01*
X135119433Y-92825145D01*
X135104582Y-92893418D01*
X135083431Y-92921673D01*
X134969889Y-93035215D01*
X134844951Y-93207179D01*
X134748444Y-93396585D01*
X134682753Y-93598760D01*
X134649500Y-93808713D01*
X134649500Y-94021287D01*
X134682754Y-94231243D01*
X134724020Y-94358247D01*
X134748444Y-94433414D01*
X134844951Y-94622820D01*
X134969890Y-94794786D01*
X135120213Y-94945109D01*
X135292179Y-95070048D01*
X135292181Y-95070049D01*
X135292184Y-95070051D01*
X135481588Y-95166557D01*
X135683757Y-95232246D01*
X135893713Y-95265500D01*
X135893714Y-95265500D01*
X136106286Y-95265500D01*
X136106287Y-95265500D01*
X136316243Y-95232246D01*
X136518412Y-95166557D01*
X136707816Y-95070051D01*
X136729789Y-95054086D01*
X136879786Y-94945109D01*
X136879788Y-94945106D01*
X136879792Y-94945104D01*
X137030104Y-94794792D01*
X137030106Y-94794788D01*
X137030109Y-94794786D01*
X137142335Y-94640318D01*
X137155051Y-94622816D01*
X137251557Y-94433412D01*
X137317246Y-94231243D01*
X137350500Y-94021287D01*
X137350500Y-93808713D01*
X137317246Y-93598757D01*
X137251557Y-93396588D01*
X137155051Y-93207184D01*
X137155049Y-93207181D01*
X137155048Y-93207179D01*
X137030109Y-93035213D01*
X136916569Y-92921673D01*
X136883084Y-92860350D01*
X136888068Y-92790658D01*
X136929940Y-92734725D01*
X136960915Y-92717810D01*
X137092331Y-92668796D01*
X137207546Y-92582546D01*
X137293796Y-92467331D01*
X137344091Y-92332483D01*
X137350500Y-92272873D01*
X137350499Y-90477128D01*
X137344091Y-90417517D01*
X137293796Y-90282669D01*
X137293795Y-90282668D01*
X137293793Y-90282664D01*
X137207547Y-90167455D01*
X137207544Y-90167452D01*
X137092335Y-90081206D01*
X137092328Y-90081202D01*
X136957482Y-90030908D01*
X136957483Y-90030908D01*
X136897883Y-90024501D01*
X136897881Y-90024500D01*
X136897873Y-90024500D01*
X136897864Y-90024500D01*
X135102129Y-90024500D01*
X135102123Y-90024501D01*
X135042516Y-90030908D01*
X134907671Y-90081202D01*
X134907664Y-90081206D01*
X134792455Y-90167452D01*
X134792452Y-90167455D01*
X134706206Y-90282664D01*
X134706202Y-90282671D01*
X134655908Y-90417517D01*
X134649501Y-90477116D01*
X134649501Y-90477123D01*
X134649500Y-90477135D01*
X131500500Y-90477135D01*
X131500500Y-89842135D01*
X139749500Y-89842135D01*
X139749500Y-91737870D01*
X139749501Y-91737876D01*
X139755908Y-91797483D01*
X139806202Y-91932328D01*
X139806206Y-91932335D01*
X139892452Y-92047544D01*
X139892455Y-92047547D01*
X140007664Y-92133793D01*
X140007671Y-92133797D01*
X140058446Y-92152735D01*
X140114380Y-92194606D01*
X140138797Y-92260070D01*
X140123945Y-92328343D01*
X140102796Y-92356596D01*
X140081757Y-92377635D01*
X140081752Y-92377641D01*
X139952187Y-92555974D01*
X139852104Y-92752393D01*
X139852103Y-92752396D01*
X139783985Y-92962047D01*
X139749500Y-93179778D01*
X139749500Y-93400221D01*
X139783985Y-93617952D01*
X139852103Y-93827603D01*
X139852104Y-93827606D01*
X139920122Y-93961096D01*
X139950791Y-94021287D01*
X139952187Y-94024025D01*
X140081752Y-94202358D01*
X140081756Y-94202363D01*
X140237636Y-94358243D01*
X140237641Y-94358247D01*
X140349727Y-94439682D01*
X140392393Y-94495011D01*
X140398372Y-94564625D01*
X140365767Y-94626420D01*
X140349727Y-94640318D01*
X140237641Y-94721752D01*
X140237636Y-94721756D01*
X140081756Y-94877636D01*
X140081752Y-94877641D01*
X139952187Y-95055974D01*
X139852104Y-95252393D01*
X139852103Y-95252396D01*
X139783985Y-95462047D01*
X139749500Y-95679778D01*
X139749500Y-95900221D01*
X139783985Y-96117952D01*
X139852103Y-96327603D01*
X139852104Y-96327606D01*
X139952187Y-96524025D01*
X140081752Y-96702358D01*
X140081756Y-96702363D01*
X140237636Y-96858243D01*
X140237641Y-96858247D01*
X140261789Y-96875791D01*
X140415978Y-96987815D01*
X140544375Y-97053237D01*
X140612393Y-97087895D01*
X140612396Y-97087896D01*
X140717221Y-97121955D01*
X140822049Y-97156015D01*
X141039778Y-97190500D01*
X141039779Y-97190500D01*
X141260221Y-97190500D01*
X141260222Y-97190500D01*
X141477951Y-97156015D01*
X141687606Y-97087895D01*
X141884022Y-96987815D01*
X142038230Y-96875777D01*
X145649500Y-96875777D01*
X145649500Y-98504208D01*
X145649501Y-98504223D01*
X145659904Y-98636413D01*
X145659905Y-98636420D01*
X145714902Y-98854678D01*
X145714903Y-98854681D01*
X145807991Y-99059622D01*
X145807997Y-99059632D01*
X145936174Y-99244645D01*
X145936178Y-99244650D01*
X145936181Y-99244654D01*
X146095346Y-99403819D01*
X146095350Y-99403822D01*
X146095354Y-99403825D01*
X146234603Y-99500297D01*
X146280374Y-99532007D01*
X146485317Y-99625096D01*
X146485321Y-99625097D01*
X146703579Y-99680094D01*
X146703581Y-99680094D01*
X146703588Y-99680096D01*
X146835783Y-99690500D01*
X149464216Y-99690499D01*
X149596412Y-99680096D01*
X149814683Y-99625096D01*
X150019626Y-99532007D01*
X150204654Y-99403819D01*
X150363819Y-99244654D01*
X150492007Y-99059626D01*
X150585096Y-98854683D01*
X150640096Y-98636412D01*
X150650500Y-98504217D01*
X150650499Y-96875784D01*
X150640096Y-96743588D01*
X150585096Y-96525317D01*
X150492007Y-96320374D01*
X150363819Y-96135346D01*
X150204654Y-95976181D01*
X150204650Y-95976178D01*
X150204645Y-95976174D01*
X150019632Y-95847997D01*
X150019630Y-95847995D01*
X150019626Y-95847993D01*
X149814683Y-95754904D01*
X149814681Y-95754903D01*
X149814678Y-95754902D01*
X149596420Y-95699905D01*
X149596413Y-95699904D01*
X149552347Y-95696436D01*
X149464217Y-95689500D01*
X149464215Y-95689500D01*
X146835791Y-95689500D01*
X146835776Y-95689501D01*
X146703586Y-95699904D01*
X146703579Y-95699905D01*
X146485321Y-95754902D01*
X146485318Y-95754903D01*
X146280377Y-95847991D01*
X146280367Y-95847997D01*
X146095354Y-95976174D01*
X146095342Y-95976184D01*
X145936184Y-96135342D01*
X145936174Y-96135354D01*
X145807997Y-96320367D01*
X145807991Y-96320377D01*
X145714903Y-96525318D01*
X145714902Y-96525321D01*
X145659905Y-96743579D01*
X145659904Y-96743586D01*
X145649500Y-96875777D01*
X142038230Y-96875777D01*
X142062365Y-96858242D01*
X142218242Y-96702365D01*
X142347815Y-96524022D01*
X142447895Y-96327606D01*
X142516015Y-96117951D01*
X142550500Y-95900222D01*
X142550500Y-95679778D01*
X142516015Y-95462049D01*
X142481955Y-95357221D01*
X142447896Y-95252396D01*
X142447895Y-95252393D01*
X142404157Y-95166555D01*
X142347815Y-95055978D01*
X142331260Y-95033192D01*
X142218247Y-94877641D01*
X142218243Y-94877636D01*
X142062365Y-94721758D01*
X142062357Y-94721752D01*
X141950270Y-94640317D01*
X141907606Y-94584989D01*
X141901627Y-94515376D01*
X141934232Y-94453580D01*
X141950265Y-94439686D01*
X142062365Y-94358242D01*
X142218242Y-94202365D01*
X142347815Y-94024022D01*
X142447895Y-93827606D01*
X142516015Y-93617951D01*
X142550500Y-93400222D01*
X142550500Y-93179778D01*
X142516015Y-92962049D01*
X142447895Y-92752394D01*
X142447895Y-92752393D01*
X142405298Y-92668793D01*
X142347815Y-92555978D01*
X142331260Y-92533192D01*
X142218247Y-92377641D01*
X142218243Y-92377636D01*
X142197205Y-92356598D01*
X142163720Y-92295275D01*
X142168704Y-92225583D01*
X142210576Y-92169650D01*
X142241554Y-92152735D01*
X142292326Y-92133798D01*
X142292326Y-92133797D01*
X142292331Y-92133796D01*
X142407546Y-92047546D01*
X142493796Y-91932331D01*
X142544091Y-91797483D01*
X142550500Y-91737873D01*
X142550499Y-89842128D01*
X142544091Y-89782517D01*
X142514889Y-89704223D01*
X142493797Y-89647671D01*
X142493793Y-89647664D01*
X142407547Y-89532455D01*
X142407544Y-89532452D01*
X142292335Y-89446206D01*
X142292328Y-89446202D01*
X142157482Y-89395908D01*
X142157483Y-89395908D01*
X142097883Y-89389501D01*
X142097881Y-89389500D01*
X142097873Y-89389500D01*
X142097864Y-89389500D01*
X140202129Y-89389500D01*
X140202123Y-89389501D01*
X140142516Y-89395908D01*
X140007671Y-89446202D01*
X140007664Y-89446206D01*
X139892455Y-89532452D01*
X139892452Y-89532455D01*
X139806206Y-89647664D01*
X139806202Y-89647671D01*
X139755908Y-89782517D01*
X139749501Y-89842116D01*
X139749501Y-89842123D01*
X139749500Y-89842135D01*
X131500500Y-89842135D01*
X131500500Y-88075777D01*
X145649500Y-88075777D01*
X145649500Y-89704208D01*
X145649501Y-89704223D01*
X145659904Y-89836413D01*
X145659905Y-89836420D01*
X145714902Y-90054678D01*
X145714903Y-90054681D01*
X145807991Y-90259622D01*
X145807997Y-90259632D01*
X145936174Y-90444645D01*
X145936178Y-90444650D01*
X145936181Y-90444654D01*
X146095346Y-90603819D01*
X146095350Y-90603822D01*
X146095354Y-90603825D01*
X146234603Y-90700297D01*
X146280374Y-90732007D01*
X146485317Y-90825096D01*
X146485321Y-90825097D01*
X146703579Y-90880094D01*
X146703581Y-90880094D01*
X146703588Y-90880096D01*
X146835783Y-90890500D01*
X149464216Y-90890499D01*
X149596412Y-90880096D01*
X149814683Y-90825096D01*
X150019626Y-90732007D01*
X150204654Y-90603819D01*
X150363819Y-90444654D01*
X150492007Y-90259626D01*
X150585096Y-90054683D01*
X150640096Y-89836412D01*
X150650500Y-89704217D01*
X150650499Y-88075784D01*
X150640096Y-87943588D01*
X150585096Y-87725317D01*
X150492007Y-87520374D01*
X150363819Y-87335346D01*
X150204654Y-87176181D01*
X150204650Y-87176178D01*
X150204645Y-87176174D01*
X150019632Y-87047997D01*
X150019630Y-87047995D01*
X150019626Y-87047993D01*
X149814683Y-86954904D01*
X149814681Y-86954903D01*
X149814678Y-86954902D01*
X149596420Y-86899905D01*
X149596413Y-86899904D01*
X149552347Y-86896436D01*
X149464217Y-86889500D01*
X149464215Y-86889500D01*
X146835791Y-86889500D01*
X146835776Y-86889501D01*
X146703586Y-86899904D01*
X146703579Y-86899905D01*
X146485321Y-86954902D01*
X146485318Y-86954903D01*
X146280377Y-87047991D01*
X146280367Y-87047997D01*
X146095354Y-87176174D01*
X146095342Y-87176184D01*
X145936184Y-87335342D01*
X145936174Y-87335354D01*
X145807997Y-87520367D01*
X145807991Y-87520377D01*
X145714903Y-87725318D01*
X145714902Y-87725321D01*
X145659905Y-87943579D01*
X145659904Y-87943586D01*
X145649500Y-88075777D01*
X131500500Y-88075777D01*
X131500500Y-83022648D01*
X138364500Y-83022648D01*
X138364500Y-83227351D01*
X138396522Y-83429534D01*
X138459781Y-83624223D01*
X138552715Y-83806613D01*
X138673028Y-83972213D01*
X138817786Y-84116971D01*
X138972749Y-84229556D01*
X138983390Y-84237287D01*
X139099607Y-84296503D01*
X139165776Y-84330218D01*
X139165778Y-84330218D01*
X139165781Y-84330220D01*
X139270137Y-84364127D01*
X139360465Y-84393477D01*
X139461557Y-84409488D01*
X139562648Y-84425500D01*
X139562649Y-84425500D01*
X139767351Y-84425500D01*
X139767352Y-84425500D01*
X139969534Y-84393477D01*
X140164219Y-84330220D01*
X140346610Y-84237287D01*
X140439590Y-84169732D01*
X140512213Y-84116971D01*
X140512215Y-84116968D01*
X140512219Y-84116966D01*
X140656966Y-83972219D01*
X140656968Y-83972215D01*
X140656971Y-83972213D01*
X140709732Y-83899590D01*
X140777287Y-83806610D01*
X140870220Y-83624219D01*
X140933477Y-83429534D01*
X140965500Y-83227352D01*
X140965500Y-83022648D01*
X145984500Y-83022648D01*
X145984500Y-83227351D01*
X146016522Y-83429534D01*
X146079781Y-83624223D01*
X146172715Y-83806613D01*
X146293028Y-83972213D01*
X146437786Y-84116971D01*
X146592749Y-84229556D01*
X146603390Y-84237287D01*
X146719607Y-84296503D01*
X146785776Y-84330218D01*
X146785778Y-84330218D01*
X146785781Y-84330220D01*
X146890137Y-84364127D01*
X146980465Y-84393477D01*
X147081557Y-84409488D01*
X147182648Y-84425500D01*
X147182649Y-84425500D01*
X147387351Y-84425500D01*
X147387352Y-84425500D01*
X147589534Y-84393477D01*
X147784219Y-84330220D01*
X147966610Y-84237287D01*
X148059590Y-84169732D01*
X148132213Y-84116971D01*
X148132215Y-84116968D01*
X148132219Y-84116966D01*
X148276966Y-83972219D01*
X148276968Y-83972215D01*
X148276971Y-83972213D01*
X148329732Y-83899590D01*
X148397287Y-83806610D01*
X148490220Y-83624219D01*
X148553477Y-83429534D01*
X148585500Y-83227352D01*
X148585500Y-83022648D01*
X148553477Y-82820466D01*
X148490220Y-82625781D01*
X148490218Y-82625778D01*
X148490218Y-82625776D01*
X148456503Y-82559607D01*
X148397287Y-82443390D01*
X148389556Y-82432749D01*
X148276971Y-82277786D01*
X148132213Y-82133028D01*
X147966613Y-82012715D01*
X147966612Y-82012714D01*
X147966610Y-82012713D01*
X147909653Y-81983691D01*
X147784223Y-81919781D01*
X147589534Y-81856522D01*
X147414995Y-81828878D01*
X147387352Y-81824500D01*
X147182648Y-81824500D01*
X147158329Y-81828351D01*
X146980465Y-81856522D01*
X146785776Y-81919781D01*
X146603386Y-82012715D01*
X146437786Y-82133028D01*
X146293028Y-82277786D01*
X146172715Y-82443386D01*
X146079781Y-82625776D01*
X146016522Y-82820465D01*
X145984500Y-83022648D01*
X140965500Y-83022648D01*
X140933477Y-82820466D01*
X140870220Y-82625781D01*
X140870218Y-82625778D01*
X140870218Y-82625776D01*
X140836503Y-82559607D01*
X140777287Y-82443390D01*
X140769556Y-82432749D01*
X140656971Y-82277786D01*
X140512213Y-82133028D01*
X140346613Y-82012715D01*
X140346612Y-82012714D01*
X140346610Y-82012713D01*
X140289653Y-81983691D01*
X140164223Y-81919781D01*
X139969534Y-81856522D01*
X139794995Y-81828878D01*
X139767352Y-81824500D01*
X139562648Y-81824500D01*
X139538329Y-81828351D01*
X139360465Y-81856522D01*
X139165776Y-81919781D01*
X138983386Y-82012715D01*
X138817786Y-82133028D01*
X138673028Y-82277786D01*
X138552715Y-82443386D01*
X138459781Y-82625776D01*
X138396522Y-82820465D01*
X138364500Y-83022648D01*
X131500500Y-83022648D01*
X131500500Y-79624500D01*
X131520185Y-79557461D01*
X131572989Y-79511706D01*
X131624500Y-79500500D01*
X154875500Y-79500500D01*
X154942539Y-79520185D01*
G37*
%TD.AperFunction*%
M02*
