%TF.GenerationSoftware,KiCad,Pcbnew,9.0.3*%
%TF.CreationDate,2026-07-30T19:39:53+05:30*%
%TF.ProjectId,11_555_Astable_Multivibrator,31315f35-3535-45f4-9173-7461626c655f,rev?*%
%TF.SameCoordinates,Original*%
%TF.FileFunction,Copper,L1,Top*%
%TF.FilePolarity,Positive*%
%FSLAX46Y46*%
G04 Gerber Fmt 4.6, Leading zero omitted, Abs format (unit mm)*
G04 Created by KiCad (PCBNEW 9.0.3) date 2026-07-30 19:39:53*
%MOMM*%
%LPD*%
G01*
G04 APERTURE LIST*
G04 Aperture macros list*
%AMRoundRect*
0 Rectangle with rounded corners*
0 $1 Rounding radius*
0 $2 $3 $4 $5 $6 $7 $8 $9 X,Y pos of 4 corners*
0 Add a 4 corners polygon primitive as box body*
4,1,4,$2,$3,$4,$5,$6,$7,$8,$9,$2,$3,0*
0 Add four circle primitives for the rounded corners*
1,1,$1+$1,$2,$3*
1,1,$1+$1,$4,$5*
1,1,$1+$1,$6,$7*
1,1,$1+$1,$8,$9*
0 Add four rect primitives between the rounded corners*
20,1,$1+$1,$2,$3,$4,$5,0*
20,1,$1+$1,$4,$5,$6,$7,0*
20,1,$1+$1,$6,$7,$8,$9,0*
20,1,$1+$1,$8,$9,$2,$3,0*%
G04 Aperture macros list end*
%TA.AperFunction,NonConductor*%
%ADD10C,0.200000*%
%TD*%
%TA.AperFunction,ComponentPad*%
%ADD11C,1.800000*%
%TD*%
%TA.AperFunction,ComponentPad*%
%ADD12R,1.800000X1.800000*%
%TD*%
%TA.AperFunction,ComponentPad*%
%ADD13C,1.600000*%
%TD*%
%TA.AperFunction,ComponentPad*%
%ADD14RoundRect,0.250000X-0.550000X-0.550000X0.550000X-0.550000X0.550000X0.550000X-0.550000X0.550000X0*%
%TD*%
%TA.AperFunction,ComponentPad*%
%ADD15R,1.700000X1.700000*%
%TD*%
%TA.AperFunction,ComponentPad*%
%ADD16C,1.700000*%
%TD*%
%TA.AperFunction,Conductor*%
%ADD17C,0.200000*%
%TD*%
G04 APERTURE END LIST*
D10*
X118500000Y-84000000D02*
X155500000Y-84000000D01*
X155500000Y-109500000D01*
X118500000Y-109500000D01*
X118500000Y-84000000D01*
D11*
%TO.P,D1,2,A*%
%TO.N,Net-(D1-A)*%
X124960000Y-100400000D03*
D12*
%TO.P,D1,1,K*%
%TO.N,GND*%
X127500000Y-100400000D03*
%TD*%
D13*
%TO.P,R3,2*%
%TO.N,Net-(U1-Q)*%
X129970000Y-92475000D03*
%TO.P,R3,1*%
%TO.N,Net-(D1-A)*%
X122350000Y-92475000D03*
%TD*%
%TO.P,R2,2*%
%TO.N,Net-(U1-THR)*%
X144065000Y-94775000D03*
%TO.P,R2,1*%
%TO.N,Net-(U1-DIS)*%
X151685000Y-94775000D03*
%TD*%
%TO.P,R1,2*%
%TO.N,Net-(U1-DIS)*%
X151735000Y-90250000D03*
%TO.P,R1,1*%
%TO.N,+5V*%
X144115000Y-90250000D03*
%TD*%
D14*
%TO.P,U1,1,GND*%
%TO.N,GND*%
X133145000Y-94340000D03*
D13*
%TO.P,U1,2,TR*%
%TO.N,Net-(U1-THR)*%
X133145000Y-96880000D03*
%TO.P,U1,3,Q*%
%TO.N,Net-(U1-Q)*%
X133145000Y-99420000D03*
%TO.P,U1,4,R*%
%TO.N,+5V*%
X133145000Y-101960000D03*
%TO.P,U1,5,CV*%
%TO.N,Net-(U1-CV)*%
X140765000Y-101960000D03*
%TO.P,U1,6,THR*%
%TO.N,Net-(U1-THR)*%
X140765000Y-99420000D03*
%TO.P,U1,7,DIS*%
%TO.N,Net-(U1-DIS)*%
X140765000Y-96880000D03*
%TO.P,U1,8,VCC*%
%TO.N,+5V*%
X140765000Y-94340000D03*
%TD*%
D15*
%TO.P,J1,1,Pin_1*%
%TO.N,+5V*%
X138125000Y-89700000D03*
D16*
%TO.P,J1,2,Pin_2*%
%TO.N,GND*%
X135585000Y-89700000D03*
%TD*%
D13*
%TO.P,C2,1*%
%TO.N,Net-(U1-CV)*%
X145125000Y-104900000D03*
%TO.P,C2,2*%
%TO.N,GND*%
X150125000Y-104900000D03*
%TD*%
%TO.P,C1,1*%
%TO.N,Net-(U1-THR)*%
X145375000Y-99775000D03*
%TO.P,C1,2*%
%TO.N,GND*%
X150375000Y-99775000D03*
%TD*%
D17*
%TO.N,Net-(U1-Q)*%
X129970000Y-98770000D02*
X129970000Y-92475000D01*
X130620000Y-99420000D02*
X129970000Y-98770000D01*
X133145000Y-99420000D02*
X130620000Y-99420000D01*
%TO.N,Net-(U1-THR)*%
X145375000Y-96085000D02*
X144065000Y-94775000D01*
X145375000Y-99775000D02*
X145375000Y-96085000D01*
X145020000Y-99420000D02*
X145375000Y-99775000D01*
X140765000Y-99420000D02*
X145020000Y-99420000D01*
X138225000Y-96880000D02*
X140765000Y-99420000D01*
X133145000Y-96880000D02*
X138225000Y-96880000D01*
%TD*%
%TA.AperFunction,NonConductor*%
G36*
X152942539Y-86520185D02*
G01*
X152988294Y-86572989D01*
X152999500Y-86624500D01*
X152999500Y-89396258D01*
X152979815Y-89463297D01*
X152927011Y-89509052D01*
X152857853Y-89518996D01*
X152794297Y-89489971D01*
X152775182Y-89469144D01*
X152726967Y-89402782D01*
X152582213Y-89258028D01*
X152416613Y-89137715D01*
X152416612Y-89137714D01*
X152416610Y-89137713D01*
X152359653Y-89108691D01*
X152234223Y-89044781D01*
X152039534Y-88981522D01*
X151864995Y-88953878D01*
X151837352Y-88949500D01*
X151632648Y-88949500D01*
X151608329Y-88953351D01*
X151430465Y-88981522D01*
X151235776Y-89044781D01*
X151053386Y-89137715D01*
X150887786Y-89258028D01*
X150743028Y-89402786D01*
X150622715Y-89568386D01*
X150529781Y-89750776D01*
X150466522Y-89945465D01*
X150434500Y-90147648D01*
X150434500Y-90352351D01*
X150466522Y-90554534D01*
X150529781Y-90749223D01*
X150583704Y-90855051D01*
X150610452Y-90907547D01*
X150622715Y-90931613D01*
X150743028Y-91097213D01*
X150887786Y-91241971D01*
X151042749Y-91354556D01*
X151053390Y-91362287D01*
X151169607Y-91421503D01*
X151235776Y-91455218D01*
X151235778Y-91455218D01*
X151235781Y-91455220D01*
X151321365Y-91483028D01*
X151430465Y-91518477D01*
X151531557Y-91534488D01*
X151632648Y-91550500D01*
X151632649Y-91550500D01*
X151837351Y-91550500D01*
X151837352Y-91550500D01*
X152039534Y-91518477D01*
X152234219Y-91455220D01*
X152416610Y-91362287D01*
X152543936Y-91269780D01*
X152582213Y-91241971D01*
X152582215Y-91241968D01*
X152582219Y-91241966D01*
X152726966Y-91097219D01*
X152726968Y-91097215D01*
X152726971Y-91097213D01*
X152775182Y-91030856D01*
X152830511Y-90988190D01*
X152900125Y-90982211D01*
X152961920Y-91014816D01*
X152996277Y-91075655D01*
X152999500Y-91103741D01*
X152999500Y-93990078D01*
X152979815Y-94057117D01*
X152927011Y-94102872D01*
X152857853Y-94112816D01*
X152794297Y-94083791D01*
X152775182Y-94062963D01*
X152676971Y-93927787D01*
X152676967Y-93927782D01*
X152532213Y-93783028D01*
X152366613Y-93662715D01*
X152366612Y-93662714D01*
X152366610Y-93662713D01*
X152299687Y-93628614D01*
X152184223Y-93569781D01*
X151989534Y-93506522D01*
X151814995Y-93478878D01*
X151787352Y-93474500D01*
X151582648Y-93474500D01*
X151558329Y-93478351D01*
X151380465Y-93506522D01*
X151185776Y-93569781D01*
X151003386Y-93662715D01*
X150837786Y-93783028D01*
X150693028Y-93927786D01*
X150572715Y-94093386D01*
X150479781Y-94275776D01*
X150416522Y-94470465D01*
X150384500Y-94672648D01*
X150384500Y-94877351D01*
X150416522Y-95079534D01*
X150479781Y-95274223D01*
X150509206Y-95331971D01*
X150570510Y-95452287D01*
X150572715Y-95456613D01*
X150693028Y-95622213D01*
X150837786Y-95766971D01*
X150992749Y-95879556D01*
X151003390Y-95887287D01*
X151119607Y-95946503D01*
X151185776Y-95980218D01*
X151185778Y-95980218D01*
X151185781Y-95980220D01*
X151290137Y-96014127D01*
X151380465Y-96043477D01*
X151481557Y-96059488D01*
X151582648Y-96075500D01*
X151582649Y-96075500D01*
X151787351Y-96075500D01*
X151787352Y-96075500D01*
X151989534Y-96043477D01*
X152184219Y-95980220D01*
X152366610Y-95887287D01*
X152459590Y-95819732D01*
X152532213Y-95766971D01*
X152532215Y-95766968D01*
X152532219Y-95766966D01*
X152676966Y-95622219D01*
X152775181Y-95487035D01*
X152830511Y-95444370D01*
X152900125Y-95438391D01*
X152961920Y-95470996D01*
X152996277Y-95531835D01*
X152999500Y-95559921D01*
X152999500Y-106875500D01*
X152979815Y-106942539D01*
X152927011Y-106988294D01*
X152875500Y-106999500D01*
X121124500Y-106999500D01*
X121057461Y-106979815D01*
X121011706Y-106927011D01*
X121000500Y-106875500D01*
X121000500Y-104797648D01*
X143824500Y-104797648D01*
X143824500Y-105002351D01*
X143856522Y-105204534D01*
X143919781Y-105399223D01*
X144012715Y-105581613D01*
X144133028Y-105747213D01*
X144277786Y-105891971D01*
X144432749Y-106004556D01*
X144443390Y-106012287D01*
X144559607Y-106071503D01*
X144625776Y-106105218D01*
X144625778Y-106105218D01*
X144625781Y-106105220D01*
X144730137Y-106139127D01*
X144820465Y-106168477D01*
X144921557Y-106184488D01*
X145022648Y-106200500D01*
X145022649Y-106200500D01*
X145227351Y-106200500D01*
X145227352Y-106200500D01*
X145429534Y-106168477D01*
X145624219Y-106105220D01*
X145806610Y-106012287D01*
X145899590Y-105944732D01*
X145972213Y-105891971D01*
X145972215Y-105891968D01*
X145972219Y-105891966D01*
X146116966Y-105747219D01*
X146116968Y-105747215D01*
X146116971Y-105747213D01*
X146169732Y-105674590D01*
X146237287Y-105581610D01*
X146330220Y-105399219D01*
X146393477Y-105204534D01*
X146425500Y-105002352D01*
X146425500Y-104797648D01*
X148824500Y-104797648D01*
X148824500Y-105002351D01*
X148856522Y-105204534D01*
X148919781Y-105399223D01*
X149012715Y-105581613D01*
X149133028Y-105747213D01*
X149277786Y-105891971D01*
X149432749Y-106004556D01*
X149443390Y-106012287D01*
X149559607Y-106071503D01*
X149625776Y-106105218D01*
X149625778Y-106105218D01*
X149625781Y-106105220D01*
X149730137Y-106139127D01*
X149820465Y-106168477D01*
X149921557Y-106184488D01*
X150022648Y-106200500D01*
X150022649Y-106200500D01*
X150227351Y-106200500D01*
X150227352Y-106200500D01*
X150429534Y-106168477D01*
X150624219Y-106105220D01*
X150806610Y-106012287D01*
X150899590Y-105944732D01*
X150972213Y-105891971D01*
X150972215Y-105891968D01*
X150972219Y-105891966D01*
X151116966Y-105747219D01*
X151116968Y-105747215D01*
X151116971Y-105747213D01*
X151169732Y-105674590D01*
X151237287Y-105581610D01*
X151330220Y-105399219D01*
X151393477Y-105204534D01*
X151425500Y-105002352D01*
X151425500Y-104797648D01*
X151393477Y-104595466D01*
X151330220Y-104400781D01*
X151330218Y-104400778D01*
X151330218Y-104400776D01*
X151296503Y-104334607D01*
X151237287Y-104218390D01*
X151229556Y-104207749D01*
X151116971Y-104052786D01*
X150972213Y-103908028D01*
X150806613Y-103787715D01*
X150806612Y-103787714D01*
X150806610Y-103787713D01*
X150749653Y-103758691D01*
X150624223Y-103694781D01*
X150429534Y-103631522D01*
X150254995Y-103603878D01*
X150227352Y-103599500D01*
X150022648Y-103599500D01*
X149998329Y-103603351D01*
X149820465Y-103631522D01*
X149625776Y-103694781D01*
X149443386Y-103787715D01*
X149277786Y-103908028D01*
X149133028Y-104052786D01*
X149012715Y-104218386D01*
X148919781Y-104400776D01*
X148856522Y-104595465D01*
X148824500Y-104797648D01*
X146425500Y-104797648D01*
X146393477Y-104595466D01*
X146330220Y-104400781D01*
X146330218Y-104400778D01*
X146330218Y-104400776D01*
X146296503Y-104334607D01*
X146237287Y-104218390D01*
X146229556Y-104207749D01*
X146116971Y-104052786D01*
X145972213Y-103908028D01*
X145806613Y-103787715D01*
X145806612Y-103787714D01*
X145806610Y-103787713D01*
X145749653Y-103758691D01*
X145624223Y-103694781D01*
X145429534Y-103631522D01*
X145254995Y-103603878D01*
X145227352Y-103599500D01*
X145022648Y-103599500D01*
X144998329Y-103603351D01*
X144820465Y-103631522D01*
X144625776Y-103694781D01*
X144443386Y-103787715D01*
X144277786Y-103908028D01*
X144133028Y-104052786D01*
X144012715Y-104218386D01*
X143919781Y-104400776D01*
X143856522Y-104595465D01*
X143824500Y-104797648D01*
X121000500Y-104797648D01*
X121000500Y-100289778D01*
X123559500Y-100289778D01*
X123559500Y-100510221D01*
X123593985Y-100727952D01*
X123662103Y-100937603D01*
X123662104Y-100937606D01*
X123762187Y-101134025D01*
X123891752Y-101312358D01*
X123891756Y-101312363D01*
X124047636Y-101468243D01*
X124047641Y-101468247D01*
X124149606Y-101542328D01*
X124225978Y-101597815D01*
X124354375Y-101663237D01*
X124422393Y-101697895D01*
X124422396Y-101697896D01*
X124527221Y-101731955D01*
X124632049Y-101766015D01*
X124849778Y-101800500D01*
X124849779Y-101800500D01*
X125070221Y-101800500D01*
X125070222Y-101800500D01*
X125287951Y-101766015D01*
X125497606Y-101697895D01*
X125694022Y-101597815D01*
X125872365Y-101468242D01*
X125922536Y-101418070D01*
X125983857Y-101384586D01*
X126053548Y-101389570D01*
X126109482Y-101431441D01*
X126126398Y-101462419D01*
X126156202Y-101542328D01*
X126156206Y-101542335D01*
X126242452Y-101657544D01*
X126242455Y-101657547D01*
X126357664Y-101743793D01*
X126357671Y-101743797D01*
X126492517Y-101794091D01*
X126492516Y-101794091D01*
X126499444Y-101794835D01*
X126552127Y-101800500D01*
X128447872Y-101800499D01*
X128507483Y-101794091D01*
X128642331Y-101743796D01*
X128757546Y-101657546D01*
X128843796Y-101542331D01*
X128894091Y-101407483D01*
X128900500Y-101347873D01*
X128900499Y-99452128D01*
X128894091Y-99392517D01*
X128873601Y-99337581D01*
X128843797Y-99257671D01*
X128843793Y-99257664D01*
X128757547Y-99142455D01*
X128757544Y-99142452D01*
X128642335Y-99056206D01*
X128642328Y-99056202D01*
X128507482Y-99005908D01*
X128507483Y-99005908D01*
X128447883Y-98999501D01*
X128447881Y-98999500D01*
X128447873Y-98999500D01*
X128447864Y-98999500D01*
X126552129Y-98999500D01*
X126552123Y-98999501D01*
X126492516Y-99005908D01*
X126357671Y-99056202D01*
X126357664Y-99056206D01*
X126242455Y-99142452D01*
X126242452Y-99142455D01*
X126156206Y-99257664D01*
X126156203Y-99257669D01*
X126126398Y-99337581D01*
X126084526Y-99393514D01*
X126019062Y-99417931D01*
X125950789Y-99403079D01*
X125922535Y-99381928D01*
X125872363Y-99331756D01*
X125872358Y-99331752D01*
X125694025Y-99202187D01*
X125694024Y-99202186D01*
X125694022Y-99202185D01*
X125576791Y-99142452D01*
X125497606Y-99102104D01*
X125497603Y-99102103D01*
X125287952Y-99033985D01*
X125179086Y-99016742D01*
X125070222Y-98999500D01*
X124849778Y-98999500D01*
X124777201Y-99010995D01*
X124632047Y-99033985D01*
X124422396Y-99102103D01*
X124422393Y-99102104D01*
X124225974Y-99202187D01*
X124047641Y-99331752D01*
X124047636Y-99331756D01*
X123891756Y-99487636D01*
X123891752Y-99487641D01*
X123762187Y-99665974D01*
X123662104Y-99862393D01*
X123662103Y-99862396D01*
X123593985Y-100072047D01*
X123559500Y-100289778D01*
X121000500Y-100289778D01*
X121000500Y-93207550D01*
X121020185Y-93140511D01*
X121072989Y-93094756D01*
X121142147Y-93084812D01*
X121205703Y-93113837D01*
X121234986Y-93151258D01*
X121237713Y-93156612D01*
X121358028Y-93322213D01*
X121502786Y-93466971D01*
X121644293Y-93569780D01*
X121668390Y-93587287D01*
X121767060Y-93637562D01*
X121850776Y-93680218D01*
X121850778Y-93680218D01*
X121850781Y-93680220D01*
X121925818Y-93704601D01*
X122045465Y-93743477D01*
X122146557Y-93759488D01*
X122247648Y-93775500D01*
X122247649Y-93775500D01*
X122452351Y-93775500D01*
X122452352Y-93775500D01*
X122654534Y-93743477D01*
X122849219Y-93680220D01*
X123031610Y-93587287D01*
X123142773Y-93506523D01*
X123197213Y-93466971D01*
X123197215Y-93466968D01*
X123197219Y-93466966D01*
X123341966Y-93322219D01*
X123341968Y-93322215D01*
X123341971Y-93322213D01*
X123394732Y-93249590D01*
X123462287Y-93156610D01*
X123555220Y-92974219D01*
X123618477Y-92779534D01*
X123650500Y-92577352D01*
X123650500Y-92372648D01*
X128669500Y-92372648D01*
X128669500Y-92577351D01*
X128701522Y-92779534D01*
X128764781Y-92974223D01*
X128857715Y-93156613D01*
X128978028Y-93322213D01*
X128978034Y-93322219D01*
X129122781Y-93466966D01*
X129288390Y-93587287D01*
X129301793Y-93594116D01*
X129352589Y-93642088D01*
X129369500Y-93704601D01*
X129369500Y-98683330D01*
X129369499Y-98683348D01*
X129369499Y-98849054D01*
X129369498Y-98849054D01*
X129409810Y-98999500D01*
X129410423Y-99001785D01*
X129429014Y-99033985D01*
X129468342Y-99102103D01*
X129489479Y-99138714D01*
X129489481Y-99138717D01*
X129608349Y-99257585D01*
X129608355Y-99257590D01*
X130135139Y-99784374D01*
X130135149Y-99784385D01*
X130139479Y-99788715D01*
X130139480Y-99788716D01*
X130251284Y-99900520D01*
X130336587Y-99949769D01*
X130336589Y-99949771D01*
X130388211Y-99979575D01*
X130388215Y-99979577D01*
X130540943Y-100020501D01*
X130540946Y-100020501D01*
X130706653Y-100020501D01*
X130706669Y-100020500D01*
X131915398Y-100020500D01*
X131982437Y-100040185D01*
X132025883Y-100088205D01*
X132032715Y-100101614D01*
X132153028Y-100267213D01*
X132297786Y-100411971D01*
X132433020Y-100510222D01*
X132463390Y-100532287D01*
X132554840Y-100578883D01*
X132556080Y-100579515D01*
X132606876Y-100627490D01*
X132623671Y-100695311D01*
X132601134Y-100761446D01*
X132556080Y-100800485D01*
X132463386Y-100847715D01*
X132297786Y-100968028D01*
X132153028Y-101112786D01*
X132032715Y-101278386D01*
X131939781Y-101460776D01*
X131876522Y-101655465D01*
X131844500Y-101857648D01*
X131844500Y-102062351D01*
X131876522Y-102264534D01*
X131939781Y-102459223D01*
X132032715Y-102641613D01*
X132153028Y-102807213D01*
X132297786Y-102951971D01*
X132452749Y-103064556D01*
X132463390Y-103072287D01*
X132579607Y-103131503D01*
X132645776Y-103165218D01*
X132645778Y-103165218D01*
X132645781Y-103165220D01*
X132750137Y-103199127D01*
X132840465Y-103228477D01*
X132941557Y-103244488D01*
X133042648Y-103260500D01*
X133042649Y-103260500D01*
X133247351Y-103260500D01*
X133247352Y-103260500D01*
X133449534Y-103228477D01*
X133644219Y-103165220D01*
X133826610Y-103072287D01*
X133919590Y-103004732D01*
X133992213Y-102951971D01*
X133992215Y-102951968D01*
X133992219Y-102951966D01*
X134136966Y-102807219D01*
X134136968Y-102807215D01*
X134136971Y-102807213D01*
X134189732Y-102734590D01*
X134257287Y-102641610D01*
X134350220Y-102459219D01*
X134413477Y-102264534D01*
X134445500Y-102062352D01*
X134445500Y-101857648D01*
X134413477Y-101655465D01*
X134384127Y-101565137D01*
X134350220Y-101460781D01*
X134350218Y-101460778D01*
X134350218Y-101460776D01*
X134311397Y-101384586D01*
X134257287Y-101278390D01*
X134210712Y-101214284D01*
X134136971Y-101112786D01*
X133992213Y-100968028D01*
X133826614Y-100847715D01*
X133820006Y-100844348D01*
X133733917Y-100800483D01*
X133683123Y-100752511D01*
X133666328Y-100684690D01*
X133688865Y-100618555D01*
X133733917Y-100579516D01*
X133826610Y-100532287D01*
X133856980Y-100510222D01*
X133992213Y-100411971D01*
X133992215Y-100411968D01*
X133992219Y-100411966D01*
X134136966Y-100267219D01*
X134136968Y-100267215D01*
X134136971Y-100267213D01*
X134189732Y-100194590D01*
X134257287Y-100101610D01*
X134350220Y-99919219D01*
X134413477Y-99724534D01*
X134445500Y-99522352D01*
X134445500Y-99317648D01*
X134434868Y-99250520D01*
X134413477Y-99115465D01*
X134350218Y-98920776D01*
X134313673Y-98849054D01*
X134257287Y-98738390D01*
X134217284Y-98683330D01*
X134136971Y-98572786D01*
X133992213Y-98428028D01*
X133826614Y-98307715D01*
X133820006Y-98304348D01*
X133733917Y-98260483D01*
X133683123Y-98212511D01*
X133666328Y-98144690D01*
X133688865Y-98078555D01*
X133733917Y-98039516D01*
X133826610Y-97992287D01*
X133847770Y-97976913D01*
X133992213Y-97871971D01*
X133992215Y-97871968D01*
X133992219Y-97871966D01*
X134136966Y-97727219D01*
X134136968Y-97727215D01*
X134136971Y-97727213D01*
X134257284Y-97561614D01*
X134257285Y-97561613D01*
X134257287Y-97561610D01*
X134264117Y-97548204D01*
X134312091Y-97497409D01*
X134374602Y-97480500D01*
X137924903Y-97480500D01*
X137991942Y-97500185D01*
X138012584Y-97516819D01*
X139470922Y-98975157D01*
X139504407Y-99036480D01*
X139501173Y-99101154D01*
X139500864Y-99102105D01*
X139496522Y-99115468D01*
X139464500Y-99317648D01*
X139464500Y-99522351D01*
X139496522Y-99724534D01*
X139559781Y-99919223D01*
X139611385Y-100020500D01*
X139648320Y-100092989D01*
X139652715Y-100101613D01*
X139773028Y-100267213D01*
X139917786Y-100411971D01*
X140053020Y-100510222D01*
X140083390Y-100532287D01*
X140174840Y-100578883D01*
X140176080Y-100579515D01*
X140226876Y-100627490D01*
X140243671Y-100695311D01*
X140221134Y-100761446D01*
X140176080Y-100800485D01*
X140083386Y-100847715D01*
X139917786Y-100968028D01*
X139773028Y-101112786D01*
X139652715Y-101278386D01*
X139559781Y-101460776D01*
X139496522Y-101655465D01*
X139464500Y-101857648D01*
X139464500Y-102062351D01*
X139496522Y-102264534D01*
X139559781Y-102459223D01*
X139652715Y-102641613D01*
X139773028Y-102807213D01*
X139917786Y-102951971D01*
X140072749Y-103064556D01*
X140083390Y-103072287D01*
X140199607Y-103131503D01*
X140265776Y-103165218D01*
X140265778Y-103165218D01*
X140265781Y-103165220D01*
X140370137Y-103199127D01*
X140460465Y-103228477D01*
X140561557Y-103244488D01*
X140662648Y-103260500D01*
X140662649Y-103260500D01*
X140867351Y-103260500D01*
X140867352Y-103260500D01*
X141069534Y-103228477D01*
X141264219Y-103165220D01*
X141446610Y-103072287D01*
X141539590Y-103004732D01*
X141612213Y-102951971D01*
X141612215Y-102951968D01*
X141612219Y-102951966D01*
X141756966Y-102807219D01*
X141756968Y-102807215D01*
X141756971Y-102807213D01*
X141809732Y-102734590D01*
X141877287Y-102641610D01*
X141970220Y-102459219D01*
X142033477Y-102264534D01*
X142065500Y-102062352D01*
X142065500Y-101857648D01*
X142033477Y-101655465D01*
X142004127Y-101565137D01*
X141970220Y-101460781D01*
X141970218Y-101460778D01*
X141970218Y-101460776D01*
X141931397Y-101384586D01*
X141877287Y-101278390D01*
X141830712Y-101214284D01*
X141756971Y-101112786D01*
X141612213Y-100968028D01*
X141446614Y-100847715D01*
X141440006Y-100844348D01*
X141353917Y-100800483D01*
X141303123Y-100752511D01*
X141286328Y-100684690D01*
X141308865Y-100618555D01*
X141353917Y-100579516D01*
X141446610Y-100532287D01*
X141476980Y-100510222D01*
X141612213Y-100411971D01*
X141612215Y-100411968D01*
X141612219Y-100411966D01*
X141756966Y-100267219D01*
X141756968Y-100267215D01*
X141756971Y-100267213D01*
X141877284Y-100101614D01*
X141877285Y-100101613D01*
X141877287Y-100101610D01*
X141884117Y-100088204D01*
X141932091Y-100037409D01*
X141994602Y-100020500D01*
X143997250Y-100020500D01*
X144064289Y-100040185D01*
X144110044Y-100092989D01*
X144115181Y-100106181D01*
X144169781Y-100274223D01*
X144262715Y-100456613D01*
X144383028Y-100622213D01*
X144527786Y-100766971D01*
X144638923Y-100847715D01*
X144693390Y-100887287D01*
X144809607Y-100946503D01*
X144875776Y-100980218D01*
X144875778Y-100980218D01*
X144875781Y-100980220D01*
X144980137Y-101014127D01*
X145070465Y-101043477D01*
X145171557Y-101059488D01*
X145272648Y-101075500D01*
X145272649Y-101075500D01*
X145477351Y-101075500D01*
X145477352Y-101075500D01*
X145679534Y-101043477D01*
X145874219Y-100980220D01*
X146056610Y-100887287D01*
X146176084Y-100800485D01*
X146222213Y-100766971D01*
X146222215Y-100766968D01*
X146222219Y-100766966D01*
X146366966Y-100622219D01*
X146366968Y-100622215D01*
X146366971Y-100622213D01*
X146448336Y-100510222D01*
X146487287Y-100456610D01*
X146580220Y-100274219D01*
X146643477Y-100079534D01*
X146675500Y-99877352D01*
X146675500Y-99672648D01*
X149074500Y-99672648D01*
X149074500Y-99877351D01*
X149106522Y-100079534D01*
X149169781Y-100274223D01*
X149262715Y-100456613D01*
X149383028Y-100622213D01*
X149527786Y-100766971D01*
X149638923Y-100847715D01*
X149693390Y-100887287D01*
X149809607Y-100946503D01*
X149875776Y-100980218D01*
X149875778Y-100980218D01*
X149875781Y-100980220D01*
X149980137Y-101014127D01*
X150070465Y-101043477D01*
X150171557Y-101059488D01*
X150272648Y-101075500D01*
X150272649Y-101075500D01*
X150477351Y-101075500D01*
X150477352Y-101075500D01*
X150679534Y-101043477D01*
X150874219Y-100980220D01*
X151056610Y-100887287D01*
X151176084Y-100800485D01*
X151222213Y-100766971D01*
X151222215Y-100766968D01*
X151222219Y-100766966D01*
X151366966Y-100622219D01*
X151366968Y-100622215D01*
X151366971Y-100622213D01*
X151448336Y-100510222D01*
X151487287Y-100456610D01*
X151580220Y-100274219D01*
X151643477Y-100079534D01*
X151675500Y-99877352D01*
X151675500Y-99672648D01*
X151643477Y-99470466D01*
X151637518Y-99452127D01*
X151580218Y-99275776D01*
X151542721Y-99202185D01*
X151487287Y-99093390D01*
X151479556Y-99082749D01*
X151366971Y-98927786D01*
X151222213Y-98783028D01*
X151056613Y-98662715D01*
X151056612Y-98662714D01*
X151056610Y-98662713D01*
X150999653Y-98633691D01*
X150874223Y-98569781D01*
X150679534Y-98506522D01*
X150504995Y-98478878D01*
X150477352Y-98474500D01*
X150272648Y-98474500D01*
X150248329Y-98478351D01*
X150070465Y-98506522D01*
X149875776Y-98569781D01*
X149693386Y-98662715D01*
X149527786Y-98783028D01*
X149383028Y-98927786D01*
X149262715Y-99093386D01*
X149169781Y-99275776D01*
X149106522Y-99470465D01*
X149074500Y-99672648D01*
X146675500Y-99672648D01*
X146643477Y-99470466D01*
X146637518Y-99452127D01*
X146580218Y-99275776D01*
X146542721Y-99202185D01*
X146487287Y-99093390D01*
X146479556Y-99082749D01*
X146366971Y-98927786D01*
X146222213Y-98783028D01*
X146056610Y-98662712D01*
X146043200Y-98655879D01*
X145992406Y-98607903D01*
X145975500Y-98545397D01*
X145975500Y-96174060D01*
X145975501Y-96174047D01*
X145975501Y-96005944D01*
X145968608Y-95980218D01*
X145934577Y-95853216D01*
X145889430Y-95775018D01*
X145855524Y-95716290D01*
X145855518Y-95716282D01*
X145359077Y-95219841D01*
X145325592Y-95158518D01*
X145328827Y-95093842D01*
X145333477Y-95079534D01*
X145365500Y-94877352D01*
X145365500Y-94672648D01*
X145333477Y-94470466D01*
X145270220Y-94275781D01*
X145270218Y-94275778D01*
X145270218Y-94275776D01*
X145236503Y-94209607D01*
X145177287Y-94093390D01*
X145155181Y-94062963D01*
X145056971Y-93927786D01*
X144912213Y-93783028D01*
X144746613Y-93662715D01*
X144746612Y-93662714D01*
X144746610Y-93662713D01*
X144679687Y-93628614D01*
X144564223Y-93569781D01*
X144369534Y-93506522D01*
X144194995Y-93478878D01*
X144167352Y-93474500D01*
X143962648Y-93474500D01*
X143938329Y-93478351D01*
X143760465Y-93506522D01*
X143565776Y-93569781D01*
X143383386Y-93662715D01*
X143217786Y-93783028D01*
X143073028Y-93927786D01*
X142952715Y-94093386D01*
X142859781Y-94275776D01*
X142796522Y-94470465D01*
X142764500Y-94672648D01*
X142764500Y-94877351D01*
X142796522Y-95079534D01*
X142859781Y-95274223D01*
X142889206Y-95331971D01*
X142950510Y-95452287D01*
X142952715Y-95456613D01*
X143073028Y-95622213D01*
X143217786Y-95766971D01*
X143372749Y-95879556D01*
X143383390Y-95887287D01*
X143499607Y-95946503D01*
X143565776Y-95980218D01*
X143565778Y-95980218D01*
X143565781Y-95980220D01*
X143670137Y-96014127D01*
X143760465Y-96043477D01*
X143861557Y-96059488D01*
X143962648Y-96075500D01*
X143962649Y-96075500D01*
X144167351Y-96075500D01*
X144167352Y-96075500D01*
X144369534Y-96043477D01*
X144383842Y-96038827D01*
X144453679Y-96036831D01*
X144509841Y-96069077D01*
X144738181Y-96297416D01*
X144771666Y-96358739D01*
X144774500Y-96385097D01*
X144774500Y-98545397D01*
X144754815Y-98612436D01*
X144706800Y-98655879D01*
X144693389Y-98662712D01*
X144527786Y-98783028D01*
X144527782Y-98783032D01*
X144527634Y-98783181D01*
X144527563Y-98783219D01*
X144524085Y-98786191D01*
X144523460Y-98785459D01*
X144466311Y-98816666D01*
X144439953Y-98819500D01*
X141994602Y-98819500D01*
X141927563Y-98799815D01*
X141884117Y-98751795D01*
X141877284Y-98738385D01*
X141756971Y-98572786D01*
X141612213Y-98428028D01*
X141446614Y-98307715D01*
X141440006Y-98304348D01*
X141353917Y-98260483D01*
X141303123Y-98212511D01*
X141286328Y-98144690D01*
X141308865Y-98078555D01*
X141353917Y-98039516D01*
X141446610Y-97992287D01*
X141467770Y-97976913D01*
X141612213Y-97871971D01*
X141612215Y-97871968D01*
X141612219Y-97871966D01*
X141756966Y-97727219D01*
X141756968Y-97727215D01*
X141756971Y-97727213D01*
X141809732Y-97654590D01*
X141877287Y-97561610D01*
X141970220Y-97379219D01*
X142033477Y-97184534D01*
X142065500Y-96982352D01*
X142065500Y-96777648D01*
X142033477Y-96575466D01*
X141970220Y-96380781D01*
X141970218Y-96380778D01*
X141970218Y-96380776D01*
X141927743Y-96297416D01*
X141877287Y-96198390D01*
X141852344Y-96164058D01*
X141756971Y-96032786D01*
X141612213Y-95888028D01*
X141446614Y-95767715D01*
X141440006Y-95764348D01*
X141353917Y-95720483D01*
X141303123Y-95672511D01*
X141286328Y-95604690D01*
X141308865Y-95538555D01*
X141353917Y-95499516D01*
X141446610Y-95452287D01*
X141575482Y-95358657D01*
X141612213Y-95331971D01*
X141612215Y-95331968D01*
X141612219Y-95331966D01*
X141756966Y-95187219D01*
X141756968Y-95187215D01*
X141756971Y-95187213D01*
X141861892Y-95042799D01*
X141877287Y-95021610D01*
X141970220Y-94839219D01*
X142033477Y-94644534D01*
X142065500Y-94442352D01*
X142065500Y-94237648D01*
X142044153Y-94102872D01*
X142033477Y-94035465D01*
X141970218Y-93840776D01*
X141918865Y-93739991D01*
X141877287Y-93658390D01*
X141825629Y-93587288D01*
X141756971Y-93492786D01*
X141612213Y-93348028D01*
X141446613Y-93227715D01*
X141446612Y-93227714D01*
X141446610Y-93227713D01*
X141386898Y-93197288D01*
X141264223Y-93134781D01*
X141069534Y-93071522D01*
X140894995Y-93043878D01*
X140867352Y-93039500D01*
X140662648Y-93039500D01*
X140638329Y-93043351D01*
X140460465Y-93071522D01*
X140265776Y-93134781D01*
X140083386Y-93227715D01*
X139917786Y-93348028D01*
X139773028Y-93492786D01*
X139652715Y-93658386D01*
X139559781Y-93840776D01*
X139496522Y-94035465D01*
X139464500Y-94237648D01*
X139464500Y-94442351D01*
X139496522Y-94644534D01*
X139559781Y-94839223D01*
X139652715Y-95021613D01*
X139773028Y-95187213D01*
X139917786Y-95331971D01*
X140064264Y-95438391D01*
X140083390Y-95452287D01*
X140151589Y-95487036D01*
X140176080Y-95499515D01*
X140226876Y-95547490D01*
X140243671Y-95615311D01*
X140221134Y-95681446D01*
X140176080Y-95720485D01*
X140083386Y-95767715D01*
X139917786Y-95888028D01*
X139773028Y-96032786D01*
X139652715Y-96198386D01*
X139559781Y-96380776D01*
X139496522Y-96575465D01*
X139464500Y-96777648D01*
X139464500Y-96970903D01*
X139444815Y-97037942D01*
X139392011Y-97083697D01*
X139322853Y-97093641D01*
X139259297Y-97064616D01*
X139252819Y-97058584D01*
X138712590Y-96518355D01*
X138712588Y-96518352D01*
X138593717Y-96399481D01*
X138593716Y-96399480D01*
X138506904Y-96349360D01*
X138506904Y-96349359D01*
X138506900Y-96349358D01*
X138456785Y-96320423D01*
X138304057Y-96279499D01*
X138145943Y-96279499D01*
X138138347Y-96279499D01*
X138138331Y-96279500D01*
X134374602Y-96279500D01*
X134307563Y-96259815D01*
X134264117Y-96211795D01*
X134257284Y-96198385D01*
X134136971Y-96032786D01*
X133992219Y-95888034D01*
X133991187Y-95887284D01*
X133898547Y-95819978D01*
X133855882Y-95764649D01*
X133849903Y-95695036D01*
X133882508Y-95633240D01*
X133932426Y-95601955D01*
X134014334Y-95574814D01*
X134163656Y-95482712D01*
X134287712Y-95358656D01*
X134379814Y-95209334D01*
X134434999Y-95042797D01*
X134445500Y-94940009D01*
X134445499Y-93739992D01*
X134434999Y-93637203D01*
X134379814Y-93470666D01*
X134287712Y-93321344D01*
X134163656Y-93197288D01*
X134014334Y-93105186D01*
X133847797Y-93050001D01*
X133847795Y-93050000D01*
X133745010Y-93039500D01*
X132544998Y-93039500D01*
X132544981Y-93039501D01*
X132442203Y-93050000D01*
X132442200Y-93050001D01*
X132275668Y-93105185D01*
X132275663Y-93105187D01*
X132126342Y-93197289D01*
X132002289Y-93321342D01*
X131910187Y-93470663D01*
X131910185Y-93470668D01*
X131902858Y-93492781D01*
X131855001Y-93637203D01*
X131855001Y-93637204D01*
X131855000Y-93637204D01*
X131844500Y-93739983D01*
X131844500Y-94940001D01*
X131844501Y-94940018D01*
X131855000Y-95042796D01*
X131855001Y-95042799D01*
X131867172Y-95079528D01*
X131910186Y-95209334D01*
X132002288Y-95358656D01*
X132126344Y-95482712D01*
X132275666Y-95574814D01*
X132357570Y-95601954D01*
X132415015Y-95641727D01*
X132441838Y-95706243D01*
X132429523Y-95775018D01*
X132391451Y-95819978D01*
X132297787Y-95888028D01*
X132297782Y-95888032D01*
X132153028Y-96032786D01*
X132032715Y-96198386D01*
X131939781Y-96380776D01*
X131876522Y-96575465D01*
X131844500Y-96777648D01*
X131844500Y-96982351D01*
X131876522Y-97184534D01*
X131939781Y-97379223D01*
X132032715Y-97561613D01*
X132153028Y-97727213D01*
X132297786Y-97871971D01*
X132452749Y-97984556D01*
X132463390Y-97992287D01*
X132554840Y-98038883D01*
X132556080Y-98039515D01*
X132606876Y-98087490D01*
X132623671Y-98155311D01*
X132601134Y-98221446D01*
X132556080Y-98260485D01*
X132463386Y-98307715D01*
X132297786Y-98428028D01*
X132153028Y-98572786D01*
X132032715Y-98738385D01*
X132025883Y-98751795D01*
X131977909Y-98802591D01*
X131915398Y-98819500D01*
X130920097Y-98819500D01*
X130853058Y-98799815D01*
X130832416Y-98783181D01*
X130606819Y-98557584D01*
X130573334Y-98496261D01*
X130570500Y-98469903D01*
X130570500Y-93704601D01*
X130590185Y-93637562D01*
X130638206Y-93594116D01*
X130651610Y-93587287D01*
X130817219Y-93466966D01*
X130961966Y-93322219D01*
X130961968Y-93322215D01*
X130961971Y-93322213D01*
X131014732Y-93249590D01*
X131082287Y-93156610D01*
X131175220Y-92974219D01*
X131238477Y-92779534D01*
X131270500Y-92577352D01*
X131270500Y-92372648D01*
X131238477Y-92170466D01*
X131175220Y-91975781D01*
X131175218Y-91975778D01*
X131175218Y-91975776D01*
X131110897Y-91849541D01*
X131082287Y-91793390D01*
X131074556Y-91782749D01*
X130961971Y-91627786D01*
X130817213Y-91483028D01*
X130651613Y-91362715D01*
X130651612Y-91362714D01*
X130651610Y-91362713D01*
X130594653Y-91333691D01*
X130469223Y-91269781D01*
X130274534Y-91206522D01*
X130099995Y-91178878D01*
X130072352Y-91174500D01*
X129867648Y-91174500D01*
X129843329Y-91178351D01*
X129665465Y-91206522D01*
X129470776Y-91269781D01*
X129288386Y-91362715D01*
X129122786Y-91483028D01*
X128978028Y-91627786D01*
X128857715Y-91793386D01*
X128764781Y-91975776D01*
X128701522Y-92170465D01*
X128669500Y-92372648D01*
X123650500Y-92372648D01*
X123618477Y-92170466D01*
X123555220Y-91975781D01*
X123555218Y-91975778D01*
X123555218Y-91975776D01*
X123490897Y-91849541D01*
X123462287Y-91793390D01*
X123454556Y-91782749D01*
X123341971Y-91627786D01*
X123197213Y-91483028D01*
X123031613Y-91362715D01*
X123031612Y-91362714D01*
X123031610Y-91362713D01*
X122974653Y-91333691D01*
X122849223Y-91269781D01*
X122654534Y-91206522D01*
X122479995Y-91178878D01*
X122452352Y-91174500D01*
X122247648Y-91174500D01*
X122223329Y-91178351D01*
X122045465Y-91206522D01*
X121850776Y-91269781D01*
X121668386Y-91362715D01*
X121502786Y-91483028D01*
X121358028Y-91627786D01*
X121237713Y-91793388D01*
X121234984Y-91798745D01*
X121187009Y-91849541D01*
X121119188Y-91866335D01*
X121053053Y-91843797D01*
X121009602Y-91789081D01*
X121000500Y-91742449D01*
X121000500Y-89593713D01*
X134234500Y-89593713D01*
X134234500Y-89806287D01*
X134267754Y-90016243D01*
X134310450Y-90147648D01*
X134333444Y-90218414D01*
X134429951Y-90407820D01*
X134554890Y-90579786D01*
X134705213Y-90730109D01*
X134877179Y-90855048D01*
X134877181Y-90855049D01*
X134877184Y-90855051D01*
X135066588Y-90951557D01*
X135268757Y-91017246D01*
X135478713Y-91050500D01*
X135478714Y-91050500D01*
X135691286Y-91050500D01*
X135691287Y-91050500D01*
X135901243Y-91017246D01*
X136103412Y-90951557D01*
X136292816Y-90855051D01*
X136464792Y-90730104D01*
X136578329Y-90616566D01*
X136639648Y-90583084D01*
X136709340Y-90588068D01*
X136765274Y-90629939D01*
X136782189Y-90660917D01*
X136831202Y-90792328D01*
X136831206Y-90792335D01*
X136917452Y-90907544D01*
X136917455Y-90907547D01*
X137032664Y-90993793D01*
X137032671Y-90993797D01*
X137167517Y-91044091D01*
X137167516Y-91044091D01*
X137174444Y-91044835D01*
X137227127Y-91050500D01*
X139022872Y-91050499D01*
X139082483Y-91044091D01*
X139217331Y-90993796D01*
X139332546Y-90907546D01*
X139418796Y-90792331D01*
X139469091Y-90657483D01*
X139475500Y-90597873D01*
X139475500Y-90147648D01*
X142814500Y-90147648D01*
X142814500Y-90352351D01*
X142846522Y-90554534D01*
X142909781Y-90749223D01*
X142963704Y-90855051D01*
X142990452Y-90907547D01*
X143002715Y-90931613D01*
X143123028Y-91097213D01*
X143267786Y-91241971D01*
X143422749Y-91354556D01*
X143433390Y-91362287D01*
X143549607Y-91421503D01*
X143615776Y-91455218D01*
X143615778Y-91455218D01*
X143615781Y-91455220D01*
X143701365Y-91483028D01*
X143810465Y-91518477D01*
X143911557Y-91534488D01*
X144012648Y-91550500D01*
X144012649Y-91550500D01*
X144217351Y-91550500D01*
X144217352Y-91550500D01*
X144419534Y-91518477D01*
X144614219Y-91455220D01*
X144796610Y-91362287D01*
X144923936Y-91269780D01*
X144962213Y-91241971D01*
X144962215Y-91241968D01*
X144962219Y-91241966D01*
X145106966Y-91097219D01*
X145106968Y-91097215D01*
X145106971Y-91097213D01*
X145182106Y-90993797D01*
X145227287Y-90931610D01*
X145320220Y-90749219D01*
X145383477Y-90554534D01*
X145415500Y-90352352D01*
X145415500Y-90147648D01*
X145383477Y-89945466D01*
X145320220Y-89750781D01*
X145320218Y-89750778D01*
X145320218Y-89750776D01*
X145286503Y-89684607D01*
X145227287Y-89568390D01*
X145219556Y-89557749D01*
X145106971Y-89402786D01*
X144962213Y-89258028D01*
X144796613Y-89137715D01*
X144796612Y-89137714D01*
X144796610Y-89137713D01*
X144739653Y-89108691D01*
X144614223Y-89044781D01*
X144419534Y-88981522D01*
X144244995Y-88953878D01*
X144217352Y-88949500D01*
X144012648Y-88949500D01*
X143988329Y-88953351D01*
X143810465Y-88981522D01*
X143615776Y-89044781D01*
X143433386Y-89137715D01*
X143267786Y-89258028D01*
X143123028Y-89402786D01*
X143002715Y-89568386D01*
X142909781Y-89750776D01*
X142846522Y-89945465D01*
X142814500Y-90147648D01*
X139475500Y-90147648D01*
X139475499Y-89593713D01*
X139475499Y-88802129D01*
X139475498Y-88802123D01*
X139469091Y-88742516D01*
X139418797Y-88607671D01*
X139418793Y-88607664D01*
X139332547Y-88492455D01*
X139332544Y-88492452D01*
X139217335Y-88406206D01*
X139217328Y-88406202D01*
X139082482Y-88355908D01*
X139082483Y-88355908D01*
X139022883Y-88349501D01*
X139022881Y-88349500D01*
X139022873Y-88349500D01*
X139022864Y-88349500D01*
X137227129Y-88349500D01*
X137227123Y-88349501D01*
X137167516Y-88355908D01*
X137032671Y-88406202D01*
X137032664Y-88406206D01*
X136917455Y-88492452D01*
X136917452Y-88492455D01*
X136831206Y-88607664D01*
X136831203Y-88607669D01*
X136782189Y-88739083D01*
X136740317Y-88795016D01*
X136674853Y-88819433D01*
X136606580Y-88804581D01*
X136578326Y-88783430D01*
X136464786Y-88669890D01*
X136292820Y-88544951D01*
X136103414Y-88448444D01*
X136103413Y-88448443D01*
X136103412Y-88448443D01*
X135901243Y-88382754D01*
X135901241Y-88382753D01*
X135901240Y-88382753D01*
X135739957Y-88357208D01*
X135691287Y-88349500D01*
X135478713Y-88349500D01*
X135430042Y-88357208D01*
X135268760Y-88382753D01*
X135066585Y-88448444D01*
X134877179Y-88544951D01*
X134705213Y-88669890D01*
X134554890Y-88820213D01*
X134429951Y-88992179D01*
X134333444Y-89181585D01*
X134267753Y-89383760D01*
X134264740Y-89402786D01*
X134234500Y-89593713D01*
X121000500Y-89593713D01*
X121000500Y-86624500D01*
X121020185Y-86557461D01*
X121072989Y-86511706D01*
X121124500Y-86500500D01*
X152875500Y-86500500D01*
X152942539Y-86520185D01*
G37*
%TD.AperFunction*%
M02*
