%TF.GenerationSoftware,KiCad,Pcbnew,9.0.3*%
%TF.CreationDate,2026-07-21T12:10:01+05:30*%
%TF.ProjectId,01_LED_Basic,30315f4c-4544-45f4-9261-7369632e6b69,rev?*%
%TF.SameCoordinates,Original*%
%TF.FileFunction,Legend,Top*%
%TF.FilePolarity,Positive*%
%FSLAX46Y46*%
G04 Gerber Fmt 4.6, Leading zero omitted, Abs format (unit mm)*
G04 Created by KiCad (PCBNEW 9.0.3) date 2026-07-21 12:10:01*
%MOMM*%
%LPD*%
G01*
G04 APERTURE LIST*
%ADD10C,0.150000*%
%ADD11C,0.120000*%
G04 APERTURE END LIST*
D10*
X134723333Y-85949819D02*
X134390000Y-85473628D01*
X134151905Y-85949819D02*
X134151905Y-84949819D01*
X134151905Y-84949819D02*
X134532857Y-84949819D01*
X134532857Y-84949819D02*
X134628095Y-84997438D01*
X134628095Y-84997438D02*
X134675714Y-85045057D01*
X134675714Y-85045057D02*
X134723333Y-85140295D01*
X134723333Y-85140295D02*
X134723333Y-85283152D01*
X134723333Y-85283152D02*
X134675714Y-85378390D01*
X134675714Y-85378390D02*
X134628095Y-85426009D01*
X134628095Y-85426009D02*
X134532857Y-85473628D01*
X134532857Y-85473628D02*
X134151905Y-85473628D01*
X135056667Y-84949819D02*
X135675714Y-84949819D01*
X135675714Y-84949819D02*
X135342381Y-85330771D01*
X135342381Y-85330771D02*
X135485238Y-85330771D01*
X135485238Y-85330771D02*
X135580476Y-85378390D01*
X135580476Y-85378390D02*
X135628095Y-85426009D01*
X135628095Y-85426009D02*
X135675714Y-85521247D01*
X135675714Y-85521247D02*
X135675714Y-85759342D01*
X135675714Y-85759342D02*
X135628095Y-85854580D01*
X135628095Y-85854580D02*
X135580476Y-85902200D01*
X135580476Y-85902200D02*
X135485238Y-85949819D01*
X135485238Y-85949819D02*
X135199524Y-85949819D01*
X135199524Y-85949819D02*
X135104286Y-85902200D01*
X135104286Y-85902200D02*
X135056667Y-85854580D01*
X134633333Y-78454819D02*
X134300000Y-77978628D01*
X134061905Y-78454819D02*
X134061905Y-77454819D01*
X134061905Y-77454819D02*
X134442857Y-77454819D01*
X134442857Y-77454819D02*
X134538095Y-77502438D01*
X134538095Y-77502438D02*
X134585714Y-77550057D01*
X134585714Y-77550057D02*
X134633333Y-77645295D01*
X134633333Y-77645295D02*
X134633333Y-77788152D01*
X134633333Y-77788152D02*
X134585714Y-77883390D01*
X134585714Y-77883390D02*
X134538095Y-77931009D01*
X134538095Y-77931009D02*
X134442857Y-77978628D01*
X134442857Y-77978628D02*
X134061905Y-77978628D01*
X135014286Y-77550057D02*
X135061905Y-77502438D01*
X135061905Y-77502438D02*
X135157143Y-77454819D01*
X135157143Y-77454819D02*
X135395238Y-77454819D01*
X135395238Y-77454819D02*
X135490476Y-77502438D01*
X135490476Y-77502438D02*
X135538095Y-77550057D01*
X135538095Y-77550057D02*
X135585714Y-77645295D01*
X135585714Y-77645295D02*
X135585714Y-77740533D01*
X135585714Y-77740533D02*
X135538095Y-77883390D01*
X135538095Y-77883390D02*
X134966667Y-78454819D01*
X134966667Y-78454819D02*
X135585714Y-78454819D01*
X144366666Y-69154819D02*
X144366666Y-69869104D01*
X144366666Y-69869104D02*
X144319047Y-70011961D01*
X144319047Y-70011961D02*
X144223809Y-70107200D01*
X144223809Y-70107200D02*
X144080952Y-70154819D01*
X144080952Y-70154819D02*
X143985714Y-70154819D01*
X145366666Y-70154819D02*
X144795238Y-70154819D01*
X145080952Y-70154819D02*
X145080952Y-69154819D01*
X145080952Y-69154819D02*
X144985714Y-69297676D01*
X144985714Y-69297676D02*
X144890476Y-69392914D01*
X144890476Y-69392914D02*
X144795238Y-69440533D01*
X119854819Y-85138094D02*
X118854819Y-85138094D01*
X118854819Y-85138094D02*
X118854819Y-84899999D01*
X118854819Y-84899999D02*
X118902438Y-84757142D01*
X118902438Y-84757142D02*
X118997676Y-84661904D01*
X118997676Y-84661904D02*
X119092914Y-84614285D01*
X119092914Y-84614285D02*
X119283390Y-84566666D01*
X119283390Y-84566666D02*
X119426247Y-84566666D01*
X119426247Y-84566666D02*
X119616723Y-84614285D01*
X119616723Y-84614285D02*
X119711961Y-84661904D01*
X119711961Y-84661904D02*
X119807200Y-84757142D01*
X119807200Y-84757142D02*
X119854819Y-84899999D01*
X119854819Y-84899999D02*
X119854819Y-85138094D01*
X118854819Y-84233332D02*
X118854819Y-83614285D01*
X118854819Y-83614285D02*
X119235771Y-83947618D01*
X119235771Y-83947618D02*
X119235771Y-83804761D01*
X119235771Y-83804761D02*
X119283390Y-83709523D01*
X119283390Y-83709523D02*
X119331009Y-83661904D01*
X119331009Y-83661904D02*
X119426247Y-83614285D01*
X119426247Y-83614285D02*
X119664342Y-83614285D01*
X119664342Y-83614285D02*
X119759580Y-83661904D01*
X119759580Y-83661904D02*
X119807200Y-83709523D01*
X119807200Y-83709523D02*
X119854819Y-83804761D01*
X119854819Y-83804761D02*
X119854819Y-84090475D01*
X119854819Y-84090475D02*
X119807200Y-84185713D01*
X119807200Y-84185713D02*
X119759580Y-84233332D01*
X119754819Y-70138094D02*
X118754819Y-70138094D01*
X118754819Y-70138094D02*
X118754819Y-69899999D01*
X118754819Y-69899999D02*
X118802438Y-69757142D01*
X118802438Y-69757142D02*
X118897676Y-69661904D01*
X118897676Y-69661904D02*
X118992914Y-69614285D01*
X118992914Y-69614285D02*
X119183390Y-69566666D01*
X119183390Y-69566666D02*
X119326247Y-69566666D01*
X119326247Y-69566666D02*
X119516723Y-69614285D01*
X119516723Y-69614285D02*
X119611961Y-69661904D01*
X119611961Y-69661904D02*
X119707200Y-69757142D01*
X119707200Y-69757142D02*
X119754819Y-69899999D01*
X119754819Y-69899999D02*
X119754819Y-70138094D01*
X119754819Y-68614285D02*
X119754819Y-69185713D01*
X119754819Y-68899999D02*
X118754819Y-68899999D01*
X118754819Y-68899999D02*
X118897676Y-68995237D01*
X118897676Y-68995237D02*
X118992914Y-69090475D01*
X118992914Y-69090475D02*
X119040533Y-69185713D01*
X134823333Y-71024819D02*
X134490000Y-70548628D01*
X134251905Y-71024819D02*
X134251905Y-70024819D01*
X134251905Y-70024819D02*
X134632857Y-70024819D01*
X134632857Y-70024819D02*
X134728095Y-70072438D01*
X134728095Y-70072438D02*
X134775714Y-70120057D01*
X134775714Y-70120057D02*
X134823333Y-70215295D01*
X134823333Y-70215295D02*
X134823333Y-70358152D01*
X134823333Y-70358152D02*
X134775714Y-70453390D01*
X134775714Y-70453390D02*
X134728095Y-70501009D01*
X134728095Y-70501009D02*
X134632857Y-70548628D01*
X134632857Y-70548628D02*
X134251905Y-70548628D01*
X135775714Y-71024819D02*
X135204286Y-71024819D01*
X135490000Y-71024819D02*
X135490000Y-70024819D01*
X135490000Y-70024819D02*
X135394762Y-70167676D01*
X135394762Y-70167676D02*
X135299524Y-70262914D01*
X135299524Y-70262914D02*
X135204286Y-70310533D01*
X119854819Y-77738094D02*
X118854819Y-77738094D01*
X118854819Y-77738094D02*
X118854819Y-77499999D01*
X118854819Y-77499999D02*
X118902438Y-77357142D01*
X118902438Y-77357142D02*
X118997676Y-77261904D01*
X118997676Y-77261904D02*
X119092914Y-77214285D01*
X119092914Y-77214285D02*
X119283390Y-77166666D01*
X119283390Y-77166666D02*
X119426247Y-77166666D01*
X119426247Y-77166666D02*
X119616723Y-77214285D01*
X119616723Y-77214285D02*
X119711961Y-77261904D01*
X119711961Y-77261904D02*
X119807200Y-77357142D01*
X119807200Y-77357142D02*
X119854819Y-77499999D01*
X119854819Y-77499999D02*
X119854819Y-77738094D01*
X118950057Y-76785713D02*
X118902438Y-76738094D01*
X118902438Y-76738094D02*
X118854819Y-76642856D01*
X118854819Y-76642856D02*
X118854819Y-76404761D01*
X118854819Y-76404761D02*
X118902438Y-76309523D01*
X118902438Y-76309523D02*
X118950057Y-76261904D01*
X118950057Y-76261904D02*
X119045295Y-76214285D01*
X119045295Y-76214285D02*
X119140533Y-76214285D01*
X119140533Y-76214285D02*
X119283390Y-76261904D01*
X119283390Y-76261904D02*
X119854819Y-76833332D01*
X119854819Y-76833332D02*
X119854819Y-76214285D01*
D11*
%TO.C,R3*%
X131620000Y-81755000D02*
X131620000Y-82085000D01*
X131620000Y-84495000D02*
X131620000Y-84165000D01*
X138160000Y-81755000D02*
X131620000Y-81755000D01*
X138160000Y-82085000D02*
X138160000Y-81755000D01*
X138160000Y-84165000D02*
X138160000Y-84495000D01*
X138160000Y-84495000D02*
X131620000Y-84495000D01*
%TO.C,R2*%
X138170000Y-77020000D02*
X138170000Y-76690000D01*
X138170000Y-74280000D02*
X138170000Y-74610000D01*
X131630000Y-77020000D02*
X138170000Y-77020000D01*
X131630000Y-76690000D02*
X131630000Y-77020000D01*
X131630000Y-74610000D02*
X131630000Y-74280000D01*
X131630000Y-74280000D02*
X138170000Y-74280000D01*
%TO.C,J1*%
X146030000Y-73310000D02*
X146030000Y-81040000D01*
X143270000Y-81040000D02*
X146030000Y-81040000D01*
X143270000Y-73310000D02*
X146030000Y-73310000D01*
X143270000Y-73310000D02*
X143270000Y-81040000D01*
X143270000Y-72040000D02*
X143270000Y-70660000D01*
X143270000Y-70660000D02*
X144650000Y-70660000D01*
%TO.C,D3*%
X125860000Y-83060000D02*
G75*
G02*
X120860000Y-83060000I-2500000J0D01*
G01*
X120860000Y-83060000D02*
G75*
G02*
X125860000Y-83060000I2500000J0D01*
G01*
X126350000Y-83060000D02*
G75*
G02*
X120800000Y-84604830I-2990000J0D01*
G01*
X120800000Y-81515170D02*
G75*
G02*
X126350000Y-83060000I2560000J-1544830D01*
G01*
X120800000Y-81515000D02*
X120800000Y-84605000D01*
%TO.C,D1*%
X125860000Y-68120000D02*
G75*
G02*
X120860000Y-68120000I-2500000J0D01*
G01*
X120860000Y-68120000D02*
G75*
G02*
X125860000Y-68120000I2500000J0D01*
G01*
X126350000Y-68120000D02*
G75*
G02*
X120800000Y-69664830I-2990000J0D01*
G01*
X120800000Y-66575170D02*
G75*
G02*
X126350000Y-68120000I2560000J-1544830D01*
G01*
X120800000Y-66575000D02*
X120800000Y-69665000D01*
%TO.C,R1*%
X131720000Y-66830000D02*
X131720000Y-67160000D01*
X131720000Y-69570000D02*
X131720000Y-69240000D01*
X138260000Y-66830000D02*
X131720000Y-66830000D01*
X138260000Y-67160000D02*
X138260000Y-66830000D01*
X138260000Y-69240000D02*
X138260000Y-69570000D01*
X138260000Y-69570000D02*
X131720000Y-69570000D01*
%TO.C,D2*%
X125860000Y-75590000D02*
G75*
G02*
X120860000Y-75590000I-2500000J0D01*
G01*
X120860000Y-75590000D02*
G75*
G02*
X125860000Y-75590000I2500000J0D01*
G01*
X126350000Y-75590000D02*
G75*
G02*
X120800000Y-77134830I-2990000J0D01*
G01*
X120800000Y-74045170D02*
G75*
G02*
X126350000Y-75590000I2560000J-1544830D01*
G01*
X120800000Y-74045000D02*
X120800000Y-77135000D01*
%TD*%
M02*
