%TF.GenerationSoftware,KiCad,Pcbnew,9.0.3*%
%TF.CreationDate,2026-07-21T12:10:00+05:30*%
%TF.ProjectId,01_LED_Basic,30315f4c-4544-45f4-9261-7369632e6b69,rev?*%
%TF.SameCoordinates,Original*%
%TF.FileFunction,Copper,L1,Top*%
%TF.FilePolarity,Positive*%
%FSLAX46Y46*%
G04 Gerber Fmt 4.6, Leading zero omitted, Abs format (unit mm)*
G04 Created by KiCad (PCBNEW 9.0.3) date 2026-07-21 12:10:00*
%MOMM*%
%LPD*%
G01*
G04 APERTURE LIST*
%TA.AperFunction,NonConductor*%
%ADD10C,0.200000*%
%TD*%
%TA.AperFunction,ComponentPad*%
%ADD11C,1.600000*%
%TD*%
%TA.AperFunction,ComponentPad*%
%ADD12C,1.700000*%
%TD*%
%TA.AperFunction,ComponentPad*%
%ADD13R,1.700000X1.700000*%
%TD*%
%TA.AperFunction,ComponentPad*%
%ADD14C,1.800000*%
%TD*%
%TA.AperFunction,ComponentPad*%
%ADD15R,1.800000X1.800000*%
%TD*%
G04 APERTURE END LIST*
D10*
X115750000Y-60500000D02*
X150000000Y-60500000D01*
X150000000Y-90500000D01*
X115750000Y-90500000D01*
X115750000Y-60500000D01*
D11*
%TO.P,R3,2*%
%TO.N,Net-(D3-A)*%
X131080000Y-83125000D03*
%TO.P,R3,1*%
%TO.N,/LED3_IN*%
X138700000Y-83125000D03*
%TD*%
%TO.P,R2,2*%
%TO.N,/LED2_IN*%
X138710000Y-75650000D03*
%TO.P,R2,1*%
%TO.N,Net-(D2-A)*%
X131090000Y-75650000D03*
%TD*%
D12*
%TO.P,J1,4,Pin_4*%
%TO.N,GND*%
X144650000Y-79660000D03*
%TO.P,J1,3,Pin_3*%
%TO.N,/LED3_IN*%
X144650000Y-77120000D03*
%TO.P,J1,2,Pin_2*%
%TO.N,/LED2_IN*%
X144650000Y-74580000D03*
D13*
%TO.P,J1,1,Pin_1*%
%TO.N,/LED1_IN*%
X144650000Y-72040000D03*
%TD*%
D14*
%TO.P,D3,2,A*%
%TO.N,Net-(D3-A)*%
X124630000Y-83060000D03*
D15*
%TO.P,D3,1,K*%
%TO.N,GND*%
X122090000Y-83060000D03*
%TD*%
D14*
%TO.P,D1,2,A*%
%TO.N,Net-(D1-A)*%
X124630000Y-68120000D03*
D15*
%TO.P,D1,1,K*%
%TO.N,GND*%
X122090000Y-68120000D03*
%TD*%
D11*
%TO.P,R1,2*%
%TO.N,Net-(D1-A)*%
X131180000Y-68200000D03*
%TO.P,R1,1*%
%TO.N,/LED1_IN*%
X138800000Y-68200000D03*
%TD*%
D14*
%TO.P,D2,2,A*%
%TO.N,Net-(D2-A)*%
X124630000Y-75590000D03*
D15*
%TO.P,D2,1,K*%
%TO.N,GND*%
X122090000Y-75590000D03*
%TD*%
%TA.AperFunction,NonConductor*%
G36*
X147442539Y-63020185D02*
G01*
X147488294Y-63072989D01*
X147499500Y-63124500D01*
X147499500Y-87875500D01*
X147479815Y-87942539D01*
X147427011Y-87988294D01*
X147375500Y-87999500D01*
X118374500Y-87999500D01*
X118307461Y-87979815D01*
X118261706Y-87927011D01*
X118250500Y-87875500D01*
X118250500Y-82112135D01*
X120689500Y-82112135D01*
X120689500Y-84007870D01*
X120689501Y-84007876D01*
X120695908Y-84067483D01*
X120746202Y-84202328D01*
X120746206Y-84202335D01*
X120832452Y-84317544D01*
X120832455Y-84317547D01*
X120947664Y-84403793D01*
X120947671Y-84403797D01*
X121082517Y-84454091D01*
X121082516Y-84454091D01*
X121089444Y-84454835D01*
X121142127Y-84460500D01*
X123037872Y-84460499D01*
X123097483Y-84454091D01*
X123232331Y-84403796D01*
X123347546Y-84317546D01*
X123433796Y-84202331D01*
X123461429Y-84128243D01*
X123463601Y-84122420D01*
X123505471Y-84066486D01*
X123570936Y-84042068D01*
X123639209Y-84056919D01*
X123667464Y-84078071D01*
X123717636Y-84128243D01*
X123717641Y-84128247D01*
X123819603Y-84202326D01*
X123895978Y-84257815D01*
X124024375Y-84323237D01*
X124092393Y-84357895D01*
X124092396Y-84357896D01*
X124197221Y-84391955D01*
X124302049Y-84426015D01*
X124519778Y-84460500D01*
X124519779Y-84460500D01*
X124740221Y-84460500D01*
X124740222Y-84460500D01*
X124957951Y-84426015D01*
X125167606Y-84357895D01*
X125364022Y-84257815D01*
X125542365Y-84128242D01*
X125698242Y-83972365D01*
X125827815Y-83794022D01*
X125927895Y-83597606D01*
X125996015Y-83387951D01*
X126030500Y-83170222D01*
X126030500Y-83022648D01*
X129779500Y-83022648D01*
X129779500Y-83227351D01*
X129811522Y-83429534D01*
X129874781Y-83624223D01*
X129967715Y-83806613D01*
X130088028Y-83972213D01*
X130232786Y-84116971D01*
X130350282Y-84202335D01*
X130398390Y-84237287D01*
X130514607Y-84296503D01*
X130580776Y-84330218D01*
X130580778Y-84330218D01*
X130580781Y-84330220D01*
X130665956Y-84357895D01*
X130775465Y-84393477D01*
X130840623Y-84403797D01*
X130977648Y-84425500D01*
X130977649Y-84425500D01*
X131182351Y-84425500D01*
X131182352Y-84425500D01*
X131384534Y-84393477D01*
X131579219Y-84330220D01*
X131761610Y-84237287D01*
X131854590Y-84169732D01*
X131927213Y-84116971D01*
X131927215Y-84116968D01*
X131927219Y-84116966D01*
X132071966Y-83972219D01*
X132071968Y-83972215D01*
X132071971Y-83972213D01*
X132143118Y-83874286D01*
X132192287Y-83806610D01*
X132285220Y-83624219D01*
X132348477Y-83429534D01*
X132380500Y-83227352D01*
X132380500Y-83022648D01*
X137399500Y-83022648D01*
X137399500Y-83227351D01*
X137431522Y-83429534D01*
X137494781Y-83624223D01*
X137587715Y-83806613D01*
X137708028Y-83972213D01*
X137852786Y-84116971D01*
X137970282Y-84202335D01*
X138018390Y-84237287D01*
X138134607Y-84296503D01*
X138200776Y-84330218D01*
X138200778Y-84330218D01*
X138200781Y-84330220D01*
X138285956Y-84357895D01*
X138395465Y-84393477D01*
X138460623Y-84403797D01*
X138597648Y-84425500D01*
X138597649Y-84425500D01*
X138802351Y-84425500D01*
X138802352Y-84425500D01*
X139004534Y-84393477D01*
X139199219Y-84330220D01*
X139381610Y-84237287D01*
X139474590Y-84169732D01*
X139547213Y-84116971D01*
X139547215Y-84116968D01*
X139547219Y-84116966D01*
X139691966Y-83972219D01*
X139691968Y-83972215D01*
X139691971Y-83972213D01*
X139763118Y-83874286D01*
X139812287Y-83806610D01*
X139905220Y-83624219D01*
X139968477Y-83429534D01*
X140000500Y-83227352D01*
X140000500Y-83022648D01*
X139968477Y-82820466D01*
X139905220Y-82625781D01*
X139905218Y-82625778D01*
X139905218Y-82625776D01*
X139871503Y-82559607D01*
X139812287Y-82443390D01*
X139804556Y-82432749D01*
X139691971Y-82277786D01*
X139547213Y-82133028D01*
X139381613Y-82012715D01*
X139381612Y-82012714D01*
X139381610Y-82012713D01*
X139324653Y-81983691D01*
X139199223Y-81919781D01*
X139004534Y-81856522D01*
X138829995Y-81828878D01*
X138802352Y-81824500D01*
X138597648Y-81824500D01*
X138573329Y-81828351D01*
X138395465Y-81856522D01*
X138200776Y-81919781D01*
X138018386Y-82012715D01*
X137852786Y-82133028D01*
X137708028Y-82277786D01*
X137587715Y-82443386D01*
X137494781Y-82625776D01*
X137431522Y-82820465D01*
X137399500Y-83022648D01*
X132380500Y-83022648D01*
X132348477Y-82820466D01*
X132285220Y-82625781D01*
X132285218Y-82625778D01*
X132285218Y-82625776D01*
X132251503Y-82559607D01*
X132192287Y-82443390D01*
X132184556Y-82432749D01*
X132071971Y-82277786D01*
X131927213Y-82133028D01*
X131761613Y-82012715D01*
X131761612Y-82012714D01*
X131761610Y-82012713D01*
X131704653Y-81983691D01*
X131579223Y-81919781D01*
X131384534Y-81856522D01*
X131209995Y-81828878D01*
X131182352Y-81824500D01*
X130977648Y-81824500D01*
X130953329Y-81828351D01*
X130775465Y-81856522D01*
X130580776Y-81919781D01*
X130398386Y-82012715D01*
X130232786Y-82133028D01*
X130088028Y-82277786D01*
X129967715Y-82443386D01*
X129874781Y-82625776D01*
X129811522Y-82820465D01*
X129779500Y-83022648D01*
X126030500Y-83022648D01*
X126030500Y-82949778D01*
X125996015Y-82732049D01*
X125927895Y-82522394D01*
X125927895Y-82522393D01*
X125887638Y-82443386D01*
X125827815Y-82325978D01*
X125769501Y-82245715D01*
X125698247Y-82147641D01*
X125698243Y-82147636D01*
X125542363Y-81991756D01*
X125542358Y-81991752D01*
X125364025Y-81862187D01*
X125364024Y-81862186D01*
X125364022Y-81862185D01*
X125246791Y-81802452D01*
X125167606Y-81762104D01*
X125167603Y-81762103D01*
X124957952Y-81693985D01*
X124849086Y-81676742D01*
X124740222Y-81659500D01*
X124519778Y-81659500D01*
X124447201Y-81670995D01*
X124302047Y-81693985D01*
X124092396Y-81762103D01*
X124092393Y-81762104D01*
X123895974Y-81862187D01*
X123717641Y-81991752D01*
X123717636Y-81991756D01*
X123667463Y-82041929D01*
X123606140Y-82075413D01*
X123536448Y-82070428D01*
X123480515Y-82028557D01*
X123463601Y-81997580D01*
X123433797Y-81917671D01*
X123433793Y-81917664D01*
X123347547Y-81802455D01*
X123347544Y-81802452D01*
X123232335Y-81716206D01*
X123232328Y-81716202D01*
X123097482Y-81665908D01*
X123097483Y-81665908D01*
X123037883Y-81659501D01*
X123037881Y-81659500D01*
X123037873Y-81659500D01*
X123037864Y-81659500D01*
X121142129Y-81659500D01*
X121142123Y-81659501D01*
X121082516Y-81665908D01*
X120947671Y-81716202D01*
X120947664Y-81716206D01*
X120832455Y-81802452D01*
X120832452Y-81802455D01*
X120746206Y-81917664D01*
X120746202Y-81917671D01*
X120695908Y-82052517D01*
X120689501Y-82112116D01*
X120689500Y-82112135D01*
X118250500Y-82112135D01*
X118250500Y-74642135D01*
X120689500Y-74642135D01*
X120689500Y-76537870D01*
X120689501Y-76537876D01*
X120695908Y-76597483D01*
X120746202Y-76732328D01*
X120746206Y-76732335D01*
X120832452Y-76847544D01*
X120832455Y-76847547D01*
X120947664Y-76933793D01*
X120947671Y-76933797D01*
X121082517Y-76984091D01*
X121082516Y-76984091D01*
X121089444Y-76984835D01*
X121142127Y-76990500D01*
X123037872Y-76990499D01*
X123097483Y-76984091D01*
X123232331Y-76933796D01*
X123347546Y-76847546D01*
X123433796Y-76732331D01*
X123461429Y-76658243D01*
X123463601Y-76652420D01*
X123505471Y-76596486D01*
X123570936Y-76572068D01*
X123639209Y-76586919D01*
X123667464Y-76608071D01*
X123717636Y-76658243D01*
X123717641Y-76658247D01*
X123873192Y-76771260D01*
X123895978Y-76787815D01*
X124024375Y-76853237D01*
X124092393Y-76887895D01*
X124092396Y-76887896D01*
X124186517Y-76918477D01*
X124302049Y-76956015D01*
X124519778Y-76990500D01*
X124519779Y-76990500D01*
X124740221Y-76990500D01*
X124740222Y-76990500D01*
X124957951Y-76956015D01*
X125167606Y-76887895D01*
X125364022Y-76787815D01*
X125542365Y-76658242D01*
X125698242Y-76502365D01*
X125827815Y-76324022D01*
X125927895Y-76127606D01*
X125996015Y-75917951D01*
X126030500Y-75700222D01*
X126030500Y-75547648D01*
X129789500Y-75547648D01*
X129789500Y-75752351D01*
X129821522Y-75954534D01*
X129884781Y-76149223D01*
X129931141Y-76240208D01*
X129973848Y-76324025D01*
X129977715Y-76331613D01*
X130098028Y-76497213D01*
X130242786Y-76641971D01*
X130367164Y-76732335D01*
X130408390Y-76762287D01*
X130524607Y-76821503D01*
X130590776Y-76855218D01*
X130590778Y-76855218D01*
X130590781Y-76855220D01*
X130691344Y-76887895D01*
X130785465Y-76918477D01*
X130882166Y-76933793D01*
X130987648Y-76950500D01*
X130987649Y-76950500D01*
X131192351Y-76950500D01*
X131192352Y-76950500D01*
X131394534Y-76918477D01*
X131589219Y-76855220D01*
X131771610Y-76762287D01*
X131864590Y-76694732D01*
X131937213Y-76641971D01*
X131937215Y-76641968D01*
X131937219Y-76641966D01*
X132081966Y-76497219D01*
X132081968Y-76497215D01*
X132081971Y-76497213D01*
X132149485Y-76404286D01*
X132202287Y-76331610D01*
X132295220Y-76149219D01*
X132358477Y-75954534D01*
X132390500Y-75752352D01*
X132390500Y-75547648D01*
X137409500Y-75547648D01*
X137409500Y-75752351D01*
X137441522Y-75954534D01*
X137504781Y-76149223D01*
X137551141Y-76240208D01*
X137593848Y-76324025D01*
X137597715Y-76331613D01*
X137718028Y-76497213D01*
X137862786Y-76641971D01*
X137987164Y-76732335D01*
X138028390Y-76762287D01*
X138144607Y-76821503D01*
X138210776Y-76855218D01*
X138210778Y-76855218D01*
X138210781Y-76855220D01*
X138311344Y-76887895D01*
X138405465Y-76918477D01*
X138502166Y-76933793D01*
X138607648Y-76950500D01*
X138607649Y-76950500D01*
X138812351Y-76950500D01*
X138812352Y-76950500D01*
X139014534Y-76918477D01*
X139209219Y-76855220D01*
X139391610Y-76762287D01*
X139484590Y-76694732D01*
X139557213Y-76641971D01*
X139557215Y-76641968D01*
X139557219Y-76641966D01*
X139701966Y-76497219D01*
X139701968Y-76497215D01*
X139701971Y-76497213D01*
X139769485Y-76404286D01*
X139822287Y-76331610D01*
X139915220Y-76149219D01*
X139978477Y-75954534D01*
X140010500Y-75752352D01*
X140010500Y-75547648D01*
X139978477Y-75345466D01*
X139915220Y-75150781D01*
X139915218Y-75150778D01*
X139915218Y-75150776D01*
X139865089Y-75052394D01*
X139822287Y-74968390D01*
X139740616Y-74855978D01*
X139701971Y-74802786D01*
X139557213Y-74658028D01*
X139391613Y-74537715D01*
X139391612Y-74537714D01*
X139391610Y-74537713D01*
X139334653Y-74508691D01*
X139209223Y-74444781D01*
X139014534Y-74381522D01*
X138839995Y-74353878D01*
X138812352Y-74349500D01*
X138607648Y-74349500D01*
X138583329Y-74353351D01*
X138405465Y-74381522D01*
X138210776Y-74444781D01*
X138028386Y-74537715D01*
X137862786Y-74658028D01*
X137718028Y-74802786D01*
X137597715Y-74968386D01*
X137504781Y-75150776D01*
X137441522Y-75345465D01*
X137409500Y-75547648D01*
X132390500Y-75547648D01*
X132358477Y-75345466D01*
X132295220Y-75150781D01*
X132295218Y-75150778D01*
X132295218Y-75150776D01*
X132245089Y-75052394D01*
X132202287Y-74968390D01*
X132120616Y-74855978D01*
X132081971Y-74802786D01*
X131937213Y-74658028D01*
X131771613Y-74537715D01*
X131771612Y-74537714D01*
X131771610Y-74537713D01*
X131714653Y-74508691D01*
X131589223Y-74444781D01*
X131394534Y-74381522D01*
X131219995Y-74353878D01*
X131192352Y-74349500D01*
X130987648Y-74349500D01*
X130963329Y-74353351D01*
X130785465Y-74381522D01*
X130590776Y-74444781D01*
X130408386Y-74537715D01*
X130242786Y-74658028D01*
X130098028Y-74802786D01*
X129977715Y-74968386D01*
X129884781Y-75150776D01*
X129821522Y-75345465D01*
X129789500Y-75547648D01*
X126030500Y-75547648D01*
X126030500Y-75479778D01*
X125996015Y-75262049D01*
X125927895Y-75052394D01*
X125927895Y-75052393D01*
X125848329Y-74896239D01*
X125827815Y-74855978D01*
X125769501Y-74775715D01*
X125698247Y-74677641D01*
X125698243Y-74677636D01*
X125542363Y-74521756D01*
X125542358Y-74521752D01*
X125364025Y-74392187D01*
X125364024Y-74392186D01*
X125364022Y-74392185D01*
X125246791Y-74332452D01*
X125167606Y-74292104D01*
X125167603Y-74292103D01*
X124957952Y-74223985D01*
X124849086Y-74206742D01*
X124740222Y-74189500D01*
X124519778Y-74189500D01*
X124447201Y-74200995D01*
X124302047Y-74223985D01*
X124092396Y-74292103D01*
X124092393Y-74292104D01*
X123895974Y-74392187D01*
X123717641Y-74521752D01*
X123717636Y-74521756D01*
X123667463Y-74571929D01*
X123606140Y-74605413D01*
X123536448Y-74600428D01*
X123480515Y-74558557D01*
X123463601Y-74527580D01*
X123433797Y-74447671D01*
X123433793Y-74447664D01*
X123347547Y-74332455D01*
X123347544Y-74332452D01*
X123232335Y-74246206D01*
X123232328Y-74246202D01*
X123097482Y-74195908D01*
X123097483Y-74195908D01*
X123037883Y-74189501D01*
X123037881Y-74189500D01*
X123037873Y-74189500D01*
X123037864Y-74189500D01*
X121142129Y-74189500D01*
X121142123Y-74189501D01*
X121082516Y-74195908D01*
X120947671Y-74246202D01*
X120947664Y-74246206D01*
X120832455Y-74332452D01*
X120832452Y-74332455D01*
X120746206Y-74447664D01*
X120746202Y-74447671D01*
X120695908Y-74582517D01*
X120689501Y-74642116D01*
X120689500Y-74642135D01*
X118250500Y-74642135D01*
X118250500Y-71142135D01*
X143299500Y-71142135D01*
X143299500Y-72937870D01*
X143299501Y-72937876D01*
X143305908Y-72997483D01*
X143356202Y-73132328D01*
X143356206Y-73132335D01*
X143442452Y-73247544D01*
X143442455Y-73247547D01*
X143557664Y-73333793D01*
X143557671Y-73333797D01*
X143689082Y-73382810D01*
X143745016Y-73424681D01*
X143769433Y-73490145D01*
X143754582Y-73558418D01*
X143733431Y-73586673D01*
X143619889Y-73700215D01*
X143494951Y-73872179D01*
X143398444Y-74061585D01*
X143332753Y-74263760D01*
X143299500Y-74473713D01*
X143299500Y-74686286D01*
X143326376Y-74855978D01*
X143332754Y-74896243D01*
X143383491Y-75052396D01*
X143398444Y-75098414D01*
X143494951Y-75287820D01*
X143619890Y-75459786D01*
X143770213Y-75610109D01*
X143942182Y-75735050D01*
X143950946Y-75739516D01*
X144001742Y-75787491D01*
X144018536Y-75855312D01*
X143995998Y-75921447D01*
X143950946Y-75960484D01*
X143942182Y-75964949D01*
X143770213Y-76089890D01*
X143619890Y-76240213D01*
X143494951Y-76412179D01*
X143398444Y-76601585D01*
X143332753Y-76803760D01*
X143299500Y-77013713D01*
X143299500Y-77226286D01*
X143332753Y-77436239D01*
X143398444Y-77638414D01*
X143494951Y-77827820D01*
X143619890Y-77999786D01*
X143770213Y-78150109D01*
X143942182Y-78275050D01*
X143950946Y-78279516D01*
X144001742Y-78327491D01*
X144018536Y-78395312D01*
X143995998Y-78461447D01*
X143950946Y-78500484D01*
X143942182Y-78504949D01*
X143770213Y-78629890D01*
X143619890Y-78780213D01*
X143494951Y-78952179D01*
X143398444Y-79141585D01*
X143332753Y-79343760D01*
X143299500Y-79553713D01*
X143299500Y-79766286D01*
X143332753Y-79976239D01*
X143398444Y-80178414D01*
X143494951Y-80367820D01*
X143619890Y-80539786D01*
X143770213Y-80690109D01*
X143942179Y-80815048D01*
X143942181Y-80815049D01*
X143942184Y-80815051D01*
X144131588Y-80911557D01*
X144333757Y-80977246D01*
X144543713Y-81010500D01*
X144543714Y-81010500D01*
X144756286Y-81010500D01*
X144756287Y-81010500D01*
X144966243Y-80977246D01*
X145168412Y-80911557D01*
X145357816Y-80815051D01*
X145379789Y-80799086D01*
X145529786Y-80690109D01*
X145529788Y-80690106D01*
X145529792Y-80690104D01*
X145680104Y-80539792D01*
X145680106Y-80539788D01*
X145680109Y-80539786D01*
X145805048Y-80367820D01*
X145805047Y-80367820D01*
X145805051Y-80367816D01*
X145901557Y-80178412D01*
X145967246Y-79976243D01*
X146000500Y-79766287D01*
X146000500Y-79553713D01*
X145967246Y-79343757D01*
X145901557Y-79141588D01*
X145805051Y-78952184D01*
X145805049Y-78952181D01*
X145805048Y-78952179D01*
X145680109Y-78780213D01*
X145529786Y-78629890D01*
X145357820Y-78504951D01*
X145357115Y-78504591D01*
X145349054Y-78500485D01*
X145298259Y-78452512D01*
X145281463Y-78384692D01*
X145303999Y-78318556D01*
X145349054Y-78279515D01*
X145357816Y-78275051D01*
X145379789Y-78259086D01*
X145529786Y-78150109D01*
X145529788Y-78150106D01*
X145529792Y-78150104D01*
X145680104Y-77999792D01*
X145680106Y-77999788D01*
X145680109Y-77999786D01*
X145805048Y-77827820D01*
X145805047Y-77827820D01*
X145805051Y-77827816D01*
X145901557Y-77638412D01*
X145967246Y-77436243D01*
X146000500Y-77226287D01*
X146000500Y-77013713D01*
X145967246Y-76803757D01*
X145901557Y-76601588D01*
X145805051Y-76412184D01*
X145805049Y-76412181D01*
X145805048Y-76412179D01*
X145680109Y-76240213D01*
X145529786Y-76089890D01*
X145357820Y-75964951D01*
X145357115Y-75964591D01*
X145349054Y-75960485D01*
X145298259Y-75912512D01*
X145281463Y-75844692D01*
X145303999Y-75778556D01*
X145349054Y-75739515D01*
X145357816Y-75735051D01*
X145405756Y-75700221D01*
X145529786Y-75610109D01*
X145529788Y-75610106D01*
X145529792Y-75610104D01*
X145680104Y-75459792D01*
X145680106Y-75459788D01*
X145680109Y-75459786D01*
X145805048Y-75287820D01*
X145805047Y-75287820D01*
X145805051Y-75287816D01*
X145901557Y-75098412D01*
X145967246Y-74896243D01*
X146000500Y-74686287D01*
X146000500Y-74473713D01*
X145967246Y-74263757D01*
X145901557Y-74061588D01*
X145805051Y-73872184D01*
X145805049Y-73872181D01*
X145805048Y-73872179D01*
X145680109Y-73700213D01*
X145566569Y-73586673D01*
X145533084Y-73525350D01*
X145538068Y-73455658D01*
X145579940Y-73399725D01*
X145610915Y-73382810D01*
X145742331Y-73333796D01*
X145857546Y-73247546D01*
X145943796Y-73132331D01*
X145994091Y-72997483D01*
X146000500Y-72937873D01*
X146000499Y-71142128D01*
X145994091Y-71082517D01*
X145943796Y-70947669D01*
X145943795Y-70947668D01*
X145943793Y-70947664D01*
X145857547Y-70832455D01*
X145857544Y-70832452D01*
X145742335Y-70746206D01*
X145742328Y-70746202D01*
X145607482Y-70695908D01*
X145607483Y-70695908D01*
X145547883Y-70689501D01*
X145547881Y-70689500D01*
X145547873Y-70689500D01*
X145547864Y-70689500D01*
X143752129Y-70689500D01*
X143752123Y-70689501D01*
X143692516Y-70695908D01*
X143557671Y-70746202D01*
X143557664Y-70746206D01*
X143442455Y-70832452D01*
X143442452Y-70832455D01*
X143356206Y-70947664D01*
X143356202Y-70947671D01*
X143305908Y-71082517D01*
X143299501Y-71142116D01*
X143299501Y-71142123D01*
X143299500Y-71142135D01*
X118250500Y-71142135D01*
X118250500Y-67172135D01*
X120689500Y-67172135D01*
X120689500Y-69067870D01*
X120689501Y-69067876D01*
X120695908Y-69127483D01*
X120746202Y-69262328D01*
X120746206Y-69262335D01*
X120832452Y-69377544D01*
X120832455Y-69377547D01*
X120947664Y-69463793D01*
X120947671Y-69463797D01*
X121082517Y-69514091D01*
X121082516Y-69514091D01*
X121089444Y-69514835D01*
X121142127Y-69520500D01*
X123037872Y-69520499D01*
X123097483Y-69514091D01*
X123232331Y-69463796D01*
X123347546Y-69377546D01*
X123433796Y-69262331D01*
X123460039Y-69191971D01*
X123463601Y-69182420D01*
X123505471Y-69126486D01*
X123570936Y-69102068D01*
X123639209Y-69116919D01*
X123667464Y-69138071D01*
X123717636Y-69188243D01*
X123717641Y-69188247D01*
X123819603Y-69262326D01*
X123895978Y-69317815D01*
X124024375Y-69383237D01*
X124092393Y-69417895D01*
X124092396Y-69417896D01*
X124197221Y-69451955D01*
X124302049Y-69486015D01*
X124519778Y-69520500D01*
X124519779Y-69520500D01*
X124740221Y-69520500D01*
X124740222Y-69520500D01*
X124957951Y-69486015D01*
X125167606Y-69417895D01*
X125364022Y-69317815D01*
X125542365Y-69188242D01*
X125698242Y-69032365D01*
X125827815Y-68854022D01*
X125927895Y-68657606D01*
X125996015Y-68447951D01*
X126030500Y-68230222D01*
X126030500Y-68097648D01*
X129879500Y-68097648D01*
X129879500Y-68302351D01*
X129911522Y-68504534D01*
X129974781Y-68699223D01*
X130067715Y-68881613D01*
X130188028Y-69047213D01*
X130332786Y-69191971D01*
X130429636Y-69262335D01*
X130498390Y-69312287D01*
X130614607Y-69371503D01*
X130680776Y-69405218D01*
X130680778Y-69405218D01*
X130680781Y-69405220D01*
X130719791Y-69417895D01*
X130875465Y-69468477D01*
X130976557Y-69484488D01*
X131077648Y-69500500D01*
X131077649Y-69500500D01*
X131282351Y-69500500D01*
X131282352Y-69500500D01*
X131484534Y-69468477D01*
X131679219Y-69405220D01*
X131861610Y-69312287D01*
X131954590Y-69244732D01*
X132027213Y-69191971D01*
X132027215Y-69191968D01*
X132027219Y-69191966D01*
X132171966Y-69047219D01*
X132171968Y-69047215D01*
X132171971Y-69047213D01*
X132254016Y-68934286D01*
X132292287Y-68881610D01*
X132385220Y-68699219D01*
X132448477Y-68504534D01*
X132480500Y-68302352D01*
X132480500Y-68097648D01*
X137499500Y-68097648D01*
X137499500Y-68302351D01*
X137531522Y-68504534D01*
X137594781Y-68699223D01*
X137687715Y-68881613D01*
X137808028Y-69047213D01*
X137952786Y-69191971D01*
X138049636Y-69262335D01*
X138118390Y-69312287D01*
X138234607Y-69371503D01*
X138300776Y-69405218D01*
X138300778Y-69405218D01*
X138300781Y-69405220D01*
X138339791Y-69417895D01*
X138495465Y-69468477D01*
X138596557Y-69484488D01*
X138697648Y-69500500D01*
X138697649Y-69500500D01*
X138902351Y-69500500D01*
X138902352Y-69500500D01*
X139104534Y-69468477D01*
X139299219Y-69405220D01*
X139481610Y-69312287D01*
X139574590Y-69244732D01*
X139647213Y-69191971D01*
X139647215Y-69191968D01*
X139647219Y-69191966D01*
X139791966Y-69047219D01*
X139791968Y-69047215D01*
X139791971Y-69047213D01*
X139874016Y-68934286D01*
X139912287Y-68881610D01*
X140005220Y-68699219D01*
X140068477Y-68504534D01*
X140100500Y-68302352D01*
X140100500Y-68097648D01*
X140068477Y-67895466D01*
X140005220Y-67700781D01*
X140005218Y-67700778D01*
X140005218Y-67700776D01*
X139971503Y-67634607D01*
X139912287Y-67518390D01*
X139904556Y-67507749D01*
X139791971Y-67352786D01*
X139647213Y-67208028D01*
X139481613Y-67087715D01*
X139481612Y-67087714D01*
X139481610Y-67087713D01*
X139422471Y-67057580D01*
X139299223Y-66994781D01*
X139104534Y-66931522D01*
X138929995Y-66903878D01*
X138902352Y-66899500D01*
X138697648Y-66899500D01*
X138673329Y-66903351D01*
X138495465Y-66931522D01*
X138300776Y-66994781D01*
X138118386Y-67087715D01*
X137952786Y-67208028D01*
X137808028Y-67352786D01*
X137687715Y-67518386D01*
X137594781Y-67700776D01*
X137531522Y-67895465D01*
X137499500Y-68097648D01*
X132480500Y-68097648D01*
X132448477Y-67895466D01*
X132385220Y-67700781D01*
X132385218Y-67700778D01*
X132385218Y-67700776D01*
X132351503Y-67634607D01*
X132292287Y-67518390D01*
X132284556Y-67507749D01*
X132171971Y-67352786D01*
X132027213Y-67208028D01*
X131861613Y-67087715D01*
X131861612Y-67087714D01*
X131861610Y-67087713D01*
X131802471Y-67057580D01*
X131679223Y-66994781D01*
X131484534Y-66931522D01*
X131309995Y-66903878D01*
X131282352Y-66899500D01*
X131077648Y-66899500D01*
X131053329Y-66903351D01*
X130875465Y-66931522D01*
X130680776Y-66994781D01*
X130498386Y-67087715D01*
X130332786Y-67208028D01*
X130188028Y-67352786D01*
X130067715Y-67518386D01*
X129974781Y-67700776D01*
X129911522Y-67895465D01*
X129879500Y-68097648D01*
X126030500Y-68097648D01*
X126030500Y-68009778D01*
X125996015Y-67792049D01*
X125927895Y-67582394D01*
X125927895Y-67582393D01*
X125893237Y-67514375D01*
X125827815Y-67385978D01*
X125769501Y-67305715D01*
X125698247Y-67207641D01*
X125698243Y-67207636D01*
X125542363Y-67051756D01*
X125542358Y-67051752D01*
X125364025Y-66922187D01*
X125364024Y-66922186D01*
X125364022Y-66922185D01*
X125246791Y-66862452D01*
X125167606Y-66822104D01*
X125167603Y-66822103D01*
X124957952Y-66753985D01*
X124849086Y-66736742D01*
X124740222Y-66719500D01*
X124519778Y-66719500D01*
X124447201Y-66730995D01*
X124302047Y-66753985D01*
X124092396Y-66822103D01*
X124092393Y-66822104D01*
X123895974Y-66922187D01*
X123717641Y-67051752D01*
X123717636Y-67051756D01*
X123667463Y-67101929D01*
X123606140Y-67135413D01*
X123536448Y-67130428D01*
X123480515Y-67088557D01*
X123463601Y-67057580D01*
X123433797Y-66977671D01*
X123433793Y-66977664D01*
X123347547Y-66862455D01*
X123347544Y-66862452D01*
X123232335Y-66776206D01*
X123232328Y-66776202D01*
X123097482Y-66725908D01*
X123097483Y-66725908D01*
X123037883Y-66719501D01*
X123037881Y-66719500D01*
X123037873Y-66719500D01*
X123037864Y-66719500D01*
X121142129Y-66719500D01*
X121142123Y-66719501D01*
X121082516Y-66725908D01*
X120947671Y-66776202D01*
X120947664Y-66776206D01*
X120832455Y-66862452D01*
X120832452Y-66862455D01*
X120746206Y-66977664D01*
X120746202Y-66977671D01*
X120695908Y-67112517D01*
X120689501Y-67172116D01*
X120689500Y-67172135D01*
X118250500Y-67172135D01*
X118250500Y-63124500D01*
X118270185Y-63057461D01*
X118322989Y-63011706D01*
X118374500Y-63000500D01*
X147375500Y-63000500D01*
X147442539Y-63020185D01*
G37*
%TD.AperFunction*%
M02*
