%TF.GenerationSoftware,KiCad,Pcbnew,9.0.3*%
%TF.CreationDate,2026-07-21T12:10:00+05:30*%
%TF.ProjectId,01_LED_Basic,30315f4c-4544-45f4-9261-7369632e6b69,rev?*%
%TF.SameCoordinates,Original*%
%TF.FileFunction,Copper,L2,Bot*%
%TF.FilePolarity,Positive*%
%FSLAX46Y46*%
G04 Gerber Fmt 4.6, Leading zero omitted, Abs format (unit mm)*
G04 Created by KiCad (PCBNEW 9.0.3) date 2026-07-21 12:10:00*
%MOMM*%
%LPD*%
G01*
G04 APERTURE LIST*
%TA.AperFunction,NonConductor*%
%ADD10C,0.200000*%
%TD*%
%TA.AperFunction,ComponentPad*%
%ADD11C,1.600000*%
%TD*%
%TA.AperFunction,ComponentPad*%
%ADD12C,1.700000*%
%TD*%
%TA.AperFunction,ComponentPad*%
%ADD13R,1.700000X1.700000*%
%TD*%
%TA.AperFunction,ComponentPad*%
%ADD14C,1.800000*%
%TD*%
%TA.AperFunction,ComponentPad*%
%ADD15R,1.800000X1.800000*%
%TD*%
%TA.AperFunction,Conductor*%
%ADD16C,0.200000*%
%TD*%
G04 APERTURE END LIST*
D10*
X116750000Y-61500000D02*
X149000000Y-61500000D01*
X149000000Y-89500000D01*
X116750000Y-89500000D01*
X116750000Y-61500000D01*
D11*
%TO.P,R3,2*%
%TO.N,Net-(D3-A)*%
X131080000Y-83125000D03*
%TO.P,R3,1*%
%TO.N,/LED3_IN*%
X138700000Y-83125000D03*
%TD*%
%TO.P,R2,2*%
%TO.N,/LED2_IN*%
X138710000Y-75650000D03*
%TO.P,R2,1*%
%TO.N,Net-(D2-A)*%
X131090000Y-75650000D03*
%TD*%
D12*
%TO.P,J1,4,Pin_4*%
%TO.N,GND*%
X144650000Y-79660000D03*
%TO.P,J1,3,Pin_3*%
%TO.N,/LED3_IN*%
X144650000Y-77120000D03*
%TO.P,J1,2,Pin_2*%
%TO.N,/LED2_IN*%
X144650000Y-74580000D03*
D13*
%TO.P,J1,1,Pin_1*%
%TO.N,/LED1_IN*%
X144650000Y-72040000D03*
%TD*%
D14*
%TO.P,D3,2,A*%
%TO.N,Net-(D3-A)*%
X124630000Y-83060000D03*
D15*
%TO.P,D3,1,K*%
%TO.N,GND*%
X122090000Y-83060000D03*
%TD*%
D14*
%TO.P,D1,2,A*%
%TO.N,Net-(D1-A)*%
X124630000Y-68120000D03*
D15*
%TO.P,D1,1,K*%
%TO.N,GND*%
X122090000Y-68120000D03*
%TD*%
D11*
%TO.P,R1,2*%
%TO.N,Net-(D1-A)*%
X131180000Y-68200000D03*
%TO.P,R1,1*%
%TO.N,/LED1_IN*%
X138800000Y-68200000D03*
%TD*%
D14*
%TO.P,D2,2,A*%
%TO.N,Net-(D2-A)*%
X124630000Y-75590000D03*
D15*
%TO.P,D2,1,K*%
%TO.N,GND*%
X122090000Y-75590000D03*
%TD*%
D16*
%TO.N,GND*%
X143450000Y-86900000D02*
X144650000Y-85700000D01*
X122900000Y-86900000D02*
X143450000Y-86900000D01*
X122090000Y-86090000D02*
X122900000Y-86900000D01*
X144650000Y-85700000D02*
X144650000Y-79660000D01*
X122090000Y-83060000D02*
X122090000Y-86090000D01*
%TO.N,/LED1_IN*%
X143900000Y-68200000D02*
X138800000Y-68200000D01*
X144650000Y-68950000D02*
X143900000Y-68200000D01*
X144650000Y-72040000D02*
X144650000Y-68950000D01*
%TO.N,GND*%
X122090000Y-75590000D02*
X122090000Y-83060000D01*
X122090000Y-68120000D02*
X122090000Y-75590000D01*
%TO.N,/LED2_IN*%
X143580000Y-75650000D02*
X144650000Y-74580000D01*
X138710000Y-75650000D02*
X143580000Y-75650000D01*
%TO.N,Net-(D3-A)*%
X131015000Y-83060000D02*
X131080000Y-83125000D01*
X124630000Y-83060000D02*
X131015000Y-83060000D01*
%TO.N,Net-(D2-A)*%
X124630000Y-75590000D02*
X131030000Y-75590000D01*
X131030000Y-75590000D02*
X131090000Y-75650000D01*
%TO.N,Net-(D1-A)*%
X131100000Y-68120000D02*
X131180000Y-68200000D01*
X124630000Y-68120000D02*
X131100000Y-68120000D01*
%TO.N,/LED3_IN*%
X144650000Y-77175000D02*
X144650000Y-77120000D01*
X138700000Y-83125000D02*
X144650000Y-77175000D01*
%TD*%
%TA.AperFunction,Conductor*%
%TO.N,GND*%
G36*
X147442539Y-63020185D02*
G01*
X147488294Y-63072989D01*
X147499500Y-63124500D01*
X147499500Y-87875500D01*
X147479815Y-87942539D01*
X147427011Y-87988294D01*
X147375500Y-87999500D01*
X118374500Y-87999500D01*
X118307461Y-87979815D01*
X118261706Y-87927011D01*
X118250500Y-87875500D01*
X118250500Y-82112155D01*
X120690000Y-82112155D01*
X120690000Y-82810000D01*
X121714722Y-82810000D01*
X121670667Y-82886306D01*
X121640000Y-83000756D01*
X121640000Y-83119244D01*
X121670667Y-83233694D01*
X121714722Y-83310000D01*
X120690000Y-83310000D01*
X120690000Y-84007844D01*
X120696401Y-84067372D01*
X120696403Y-84067379D01*
X120746645Y-84202086D01*
X120746649Y-84202093D01*
X120832809Y-84317187D01*
X120832812Y-84317190D01*
X120947906Y-84403350D01*
X120947913Y-84403354D01*
X121082620Y-84453596D01*
X121082627Y-84453598D01*
X121142155Y-84459999D01*
X121142172Y-84460000D01*
X121840000Y-84460000D01*
X121840000Y-83435277D01*
X121916306Y-83479333D01*
X122030756Y-83510000D01*
X122149244Y-83510000D01*
X122263694Y-83479333D01*
X122340000Y-83435277D01*
X122340000Y-84460000D01*
X123037828Y-84460000D01*
X123037844Y-84459999D01*
X123097372Y-84453598D01*
X123097379Y-84453596D01*
X123232086Y-84403354D01*
X123232093Y-84403350D01*
X123347187Y-84317190D01*
X123347190Y-84317187D01*
X123433350Y-84202093D01*
X123433354Y-84202086D01*
X123463213Y-84122031D01*
X123505084Y-84066097D01*
X123570548Y-84041680D01*
X123638821Y-84056531D01*
X123667076Y-84077683D01*
X123717636Y-84128243D01*
X123717641Y-84128247D01*
X123867719Y-84237284D01*
X123895978Y-84257815D01*
X124012501Y-84317187D01*
X124092393Y-84357895D01*
X124092396Y-84357896D01*
X124197221Y-84391955D01*
X124302049Y-84426015D01*
X124519778Y-84460500D01*
X124519779Y-84460500D01*
X124740221Y-84460500D01*
X124740222Y-84460500D01*
X124957951Y-84426015D01*
X125167606Y-84357895D01*
X125364022Y-84257815D01*
X125542365Y-84128242D01*
X125698242Y-83972365D01*
X125827815Y-83794022D01*
X125861352Y-83728204D01*
X125909326Y-83677409D01*
X125971836Y-83660500D01*
X129817279Y-83660500D01*
X129884318Y-83680185D01*
X129927764Y-83728205D01*
X129967715Y-83806614D01*
X130088028Y-83972213D01*
X130232786Y-84116971D01*
X130349949Y-84202093D01*
X130398390Y-84237287D01*
X130514607Y-84296503D01*
X130580776Y-84330218D01*
X130580778Y-84330218D01*
X130580781Y-84330220D01*
X130665956Y-84357895D01*
X130775465Y-84393477D01*
X130837826Y-84403354D01*
X130977648Y-84425500D01*
X130977649Y-84425500D01*
X131182351Y-84425500D01*
X131182352Y-84425500D01*
X131384534Y-84393477D01*
X131579219Y-84330220D01*
X131761610Y-84237287D01*
X131854590Y-84169732D01*
X131927213Y-84116971D01*
X131927215Y-84116968D01*
X131927219Y-84116966D01*
X132071966Y-83972219D01*
X132071968Y-83972215D01*
X132071971Y-83972213D01*
X132124732Y-83899590D01*
X132192287Y-83806610D01*
X132285220Y-83624219D01*
X132348477Y-83429534D01*
X132380500Y-83227352D01*
X132380500Y-83022648D01*
X137399500Y-83022648D01*
X137399500Y-83227352D01*
X137403878Y-83254995D01*
X137431522Y-83429534D01*
X137494781Y-83624223D01*
X137587715Y-83806613D01*
X137708028Y-83972213D01*
X137852786Y-84116971D01*
X137969949Y-84202093D01*
X138018390Y-84237287D01*
X138134607Y-84296503D01*
X138200776Y-84330218D01*
X138200778Y-84330218D01*
X138200781Y-84330220D01*
X138285956Y-84357895D01*
X138395465Y-84393477D01*
X138457826Y-84403354D01*
X138597648Y-84425500D01*
X138597649Y-84425500D01*
X138802351Y-84425500D01*
X138802352Y-84425500D01*
X139004534Y-84393477D01*
X139199219Y-84330220D01*
X139381610Y-84237287D01*
X139474590Y-84169732D01*
X139547213Y-84116971D01*
X139547215Y-84116968D01*
X139547219Y-84116966D01*
X139691966Y-83972219D01*
X139691968Y-83972215D01*
X139691971Y-83972213D01*
X139744732Y-83899590D01*
X139812287Y-83806610D01*
X139905220Y-83624219D01*
X139968477Y-83429534D01*
X140000500Y-83227352D01*
X140000500Y-83022648D01*
X139968477Y-82820466D01*
X139963825Y-82806151D01*
X139961832Y-82736312D01*
X139994075Y-82680158D01*
X143088320Y-79585914D01*
X143149642Y-79552430D01*
X143219334Y-79557414D01*
X143275267Y-79599286D01*
X143299684Y-79664750D01*
X143300000Y-79673596D01*
X143300000Y-79766246D01*
X143333242Y-79976127D01*
X143333242Y-79976130D01*
X143398904Y-80178217D01*
X143495375Y-80367550D01*
X143534728Y-80421716D01*
X144167037Y-79789408D01*
X144184075Y-79852993D01*
X144249901Y-79967007D01*
X144342993Y-80060099D01*
X144457007Y-80125925D01*
X144520590Y-80142962D01*
X143888282Y-80775269D01*
X143888282Y-80775270D01*
X143942449Y-80814624D01*
X144131782Y-80911095D01*
X144333870Y-80976757D01*
X144543754Y-81010000D01*
X144756246Y-81010000D01*
X144966127Y-80976757D01*
X144966130Y-80976757D01*
X145168217Y-80911095D01*
X145357554Y-80814622D01*
X145411716Y-80775270D01*
X145411717Y-80775270D01*
X144779408Y-80142962D01*
X144842993Y-80125925D01*
X144957007Y-80060099D01*
X145050099Y-79967007D01*
X145115925Y-79852993D01*
X145132962Y-79789408D01*
X145765270Y-80421717D01*
X145765270Y-80421716D01*
X145804622Y-80367554D01*
X145901095Y-80178217D01*
X145966757Y-79976130D01*
X145966757Y-79976127D01*
X146000000Y-79766246D01*
X146000000Y-79553753D01*
X145966757Y-79343872D01*
X145966757Y-79343869D01*
X145901095Y-79141782D01*
X145804624Y-78952449D01*
X145765270Y-78898282D01*
X145765269Y-78898282D01*
X145132962Y-79530590D01*
X145115925Y-79467007D01*
X145050099Y-79352993D01*
X144957007Y-79259901D01*
X144842993Y-79194075D01*
X144779408Y-79177037D01*
X145411716Y-78544728D01*
X145357547Y-78505373D01*
X145357547Y-78505372D01*
X145348500Y-78500763D01*
X145297706Y-78452788D01*
X145280912Y-78384966D01*
X145303451Y-78318832D01*
X145348508Y-78279793D01*
X145357816Y-78275051D01*
X145437007Y-78217515D01*
X145529786Y-78150109D01*
X145529788Y-78150106D01*
X145529792Y-78150104D01*
X145680104Y-77999792D01*
X145680106Y-77999788D01*
X145680109Y-77999786D01*
X145805048Y-77827820D01*
X145805047Y-77827820D01*
X145805051Y-77827816D01*
X145901557Y-77638412D01*
X145967246Y-77436243D01*
X146000500Y-77226287D01*
X146000500Y-77013713D01*
X145967246Y-76803757D01*
X145901557Y-76601588D01*
X145805051Y-76412184D01*
X145805049Y-76412181D01*
X145805048Y-76412179D01*
X145680109Y-76240213D01*
X145529786Y-76089890D01*
X145357820Y-75964951D01*
X145357115Y-75964591D01*
X145349054Y-75960485D01*
X145298259Y-75912512D01*
X145281463Y-75844692D01*
X145303999Y-75778556D01*
X145349054Y-75739515D01*
X145357816Y-75735051D01*
X145405754Y-75700222D01*
X145529786Y-75610109D01*
X145529788Y-75610106D01*
X145529792Y-75610104D01*
X145680104Y-75459792D01*
X145680106Y-75459788D01*
X145680109Y-75459786D01*
X145805048Y-75287820D01*
X145805047Y-75287820D01*
X145805051Y-75287816D01*
X145901557Y-75098412D01*
X145967246Y-74896243D01*
X146000500Y-74686287D01*
X146000500Y-74473713D01*
X145967246Y-74263757D01*
X145901557Y-74061588D01*
X145805051Y-73872184D01*
X145805049Y-73872181D01*
X145805048Y-73872179D01*
X145680109Y-73700213D01*
X145566569Y-73586673D01*
X145533084Y-73525350D01*
X145538068Y-73455658D01*
X145579940Y-73399725D01*
X145610915Y-73382810D01*
X145742331Y-73333796D01*
X145857546Y-73247546D01*
X145943796Y-73132331D01*
X145994091Y-72997483D01*
X146000500Y-72937873D01*
X146000499Y-71142128D01*
X145994091Y-71082517D01*
X145943796Y-70947669D01*
X145943795Y-70947668D01*
X145943793Y-70947664D01*
X145857547Y-70832455D01*
X145857544Y-70832452D01*
X145742335Y-70746206D01*
X145742328Y-70746202D01*
X145607482Y-70695908D01*
X145607483Y-70695908D01*
X145547883Y-70689501D01*
X145547881Y-70689500D01*
X145547873Y-70689500D01*
X145547865Y-70689500D01*
X145374500Y-70689500D01*
X145307461Y-70669815D01*
X145261706Y-70617011D01*
X145250500Y-70565500D01*
X145250500Y-68870945D01*
X145250500Y-68870943D01*
X145209577Y-68718216D01*
X145209577Y-68718215D01*
X145156652Y-68626547D01*
X145130520Y-68581284D01*
X145018716Y-68469480D01*
X145018713Y-68469478D01*
X144387590Y-67838355D01*
X144387588Y-67838352D01*
X144268717Y-67719481D01*
X144268716Y-67719480D01*
X144181904Y-67669360D01*
X144181904Y-67669359D01*
X144181900Y-67669358D01*
X144131785Y-67640423D01*
X143979057Y-67599499D01*
X143820943Y-67599499D01*
X143813347Y-67599499D01*
X143813331Y-67599500D01*
X140029602Y-67599500D01*
X139962563Y-67579815D01*
X139919117Y-67531795D01*
X139912287Y-67518390D01*
X139912285Y-67518387D01*
X139912284Y-67518385D01*
X139791971Y-67352786D01*
X139647213Y-67208028D01*
X139481613Y-67087715D01*
X139481612Y-67087714D01*
X139481610Y-67087713D01*
X139423232Y-67057968D01*
X139299223Y-66994781D01*
X139104534Y-66931522D01*
X138929995Y-66903878D01*
X138902352Y-66899500D01*
X138697648Y-66899500D01*
X138673329Y-66903351D01*
X138495465Y-66931522D01*
X138300776Y-66994781D01*
X138118386Y-67087715D01*
X137952786Y-67208028D01*
X137808028Y-67352786D01*
X137687715Y-67518386D01*
X137594781Y-67700776D01*
X137531522Y-67895465D01*
X137499500Y-68097648D01*
X137499500Y-68302351D01*
X137531522Y-68504534D01*
X137594781Y-68699223D01*
X137687715Y-68881613D01*
X137808028Y-69047213D01*
X137952786Y-69191971D01*
X138049303Y-69262093D01*
X138118390Y-69312287D01*
X138234607Y-69371503D01*
X138300776Y-69405218D01*
X138300778Y-69405218D01*
X138300781Y-69405220D01*
X138339791Y-69417895D01*
X138495465Y-69468477D01*
X138596557Y-69484488D01*
X138697648Y-69500500D01*
X138697649Y-69500500D01*
X138902351Y-69500500D01*
X138902352Y-69500500D01*
X139104534Y-69468477D01*
X139299219Y-69405220D01*
X139481610Y-69312287D01*
X139603487Y-69223739D01*
X139647213Y-69191971D01*
X139647215Y-69191968D01*
X139647219Y-69191966D01*
X139791966Y-69047219D01*
X139791968Y-69047215D01*
X139791971Y-69047213D01*
X139912284Y-68881614D01*
X139912285Y-68881613D01*
X139912287Y-68881610D01*
X139919117Y-68868204D01*
X139967091Y-68817409D01*
X140029602Y-68800500D01*
X143599903Y-68800500D01*
X143666942Y-68820185D01*
X143687584Y-68836819D01*
X144013181Y-69162416D01*
X144046666Y-69223739D01*
X144049500Y-69250097D01*
X144049500Y-70565500D01*
X144029815Y-70632539D01*
X143977011Y-70678294D01*
X143925501Y-70689500D01*
X143752130Y-70689500D01*
X143752123Y-70689501D01*
X143692516Y-70695908D01*
X143557671Y-70746202D01*
X143557664Y-70746206D01*
X143442455Y-70832452D01*
X143442452Y-70832455D01*
X143356206Y-70947664D01*
X143356202Y-70947671D01*
X143305908Y-71082517D01*
X143299501Y-71142116D01*
X143299501Y-71142123D01*
X143299500Y-71142135D01*
X143299500Y-72937870D01*
X143299501Y-72937876D01*
X143305908Y-72997483D01*
X143356202Y-73132328D01*
X143356206Y-73132335D01*
X143442452Y-73247544D01*
X143442455Y-73247547D01*
X143557664Y-73333793D01*
X143557671Y-73333797D01*
X143689082Y-73382810D01*
X143745016Y-73424681D01*
X143769433Y-73490145D01*
X143754582Y-73558418D01*
X143733431Y-73586673D01*
X143619889Y-73700215D01*
X143494951Y-73872179D01*
X143398444Y-74061585D01*
X143332753Y-74263760D01*
X143299500Y-74473713D01*
X143299500Y-74686286D01*
X143332753Y-74896241D01*
X143332832Y-74896568D01*
X143332825Y-74896695D01*
X143333516Y-74901055D01*
X143332599Y-74901200D01*
X143329332Y-74966350D01*
X143288661Y-75023162D01*
X143223731Y-75048968D01*
X143212254Y-75049500D01*
X139939602Y-75049500D01*
X139872563Y-75029815D01*
X139829117Y-74981795D01*
X139822284Y-74968385D01*
X139701971Y-74802786D01*
X139557213Y-74658028D01*
X139391613Y-74537715D01*
X139391612Y-74537714D01*
X139391610Y-74537713D01*
X139334653Y-74508691D01*
X139209223Y-74444781D01*
X139014534Y-74381522D01*
X138839995Y-74353878D01*
X138812352Y-74349500D01*
X138607648Y-74349500D01*
X138583329Y-74353351D01*
X138405465Y-74381522D01*
X138210776Y-74444781D01*
X138028386Y-74537715D01*
X137862786Y-74658028D01*
X137718028Y-74802786D01*
X137597715Y-74968386D01*
X137504781Y-75150776D01*
X137441522Y-75345465D01*
X137412175Y-75530756D01*
X137409500Y-75547648D01*
X137409500Y-75752352D01*
X137413650Y-75778556D01*
X137441522Y-75954534D01*
X137504781Y-76149223D01*
X137551141Y-76240208D01*
X137593847Y-76324023D01*
X137597715Y-76331613D01*
X137718028Y-76497213D01*
X137862786Y-76641971D01*
X137986831Y-76732093D01*
X138028390Y-76762287D01*
X138144607Y-76821503D01*
X138210776Y-76855218D01*
X138210778Y-76855218D01*
X138210781Y-76855220D01*
X138311344Y-76887895D01*
X138405465Y-76918477D01*
X138499369Y-76933350D01*
X138607648Y-76950500D01*
X138607649Y-76950500D01*
X138812351Y-76950500D01*
X138812352Y-76950500D01*
X139014534Y-76918477D01*
X139209219Y-76855220D01*
X139391610Y-76762287D01*
X139484590Y-76694732D01*
X139557213Y-76641971D01*
X139557215Y-76641968D01*
X139557219Y-76641966D01*
X139701966Y-76497219D01*
X139701968Y-76497215D01*
X139701971Y-76497213D01*
X139822284Y-76331614D01*
X139822285Y-76331613D01*
X139822287Y-76331610D01*
X139829117Y-76318204D01*
X139877091Y-76267409D01*
X139939602Y-76250500D01*
X143374981Y-76250500D01*
X143442020Y-76270185D01*
X143487775Y-76322989D01*
X143497719Y-76392147D01*
X143485466Y-76430795D01*
X143398444Y-76601585D01*
X143332753Y-76803760D01*
X143299500Y-77013713D01*
X143299500Y-77226286D01*
X143332753Y-77436240D01*
X143332754Y-77436244D01*
X143359979Y-77520035D01*
X143361974Y-77589876D01*
X143329729Y-77646033D01*
X139144842Y-81830921D01*
X139083519Y-81864406D01*
X139018848Y-81861173D01*
X139004534Y-81856522D01*
X138829995Y-81828878D01*
X138802352Y-81824500D01*
X138597648Y-81824500D01*
X138573329Y-81828351D01*
X138395465Y-81856522D01*
X138200776Y-81919781D01*
X138018386Y-82012715D01*
X137852786Y-82133028D01*
X137708028Y-82277786D01*
X137587715Y-82443386D01*
X137494781Y-82625776D01*
X137431522Y-82820465D01*
X137402967Y-83000756D01*
X137399500Y-83022648D01*
X132380500Y-83022648D01*
X132348477Y-82820466D01*
X132345076Y-82810000D01*
X132309306Y-82699910D01*
X132285220Y-82625781D01*
X132285218Y-82625778D01*
X132285218Y-82625776D01*
X132251503Y-82559607D01*
X132192287Y-82443390D01*
X132154802Y-82391796D01*
X132071971Y-82277786D01*
X131927213Y-82133028D01*
X131761613Y-82012715D01*
X131761612Y-82012714D01*
X131761610Y-82012713D01*
X131704653Y-81983691D01*
X131579223Y-81919781D01*
X131384534Y-81856522D01*
X131209995Y-81828878D01*
X131182352Y-81824500D01*
X130977648Y-81824500D01*
X130953329Y-81828351D01*
X130775465Y-81856522D01*
X130580776Y-81919781D01*
X130398386Y-82012715D01*
X130232786Y-82133028D01*
X130088034Y-82277780D01*
X130053017Y-82325978D01*
X129993144Y-82408386D01*
X129937816Y-82451051D01*
X129892827Y-82459500D01*
X125971836Y-82459500D01*
X125904797Y-82439815D01*
X125861352Y-82391796D01*
X125827814Y-82325976D01*
X125698247Y-82147641D01*
X125698243Y-82147636D01*
X125542363Y-81991756D01*
X125542358Y-81991752D01*
X125364025Y-81862187D01*
X125364024Y-81862186D01*
X125364022Y-81862185D01*
X125290062Y-81824500D01*
X125167606Y-81762104D01*
X125167603Y-81762103D01*
X124957952Y-81693985D01*
X124849086Y-81676742D01*
X124740222Y-81659500D01*
X124519778Y-81659500D01*
X124447201Y-81670995D01*
X124302047Y-81693985D01*
X124092396Y-81762103D01*
X124092393Y-81762104D01*
X123895974Y-81862187D01*
X123717641Y-81991752D01*
X123717636Y-81991756D01*
X123667075Y-82042317D01*
X123605752Y-82075801D01*
X123536060Y-82070816D01*
X123480127Y-82028945D01*
X123463213Y-81997968D01*
X123433354Y-81917913D01*
X123433350Y-81917906D01*
X123347190Y-81802812D01*
X123347187Y-81802809D01*
X123232093Y-81716649D01*
X123232086Y-81716645D01*
X123097379Y-81666403D01*
X123097372Y-81666401D01*
X123037844Y-81660000D01*
X122340000Y-81660000D01*
X122340000Y-82684722D01*
X122263694Y-82640667D01*
X122149244Y-82610000D01*
X122030756Y-82610000D01*
X121916306Y-82640667D01*
X121840000Y-82684722D01*
X121840000Y-81660000D01*
X121142155Y-81660000D01*
X121082627Y-81666401D01*
X121082620Y-81666403D01*
X120947913Y-81716645D01*
X120947906Y-81716649D01*
X120832812Y-81802809D01*
X120832809Y-81802812D01*
X120746649Y-81917906D01*
X120746645Y-81917913D01*
X120696403Y-82052620D01*
X120696401Y-82052627D01*
X120690000Y-82112155D01*
X118250500Y-82112155D01*
X118250500Y-74642155D01*
X120690000Y-74642155D01*
X120690000Y-75340000D01*
X121714722Y-75340000D01*
X121670667Y-75416306D01*
X121640000Y-75530756D01*
X121640000Y-75649244D01*
X121670667Y-75763694D01*
X121714722Y-75840000D01*
X120690000Y-75840000D01*
X120690000Y-76537844D01*
X120696401Y-76597372D01*
X120696403Y-76597379D01*
X120746645Y-76732086D01*
X120746649Y-76732093D01*
X120832809Y-76847187D01*
X120832812Y-76847190D01*
X120947906Y-76933350D01*
X120947913Y-76933354D01*
X121082620Y-76983596D01*
X121082627Y-76983598D01*
X121142155Y-76989999D01*
X121142172Y-76990000D01*
X121840000Y-76990000D01*
X121840000Y-75965277D01*
X121916306Y-76009333D01*
X122030756Y-76040000D01*
X122149244Y-76040000D01*
X122263694Y-76009333D01*
X122340000Y-75965277D01*
X122340000Y-76990000D01*
X123037828Y-76990000D01*
X123037844Y-76989999D01*
X123097372Y-76983598D01*
X123097379Y-76983596D01*
X123232086Y-76933354D01*
X123232093Y-76933350D01*
X123347187Y-76847190D01*
X123347190Y-76847187D01*
X123433350Y-76732093D01*
X123433354Y-76732086D01*
X123463213Y-76652031D01*
X123505084Y-76596097D01*
X123570548Y-76571680D01*
X123638821Y-76586531D01*
X123667076Y-76607683D01*
X123717636Y-76658243D01*
X123717641Y-76658247D01*
X123873192Y-76771260D01*
X123895978Y-76787815D01*
X124012501Y-76847187D01*
X124092393Y-76887895D01*
X124092396Y-76887896D01*
X124186517Y-76918477D01*
X124302049Y-76956015D01*
X124519778Y-76990500D01*
X124519779Y-76990500D01*
X124740221Y-76990500D01*
X124740222Y-76990500D01*
X124957951Y-76956015D01*
X125167606Y-76887895D01*
X125364022Y-76787815D01*
X125542365Y-76658242D01*
X125698242Y-76502365D01*
X125827815Y-76324022D01*
X125855247Y-76270185D01*
X125861352Y-76258204D01*
X125909326Y-76207409D01*
X125971836Y-76190500D01*
X129829826Y-76190500D01*
X129896865Y-76210185D01*
X129940311Y-76258205D01*
X129973847Y-76324023D01*
X129977715Y-76331613D01*
X130098028Y-76497213D01*
X130242786Y-76641971D01*
X130366831Y-76732093D01*
X130408390Y-76762287D01*
X130524607Y-76821503D01*
X130590776Y-76855218D01*
X130590778Y-76855218D01*
X130590781Y-76855220D01*
X130691344Y-76887895D01*
X130785465Y-76918477D01*
X130879369Y-76933350D01*
X130987648Y-76950500D01*
X130987649Y-76950500D01*
X131192351Y-76950500D01*
X131192352Y-76950500D01*
X131394534Y-76918477D01*
X131589219Y-76855220D01*
X131771610Y-76762287D01*
X131864590Y-76694732D01*
X131937213Y-76641971D01*
X131937215Y-76641968D01*
X131937219Y-76641966D01*
X132081966Y-76497219D01*
X132081968Y-76497215D01*
X132081971Y-76497213D01*
X132143751Y-76412179D01*
X132202287Y-76331610D01*
X132295220Y-76149219D01*
X132358477Y-75954534D01*
X132390500Y-75752352D01*
X132390500Y-75547648D01*
X132358477Y-75345466D01*
X132295220Y-75150781D01*
X132295218Y-75150778D01*
X132295218Y-75150776D01*
X132245089Y-75052394D01*
X132202287Y-74968390D01*
X132168435Y-74921796D01*
X132081971Y-74802786D01*
X131937213Y-74658028D01*
X131771613Y-74537715D01*
X131771612Y-74537714D01*
X131771610Y-74537713D01*
X131714653Y-74508691D01*
X131589223Y-74444781D01*
X131394534Y-74381522D01*
X131219995Y-74353878D01*
X131192352Y-74349500D01*
X130987648Y-74349500D01*
X130963329Y-74353351D01*
X130785465Y-74381522D01*
X130590776Y-74444781D01*
X130408386Y-74537715D01*
X130242786Y-74658028D01*
X130098030Y-74802784D01*
X130059384Y-74855978D01*
X129999512Y-74938384D01*
X129944184Y-74981051D01*
X129899195Y-74989500D01*
X125971836Y-74989500D01*
X125904797Y-74969815D01*
X125861352Y-74921796D01*
X125827814Y-74855976D01*
X125698247Y-74677641D01*
X125698243Y-74677636D01*
X125542363Y-74521756D01*
X125542358Y-74521752D01*
X125364025Y-74392187D01*
X125364024Y-74392186D01*
X125364022Y-74392185D01*
X125280249Y-74349500D01*
X125167606Y-74292104D01*
X125167603Y-74292103D01*
X124957952Y-74223985D01*
X124849086Y-74206742D01*
X124740222Y-74189500D01*
X124519778Y-74189500D01*
X124447201Y-74200995D01*
X124302047Y-74223985D01*
X124092396Y-74292103D01*
X124092393Y-74292104D01*
X123895974Y-74392187D01*
X123717641Y-74521752D01*
X123717636Y-74521756D01*
X123667075Y-74572317D01*
X123605752Y-74605801D01*
X123536060Y-74600816D01*
X123480127Y-74558945D01*
X123463213Y-74527968D01*
X123433354Y-74447913D01*
X123433350Y-74447906D01*
X123347190Y-74332812D01*
X123347187Y-74332809D01*
X123232093Y-74246649D01*
X123232086Y-74246645D01*
X123097379Y-74196403D01*
X123097372Y-74196401D01*
X123037844Y-74190000D01*
X122340000Y-74190000D01*
X122340000Y-75214722D01*
X122263694Y-75170667D01*
X122149244Y-75140000D01*
X122030756Y-75140000D01*
X121916306Y-75170667D01*
X121840000Y-75214722D01*
X121840000Y-74190000D01*
X121142155Y-74190000D01*
X121082627Y-74196401D01*
X121082620Y-74196403D01*
X120947913Y-74246645D01*
X120947906Y-74246649D01*
X120832812Y-74332809D01*
X120832809Y-74332812D01*
X120746649Y-74447906D01*
X120746645Y-74447913D01*
X120696403Y-74582620D01*
X120696401Y-74582627D01*
X120690000Y-74642155D01*
X118250500Y-74642155D01*
X118250500Y-67172155D01*
X120690000Y-67172155D01*
X120690000Y-67870000D01*
X121714722Y-67870000D01*
X121670667Y-67946306D01*
X121640000Y-68060756D01*
X121640000Y-68179244D01*
X121670667Y-68293694D01*
X121714722Y-68370000D01*
X120690000Y-68370000D01*
X120690000Y-69067844D01*
X120696401Y-69127372D01*
X120696403Y-69127379D01*
X120746645Y-69262086D01*
X120746649Y-69262093D01*
X120832809Y-69377187D01*
X120832812Y-69377190D01*
X120947906Y-69463350D01*
X120947913Y-69463354D01*
X121082620Y-69513596D01*
X121082627Y-69513598D01*
X121142155Y-69519999D01*
X121142172Y-69520000D01*
X121840000Y-69520000D01*
X121840000Y-68495277D01*
X121916306Y-68539333D01*
X122030756Y-68570000D01*
X122149244Y-68570000D01*
X122263694Y-68539333D01*
X122340000Y-68495277D01*
X122340000Y-69520000D01*
X123037828Y-69520000D01*
X123037844Y-69519999D01*
X123097372Y-69513598D01*
X123097379Y-69513596D01*
X123232086Y-69463354D01*
X123232093Y-69463350D01*
X123347187Y-69377190D01*
X123347190Y-69377187D01*
X123433350Y-69262093D01*
X123433354Y-69262086D01*
X123463213Y-69182031D01*
X123505084Y-69126097D01*
X123570548Y-69101680D01*
X123638821Y-69116531D01*
X123667076Y-69137683D01*
X123717636Y-69188243D01*
X123717641Y-69188247D01*
X123873192Y-69301260D01*
X123895978Y-69317815D01*
X124012501Y-69377187D01*
X124092393Y-69417895D01*
X124092396Y-69417896D01*
X124197221Y-69451955D01*
X124302049Y-69486015D01*
X124519778Y-69520500D01*
X124519779Y-69520500D01*
X124740221Y-69520500D01*
X124740222Y-69520500D01*
X124957951Y-69486015D01*
X125167606Y-69417895D01*
X125364022Y-69317815D01*
X125542365Y-69188242D01*
X125698242Y-69032365D01*
X125827815Y-68854022D01*
X125846471Y-68817409D01*
X125861352Y-68788204D01*
X125909326Y-68737409D01*
X125971836Y-68720500D01*
X129909636Y-68720500D01*
X129976675Y-68740185D01*
X130020120Y-68788203D01*
X130044891Y-68836819D01*
X130067715Y-68881614D01*
X130188028Y-69047213D01*
X130332786Y-69191971D01*
X130429303Y-69262093D01*
X130498390Y-69312287D01*
X130614607Y-69371503D01*
X130680776Y-69405218D01*
X130680778Y-69405218D01*
X130680781Y-69405220D01*
X130719791Y-69417895D01*
X130875465Y-69468477D01*
X130976557Y-69484488D01*
X131077648Y-69500500D01*
X131077649Y-69500500D01*
X131282351Y-69500500D01*
X131282352Y-69500500D01*
X131484534Y-69468477D01*
X131679219Y-69405220D01*
X131861610Y-69312287D01*
X131983487Y-69223739D01*
X132027213Y-69191971D01*
X132027215Y-69191968D01*
X132027219Y-69191966D01*
X132171966Y-69047219D01*
X132171968Y-69047215D01*
X132171971Y-69047213D01*
X132224732Y-68974590D01*
X132292287Y-68881610D01*
X132385220Y-68699219D01*
X132448477Y-68504534D01*
X132480500Y-68302352D01*
X132480500Y-68097648D01*
X132466583Y-68009778D01*
X132448477Y-67895465D01*
X132391296Y-67719481D01*
X132385220Y-67700781D01*
X132385218Y-67700778D01*
X132385218Y-67700776D01*
X132351503Y-67634607D01*
X132292287Y-67518390D01*
X132255957Y-67468385D01*
X132171971Y-67352786D01*
X132027213Y-67208028D01*
X131861613Y-67087715D01*
X131861612Y-67087714D01*
X131861610Y-67087713D01*
X131803232Y-67057968D01*
X131679223Y-66994781D01*
X131484534Y-66931522D01*
X131309995Y-66903878D01*
X131282352Y-66899500D01*
X131077648Y-66899500D01*
X131053329Y-66903351D01*
X130875465Y-66931522D01*
X130680776Y-66994781D01*
X130498386Y-67087715D01*
X130332786Y-67208028D01*
X130188034Y-67352780D01*
X130163915Y-67385978D01*
X130104042Y-67468385D01*
X130048714Y-67511051D01*
X130003725Y-67519500D01*
X125971836Y-67519500D01*
X125904797Y-67499815D01*
X125861352Y-67451796D01*
X125827814Y-67385976D01*
X125698247Y-67207641D01*
X125698243Y-67207636D01*
X125542363Y-67051756D01*
X125542358Y-67051752D01*
X125364025Y-66922187D01*
X125364024Y-66922186D01*
X125364022Y-66922185D01*
X125301096Y-66890122D01*
X125167606Y-66822104D01*
X125167603Y-66822103D01*
X124957952Y-66753985D01*
X124849086Y-66736742D01*
X124740222Y-66719500D01*
X124519778Y-66719500D01*
X124447201Y-66730995D01*
X124302047Y-66753985D01*
X124092396Y-66822103D01*
X124092393Y-66822104D01*
X123895974Y-66922187D01*
X123717641Y-67051752D01*
X123717636Y-67051756D01*
X123667075Y-67102317D01*
X123605752Y-67135801D01*
X123536060Y-67130816D01*
X123480127Y-67088945D01*
X123463213Y-67057968D01*
X123433354Y-66977913D01*
X123433350Y-66977906D01*
X123347190Y-66862812D01*
X123347187Y-66862809D01*
X123232093Y-66776649D01*
X123232086Y-66776645D01*
X123097379Y-66726403D01*
X123097372Y-66726401D01*
X123037844Y-66720000D01*
X122340000Y-66720000D01*
X122340000Y-67744722D01*
X122263694Y-67700667D01*
X122149244Y-67670000D01*
X122030756Y-67670000D01*
X121916306Y-67700667D01*
X121840000Y-67744722D01*
X121840000Y-66720000D01*
X121142155Y-66720000D01*
X121082627Y-66726401D01*
X121082620Y-66726403D01*
X120947913Y-66776645D01*
X120947906Y-66776649D01*
X120832812Y-66862809D01*
X120832809Y-66862812D01*
X120746649Y-66977906D01*
X120746645Y-66977913D01*
X120696403Y-67112620D01*
X120696401Y-67112627D01*
X120690000Y-67172155D01*
X118250500Y-67172155D01*
X118250500Y-63124500D01*
X118270185Y-63057461D01*
X118322989Y-63011706D01*
X118374500Y-63000500D01*
X147375500Y-63000500D01*
X147442539Y-63020185D01*
G37*
%TD.AperFunction*%
%TD*%
M02*
