%TF.GenerationSoftware,KiCad,Pcbnew,9.0.3*%
%TF.CreationDate,2026-07-21T15:40:22+05:30*%
%TF.ProjectId,04_LDR_Sensor,30345f4c-4452-45f5-9365-6e736f722e6b,rev?*%
%TF.SameCoordinates,Original*%
%TF.FileFunction,Copper,L2,Bot*%
%TF.FilePolarity,Positive*%
%FSLAX46Y46*%
G04 Gerber Fmt 4.6, Leading zero omitted, Abs format (unit mm)*
G04 Created by KiCad (PCBNEW 9.0.3) date 2026-07-21 15:40:22*
%MOMM*%
%LPD*%
G01*
G04 APERTURE LIST*
G04 Aperture macros list*
%AMRoundRect*
0 Rectangle with rounded corners*
0 $1 Rounding radius*
0 $2 $3 $4 $5 $6 $7 $8 $9 X,Y pos of 4 corners*
0 Add a 4 corners polygon primitive as box body*
4,1,4,$2,$3,$4,$5,$6,$7,$8,$9,$2,$3,0*
0 Add four circle primitives for the rounded corners*
1,1,$1+$1,$2,$3*
1,1,$1+$1,$4,$5*
1,1,$1+$1,$6,$7*
1,1,$1+$1,$8,$9*
0 Add four rect primitives between the rounded corners*
20,1,$1+$1,$2,$3,$4,$5,0*
20,1,$1+$1,$4,$5,$6,$7,0*
20,1,$1+$1,$6,$7,$8,$9,0*
20,1,$1+$1,$8,$9,$2,$3,0*%
G04 Aperture macros list end*
%TA.AperFunction,NonConductor*%
%ADD10C,0.200000*%
%TD*%
%TA.AperFunction,ComponentPad*%
%ADD11R,1.500000X1.050000*%
%TD*%
%TA.AperFunction,ComponentPad*%
%ADD12O,1.500000X1.050000*%
%TD*%
%TA.AperFunction,ComponentPad*%
%ADD13C,1.500000*%
%TD*%
%TA.AperFunction,ComponentPad*%
%ADD14RoundRect,0.250000X1.050000X1.050000X-1.050000X1.050000X-1.050000X-1.050000X1.050000X-1.050000X0*%
%TD*%
%TA.AperFunction,ComponentPad*%
%ADD15C,2.600000*%
%TD*%
G04 APERTURE END LIST*
D10*
X129500000Y-79500000D02*
X153000000Y-79500000D01*
X153000000Y-113000000D01*
X129500000Y-113000000D01*
X129500000Y-79500000D01*
D11*
%TO.P,Q1,1,C*%
%TO.N,Net-(D1-K)*%
X146290000Y-104755000D03*
D12*
%TO.P,Q1,2,B*%
%TO.N,Net-(Q1-B)*%
X146290000Y-106025000D03*
%TO.P,Q1,3,E*%
%TO.N,GND*%
X146290000Y-107295000D03*
%TD*%
D13*
%TO.P,R2,1*%
%TO.N,Net-(Q1-B)*%
X135000000Y-106525000D03*
%TO.P,R2,2*%
%TO.N,GND*%
X138400000Y-106525000D03*
%TD*%
D14*
%TO.P,J1,1,Pin_1*%
%TO.N,GND*%
X143295000Y-88452500D03*
D15*
%TO.P,J1,2,Pin_2*%
%TO.N,+5V*%
X138215000Y-88452500D03*
%TD*%
%TA.AperFunction,NonConductor*%
G36*
X150442539Y-82020185D02*
G01*
X150488294Y-82072989D01*
X150499500Y-82124500D01*
X150499500Y-110375500D01*
X150479815Y-110442539D01*
X150427011Y-110488294D01*
X150375500Y-110499500D01*
X132124500Y-110499500D01*
X132057461Y-110479815D01*
X132011706Y-110427011D01*
X132000500Y-110375500D01*
X132000500Y-106426577D01*
X133749500Y-106426577D01*
X133749500Y-106623422D01*
X133780290Y-106817826D01*
X133841117Y-107005029D01*
X133930476Y-107180405D01*
X134046172Y-107339646D01*
X134185354Y-107478828D01*
X134344595Y-107594524D01*
X134427455Y-107636743D01*
X134519970Y-107683882D01*
X134519972Y-107683882D01*
X134519975Y-107683884D01*
X134620317Y-107716487D01*
X134707173Y-107744709D01*
X134901578Y-107775500D01*
X134901583Y-107775500D01*
X135098422Y-107775500D01*
X135292826Y-107744709D01*
X135480025Y-107683884D01*
X135655405Y-107594524D01*
X135814646Y-107478828D01*
X135953828Y-107339646D01*
X136069524Y-107180405D01*
X136158884Y-107005025D01*
X136219709Y-106817826D01*
X136234385Y-106725167D01*
X136250500Y-106623422D01*
X136250500Y-106426577D01*
X137149500Y-106426577D01*
X137149500Y-106623422D01*
X137180290Y-106817826D01*
X137241117Y-107005029D01*
X137330476Y-107180405D01*
X137446172Y-107339646D01*
X137585354Y-107478828D01*
X137744595Y-107594524D01*
X137827455Y-107636743D01*
X137919970Y-107683882D01*
X137919972Y-107683882D01*
X137919975Y-107683884D01*
X138020317Y-107716487D01*
X138107173Y-107744709D01*
X138301578Y-107775500D01*
X138301583Y-107775500D01*
X138498422Y-107775500D01*
X138692826Y-107744709D01*
X138880025Y-107683884D01*
X139055405Y-107594524D01*
X139214646Y-107478828D01*
X139353828Y-107339646D01*
X139469524Y-107180405D01*
X139558884Y-107005025D01*
X139619709Y-106817826D01*
X139634385Y-106725167D01*
X139650500Y-106623422D01*
X139650500Y-106426577D01*
X139619709Y-106232173D01*
X139558882Y-106044970D01*
X139497243Y-105923997D01*
X139469524Y-105869595D01*
X139353828Y-105710354D01*
X139214646Y-105571172D01*
X139055405Y-105455476D01*
X138880029Y-105366117D01*
X138692826Y-105305290D01*
X138498422Y-105274500D01*
X138498417Y-105274500D01*
X138301583Y-105274500D01*
X138301578Y-105274500D01*
X138107173Y-105305290D01*
X137919970Y-105366117D01*
X137744594Y-105455476D01*
X137653741Y-105521485D01*
X137585354Y-105571172D01*
X137585352Y-105571174D01*
X137585351Y-105571174D01*
X137446174Y-105710351D01*
X137446174Y-105710352D01*
X137446172Y-105710354D01*
X137434897Y-105725873D01*
X137330476Y-105869594D01*
X137241117Y-106044970D01*
X137180290Y-106232173D01*
X137149500Y-106426577D01*
X136250500Y-106426577D01*
X136219709Y-106232173D01*
X136158882Y-106044970D01*
X136097243Y-105923997D01*
X136069524Y-105869595D01*
X135953828Y-105710354D01*
X135814646Y-105571172D01*
X135655405Y-105455476D01*
X135480029Y-105366117D01*
X135292826Y-105305290D01*
X135098422Y-105274500D01*
X135098417Y-105274500D01*
X134901583Y-105274500D01*
X134901578Y-105274500D01*
X134707173Y-105305290D01*
X134519970Y-105366117D01*
X134344594Y-105455476D01*
X134253741Y-105521485D01*
X134185354Y-105571172D01*
X134185352Y-105571174D01*
X134185351Y-105571174D01*
X134046174Y-105710351D01*
X134046174Y-105710352D01*
X134046172Y-105710354D01*
X134034897Y-105725873D01*
X133930476Y-105869594D01*
X133841117Y-106044970D01*
X133780290Y-106232173D01*
X133749500Y-106426577D01*
X132000500Y-106426577D01*
X132000500Y-104182135D01*
X145039500Y-104182135D01*
X145039500Y-105327870D01*
X145039501Y-105327876D01*
X145045908Y-105387483D01*
X145096202Y-105522328D01*
X145096203Y-105522330D01*
X145096204Y-105522331D01*
X145097028Y-105523432D01*
X145097509Y-105524721D01*
X145100454Y-105530114D01*
X145099678Y-105530537D01*
X145121448Y-105588895D01*
X145112325Y-105645198D01*
X145078910Y-105725868D01*
X145078907Y-105725880D01*
X145039500Y-105923992D01*
X145039500Y-106126007D01*
X145078907Y-106324119D01*
X145078909Y-106324127D01*
X145156213Y-106510755D01*
X145209904Y-106591109D01*
X145230782Y-106657787D01*
X145212297Y-106725167D01*
X145209904Y-106728891D01*
X145156213Y-106809244D01*
X145078909Y-106995872D01*
X145078907Y-106995880D01*
X145039500Y-107193992D01*
X145039500Y-107396007D01*
X145078907Y-107594119D01*
X145078909Y-107594127D01*
X145156212Y-107780752D01*
X145156217Y-107780762D01*
X145268441Y-107948718D01*
X145411281Y-108091558D01*
X145579237Y-108203782D01*
X145579241Y-108203784D01*
X145579244Y-108203786D01*
X145765873Y-108281091D01*
X145963992Y-108320499D01*
X145963996Y-108320500D01*
X145963997Y-108320500D01*
X146616004Y-108320500D01*
X146616005Y-108320499D01*
X146814127Y-108281091D01*
X147000756Y-108203786D01*
X147168718Y-108091558D01*
X147311558Y-107948718D01*
X147423786Y-107780756D01*
X147501091Y-107594127D01*
X147540500Y-107396003D01*
X147540500Y-107193997D01*
X147501091Y-106995873D01*
X147423786Y-106809244D01*
X147370094Y-106728889D01*
X147349217Y-106662214D01*
X147367701Y-106594834D01*
X147370078Y-106591134D01*
X147423786Y-106510756D01*
X147501091Y-106324127D01*
X147540500Y-106126003D01*
X147540500Y-105923997D01*
X147501091Y-105725873D01*
X147467673Y-105645198D01*
X147460205Y-105575730D01*
X147479964Y-105530340D01*
X147479547Y-105530112D01*
X147482095Y-105525444D01*
X147482972Y-105523431D01*
X147483796Y-105522331D01*
X147534091Y-105387483D01*
X147540500Y-105327873D01*
X147540499Y-104182128D01*
X147534091Y-104122517D01*
X147483796Y-103987669D01*
X147483795Y-103987668D01*
X147483793Y-103987664D01*
X147397547Y-103872455D01*
X147397544Y-103872452D01*
X147282335Y-103786206D01*
X147282328Y-103786202D01*
X147147482Y-103735908D01*
X147147483Y-103735908D01*
X147087883Y-103729501D01*
X147087881Y-103729500D01*
X147087873Y-103729500D01*
X147087864Y-103729500D01*
X145492129Y-103729500D01*
X145492123Y-103729501D01*
X145432516Y-103735908D01*
X145297671Y-103786202D01*
X145297664Y-103786206D01*
X145182455Y-103872452D01*
X145182452Y-103872455D01*
X145096206Y-103987664D01*
X145096202Y-103987671D01*
X145045908Y-104122517D01*
X145039501Y-104182116D01*
X145039501Y-104182123D01*
X145039500Y-104182135D01*
X132000500Y-104182135D01*
X132000500Y-88334495D01*
X136414500Y-88334495D01*
X136414500Y-88570504D01*
X136414501Y-88570520D01*
X136445306Y-88804510D01*
X136506394Y-89032493D01*
X136596714Y-89250545D01*
X136596719Y-89250556D01*
X136667677Y-89373457D01*
X136714727Y-89454950D01*
X136714729Y-89454953D01*
X136714730Y-89454954D01*
X136858406Y-89642197D01*
X136858412Y-89642204D01*
X137025295Y-89809087D01*
X137025302Y-89809093D01*
X137041909Y-89821836D01*
X137212550Y-89952773D01*
X137343918Y-90028618D01*
X137416943Y-90070780D01*
X137416948Y-90070782D01*
X137416951Y-90070784D01*
X137635007Y-90161106D01*
X137862986Y-90222193D01*
X138096989Y-90253000D01*
X138096996Y-90253000D01*
X138333004Y-90253000D01*
X138333011Y-90253000D01*
X138567014Y-90222193D01*
X138794993Y-90161106D01*
X139013049Y-90070784D01*
X139217450Y-89952773D01*
X139404699Y-89809092D01*
X139571592Y-89642199D01*
X139715273Y-89454950D01*
X139833284Y-89250549D01*
X139923606Y-89032493D01*
X139984693Y-88804514D01*
X140015500Y-88570511D01*
X140015500Y-88334489D01*
X139984693Y-88100486D01*
X139923606Y-87872507D01*
X139833284Y-87654451D01*
X139833282Y-87654448D01*
X139833280Y-87654443D01*
X139777510Y-87557848D01*
X139715273Y-87450050D01*
X139640414Y-87352492D01*
X139640407Y-87352483D01*
X141494500Y-87352483D01*
X141494500Y-89552501D01*
X141494501Y-89552518D01*
X141505000Y-89655296D01*
X141505001Y-89655299D01*
X141555962Y-89809087D01*
X141560186Y-89821834D01*
X141652288Y-89971156D01*
X141776344Y-90095212D01*
X141925666Y-90187314D01*
X142092203Y-90242499D01*
X142194991Y-90253000D01*
X144395008Y-90252999D01*
X144497797Y-90242499D01*
X144664334Y-90187314D01*
X144813656Y-90095212D01*
X144937712Y-89971156D01*
X145029814Y-89821834D01*
X145084999Y-89655297D01*
X145095500Y-89552509D01*
X145095499Y-87352492D01*
X145084999Y-87249703D01*
X145029814Y-87083166D01*
X144937712Y-86933844D01*
X144813656Y-86809788D01*
X144664334Y-86717686D01*
X144497797Y-86662501D01*
X144497795Y-86662500D01*
X144395010Y-86652000D01*
X142194998Y-86652000D01*
X142194981Y-86652001D01*
X142092203Y-86662500D01*
X142092200Y-86662501D01*
X141925668Y-86717685D01*
X141925663Y-86717687D01*
X141776342Y-86809789D01*
X141652289Y-86933842D01*
X141560187Y-87083163D01*
X141560185Y-87083168D01*
X141555962Y-87095912D01*
X141505001Y-87249703D01*
X141505001Y-87249704D01*
X141505000Y-87249704D01*
X141494500Y-87352483D01*
X139640407Y-87352483D01*
X139571593Y-87262802D01*
X139571587Y-87262795D01*
X139404704Y-87095912D01*
X139404697Y-87095906D01*
X139217454Y-86952230D01*
X139217453Y-86952229D01*
X139217450Y-86952227D01*
X139135957Y-86905177D01*
X139013056Y-86834219D01*
X139013045Y-86834214D01*
X138794993Y-86743894D01*
X138567010Y-86682806D01*
X138333020Y-86652001D01*
X138333017Y-86652000D01*
X138333011Y-86652000D01*
X138096989Y-86652000D01*
X138096983Y-86652000D01*
X138096979Y-86652001D01*
X137862989Y-86682806D01*
X137635006Y-86743894D01*
X137416954Y-86834214D01*
X137416943Y-86834219D01*
X137212545Y-86952230D01*
X137025302Y-87095906D01*
X137025295Y-87095912D01*
X136858412Y-87262795D01*
X136858406Y-87262802D01*
X136714730Y-87450045D01*
X136596719Y-87654443D01*
X136596714Y-87654454D01*
X136506394Y-87872506D01*
X136445306Y-88100489D01*
X136414501Y-88334479D01*
X136414500Y-88334495D01*
X132000500Y-88334495D01*
X132000500Y-82124500D01*
X132020185Y-82057461D01*
X132072989Y-82011706D01*
X132124500Y-82000500D01*
X150375500Y-82000500D01*
X150442539Y-82020185D01*
G37*
%TD.AperFunction*%
M02*
