%TF.GenerationSoftware,KiCad,Pcbnew,9.0.3*%
%TF.CreationDate,2026-07-21T15:40:22+05:30*%
%TF.ProjectId,04_LDR_Sensor,30345f4c-4452-45f5-9365-6e736f722e6b,rev?*%
%TF.SameCoordinates,Original*%
%TF.FileFunction,Copper,L1,Top*%
%TF.FilePolarity,Positive*%
%FSLAX46Y46*%
G04 Gerber Fmt 4.6, Leading zero omitted, Abs format (unit mm)*
G04 Created by KiCad (PCBNEW 9.0.3) date 2026-07-21 15:40:22*
%MOMM*%
%LPD*%
G01*
G04 APERTURE LIST*
G04 Aperture macros list*
%AMRoundRect*
0 Rectangle with rounded corners*
0 $1 Rounding radius*
0 $2 $3 $4 $5 $6 $7 $8 $9 X,Y pos of 4 corners*
0 Add a 4 corners polygon primitive as box body*
4,1,4,$2,$3,$4,$5,$6,$7,$8,$9,$2,$3,0*
0 Add four circle primitives for the rounded corners*
1,1,$1+$1,$2,$3*
1,1,$1+$1,$4,$5*
1,1,$1+$1,$6,$7*
1,1,$1+$1,$8,$9*
0 Add four rect primitives between the rounded corners*
20,1,$1+$1,$2,$3,$4,$5,0*
20,1,$1+$1,$4,$5,$6,$7,0*
20,1,$1+$1,$6,$7,$8,$9,0*
20,1,$1+$1,$8,$9,$2,$3,0*%
G04 Aperture macros list end*
%TA.AperFunction,NonConductor*%
%ADD10C,0.200000*%
%TD*%
%TA.AperFunction,SMDPad,CuDef*%
%ADD11RoundRect,0.250000X-0.450000X0.262500X-0.450000X-0.262500X0.450000X-0.262500X0.450000X0.262500X0*%
%TD*%
%TA.AperFunction,SMDPad,CuDef*%
%ADD12RoundRect,0.243750X0.243750X0.456250X-0.243750X0.456250X-0.243750X-0.456250X0.243750X-0.456250X0*%
%TD*%
%TA.AperFunction,ComponentPad*%
%ADD13R,1.500000X1.050000*%
%TD*%
%TA.AperFunction,ComponentPad*%
%ADD14O,1.500000X1.050000*%
%TD*%
%TA.AperFunction,SMDPad,CuDef*%
%ADD15RoundRect,0.250000X-0.262500X-0.450000X0.262500X-0.450000X0.262500X0.450000X-0.262500X0.450000X0*%
%TD*%
%TA.AperFunction,ComponentPad*%
%ADD16C,1.500000*%
%TD*%
%TA.AperFunction,ComponentPad*%
%ADD17RoundRect,0.250000X1.050000X1.050000X-1.050000X1.050000X-1.050000X-1.050000X1.050000X-1.050000X0*%
%TD*%
%TA.AperFunction,ComponentPad*%
%ADD18C,2.600000*%
%TD*%
%TA.AperFunction,Conductor*%
%ADD19C,0.200000*%
%TD*%
G04 APERTURE END LIST*
D10*
X130500000Y-80500000D02*
X152000000Y-80500000D01*
X152000000Y-112000000D01*
X130500000Y-112000000D01*
X130500000Y-80500000D01*
D11*
%TO.P,R1,1*%
%TO.N,+5V*%
X134975000Y-97162500D03*
%TO.P,R1,2*%
%TO.N,Net-(Q1-B)*%
X134975000Y-98987500D03*
%TD*%
D12*
%TO.P,D1,1,K*%
%TO.N,Net-(D1-K)*%
X146362500Y-98775000D03*
%TO.P,D1,2,A*%
%TO.N,Net-(D1-A)*%
X144487500Y-98775000D03*
%TD*%
D13*
%TO.P,Q1,1,C*%
%TO.N,Net-(D1-K)*%
X146290000Y-104755000D03*
D14*
%TO.P,Q1,2,B*%
%TO.N,Net-(Q1-B)*%
X146290000Y-106025000D03*
%TO.P,Q1,3,E*%
%TO.N,GND*%
X146290000Y-107295000D03*
%TD*%
D15*
%TO.P,R3,1*%
%TO.N,+5V*%
X139400000Y-98725000D03*
%TO.P,R3,2*%
%TO.N,Net-(D1-A)*%
X141225000Y-98725000D03*
%TD*%
D16*
%TO.P,R2,1*%
%TO.N,Net-(Q1-B)*%
X135000000Y-106525000D03*
%TO.P,R2,2*%
%TO.N,GND*%
X138400000Y-106525000D03*
%TD*%
D17*
%TO.P,J1,1,Pin_1*%
%TO.N,GND*%
X143295000Y-88452500D03*
D18*
%TO.P,J1,2,Pin_2*%
%TO.N,+5V*%
X138215000Y-88452500D03*
%TD*%
D19*
%TO.N,Net-(D1-A)*%
X141225000Y-98725000D02*
X144437500Y-98725000D01*
X144437500Y-98725000D02*
X144487500Y-98775000D01*
%TO.N,Net-(D1-K)*%
X146362500Y-98775000D02*
X146362500Y-104682500D01*
X146362500Y-104682500D02*
X146290000Y-104755000D01*
%TO.N,+5V*%
X138215000Y-88452500D02*
X135797500Y-88452500D01*
X134650000Y-96837500D02*
X134975000Y-97162500D01*
X134650000Y-89600000D02*
X134650000Y-96837500D01*
X137837500Y-97162500D02*
X139400000Y-98725000D01*
X134975000Y-97162500D02*
X137837500Y-97162500D01*
X135797500Y-88452500D02*
X134650000Y-89600000D01*
%TO.N,GND*%
X149800000Y-89700000D02*
X149800000Y-106750000D01*
X139170000Y-107295000D02*
X146290000Y-107295000D01*
X148552500Y-88452500D02*
X149800000Y-89700000D01*
X138400000Y-106525000D02*
X139170000Y-107295000D01*
X143295000Y-88452500D02*
X148552500Y-88452500D01*
X149800000Y-106750000D02*
X149255000Y-107295000D01*
X149255000Y-107295000D02*
X146290000Y-107295000D01*
%TO.N,Net-(Q1-B)*%
X136075000Y-105450000D02*
X145108000Y-105450000D01*
X134975000Y-106500000D02*
X135000000Y-106525000D01*
X135000000Y-106525000D02*
X136075000Y-105450000D01*
X145108000Y-105450000D02*
X145683000Y-106025000D01*
X145683000Y-106025000D02*
X146290000Y-106025000D01*
X134975000Y-98987500D02*
X134975000Y-106500000D01*
%TD*%
%TA.AperFunction,Conductor*%
%TO.N,+5V*%
G36*
X150442539Y-82020185D02*
G01*
X150488294Y-82072989D01*
X150499500Y-82124500D01*
X150499500Y-89251372D01*
X150493229Y-89272728D01*
X150491599Y-89294926D01*
X150483576Y-89305600D01*
X150479815Y-89318411D01*
X150462995Y-89332984D01*
X150449622Y-89350780D01*
X150437100Y-89355423D01*
X150427011Y-89364166D01*
X150404983Y-89367333D01*
X150384112Y-89375073D01*
X150371069Y-89372209D01*
X150357853Y-89374110D01*
X150337605Y-89364863D01*
X150315867Y-89360091D01*
X150298382Y-89346950D01*
X150294297Y-89345085D01*
X150290406Y-89340956D01*
X150287653Y-89338887D01*
X150281128Y-89332337D01*
X150280520Y-89331284D01*
X150168716Y-89219480D01*
X150168713Y-89219478D01*
X149040090Y-88090855D01*
X149040088Y-88090852D01*
X148921217Y-87971981D01*
X148921216Y-87971980D01*
X148834404Y-87921860D01*
X148834404Y-87921859D01*
X148834400Y-87921858D01*
X148784285Y-87892923D01*
X148631557Y-87851999D01*
X148473443Y-87851999D01*
X148465847Y-87851999D01*
X148465831Y-87852000D01*
X145219499Y-87852000D01*
X145152460Y-87832315D01*
X145106705Y-87779511D01*
X145095499Y-87728000D01*
X145095499Y-87352498D01*
X145095498Y-87352481D01*
X145084999Y-87249703D01*
X145084998Y-87249700D01*
X145029814Y-87083166D01*
X144937712Y-86933844D01*
X144813656Y-86809788D01*
X144664334Y-86717686D01*
X144497797Y-86662501D01*
X144497795Y-86662500D01*
X144395010Y-86652000D01*
X142194998Y-86652000D01*
X142194981Y-86652001D01*
X142092203Y-86662500D01*
X142092200Y-86662501D01*
X141925668Y-86717685D01*
X141925663Y-86717687D01*
X141776342Y-86809789D01*
X141652289Y-86933842D01*
X141560187Y-87083163D01*
X141560186Y-87083166D01*
X141505001Y-87249703D01*
X141505001Y-87249704D01*
X141505000Y-87249704D01*
X141494500Y-87352483D01*
X141494500Y-89552501D01*
X141494501Y-89552518D01*
X141505000Y-89655296D01*
X141505001Y-89655299D01*
X141560185Y-89821831D01*
X141560186Y-89821834D01*
X141652288Y-89971156D01*
X141776344Y-90095212D01*
X141925666Y-90187314D01*
X142092203Y-90242499D01*
X142194991Y-90253000D01*
X144395008Y-90252999D01*
X144497797Y-90242499D01*
X144664334Y-90187314D01*
X144813656Y-90095212D01*
X144937712Y-89971156D01*
X145029814Y-89821834D01*
X145084999Y-89655297D01*
X145095500Y-89552509D01*
X145095500Y-89177000D01*
X145115185Y-89109961D01*
X145167989Y-89064206D01*
X145219500Y-89053000D01*
X148252403Y-89053000D01*
X148319442Y-89072685D01*
X148340084Y-89089319D01*
X149163181Y-89912416D01*
X149196666Y-89973739D01*
X149199500Y-90000097D01*
X149199500Y-106449903D01*
X149190855Y-106479343D01*
X149184332Y-106509330D01*
X149180577Y-106514345D01*
X149179815Y-106516942D01*
X149163181Y-106537584D01*
X149042584Y-106658181D01*
X148981261Y-106691666D01*
X148954903Y-106694500D01*
X147532454Y-106694500D01*
X147465415Y-106674815D01*
X147419660Y-106622011D01*
X147409716Y-106552853D01*
X147421649Y-106516464D01*
X147421455Y-106516384D01*
X147422513Y-106513828D01*
X147423100Y-106512040D01*
X147423785Y-106510757D01*
X147423786Y-106510756D01*
X147501091Y-106324127D01*
X147540500Y-106126003D01*
X147540500Y-105923997D01*
X147501091Y-105725873D01*
X147467673Y-105645198D01*
X147460205Y-105575730D01*
X147479964Y-105530340D01*
X147479547Y-105530112D01*
X147482095Y-105525444D01*
X147482972Y-105523431D01*
X147483796Y-105522331D01*
X147534091Y-105387483D01*
X147540500Y-105327873D01*
X147540499Y-104182128D01*
X147534091Y-104122517D01*
X147483796Y-103987669D01*
X147483795Y-103987668D01*
X147483793Y-103987664D01*
X147397547Y-103872455D01*
X147397544Y-103872452D01*
X147282335Y-103786206D01*
X147282328Y-103786202D01*
X147147482Y-103735908D01*
X147147483Y-103735908D01*
X147087883Y-103729501D01*
X147087881Y-103729500D01*
X147087873Y-103729500D01*
X147087865Y-103729500D01*
X147087000Y-103729500D01*
X147086806Y-103729443D01*
X147084548Y-103729322D01*
X147084576Y-103728788D01*
X147019961Y-103709815D01*
X146974206Y-103657011D01*
X146963000Y-103605500D01*
X146963000Y-99954849D01*
X146982685Y-99887810D01*
X147021902Y-99849311D01*
X147071003Y-99819026D01*
X147194026Y-99696003D01*
X147285362Y-99547925D01*
X147340087Y-99382775D01*
X147350500Y-99280848D01*
X147350500Y-98269152D01*
X147340087Y-98167225D01*
X147285362Y-98002075D01*
X147285358Y-98002069D01*
X147285357Y-98002066D01*
X147194028Y-97854000D01*
X147194025Y-97853996D01*
X147071003Y-97730974D01*
X147070999Y-97730971D01*
X146922933Y-97639642D01*
X146922927Y-97639639D01*
X146922925Y-97639638D01*
X146922922Y-97639637D01*
X146757776Y-97584913D01*
X146655855Y-97574500D01*
X146655848Y-97574500D01*
X146069152Y-97574500D01*
X146069144Y-97574500D01*
X145967223Y-97584913D01*
X145802077Y-97639637D01*
X145802066Y-97639642D01*
X145654000Y-97730971D01*
X145653996Y-97730974D01*
X145530974Y-97853996D01*
X145530971Y-97854000D01*
X145530538Y-97854703D01*
X145530114Y-97855083D01*
X145526493Y-97859664D01*
X145525710Y-97859045D01*
X145478590Y-97901428D01*
X145409628Y-97912649D01*
X145345546Y-97884806D01*
X145323657Y-97859544D01*
X145323507Y-97859664D01*
X145320859Y-97856315D01*
X145319462Y-97854703D01*
X145319028Y-97854000D01*
X145319025Y-97853996D01*
X145196003Y-97730974D01*
X145195999Y-97730971D01*
X145047933Y-97639642D01*
X145047927Y-97639639D01*
X145047925Y-97639638D01*
X145047922Y-97639637D01*
X144882776Y-97584913D01*
X144780855Y-97574500D01*
X144780848Y-97574500D01*
X144194152Y-97574500D01*
X144194144Y-97574500D01*
X144092223Y-97584913D01*
X143927077Y-97639637D01*
X143927066Y-97639642D01*
X143779000Y-97730971D01*
X143778996Y-97730974D01*
X143655974Y-97853996D01*
X143655971Y-97854000D01*
X143564642Y-98002066D01*
X143564636Y-98002079D01*
X143552236Y-98039503D01*
X143512464Y-98096948D01*
X143447948Y-98123772D01*
X143434530Y-98124500D01*
X142317801Y-98124500D01*
X142250762Y-98104815D01*
X142205007Y-98052011D01*
X142200095Y-98039504D01*
X142200095Y-98039503D01*
X142172314Y-97955666D01*
X142080212Y-97806344D01*
X141956156Y-97682288D01*
X141806834Y-97590186D01*
X141640297Y-97535001D01*
X141640295Y-97535000D01*
X141537510Y-97524500D01*
X140912498Y-97524500D01*
X140912480Y-97524501D01*
X140809703Y-97535000D01*
X140809700Y-97535001D01*
X140643168Y-97590185D01*
X140643163Y-97590187D01*
X140493845Y-97682287D01*
X140399827Y-97776305D01*
X140338503Y-97809789D01*
X140268812Y-97804805D01*
X140224465Y-97776304D01*
X140130845Y-97682684D01*
X139981624Y-97590643D01*
X139981619Y-97590641D01*
X139815197Y-97535494D01*
X139815190Y-97535493D01*
X139712486Y-97525000D01*
X139650000Y-97525000D01*
X139650000Y-99924999D01*
X139712472Y-99924999D01*
X139712486Y-99924998D01*
X139815197Y-99914505D01*
X139981619Y-99859358D01*
X139981624Y-99859356D01*
X140130842Y-99767317D01*
X140224464Y-99673695D01*
X140285787Y-99640210D01*
X140355479Y-99645194D01*
X140399827Y-99673695D01*
X140493844Y-99767712D01*
X140643166Y-99859814D01*
X140809703Y-99914999D01*
X140912491Y-99925500D01*
X141537508Y-99925499D01*
X141537516Y-99925498D01*
X141537519Y-99925498D01*
X141593802Y-99919748D01*
X141640297Y-99914999D01*
X141806834Y-99859814D01*
X141956156Y-99767712D01*
X142080212Y-99643656D01*
X142172314Y-99494334D01*
X142200095Y-99410495D01*
X142239868Y-99353051D01*
X142304384Y-99326228D01*
X142317801Y-99325500D01*
X143401393Y-99325500D01*
X143468432Y-99345185D01*
X143514187Y-99397989D01*
X143519097Y-99410492D01*
X143550000Y-99503750D01*
X143564637Y-99547922D01*
X143564642Y-99547933D01*
X143655971Y-99695999D01*
X143655974Y-99696003D01*
X143778996Y-99819025D01*
X143779000Y-99819028D01*
X143927066Y-99910357D01*
X143927069Y-99910358D01*
X143927075Y-99910362D01*
X144092225Y-99965087D01*
X144194152Y-99975500D01*
X144194157Y-99975500D01*
X144780843Y-99975500D01*
X144780848Y-99975500D01*
X144882775Y-99965087D01*
X145047925Y-99910362D01*
X145196003Y-99819026D01*
X145319026Y-99696003D01*
X145319458Y-99695301D01*
X145319881Y-99694921D01*
X145323507Y-99690336D01*
X145324290Y-99690955D01*
X145371402Y-99648575D01*
X145440364Y-99637349D01*
X145504448Y-99665188D01*
X145526342Y-99690455D01*
X145526493Y-99690336D01*
X145529143Y-99693687D01*
X145530540Y-99695299D01*
X145530974Y-99696003D01*
X145653997Y-99819026D01*
X145703097Y-99849311D01*
X145749821Y-99901257D01*
X145762000Y-99954849D01*
X145762000Y-103605500D01*
X145742315Y-103672539D01*
X145689511Y-103718294D01*
X145638001Y-103729500D01*
X145492130Y-103729500D01*
X145492123Y-103729501D01*
X145432516Y-103735908D01*
X145297671Y-103786202D01*
X145297664Y-103786206D01*
X145182455Y-103872452D01*
X145182452Y-103872455D01*
X145096206Y-103987664D01*
X145096202Y-103987671D01*
X145045910Y-104122513D01*
X145045909Y-104122517D01*
X145039500Y-104182127D01*
X145039500Y-104182134D01*
X145039500Y-104182135D01*
X145039500Y-104182136D01*
X145039501Y-104725500D01*
X145019817Y-104792539D01*
X144967013Y-104838294D01*
X144915501Y-104849500D01*
X136161670Y-104849500D01*
X136161654Y-104849499D01*
X136154058Y-104849499D01*
X135995943Y-104849499D01*
X135895926Y-104876299D01*
X135843215Y-104890423D01*
X135761499Y-104937602D01*
X135693599Y-104954074D01*
X135627572Y-104931221D01*
X135584382Y-104876299D01*
X135575500Y-104830214D01*
X135575500Y-100080300D01*
X135595185Y-100013261D01*
X135647989Y-99967506D01*
X135660482Y-99962599D01*
X135744334Y-99934814D01*
X135893656Y-99842712D01*
X136017712Y-99718656D01*
X136109814Y-99569334D01*
X136164999Y-99402797D01*
X136175500Y-99300009D01*
X136175500Y-99224986D01*
X138387501Y-99224986D01*
X138397994Y-99327697D01*
X138453141Y-99494119D01*
X138453143Y-99494124D01*
X138545184Y-99643345D01*
X138669154Y-99767315D01*
X138818375Y-99859356D01*
X138818380Y-99859358D01*
X138984802Y-99914505D01*
X138984809Y-99914506D01*
X139087519Y-99924999D01*
X139149999Y-99924998D01*
X139150000Y-99924998D01*
X139150000Y-98975000D01*
X138387501Y-98975000D01*
X138387501Y-99224986D01*
X136175500Y-99224986D01*
X136175499Y-98674992D01*
X136164999Y-98572203D01*
X136109814Y-98405666D01*
X136017712Y-98256344D01*
X135986381Y-98225013D01*
X138387500Y-98225013D01*
X138387500Y-98475000D01*
X139150000Y-98475000D01*
X139150000Y-97525000D01*
X139149999Y-97524999D01*
X139087528Y-97525000D01*
X139087511Y-97525001D01*
X138984802Y-97535494D01*
X138818380Y-97590641D01*
X138818375Y-97590643D01*
X138669154Y-97682684D01*
X138545184Y-97806654D01*
X138453143Y-97955875D01*
X138453141Y-97955880D01*
X138397994Y-98122302D01*
X138397993Y-98122309D01*
X138387500Y-98225013D01*
X135986381Y-98225013D01*
X135921104Y-98159736D01*
X135918666Y-98156991D01*
X135905267Y-98128580D01*
X135890210Y-98101004D01*
X135890480Y-98097223D01*
X135888864Y-98093796D01*
X135892952Y-98062653D01*
X135895194Y-98031312D01*
X135897548Y-98027648D01*
X135897959Y-98024521D01*
X135904631Y-98016626D01*
X135923695Y-97986964D01*
X136017317Y-97893342D01*
X136109356Y-97744124D01*
X136109358Y-97744119D01*
X136164505Y-97577697D01*
X136164506Y-97577690D01*
X136174999Y-97474986D01*
X136175000Y-97474973D01*
X136175000Y-97412500D01*
X133775001Y-97412500D01*
X133775001Y-97474986D01*
X133785494Y-97577697D01*
X133840641Y-97744119D01*
X133840643Y-97744124D01*
X133932684Y-97893345D01*
X134026304Y-97986965D01*
X134059789Y-98048288D01*
X134054805Y-98117980D01*
X134026305Y-98162327D01*
X133932287Y-98256345D01*
X133840187Y-98405663D01*
X133840186Y-98405666D01*
X133785001Y-98572203D01*
X133785001Y-98572204D01*
X133785000Y-98572204D01*
X133774500Y-98674983D01*
X133774500Y-99300001D01*
X133774501Y-99300019D01*
X133785000Y-99402796D01*
X133785001Y-99402799D01*
X133833091Y-99547922D01*
X133840186Y-99569334D01*
X133932288Y-99718656D01*
X134056344Y-99842712D01*
X134205666Y-99934814D01*
X134289505Y-99962595D01*
X134346948Y-100002366D01*
X134373772Y-100066882D01*
X134374500Y-100080300D01*
X134374500Y-105370568D01*
X134354815Y-105437607D01*
X134323388Y-105470883D01*
X134185354Y-105571172D01*
X134185352Y-105571174D01*
X134185351Y-105571174D01*
X134046174Y-105710351D01*
X134046174Y-105710352D01*
X134046172Y-105710354D01*
X134034897Y-105725873D01*
X133930476Y-105869594D01*
X133841117Y-106044970D01*
X133780290Y-106232173D01*
X133749500Y-106426577D01*
X133749500Y-106623422D01*
X133780290Y-106817826D01*
X133841117Y-107005029D01*
X133899044Y-107118716D01*
X133930476Y-107180405D01*
X134046172Y-107339646D01*
X134185354Y-107478828D01*
X134344595Y-107594524D01*
X134427455Y-107636743D01*
X134519970Y-107683882D01*
X134519972Y-107683882D01*
X134519975Y-107683884D01*
X134620317Y-107716487D01*
X134707173Y-107744709D01*
X134901578Y-107775500D01*
X134901583Y-107775500D01*
X135098422Y-107775500D01*
X135292826Y-107744709D01*
X135295082Y-107743976D01*
X135480025Y-107683884D01*
X135655405Y-107594524D01*
X135814646Y-107478828D01*
X135953828Y-107339646D01*
X136069524Y-107180405D01*
X136158884Y-107005025D01*
X136219709Y-106817826D01*
X136240420Y-106687061D01*
X136250500Y-106623422D01*
X136250500Y-106426577D01*
X136218976Y-106227546D01*
X136219677Y-106222119D01*
X136217765Y-106216992D01*
X136224106Y-106187844D01*
X136227930Y-106158253D01*
X136231763Y-106152646D01*
X136232618Y-106148720D01*
X136253766Y-106120468D01*
X136287418Y-106086816D01*
X136348742Y-106053333D01*
X136375098Y-106050500D01*
X137068650Y-106050500D01*
X137135689Y-106070185D01*
X137181444Y-106122989D01*
X137191388Y-106192147D01*
X137186580Y-106212820D01*
X137180291Y-106232173D01*
X137180290Y-106232177D01*
X137149500Y-106426577D01*
X137149500Y-106623422D01*
X137180290Y-106817826D01*
X137241117Y-107005029D01*
X137299044Y-107118716D01*
X137330476Y-107180405D01*
X137446172Y-107339646D01*
X137585354Y-107478828D01*
X137744595Y-107594524D01*
X137827455Y-107636743D01*
X137919970Y-107683882D01*
X137919972Y-107683882D01*
X137919975Y-107683884D01*
X138020317Y-107716487D01*
X138107173Y-107744709D01*
X138301578Y-107775500D01*
X138301583Y-107775500D01*
X138498422Y-107775500D01*
X138663344Y-107749378D01*
X138692826Y-107744709D01*
X138692826Y-107744708D01*
X138697453Y-107743976D01*
X138766746Y-107752930D01*
X138794050Y-107771601D01*
X138794839Y-107770574D01*
X138801281Y-107775517D01*
X138801284Y-107775520D01*
X138801287Y-107775521D01*
X138801290Y-107775524D01*
X138938209Y-107854573D01*
X138938216Y-107854577D01*
X139050019Y-107884534D01*
X139090942Y-107895500D01*
X139090943Y-107895500D01*
X145166603Y-107895500D01*
X145233642Y-107915185D01*
X145263711Y-107944720D01*
X145264578Y-107944010D01*
X145268444Y-107948721D01*
X145411281Y-108091558D01*
X145579237Y-108203782D01*
X145579241Y-108203784D01*
X145579244Y-108203786D01*
X145765873Y-108281091D01*
X145963992Y-108320499D01*
X145963996Y-108320500D01*
X145963997Y-108320500D01*
X146616004Y-108320500D01*
X146616005Y-108320499D01*
X146814127Y-108281091D01*
X147000756Y-108203786D01*
X147168718Y-108091558D01*
X147311558Y-107948718D01*
X147311560Y-107948714D01*
X147315422Y-107944010D01*
X147316818Y-107945156D01*
X147363912Y-107905802D01*
X147413397Y-107895500D01*
X149168331Y-107895500D01*
X149168347Y-107895501D01*
X149175943Y-107895501D01*
X149334054Y-107895501D01*
X149334057Y-107895501D01*
X149486785Y-107854577D01*
X149536904Y-107825639D01*
X149623716Y-107775520D01*
X149735520Y-107663716D01*
X149735520Y-107663714D01*
X149745728Y-107653507D01*
X149745730Y-107653504D01*
X150168713Y-107230521D01*
X150168716Y-107230520D01*
X150280520Y-107118716D01*
X150281131Y-107117657D01*
X150287661Y-107111104D01*
X150311544Y-107098006D01*
X150333541Y-107081942D01*
X150341730Y-107081453D01*
X150348923Y-107077509D01*
X150376093Y-107079402D01*
X150403287Y-107077780D01*
X150410440Y-107081796D01*
X150418624Y-107082367D01*
X150440460Y-107098652D01*
X150464210Y-107111987D01*
X150468055Y-107119231D01*
X150474633Y-107124137D01*
X150484198Y-107149643D01*
X150496969Y-107173701D01*
X150498360Y-107187404D01*
X150499168Y-107189558D01*
X150498767Y-107191414D01*
X150499500Y-107198627D01*
X150499500Y-110375500D01*
X150479815Y-110442539D01*
X150427011Y-110488294D01*
X150375500Y-110499500D01*
X132124500Y-110499500D01*
X132057461Y-110479815D01*
X132011706Y-110427011D01*
X132000500Y-110375500D01*
X132000500Y-96850013D01*
X133775000Y-96850013D01*
X133775000Y-96912500D01*
X134725000Y-96912500D01*
X135225000Y-96912500D01*
X136174999Y-96912500D01*
X136174999Y-96850028D01*
X136174998Y-96850013D01*
X136164505Y-96747302D01*
X136109358Y-96580880D01*
X136109356Y-96580875D01*
X136017315Y-96431654D01*
X135893345Y-96307684D01*
X135744124Y-96215643D01*
X135744119Y-96215641D01*
X135577697Y-96160494D01*
X135577690Y-96160493D01*
X135474986Y-96150000D01*
X135225000Y-96150000D01*
X135225000Y-96912500D01*
X134725000Y-96912500D01*
X134725000Y-96150000D01*
X134475029Y-96150000D01*
X134475012Y-96150001D01*
X134372302Y-96160494D01*
X134205880Y-96215641D01*
X134205875Y-96215643D01*
X134056654Y-96307684D01*
X133932684Y-96431654D01*
X133840643Y-96580875D01*
X133840641Y-96580880D01*
X133785494Y-96747302D01*
X133785493Y-96747309D01*
X133775000Y-96850013D01*
X132000500Y-96850013D01*
X132000500Y-88334514D01*
X136415000Y-88334514D01*
X136415000Y-88570485D01*
X136445799Y-88804414D01*
X136506870Y-89032337D01*
X136597160Y-89250319D01*
X136597165Y-89250328D01*
X136715144Y-89454671D01*
X136715145Y-89454672D01*
X136777721Y-89536223D01*
X137613958Y-88699987D01*
X137638978Y-88760390D01*
X137710112Y-88866851D01*
X137800649Y-88957388D01*
X137907110Y-89028522D01*
X137967511Y-89053541D01*
X137131275Y-89889777D01*
X137212827Y-89952354D01*
X137212828Y-89952355D01*
X137417171Y-90070334D01*
X137417180Y-90070339D01*
X137635163Y-90160629D01*
X137635161Y-90160629D01*
X137863085Y-90221700D01*
X138097014Y-90252499D01*
X138097029Y-90252500D01*
X138332971Y-90252500D01*
X138332985Y-90252499D01*
X138566914Y-90221700D01*
X138794837Y-90160629D01*
X139012819Y-90070339D01*
X139012828Y-90070334D01*
X139217181Y-89952350D01*
X139298723Y-89889779D01*
X139298723Y-89889776D01*
X138462487Y-89053541D01*
X138522890Y-89028522D01*
X138629351Y-88957388D01*
X138719888Y-88866851D01*
X138791022Y-88760390D01*
X138816041Y-88699988D01*
X139652276Y-89536223D01*
X139652279Y-89536223D01*
X139714850Y-89454681D01*
X139832834Y-89250328D01*
X139832839Y-89250319D01*
X139923129Y-89032337D01*
X139984200Y-88804414D01*
X140014999Y-88570485D01*
X140015000Y-88570471D01*
X140015000Y-88334528D01*
X140014999Y-88334514D01*
X139984200Y-88100585D01*
X139923129Y-87872662D01*
X139832839Y-87654680D01*
X139832834Y-87654671D01*
X139714855Y-87450328D01*
X139714854Y-87450327D01*
X139652277Y-87368775D01*
X138816041Y-88205011D01*
X138791022Y-88144610D01*
X138719888Y-88038149D01*
X138629351Y-87947612D01*
X138522890Y-87876478D01*
X138462488Y-87851458D01*
X139298723Y-87015221D01*
X139217172Y-86952645D01*
X139217171Y-86952644D01*
X139012828Y-86834665D01*
X139012819Y-86834660D01*
X138794836Y-86744370D01*
X138794838Y-86744370D01*
X138566914Y-86683299D01*
X138332985Y-86652500D01*
X138097014Y-86652500D01*
X137863085Y-86683299D01*
X137635162Y-86744370D01*
X137417180Y-86834660D01*
X137417171Y-86834665D01*
X137212828Y-86952644D01*
X137212818Y-86952650D01*
X137131275Y-87015220D01*
X137131275Y-87015221D01*
X137967512Y-87851458D01*
X137907110Y-87876478D01*
X137800649Y-87947612D01*
X137710112Y-88038149D01*
X137638978Y-88144610D01*
X137613958Y-88205011D01*
X136777721Y-87368775D01*
X136777720Y-87368775D01*
X136715150Y-87450318D01*
X136715144Y-87450328D01*
X136597165Y-87654671D01*
X136597160Y-87654680D01*
X136506870Y-87872662D01*
X136445799Y-88100585D01*
X136415000Y-88334514D01*
X132000500Y-88334514D01*
X132000500Y-82124500D01*
X132020185Y-82057461D01*
X132072989Y-82011706D01*
X132124500Y-82000500D01*
X150375500Y-82000500D01*
X150442539Y-82020185D01*
G37*
%TD.AperFunction*%
%TD*%
M02*
