%TF.GenerationSoftware,KiCad,Pcbnew,9.0.3*%
%TF.CreationDate,2026-07-21T15:40:22+05:30*%
%TF.ProjectId,04_LDR_Sensor,30345f4c-4452-45f5-9365-6e736f722e6b,rev?*%
%TF.SameCoordinates,Original*%
%TF.FileFunction,Legend,Top*%
%TF.FilePolarity,Positive*%
%FSLAX46Y46*%
G04 Gerber Fmt 4.6, Leading zero omitted, Abs format (unit mm)*
G04 Created by KiCad (PCBNEW 9.0.3) date 2026-07-21 15:40:22*
%MOMM*%
%LPD*%
G01*
G04 APERTURE LIST*
%ADD10C,0.150000*%
%ADD11C,0.120000*%
G04 APERTURE END LIST*
D10*
X133754819Y-98266666D02*
X133278628Y-98599999D01*
X133754819Y-98838094D02*
X132754819Y-98838094D01*
X132754819Y-98838094D02*
X132754819Y-98457142D01*
X132754819Y-98457142D02*
X132802438Y-98361904D01*
X132802438Y-98361904D02*
X132850057Y-98314285D01*
X132850057Y-98314285D02*
X132945295Y-98266666D01*
X132945295Y-98266666D02*
X133088152Y-98266666D01*
X133088152Y-98266666D02*
X133183390Y-98314285D01*
X133183390Y-98314285D02*
X133231009Y-98361904D01*
X133231009Y-98361904D02*
X133278628Y-98457142D01*
X133278628Y-98457142D02*
X133278628Y-98838094D01*
X133754819Y-97314285D02*
X133754819Y-97885713D01*
X133754819Y-97599999D02*
X132754819Y-97599999D01*
X132754819Y-97599999D02*
X132897676Y-97695237D01*
X132897676Y-97695237D02*
X132992914Y-97790475D01*
X132992914Y-97790475D02*
X133040533Y-97885713D01*
X144686905Y-100879819D02*
X144686905Y-99879819D01*
X144686905Y-99879819D02*
X144925000Y-99879819D01*
X144925000Y-99879819D02*
X145067857Y-99927438D01*
X145067857Y-99927438D02*
X145163095Y-100022676D01*
X145163095Y-100022676D02*
X145210714Y-100117914D01*
X145210714Y-100117914D02*
X145258333Y-100308390D01*
X145258333Y-100308390D02*
X145258333Y-100451247D01*
X145258333Y-100451247D02*
X145210714Y-100641723D01*
X145210714Y-100641723D02*
X145163095Y-100736961D01*
X145163095Y-100736961D02*
X145067857Y-100832200D01*
X145067857Y-100832200D02*
X144925000Y-100879819D01*
X144925000Y-100879819D02*
X144686905Y-100879819D01*
X146210714Y-100879819D02*
X145639286Y-100879819D01*
X145925000Y-100879819D02*
X145925000Y-99879819D01*
X145925000Y-99879819D02*
X145829762Y-100022676D01*
X145829762Y-100022676D02*
X145734524Y-100117914D01*
X145734524Y-100117914D02*
X145639286Y-100165533D01*
X147804761Y-103050057D02*
X147709523Y-103002438D01*
X147709523Y-103002438D02*
X147614285Y-102907200D01*
X147614285Y-102907200D02*
X147471428Y-102764342D01*
X147471428Y-102764342D02*
X147376190Y-102716723D01*
X147376190Y-102716723D02*
X147280952Y-102716723D01*
X147328571Y-102954819D02*
X147233333Y-102907200D01*
X147233333Y-102907200D02*
X147138095Y-102811961D01*
X147138095Y-102811961D02*
X147090476Y-102621485D01*
X147090476Y-102621485D02*
X147090476Y-102288152D01*
X147090476Y-102288152D02*
X147138095Y-102097676D01*
X147138095Y-102097676D02*
X147233333Y-102002438D01*
X147233333Y-102002438D02*
X147328571Y-101954819D01*
X147328571Y-101954819D02*
X147519047Y-101954819D01*
X147519047Y-101954819D02*
X147614285Y-102002438D01*
X147614285Y-102002438D02*
X147709523Y-102097676D01*
X147709523Y-102097676D02*
X147757142Y-102288152D01*
X147757142Y-102288152D02*
X147757142Y-102621485D01*
X147757142Y-102621485D02*
X147709523Y-102811961D01*
X147709523Y-102811961D02*
X147614285Y-102907200D01*
X147614285Y-102907200D02*
X147519047Y-102954819D01*
X147519047Y-102954819D02*
X147328571Y-102954819D01*
X148709523Y-102954819D02*
X148138095Y-102954819D01*
X148423809Y-102954819D02*
X148423809Y-101954819D01*
X148423809Y-101954819D02*
X148328571Y-102097676D01*
X148328571Y-102097676D02*
X148233333Y-102192914D01*
X148233333Y-102192914D02*
X148138095Y-102240533D01*
X140145833Y-97529819D02*
X139812500Y-97053628D01*
X139574405Y-97529819D02*
X139574405Y-96529819D01*
X139574405Y-96529819D02*
X139955357Y-96529819D01*
X139955357Y-96529819D02*
X140050595Y-96577438D01*
X140050595Y-96577438D02*
X140098214Y-96625057D01*
X140098214Y-96625057D02*
X140145833Y-96720295D01*
X140145833Y-96720295D02*
X140145833Y-96863152D01*
X140145833Y-96863152D02*
X140098214Y-96958390D01*
X140098214Y-96958390D02*
X140050595Y-97006009D01*
X140050595Y-97006009D02*
X139955357Y-97053628D01*
X139955357Y-97053628D02*
X139574405Y-97053628D01*
X140479167Y-96529819D02*
X141098214Y-96529819D01*
X141098214Y-96529819D02*
X140764881Y-96910771D01*
X140764881Y-96910771D02*
X140907738Y-96910771D01*
X140907738Y-96910771D02*
X141002976Y-96958390D01*
X141002976Y-96958390D02*
X141050595Y-97006009D01*
X141050595Y-97006009D02*
X141098214Y-97101247D01*
X141098214Y-97101247D02*
X141098214Y-97339342D01*
X141098214Y-97339342D02*
X141050595Y-97434580D01*
X141050595Y-97434580D02*
X141002976Y-97482200D01*
X141002976Y-97482200D02*
X140907738Y-97529819D01*
X140907738Y-97529819D02*
X140622024Y-97529819D01*
X140622024Y-97529819D02*
X140526786Y-97482200D01*
X140526786Y-97482200D02*
X140479167Y-97434580D01*
X136533333Y-104079819D02*
X136200000Y-103603628D01*
X135961905Y-104079819D02*
X135961905Y-103079819D01*
X135961905Y-103079819D02*
X136342857Y-103079819D01*
X136342857Y-103079819D02*
X136438095Y-103127438D01*
X136438095Y-103127438D02*
X136485714Y-103175057D01*
X136485714Y-103175057D02*
X136533333Y-103270295D01*
X136533333Y-103270295D02*
X136533333Y-103413152D01*
X136533333Y-103413152D02*
X136485714Y-103508390D01*
X136485714Y-103508390D02*
X136438095Y-103556009D01*
X136438095Y-103556009D02*
X136342857Y-103603628D01*
X136342857Y-103603628D02*
X135961905Y-103603628D01*
X136914286Y-103175057D02*
X136961905Y-103127438D01*
X136961905Y-103127438D02*
X137057143Y-103079819D01*
X137057143Y-103079819D02*
X137295238Y-103079819D01*
X137295238Y-103079819D02*
X137390476Y-103127438D01*
X137390476Y-103127438D02*
X137438095Y-103175057D01*
X137438095Y-103175057D02*
X137485714Y-103270295D01*
X137485714Y-103270295D02*
X137485714Y-103365533D01*
X137485714Y-103365533D02*
X137438095Y-103508390D01*
X137438095Y-103508390D02*
X136866667Y-104079819D01*
X136866667Y-104079819D02*
X137485714Y-104079819D01*
X140421666Y-94227319D02*
X140421666Y-94941604D01*
X140421666Y-94941604D02*
X140374047Y-95084461D01*
X140374047Y-95084461D02*
X140278809Y-95179700D01*
X140278809Y-95179700D02*
X140135952Y-95227319D01*
X140135952Y-95227319D02*
X140040714Y-95227319D01*
X141421666Y-95227319D02*
X140850238Y-95227319D01*
X141135952Y-95227319D02*
X141135952Y-94227319D01*
X141135952Y-94227319D02*
X141040714Y-94370176D01*
X141040714Y-94370176D02*
X140945476Y-94465414D01*
X140945476Y-94465414D02*
X140850238Y-94513033D01*
D11*
%TO.C,R1*%
X134240000Y-97847936D02*
X134240000Y-98302064D01*
X135710000Y-97847936D02*
X135710000Y-98302064D01*
%TO.C,D1*%
X144425000Y-99735000D02*
X147110000Y-99735000D01*
X147110000Y-97815000D02*
X144425000Y-97815000D01*
X147110000Y-99735000D02*
X147110000Y-97815000D01*
%TO.C,Q1*%
X144440000Y-104225000D02*
X144440000Y-107825000D01*
X144451522Y-104186522D02*
G75*
G02*
X148890001Y-106025000I1838478J-1838478D01*
G01*
X148890000Y-106025000D02*
G75*
G02*
X144451522Y-107863478I-2600000J0D01*
G01*
%TO.C,R3*%
X140085436Y-97990000D02*
X140539564Y-97990000D01*
X140085436Y-99460000D02*
X140539564Y-99460000D01*
%TO.C,R2*%
X135150000Y-104375000D02*
X138200000Y-104375000D01*
X135150000Y-108675000D02*
X138200000Y-108675000D01*
X135150000Y-108675000D02*
G75*
G02*
X135171766Y-104359475I1550000J2150000D01*
G01*
X138200000Y-104375000D02*
G75*
G02*
X138244513Y-108643249I-1500000J-2150000D01*
G01*
%TO.C,J1*%
X135555000Y-83732500D02*
X142995000Y-83732500D01*
X135555000Y-93772500D02*
X135555000Y-83732500D01*
X143595000Y-83732500D02*
X145955000Y-83732500D01*
X145955000Y-83732500D02*
X145955000Y-93772500D01*
X145955000Y-84352500D02*
X135555000Y-84352500D01*
X145955000Y-85852500D02*
X135555000Y-85852500D01*
X145955000Y-90752500D02*
X135555000Y-90752500D01*
X145955000Y-93772500D02*
X135555000Y-93772500D01*
X143295000Y-83732500D02*
X142855000Y-83122500D01*
X143735000Y-83122500D01*
X143295000Y-83732500D01*
G36*
X143295000Y-83732500D02*
G01*
X142855000Y-83122500D01*
X143735000Y-83122500D01*
X143295000Y-83732500D01*
G37*
%TD*%
M02*
