%TF.GenerationSoftware,KiCad,Pcbnew,9.0.3*%
%TF.CreationDate,2026-07-21T19:36:49+05:30*%
%TF.ProjectId,05_Thermistor_Temperature_Detector,30355f54-6865-4726-9d69-73746f725f54,rev?*%
%TF.SameCoordinates,Original*%
%TF.FileFunction,Copper,L1,Top*%
%TF.FilePolarity,Positive*%
%FSLAX46Y46*%
G04 Gerber Fmt 4.6, Leading zero omitted, Abs format (unit mm)*
G04 Created by KiCad (PCBNEW 9.0.3) date 2026-07-21 19:36:49*
%MOMM*%
%LPD*%
G01*
G04 APERTURE LIST*
%TA.AperFunction,NonConductor*%
%ADD10C,0.200000*%
%TD*%
%TA.AperFunction,ComponentPad*%
%ADD11C,1.600000*%
%TD*%
%TA.AperFunction,ComponentPad*%
%ADD12C,1.905000*%
%TD*%
%TA.AperFunction,ComponentPad*%
%ADD13R,1.500000X1.050000*%
%TD*%
%TA.AperFunction,ComponentPad*%
%ADD14O,1.500000X1.050000*%
%TD*%
%TA.AperFunction,ComponentPad*%
%ADD15R,1.700000X1.700000*%
%TD*%
%TA.AperFunction,ComponentPad*%
%ADD16C,1.700000*%
%TD*%
%TA.AperFunction,ComponentPad*%
%ADD17R,1.800000X1.800000*%
%TD*%
%TA.AperFunction,ComponentPad*%
%ADD18C,1.800000*%
%TD*%
G04 APERTURE END LIST*
D10*
X158000000Y-59500000D02*
X187000000Y-59500000D01*
X187000000Y-90000000D01*
X158000000Y-90000000D01*
X158000000Y-59500000D01*
D11*
%TO.P,R1,1*%
%TO.N,+5V*%
X170925000Y-62465000D03*
%TO.P,R1,2*%
%TO.N,Net-(Q1-B)*%
X170925000Y-70085000D03*
%TD*%
%TO.P,R3,1*%
%TO.N,+5V*%
X182275000Y-62565000D03*
%TO.P,R3,2*%
%TO.N,Net-(D1-A)*%
X182275000Y-70185000D03*
%TD*%
D12*
%TO.P,TH1,1*%
%TO.N,Net-(Q1-B)*%
X170850000Y-76860000D03*
%TO.P,TH1,2*%
%TO.N,GND*%
X170850000Y-81860000D03*
%TD*%
D13*
%TO.P,Q1,1,C*%
%TO.N,Net-(D1-K)*%
X179790000Y-82680000D03*
D14*
%TO.P,Q1,2,B*%
%TO.N,Net-(Q1-B)*%
X179790000Y-83950000D03*
%TO.P,Q1,3,E*%
%TO.N,GND*%
X179790000Y-85220000D03*
%TD*%
D15*
%TO.P,J1,1,Pin_1*%
%TO.N,GND*%
X163325000Y-72775000D03*
D16*
%TO.P,J1,2,Pin_2*%
%TO.N,+5V*%
X163325000Y-70235000D03*
%TD*%
D17*
%TO.P,D1,1,K*%
%TO.N,Net-(D1-K)*%
X179700000Y-76025000D03*
D18*
%TO.P,D1,2,A*%
%TO.N,Net-(D1-A)*%
X182240000Y-76025000D03*
%TD*%
%TA.AperFunction,NonConductor*%
G36*
X170507897Y-61020185D02*
G01*
X170553652Y-61072989D01*
X170563596Y-61142147D01*
X170534571Y-61205703D01*
X170479178Y-61242430D01*
X170457873Y-61249352D01*
X170425776Y-61259781D01*
X170243386Y-61352715D01*
X170077786Y-61473028D01*
X169933028Y-61617786D01*
X169812715Y-61783386D01*
X169719781Y-61965776D01*
X169656522Y-62160465D01*
X169624500Y-62362648D01*
X169624500Y-62567351D01*
X169656522Y-62769534D01*
X169719781Y-62964223D01*
X169812715Y-63146613D01*
X169933028Y-63312213D01*
X170077786Y-63456971D01*
X170215420Y-63556966D01*
X170243390Y-63577287D01*
X170359607Y-63636503D01*
X170425776Y-63670218D01*
X170425778Y-63670218D01*
X170425781Y-63670220D01*
X170530137Y-63704127D01*
X170620465Y-63733477D01*
X170721557Y-63749488D01*
X170822648Y-63765500D01*
X170822649Y-63765500D01*
X171027351Y-63765500D01*
X171027352Y-63765500D01*
X171229534Y-63733477D01*
X171424219Y-63670220D01*
X171606610Y-63577287D01*
X171699590Y-63509732D01*
X171772213Y-63456971D01*
X171772215Y-63456968D01*
X171772219Y-63456966D01*
X171916966Y-63312219D01*
X171916968Y-63312215D01*
X171916971Y-63312213D01*
X171969732Y-63239590D01*
X172037287Y-63146610D01*
X172130220Y-62964219D01*
X172193477Y-62769534D01*
X172225500Y-62567352D01*
X172225500Y-62462648D01*
X180974500Y-62462648D01*
X180974500Y-62667351D01*
X181006522Y-62869534D01*
X181069781Y-63064223D01*
X181162715Y-63246613D01*
X181283028Y-63412213D01*
X181427786Y-63556971D01*
X181582749Y-63669556D01*
X181593390Y-63677287D01*
X181703669Y-63733477D01*
X181775776Y-63770218D01*
X181775778Y-63770218D01*
X181775781Y-63770220D01*
X181880137Y-63804127D01*
X181970465Y-63833477D01*
X182071557Y-63849488D01*
X182172648Y-63865500D01*
X182172649Y-63865500D01*
X182377351Y-63865500D01*
X182377352Y-63865500D01*
X182579534Y-63833477D01*
X182774219Y-63770220D01*
X182956610Y-63677287D01*
X183049590Y-63609732D01*
X183122213Y-63556971D01*
X183122215Y-63556968D01*
X183122219Y-63556966D01*
X183266966Y-63412219D01*
X183266968Y-63412215D01*
X183266971Y-63412213D01*
X183319732Y-63339590D01*
X183387287Y-63246610D01*
X183480220Y-63064219D01*
X183543477Y-62869534D01*
X183575500Y-62667352D01*
X183575500Y-62462648D01*
X183543477Y-62260466D01*
X183480220Y-62065781D01*
X183480218Y-62065778D01*
X183480218Y-62065776D01*
X183429265Y-61965776D01*
X183387287Y-61883390D01*
X183379556Y-61872749D01*
X183266971Y-61717786D01*
X183122213Y-61573028D01*
X182956613Y-61452715D01*
X182956612Y-61452714D01*
X182956610Y-61452713D01*
X182899653Y-61423691D01*
X182774223Y-61359781D01*
X182579534Y-61296522D01*
X182404995Y-61268878D01*
X182377352Y-61264500D01*
X182172648Y-61264500D01*
X182148329Y-61268351D01*
X181970465Y-61296522D01*
X181775776Y-61359781D01*
X181593386Y-61452715D01*
X181427786Y-61573028D01*
X181283028Y-61717786D01*
X181162715Y-61883386D01*
X181069781Y-62065776D01*
X181006522Y-62260465D01*
X180974500Y-62462648D01*
X172225500Y-62462648D01*
X172225500Y-62362648D01*
X172193477Y-62160466D01*
X172130220Y-61965781D01*
X172130218Y-61965778D01*
X172130218Y-61965776D01*
X172096503Y-61899607D01*
X172037287Y-61783390D01*
X172029556Y-61772749D01*
X171916971Y-61617786D01*
X171772213Y-61473028D01*
X171606613Y-61352715D01*
X171606612Y-61352714D01*
X171606610Y-61352713D01*
X171549653Y-61323691D01*
X171424223Y-61259781D01*
X171401817Y-61252501D01*
X171370821Y-61242430D01*
X171313148Y-61202993D01*
X171285950Y-61138634D01*
X171297865Y-61069788D01*
X171345109Y-61018312D01*
X171409142Y-61000500D01*
X185375500Y-61000500D01*
X185442539Y-61020185D01*
X185488294Y-61072989D01*
X185499500Y-61124500D01*
X185499500Y-88375500D01*
X185479815Y-88442539D01*
X185427011Y-88488294D01*
X185375500Y-88499500D01*
X159624500Y-88499500D01*
X159557461Y-88479815D01*
X159511706Y-88427011D01*
X159500500Y-88375500D01*
X159500500Y-81745646D01*
X169397000Y-81745646D01*
X169397000Y-81974353D01*
X169432778Y-82200246D01*
X169432778Y-82200249D01*
X169503450Y-82417755D01*
X169503452Y-82417758D01*
X169607283Y-82621538D01*
X169741714Y-82806566D01*
X169903434Y-82968286D01*
X170088462Y-83102717D01*
X170292242Y-83206548D01*
X170292244Y-83206549D01*
X170509751Y-83277221D01*
X170509752Y-83277221D01*
X170509755Y-83277222D01*
X170735646Y-83313000D01*
X170735647Y-83313000D01*
X170964353Y-83313000D01*
X170964354Y-83313000D01*
X171190245Y-83277222D01*
X171190248Y-83277221D01*
X171190249Y-83277221D01*
X171407755Y-83206549D01*
X171407755Y-83206548D01*
X171407758Y-83206548D01*
X171611538Y-83102717D01*
X171796566Y-82968286D01*
X171958286Y-82806566D01*
X172092717Y-82621538D01*
X172196548Y-82417758D01*
X172267222Y-82200245D01*
X172281969Y-82107135D01*
X178539500Y-82107135D01*
X178539500Y-83252870D01*
X178539501Y-83252876D01*
X178545908Y-83312483D01*
X178596202Y-83447328D01*
X178596203Y-83447330D01*
X178596204Y-83447331D01*
X178597028Y-83448432D01*
X178597509Y-83449721D01*
X178600454Y-83455114D01*
X178599678Y-83455537D01*
X178621448Y-83513895D01*
X178612325Y-83570198D01*
X178578910Y-83650868D01*
X178578907Y-83650880D01*
X178539500Y-83848992D01*
X178539500Y-84051007D01*
X178578907Y-84249119D01*
X178578909Y-84249127D01*
X178656213Y-84435755D01*
X178709904Y-84516109D01*
X178730782Y-84582787D01*
X178712297Y-84650167D01*
X178709904Y-84653891D01*
X178656213Y-84734244D01*
X178578909Y-84920872D01*
X178578907Y-84920880D01*
X178539500Y-85118992D01*
X178539500Y-85321007D01*
X178578907Y-85519119D01*
X178578909Y-85519127D01*
X178656212Y-85705752D01*
X178656217Y-85705762D01*
X178768441Y-85873718D01*
X178911281Y-86016558D01*
X179079237Y-86128782D01*
X179079241Y-86128784D01*
X179079244Y-86128786D01*
X179265873Y-86206091D01*
X179463992Y-86245499D01*
X179463996Y-86245500D01*
X179463997Y-86245500D01*
X180116004Y-86245500D01*
X180116005Y-86245499D01*
X180314127Y-86206091D01*
X180500756Y-86128786D01*
X180668718Y-86016558D01*
X180811558Y-85873718D01*
X180923786Y-85705756D01*
X181001091Y-85519127D01*
X181040500Y-85321003D01*
X181040500Y-85118997D01*
X181001091Y-84920873D01*
X180923786Y-84734244D01*
X180870094Y-84653889D01*
X180849217Y-84587214D01*
X180867701Y-84519834D01*
X180870078Y-84516134D01*
X180923786Y-84435756D01*
X181001091Y-84249127D01*
X181040500Y-84051003D01*
X181040500Y-83848997D01*
X181001091Y-83650873D01*
X180967673Y-83570198D01*
X180960205Y-83500730D01*
X180979964Y-83455340D01*
X180979547Y-83455112D01*
X180982095Y-83450444D01*
X180982972Y-83448431D01*
X180983796Y-83447331D01*
X181034091Y-83312483D01*
X181040500Y-83252873D01*
X181040499Y-82107128D01*
X181034091Y-82047517D01*
X180983796Y-81912669D01*
X180983795Y-81912668D01*
X180983793Y-81912664D01*
X180897547Y-81797455D01*
X180897544Y-81797452D01*
X180782335Y-81711206D01*
X180782328Y-81711202D01*
X180647482Y-81660908D01*
X180647483Y-81660908D01*
X180587883Y-81654501D01*
X180587881Y-81654500D01*
X180587873Y-81654500D01*
X180587864Y-81654500D01*
X178992129Y-81654500D01*
X178992123Y-81654501D01*
X178932516Y-81660908D01*
X178797671Y-81711202D01*
X178797664Y-81711206D01*
X178682455Y-81797452D01*
X178682452Y-81797455D01*
X178596206Y-81912664D01*
X178596202Y-81912671D01*
X178545908Y-82047517D01*
X178539501Y-82107116D01*
X178539501Y-82107123D01*
X178539500Y-82107135D01*
X172281969Y-82107135D01*
X172303000Y-81974354D01*
X172303000Y-81745646D01*
X172267222Y-81519755D01*
X172267221Y-81519751D01*
X172267221Y-81519750D01*
X172196549Y-81302244D01*
X172092716Y-81098461D01*
X171958286Y-80913434D01*
X171796566Y-80751714D01*
X171611538Y-80617283D01*
X171407755Y-80513450D01*
X171190248Y-80442778D01*
X171020826Y-80415944D01*
X170964354Y-80407000D01*
X170735646Y-80407000D01*
X170660349Y-80418926D01*
X170509753Y-80442778D01*
X170509750Y-80442778D01*
X170292244Y-80513450D01*
X170088461Y-80617283D01*
X169982896Y-80693980D01*
X169903434Y-80751714D01*
X169903432Y-80751716D01*
X169903431Y-80751716D01*
X169741716Y-80913431D01*
X169741716Y-80913432D01*
X169741714Y-80913434D01*
X169683980Y-80992896D01*
X169607283Y-81098461D01*
X169503450Y-81302244D01*
X169432778Y-81519750D01*
X169432778Y-81519753D01*
X169397000Y-81745646D01*
X159500500Y-81745646D01*
X159500500Y-76745646D01*
X169397000Y-76745646D01*
X169397000Y-76974354D01*
X169404534Y-77021919D01*
X169432778Y-77200246D01*
X169432778Y-77200249D01*
X169503450Y-77417755D01*
X169607283Y-77621538D01*
X169741714Y-77806566D01*
X169903434Y-77968286D01*
X170088462Y-78102717D01*
X170292242Y-78206548D01*
X170292244Y-78206549D01*
X170509751Y-78277221D01*
X170509752Y-78277221D01*
X170509755Y-78277222D01*
X170735646Y-78313000D01*
X170735647Y-78313000D01*
X170964353Y-78313000D01*
X170964354Y-78313000D01*
X171190245Y-78277222D01*
X171190248Y-78277221D01*
X171190249Y-78277221D01*
X171407755Y-78206549D01*
X171407755Y-78206548D01*
X171407758Y-78206548D01*
X171611538Y-78102717D01*
X171796566Y-77968286D01*
X171958286Y-77806566D01*
X172092717Y-77621538D01*
X172196548Y-77417758D01*
X172212458Y-77368793D01*
X172267221Y-77200249D01*
X172267221Y-77200248D01*
X172267222Y-77200245D01*
X172303000Y-76974354D01*
X172303000Y-76745646D01*
X172267222Y-76519755D01*
X172267221Y-76519751D01*
X172267221Y-76519750D01*
X172196549Y-76302244D01*
X172111447Y-76135222D01*
X172092717Y-76098462D01*
X171958286Y-75913434D01*
X171796566Y-75751714D01*
X171611538Y-75617283D01*
X171407755Y-75513450D01*
X171190248Y-75442778D01*
X171020826Y-75415944D01*
X170964354Y-75407000D01*
X170735646Y-75407000D01*
X170660349Y-75418926D01*
X170509753Y-75442778D01*
X170509750Y-75442778D01*
X170292244Y-75513450D01*
X170088461Y-75617283D01*
X169982896Y-75693980D01*
X169903434Y-75751714D01*
X169903432Y-75751716D01*
X169903431Y-75751716D01*
X169741716Y-75913431D01*
X169741716Y-75913432D01*
X169741714Y-75913434D01*
X169740738Y-75914778D01*
X169607283Y-76098461D01*
X169503450Y-76302244D01*
X169432778Y-76519750D01*
X169432778Y-76519753D01*
X169432778Y-76519755D01*
X169397000Y-76745646D01*
X159500500Y-76745646D01*
X159500500Y-75077135D01*
X178299500Y-75077135D01*
X178299500Y-76972870D01*
X178299501Y-76972876D01*
X178305908Y-77032483D01*
X178356202Y-77167328D01*
X178356206Y-77167335D01*
X178442452Y-77282544D01*
X178442455Y-77282547D01*
X178557664Y-77368793D01*
X178557671Y-77368797D01*
X178692517Y-77419091D01*
X178692516Y-77419091D01*
X178699444Y-77419835D01*
X178752127Y-77425500D01*
X180647872Y-77425499D01*
X180707483Y-77419091D01*
X180842331Y-77368796D01*
X180957546Y-77282546D01*
X181043796Y-77167331D01*
X181071429Y-77093243D01*
X181073601Y-77087420D01*
X181115471Y-77031486D01*
X181180936Y-77007068D01*
X181249209Y-77021919D01*
X181277464Y-77043071D01*
X181327636Y-77093243D01*
X181327641Y-77093247D01*
X181429603Y-77167326D01*
X181505978Y-77222815D01*
X181634375Y-77288237D01*
X181702393Y-77322895D01*
X181702396Y-77322896D01*
X181807221Y-77356955D01*
X181912049Y-77391015D01*
X182129778Y-77425500D01*
X182129779Y-77425500D01*
X182350221Y-77425500D01*
X182350222Y-77425500D01*
X182567951Y-77391015D01*
X182777606Y-77322895D01*
X182974022Y-77222815D01*
X183152365Y-77093242D01*
X183308242Y-76937365D01*
X183437815Y-76759022D01*
X183537895Y-76562606D01*
X183606015Y-76352951D01*
X183640500Y-76135222D01*
X183640500Y-75914778D01*
X183606015Y-75697049D01*
X183537895Y-75487394D01*
X183537895Y-75487393D01*
X183496932Y-75407000D01*
X183437815Y-75290978D01*
X183379501Y-75210715D01*
X183308247Y-75112641D01*
X183308243Y-75112636D01*
X183152363Y-74956756D01*
X183152358Y-74956752D01*
X182974025Y-74827187D01*
X182974024Y-74827186D01*
X182974022Y-74827185D01*
X182856791Y-74767452D01*
X182777606Y-74727104D01*
X182777603Y-74727103D01*
X182567952Y-74658985D01*
X182459086Y-74641742D01*
X182350222Y-74624500D01*
X182129778Y-74624500D01*
X182057201Y-74635995D01*
X181912047Y-74658985D01*
X181702396Y-74727103D01*
X181702393Y-74727104D01*
X181505974Y-74827187D01*
X181327641Y-74956752D01*
X181327636Y-74956756D01*
X181277463Y-75006929D01*
X181216140Y-75040413D01*
X181146448Y-75035428D01*
X181090515Y-74993557D01*
X181073601Y-74962580D01*
X181043797Y-74882671D01*
X181043793Y-74882664D01*
X180957547Y-74767455D01*
X180957544Y-74767452D01*
X180842335Y-74681206D01*
X180842328Y-74681202D01*
X180707482Y-74630908D01*
X180707483Y-74630908D01*
X180647883Y-74624501D01*
X180647881Y-74624500D01*
X180647873Y-74624500D01*
X180647864Y-74624500D01*
X178752129Y-74624500D01*
X178752123Y-74624501D01*
X178692516Y-74630908D01*
X178557671Y-74681202D01*
X178557664Y-74681206D01*
X178442455Y-74767452D01*
X178442452Y-74767455D01*
X178356206Y-74882664D01*
X178356202Y-74882671D01*
X178305908Y-75017517D01*
X178299501Y-75077116D01*
X178299500Y-75077135D01*
X159500500Y-75077135D01*
X159500500Y-70128713D01*
X161974500Y-70128713D01*
X161974500Y-70341286D01*
X162007753Y-70551239D01*
X162073444Y-70753414D01*
X162169951Y-70942820D01*
X162294890Y-71114786D01*
X162408430Y-71228326D01*
X162441915Y-71289649D01*
X162436931Y-71359341D01*
X162395059Y-71415274D01*
X162364083Y-71432189D01*
X162232669Y-71481203D01*
X162232664Y-71481206D01*
X162117455Y-71567452D01*
X162117452Y-71567455D01*
X162031206Y-71682664D01*
X162031202Y-71682671D01*
X161980908Y-71817517D01*
X161974501Y-71877116D01*
X161974501Y-71877123D01*
X161974500Y-71877135D01*
X161974500Y-73672870D01*
X161974501Y-73672876D01*
X161980908Y-73732483D01*
X162031202Y-73867328D01*
X162031206Y-73867335D01*
X162117452Y-73982544D01*
X162117455Y-73982547D01*
X162232664Y-74068793D01*
X162232671Y-74068797D01*
X162367517Y-74119091D01*
X162367516Y-74119091D01*
X162374444Y-74119835D01*
X162427127Y-74125500D01*
X164222872Y-74125499D01*
X164282483Y-74119091D01*
X164417331Y-74068796D01*
X164532546Y-73982546D01*
X164618796Y-73867331D01*
X164669091Y-73732483D01*
X164675500Y-73672873D01*
X164675499Y-71877128D01*
X164669091Y-71817517D01*
X164618796Y-71682669D01*
X164618795Y-71682668D01*
X164618793Y-71682664D01*
X164532547Y-71567455D01*
X164532544Y-71567452D01*
X164417335Y-71481206D01*
X164417328Y-71481202D01*
X164285917Y-71432189D01*
X164229983Y-71390318D01*
X164205566Y-71324853D01*
X164220418Y-71256580D01*
X164241563Y-71228332D01*
X164355104Y-71114792D01*
X164480051Y-70942816D01*
X164576557Y-70753412D01*
X164642246Y-70551243D01*
X164675500Y-70341287D01*
X164675500Y-70128713D01*
X164652365Y-69982648D01*
X169624500Y-69982648D01*
X169624500Y-70187351D01*
X169656522Y-70389534D01*
X169719781Y-70584223D01*
X169783691Y-70709653D01*
X169805989Y-70753414D01*
X169812715Y-70766613D01*
X169933028Y-70932213D01*
X170077786Y-71076971D01*
X170215420Y-71176966D01*
X170243390Y-71197287D01*
X170359607Y-71256503D01*
X170425776Y-71290218D01*
X170425778Y-71290218D01*
X170425781Y-71290220D01*
X170530137Y-71324127D01*
X170620465Y-71353477D01*
X170657489Y-71359341D01*
X170822648Y-71385500D01*
X170822649Y-71385500D01*
X171027351Y-71385500D01*
X171027352Y-71385500D01*
X171229534Y-71353477D01*
X171424219Y-71290220D01*
X171606610Y-71197287D01*
X171720167Y-71114784D01*
X171772213Y-71076971D01*
X171772215Y-71076968D01*
X171772219Y-71076966D01*
X171916966Y-70932219D01*
X171916968Y-70932215D01*
X171916971Y-70932213D01*
X171969732Y-70859590D01*
X172037287Y-70766610D01*
X172130220Y-70584219D01*
X172193477Y-70389534D01*
X172225500Y-70187352D01*
X172225500Y-70082648D01*
X180974500Y-70082648D01*
X180974500Y-70287351D01*
X181006522Y-70489534D01*
X181069781Y-70684223D01*
X181162715Y-70866613D01*
X181283028Y-71032213D01*
X181427786Y-71176971D01*
X181582749Y-71289556D01*
X181593390Y-71297287D01*
X181703669Y-71353477D01*
X181775776Y-71390218D01*
X181775778Y-71390218D01*
X181775781Y-71390220D01*
X181880137Y-71424127D01*
X181970465Y-71453477D01*
X182071557Y-71469488D01*
X182172648Y-71485500D01*
X182172649Y-71485500D01*
X182377351Y-71485500D01*
X182377352Y-71485500D01*
X182579534Y-71453477D01*
X182774219Y-71390220D01*
X182956610Y-71297287D01*
X183051529Y-71228325D01*
X183122213Y-71176971D01*
X183122215Y-71176968D01*
X183122219Y-71176966D01*
X183266966Y-71032219D01*
X183266968Y-71032215D01*
X183266971Y-71032213D01*
X183319732Y-70959590D01*
X183387287Y-70866610D01*
X183480220Y-70684219D01*
X183543477Y-70489534D01*
X183575500Y-70287352D01*
X183575500Y-70082648D01*
X183543477Y-69880466D01*
X183480220Y-69685781D01*
X183480218Y-69685778D01*
X183480218Y-69685776D01*
X183429265Y-69585776D01*
X183387287Y-69503390D01*
X183379556Y-69492749D01*
X183266971Y-69337786D01*
X183122213Y-69193028D01*
X182956613Y-69072715D01*
X182956612Y-69072714D01*
X182956610Y-69072713D01*
X182899653Y-69043691D01*
X182774223Y-68979781D01*
X182579534Y-68916522D01*
X182404995Y-68888878D01*
X182377352Y-68884500D01*
X182172648Y-68884500D01*
X182148329Y-68888351D01*
X181970465Y-68916522D01*
X181775776Y-68979781D01*
X181593386Y-69072715D01*
X181427786Y-69193028D01*
X181283028Y-69337786D01*
X181162715Y-69503386D01*
X181069781Y-69685776D01*
X181006522Y-69880465D01*
X180974500Y-70082648D01*
X172225500Y-70082648D01*
X172225500Y-69982648D01*
X172215381Y-69918759D01*
X172193477Y-69780465D01*
X172130218Y-69585776D01*
X172096503Y-69519607D01*
X172037287Y-69403390D01*
X172002281Y-69355208D01*
X171916971Y-69237786D01*
X171772213Y-69093028D01*
X171606613Y-68972715D01*
X171606612Y-68972714D01*
X171606610Y-68972713D01*
X171549653Y-68943691D01*
X171424223Y-68879781D01*
X171229534Y-68816522D01*
X171054995Y-68788878D01*
X171027352Y-68784500D01*
X170822648Y-68784500D01*
X170798329Y-68788351D01*
X170620465Y-68816522D01*
X170425776Y-68879781D01*
X170243386Y-68972715D01*
X170077786Y-69093028D01*
X169933028Y-69237786D01*
X169812715Y-69403386D01*
X169719781Y-69585776D01*
X169656522Y-69780465D01*
X169624500Y-69982648D01*
X164652365Y-69982648D01*
X164642246Y-69918757D01*
X164576557Y-69716588D01*
X164480051Y-69527184D01*
X164480049Y-69527181D01*
X164480048Y-69527179D01*
X164355109Y-69355213D01*
X164204786Y-69204890D01*
X164032820Y-69079951D01*
X163843414Y-68983444D01*
X163843413Y-68983443D01*
X163843412Y-68983443D01*
X163641243Y-68917754D01*
X163641241Y-68917753D01*
X163641240Y-68917753D01*
X163479957Y-68892208D01*
X163431287Y-68884500D01*
X163218713Y-68884500D01*
X163170042Y-68892208D01*
X163008760Y-68917753D01*
X162806585Y-68983444D01*
X162617179Y-69079951D01*
X162445213Y-69204890D01*
X162294890Y-69355213D01*
X162169951Y-69527179D01*
X162073444Y-69716585D01*
X162007753Y-69918760D01*
X161974500Y-70128713D01*
X159500500Y-70128713D01*
X159500500Y-61124500D01*
X159520185Y-61057461D01*
X159572989Y-61011706D01*
X159624500Y-61000500D01*
X170440858Y-61000500D01*
X170507897Y-61020185D01*
G37*
%TD.AperFunction*%
M02*
