%TF.GenerationSoftware,KiCad,Pcbnew,9.0.3*%
%TF.CreationDate,2026-07-21T12:46:59+05:30*%
%TF.ProjectId,02_Buzzer,30325f42-757a-47a6-9572-2e6b69636164,rev?*%
%TF.SameCoordinates,Original*%
%TF.FileFunction,Legend,Top*%
%TF.FilePolarity,Positive*%
%FSLAX46Y46*%
G04 Gerber Fmt 4.6, Leading zero omitted, Abs format (unit mm)*
G04 Created by KiCad (PCBNEW 9.0.3) date 2026-07-21 12:46:59*
%MOMM*%
%LPD*%
G01*
G04 APERTURE LIST*
%ADD10C,0.150000*%
%ADD11C,0.120000*%
G04 APERTURE END LIST*
D10*
X157233333Y-114749819D02*
X156900000Y-114273628D01*
X156661905Y-114749819D02*
X156661905Y-113749819D01*
X156661905Y-113749819D02*
X157042857Y-113749819D01*
X157042857Y-113749819D02*
X157138095Y-113797438D01*
X157138095Y-113797438D02*
X157185714Y-113845057D01*
X157185714Y-113845057D02*
X157233333Y-113940295D01*
X157233333Y-113940295D02*
X157233333Y-114083152D01*
X157233333Y-114083152D02*
X157185714Y-114178390D01*
X157185714Y-114178390D02*
X157138095Y-114226009D01*
X157138095Y-114226009D02*
X157042857Y-114273628D01*
X157042857Y-114273628D02*
X156661905Y-114273628D01*
X158185714Y-114749819D02*
X157614286Y-114749819D01*
X157900000Y-114749819D02*
X157900000Y-113749819D01*
X157900000Y-113749819D02*
X157804762Y-113892676D01*
X157804762Y-113892676D02*
X157709524Y-113987914D01*
X157709524Y-113987914D02*
X157614286Y-114035533D01*
X167066666Y-100854819D02*
X167066666Y-101569104D01*
X167066666Y-101569104D02*
X167019047Y-101711961D01*
X167019047Y-101711961D02*
X166923809Y-101807200D01*
X166923809Y-101807200D02*
X166780952Y-101854819D01*
X166780952Y-101854819D02*
X166685714Y-101854819D01*
X168066666Y-101854819D02*
X167495238Y-101854819D01*
X167780952Y-101854819D02*
X167780952Y-100854819D01*
X167780952Y-100854819D02*
X167685714Y-100997676D01*
X167685714Y-100997676D02*
X167590476Y-101092914D01*
X167590476Y-101092914D02*
X167495238Y-101140533D01*
X143219047Y-114731009D02*
X143361904Y-114778628D01*
X143361904Y-114778628D02*
X143409523Y-114826247D01*
X143409523Y-114826247D02*
X143457142Y-114921485D01*
X143457142Y-114921485D02*
X143457142Y-115064342D01*
X143457142Y-115064342D02*
X143409523Y-115159580D01*
X143409523Y-115159580D02*
X143361904Y-115207200D01*
X143361904Y-115207200D02*
X143266666Y-115254819D01*
X143266666Y-115254819D02*
X142885714Y-115254819D01*
X142885714Y-115254819D02*
X142885714Y-114254819D01*
X142885714Y-114254819D02*
X143219047Y-114254819D01*
X143219047Y-114254819D02*
X143314285Y-114302438D01*
X143314285Y-114302438D02*
X143361904Y-114350057D01*
X143361904Y-114350057D02*
X143409523Y-114445295D01*
X143409523Y-114445295D02*
X143409523Y-114540533D01*
X143409523Y-114540533D02*
X143361904Y-114635771D01*
X143361904Y-114635771D02*
X143314285Y-114683390D01*
X143314285Y-114683390D02*
X143219047Y-114731009D01*
X143219047Y-114731009D02*
X142885714Y-114731009D01*
X143790476Y-114254819D02*
X144457142Y-114254819D01*
X144457142Y-114254819D02*
X143790476Y-115254819D01*
X143790476Y-115254819D02*
X144457142Y-115254819D01*
X145361904Y-115254819D02*
X144790476Y-115254819D01*
X145076190Y-115254819D02*
X145076190Y-114254819D01*
X145076190Y-114254819D02*
X144980952Y-114397676D01*
X144980952Y-114397676D02*
X144885714Y-114492914D01*
X144885714Y-114492914D02*
X144790476Y-114540533D01*
X146688866Y-103820951D02*
X146688866Y-103059047D01*
X147069819Y-103439999D02*
X146307914Y-103439999D01*
X157479761Y-108212557D02*
X157384523Y-108164938D01*
X157384523Y-108164938D02*
X157289285Y-108069700D01*
X157289285Y-108069700D02*
X157146428Y-107926842D01*
X157146428Y-107926842D02*
X157051190Y-107879223D01*
X157051190Y-107879223D02*
X156955952Y-107879223D01*
X157003571Y-108117319D02*
X156908333Y-108069700D01*
X156908333Y-108069700D02*
X156813095Y-107974461D01*
X156813095Y-107974461D02*
X156765476Y-107783985D01*
X156765476Y-107783985D02*
X156765476Y-107450652D01*
X156765476Y-107450652D02*
X156813095Y-107260176D01*
X156813095Y-107260176D02*
X156908333Y-107164938D01*
X156908333Y-107164938D02*
X157003571Y-107117319D01*
X157003571Y-107117319D02*
X157194047Y-107117319D01*
X157194047Y-107117319D02*
X157289285Y-107164938D01*
X157289285Y-107164938D02*
X157384523Y-107260176D01*
X157384523Y-107260176D02*
X157432142Y-107450652D01*
X157432142Y-107450652D02*
X157432142Y-107783985D01*
X157432142Y-107783985D02*
X157384523Y-107974461D01*
X157384523Y-107974461D02*
X157289285Y-108069700D01*
X157289285Y-108069700D02*
X157194047Y-108117319D01*
X157194047Y-108117319D02*
X157003571Y-108117319D01*
X158384523Y-108117319D02*
X157813095Y-108117319D01*
X158098809Y-108117319D02*
X158098809Y-107117319D01*
X158098809Y-107117319D02*
X158003571Y-107260176D01*
X158003571Y-107260176D02*
X157908333Y-107355414D01*
X157908333Y-107355414D02*
X157813095Y-107403033D01*
D11*
%TO.C,R1*%
X160670000Y-113295000D02*
X154130000Y-113295000D01*
X160670000Y-112965000D02*
X160670000Y-113295000D01*
X160670000Y-110885000D02*
X160670000Y-110555000D01*
X160670000Y-110555000D02*
X154130000Y-110555000D01*
X154130000Y-113295000D02*
X154130000Y-112965000D01*
X154130000Y-110555000D02*
X154130000Y-110885000D01*
%TO.C,J1*%
X170315000Y-103480000D02*
X176315000Y-103480000D01*
X176315000Y-104340000D01*
X170315000Y-104340000D01*
X170315000Y-103480000D01*
G36*
X170315000Y-103480000D02*
G01*
X176315000Y-103480000D01*
X176315000Y-104340000D01*
X170315000Y-104340000D01*
X170315000Y-103480000D01*
G37*
X176315000Y-109420000D02*
X170315000Y-109420000D01*
X176315000Y-108560000D02*
X176315000Y-109420000D01*
X176315000Y-106880000D02*
X170315000Y-106880000D01*
X176315000Y-106020000D02*
X176315000Y-106880000D01*
X170315000Y-110370000D02*
X170315000Y-102530000D01*
X170315000Y-108560000D02*
X176315000Y-108560000D01*
X170315000Y-106020000D02*
X176315000Y-106020000D01*
X170315000Y-102530000D02*
X167555000Y-102530000D01*
X167555000Y-110370000D02*
X170315000Y-110370000D01*
X167555000Y-107720000D02*
X170315000Y-107720000D01*
X167555000Y-105180000D02*
X170315000Y-105180000D01*
X167555000Y-102530000D02*
X167555000Y-110370000D01*
X167325000Y-104340000D02*
X167555000Y-104340000D01*
X167325000Y-103480000D02*
X167555000Y-103480000D01*
X167242358Y-109420000D02*
X167555000Y-109420000D01*
X167242358Y-108560000D02*
X167555000Y-108560000D01*
X167242358Y-106880000D02*
X167555000Y-106880000D01*
X167242358Y-106020000D02*
X167555000Y-106020000D01*
X164895000Y-103910000D02*
X164895000Y-102640000D01*
X164895000Y-102640000D02*
X166165000Y-102640000D01*
%TO.C,BZ1*%
X150175000Y-107250000D02*
G75*
G02*
X137975000Y-107250000I-6100000J0D01*
G01*
X137975000Y-107250000D02*
G75*
G02*
X150175000Y-107250000I6100000J0D01*
G01*
%TO.C,Q1*%
X157575000Y-103702500D02*
X156925000Y-103702500D01*
X157575000Y-103702500D02*
X158225000Y-103702500D01*
X157575000Y-106822500D02*
X156925000Y-106822500D01*
X157575000Y-106822500D02*
X158225000Y-106822500D01*
X158977500Y-107102500D02*
X158497500Y-107102500D01*
X158737500Y-106772500D01*
X158977500Y-107102500D01*
G36*
X158977500Y-107102500D02*
G01*
X158497500Y-107102500D01*
X158737500Y-106772500D01*
X158977500Y-107102500D01*
G37*
%TD*%
M02*
