%TF.GenerationSoftware,KiCad,Pcbnew,9.0.3*%
%TF.CreationDate,2026-07-21T12:46:59+05:30*%
%TF.ProjectId,02_Buzzer,30325f42-757a-47a6-9572-2e6b69636164,rev?*%
%TF.SameCoordinates,Original*%
%TF.FileFunction,Copper,L1,Top*%
%TF.FilePolarity,Positive*%
%FSLAX46Y46*%
G04 Gerber Fmt 4.6, Leading zero omitted, Abs format (unit mm)*
G04 Created by KiCad (PCBNEW 9.0.3) date 2026-07-21 12:46:59*
%MOMM*%
%LPD*%
G01*
G04 APERTURE LIST*
G04 Aperture macros list*
%AMRoundRect*
0 Rectangle with rounded corners*
0 $1 Rounding radius*
0 $2 $3 $4 $5 $6 $7 $8 $9 X,Y pos of 4 corners*
0 Add a 4 corners polygon primitive as box body*
4,1,4,$2,$3,$4,$5,$6,$7,$8,$9,$2,$3,0*
0 Add four circle primitives for the rounded corners*
1,1,$1+$1,$2,$3*
1,1,$1+$1,$4,$5*
1,1,$1+$1,$6,$7*
1,1,$1+$1,$8,$9*
0 Add four rect primitives between the rounded corners*
20,1,$1+$1,$2,$3,$4,$5,0*
20,1,$1+$1,$4,$5,$6,$7,0*
20,1,$1+$1,$6,$7,$8,$9,0*
20,1,$1+$1,$8,$9,$2,$3,0*%
G04 Aperture macros list end*
%TA.AperFunction,NonConductor*%
%ADD10C,0.200000*%
%TD*%
%TA.AperFunction,ComponentPad*%
%ADD11C,1.600000*%
%TD*%
%TA.AperFunction,ComponentPad*%
%ADD12C,1.700000*%
%TD*%
%TA.AperFunction,ComponentPad*%
%ADD13R,1.700000X1.700000*%
%TD*%
%TA.AperFunction,ComponentPad*%
%ADD14R,2.000000X2.000000*%
%TD*%
%TA.AperFunction,ComponentPad*%
%ADD15C,2.000000*%
%TD*%
%TA.AperFunction,SMDPad,CuDef*%
%ADD16RoundRect,0.150000X0.587500X0.150000X-0.587500X0.150000X-0.587500X-0.150000X0.587500X-0.150000X0*%
%TD*%
%TA.AperFunction,Conductor*%
%ADD17C,0.200000*%
%TD*%
G04 APERTURE END LIST*
D10*
X135000000Y-95500000D02*
X172000000Y-95500000D01*
X172000000Y-118500000D01*
X135000000Y-118500000D01*
X135000000Y-95500000D01*
D11*
%TO.P,R1,2*%
%TO.N,Net-(Q1-B)*%
X153590000Y-111925000D03*
%TO.P,R1,1*%
%TO.N,/BUZZER_IN*%
X161210000Y-111925000D03*
%TD*%
D12*
%TO.P,J1,3,Pin_3*%
%TO.N,GND*%
X166165000Y-108990000D03*
%TO.P,J1,2,Pin_2*%
%TO.N,/BUZZER_IN*%
X166165000Y-106450000D03*
D13*
%TO.P,J1,1,Pin_1*%
%TO.N,+5V*%
X166165000Y-103910000D03*
%TD*%
D14*
%TO.P,BZ1,1,+*%
%TO.N,+5V*%
X144075000Y-103450000D03*
D15*
%TO.P,BZ1,2,-*%
%TO.N,Net-(BZ1--)*%
X144075000Y-111050000D03*
%TD*%
D16*
%TO.P,Q1,1,B*%
%TO.N,Net-(Q1-B)*%
X158512500Y-106212500D03*
%TO.P,Q1,2,E*%
%TO.N,GND*%
X158512500Y-104312500D03*
%TO.P,Q1,3,C*%
%TO.N,Net-(BZ1--)*%
X156637500Y-105262500D03*
%TD*%
D17*
%TO.N,Net-(BZ1--)*%
X144075000Y-111050000D02*
X149862500Y-105262500D01*
X149862500Y-105262500D02*
X156637500Y-105262500D01*
%TO.N,GND*%
X161487500Y-104312500D02*
X166165000Y-108990000D01*
X158512500Y-104312500D02*
X161487500Y-104312500D01*
%TO.N,Net-(Q1-B)*%
X158512500Y-107002500D02*
X158512500Y-106212500D01*
X153590000Y-111925000D02*
X158512500Y-107002500D01*
%TD*%
%TA.AperFunction,Conductor*%
%TO.N,GND*%
G36*
X169692539Y-98020185D02*
G01*
X169738294Y-98072989D01*
X169749500Y-98124500D01*
X169749500Y-116125500D01*
X169729815Y-116192539D01*
X169677011Y-116238294D01*
X169625500Y-116249500D01*
X137374500Y-116249500D01*
X137307461Y-116229815D01*
X137261706Y-116177011D01*
X137250500Y-116125500D01*
X137250500Y-110931902D01*
X142574500Y-110931902D01*
X142574500Y-111168097D01*
X142611446Y-111401368D01*
X142684433Y-111625996D01*
X142784633Y-111822648D01*
X142791657Y-111836433D01*
X142930483Y-112027510D01*
X143097490Y-112194517D01*
X143288567Y-112333343D01*
X143387991Y-112384002D01*
X143499003Y-112440566D01*
X143499005Y-112440566D01*
X143499008Y-112440568D01*
X143619412Y-112479689D01*
X143723631Y-112513553D01*
X143956903Y-112550500D01*
X143956908Y-112550500D01*
X144193097Y-112550500D01*
X144426368Y-112513553D01*
X144650992Y-112440568D01*
X144861433Y-112333343D01*
X145052510Y-112194517D01*
X145219517Y-112027510D01*
X145358343Y-111836433D01*
X145465568Y-111625992D01*
X145538553Y-111401368D01*
X145575500Y-111168097D01*
X145575500Y-110931902D01*
X145550868Y-110776390D01*
X145538553Y-110698632D01*
X145497547Y-110572433D01*
X145495553Y-110502593D01*
X145527796Y-110446437D01*
X150074916Y-105899319D01*
X150136239Y-105865834D01*
X150162597Y-105863000D01*
X155529192Y-105863000D01*
X155596231Y-105882685D01*
X155616874Y-105899320D01*
X155648129Y-105930576D01*
X155648133Y-105930579D01*
X155648135Y-105930581D01*
X155789602Y-106014244D01*
X155831224Y-106026336D01*
X155947426Y-106060097D01*
X155947429Y-106060097D01*
X155947431Y-106060098D01*
X155984306Y-106063000D01*
X157150500Y-106063000D01*
X157217539Y-106082685D01*
X157263294Y-106135489D01*
X157274500Y-106187000D01*
X157274500Y-106428201D01*
X157277401Y-106465067D01*
X157277402Y-106465073D01*
X157323254Y-106622893D01*
X157323255Y-106622896D01*
X157406917Y-106764362D01*
X157406923Y-106764370D01*
X157523129Y-106880576D01*
X157523132Y-106880578D01*
X157523135Y-106880581D01*
X157550202Y-106896588D01*
X157597885Y-106947656D01*
X157610389Y-107016397D01*
X157583745Y-107080987D01*
X157574762Y-107091001D01*
X154034842Y-110630921D01*
X153973519Y-110664406D01*
X153908848Y-110661173D01*
X153894534Y-110656522D01*
X153719995Y-110628878D01*
X153692352Y-110624500D01*
X153487648Y-110624500D01*
X153463329Y-110628351D01*
X153285465Y-110656522D01*
X153090776Y-110719781D01*
X152908386Y-110812715D01*
X152742786Y-110933028D01*
X152598028Y-111077786D01*
X152477715Y-111243386D01*
X152384781Y-111425776D01*
X152321522Y-111620465D01*
X152289500Y-111822648D01*
X152289500Y-112027351D01*
X152321522Y-112229534D01*
X152384781Y-112424223D01*
X152477715Y-112606613D01*
X152598028Y-112772213D01*
X152742786Y-112916971D01*
X152897749Y-113029556D01*
X152908390Y-113037287D01*
X153024607Y-113096503D01*
X153090776Y-113130218D01*
X153090778Y-113130218D01*
X153090781Y-113130220D01*
X153195137Y-113164127D01*
X153285465Y-113193477D01*
X153386557Y-113209488D01*
X153487648Y-113225500D01*
X153487649Y-113225500D01*
X153692351Y-113225500D01*
X153692352Y-113225500D01*
X153894534Y-113193477D01*
X154089219Y-113130220D01*
X154271610Y-113037287D01*
X154364590Y-112969732D01*
X154437213Y-112916971D01*
X154437215Y-112916968D01*
X154437219Y-112916966D01*
X154581966Y-112772219D01*
X154581968Y-112772215D01*
X154581971Y-112772213D01*
X154634732Y-112699590D01*
X154702287Y-112606610D01*
X154795220Y-112424219D01*
X154858477Y-112229534D01*
X154890500Y-112027352D01*
X154890500Y-111822648D01*
X159909500Y-111822648D01*
X159909500Y-112027351D01*
X159941522Y-112229534D01*
X160004781Y-112424223D01*
X160097715Y-112606613D01*
X160218028Y-112772213D01*
X160362786Y-112916971D01*
X160517749Y-113029556D01*
X160528390Y-113037287D01*
X160644607Y-113096503D01*
X160710776Y-113130218D01*
X160710778Y-113130218D01*
X160710781Y-113130220D01*
X160815137Y-113164127D01*
X160905465Y-113193477D01*
X161006557Y-113209488D01*
X161107648Y-113225500D01*
X161107649Y-113225500D01*
X161312351Y-113225500D01*
X161312352Y-113225500D01*
X161514534Y-113193477D01*
X161709219Y-113130220D01*
X161891610Y-113037287D01*
X161984590Y-112969732D01*
X162057213Y-112916971D01*
X162057215Y-112916968D01*
X162057219Y-112916966D01*
X162201966Y-112772219D01*
X162201968Y-112772215D01*
X162201971Y-112772213D01*
X162254732Y-112699590D01*
X162322287Y-112606610D01*
X162415220Y-112424219D01*
X162478477Y-112229534D01*
X162510500Y-112027352D01*
X162510500Y-111822648D01*
X162478477Y-111620466D01*
X162415220Y-111425781D01*
X162415218Y-111425778D01*
X162415218Y-111425776D01*
X162381503Y-111359607D01*
X162322287Y-111243390D01*
X162267584Y-111168097D01*
X162201971Y-111077786D01*
X162057213Y-110933028D01*
X161891613Y-110812715D01*
X161891612Y-110812714D01*
X161891610Y-110812713D01*
X161834653Y-110783691D01*
X161709223Y-110719781D01*
X161514534Y-110656522D01*
X161339995Y-110628878D01*
X161312352Y-110624500D01*
X161107648Y-110624500D01*
X161083329Y-110628351D01*
X160905465Y-110656522D01*
X160710776Y-110719781D01*
X160528386Y-110812715D01*
X160362786Y-110933028D01*
X160218028Y-111077786D01*
X160097715Y-111243386D01*
X160004781Y-111425776D01*
X159941522Y-111620465D01*
X159909500Y-111822648D01*
X154890500Y-111822648D01*
X154858477Y-111620466D01*
X154853825Y-111606151D01*
X154851832Y-111536312D01*
X154884075Y-111480158D01*
X158881213Y-107483021D01*
X158881216Y-107483020D01*
X158993020Y-107371216D01*
X159043139Y-107284404D01*
X159072077Y-107234285D01*
X159109568Y-107094365D01*
X159111338Y-107089456D01*
X159129003Y-107065306D01*
X159144580Y-107039752D01*
X159149464Y-107037337D01*
X159152590Y-107033064D01*
X159177655Y-107023399D01*
X159197049Y-107013810D01*
X159196485Y-107011866D01*
X159275154Y-106989009D01*
X159360398Y-106964244D01*
X159501865Y-106880581D01*
X159618081Y-106764365D01*
X159701744Y-106622898D01*
X159747598Y-106465069D01*
X159750500Y-106428194D01*
X159750500Y-105996806D01*
X159747598Y-105959931D01*
X159739071Y-105930582D01*
X159701745Y-105802106D01*
X159701744Y-105802103D01*
X159701744Y-105802102D01*
X159618081Y-105660635D01*
X159618079Y-105660633D01*
X159618076Y-105660629D01*
X159501870Y-105544423D01*
X159501862Y-105544417D01*
X159360396Y-105460755D01*
X159360393Y-105460754D01*
X159202573Y-105414902D01*
X159202567Y-105414901D01*
X159165701Y-105412000D01*
X159165694Y-105412000D01*
X157999500Y-105412000D01*
X157990814Y-105409449D01*
X157981853Y-105410738D01*
X157957812Y-105399759D01*
X157932461Y-105392315D01*
X157926533Y-105385474D01*
X157918297Y-105381713D01*
X157904007Y-105359478D01*
X157886706Y-105339511D01*
X157884418Y-105328996D01*
X157880523Y-105322935D01*
X157875500Y-105288000D01*
X157875500Y-105236500D01*
X157895185Y-105169461D01*
X157947989Y-105123706D01*
X157999500Y-105112500D01*
X158262500Y-105112500D01*
X158762500Y-105112500D01*
X159165634Y-105112500D01*
X159165649Y-105112499D01*
X159202489Y-105109600D01*
X159202495Y-105109599D01*
X159360193Y-105063783D01*
X159360196Y-105063782D01*
X159501552Y-104980185D01*
X159501561Y-104980178D01*
X159617678Y-104864061D01*
X159617685Y-104864052D01*
X159701281Y-104722698D01*
X159747100Y-104564986D01*
X159747295Y-104562501D01*
X159747295Y-104562500D01*
X158762500Y-104562500D01*
X158762500Y-105112500D01*
X158262500Y-105112500D01*
X158262500Y-104562500D01*
X157606815Y-104562500D01*
X157543694Y-104545232D01*
X157485396Y-104510755D01*
X157485393Y-104510754D01*
X157327573Y-104464902D01*
X157327567Y-104464901D01*
X157290701Y-104462000D01*
X157290694Y-104462000D01*
X155984306Y-104462000D01*
X155984298Y-104462000D01*
X155947432Y-104464901D01*
X155947426Y-104464902D01*
X155789606Y-104510754D01*
X155789603Y-104510755D01*
X155648137Y-104594417D01*
X155648129Y-104594423D01*
X155616874Y-104625680D01*
X155555552Y-104659166D01*
X155529192Y-104662000D01*
X149949169Y-104662000D01*
X149949153Y-104661999D01*
X149941557Y-104661999D01*
X149783443Y-104661999D01*
X149670255Y-104692328D01*
X149630714Y-104702923D01*
X149617360Y-104710634D01*
X149617357Y-104710635D01*
X149493790Y-104781975D01*
X149493782Y-104781981D01*
X149381978Y-104893786D01*
X144678563Y-109597200D01*
X144617240Y-109630685D01*
X144552564Y-109627450D01*
X144426370Y-109586447D01*
X144193097Y-109549500D01*
X144193092Y-109549500D01*
X143956908Y-109549500D01*
X143956903Y-109549500D01*
X143723631Y-109586446D01*
X143499003Y-109659433D01*
X143288566Y-109766657D01*
X143179550Y-109845862D01*
X143097490Y-109905483D01*
X143097488Y-109905485D01*
X143097487Y-109905485D01*
X142930485Y-110072487D01*
X142930485Y-110072488D01*
X142930483Y-110072490D01*
X142906668Y-110105269D01*
X142791657Y-110263566D01*
X142684433Y-110474003D01*
X142611446Y-110698631D01*
X142574500Y-110931902D01*
X137250500Y-110931902D01*
X137250500Y-102402135D01*
X142574500Y-102402135D01*
X142574500Y-104497870D01*
X142574501Y-104497876D01*
X142580908Y-104557483D01*
X142631202Y-104692328D01*
X142631206Y-104692335D01*
X142717452Y-104807544D01*
X142717455Y-104807547D01*
X142832664Y-104893793D01*
X142832671Y-104893797D01*
X142967517Y-104944091D01*
X142967516Y-104944091D01*
X142974444Y-104944835D01*
X143027127Y-104950500D01*
X145122872Y-104950499D01*
X145182483Y-104944091D01*
X145317331Y-104893796D01*
X145432546Y-104807546D01*
X145518796Y-104692331D01*
X145569091Y-104557483D01*
X145575500Y-104497873D01*
X145575500Y-104062498D01*
X157277704Y-104062498D01*
X157277705Y-104062500D01*
X158262500Y-104062500D01*
X158762500Y-104062500D01*
X159747295Y-104062500D01*
X159747295Y-104062498D01*
X159747100Y-104060013D01*
X159701281Y-103902301D01*
X159617685Y-103760947D01*
X159617678Y-103760938D01*
X159501561Y-103644821D01*
X159501552Y-103644814D01*
X159360196Y-103561217D01*
X159360193Y-103561216D01*
X159202495Y-103515400D01*
X159202489Y-103515399D01*
X159165649Y-103512500D01*
X158762500Y-103512500D01*
X158762500Y-104062500D01*
X158262500Y-104062500D01*
X158262500Y-103512500D01*
X157859350Y-103512500D01*
X157822510Y-103515399D01*
X157822504Y-103515400D01*
X157664806Y-103561216D01*
X157664803Y-103561217D01*
X157523447Y-103644814D01*
X157523438Y-103644821D01*
X157407321Y-103760938D01*
X157407314Y-103760947D01*
X157323718Y-103902301D01*
X157277899Y-104060013D01*
X157277704Y-104062498D01*
X145575500Y-104062498D01*
X145575499Y-103012135D01*
X164814500Y-103012135D01*
X164814500Y-104807870D01*
X164814501Y-104807876D01*
X164820908Y-104867483D01*
X164871202Y-105002328D01*
X164871206Y-105002335D01*
X164957452Y-105117544D01*
X164957455Y-105117547D01*
X165072664Y-105203793D01*
X165072671Y-105203797D01*
X165204082Y-105252810D01*
X165260016Y-105294681D01*
X165284433Y-105360145D01*
X165269582Y-105428418D01*
X165248431Y-105456673D01*
X165134889Y-105570215D01*
X165009951Y-105742179D01*
X164913444Y-105931585D01*
X164847753Y-106133760D01*
X164814500Y-106343713D01*
X164814500Y-106556286D01*
X164847456Y-106764365D01*
X164847754Y-106766243D01*
X164884903Y-106880576D01*
X164913444Y-106968414D01*
X165009951Y-107157820D01*
X165134890Y-107329786D01*
X165285213Y-107480109D01*
X165457179Y-107605048D01*
X165457181Y-107605049D01*
X165457184Y-107605051D01*
X165466493Y-107609794D01*
X165517290Y-107657766D01*
X165534087Y-107725587D01*
X165511552Y-107791722D01*
X165466505Y-107830760D01*
X165457446Y-107835376D01*
X165457440Y-107835380D01*
X165403282Y-107874727D01*
X165403282Y-107874728D01*
X166035591Y-108507037D01*
X165972007Y-108524075D01*
X165857993Y-108589901D01*
X165764901Y-108682993D01*
X165699075Y-108797007D01*
X165682037Y-108860591D01*
X165049728Y-108228282D01*
X165049727Y-108228282D01*
X165010380Y-108282439D01*
X164913904Y-108471782D01*
X164848242Y-108673869D01*
X164848242Y-108673872D01*
X164815000Y-108883753D01*
X164815000Y-109096246D01*
X164848242Y-109306127D01*
X164848242Y-109306130D01*
X164913904Y-109508217D01*
X165010375Y-109697550D01*
X165049728Y-109751716D01*
X165682037Y-109119408D01*
X165699075Y-109182993D01*
X165764901Y-109297007D01*
X165857993Y-109390099D01*
X165972007Y-109455925D01*
X166035590Y-109472962D01*
X165403282Y-110105269D01*
X165403282Y-110105270D01*
X165457449Y-110144624D01*
X165646782Y-110241095D01*
X165848870Y-110306757D01*
X166058754Y-110340000D01*
X166271246Y-110340000D01*
X166481127Y-110306757D01*
X166481130Y-110306757D01*
X166683217Y-110241095D01*
X166872554Y-110144622D01*
X166926716Y-110105270D01*
X166926717Y-110105270D01*
X166294408Y-109472962D01*
X166357993Y-109455925D01*
X166472007Y-109390099D01*
X166565099Y-109297007D01*
X166630925Y-109182993D01*
X166647962Y-109119409D01*
X167280270Y-109751717D01*
X167280270Y-109751716D01*
X167319622Y-109697554D01*
X167416095Y-109508217D01*
X167481757Y-109306130D01*
X167481757Y-109306127D01*
X167515000Y-109096246D01*
X167515000Y-108883753D01*
X167481757Y-108673872D01*
X167481757Y-108673869D01*
X167416095Y-108471782D01*
X167319624Y-108282449D01*
X167280270Y-108228282D01*
X167280269Y-108228282D01*
X166647962Y-108860590D01*
X166630925Y-108797007D01*
X166565099Y-108682993D01*
X166472007Y-108589901D01*
X166357993Y-108524075D01*
X166294409Y-108507037D01*
X166926716Y-107874728D01*
X166872547Y-107835373D01*
X166872547Y-107835372D01*
X166863500Y-107830763D01*
X166812706Y-107782788D01*
X166795912Y-107714966D01*
X166818451Y-107648832D01*
X166863508Y-107609793D01*
X166872816Y-107605051D01*
X167026723Y-107493232D01*
X167044786Y-107480109D01*
X167044788Y-107480106D01*
X167044792Y-107480104D01*
X167195104Y-107329792D01*
X167195106Y-107329788D01*
X167195109Y-107329786D01*
X167320048Y-107157820D01*
X167320047Y-107157820D01*
X167320051Y-107157816D01*
X167416557Y-106968412D01*
X167482246Y-106766243D01*
X167515500Y-106556287D01*
X167515500Y-106343713D01*
X167482246Y-106133757D01*
X167416557Y-105931588D01*
X167320051Y-105742184D01*
X167320049Y-105742181D01*
X167320048Y-105742179D01*
X167195109Y-105570213D01*
X167081569Y-105456673D01*
X167048084Y-105395350D01*
X167053068Y-105325658D01*
X167094940Y-105269725D01*
X167125915Y-105252810D01*
X167257331Y-105203796D01*
X167372546Y-105117546D01*
X167458796Y-105002331D01*
X167509091Y-104867483D01*
X167515500Y-104807873D01*
X167515499Y-103012128D01*
X167509091Y-102952517D01*
X167458796Y-102817669D01*
X167458795Y-102817668D01*
X167458793Y-102817664D01*
X167372547Y-102702455D01*
X167372544Y-102702452D01*
X167257335Y-102616206D01*
X167257328Y-102616202D01*
X167122482Y-102565908D01*
X167122483Y-102565908D01*
X167062883Y-102559501D01*
X167062881Y-102559500D01*
X167062873Y-102559500D01*
X167062864Y-102559500D01*
X165267129Y-102559500D01*
X165267123Y-102559501D01*
X165207516Y-102565908D01*
X165072671Y-102616202D01*
X165072664Y-102616206D01*
X164957455Y-102702452D01*
X164957452Y-102702455D01*
X164871206Y-102817664D01*
X164871202Y-102817671D01*
X164820908Y-102952517D01*
X164814857Y-103008806D01*
X164814501Y-103012123D01*
X164814500Y-103012135D01*
X145575499Y-103012135D01*
X145575499Y-102402128D01*
X145569091Y-102342517D01*
X145518796Y-102207669D01*
X145518795Y-102207668D01*
X145518793Y-102207664D01*
X145432547Y-102092455D01*
X145432544Y-102092452D01*
X145317335Y-102006206D01*
X145317328Y-102006202D01*
X145182482Y-101955908D01*
X145182483Y-101955908D01*
X145122883Y-101949501D01*
X145122881Y-101949500D01*
X145122873Y-101949500D01*
X145122864Y-101949500D01*
X143027129Y-101949500D01*
X143027123Y-101949501D01*
X142967516Y-101955908D01*
X142832671Y-102006202D01*
X142832664Y-102006206D01*
X142717455Y-102092452D01*
X142717452Y-102092455D01*
X142631206Y-102207664D01*
X142631202Y-102207671D01*
X142580908Y-102342517D01*
X142574501Y-102402116D01*
X142574501Y-102402123D01*
X142574500Y-102402135D01*
X137250500Y-102402135D01*
X137250500Y-98124500D01*
X137270185Y-98057461D01*
X137322989Y-98011706D01*
X137374500Y-98000500D01*
X169625500Y-98000500D01*
X169692539Y-98020185D01*
G37*
%TD.AperFunction*%
%TD*%
M02*
