%TF.GenerationSoftware,KiCad,Pcbnew,9.0.3*%
%TF.CreationDate,2026-07-21T12:46:59+05:30*%
%TF.ProjectId,02_Buzzer,30325f42-757a-47a6-9572-2e6b69636164,rev?*%
%TF.SameCoordinates,Original*%
%TF.FileFunction,Copper,L2,Bot*%
%TF.FilePolarity,Positive*%
%FSLAX46Y46*%
G04 Gerber Fmt 4.6, Leading zero omitted, Abs format (unit mm)*
G04 Created by KiCad (PCBNEW 9.0.3) date 2026-07-21 12:46:59*
%MOMM*%
%LPD*%
G01*
G04 APERTURE LIST*
%TA.AperFunction,NonConductor*%
%ADD10C,0.200000*%
%TD*%
%TA.AperFunction,ComponentPad*%
%ADD11C,1.600000*%
%TD*%
%TA.AperFunction,ComponentPad*%
%ADD12C,1.700000*%
%TD*%
%TA.AperFunction,ComponentPad*%
%ADD13R,1.700000X1.700000*%
%TD*%
%TA.AperFunction,ComponentPad*%
%ADD14R,2.000000X2.000000*%
%TD*%
%TA.AperFunction,ComponentPad*%
%ADD15C,2.000000*%
%TD*%
%TA.AperFunction,Conductor*%
%ADD16C,0.200000*%
%TD*%
G04 APERTURE END LIST*
D10*
X136000000Y-96500000D02*
X171000000Y-96500000D01*
X171000000Y-117500000D01*
X136000000Y-117500000D01*
X136000000Y-96500000D01*
D11*
%TO.P,R1,2*%
%TO.N,Net-(Q1-B)*%
X153590000Y-111925000D03*
%TO.P,R1,1*%
%TO.N,/BUZZER_IN*%
X161210000Y-111925000D03*
%TD*%
D12*
%TO.P,J1,3,Pin_3*%
%TO.N,GND*%
X166165000Y-108990000D03*
%TO.P,J1,2,Pin_2*%
%TO.N,/BUZZER_IN*%
X166165000Y-106450000D03*
D13*
%TO.P,J1,1,Pin_1*%
%TO.N,+5V*%
X166165000Y-103910000D03*
%TD*%
D14*
%TO.P,BZ1,1,+*%
%TO.N,+5V*%
X144075000Y-103450000D03*
D15*
%TO.P,BZ1,2,-*%
%TO.N,Net-(BZ1--)*%
X144075000Y-111050000D03*
%TD*%
D16*
%TO.N,/BUZZER_IN*%
X166165000Y-106970000D02*
X166165000Y-106450000D01*
X161210000Y-111925000D02*
X166165000Y-106970000D01*
%TO.N,+5V*%
X166165000Y-102265000D02*
X166165000Y-103910000D01*
X144650000Y-99600000D02*
X163600000Y-99600000D01*
X144075000Y-103450000D02*
X144075000Y-100175000D01*
X144075000Y-100175000D02*
X144650000Y-99600000D01*
X163600000Y-99700000D02*
X166165000Y-102265000D01*
X163600000Y-99600000D02*
X163600000Y-99700000D01*
%TD*%
%TA.AperFunction,Conductor*%
%TO.N,+5V*%
G36*
X169692539Y-98020185D02*
G01*
X169738294Y-98072989D01*
X169749500Y-98124500D01*
X169749500Y-116125500D01*
X169729815Y-116192539D01*
X169677011Y-116238294D01*
X169625500Y-116249500D01*
X137374500Y-116249500D01*
X137307461Y-116229815D01*
X137261706Y-116177011D01*
X137250500Y-116125500D01*
X137250500Y-110931902D01*
X142574500Y-110931902D01*
X142574500Y-111168097D01*
X142611446Y-111401368D01*
X142684433Y-111625996D01*
X142753467Y-111761481D01*
X142791657Y-111836433D01*
X142930483Y-112027510D01*
X143097490Y-112194517D01*
X143288567Y-112333343D01*
X143387991Y-112384002D01*
X143499003Y-112440566D01*
X143499005Y-112440566D01*
X143499008Y-112440568D01*
X143619412Y-112479689D01*
X143723631Y-112513553D01*
X143956903Y-112550500D01*
X143956908Y-112550500D01*
X144193097Y-112550500D01*
X144426368Y-112513553D01*
X144650992Y-112440568D01*
X144861433Y-112333343D01*
X145052510Y-112194517D01*
X145219517Y-112027510D01*
X145358343Y-111836433D01*
X145365367Y-111822648D01*
X152289500Y-111822648D01*
X152289500Y-112027351D01*
X152321522Y-112229534D01*
X152384781Y-112424223D01*
X152477715Y-112606613D01*
X152598028Y-112772213D01*
X152742786Y-112916971D01*
X152897749Y-113029556D01*
X152908390Y-113037287D01*
X153024607Y-113096503D01*
X153090776Y-113130218D01*
X153090778Y-113130218D01*
X153090781Y-113130220D01*
X153195137Y-113164127D01*
X153285465Y-113193477D01*
X153386557Y-113209488D01*
X153487648Y-113225500D01*
X153487649Y-113225500D01*
X153692351Y-113225500D01*
X153692352Y-113225500D01*
X153894534Y-113193477D01*
X154089219Y-113130220D01*
X154271610Y-113037287D01*
X154364590Y-112969732D01*
X154437213Y-112916971D01*
X154437215Y-112916968D01*
X154437219Y-112916966D01*
X154581966Y-112772219D01*
X154581968Y-112772215D01*
X154581971Y-112772213D01*
X154634732Y-112699590D01*
X154702287Y-112606610D01*
X154795220Y-112424219D01*
X154858477Y-112229534D01*
X154890500Y-112027352D01*
X154890500Y-111822648D01*
X159909500Y-111822648D01*
X159909500Y-112027351D01*
X159941522Y-112229534D01*
X160004781Y-112424223D01*
X160097715Y-112606613D01*
X160218028Y-112772213D01*
X160362786Y-112916971D01*
X160517749Y-113029556D01*
X160528390Y-113037287D01*
X160644607Y-113096503D01*
X160710776Y-113130218D01*
X160710778Y-113130218D01*
X160710781Y-113130220D01*
X160815137Y-113164127D01*
X160905465Y-113193477D01*
X161006557Y-113209488D01*
X161107648Y-113225500D01*
X161107649Y-113225500D01*
X161312351Y-113225500D01*
X161312352Y-113225500D01*
X161514534Y-113193477D01*
X161709219Y-113130220D01*
X161891610Y-113037287D01*
X161984590Y-112969732D01*
X162057213Y-112916971D01*
X162057215Y-112916968D01*
X162057219Y-112916966D01*
X162201966Y-112772219D01*
X162201968Y-112772215D01*
X162201971Y-112772213D01*
X162254732Y-112699590D01*
X162322287Y-112606610D01*
X162415220Y-112424219D01*
X162478477Y-112229534D01*
X162510500Y-112027352D01*
X162510500Y-111822648D01*
X162478477Y-111620466D01*
X162473825Y-111606151D01*
X162471832Y-111536312D01*
X162504075Y-111480158D01*
X164663041Y-109321192D01*
X164724362Y-109287709D01*
X164794054Y-109292693D01*
X164849987Y-109334565D01*
X164868651Y-109370557D01*
X164913444Y-109508414D01*
X165009951Y-109697820D01*
X165134890Y-109869786D01*
X165285213Y-110020109D01*
X165457179Y-110145048D01*
X165457181Y-110145049D01*
X165457184Y-110145051D01*
X165646588Y-110241557D01*
X165848757Y-110307246D01*
X166058713Y-110340500D01*
X166058714Y-110340500D01*
X166271286Y-110340500D01*
X166271287Y-110340500D01*
X166481243Y-110307246D01*
X166683412Y-110241557D01*
X166872816Y-110145051D01*
X166894789Y-110129086D01*
X167044786Y-110020109D01*
X167044788Y-110020106D01*
X167044792Y-110020104D01*
X167195104Y-109869792D01*
X167195106Y-109869788D01*
X167195109Y-109869786D01*
X167320048Y-109697820D01*
X167320047Y-109697820D01*
X167320051Y-109697816D01*
X167416557Y-109508412D01*
X167482246Y-109306243D01*
X167515500Y-109096287D01*
X167515500Y-108883713D01*
X167482246Y-108673757D01*
X167416557Y-108471588D01*
X167320051Y-108282184D01*
X167320049Y-108282181D01*
X167320048Y-108282179D01*
X167195109Y-108110213D01*
X167044786Y-107959890D01*
X166872820Y-107834951D01*
X166872115Y-107834591D01*
X166864054Y-107830485D01*
X166813259Y-107782512D01*
X166796463Y-107714692D01*
X166818999Y-107648556D01*
X166864054Y-107609515D01*
X166872816Y-107605051D01*
X166894789Y-107589086D01*
X167044786Y-107480109D01*
X167044788Y-107480106D01*
X167044792Y-107480104D01*
X167195104Y-107329792D01*
X167195106Y-107329788D01*
X167195109Y-107329786D01*
X167320048Y-107157820D01*
X167320047Y-107157820D01*
X167320051Y-107157816D01*
X167416557Y-106968412D01*
X167482246Y-106766243D01*
X167515500Y-106556287D01*
X167515500Y-106343713D01*
X167482246Y-106133757D01*
X167416557Y-105931588D01*
X167320051Y-105742184D01*
X167320049Y-105742181D01*
X167320048Y-105742179D01*
X167195109Y-105570213D01*
X167081181Y-105456285D01*
X167047696Y-105394962D01*
X167052680Y-105325270D01*
X167094552Y-105269337D01*
X167125529Y-105252422D01*
X167257086Y-105203354D01*
X167257093Y-105203350D01*
X167372187Y-105117190D01*
X167372190Y-105117187D01*
X167458350Y-105002093D01*
X167458354Y-105002086D01*
X167508596Y-104867379D01*
X167508598Y-104867372D01*
X167514999Y-104807844D01*
X167515000Y-104807827D01*
X167515000Y-104160000D01*
X166598012Y-104160000D01*
X166630925Y-104102993D01*
X166665000Y-103975826D01*
X166665000Y-103844174D01*
X166630925Y-103717007D01*
X166598012Y-103660000D01*
X167515000Y-103660000D01*
X167515000Y-103012172D01*
X167514999Y-103012155D01*
X167508598Y-102952627D01*
X167508596Y-102952620D01*
X167458354Y-102817913D01*
X167458350Y-102817906D01*
X167372190Y-102702812D01*
X167372187Y-102702809D01*
X167257093Y-102616649D01*
X167257086Y-102616645D01*
X167122379Y-102566403D01*
X167122372Y-102566401D01*
X167062844Y-102560000D01*
X166415000Y-102560000D01*
X166415000Y-103476988D01*
X166357993Y-103444075D01*
X166230826Y-103410000D01*
X166099174Y-103410000D01*
X165972007Y-103444075D01*
X165915000Y-103476988D01*
X165915000Y-102560000D01*
X165267155Y-102560000D01*
X165207627Y-102566401D01*
X165207620Y-102566403D01*
X165072913Y-102616645D01*
X165072906Y-102616649D01*
X164957812Y-102702809D01*
X164957809Y-102702812D01*
X164871649Y-102817906D01*
X164871645Y-102817913D01*
X164821403Y-102952620D01*
X164821401Y-102952627D01*
X164815000Y-103012155D01*
X164815000Y-103660000D01*
X165731988Y-103660000D01*
X165699075Y-103717007D01*
X165665000Y-103844174D01*
X165665000Y-103975826D01*
X165699075Y-104102993D01*
X165731988Y-104160000D01*
X164815000Y-104160000D01*
X164815000Y-104807844D01*
X164821401Y-104867372D01*
X164821403Y-104867379D01*
X164871645Y-105002086D01*
X164871649Y-105002093D01*
X164957809Y-105117187D01*
X164957812Y-105117190D01*
X165072906Y-105203350D01*
X165072913Y-105203354D01*
X165204470Y-105252422D01*
X165260404Y-105294293D01*
X165284821Y-105359758D01*
X165269969Y-105428031D01*
X165248819Y-105456285D01*
X165134889Y-105570215D01*
X165009951Y-105742179D01*
X164913444Y-105931585D01*
X164847753Y-106133760D01*
X164814500Y-106343713D01*
X164814500Y-106556287D01*
X164847754Y-106766243D01*
X164913443Y-106968412D01*
X165008878Y-107155714D01*
X165021774Y-107224382D01*
X164995498Y-107289123D01*
X164986074Y-107299689D01*
X161654842Y-110630921D01*
X161593519Y-110664406D01*
X161528848Y-110661173D01*
X161514534Y-110656522D01*
X161339995Y-110628878D01*
X161312352Y-110624500D01*
X161107648Y-110624500D01*
X161083329Y-110628351D01*
X160905465Y-110656522D01*
X160710776Y-110719781D01*
X160528386Y-110812715D01*
X160362786Y-110933028D01*
X160218028Y-111077786D01*
X160097715Y-111243386D01*
X160004781Y-111425776D01*
X159941522Y-111620465D01*
X159909500Y-111822648D01*
X154890500Y-111822648D01*
X154858477Y-111620466D01*
X154795220Y-111425781D01*
X154795218Y-111425778D01*
X154795218Y-111425776D01*
X154761503Y-111359607D01*
X154702287Y-111243390D01*
X154647584Y-111168097D01*
X154581971Y-111077786D01*
X154437213Y-110933028D01*
X154271613Y-110812715D01*
X154271612Y-110812714D01*
X154271610Y-110812713D01*
X154214653Y-110783691D01*
X154089223Y-110719781D01*
X153894534Y-110656522D01*
X153719995Y-110628878D01*
X153692352Y-110624500D01*
X153487648Y-110624500D01*
X153463329Y-110628351D01*
X153285465Y-110656522D01*
X153090776Y-110719781D01*
X152908386Y-110812715D01*
X152742786Y-110933028D01*
X152598028Y-111077786D01*
X152477715Y-111243386D01*
X152384781Y-111425776D01*
X152321522Y-111620465D01*
X152289500Y-111822648D01*
X145365367Y-111822648D01*
X145465568Y-111625992D01*
X145538553Y-111401368D01*
X145575500Y-111168097D01*
X145575500Y-110931902D01*
X145538553Y-110698631D01*
X145465566Y-110474003D01*
X145397542Y-110340500D01*
X145358343Y-110263567D01*
X145219517Y-110072490D01*
X145052510Y-109905483D01*
X144861433Y-109766657D01*
X144650996Y-109659433D01*
X144426368Y-109586446D01*
X144193097Y-109549500D01*
X144193092Y-109549500D01*
X143956908Y-109549500D01*
X143956903Y-109549500D01*
X143723631Y-109586446D01*
X143499003Y-109659433D01*
X143288566Y-109766657D01*
X143179550Y-109845862D01*
X143097490Y-109905483D01*
X143097488Y-109905485D01*
X143097487Y-109905485D01*
X142930485Y-110072487D01*
X142930485Y-110072488D01*
X142930483Y-110072490D01*
X142877766Y-110145048D01*
X142791657Y-110263566D01*
X142684433Y-110474003D01*
X142611446Y-110698631D01*
X142574500Y-110931902D01*
X137250500Y-110931902D01*
X137250500Y-102402155D01*
X142575000Y-102402155D01*
X142575000Y-103200000D01*
X143641988Y-103200000D01*
X143609075Y-103257007D01*
X143575000Y-103384174D01*
X143575000Y-103515826D01*
X143609075Y-103642993D01*
X143641988Y-103700000D01*
X142575000Y-103700000D01*
X142575000Y-104497844D01*
X142581401Y-104557372D01*
X142581403Y-104557379D01*
X142631645Y-104692086D01*
X142631649Y-104692093D01*
X142717809Y-104807187D01*
X142717812Y-104807190D01*
X142832906Y-104893350D01*
X142832913Y-104893354D01*
X142967620Y-104943596D01*
X142967627Y-104943598D01*
X143027155Y-104949999D01*
X143027172Y-104950000D01*
X143825000Y-104950000D01*
X143825000Y-103883012D01*
X143882007Y-103915925D01*
X144009174Y-103950000D01*
X144140826Y-103950000D01*
X144267993Y-103915925D01*
X144325000Y-103883012D01*
X144325000Y-104950000D01*
X145122828Y-104950000D01*
X145122844Y-104949999D01*
X145182372Y-104943598D01*
X145182379Y-104943596D01*
X145317086Y-104893354D01*
X145317093Y-104893350D01*
X145432187Y-104807190D01*
X145432190Y-104807187D01*
X145518350Y-104692093D01*
X145518354Y-104692086D01*
X145568596Y-104557379D01*
X145568598Y-104557372D01*
X145574999Y-104497844D01*
X145575000Y-104497827D01*
X145575000Y-103700000D01*
X144508012Y-103700000D01*
X144540925Y-103642993D01*
X144575000Y-103515826D01*
X144575000Y-103384174D01*
X144540925Y-103257007D01*
X144508012Y-103200000D01*
X145575000Y-103200000D01*
X145575000Y-102402172D01*
X145574999Y-102402155D01*
X145568598Y-102342627D01*
X145568596Y-102342620D01*
X145518354Y-102207913D01*
X145518350Y-102207906D01*
X145432190Y-102092812D01*
X145432187Y-102092809D01*
X145317093Y-102006649D01*
X145317086Y-102006645D01*
X145182379Y-101956403D01*
X145182372Y-101956401D01*
X145122844Y-101950000D01*
X144325000Y-101950000D01*
X144325000Y-103016988D01*
X144267993Y-102984075D01*
X144140826Y-102950000D01*
X144009174Y-102950000D01*
X143882007Y-102984075D01*
X143825000Y-103016988D01*
X143825000Y-101950000D01*
X143027155Y-101950000D01*
X142967627Y-101956401D01*
X142967620Y-101956403D01*
X142832913Y-102006645D01*
X142832906Y-102006649D01*
X142717812Y-102092809D01*
X142717809Y-102092812D01*
X142631649Y-102207906D01*
X142631645Y-102207913D01*
X142581403Y-102342620D01*
X142581401Y-102342627D01*
X142575000Y-102402155D01*
X137250500Y-102402155D01*
X137250500Y-98124500D01*
X137270185Y-98057461D01*
X137322989Y-98011706D01*
X137374500Y-98000500D01*
X169625500Y-98000500D01*
X169692539Y-98020185D01*
G37*
%TD.AperFunction*%
%TD*%
M02*
