%TF.GenerationSoftware,KiCad,Pcbnew,9.0.3*%
%TF.CreationDate,2026-07-30T12:44:28+05:30*%
%TF.ProjectId,10_OpAmp_Demonstration_Board,31305f4f-7041-46d7-905f-44656d6f6e73,rev?*%
%TF.SameCoordinates,Original*%
%TF.FileFunction,Copper,L1,Top*%
%TF.FilePolarity,Positive*%
%FSLAX46Y46*%
G04 Gerber Fmt 4.6, Leading zero omitted, Abs format (unit mm)*
G04 Created by KiCad (PCBNEW 9.0.3) date 2026-07-30 12:44:28*
%MOMM*%
%LPD*%
G01*
G04 APERTURE LIST*
G04 Aperture macros list*
%AMRoundRect*
0 Rectangle with rounded corners*
0 $1 Rounding radius*
0 $2 $3 $4 $5 $6 $7 $8 $9 X,Y pos of 4 corners*
0 Add a 4 corners polygon primitive as box body*
4,1,4,$2,$3,$4,$5,$6,$7,$8,$9,$2,$3,0*
0 Add four circle primitives for the rounded corners*
1,1,$1+$1,$2,$3*
1,1,$1+$1,$4,$5*
1,1,$1+$1,$6,$7*
1,1,$1+$1,$8,$9*
0 Add four rect primitives between the rounded corners*
20,1,$1+$1,$2,$3,$4,$5,0*
20,1,$1+$1,$4,$5,$6,$7,0*
20,1,$1+$1,$6,$7,$8,$9,0*
20,1,$1+$1,$8,$9,$2,$3,0*%
G04 Aperture macros list end*
%TA.AperFunction,NonConductor*%
%ADD10C,0.200000*%
%TD*%
%TA.AperFunction,ComponentPad*%
%ADD11RoundRect,0.250000X-0.550000X-0.550000X0.550000X-0.550000X0.550000X0.550000X-0.550000X0.550000X0*%
%TD*%
%TA.AperFunction,ComponentPad*%
%ADD12C,1.600000*%
%TD*%
%TA.AperFunction,ComponentPad*%
%ADD13R,1.700000X1.700000*%
%TD*%
%TA.AperFunction,ComponentPad*%
%ADD14C,1.700000*%
%TD*%
%TA.AperFunction,Conductor*%
%ADD15C,0.200000*%
%TD*%
G04 APERTURE END LIST*
D10*
X143500000Y-90000000D02*
X184000000Y-90000000D01*
X184000000Y-116500000D01*
X143500000Y-116500000D01*
X143500000Y-90000000D01*
D11*
%TO.P,U1,1*%
%TO.N,/VOUT_INV*%
X160330000Y-97960000D03*
D12*
%TO.P,U1,2,-*%
%TO.N,Net-(U1A--)*%
X160330000Y-100500000D03*
%TO.P,U1,3,+*%
%TO.N,GND*%
X160330000Y-103040000D03*
%TO.P,U1,4,V-*%
X160330000Y-105580000D03*
%TO.P,U1,5,+*%
%TO.N,/VIN_NONINV*%
X167950000Y-105580000D03*
%TO.P,U1,6,-*%
%TO.N,Net-(U1B--)*%
X167950000Y-103040000D03*
%TO.P,U1,7*%
%TO.N,/VOUT_NONINV*%
X167950000Y-100500000D03*
%TO.P,U1,8,V+*%
%TO.N,+5V*%
X167950000Y-97960000D03*
%TD*%
%TO.P,R4,1*%
%TO.N,Net-(U1B--)*%
X170340000Y-110500000D03*
%TO.P,R4,2*%
%TO.N,GND*%
X177960000Y-110500000D03*
%TD*%
%TO.P,R3,1*%
%TO.N,/VOUT_NONINV*%
X172300000Y-98540000D03*
%TO.P,R3,2*%
%TO.N,Net-(U1B--)*%
X172300000Y-106160000D03*
%TD*%
%TO.P,R2,1*%
%TO.N,Net-(U1A--)*%
X155725000Y-106735000D03*
%TO.P,R2,2*%
%TO.N,/VOUT_INV*%
X155725000Y-99115000D03*
%TD*%
%TO.P,R1,1*%
%TO.N,/VIN_INV*%
X151855000Y-110425000D03*
%TO.P,R1,2*%
%TO.N,Net-(U1A--)*%
X159475000Y-110425000D03*
%TD*%
D13*
%TO.P,J4,1,Pin_1*%
%TO.N,/VOUT_NONINV*%
X177600000Y-95825000D03*
D14*
%TO.P,J4,2,Pin_2*%
%TO.N,GND*%
X177600000Y-98365000D03*
%TD*%
D13*
%TO.P,J3,1,Pin_1*%
%TO.N,/VIN_NONINV*%
X177450000Y-103425000D03*
D14*
%TO.P,J3,2,Pin_2*%
%TO.N,GND*%
X177450000Y-105965000D03*
%TD*%
D13*
%TO.P,J2,1,Pin_1*%
%TO.N,/VOUT_INV*%
X149850000Y-96625000D03*
D14*
%TO.P,J2,2,Pin_2*%
%TO.N,GND*%
X149850000Y-99165000D03*
%TD*%
D13*
%TO.P,J1,1,Pin_1*%
%TO.N,/VIN_INV*%
X150125000Y-106825000D03*
D14*
%TO.P,J1,2,Pin_2*%
%TO.N,GND*%
X150125000Y-104285000D03*
%TD*%
D12*
%TO.P,C1,1*%
%TO.N,+5V*%
X167800000Y-110500000D03*
%TO.P,C1,2*%
%TO.N,GND*%
X162800000Y-110500000D03*
%TD*%
D15*
%TO.N,Net-(U1A--)*%
X155725000Y-105105000D02*
X160330000Y-100500000D01*
X155725000Y-106735000D02*
X155725000Y-105105000D01*
%TO.N,Net-(U1B--)*%
X169180000Y-103040000D02*
X172300000Y-106160000D01*
X167950000Y-103040000D02*
X169180000Y-103040000D01*
%TD*%
%TA.AperFunction,Conductor*%
%TO.N,/VIN_INV*%
G36*
X181442539Y-92520185D02*
G01*
X181488294Y-92572989D01*
X181499500Y-92624500D01*
X181499500Y-113875500D01*
X181479815Y-113942539D01*
X181427011Y-113988294D01*
X181375500Y-113999500D01*
X146124500Y-113999500D01*
X146057461Y-113979815D01*
X146011706Y-113927011D01*
X146000500Y-113875500D01*
X146000500Y-110322682D01*
X150555000Y-110322682D01*
X150555000Y-110527317D01*
X150587009Y-110729417D01*
X150650244Y-110924031D01*
X150743141Y-111106350D01*
X150743147Y-111106359D01*
X150775523Y-111150921D01*
X150775524Y-111150922D01*
X151455000Y-110471446D01*
X151455000Y-110477661D01*
X151482259Y-110579394D01*
X151534920Y-110670606D01*
X151609394Y-110745080D01*
X151700606Y-110797741D01*
X151802339Y-110825000D01*
X151808553Y-110825000D01*
X151129076Y-111504474D01*
X151173650Y-111536859D01*
X151355968Y-111629755D01*
X151550582Y-111692990D01*
X151752683Y-111725000D01*
X151957317Y-111725000D01*
X152159417Y-111692990D01*
X152354031Y-111629755D01*
X152536349Y-111536859D01*
X152580921Y-111504474D01*
X151901447Y-110825000D01*
X151907661Y-110825000D01*
X152009394Y-110797741D01*
X152100606Y-110745080D01*
X152175080Y-110670606D01*
X152227741Y-110579394D01*
X152255000Y-110477661D01*
X152255000Y-110471448D01*
X152934474Y-111150922D01*
X152934474Y-111150921D01*
X152966859Y-111106349D01*
X153059755Y-110924031D01*
X153122990Y-110729417D01*
X153155000Y-110527317D01*
X153155000Y-110322682D01*
X153154995Y-110322648D01*
X158174500Y-110322648D01*
X158174500Y-110527351D01*
X158206522Y-110729534D01*
X158269781Y-110924223D01*
X158327817Y-111038123D01*
X158362585Y-111106359D01*
X158362715Y-111106613D01*
X158483028Y-111272213D01*
X158627786Y-111416971D01*
X158731010Y-111491966D01*
X158793390Y-111537287D01*
X158909607Y-111596503D01*
X158975776Y-111630218D01*
X158975778Y-111630218D01*
X158975781Y-111630220D01*
X159080137Y-111664127D01*
X159170465Y-111693477D01*
X159244607Y-111705220D01*
X159372648Y-111725500D01*
X159372649Y-111725500D01*
X159577351Y-111725500D01*
X159577352Y-111725500D01*
X159779534Y-111693477D01*
X159974219Y-111630220D01*
X160156610Y-111537287D01*
X160249590Y-111469732D01*
X160322213Y-111416971D01*
X160322215Y-111416968D01*
X160322219Y-111416966D01*
X160466966Y-111272219D01*
X160466968Y-111272215D01*
X160466971Y-111272213D01*
X160532794Y-111181614D01*
X160587287Y-111106610D01*
X160680220Y-110924219D01*
X160743477Y-110729534D01*
X160775500Y-110527352D01*
X160775500Y-110397648D01*
X161499500Y-110397648D01*
X161499500Y-110602351D01*
X161531522Y-110804534D01*
X161594781Y-110999223D01*
X161687715Y-111181613D01*
X161808028Y-111347213D01*
X161952786Y-111491971D01*
X162107749Y-111604556D01*
X162118390Y-111612287D01*
X162234607Y-111671503D01*
X162300776Y-111705218D01*
X162300778Y-111705218D01*
X162300781Y-111705220D01*
X162405137Y-111739127D01*
X162495465Y-111768477D01*
X162596557Y-111784488D01*
X162697648Y-111800500D01*
X162697649Y-111800500D01*
X162902351Y-111800500D01*
X162902352Y-111800500D01*
X163104534Y-111768477D01*
X163299219Y-111705220D01*
X163481610Y-111612287D01*
X163574590Y-111544732D01*
X163647213Y-111491971D01*
X163647215Y-111491968D01*
X163647219Y-111491966D01*
X163791966Y-111347219D01*
X163791968Y-111347215D01*
X163791971Y-111347213D01*
X163846461Y-111272213D01*
X163912287Y-111181610D01*
X164005220Y-110999219D01*
X164068477Y-110804534D01*
X164100500Y-110602352D01*
X164100500Y-110397648D01*
X166499500Y-110397648D01*
X166499500Y-110602351D01*
X166531522Y-110804534D01*
X166594781Y-110999223D01*
X166687715Y-111181613D01*
X166808028Y-111347213D01*
X166952786Y-111491971D01*
X167107749Y-111604556D01*
X167118390Y-111612287D01*
X167234607Y-111671503D01*
X167300776Y-111705218D01*
X167300778Y-111705218D01*
X167300781Y-111705220D01*
X167405137Y-111739127D01*
X167495465Y-111768477D01*
X167596557Y-111784488D01*
X167697648Y-111800500D01*
X167697649Y-111800500D01*
X167902351Y-111800500D01*
X167902352Y-111800500D01*
X168104534Y-111768477D01*
X168299219Y-111705220D01*
X168481610Y-111612287D01*
X168574590Y-111544732D01*
X168647213Y-111491971D01*
X168647215Y-111491968D01*
X168647219Y-111491966D01*
X168791966Y-111347219D01*
X168791968Y-111347215D01*
X168791971Y-111347213D01*
X168912284Y-111181614D01*
X168912285Y-111181613D01*
X168912287Y-111181610D01*
X168959516Y-111088917D01*
X169007489Y-111038123D01*
X169075310Y-111021328D01*
X169141445Y-111043865D01*
X169180485Y-111088919D01*
X169227715Y-111181614D01*
X169348028Y-111347213D01*
X169492786Y-111491971D01*
X169647749Y-111604556D01*
X169658390Y-111612287D01*
X169774607Y-111671503D01*
X169840776Y-111705218D01*
X169840778Y-111705218D01*
X169840781Y-111705220D01*
X169945137Y-111739127D01*
X170035465Y-111768477D01*
X170136557Y-111784488D01*
X170237648Y-111800500D01*
X170237649Y-111800500D01*
X170442351Y-111800500D01*
X170442352Y-111800500D01*
X170644534Y-111768477D01*
X170839219Y-111705220D01*
X171021610Y-111612287D01*
X171114590Y-111544732D01*
X171187213Y-111491971D01*
X171187215Y-111491968D01*
X171187219Y-111491966D01*
X171331966Y-111347219D01*
X171331968Y-111347215D01*
X171331971Y-111347213D01*
X171386461Y-111272213D01*
X171452287Y-111181610D01*
X171545220Y-110999219D01*
X171608477Y-110804534D01*
X171640500Y-110602352D01*
X171640500Y-110397648D01*
X176659500Y-110397648D01*
X176659500Y-110602351D01*
X176691522Y-110804534D01*
X176754781Y-110999223D01*
X176847715Y-111181613D01*
X176968028Y-111347213D01*
X177112786Y-111491971D01*
X177267749Y-111604556D01*
X177278390Y-111612287D01*
X177394607Y-111671503D01*
X177460776Y-111705218D01*
X177460778Y-111705218D01*
X177460781Y-111705220D01*
X177565137Y-111739127D01*
X177655465Y-111768477D01*
X177756557Y-111784488D01*
X177857648Y-111800500D01*
X177857649Y-111800500D01*
X178062351Y-111800500D01*
X178062352Y-111800500D01*
X178264534Y-111768477D01*
X178459219Y-111705220D01*
X178641610Y-111612287D01*
X178734590Y-111544732D01*
X178807213Y-111491971D01*
X178807215Y-111491968D01*
X178807219Y-111491966D01*
X178951966Y-111347219D01*
X178951968Y-111347215D01*
X178951971Y-111347213D01*
X179006461Y-111272213D01*
X179072287Y-111181610D01*
X179165220Y-110999219D01*
X179228477Y-110804534D01*
X179260500Y-110602352D01*
X179260500Y-110397648D01*
X179228477Y-110195466D01*
X179165220Y-110000781D01*
X179165218Y-110000778D01*
X179165218Y-110000776D01*
X179127101Y-109925968D01*
X179072287Y-109818390D01*
X179017986Y-109743650D01*
X178951971Y-109652786D01*
X178807213Y-109508028D01*
X178641613Y-109387715D01*
X178641612Y-109387714D01*
X178641610Y-109387713D01*
X178558808Y-109345523D01*
X178459223Y-109294781D01*
X178264534Y-109231522D01*
X178089995Y-109203878D01*
X178062352Y-109199500D01*
X177857648Y-109199500D01*
X177833329Y-109203351D01*
X177655465Y-109231522D01*
X177460776Y-109294781D01*
X177278386Y-109387715D01*
X177112786Y-109508028D01*
X176968028Y-109652786D01*
X176847715Y-109818386D01*
X176754781Y-110000776D01*
X176691522Y-110195465D01*
X176659500Y-110397648D01*
X171640500Y-110397648D01*
X171608477Y-110195466D01*
X171545220Y-110000781D01*
X171545218Y-110000778D01*
X171545218Y-110000776D01*
X171507101Y-109925968D01*
X171452287Y-109818390D01*
X171397986Y-109743650D01*
X171331971Y-109652786D01*
X171187213Y-109508028D01*
X171021613Y-109387715D01*
X171021612Y-109387714D01*
X171021610Y-109387713D01*
X170938808Y-109345523D01*
X170839223Y-109294781D01*
X170644534Y-109231522D01*
X170469995Y-109203878D01*
X170442352Y-109199500D01*
X170237648Y-109199500D01*
X170213329Y-109203351D01*
X170035465Y-109231522D01*
X169840776Y-109294781D01*
X169658386Y-109387715D01*
X169492786Y-109508028D01*
X169348028Y-109652786D01*
X169227715Y-109818386D01*
X169180485Y-109911080D01*
X169132510Y-109961876D01*
X169064689Y-109978671D01*
X168998554Y-109956134D01*
X168959515Y-109911080D01*
X168958883Y-109909840D01*
X168912287Y-109818390D01*
X168857986Y-109743650D01*
X168791971Y-109652786D01*
X168647213Y-109508028D01*
X168481613Y-109387715D01*
X168481612Y-109387714D01*
X168481610Y-109387713D01*
X168398808Y-109345523D01*
X168299223Y-109294781D01*
X168104534Y-109231522D01*
X167929995Y-109203878D01*
X167902352Y-109199500D01*
X167697648Y-109199500D01*
X167673329Y-109203351D01*
X167495465Y-109231522D01*
X167300776Y-109294781D01*
X167118386Y-109387715D01*
X166952786Y-109508028D01*
X166808028Y-109652786D01*
X166687715Y-109818386D01*
X166594781Y-110000776D01*
X166531522Y-110195465D01*
X166499500Y-110397648D01*
X164100500Y-110397648D01*
X164068477Y-110195466D01*
X164005220Y-110000781D01*
X164005218Y-110000778D01*
X164005218Y-110000776D01*
X163967101Y-109925968D01*
X163912287Y-109818390D01*
X163857986Y-109743650D01*
X163791971Y-109652786D01*
X163647213Y-109508028D01*
X163481613Y-109387715D01*
X163481612Y-109387714D01*
X163481610Y-109387713D01*
X163398808Y-109345523D01*
X163299223Y-109294781D01*
X163104534Y-109231522D01*
X162929995Y-109203878D01*
X162902352Y-109199500D01*
X162697648Y-109199500D01*
X162673329Y-109203351D01*
X162495465Y-109231522D01*
X162300776Y-109294781D01*
X162118386Y-109387715D01*
X161952786Y-109508028D01*
X161808028Y-109652786D01*
X161687715Y-109818386D01*
X161594781Y-110000776D01*
X161531522Y-110195465D01*
X161499500Y-110397648D01*
X160775500Y-110397648D01*
X160775500Y-110322648D01*
X160755356Y-110195465D01*
X160743477Y-110120465D01*
X160690082Y-109956134D01*
X160680220Y-109925781D01*
X160680218Y-109925778D01*
X160680218Y-109925776D01*
X160587419Y-109743650D01*
X160587287Y-109743390D01*
X160555092Y-109699077D01*
X160466971Y-109577786D01*
X160322213Y-109433028D01*
X160156613Y-109312715D01*
X160156612Y-109312714D01*
X160156610Y-109312713D01*
X160099653Y-109283691D01*
X159974223Y-109219781D01*
X159779534Y-109156522D01*
X159604995Y-109128878D01*
X159577352Y-109124500D01*
X159372648Y-109124500D01*
X159348329Y-109128351D01*
X159170465Y-109156522D01*
X158975776Y-109219781D01*
X158793386Y-109312715D01*
X158627786Y-109433028D01*
X158483028Y-109577786D01*
X158362715Y-109743386D01*
X158269781Y-109925776D01*
X158206522Y-110120465D01*
X158174500Y-110322648D01*
X153154995Y-110322648D01*
X153122990Y-110120582D01*
X153059755Y-109925968D01*
X152966859Y-109743650D01*
X152934474Y-109699077D01*
X152934474Y-109699076D01*
X152255000Y-110378551D01*
X152255000Y-110372339D01*
X152227741Y-110270606D01*
X152175080Y-110179394D01*
X152100606Y-110104920D01*
X152009394Y-110052259D01*
X151907661Y-110025000D01*
X151901446Y-110025000D01*
X152580922Y-109345524D01*
X152580921Y-109345523D01*
X152536359Y-109313147D01*
X152536350Y-109313141D01*
X152354031Y-109220244D01*
X152159417Y-109157009D01*
X151957317Y-109125000D01*
X151752683Y-109125000D01*
X151550582Y-109157009D01*
X151355968Y-109220244D01*
X151173644Y-109313143D01*
X151129077Y-109345523D01*
X151129077Y-109345524D01*
X151808554Y-110025000D01*
X151802339Y-110025000D01*
X151700606Y-110052259D01*
X151609394Y-110104920D01*
X151534920Y-110179394D01*
X151482259Y-110270606D01*
X151455000Y-110372339D01*
X151455000Y-110378553D01*
X150775524Y-109699077D01*
X150775523Y-109699077D01*
X150743143Y-109743644D01*
X150650244Y-109925968D01*
X150587009Y-110120582D01*
X150555000Y-110322682D01*
X146000500Y-110322682D01*
X146000500Y-104178713D01*
X148774500Y-104178713D01*
X148774500Y-104391286D01*
X148794463Y-104517331D01*
X148807754Y-104601243D01*
X148867764Y-104785935D01*
X148873444Y-104803414D01*
X148969951Y-104992820D01*
X149094890Y-105164786D01*
X149208818Y-105278714D01*
X149242303Y-105340037D01*
X149237319Y-105409729D01*
X149195447Y-105465662D01*
X149164471Y-105482577D01*
X149032912Y-105531646D01*
X149032906Y-105531649D01*
X148917812Y-105617809D01*
X148917809Y-105617812D01*
X148831649Y-105732906D01*
X148831645Y-105732913D01*
X148781403Y-105867620D01*
X148781401Y-105867627D01*
X148775000Y-105927155D01*
X148775000Y-106575000D01*
X149691988Y-106575000D01*
X149659075Y-106632007D01*
X149625000Y-106759174D01*
X149625000Y-106890826D01*
X149659075Y-107017993D01*
X149691988Y-107075000D01*
X148775000Y-107075000D01*
X148775000Y-107722844D01*
X148781401Y-107782372D01*
X148781403Y-107782379D01*
X148831645Y-107917086D01*
X148831649Y-107917093D01*
X148917809Y-108032187D01*
X148917812Y-108032190D01*
X149032906Y-108118350D01*
X149032913Y-108118354D01*
X149167620Y-108168596D01*
X149167627Y-108168598D01*
X149227155Y-108174999D01*
X149227172Y-108175000D01*
X149875000Y-108175000D01*
X149875000Y-107258012D01*
X149932007Y-107290925D01*
X150059174Y-107325000D01*
X150190826Y-107325000D01*
X150317993Y-107290925D01*
X150375000Y-107258012D01*
X150375000Y-108175000D01*
X151022828Y-108175000D01*
X151022844Y-108174999D01*
X151082372Y-108168598D01*
X151082379Y-108168596D01*
X151217086Y-108118354D01*
X151217093Y-108118350D01*
X151332187Y-108032190D01*
X151332190Y-108032187D01*
X151418350Y-107917093D01*
X151418354Y-107917086D01*
X151468596Y-107782379D01*
X151468598Y-107782372D01*
X151474999Y-107722844D01*
X151475000Y-107722827D01*
X151475000Y-107075000D01*
X150558012Y-107075000D01*
X150590925Y-107017993D01*
X150625000Y-106890826D01*
X150625000Y-106759174D01*
X150591097Y-106632648D01*
X154424500Y-106632648D01*
X154424500Y-106837352D01*
X154426262Y-106848477D01*
X154456522Y-107039534D01*
X154519781Y-107234223D01*
X154612715Y-107416613D01*
X154733028Y-107582213D01*
X154877786Y-107726971D01*
X155032749Y-107839556D01*
X155043390Y-107847287D01*
X155159607Y-107906503D01*
X155225776Y-107940218D01*
X155225778Y-107940218D01*
X155225781Y-107940220D01*
X155330137Y-107974127D01*
X155420465Y-108003477D01*
X155521557Y-108019488D01*
X155622648Y-108035500D01*
X155622649Y-108035500D01*
X155827351Y-108035500D01*
X155827352Y-108035500D01*
X156029534Y-108003477D01*
X156224219Y-107940220D01*
X156406610Y-107847287D01*
X156499590Y-107779732D01*
X156572213Y-107726971D01*
X156572215Y-107726968D01*
X156572219Y-107726966D01*
X156716966Y-107582219D01*
X156716968Y-107582215D01*
X156716971Y-107582213D01*
X156805399Y-107460500D01*
X156837287Y-107416610D01*
X156930220Y-107234219D01*
X156993477Y-107039534D01*
X157025500Y-106837352D01*
X157025500Y-106632648D01*
X156993477Y-106430466D01*
X156930220Y-106235781D01*
X156930218Y-106235778D01*
X156930218Y-106235776D01*
X156896503Y-106169607D01*
X156837287Y-106053390D01*
X156829556Y-106042749D01*
X156716971Y-105887786D01*
X156572213Y-105743028D01*
X156406610Y-105622712D01*
X156393200Y-105615879D01*
X156382138Y-105605431D01*
X156368297Y-105599110D01*
X156357255Y-105581928D01*
X156342406Y-105567903D01*
X156338165Y-105552223D01*
X156330523Y-105540332D01*
X156325500Y-105505397D01*
X156325500Y-105405096D01*
X156345185Y-105338057D01*
X156361814Y-105317420D01*
X158817819Y-102861414D01*
X158879142Y-102827930D01*
X158948834Y-102832914D01*
X159004767Y-102874786D01*
X159029184Y-102940250D01*
X159029500Y-102949096D01*
X159029500Y-103142351D01*
X159061522Y-103344534D01*
X159124781Y-103539223D01*
X159217715Y-103721613D01*
X159338028Y-103887213D01*
X159482786Y-104031971D01*
X159637749Y-104144556D01*
X159648390Y-104152287D01*
X159739840Y-104198883D01*
X159741080Y-104199515D01*
X159791876Y-104247490D01*
X159808671Y-104315311D01*
X159786134Y-104381446D01*
X159741080Y-104420485D01*
X159648386Y-104467715D01*
X159482786Y-104588028D01*
X159338028Y-104732786D01*
X159217715Y-104898386D01*
X159124781Y-105080776D01*
X159061522Y-105275465D01*
X159029500Y-105477648D01*
X159029500Y-105682351D01*
X159061522Y-105884534D01*
X159124781Y-106079223D01*
X159188691Y-106204653D01*
X159204552Y-106235781D01*
X159217715Y-106261613D01*
X159338028Y-106427213D01*
X159482786Y-106571971D01*
X159602875Y-106659219D01*
X159648390Y-106692287D01*
X159764607Y-106751503D01*
X159830776Y-106785218D01*
X159830778Y-106785218D01*
X159830781Y-106785220D01*
X159935137Y-106819127D01*
X160025465Y-106848477D01*
X160126557Y-106864488D01*
X160227648Y-106880500D01*
X160227649Y-106880500D01*
X160432351Y-106880500D01*
X160432352Y-106880500D01*
X160634534Y-106848477D01*
X160829219Y-106785220D01*
X161011610Y-106692287D01*
X161104590Y-106624732D01*
X161177213Y-106571971D01*
X161177215Y-106571968D01*
X161177219Y-106571966D01*
X161321966Y-106427219D01*
X161321968Y-106427215D01*
X161321971Y-106427213D01*
X161396232Y-106325000D01*
X161442287Y-106261610D01*
X161535220Y-106079219D01*
X161598477Y-105884534D01*
X161630500Y-105682352D01*
X161630500Y-105477648D01*
X161628602Y-105465662D01*
X161598477Y-105275465D01*
X161562514Y-105164784D01*
X161535220Y-105080781D01*
X161535218Y-105080778D01*
X161535218Y-105080776D01*
X161501503Y-105014607D01*
X161442287Y-104898390D01*
X161425399Y-104875145D01*
X161321971Y-104732786D01*
X161177213Y-104588028D01*
X161011614Y-104467715D01*
X161005006Y-104464348D01*
X160918917Y-104420483D01*
X160868123Y-104372511D01*
X160851328Y-104304690D01*
X160873865Y-104238555D01*
X160918917Y-104199516D01*
X161011610Y-104152287D01*
X161032770Y-104136913D01*
X161177213Y-104031971D01*
X161177215Y-104031968D01*
X161177219Y-104031966D01*
X161321966Y-103887219D01*
X161321968Y-103887215D01*
X161321971Y-103887213D01*
X161374732Y-103814590D01*
X161442287Y-103721610D01*
X161535220Y-103539219D01*
X161598477Y-103344534D01*
X161630500Y-103142352D01*
X161630500Y-102937648D01*
X161630001Y-102934500D01*
X161598477Y-102735465D01*
X161541296Y-102559481D01*
X161535220Y-102540781D01*
X161535218Y-102540778D01*
X161535218Y-102540776D01*
X161473584Y-102419814D01*
X161442287Y-102358390D01*
X161423596Y-102332664D01*
X161321971Y-102192786D01*
X161177213Y-102048028D01*
X161011614Y-101927715D01*
X161005006Y-101924348D01*
X160918917Y-101880483D01*
X160868123Y-101832511D01*
X160851328Y-101764690D01*
X160873865Y-101698555D01*
X160918917Y-101659516D01*
X161011610Y-101612287D01*
X161032770Y-101596913D01*
X161177213Y-101491971D01*
X161177215Y-101491968D01*
X161177219Y-101491966D01*
X161321966Y-101347219D01*
X161321968Y-101347215D01*
X161321971Y-101347213D01*
X161374732Y-101274590D01*
X161442287Y-101181610D01*
X161535220Y-100999219D01*
X161598477Y-100804534D01*
X161630500Y-100602352D01*
X161630500Y-100397648D01*
X161598477Y-100195465D01*
X161535218Y-100000776D01*
X161501503Y-99934607D01*
X161442287Y-99818390D01*
X161426463Y-99796610D01*
X161321971Y-99652786D01*
X161177219Y-99508034D01*
X161140344Y-99481243D01*
X161083547Y-99439978D01*
X161040882Y-99384649D01*
X161034903Y-99315036D01*
X161067508Y-99253240D01*
X161117426Y-99221955D01*
X161199334Y-99194814D01*
X161348656Y-99102712D01*
X161472712Y-98978656D01*
X161564814Y-98829334D01*
X161619999Y-98662797D01*
X161630500Y-98560009D01*
X161630499Y-97857648D01*
X166649500Y-97857648D01*
X166649500Y-98062351D01*
X166681522Y-98264534D01*
X166744781Y-98459223D01*
X166796135Y-98560009D01*
X166824552Y-98615781D01*
X166837715Y-98641613D01*
X166958028Y-98807213D01*
X167102786Y-98951971D01*
X167222875Y-99039219D01*
X167268390Y-99072287D01*
X167359840Y-99118883D01*
X167361080Y-99119515D01*
X167411876Y-99167490D01*
X167428671Y-99235311D01*
X167406134Y-99301446D01*
X167361080Y-99340485D01*
X167268386Y-99387715D01*
X167102786Y-99508028D01*
X166958028Y-99652786D01*
X166837715Y-99818386D01*
X166744781Y-100000776D01*
X166681522Y-100195465D01*
X166649500Y-100397648D01*
X166649500Y-100602351D01*
X166681522Y-100804534D01*
X166744781Y-100999223D01*
X166837715Y-101181613D01*
X166958028Y-101347213D01*
X167102786Y-101491971D01*
X167257749Y-101604556D01*
X167268390Y-101612287D01*
X167359840Y-101658883D01*
X167361080Y-101659515D01*
X167411876Y-101707490D01*
X167428671Y-101775311D01*
X167406134Y-101841446D01*
X167361080Y-101880485D01*
X167268386Y-101927715D01*
X167102786Y-102048028D01*
X166958028Y-102192786D01*
X166837715Y-102358386D01*
X166744781Y-102540776D01*
X166681522Y-102735465D01*
X166649500Y-102937648D01*
X166649500Y-103142351D01*
X166681522Y-103344534D01*
X166744781Y-103539223D01*
X166837715Y-103721613D01*
X166958028Y-103887213D01*
X167102786Y-104031971D01*
X167257749Y-104144556D01*
X167268390Y-104152287D01*
X167359840Y-104198883D01*
X167361080Y-104199515D01*
X167411876Y-104247490D01*
X167428671Y-104315311D01*
X167406134Y-104381446D01*
X167361080Y-104420485D01*
X167268386Y-104467715D01*
X167102786Y-104588028D01*
X166958028Y-104732786D01*
X166837715Y-104898386D01*
X166744781Y-105080776D01*
X166681522Y-105275465D01*
X166649500Y-105477648D01*
X166649500Y-105682351D01*
X166681522Y-105884534D01*
X166744781Y-106079223D01*
X166808691Y-106204653D01*
X166824552Y-106235781D01*
X166837715Y-106261613D01*
X166958028Y-106427213D01*
X167102786Y-106571971D01*
X167222875Y-106659219D01*
X167268390Y-106692287D01*
X167384607Y-106751503D01*
X167450776Y-106785218D01*
X167450778Y-106785218D01*
X167450781Y-106785220D01*
X167555137Y-106819127D01*
X167645465Y-106848477D01*
X167746557Y-106864488D01*
X167847648Y-106880500D01*
X167847649Y-106880500D01*
X168052351Y-106880500D01*
X168052352Y-106880500D01*
X168254534Y-106848477D01*
X168449219Y-106785220D01*
X168631610Y-106692287D01*
X168724590Y-106624732D01*
X168797213Y-106571971D01*
X168797215Y-106571968D01*
X168797219Y-106571966D01*
X168941966Y-106427219D01*
X168941968Y-106427215D01*
X168941971Y-106427213D01*
X169016232Y-106325000D01*
X169062287Y-106261610D01*
X169155220Y-106079219D01*
X169218477Y-105884534D01*
X169250500Y-105682352D01*
X169250500Y-105477648D01*
X169248602Y-105465662D01*
X169218477Y-105275465D01*
X169182514Y-105164784D01*
X169155220Y-105080781D01*
X169155218Y-105080778D01*
X169155218Y-105080776D01*
X169121503Y-105014607D01*
X169062287Y-104898390D01*
X169045399Y-104875145D01*
X168941971Y-104732786D01*
X168797213Y-104588028D01*
X168631614Y-104467715D01*
X168625006Y-104464348D01*
X168538917Y-104420483D01*
X168488123Y-104372511D01*
X168471328Y-104304690D01*
X168493865Y-104238555D01*
X168538917Y-104199516D01*
X168631610Y-104152287D01*
X168652770Y-104136913D01*
X168797213Y-104031971D01*
X168797215Y-104031968D01*
X168797219Y-104031966D01*
X168941966Y-103887219D01*
X168955944Y-103867978D01*
X169011272Y-103825311D01*
X169080885Y-103819330D01*
X169142681Y-103851934D01*
X169143945Y-103853180D01*
X171005922Y-105715157D01*
X171039407Y-105776480D01*
X171036173Y-105841155D01*
X171031522Y-105855468D01*
X171000175Y-106053386D01*
X170999500Y-106057648D01*
X170999500Y-106262352D01*
X171002492Y-106281243D01*
X171031522Y-106464534D01*
X171094781Y-106659223D01*
X171158691Y-106784653D01*
X171185543Y-106837352D01*
X171187715Y-106841613D01*
X171308028Y-107007213D01*
X171452786Y-107151971D01*
X171607749Y-107264556D01*
X171618390Y-107272287D01*
X171721845Y-107325000D01*
X171800776Y-107365218D01*
X171800778Y-107365218D01*
X171800781Y-107365220D01*
X171905137Y-107399127D01*
X171995465Y-107428477D01*
X172096557Y-107444488D01*
X172197648Y-107460500D01*
X172197649Y-107460500D01*
X172402351Y-107460500D01*
X172402352Y-107460500D01*
X172604534Y-107428477D01*
X172799219Y-107365220D01*
X172981610Y-107272287D01*
X173074590Y-107204732D01*
X173147213Y-107151971D01*
X173147215Y-107151968D01*
X173147219Y-107151966D01*
X173291966Y-107007219D01*
X173291968Y-107007215D01*
X173291971Y-107007213D01*
X173344732Y-106934590D01*
X173412287Y-106841610D01*
X173505220Y-106659219D01*
X173568477Y-106464534D01*
X173600500Y-106262352D01*
X173600500Y-106057648D01*
X173568477Y-105855466D01*
X173505220Y-105660781D01*
X173505218Y-105660778D01*
X173505218Y-105660776D01*
X173457896Y-105567903D01*
X173412287Y-105478390D01*
X173389180Y-105446585D01*
X173291971Y-105312786D01*
X173147213Y-105168028D01*
X172981613Y-105047715D01*
X172981612Y-105047714D01*
X172981610Y-105047713D01*
X172873877Y-104992820D01*
X172799223Y-104954781D01*
X172604534Y-104891522D01*
X172429995Y-104863878D01*
X172402352Y-104859500D01*
X172197648Y-104859500D01*
X172159599Y-104865526D01*
X171995468Y-104891522D01*
X171986717Y-104894365D01*
X171981154Y-104896173D01*
X171911313Y-104898167D01*
X171855157Y-104865922D01*
X169667590Y-102678355D01*
X169660521Y-102671286D01*
X169660520Y-102671284D01*
X169548716Y-102559480D01*
X169492692Y-102527135D01*
X176099500Y-102527135D01*
X176099500Y-104322870D01*
X176099501Y-104322876D01*
X176105908Y-104382483D01*
X176156202Y-104517328D01*
X176156206Y-104517335D01*
X176242452Y-104632544D01*
X176242455Y-104632547D01*
X176357664Y-104718793D01*
X176357671Y-104718797D01*
X176489082Y-104767810D01*
X176545016Y-104809681D01*
X176569433Y-104875145D01*
X176554582Y-104943418D01*
X176533431Y-104971673D01*
X176419889Y-105085215D01*
X176294951Y-105257179D01*
X176198444Y-105446585D01*
X176132753Y-105648760D01*
X176099500Y-105858713D01*
X176099500Y-106071286D01*
X176129761Y-106262351D01*
X176132754Y-106281243D01*
X176181239Y-106430465D01*
X176198444Y-106483414D01*
X176294951Y-106672820D01*
X176419890Y-106844786D01*
X176570213Y-106995109D01*
X176742179Y-107120048D01*
X176742181Y-107120049D01*
X176742184Y-107120051D01*
X176931588Y-107216557D01*
X177133757Y-107282246D01*
X177343713Y-107315500D01*
X177343714Y-107315500D01*
X177556286Y-107315500D01*
X177556287Y-107315500D01*
X177766243Y-107282246D01*
X177968412Y-107216557D01*
X178157816Y-107120051D01*
X178298288Y-107017993D01*
X178329786Y-106995109D01*
X178329788Y-106995106D01*
X178329792Y-106995104D01*
X178480104Y-106844792D01*
X178480106Y-106844788D01*
X178480109Y-106844786D01*
X178605048Y-106672820D01*
X178605047Y-106672820D01*
X178605051Y-106672816D01*
X178701557Y-106483412D01*
X178767246Y-106281243D01*
X178800500Y-106071287D01*
X178800500Y-105858713D01*
X178767246Y-105648757D01*
X178701557Y-105446588D01*
X178605051Y-105257184D01*
X178605049Y-105257181D01*
X178605048Y-105257179D01*
X178480109Y-105085213D01*
X178366569Y-104971673D01*
X178333084Y-104910350D01*
X178338068Y-104840658D01*
X178379940Y-104784725D01*
X178410915Y-104767810D01*
X178542331Y-104718796D01*
X178657546Y-104632546D01*
X178743796Y-104517331D01*
X178794091Y-104382483D01*
X178800500Y-104322873D01*
X178800499Y-102527128D01*
X178794091Y-102467517D01*
X178758389Y-102371796D01*
X178743797Y-102332671D01*
X178743793Y-102332664D01*
X178657547Y-102217455D01*
X178657544Y-102217452D01*
X178542335Y-102131206D01*
X178542328Y-102131202D01*
X178407482Y-102080908D01*
X178407483Y-102080908D01*
X178347883Y-102074501D01*
X178347881Y-102074500D01*
X178347873Y-102074500D01*
X178347864Y-102074500D01*
X176552129Y-102074500D01*
X176552123Y-102074501D01*
X176492516Y-102080908D01*
X176357671Y-102131202D01*
X176357664Y-102131206D01*
X176242455Y-102217452D01*
X176242452Y-102217455D01*
X176156206Y-102332664D01*
X176156202Y-102332671D01*
X176105908Y-102467517D01*
X176104521Y-102480423D01*
X176099501Y-102527123D01*
X176099500Y-102527135D01*
X169492692Y-102527135D01*
X169461904Y-102509360D01*
X169461904Y-102509359D01*
X169461900Y-102509358D01*
X169411785Y-102480423D01*
X169259057Y-102439499D01*
X169259054Y-102439499D01*
X169179602Y-102439499D01*
X169112563Y-102419814D01*
X169069118Y-102371796D01*
X169062285Y-102358386D01*
X168941971Y-102192786D01*
X168797213Y-102048028D01*
X168631614Y-101927715D01*
X168625006Y-101924348D01*
X168538917Y-101880483D01*
X168488123Y-101832511D01*
X168471328Y-101764690D01*
X168493865Y-101698555D01*
X168538917Y-101659516D01*
X168631610Y-101612287D01*
X168652770Y-101596913D01*
X168797213Y-101491971D01*
X168797215Y-101491968D01*
X168797219Y-101491966D01*
X168941966Y-101347219D01*
X168941968Y-101347215D01*
X168941971Y-101347213D01*
X168994732Y-101274590D01*
X169062287Y-101181610D01*
X169155220Y-100999219D01*
X169218477Y-100804534D01*
X169250500Y-100602352D01*
X169250500Y-100397648D01*
X169218477Y-100195465D01*
X169155218Y-100000776D01*
X169121503Y-99934607D01*
X169062287Y-99818390D01*
X169046463Y-99796610D01*
X168941971Y-99652786D01*
X168797213Y-99508028D01*
X168631614Y-99387715D01*
X168625006Y-99384348D01*
X168538917Y-99340483D01*
X168488123Y-99292511D01*
X168471328Y-99224690D01*
X168493865Y-99158555D01*
X168538917Y-99119516D01*
X168631610Y-99072287D01*
X168760482Y-98978657D01*
X168797213Y-98951971D01*
X168797215Y-98951968D01*
X168797219Y-98951966D01*
X168941966Y-98807219D01*
X168941968Y-98807215D01*
X168941971Y-98807213D01*
X169046892Y-98662799D01*
X169062287Y-98641610D01*
X169155220Y-98459219D01*
X169162229Y-98437648D01*
X170999500Y-98437648D01*
X170999500Y-98642352D01*
X171000171Y-98646588D01*
X171031522Y-98844534D01*
X171094781Y-99039223D01*
X171127130Y-99102710D01*
X171185543Y-99217352D01*
X171187715Y-99221613D01*
X171308028Y-99387213D01*
X171452786Y-99531971D01*
X171569211Y-99616557D01*
X171618390Y-99652287D01*
X171734607Y-99711503D01*
X171800776Y-99745218D01*
X171800778Y-99745218D01*
X171800781Y-99745220D01*
X171905137Y-99779127D01*
X171995465Y-99808477D01*
X172058028Y-99818386D01*
X172197648Y-99840500D01*
X172197649Y-99840500D01*
X172402351Y-99840500D01*
X172402352Y-99840500D01*
X172604534Y-99808477D01*
X172799219Y-99745220D01*
X172981610Y-99652287D01*
X173074590Y-99584732D01*
X173147213Y-99531971D01*
X173147215Y-99531968D01*
X173147219Y-99531966D01*
X173291966Y-99387219D01*
X173291968Y-99387215D01*
X173291971Y-99387213D01*
X173360775Y-99292511D01*
X173412287Y-99221610D01*
X173505220Y-99039219D01*
X173568477Y-98844534D01*
X173600500Y-98642352D01*
X173600500Y-98437648D01*
X173576356Y-98285213D01*
X173568477Y-98235465D01*
X173527824Y-98110350D01*
X173505220Y-98040781D01*
X173505218Y-98040778D01*
X173505218Y-98040776D01*
X173468039Y-97967810D01*
X173412287Y-97858390D01*
X173393511Y-97832547D01*
X173291971Y-97692786D01*
X173147213Y-97548028D01*
X172981613Y-97427715D01*
X172981612Y-97427714D01*
X172981610Y-97427713D01*
X172924653Y-97398691D01*
X172799223Y-97334781D01*
X172604534Y-97271522D01*
X172429995Y-97243878D01*
X172402352Y-97239500D01*
X172197648Y-97239500D01*
X172190337Y-97240658D01*
X171995465Y-97271522D01*
X171800776Y-97334781D01*
X171618386Y-97427715D01*
X171452786Y-97548028D01*
X171308028Y-97692786D01*
X171187715Y-97858386D01*
X171094781Y-98040776D01*
X171031522Y-98235465D01*
X171000175Y-98433386D01*
X170999500Y-98437648D01*
X169162229Y-98437648D01*
X169218477Y-98264534D01*
X169250500Y-98062352D01*
X169250500Y-97857648D01*
X169218477Y-97655466D01*
X169155220Y-97460781D01*
X169155218Y-97460778D01*
X169155218Y-97460776D01*
X169103865Y-97359991D01*
X169062287Y-97278390D01*
X169046892Y-97257200D01*
X168941971Y-97112786D01*
X168797213Y-96968028D01*
X168631613Y-96847715D01*
X168631612Y-96847714D01*
X168631610Y-96847713D01*
X168571898Y-96817288D01*
X168449223Y-96754781D01*
X168254534Y-96691522D01*
X168079995Y-96663878D01*
X168052352Y-96659500D01*
X167847648Y-96659500D01*
X167823329Y-96663351D01*
X167645465Y-96691522D01*
X167450776Y-96754781D01*
X167268386Y-96847715D01*
X167102786Y-96968028D01*
X166958028Y-97112786D01*
X166837715Y-97278386D01*
X166744781Y-97460776D01*
X166681522Y-97655465D01*
X166649500Y-97857648D01*
X161630499Y-97857648D01*
X161630499Y-97359992D01*
X161627935Y-97334896D01*
X161619999Y-97257203D01*
X161619998Y-97257200D01*
X161564814Y-97090666D01*
X161472712Y-96941344D01*
X161348656Y-96817288D01*
X161199334Y-96725186D01*
X161032797Y-96670001D01*
X161032795Y-96670000D01*
X160930010Y-96659500D01*
X159729998Y-96659500D01*
X159729981Y-96659501D01*
X159627203Y-96670000D01*
X159627200Y-96670001D01*
X159460668Y-96725185D01*
X159460663Y-96725187D01*
X159311342Y-96817289D01*
X159187289Y-96941342D01*
X159095187Y-97090663D01*
X159095185Y-97090668D01*
X159085864Y-97118797D01*
X159040001Y-97257203D01*
X159040001Y-97257204D01*
X159040000Y-97257204D01*
X159029500Y-97359983D01*
X159029500Y-98560001D01*
X159029501Y-98560018D01*
X159040000Y-98662796D01*
X159040001Y-98662799D01*
X159046113Y-98681243D01*
X159095186Y-98829334D01*
X159187288Y-98978656D01*
X159311344Y-99102712D01*
X159460666Y-99194814D01*
X159542570Y-99221954D01*
X159600015Y-99261727D01*
X159626838Y-99326243D01*
X159614523Y-99395018D01*
X159576451Y-99439978D01*
X159482787Y-99508028D01*
X159482782Y-99508032D01*
X159338028Y-99652786D01*
X159217715Y-99818386D01*
X159124781Y-100000776D01*
X159061522Y-100195465D01*
X159029500Y-100397648D01*
X159029500Y-100602351D01*
X159061522Y-100804534D01*
X159066173Y-100818848D01*
X159068165Y-100888690D01*
X159035921Y-100944842D01*
X155359277Y-104621486D01*
X155359270Y-104621493D01*
X155356286Y-104624478D01*
X155356284Y-104624480D01*
X155244480Y-104736284D01*
X155221839Y-104775500D01*
X155215814Y-104785933D01*
X155215814Y-104785935D01*
X155165424Y-104873213D01*
X155165423Y-104873215D01*
X155124499Y-105025943D01*
X155124499Y-105025945D01*
X155124499Y-105194046D01*
X155124500Y-105194059D01*
X155124500Y-105505397D01*
X155104815Y-105572436D01*
X155056800Y-105615879D01*
X155043389Y-105622712D01*
X154877786Y-105743028D01*
X154733028Y-105887786D01*
X154612715Y-106053386D01*
X154519781Y-106235776D01*
X154456522Y-106430465D01*
X154424602Y-106632007D01*
X154424500Y-106632648D01*
X150591097Y-106632648D01*
X150590925Y-106632007D01*
X150558012Y-106575000D01*
X151475000Y-106575000D01*
X151475000Y-105927172D01*
X151474999Y-105927155D01*
X151468598Y-105867627D01*
X151468596Y-105867620D01*
X151418354Y-105732913D01*
X151418350Y-105732906D01*
X151332190Y-105617812D01*
X151332187Y-105617809D01*
X151217093Y-105531649D01*
X151217088Y-105531646D01*
X151085528Y-105482577D01*
X151029595Y-105440705D01*
X151005178Y-105375241D01*
X151020030Y-105306968D01*
X151041175Y-105278720D01*
X151155104Y-105164792D01*
X151280051Y-104992816D01*
X151376557Y-104803412D01*
X151442246Y-104601243D01*
X151475500Y-104391287D01*
X151475500Y-104178713D01*
X151442246Y-103968757D01*
X151376557Y-103766588D01*
X151280051Y-103577184D01*
X151280049Y-103577181D01*
X151280048Y-103577179D01*
X151155109Y-103405213D01*
X151004786Y-103254890D01*
X150832820Y-103129951D01*
X150643414Y-103033444D01*
X150643413Y-103033443D01*
X150643412Y-103033443D01*
X150441243Y-102967754D01*
X150441241Y-102967753D01*
X150441240Y-102967753D01*
X150267591Y-102940250D01*
X150231287Y-102934500D01*
X150018713Y-102934500D01*
X149982409Y-102940250D01*
X149808760Y-102967753D01*
X149606585Y-103033444D01*
X149417179Y-103129951D01*
X149245213Y-103254890D01*
X149094890Y-103405213D01*
X148969951Y-103577179D01*
X148873444Y-103766585D01*
X148807753Y-103968760D01*
X148774500Y-104178713D01*
X146000500Y-104178713D01*
X146000500Y-95727135D01*
X148499500Y-95727135D01*
X148499500Y-97522870D01*
X148499501Y-97522876D01*
X148505908Y-97582483D01*
X148556202Y-97717328D01*
X148556206Y-97717335D01*
X148642452Y-97832544D01*
X148642455Y-97832547D01*
X148757664Y-97918793D01*
X148757671Y-97918797D01*
X148889082Y-97967810D01*
X148945016Y-98009681D01*
X148969433Y-98075145D01*
X148954582Y-98143418D01*
X148933431Y-98171673D01*
X148819889Y-98285215D01*
X148694951Y-98457179D01*
X148598444Y-98646585D01*
X148532753Y-98848760D01*
X148499500Y-99058713D01*
X148499500Y-99271286D01*
X148519111Y-99395109D01*
X148532754Y-99481243D01*
X148588490Y-99652781D01*
X148598444Y-99683414D01*
X148694951Y-99872820D01*
X148819890Y-100044786D01*
X148970213Y-100195109D01*
X149142179Y-100320048D01*
X149142181Y-100320049D01*
X149142184Y-100320051D01*
X149331588Y-100416557D01*
X149533757Y-100482246D01*
X149743713Y-100515500D01*
X149743714Y-100515500D01*
X149956286Y-100515500D01*
X149956287Y-100515500D01*
X150166243Y-100482246D01*
X150368412Y-100416557D01*
X150557816Y-100320051D01*
X150685500Y-100227284D01*
X150729786Y-100195109D01*
X150729788Y-100195106D01*
X150729792Y-100195104D01*
X150880104Y-100044792D01*
X150880106Y-100044788D01*
X150880109Y-100044786D01*
X151005048Y-99872820D01*
X151005047Y-99872820D01*
X151005051Y-99872816D01*
X151101557Y-99683412D01*
X151167246Y-99481243D01*
X151200500Y-99271287D01*
X151200500Y-99058713D01*
X151193204Y-99012648D01*
X154424500Y-99012648D01*
X154424500Y-99217352D01*
X154428845Y-99244786D01*
X154456522Y-99419534D01*
X154519781Y-99614223D01*
X154612715Y-99796613D01*
X154733028Y-99962213D01*
X154877786Y-100106971D01*
X155032749Y-100219556D01*
X155043390Y-100227287D01*
X155159607Y-100286503D01*
X155225776Y-100320218D01*
X155225778Y-100320218D01*
X155225781Y-100320220D01*
X155330137Y-100354127D01*
X155420465Y-100383477D01*
X155509937Y-100397648D01*
X155622648Y-100415500D01*
X155622649Y-100415500D01*
X155827351Y-100415500D01*
X155827352Y-100415500D01*
X156029534Y-100383477D01*
X156224219Y-100320220D01*
X156406610Y-100227287D01*
X156499590Y-100159732D01*
X156572213Y-100106971D01*
X156572215Y-100106968D01*
X156572219Y-100106966D01*
X156716966Y-99962219D01*
X156716968Y-99962215D01*
X156716971Y-99962213D01*
X156769732Y-99889590D01*
X156837287Y-99796610D01*
X156930220Y-99614219D01*
X156993477Y-99419534D01*
X157025500Y-99217352D01*
X157025500Y-99012648D01*
X156996466Y-98829336D01*
X156993477Y-98810465D01*
X156951490Y-98681243D01*
X156930220Y-98615781D01*
X156930218Y-98615778D01*
X156930218Y-98615776D01*
X156896503Y-98549607D01*
X156837287Y-98433390D01*
X156829556Y-98422749D01*
X156716971Y-98267786D01*
X156572213Y-98123028D01*
X156406613Y-98002715D01*
X156406612Y-98002714D01*
X156406610Y-98002713D01*
X156338109Y-97967810D01*
X156224223Y-97909781D01*
X156029534Y-97846522D01*
X155854995Y-97818878D01*
X155827352Y-97814500D01*
X155622648Y-97814500D01*
X155598329Y-97818351D01*
X155420465Y-97846522D01*
X155225776Y-97909781D01*
X155043386Y-98002715D01*
X154877786Y-98123028D01*
X154733028Y-98267786D01*
X154612715Y-98433386D01*
X154519781Y-98615776D01*
X154456522Y-98810465D01*
X154434111Y-98951966D01*
X154424500Y-99012648D01*
X151193204Y-99012648D01*
X151167246Y-98848757D01*
X151101557Y-98646588D01*
X151005051Y-98457184D01*
X151005049Y-98457181D01*
X151005048Y-98457179D01*
X150880109Y-98285213D01*
X150766569Y-98171673D01*
X150733084Y-98110350D01*
X150738068Y-98040658D01*
X150779940Y-97984725D01*
X150810915Y-97967810D01*
X150942331Y-97918796D01*
X151057546Y-97832546D01*
X151143796Y-97717331D01*
X151194091Y-97582483D01*
X151200500Y-97522873D01*
X151200499Y-95727128D01*
X151194091Y-95667517D01*
X151143796Y-95532669D01*
X151143795Y-95532668D01*
X151143793Y-95532664D01*
X151057547Y-95417455D01*
X151057544Y-95417452D01*
X150942335Y-95331206D01*
X150942328Y-95331202D01*
X150807482Y-95280908D01*
X150807483Y-95280908D01*
X150747883Y-95274501D01*
X150747881Y-95274500D01*
X150747873Y-95274500D01*
X150747864Y-95274500D01*
X148952129Y-95274500D01*
X148952123Y-95274501D01*
X148892516Y-95280908D01*
X148757671Y-95331202D01*
X148757664Y-95331206D01*
X148642455Y-95417452D01*
X148642452Y-95417455D01*
X148556206Y-95532664D01*
X148556202Y-95532671D01*
X148505908Y-95667517D01*
X148499501Y-95727116D01*
X148499501Y-95727123D01*
X148499500Y-95727135D01*
X146000500Y-95727135D01*
X146000500Y-94927135D01*
X176249500Y-94927135D01*
X176249500Y-96722870D01*
X176249501Y-96722876D01*
X176255908Y-96782483D01*
X176306202Y-96917328D01*
X176306206Y-96917335D01*
X176392452Y-97032544D01*
X176392455Y-97032547D01*
X176507664Y-97118793D01*
X176507671Y-97118797D01*
X176639082Y-97167810D01*
X176695016Y-97209681D01*
X176719433Y-97275145D01*
X176704582Y-97343418D01*
X176683431Y-97371673D01*
X176569889Y-97485215D01*
X176444951Y-97657179D01*
X176348444Y-97846585D01*
X176282753Y-98048760D01*
X176249500Y-98258713D01*
X176249500Y-98471286D01*
X176279832Y-98662799D01*
X176282754Y-98681243D01*
X176324741Y-98810466D01*
X176348444Y-98883414D01*
X176444951Y-99072820D01*
X176569890Y-99244786D01*
X176720213Y-99395109D01*
X176892179Y-99520048D01*
X176892181Y-99520049D01*
X176892184Y-99520051D01*
X177081588Y-99616557D01*
X177283757Y-99682246D01*
X177493713Y-99715500D01*
X177493714Y-99715500D01*
X177706286Y-99715500D01*
X177706287Y-99715500D01*
X177916243Y-99682246D01*
X178118412Y-99616557D01*
X178307816Y-99520051D01*
X178361237Y-99481239D01*
X178479786Y-99395109D01*
X178479788Y-99395106D01*
X178479792Y-99395104D01*
X178630104Y-99244792D01*
X178630106Y-99244788D01*
X178630109Y-99244786D01*
X178755048Y-99072820D01*
X178755047Y-99072820D01*
X178755051Y-99072816D01*
X178851557Y-98883412D01*
X178917246Y-98681243D01*
X178950500Y-98471287D01*
X178950500Y-98258713D01*
X178917246Y-98048757D01*
X178851557Y-97846588D01*
X178755051Y-97657184D01*
X178755049Y-97657181D01*
X178755048Y-97657179D01*
X178630109Y-97485213D01*
X178516569Y-97371673D01*
X178483084Y-97310350D01*
X178488068Y-97240658D01*
X178529940Y-97184725D01*
X178560915Y-97167810D01*
X178692331Y-97118796D01*
X178807546Y-97032546D01*
X178893796Y-96917331D01*
X178944091Y-96782483D01*
X178950500Y-96722873D01*
X178950499Y-94927128D01*
X178944091Y-94867517D01*
X178893796Y-94732669D01*
X178893795Y-94732668D01*
X178893793Y-94732664D01*
X178807547Y-94617455D01*
X178807544Y-94617452D01*
X178692335Y-94531206D01*
X178692328Y-94531202D01*
X178557482Y-94480908D01*
X178557483Y-94480908D01*
X178497883Y-94474501D01*
X178497881Y-94474500D01*
X178497873Y-94474500D01*
X178497864Y-94474500D01*
X176702129Y-94474500D01*
X176702123Y-94474501D01*
X176642516Y-94480908D01*
X176507671Y-94531202D01*
X176507664Y-94531206D01*
X176392455Y-94617452D01*
X176392452Y-94617455D01*
X176306206Y-94732664D01*
X176306202Y-94732671D01*
X176255908Y-94867517D01*
X176249501Y-94927116D01*
X176249501Y-94927123D01*
X176249500Y-94927135D01*
X146000500Y-94927135D01*
X146000500Y-92624500D01*
X146020185Y-92557461D01*
X146072989Y-92511706D01*
X146124500Y-92500500D01*
X181375500Y-92500500D01*
X181442539Y-92520185D01*
G37*
%TD.AperFunction*%
%TD*%
M02*
