%TF.GenerationSoftware,KiCad,Pcbnew,9.0.3*%
%TF.CreationDate,2026-07-30T12:44:28+05:30*%
%TF.ProjectId,10_OpAmp_Demonstration_Board,31305f4f-7041-46d7-905f-44656d6f6e73,rev?*%
%TF.SameCoordinates,Original*%
%TF.FileFunction,Legend,Top*%
%TF.FilePolarity,Positive*%
%FSLAX46Y46*%
G04 Gerber Fmt 4.6, Leading zero omitted, Abs format (unit mm)*
G04 Created by KiCad (PCBNEW 9.0.3) date 2026-07-30 12:44:28*
%MOMM*%
%LPD*%
G01*
G04 APERTURE LIST*
%ADD10C,0.150000*%
%ADD11C,0.120000*%
G04 APERTURE END LIST*
D10*
X163378095Y-95084819D02*
X163378095Y-95894342D01*
X163378095Y-95894342D02*
X163425714Y-95989580D01*
X163425714Y-95989580D02*
X163473333Y-96037200D01*
X163473333Y-96037200D02*
X163568571Y-96084819D01*
X163568571Y-96084819D02*
X163759047Y-96084819D01*
X163759047Y-96084819D02*
X163854285Y-96037200D01*
X163854285Y-96037200D02*
X163901904Y-95989580D01*
X163901904Y-95989580D02*
X163949523Y-95894342D01*
X163949523Y-95894342D02*
X163949523Y-95084819D01*
X164949523Y-96084819D02*
X164378095Y-96084819D01*
X164663809Y-96084819D02*
X164663809Y-95084819D01*
X164663809Y-95084819D02*
X164568571Y-95227676D01*
X164568571Y-95227676D02*
X164473333Y-95322914D01*
X164473333Y-95322914D02*
X164378095Y-95370533D01*
X173933333Y-113554819D02*
X173600000Y-113078628D01*
X173361905Y-113554819D02*
X173361905Y-112554819D01*
X173361905Y-112554819D02*
X173742857Y-112554819D01*
X173742857Y-112554819D02*
X173838095Y-112602438D01*
X173838095Y-112602438D02*
X173885714Y-112650057D01*
X173885714Y-112650057D02*
X173933333Y-112745295D01*
X173933333Y-112745295D02*
X173933333Y-112888152D01*
X173933333Y-112888152D02*
X173885714Y-112983390D01*
X173885714Y-112983390D02*
X173838095Y-113031009D01*
X173838095Y-113031009D02*
X173742857Y-113078628D01*
X173742857Y-113078628D02*
X173361905Y-113078628D01*
X174790476Y-112888152D02*
X174790476Y-113554819D01*
X174552381Y-112507200D02*
X174314286Y-113221485D01*
X174314286Y-113221485D02*
X174933333Y-113221485D01*
X172133333Y-97154819D02*
X171800000Y-96678628D01*
X171561905Y-97154819D02*
X171561905Y-96154819D01*
X171561905Y-96154819D02*
X171942857Y-96154819D01*
X171942857Y-96154819D02*
X172038095Y-96202438D01*
X172038095Y-96202438D02*
X172085714Y-96250057D01*
X172085714Y-96250057D02*
X172133333Y-96345295D01*
X172133333Y-96345295D02*
X172133333Y-96488152D01*
X172133333Y-96488152D02*
X172085714Y-96583390D01*
X172085714Y-96583390D02*
X172038095Y-96631009D01*
X172038095Y-96631009D02*
X171942857Y-96678628D01*
X171942857Y-96678628D02*
X171561905Y-96678628D01*
X172466667Y-96154819D02*
X173085714Y-96154819D01*
X173085714Y-96154819D02*
X172752381Y-96535771D01*
X172752381Y-96535771D02*
X172895238Y-96535771D01*
X172895238Y-96535771D02*
X172990476Y-96583390D01*
X172990476Y-96583390D02*
X173038095Y-96631009D01*
X173038095Y-96631009D02*
X173085714Y-96726247D01*
X173085714Y-96726247D02*
X173085714Y-96964342D01*
X173085714Y-96964342D02*
X173038095Y-97059580D01*
X173038095Y-97059580D02*
X172990476Y-97107200D01*
X172990476Y-97107200D02*
X172895238Y-97154819D01*
X172895238Y-97154819D02*
X172609524Y-97154819D01*
X172609524Y-97154819D02*
X172514286Y-97107200D01*
X172514286Y-97107200D02*
X172466667Y-97059580D01*
X153809819Y-103091666D02*
X153333628Y-103424999D01*
X153809819Y-103663094D02*
X152809819Y-103663094D01*
X152809819Y-103663094D02*
X152809819Y-103282142D01*
X152809819Y-103282142D02*
X152857438Y-103186904D01*
X152857438Y-103186904D02*
X152905057Y-103139285D01*
X152905057Y-103139285D02*
X153000295Y-103091666D01*
X153000295Y-103091666D02*
X153143152Y-103091666D01*
X153143152Y-103091666D02*
X153238390Y-103139285D01*
X153238390Y-103139285D02*
X153286009Y-103186904D01*
X153286009Y-103186904D02*
X153333628Y-103282142D01*
X153333628Y-103282142D02*
X153333628Y-103663094D01*
X152905057Y-102710713D02*
X152857438Y-102663094D01*
X152857438Y-102663094D02*
X152809819Y-102567856D01*
X152809819Y-102567856D02*
X152809819Y-102329761D01*
X152809819Y-102329761D02*
X152857438Y-102234523D01*
X152857438Y-102234523D02*
X152905057Y-102186904D01*
X152905057Y-102186904D02*
X153000295Y-102139285D01*
X153000295Y-102139285D02*
X153095533Y-102139285D01*
X153095533Y-102139285D02*
X153238390Y-102186904D01*
X153238390Y-102186904D02*
X153809819Y-102758332D01*
X153809819Y-102758332D02*
X153809819Y-102139285D01*
X155623333Y-113129819D02*
X155290000Y-112653628D01*
X155051905Y-113129819D02*
X155051905Y-112129819D01*
X155051905Y-112129819D02*
X155432857Y-112129819D01*
X155432857Y-112129819D02*
X155528095Y-112177438D01*
X155528095Y-112177438D02*
X155575714Y-112225057D01*
X155575714Y-112225057D02*
X155623333Y-112320295D01*
X155623333Y-112320295D02*
X155623333Y-112463152D01*
X155623333Y-112463152D02*
X155575714Y-112558390D01*
X155575714Y-112558390D02*
X155528095Y-112606009D01*
X155528095Y-112606009D02*
X155432857Y-112653628D01*
X155432857Y-112653628D02*
X155051905Y-112653628D01*
X156575714Y-113129819D02*
X156004286Y-113129819D01*
X156290000Y-113129819D02*
X156290000Y-112129819D01*
X156290000Y-112129819D02*
X156194762Y-112272676D01*
X156194762Y-112272676D02*
X156099524Y-112367914D01*
X156099524Y-112367914D02*
X156004286Y-112415533D01*
X177266666Y-92899819D02*
X177266666Y-93614104D01*
X177266666Y-93614104D02*
X177219047Y-93756961D01*
X177219047Y-93756961D02*
X177123809Y-93852200D01*
X177123809Y-93852200D02*
X176980952Y-93899819D01*
X176980952Y-93899819D02*
X176885714Y-93899819D01*
X178171428Y-93233152D02*
X178171428Y-93899819D01*
X177933333Y-92852200D02*
X177695238Y-93566485D01*
X177695238Y-93566485D02*
X178314285Y-93566485D01*
X177116666Y-100499819D02*
X177116666Y-101214104D01*
X177116666Y-101214104D02*
X177069047Y-101356961D01*
X177069047Y-101356961D02*
X176973809Y-101452200D01*
X176973809Y-101452200D02*
X176830952Y-101499819D01*
X176830952Y-101499819D02*
X176735714Y-101499819D01*
X177497619Y-100499819D02*
X178116666Y-100499819D01*
X178116666Y-100499819D02*
X177783333Y-100880771D01*
X177783333Y-100880771D02*
X177926190Y-100880771D01*
X177926190Y-100880771D02*
X178021428Y-100928390D01*
X178021428Y-100928390D02*
X178069047Y-100976009D01*
X178069047Y-100976009D02*
X178116666Y-101071247D01*
X178116666Y-101071247D02*
X178116666Y-101309342D01*
X178116666Y-101309342D02*
X178069047Y-101404580D01*
X178069047Y-101404580D02*
X178021428Y-101452200D01*
X178021428Y-101452200D02*
X177926190Y-101499819D01*
X177926190Y-101499819D02*
X177640476Y-101499819D01*
X177640476Y-101499819D02*
X177545238Y-101452200D01*
X177545238Y-101452200D02*
X177497619Y-101404580D01*
X149516666Y-93699819D02*
X149516666Y-94414104D01*
X149516666Y-94414104D02*
X149469047Y-94556961D01*
X149469047Y-94556961D02*
X149373809Y-94652200D01*
X149373809Y-94652200D02*
X149230952Y-94699819D01*
X149230952Y-94699819D02*
X149135714Y-94699819D01*
X149945238Y-93795057D02*
X149992857Y-93747438D01*
X149992857Y-93747438D02*
X150088095Y-93699819D01*
X150088095Y-93699819D02*
X150326190Y-93699819D01*
X150326190Y-93699819D02*
X150421428Y-93747438D01*
X150421428Y-93747438D02*
X150469047Y-93795057D01*
X150469047Y-93795057D02*
X150516666Y-93890295D01*
X150516666Y-93890295D02*
X150516666Y-93985533D01*
X150516666Y-93985533D02*
X150469047Y-94128390D01*
X150469047Y-94128390D02*
X149897619Y-94699819D01*
X149897619Y-94699819D02*
X150516666Y-94699819D01*
X149791666Y-101354819D02*
X149791666Y-102069104D01*
X149791666Y-102069104D02*
X149744047Y-102211961D01*
X149744047Y-102211961D02*
X149648809Y-102307200D01*
X149648809Y-102307200D02*
X149505952Y-102354819D01*
X149505952Y-102354819D02*
X149410714Y-102354819D01*
X150791666Y-102354819D02*
X150220238Y-102354819D01*
X150505952Y-102354819D02*
X150505952Y-101354819D01*
X150505952Y-101354819D02*
X150410714Y-101497676D01*
X150410714Y-101497676D02*
X150315476Y-101592914D01*
X150315476Y-101592914D02*
X150220238Y-101640533D01*
X165233333Y-113459580D02*
X165185714Y-113507200D01*
X165185714Y-113507200D02*
X165042857Y-113554819D01*
X165042857Y-113554819D02*
X164947619Y-113554819D01*
X164947619Y-113554819D02*
X164804762Y-113507200D01*
X164804762Y-113507200D02*
X164709524Y-113411961D01*
X164709524Y-113411961D02*
X164661905Y-113316723D01*
X164661905Y-113316723D02*
X164614286Y-113126247D01*
X164614286Y-113126247D02*
X164614286Y-112983390D01*
X164614286Y-112983390D02*
X164661905Y-112792914D01*
X164661905Y-112792914D02*
X164709524Y-112697676D01*
X164709524Y-112697676D02*
X164804762Y-112602438D01*
X164804762Y-112602438D02*
X164947619Y-112554819D01*
X164947619Y-112554819D02*
X165042857Y-112554819D01*
X165042857Y-112554819D02*
X165185714Y-112602438D01*
X165185714Y-112602438D02*
X165233333Y-112650057D01*
X166185714Y-113554819D02*
X165614286Y-113554819D01*
X165900000Y-113554819D02*
X165900000Y-112554819D01*
X165900000Y-112554819D02*
X165804762Y-112697676D01*
X165804762Y-112697676D02*
X165709524Y-112792914D01*
X165709524Y-112792914D02*
X165614286Y-112840533D01*
D11*
%TO.C,U1*%
X161490000Y-96630000D02*
X161490000Y-106910000D01*
X161490000Y-106910000D02*
X166790000Y-106910000D01*
X163140000Y-96630000D02*
X161490000Y-96630000D01*
X166790000Y-96630000D02*
X165140000Y-96630000D01*
X166790000Y-106910000D02*
X166790000Y-96630000D01*
X165140000Y-96630000D02*
G75*
G02*
X163140000Y-96630000I-1000000J0D01*
G01*
%TO.C,R4*%
X170880000Y-109130000D02*
X177420000Y-109130000D01*
X170880000Y-109460000D02*
X170880000Y-109130000D01*
X170880000Y-111540000D02*
X170880000Y-111870000D01*
X170880000Y-111870000D02*
X177420000Y-111870000D01*
X177420000Y-109130000D02*
X177420000Y-109460000D01*
X177420000Y-111870000D02*
X177420000Y-111540000D01*
%TO.C,R3*%
X173670000Y-99080000D02*
X173670000Y-105620000D01*
X173340000Y-99080000D02*
X173670000Y-99080000D01*
X171260000Y-99080000D02*
X170930000Y-99080000D01*
X170930000Y-99080000D02*
X170930000Y-105620000D01*
X173670000Y-105620000D02*
X173340000Y-105620000D01*
X170930000Y-105620000D02*
X171260000Y-105620000D01*
%TO.C,R2*%
X154355000Y-106195000D02*
X154355000Y-99655000D01*
X154685000Y-106195000D02*
X154355000Y-106195000D01*
X156765000Y-106195000D02*
X157095000Y-106195000D01*
X157095000Y-106195000D02*
X157095000Y-99655000D01*
X154355000Y-99655000D02*
X154685000Y-99655000D01*
X157095000Y-99655000D02*
X156765000Y-99655000D01*
%TO.C,R1*%
X152395000Y-109055000D02*
X158935000Y-109055000D01*
X152395000Y-109385000D02*
X152395000Y-109055000D01*
X152395000Y-111465000D02*
X152395000Y-111795000D01*
X152395000Y-111795000D02*
X158935000Y-111795000D01*
X158935000Y-109055000D02*
X158935000Y-109385000D01*
X158935000Y-111795000D02*
X158935000Y-111465000D01*
%TO.C,J4*%
X176220000Y-94445000D02*
X177600000Y-94445000D01*
X176220000Y-95825000D02*
X176220000Y-94445000D01*
X176220000Y-97095000D02*
X176220000Y-99745000D01*
X176220000Y-97095000D02*
X178980000Y-97095000D01*
X176220000Y-99745000D02*
X178980000Y-99745000D01*
X178980000Y-97095000D02*
X178980000Y-99745000D01*
%TO.C,J3*%
X176070000Y-102045000D02*
X177450000Y-102045000D01*
X176070000Y-103425000D02*
X176070000Y-102045000D01*
X176070000Y-104695000D02*
X176070000Y-107345000D01*
X176070000Y-104695000D02*
X178830000Y-104695000D01*
X176070000Y-107345000D02*
X178830000Y-107345000D01*
X178830000Y-104695000D02*
X178830000Y-107345000D01*
%TO.C,J2*%
X148470000Y-95245000D02*
X149850000Y-95245000D01*
X148470000Y-96625000D02*
X148470000Y-95245000D01*
X148470000Y-97895000D02*
X148470000Y-100545000D01*
X148470000Y-97895000D02*
X151230000Y-97895000D01*
X148470000Y-100545000D02*
X151230000Y-100545000D01*
X151230000Y-97895000D02*
X151230000Y-100545000D01*
%TO.C,J1*%
X151505000Y-108205000D02*
X150125000Y-108205000D01*
X151505000Y-106825000D02*
X151505000Y-108205000D01*
X151505000Y-105555000D02*
X151505000Y-102905000D01*
X151505000Y-105555000D02*
X148745000Y-105555000D01*
X151505000Y-102905000D02*
X148745000Y-102905000D01*
X148745000Y-105555000D02*
X148745000Y-102905000D01*
%TO.C,C1*%
X167920000Y-111870000D02*
X162680000Y-111870000D01*
X167920000Y-111533000D02*
X167920000Y-111870000D01*
X167920000Y-109130000D02*
X167920000Y-109467000D01*
X162680000Y-111870000D02*
X162680000Y-111533000D01*
X162680000Y-109467000D02*
X162680000Y-109130000D01*
X162680000Y-109130000D02*
X167920000Y-109130000D01*
%TD*%
M02*
