M48
; DRILL file {KiCad 9.0.3} date 2026-07-30T12:44:31+0530
; FORMAT={-:-/ absolute / metric / decimal}
; #@! TF.CreationDate,2026-07-30T12:44:31+05:30
; #@! TF.GenerationSoftware,Kicad,Pcbnew,9.0.3
; #@! TF.FileFunction,Plated,1,2,PTH
FMAT,2
METRIC
; #@! TA.AperFunction,Plated,PTH,ComponentDrill
T1C0.800
; #@! TA.AperFunction,Plated,PTH,ComponentDrill
T2C1.000
%
G90
G05
T1
X151.855Y-110.425
X155.725Y-99.115
X155.725Y-106.735
X159.475Y-110.425
X160.33Y-97.96
X160.33Y-100.5
X160.33Y-103.04
X160.33Y-105.58
X162.8Y-110.5
X167.8Y-110.5
X167.95Y-97.96
X167.95Y-100.5
X167.95Y-103.04
X167.95Y-105.58
X170.34Y-110.5
X172.3Y-98.54
X172.3Y-106.16
X177.96Y-110.5
T2
X149.85Y-96.625
X149.85Y-99.165
X150.125Y-104.285
X150.125Y-106.825
X177.45Y-103.425
X177.45Y-105.965
X177.6Y-95.825
X177.6Y-98.365
M30
