%TF.GenerationSoftware,KiCad,Pcbnew,9.0.3*%
%TF.CreationDate,2026-07-21T13:18:27+05:30*%
%TF.ProjectId,03_Relay_Driver,30335f52-656c-4617-995f-447269766572,rev?*%
%TF.SameCoordinates,Original*%
%TF.FileFunction,Copper,L2,Bot*%
%TF.FilePolarity,Positive*%
%FSLAX46Y46*%
G04 Gerber Fmt 4.6, Leading zero omitted, Abs format (unit mm)*
G04 Created by KiCad (PCBNEW 9.0.3) date 2026-07-21 13:18:27*
%MOMM*%
%LPD*%
G01*
G04 APERTURE LIST*
G04 Aperture macros list*
%AMRoundRect*
0 Rectangle with rounded corners*
0 $1 Rounding radius*
0 $2 $3 $4 $5 $6 $7 $8 $9 X,Y pos of 4 corners*
0 Add a 4 corners polygon primitive as box body*
4,1,4,$2,$3,$4,$5,$6,$7,$8,$9,$2,$3,0*
0 Add four circle primitives for the rounded corners*
1,1,$1+$1,$2,$3*
1,1,$1+$1,$4,$5*
1,1,$1+$1,$6,$7*
1,1,$1+$1,$8,$9*
0 Add four rect primitives between the rounded corners*
20,1,$1+$1,$2,$3,$4,$5,0*
20,1,$1+$1,$4,$5,$6,$7,0*
20,1,$1+$1,$6,$7,$8,$9,0*
20,1,$1+$1,$8,$9,$2,$3,0*%
G04 Aperture macros list end*
%TA.AperFunction,NonConductor*%
%ADD10C,0.200000*%
%TD*%
%TA.AperFunction,ComponentPad*%
%ADD11C,3.000000*%
%TD*%
%TA.AperFunction,ComponentPad*%
%ADD12C,2.500000*%
%TD*%
%TA.AperFunction,ComponentPad*%
%ADD13R,1.700000X1.700000*%
%TD*%
%TA.AperFunction,ComponentPad*%
%ADD14C,1.700000*%
%TD*%
%TA.AperFunction,ComponentPad*%
%ADD15RoundRect,0.250000X1.050000X-1.050000X1.050000X1.050000X-1.050000X1.050000X-1.050000X-1.050000X0*%
%TD*%
%TA.AperFunction,ComponentPad*%
%ADD16C,2.600000*%
%TD*%
%TA.AperFunction,Conductor*%
%ADD17C,0.200000*%
%TD*%
G04 APERTURE END LIST*
D10*
X70500000Y-84000000D02*
X133000000Y-84000000D01*
X133000000Y-113500000D01*
X70500000Y-113500000D01*
X70500000Y-84000000D01*
D11*
%TO.P,K1,1*%
%TO.N,/NO*%
X97750000Y-99775000D03*
D12*
%TO.P,K1,2*%
%TO.N,Net-(D1-A)*%
X99700000Y-105825000D03*
D11*
%TO.P,K1,3*%
%TO.N,/COM*%
X111900000Y-105825000D03*
%TO.P,K1,4*%
%TO.N,/NC*%
X111950000Y-93775000D03*
D12*
%TO.P,K1,5*%
%TO.N,+5V*%
X99700000Y-93825000D03*
%TD*%
D13*
%TO.P,J2,1,Pin_1*%
%TO.N,+5V*%
X74425000Y-97445000D03*
D14*
%TO.P,J2,2,Pin_2*%
%TO.N,/RELAY_IN*%
X74425000Y-99985000D03*
%TO.P,J2,3,Pin_3*%
%TO.N,GND*%
X74425000Y-102525000D03*
%TD*%
D15*
%TO.P,J1,1,Pin_1*%
%TO.N,/COM*%
X124575000Y-104805000D03*
D16*
%TO.P,J1,2,Pin_2*%
%TO.N,/NO*%
X124575000Y-99725000D03*
%TO.P,J1,3,Pin_3*%
%TO.N,/NC*%
X124575000Y-94645000D03*
%TD*%
D17*
%TO.N,/NC*%
X123705000Y-93775000D02*
X124575000Y-94645000D01*
X111950000Y-93775000D02*
X123705000Y-93775000D01*
%TO.N,/COM*%
X123555000Y-105825000D02*
X124575000Y-104805000D01*
X111900000Y-105825000D02*
X123555000Y-105825000D01*
%TO.N,/NO*%
X124525000Y-99775000D02*
X124575000Y-99725000D01*
X97750000Y-99775000D02*
X124525000Y-99775000D01*
%TD*%
%TA.AperFunction,NonConductor*%
G36*
X131442539Y-85520185D02*
G01*
X131488294Y-85572989D01*
X131499500Y-85624500D01*
X131499500Y-111875500D01*
X131479815Y-111942539D01*
X131427011Y-111988294D01*
X131375500Y-111999500D01*
X72124500Y-111999500D01*
X72057461Y-111979815D01*
X72011706Y-111927011D01*
X72000500Y-111875500D01*
X72000500Y-105710258D01*
X97949500Y-105710258D01*
X97949500Y-105939741D01*
X97974446Y-106129215D01*
X97979452Y-106167238D01*
X97981354Y-106174336D01*
X98038842Y-106388887D01*
X98126650Y-106600876D01*
X98126657Y-106600890D01*
X98241392Y-106799617D01*
X98381081Y-106981661D01*
X98381089Y-106981670D01*
X98543330Y-107143911D01*
X98543338Y-107143918D01*
X98725382Y-107283607D01*
X98725385Y-107283608D01*
X98725388Y-107283611D01*
X98924112Y-107398344D01*
X98924117Y-107398346D01*
X98924123Y-107398349D01*
X99015480Y-107436190D01*
X99136113Y-107486158D01*
X99357762Y-107545548D01*
X99585266Y-107575500D01*
X99585273Y-107575500D01*
X99814727Y-107575500D01*
X99814734Y-107575500D01*
X100042238Y-107545548D01*
X100263887Y-107486158D01*
X100475888Y-107398344D01*
X100674612Y-107283611D01*
X100856661Y-107143919D01*
X100856665Y-107143914D01*
X100856670Y-107143911D01*
X101018911Y-106981670D01*
X101018914Y-106981665D01*
X101018919Y-106981661D01*
X101158611Y-106799612D01*
X101273344Y-106600888D01*
X101361158Y-106388887D01*
X101420548Y-106167238D01*
X101450500Y-105939734D01*
X101450500Y-105710266D01*
X101448342Y-105693872D01*
X109899500Y-105693872D01*
X109899500Y-105956127D01*
X109926123Y-106158339D01*
X109933730Y-106216116D01*
X109995785Y-106447710D01*
X110001602Y-106469418D01*
X110001605Y-106469428D01*
X110101953Y-106711690D01*
X110101958Y-106711700D01*
X110233075Y-106938803D01*
X110392718Y-107146851D01*
X110392726Y-107146860D01*
X110578140Y-107332274D01*
X110578148Y-107332281D01*
X110786196Y-107491924D01*
X111013299Y-107623041D01*
X111013309Y-107623046D01*
X111255571Y-107723394D01*
X111255581Y-107723398D01*
X111508884Y-107791270D01*
X111768880Y-107825500D01*
X111768887Y-107825500D01*
X112031113Y-107825500D01*
X112031120Y-107825500D01*
X112291116Y-107791270D01*
X112544419Y-107723398D01*
X112786697Y-107623043D01*
X113013803Y-107491924D01*
X113221851Y-107332282D01*
X113221855Y-107332277D01*
X113221860Y-107332274D01*
X113407274Y-107146860D01*
X113407277Y-107146855D01*
X113407282Y-107146851D01*
X113566924Y-106938803D01*
X113698043Y-106711697D01*
X113784883Y-106502046D01*
X113828724Y-106447644D01*
X113895018Y-106425579D01*
X113899444Y-106425500D01*
X122985166Y-106425500D01*
X123050262Y-106443961D01*
X123205659Y-106539810D01*
X123205660Y-106539810D01*
X123205666Y-106539814D01*
X123372203Y-106594999D01*
X123474991Y-106605500D01*
X125675008Y-106605499D01*
X125777797Y-106594999D01*
X125944334Y-106539814D01*
X126093656Y-106447712D01*
X126217712Y-106323656D01*
X126309814Y-106174334D01*
X126364999Y-106007797D01*
X126375500Y-105905009D01*
X126375499Y-103704992D01*
X126364999Y-103602203D01*
X126309814Y-103435666D01*
X126217712Y-103286344D01*
X126093656Y-103162288D01*
X125944334Y-103070186D01*
X125777797Y-103015001D01*
X125777795Y-103015000D01*
X125675010Y-103004500D01*
X123474998Y-103004500D01*
X123474981Y-103004501D01*
X123372203Y-103015000D01*
X123372200Y-103015001D01*
X123205668Y-103070185D01*
X123205663Y-103070187D01*
X123056342Y-103162289D01*
X122932289Y-103286342D01*
X122840187Y-103435663D01*
X122840186Y-103435666D01*
X122785001Y-103602203D01*
X122785001Y-103602204D01*
X122785000Y-103602204D01*
X122774500Y-103704983D01*
X122774500Y-103704996D01*
X122774501Y-105100500D01*
X122754816Y-105167539D01*
X122702013Y-105213294D01*
X122650501Y-105224500D01*
X113899444Y-105224500D01*
X113832405Y-105204815D01*
X113786650Y-105152011D01*
X113784883Y-105147953D01*
X113743946Y-105049123D01*
X113698043Y-104938303D01*
X113647282Y-104850382D01*
X113566924Y-104711196D01*
X113407281Y-104503148D01*
X113407274Y-104503140D01*
X113221860Y-104317726D01*
X113221851Y-104317718D01*
X113013803Y-104158075D01*
X112786700Y-104026958D01*
X112786690Y-104026953D01*
X112544428Y-103926605D01*
X112544421Y-103926603D01*
X112544419Y-103926602D01*
X112291116Y-103858730D01*
X112233339Y-103851123D01*
X112031127Y-103824500D01*
X112031120Y-103824500D01*
X111768880Y-103824500D01*
X111768872Y-103824500D01*
X111537772Y-103854926D01*
X111508884Y-103858730D01*
X111255581Y-103926602D01*
X111255571Y-103926605D01*
X111013309Y-104026953D01*
X111013299Y-104026958D01*
X110786196Y-104158075D01*
X110578148Y-104317718D01*
X110392718Y-104503148D01*
X110233075Y-104711196D01*
X110101958Y-104938299D01*
X110101953Y-104938309D01*
X110001605Y-105180571D01*
X110001602Y-105180581D01*
X109933730Y-105433885D01*
X109899500Y-105693872D01*
X101448342Y-105693872D01*
X101420548Y-105482762D01*
X101361158Y-105261113D01*
X101273344Y-105049112D01*
X101158611Y-104850388D01*
X101158608Y-104850385D01*
X101158607Y-104850382D01*
X101018918Y-104668338D01*
X101018911Y-104668330D01*
X100856670Y-104506089D01*
X100856661Y-104506081D01*
X100674617Y-104366392D01*
X100475890Y-104251657D01*
X100475876Y-104251650D01*
X100263887Y-104163842D01*
X100242364Y-104158075D01*
X100042238Y-104104452D01*
X100004215Y-104099446D01*
X99814741Y-104074500D01*
X99814734Y-104074500D01*
X99585266Y-104074500D01*
X99585258Y-104074500D01*
X99368715Y-104103009D01*
X99357762Y-104104452D01*
X99264076Y-104129554D01*
X99136112Y-104163842D01*
X98924123Y-104251650D01*
X98924109Y-104251657D01*
X98725382Y-104366392D01*
X98543338Y-104506081D01*
X98381081Y-104668338D01*
X98241392Y-104850382D01*
X98126657Y-105049109D01*
X98126650Y-105049123D01*
X98038842Y-105261112D01*
X97979453Y-105482759D01*
X97979451Y-105482770D01*
X97949500Y-105710258D01*
X72000500Y-105710258D01*
X72000500Y-96547135D01*
X73074500Y-96547135D01*
X73074500Y-98342870D01*
X73074501Y-98342876D01*
X73080908Y-98402483D01*
X73131202Y-98537328D01*
X73131206Y-98537335D01*
X73217452Y-98652544D01*
X73217455Y-98652547D01*
X73332664Y-98738793D01*
X73332671Y-98738797D01*
X73464082Y-98787810D01*
X73520016Y-98829681D01*
X73544433Y-98895145D01*
X73529582Y-98963418D01*
X73508431Y-98991673D01*
X73394889Y-99105215D01*
X73269951Y-99277179D01*
X73173444Y-99466585D01*
X73107753Y-99668760D01*
X73074500Y-99878713D01*
X73074500Y-100091286D01*
X73086351Y-100166114D01*
X73107754Y-100301243D01*
X73156753Y-100452047D01*
X73173444Y-100503414D01*
X73269951Y-100692820D01*
X73394890Y-100864786D01*
X73545213Y-101015109D01*
X73717182Y-101140050D01*
X73725946Y-101144516D01*
X73776742Y-101192491D01*
X73793536Y-101260312D01*
X73770998Y-101326447D01*
X73725946Y-101365484D01*
X73717182Y-101369949D01*
X73545213Y-101494890D01*
X73394890Y-101645213D01*
X73269951Y-101817179D01*
X73173444Y-102006585D01*
X73107753Y-102208760D01*
X73074500Y-102418713D01*
X73074500Y-102631287D01*
X73107754Y-102841243D01*
X73164211Y-103015000D01*
X73173444Y-103043414D01*
X73269951Y-103232820D01*
X73394890Y-103404786D01*
X73545213Y-103555109D01*
X73717179Y-103680048D01*
X73717181Y-103680049D01*
X73717184Y-103680051D01*
X73906588Y-103776557D01*
X74108757Y-103842246D01*
X74318713Y-103875500D01*
X74318714Y-103875500D01*
X74531286Y-103875500D01*
X74531287Y-103875500D01*
X74741243Y-103842246D01*
X74943412Y-103776557D01*
X75132816Y-103680051D01*
X75239964Y-103602204D01*
X75304786Y-103555109D01*
X75304788Y-103555106D01*
X75304792Y-103555104D01*
X75455104Y-103404792D01*
X75455106Y-103404788D01*
X75455109Y-103404786D01*
X75580048Y-103232820D01*
X75580047Y-103232820D01*
X75580051Y-103232816D01*
X75676557Y-103043412D01*
X75742246Y-102841243D01*
X75775500Y-102631287D01*
X75775500Y-102418713D01*
X75742246Y-102208757D01*
X75676557Y-102006588D01*
X75580051Y-101817184D01*
X75580049Y-101817181D01*
X75580048Y-101817179D01*
X75455109Y-101645213D01*
X75304786Y-101494890D01*
X75132820Y-101369951D01*
X75132115Y-101369591D01*
X75124054Y-101365485D01*
X75073259Y-101317512D01*
X75056463Y-101249692D01*
X75078999Y-101183556D01*
X75124054Y-101144515D01*
X75132816Y-101140051D01*
X75213277Y-101081593D01*
X75304786Y-101015109D01*
X75304788Y-101015106D01*
X75304792Y-101015104D01*
X75455104Y-100864792D01*
X75455106Y-100864788D01*
X75455109Y-100864786D01*
X75580048Y-100692820D01*
X75580047Y-100692820D01*
X75580051Y-100692816D01*
X75676557Y-100503412D01*
X75742246Y-100301243D01*
X75775500Y-100091287D01*
X75775500Y-99878713D01*
X75742246Y-99668757D01*
X75734160Y-99643872D01*
X95749500Y-99643872D01*
X95749500Y-99906127D01*
X95771999Y-100077010D01*
X95783730Y-100166116D01*
X95851602Y-100419418D01*
X95851605Y-100419428D01*
X95951953Y-100661690D01*
X95951958Y-100661700D01*
X96083075Y-100888803D01*
X96242718Y-101096851D01*
X96242726Y-101096860D01*
X96428140Y-101282274D01*
X96428148Y-101282281D01*
X96636196Y-101441924D01*
X96863299Y-101573041D01*
X96863309Y-101573046D01*
X97105571Y-101673394D01*
X97105581Y-101673398D01*
X97358884Y-101741270D01*
X97618880Y-101775500D01*
X97618887Y-101775500D01*
X97881113Y-101775500D01*
X97881120Y-101775500D01*
X98141116Y-101741270D01*
X98394419Y-101673398D01*
X98636697Y-101573043D01*
X98863803Y-101441924D01*
X99071851Y-101282282D01*
X99071855Y-101282277D01*
X99071860Y-101282274D01*
X99257274Y-101096860D01*
X99257277Y-101096855D01*
X99257282Y-101096851D01*
X99416924Y-100888803D01*
X99548043Y-100661697D01*
X99634883Y-100452046D01*
X99678724Y-100397644D01*
X99745018Y-100375579D01*
X99749444Y-100375500D01*
X122812745Y-100375500D01*
X122879784Y-100395185D01*
X122925539Y-100447989D01*
X122927306Y-100452048D01*
X122956711Y-100523040D01*
X122956719Y-100523056D01*
X123027677Y-100645957D01*
X123074727Y-100727450D01*
X123074729Y-100727453D01*
X123074730Y-100727454D01*
X123218406Y-100914697D01*
X123218412Y-100914704D01*
X123385295Y-101081587D01*
X123385302Y-101081593D01*
X123461482Y-101140048D01*
X123572550Y-101225273D01*
X123703918Y-101301118D01*
X123776943Y-101343280D01*
X123776948Y-101343282D01*
X123776951Y-101343284D01*
X123995007Y-101433606D01*
X124222986Y-101494693D01*
X124456989Y-101525500D01*
X124456996Y-101525500D01*
X124693004Y-101525500D01*
X124693011Y-101525500D01*
X124927014Y-101494693D01*
X125154993Y-101433606D01*
X125373049Y-101343284D01*
X125577450Y-101225273D01*
X125764699Y-101081592D01*
X125931592Y-100914699D01*
X126075273Y-100727450D01*
X126193284Y-100523049D01*
X126283606Y-100304993D01*
X126344693Y-100077014D01*
X126375500Y-99843011D01*
X126375500Y-99606989D01*
X126344693Y-99372986D01*
X126283606Y-99145007D01*
X126193284Y-98926951D01*
X126193282Y-98926948D01*
X126193280Y-98926943D01*
X126137125Y-98829681D01*
X126075273Y-98722550D01*
X125933150Y-98537331D01*
X125931593Y-98535302D01*
X125931587Y-98535295D01*
X125764704Y-98368412D01*
X125764697Y-98368406D01*
X125577454Y-98224730D01*
X125577453Y-98224729D01*
X125577450Y-98224727D01*
X125495957Y-98177677D01*
X125373056Y-98106719D01*
X125373045Y-98106714D01*
X125154993Y-98016394D01*
X125007816Y-97976958D01*
X124927014Y-97955307D01*
X124927013Y-97955306D01*
X124927010Y-97955306D01*
X124693020Y-97924501D01*
X124693017Y-97924500D01*
X124693011Y-97924500D01*
X124456989Y-97924500D01*
X124456983Y-97924500D01*
X124456979Y-97924501D01*
X124222989Y-97955306D01*
X123995006Y-98016394D01*
X123776954Y-98106714D01*
X123776943Y-98106719D01*
X123572545Y-98224730D01*
X123385302Y-98368406D01*
X123385295Y-98368412D01*
X123218412Y-98535295D01*
X123218406Y-98535302D01*
X123074730Y-98722545D01*
X122956719Y-98926943D01*
X122956711Y-98926959D01*
X122885885Y-99097952D01*
X122842044Y-99152356D01*
X122775750Y-99174421D01*
X122771324Y-99174500D01*
X99749444Y-99174500D01*
X99682405Y-99154815D01*
X99636650Y-99102011D01*
X99634883Y-99097953D01*
X99590860Y-98991673D01*
X99548043Y-98888303D01*
X99548041Y-98888299D01*
X99416924Y-98661196D01*
X99257281Y-98453148D01*
X99257274Y-98453140D01*
X99071860Y-98267726D01*
X99071851Y-98267718D01*
X98863803Y-98108075D01*
X98636700Y-97976958D01*
X98636690Y-97976953D01*
X98394428Y-97876605D01*
X98394421Y-97876603D01*
X98394419Y-97876602D01*
X98141116Y-97808730D01*
X98083339Y-97801123D01*
X97881127Y-97774500D01*
X97881120Y-97774500D01*
X97618880Y-97774500D01*
X97618872Y-97774500D01*
X97387772Y-97804926D01*
X97358884Y-97808730D01*
X97105581Y-97876602D01*
X97105571Y-97876605D01*
X96863309Y-97976953D01*
X96863299Y-97976958D01*
X96636196Y-98108075D01*
X96428148Y-98267718D01*
X96242718Y-98453148D01*
X96083075Y-98661196D01*
X95951958Y-98888299D01*
X95951953Y-98888309D01*
X95851605Y-99130571D01*
X95851602Y-99130581D01*
X95786650Y-99372989D01*
X95783730Y-99383885D01*
X95749500Y-99643872D01*
X75734160Y-99643872D01*
X75676557Y-99466588D01*
X75580051Y-99277184D01*
X75580049Y-99277181D01*
X75580048Y-99277179D01*
X75455109Y-99105213D01*
X75341569Y-98991673D01*
X75308084Y-98930350D01*
X75313068Y-98860658D01*
X75354940Y-98804725D01*
X75385915Y-98787810D01*
X75517331Y-98738796D01*
X75632546Y-98652546D01*
X75718796Y-98537331D01*
X75769091Y-98402483D01*
X75775500Y-98342873D01*
X75775499Y-96547128D01*
X75769091Y-96487517D01*
X75741929Y-96414693D01*
X75718797Y-96352671D01*
X75718793Y-96352664D01*
X75632547Y-96237455D01*
X75632544Y-96237452D01*
X75517335Y-96151206D01*
X75517328Y-96151202D01*
X75382482Y-96100908D01*
X75382483Y-96100908D01*
X75322883Y-96094501D01*
X75322881Y-96094500D01*
X75322873Y-96094500D01*
X75322864Y-96094500D01*
X73527129Y-96094500D01*
X73527123Y-96094501D01*
X73467516Y-96100908D01*
X73332671Y-96151202D01*
X73332664Y-96151206D01*
X73217455Y-96237452D01*
X73217452Y-96237455D01*
X73131206Y-96352664D01*
X73131202Y-96352671D01*
X73080908Y-96487517D01*
X73074501Y-96547116D01*
X73074501Y-96547123D01*
X73074500Y-96547135D01*
X72000500Y-96547135D01*
X72000500Y-93710258D01*
X97949500Y-93710258D01*
X97949500Y-93939741D01*
X97974446Y-94129215D01*
X97979452Y-94167238D01*
X98035255Y-94375500D01*
X98038842Y-94388887D01*
X98126650Y-94600876D01*
X98126656Y-94600888D01*
X98220257Y-94763011D01*
X98241392Y-94799617D01*
X98381081Y-94981661D01*
X98381089Y-94981670D01*
X98543330Y-95143911D01*
X98543338Y-95143918D01*
X98725382Y-95283607D01*
X98725385Y-95283608D01*
X98725388Y-95283611D01*
X98924112Y-95398344D01*
X98924117Y-95398346D01*
X98924123Y-95398349D01*
X99015480Y-95436190D01*
X99136113Y-95486158D01*
X99357762Y-95545548D01*
X99585266Y-95575500D01*
X99585273Y-95575500D01*
X99814727Y-95575500D01*
X99814734Y-95575500D01*
X100042238Y-95545548D01*
X100263887Y-95486158D01*
X100475888Y-95398344D01*
X100674612Y-95283611D01*
X100856661Y-95143919D01*
X100856665Y-95143914D01*
X100856670Y-95143911D01*
X101018911Y-94981670D01*
X101018914Y-94981665D01*
X101018919Y-94981661D01*
X101158611Y-94799612D01*
X101273344Y-94600888D01*
X101361158Y-94388887D01*
X101420548Y-94167238D01*
X101450500Y-93939734D01*
X101450500Y-93710266D01*
X101447049Y-93684060D01*
X101443357Y-93656006D01*
X101441759Y-93643872D01*
X109949500Y-93643872D01*
X109949500Y-93906127D01*
X109953925Y-93939734D01*
X109983730Y-94166116D01*
X110051602Y-94419418D01*
X110051605Y-94419428D01*
X110151953Y-94661690D01*
X110151958Y-94661700D01*
X110283075Y-94888803D01*
X110442718Y-95096851D01*
X110442726Y-95096860D01*
X110628140Y-95282274D01*
X110628148Y-95282281D01*
X110836196Y-95441924D01*
X111063299Y-95573041D01*
X111063309Y-95573046D01*
X111305571Y-95673394D01*
X111305581Y-95673398D01*
X111558884Y-95741270D01*
X111818880Y-95775500D01*
X111818887Y-95775500D01*
X112081113Y-95775500D01*
X112081120Y-95775500D01*
X112341116Y-95741270D01*
X112594419Y-95673398D01*
X112771340Y-95600114D01*
X112836690Y-95573046D01*
X112836691Y-95573045D01*
X112836697Y-95573043D01*
X113063803Y-95441924D01*
X113271851Y-95282282D01*
X113271855Y-95282277D01*
X113271860Y-95282274D01*
X113457274Y-95096860D01*
X113457277Y-95096855D01*
X113457282Y-95096851D01*
X113616924Y-94888803D01*
X113748043Y-94661697D01*
X113834883Y-94452046D01*
X113878724Y-94397644D01*
X113945018Y-94375579D01*
X113949444Y-94375500D01*
X122653049Y-94375500D01*
X122720088Y-94395185D01*
X122765843Y-94447989D01*
X122775988Y-94515685D01*
X122774501Y-94526979D01*
X122774500Y-94526995D01*
X122774500Y-94763004D01*
X122774501Y-94763020D01*
X122805306Y-94997010D01*
X122866394Y-95224993D01*
X122956714Y-95443045D01*
X122956719Y-95443056D01*
X123015893Y-95545546D01*
X123074727Y-95647450D01*
X123074729Y-95647453D01*
X123074730Y-95647454D01*
X123218406Y-95834697D01*
X123218412Y-95834704D01*
X123385295Y-96001587D01*
X123385301Y-96001592D01*
X123572550Y-96145273D01*
X123703918Y-96221118D01*
X123776943Y-96263280D01*
X123776948Y-96263282D01*
X123776951Y-96263284D01*
X123995007Y-96353606D01*
X124222986Y-96414693D01*
X124456989Y-96445500D01*
X124456996Y-96445500D01*
X124693004Y-96445500D01*
X124693011Y-96445500D01*
X124927014Y-96414693D01*
X125154993Y-96353606D01*
X125373049Y-96263284D01*
X125577450Y-96145273D01*
X125764699Y-96001592D01*
X125931592Y-95834699D01*
X126075273Y-95647450D01*
X126193284Y-95443049D01*
X126283606Y-95224993D01*
X126344693Y-94997014D01*
X126375500Y-94763011D01*
X126375500Y-94526989D01*
X126344693Y-94292986D01*
X126283606Y-94065007D01*
X126193284Y-93846951D01*
X126193282Y-93846948D01*
X126193280Y-93846943D01*
X126114372Y-93710272D01*
X126075273Y-93642550D01*
X125931592Y-93455301D01*
X125931587Y-93455295D01*
X125764704Y-93288412D01*
X125764697Y-93288406D01*
X125577454Y-93144730D01*
X125577453Y-93144729D01*
X125577450Y-93144727D01*
X125495957Y-93097677D01*
X125373056Y-93026719D01*
X125373045Y-93026714D01*
X125154993Y-92936394D01*
X124975538Y-92888309D01*
X124927014Y-92875307D01*
X124927013Y-92875306D01*
X124927010Y-92875306D01*
X124693020Y-92844501D01*
X124693017Y-92844500D01*
X124693011Y-92844500D01*
X124456989Y-92844500D01*
X124456983Y-92844500D01*
X124456979Y-92844501D01*
X124222989Y-92875306D01*
X123995006Y-92936394D01*
X123776954Y-93026714D01*
X123776943Y-93026719D01*
X123572543Y-93144731D01*
X123567145Y-93148874D01*
X123501977Y-93174070D01*
X123491657Y-93174500D01*
X113949444Y-93174500D01*
X113882405Y-93154815D01*
X113836650Y-93102011D01*
X113834883Y-93097953D01*
X113805377Y-93026719D01*
X113748043Y-92888303D01*
X113740540Y-92875307D01*
X113616924Y-92661196D01*
X113457281Y-92453148D01*
X113457274Y-92453140D01*
X113271860Y-92267726D01*
X113271851Y-92267718D01*
X113063803Y-92108075D01*
X112836700Y-91976958D01*
X112836690Y-91976953D01*
X112594428Y-91876605D01*
X112594421Y-91876603D01*
X112594419Y-91876602D01*
X112341116Y-91808730D01*
X112283339Y-91801123D01*
X112081127Y-91774500D01*
X112081120Y-91774500D01*
X111818880Y-91774500D01*
X111818872Y-91774500D01*
X111587772Y-91804926D01*
X111558884Y-91808730D01*
X111305581Y-91876602D01*
X111305571Y-91876605D01*
X111063309Y-91976953D01*
X111063299Y-91976958D01*
X110836196Y-92108075D01*
X110628148Y-92267718D01*
X110442718Y-92453148D01*
X110283075Y-92661196D01*
X110151958Y-92888299D01*
X110151953Y-92888309D01*
X110051605Y-93130571D01*
X110051602Y-93130581D01*
X110016627Y-93261112D01*
X109983730Y-93383885D01*
X109949500Y-93643872D01*
X101441759Y-93643872D01*
X101435158Y-93593740D01*
X101420548Y-93482762D01*
X101361158Y-93261113D01*
X101273344Y-93049112D01*
X101158611Y-92850388D01*
X101158608Y-92850385D01*
X101158607Y-92850382D01*
X101018918Y-92668338D01*
X101018911Y-92668330D01*
X100856670Y-92506089D01*
X100856661Y-92506081D01*
X100674617Y-92366392D01*
X100475890Y-92251657D01*
X100475876Y-92251650D01*
X100263887Y-92163842D01*
X100042238Y-92104452D01*
X100004215Y-92099446D01*
X99814741Y-92074500D01*
X99814734Y-92074500D01*
X99585266Y-92074500D01*
X99585258Y-92074500D01*
X99368715Y-92103009D01*
X99357762Y-92104452D01*
X99264076Y-92129554D01*
X99136112Y-92163842D01*
X98924123Y-92251650D01*
X98924109Y-92251657D01*
X98725382Y-92366392D01*
X98543338Y-92506081D01*
X98381081Y-92668338D01*
X98241392Y-92850382D01*
X98126657Y-93049109D01*
X98126650Y-93049123D01*
X98038842Y-93261112D01*
X97979453Y-93482759D01*
X97979451Y-93482770D01*
X97949500Y-93710258D01*
X72000500Y-93710258D01*
X72000500Y-85624500D01*
X72020185Y-85557461D01*
X72072989Y-85511706D01*
X72124500Y-85500500D01*
X131375500Y-85500500D01*
X131442539Y-85520185D01*
G37*
%TD.AperFunction*%
M02*
