%TF.GenerationSoftware,KiCad,Pcbnew,9.0.3*%
%TF.CreationDate,2026-07-28T14:52:53+05:30*%
%TF.ProjectId,09_Comparator,30395f43-6f6d-4706-9172-61746f722e6b,rev?*%
%TF.SameCoordinates,Original*%
%TF.FileFunction,Legend,Top*%
%TF.FilePolarity,Positive*%
%FSLAX46Y46*%
G04 Gerber Fmt 4.6, Leading zero omitted, Abs format (unit mm)*
G04 Created by KiCad (PCBNEW 9.0.3) date 2026-07-28 14:52:53*
%MOMM*%
%LPD*%
G01*
G04 APERTURE LIST*
%ADD10C,0.150000*%
%ADD11C,0.120000*%
G04 APERTURE END LIST*
D10*
X186046666Y-111554819D02*
X186046666Y-112269104D01*
X186046666Y-112269104D02*
X185999047Y-112411961D01*
X185999047Y-112411961D02*
X185903809Y-112507200D01*
X185903809Y-112507200D02*
X185760952Y-112554819D01*
X185760952Y-112554819D02*
X185665714Y-112554819D01*
X187046666Y-112554819D02*
X186475238Y-112554819D01*
X186760952Y-112554819D02*
X186760952Y-111554819D01*
X186760952Y-111554819D02*
X186665714Y-111697676D01*
X186665714Y-111697676D02*
X186570476Y-111792914D01*
X186570476Y-111792914D02*
X186475238Y-111840533D01*
X178803095Y-127619819D02*
X178803095Y-128429342D01*
X178803095Y-128429342D02*
X178850714Y-128524580D01*
X178850714Y-128524580D02*
X178898333Y-128572200D01*
X178898333Y-128572200D02*
X178993571Y-128619819D01*
X178993571Y-128619819D02*
X179184047Y-128619819D01*
X179184047Y-128619819D02*
X179279285Y-128572200D01*
X179279285Y-128572200D02*
X179326904Y-128524580D01*
X179326904Y-128524580D02*
X179374523Y-128429342D01*
X179374523Y-128429342D02*
X179374523Y-127619819D01*
X180374523Y-128619819D02*
X179803095Y-128619819D01*
X180088809Y-128619819D02*
X180088809Y-127619819D01*
X180088809Y-127619819D02*
X179993571Y-127762676D01*
X179993571Y-127762676D02*
X179898333Y-127857914D01*
X179898333Y-127857914D02*
X179803095Y-127905533D01*
X164804761Y-129954819D02*
X164471428Y-129478628D01*
X164233333Y-129954819D02*
X164233333Y-128954819D01*
X164233333Y-128954819D02*
X164614285Y-128954819D01*
X164614285Y-128954819D02*
X164709523Y-129002438D01*
X164709523Y-129002438D02*
X164757142Y-129050057D01*
X164757142Y-129050057D02*
X164804761Y-129145295D01*
X164804761Y-129145295D02*
X164804761Y-129288152D01*
X164804761Y-129288152D02*
X164757142Y-129383390D01*
X164757142Y-129383390D02*
X164709523Y-129431009D01*
X164709523Y-129431009D02*
X164614285Y-129478628D01*
X164614285Y-129478628D02*
X164233333Y-129478628D01*
X165090476Y-128954819D02*
X165423809Y-129954819D01*
X165423809Y-129954819D02*
X165757142Y-128954819D01*
X166614285Y-129954819D02*
X166042857Y-129954819D01*
X166328571Y-129954819D02*
X166328571Y-128954819D01*
X166328571Y-128954819D02*
X166233333Y-129097676D01*
X166233333Y-129097676D02*
X166138095Y-129192914D01*
X166138095Y-129192914D02*
X166042857Y-129240533D01*
X191368333Y-128524819D02*
X191035000Y-128048628D01*
X190796905Y-128524819D02*
X190796905Y-127524819D01*
X190796905Y-127524819D02*
X191177857Y-127524819D01*
X191177857Y-127524819D02*
X191273095Y-127572438D01*
X191273095Y-127572438D02*
X191320714Y-127620057D01*
X191320714Y-127620057D02*
X191368333Y-127715295D01*
X191368333Y-127715295D02*
X191368333Y-127858152D01*
X191368333Y-127858152D02*
X191320714Y-127953390D01*
X191320714Y-127953390D02*
X191273095Y-128001009D01*
X191273095Y-128001009D02*
X191177857Y-128048628D01*
X191177857Y-128048628D02*
X190796905Y-128048628D01*
X191749286Y-127620057D02*
X191796905Y-127572438D01*
X191796905Y-127572438D02*
X191892143Y-127524819D01*
X191892143Y-127524819D02*
X192130238Y-127524819D01*
X192130238Y-127524819D02*
X192225476Y-127572438D01*
X192225476Y-127572438D02*
X192273095Y-127620057D01*
X192273095Y-127620057D02*
X192320714Y-127715295D01*
X192320714Y-127715295D02*
X192320714Y-127810533D01*
X192320714Y-127810533D02*
X192273095Y-127953390D01*
X192273095Y-127953390D02*
X191701667Y-128524819D01*
X191701667Y-128524819D02*
X192320714Y-128524819D01*
X191383333Y-117334819D02*
X191050000Y-116858628D01*
X190811905Y-117334819D02*
X190811905Y-116334819D01*
X190811905Y-116334819D02*
X191192857Y-116334819D01*
X191192857Y-116334819D02*
X191288095Y-116382438D01*
X191288095Y-116382438D02*
X191335714Y-116430057D01*
X191335714Y-116430057D02*
X191383333Y-116525295D01*
X191383333Y-116525295D02*
X191383333Y-116668152D01*
X191383333Y-116668152D02*
X191335714Y-116763390D01*
X191335714Y-116763390D02*
X191288095Y-116811009D01*
X191288095Y-116811009D02*
X191192857Y-116858628D01*
X191192857Y-116858628D02*
X190811905Y-116858628D01*
X192335714Y-117334819D02*
X191764286Y-117334819D01*
X192050000Y-117334819D02*
X192050000Y-116334819D01*
X192050000Y-116334819D02*
X191954762Y-116477676D01*
X191954762Y-116477676D02*
X191859524Y-116572914D01*
X191859524Y-116572914D02*
X191764286Y-116620533D01*
X192211666Y-111704819D02*
X192211666Y-112419104D01*
X192211666Y-112419104D02*
X192164047Y-112561961D01*
X192164047Y-112561961D02*
X192068809Y-112657200D01*
X192068809Y-112657200D02*
X191925952Y-112704819D01*
X191925952Y-112704819D02*
X191830714Y-112704819D01*
X192592619Y-111704819D02*
X193211666Y-111704819D01*
X193211666Y-111704819D02*
X192878333Y-112085771D01*
X192878333Y-112085771D02*
X193021190Y-112085771D01*
X193021190Y-112085771D02*
X193116428Y-112133390D01*
X193116428Y-112133390D02*
X193164047Y-112181009D01*
X193164047Y-112181009D02*
X193211666Y-112276247D01*
X193211666Y-112276247D02*
X193211666Y-112514342D01*
X193211666Y-112514342D02*
X193164047Y-112609580D01*
X193164047Y-112609580D02*
X193116428Y-112657200D01*
X193116428Y-112657200D02*
X193021190Y-112704819D01*
X193021190Y-112704819D02*
X192735476Y-112704819D01*
X192735476Y-112704819D02*
X192640238Y-112657200D01*
X192640238Y-112657200D02*
X192592619Y-112609580D01*
X201816905Y-126964819D02*
X201816905Y-125964819D01*
X201816905Y-125964819D02*
X202055000Y-125964819D01*
X202055000Y-125964819D02*
X202197857Y-126012438D01*
X202197857Y-126012438D02*
X202293095Y-126107676D01*
X202293095Y-126107676D02*
X202340714Y-126202914D01*
X202340714Y-126202914D02*
X202388333Y-126393390D01*
X202388333Y-126393390D02*
X202388333Y-126536247D01*
X202388333Y-126536247D02*
X202340714Y-126726723D01*
X202340714Y-126726723D02*
X202293095Y-126821961D01*
X202293095Y-126821961D02*
X202197857Y-126917200D01*
X202197857Y-126917200D02*
X202055000Y-126964819D01*
X202055000Y-126964819D02*
X201816905Y-126964819D01*
X203340714Y-126964819D02*
X202769286Y-126964819D01*
X203055000Y-126964819D02*
X203055000Y-125964819D01*
X203055000Y-125964819D02*
X202959762Y-126107676D01*
X202959762Y-126107676D02*
X202864524Y-126202914D01*
X202864524Y-126202914D02*
X202769286Y-126250533D01*
D11*
%TO.C,J1*%
X182730000Y-113480000D02*
X180080000Y-113480000D01*
X180080000Y-110720000D02*
X180080000Y-113480000D01*
X182730000Y-110720000D02*
X182730000Y-113480000D01*
X182730000Y-110720000D02*
X180080000Y-110720000D01*
X184000000Y-110720000D02*
X185380000Y-110720000D01*
X185380000Y-110720000D02*
X185380000Y-112100000D01*
%TO.C,U1*%
X181815000Y-127165000D02*
X181815000Y-116885000D01*
X181815000Y-116885000D02*
X177315000Y-116885000D01*
X180565000Y-127165000D02*
X181815000Y-127165000D01*
X177315000Y-127165000D02*
X178565000Y-127165000D01*
X177315000Y-116885000D02*
X177315000Y-127165000D01*
X178565000Y-127165000D02*
G75*
G02*
X180565000Y-127165000I1000000J0D01*
G01*
%TO.C,RV1*%
X170570000Y-126871000D02*
X170570000Y-125550000D01*
X170570000Y-126871000D02*
X166633000Y-126871000D01*
X170570000Y-123100000D02*
X170570000Y-122720000D01*
X170570000Y-120979000D02*
X170570000Y-120220000D01*
X170570000Y-118480000D02*
X170570000Y-116830000D01*
X170570000Y-116830000D02*
X166633000Y-116830000D01*
X162266000Y-126871000D02*
X158330000Y-126871000D01*
X162266000Y-116830000D02*
X158330000Y-116830000D01*
X158330000Y-126871000D02*
X158330000Y-116830000D01*
%TO.C,R2*%
X194805000Y-127070000D02*
X188265000Y-127070000D01*
X194805000Y-126740000D02*
X194805000Y-127070000D01*
X194805000Y-124660000D02*
X194805000Y-124330000D01*
X194805000Y-124330000D02*
X188265000Y-124330000D01*
X188265000Y-127070000D02*
X188265000Y-126740000D01*
X188265000Y-124330000D02*
X188265000Y-124660000D01*
%TO.C,R1*%
X188280000Y-117880000D02*
X194820000Y-117880000D01*
X188280000Y-118210000D02*
X188280000Y-117880000D01*
X188280000Y-120290000D02*
X188280000Y-120620000D01*
X188280000Y-120620000D02*
X194820000Y-120620000D01*
X194820000Y-117880000D02*
X194820000Y-118210000D01*
X194820000Y-120620000D02*
X194820000Y-120290000D01*
%TO.C,J3*%
X193545000Y-113630000D02*
X193545000Y-112250000D01*
X194925000Y-113630000D02*
X193545000Y-113630000D01*
X196195000Y-113630000D02*
X198845000Y-113630000D01*
X196195000Y-113630000D02*
X196195000Y-110870000D01*
X198845000Y-113630000D02*
X198845000Y-110870000D01*
X196195000Y-110870000D02*
X198845000Y-110870000D01*
%TO.C,D1*%
X205115000Y-124095000D02*
X205115000Y-121005000D01*
X205115000Y-124094830D02*
G75*
G02*
X199565000Y-122550000I-2560000J1544830D01*
G01*
X199565000Y-122550000D02*
G75*
G02*
X205115000Y-121005170I2990000J0D01*
G01*
X205055000Y-122550000D02*
G75*
G02*
X200055000Y-122550000I-2500000J0D01*
G01*
X200055000Y-122550000D02*
G75*
G02*
X205055000Y-122550000I2500000J0D01*
G01*
%TD*%
M02*
