%TF.GenerationSoftware,KiCad,Pcbnew,9.0.3*%
%TF.CreationDate,2026-07-28T14:52:53+05:30*%
%TF.ProjectId,09_Comparator,30395f43-6f6d-4706-9172-61746f722e6b,rev?*%
%TF.SameCoordinates,Original*%
%TF.FileFunction,Copper,L1,Top*%
%TF.FilePolarity,Positive*%
%FSLAX46Y46*%
G04 Gerber Fmt 4.6, Leading zero omitted, Abs format (unit mm)*
G04 Created by KiCad (PCBNEW 9.0.3) date 2026-07-28 14:52:53*
%MOMM*%
%LPD*%
G01*
G04 APERTURE LIST*
G04 Aperture macros list*
%AMRoundRect*
0 Rectangle with rounded corners*
0 $1 Rounding radius*
0 $2 $3 $4 $5 $6 $7 $8 $9 X,Y pos of 4 corners*
0 Add a 4 corners polygon primitive as box body*
4,1,4,$2,$3,$4,$5,$6,$7,$8,$9,$2,$3,0*
0 Add four circle primitives for the rounded corners*
1,1,$1+$1,$2,$3*
1,1,$1+$1,$4,$5*
1,1,$1+$1,$6,$7*
1,1,$1+$1,$8,$9*
0 Add four rect primitives between the rounded corners*
20,1,$1+$1,$2,$3,$4,$5,0*
20,1,$1+$1,$4,$5,$6,$7,0*
20,1,$1+$1,$6,$7,$8,$9,0*
20,1,$1+$1,$8,$9,$2,$3,0*%
G04 Aperture macros list end*
%TA.AperFunction,NonConductor*%
%ADD10C,0.200000*%
%TD*%
%TA.AperFunction,ComponentPad*%
%ADD11C,1.700000*%
%TD*%
%TA.AperFunction,ComponentPad*%
%ADD12R,1.700000X1.700000*%
%TD*%
%TA.AperFunction,ComponentPad*%
%ADD13RoundRect,0.250000X0.950000X0.550000X-0.950000X0.550000X-0.950000X-0.550000X0.950000X-0.550000X0*%
%TD*%
%TA.AperFunction,ComponentPad*%
%ADD14O,2.400000X1.600000*%
%TD*%
%TA.AperFunction,ComponentPad*%
%ADD15R,1.800000X1.800000*%
%TD*%
%TA.AperFunction,ComponentPad*%
%ADD16C,1.800000*%
%TD*%
%TA.AperFunction,ComponentPad*%
%ADD17RoundRect,0.750000X1.250000X0.750000X-1.250000X0.750000X-1.250000X-0.750000X1.250000X-0.750000X0*%
%TD*%
%TA.AperFunction,ComponentPad*%
%ADD18C,1.600000*%
%TD*%
G04 APERTURE END LIST*
D10*
X155000000Y-107000000D02*
X208500000Y-107000000D01*
X208500000Y-133000000D01*
X155000000Y-133000000D01*
X155000000Y-107000000D01*
D11*
%TO.P,J1,2,Pin_2*%
%TO.N,GND*%
X181460000Y-112100000D03*
D12*
%TO.P,J1,1,Pin_1*%
%TO.N,/INPUT*%
X184000000Y-112100000D03*
%TD*%
D13*
%TO.P,U1,1*%
%TO.N,/OUTPUT*%
X183375000Y-125835000D03*
D14*
%TO.P,U1,2,-*%
%TO.N,Net-(U1A--)*%
X183375000Y-123295000D03*
%TO.P,U1,3,+*%
%TO.N,/INPUT*%
X183375000Y-120755000D03*
%TO.P,U1,4,V-*%
%TO.N,GND*%
X183375000Y-118215000D03*
%TO.P,U1,5,+*%
%TO.N,unconnected-(U1B-+-Pad5)*%
X175755000Y-118215000D03*
%TO.P,U1,6,-*%
%TO.N,unconnected-(U1B---Pad6)*%
X175755000Y-120755000D03*
%TO.P,U1,7*%
%TO.N,unconnected-(U1-Pad7)*%
X175755000Y-123295000D03*
%TO.P,U1,8,V+*%
%TO.N,+5V*%
X175755000Y-125835000D03*
%TD*%
D15*
%TO.P,RV1,1,1*%
%TO.N,+5V*%
X171450000Y-124350000D03*
D16*
%TO.P,RV1,2,2*%
%TO.N,Net-(U1A--)*%
X171450000Y-121850000D03*
%TO.P,RV1,3,3*%
%TO.N,GND*%
X171450000Y-119350000D03*
D17*
%TO.P,RV1,MP*%
%TO.N,N/C*%
X164450000Y-126250000D03*
X164450000Y-117450000D03*
%TD*%
D18*
%TO.P,R2,1*%
%TO.N,+5V*%
X195345000Y-125700000D03*
%TO.P,R2,2*%
%TO.N,/OUTPUT*%
X187725000Y-125700000D03*
%TD*%
%TO.P,R1,1*%
%TO.N,/OUTPUT*%
X187740000Y-119250000D03*
%TO.P,R1,2*%
%TO.N,Net-(D1-A)*%
X195360000Y-119250000D03*
%TD*%
D12*
%TO.P,J3,1,Pin_1*%
%TO.N,/OUTPUT*%
X194925000Y-112250000D03*
D11*
%TO.P,J3,2,Pin_2*%
%TO.N,GND*%
X197465000Y-112250000D03*
%TD*%
D15*
%TO.P,D1,1,K*%
%TO.N,GND*%
X203825000Y-122550000D03*
D16*
%TO.P,D1,2,A*%
%TO.N,Net-(D1-A)*%
X201285000Y-122550000D03*
%TD*%
%TA.AperFunction,NonConductor*%
G36*
X205942539Y-109520185D02*
G01*
X205988294Y-109572989D01*
X205999500Y-109624500D01*
X205999500Y-130375500D01*
X205979815Y-130442539D01*
X205927011Y-130488294D01*
X205875500Y-130499500D01*
X157624500Y-130499500D01*
X157557461Y-130479815D01*
X157511706Y-130427011D01*
X157500500Y-130375500D01*
X157500500Y-125435777D01*
X161949500Y-125435777D01*
X161949500Y-127064208D01*
X161949501Y-127064223D01*
X161959904Y-127196413D01*
X161959905Y-127196420D01*
X162014902Y-127414678D01*
X162014903Y-127414681D01*
X162107991Y-127619622D01*
X162107997Y-127619632D01*
X162236174Y-127804645D01*
X162236178Y-127804650D01*
X162236181Y-127804654D01*
X162395346Y-127963819D01*
X162395350Y-127963822D01*
X162395354Y-127963825D01*
X162534603Y-128060297D01*
X162580374Y-128092007D01*
X162785317Y-128185096D01*
X162785321Y-128185097D01*
X163003579Y-128240094D01*
X163003581Y-128240094D01*
X163003588Y-128240096D01*
X163135783Y-128250500D01*
X165764216Y-128250499D01*
X165896412Y-128240096D01*
X166114683Y-128185096D01*
X166319626Y-128092007D01*
X166504654Y-127963819D01*
X166663819Y-127804654D01*
X166792007Y-127619626D01*
X166885096Y-127414683D01*
X166940096Y-127196412D01*
X166950500Y-127064217D01*
X166950499Y-125435784D01*
X166940096Y-125303588D01*
X166938658Y-125297883D01*
X166885097Y-125085321D01*
X166885096Y-125085318D01*
X166854694Y-125018386D01*
X166792007Y-124880374D01*
X166747645Y-124816342D01*
X166663825Y-124695354D01*
X166663822Y-124695350D01*
X166663819Y-124695346D01*
X166504654Y-124536181D01*
X166504650Y-124536178D01*
X166504645Y-124536174D01*
X166319632Y-124407997D01*
X166319630Y-124407995D01*
X166319626Y-124407993D01*
X166114683Y-124314904D01*
X166114681Y-124314903D01*
X166114678Y-124314902D01*
X165896420Y-124259905D01*
X165896413Y-124259904D01*
X165852347Y-124256436D01*
X165764217Y-124249500D01*
X165764215Y-124249500D01*
X163135791Y-124249500D01*
X163135776Y-124249501D01*
X163003586Y-124259904D01*
X163003579Y-124259905D01*
X162785321Y-124314902D01*
X162785318Y-124314903D01*
X162580377Y-124407991D01*
X162580367Y-124407997D01*
X162395354Y-124536174D01*
X162395342Y-124536184D01*
X162236184Y-124695342D01*
X162236174Y-124695354D01*
X162107997Y-124880367D01*
X162107991Y-124880377D01*
X162014903Y-125085318D01*
X162014902Y-125085321D01*
X161959905Y-125303579D01*
X161959904Y-125303586D01*
X161949500Y-125435777D01*
X157500500Y-125435777D01*
X157500500Y-116635777D01*
X161949500Y-116635777D01*
X161949500Y-118264208D01*
X161949501Y-118264223D01*
X161959904Y-118396413D01*
X161959905Y-118396420D01*
X162014902Y-118614678D01*
X162014903Y-118614681D01*
X162107991Y-118819622D01*
X162107997Y-118819632D01*
X162236174Y-119004645D01*
X162236178Y-119004650D01*
X162236181Y-119004654D01*
X162395346Y-119163819D01*
X162395350Y-119163822D01*
X162395354Y-119163825D01*
X162457632Y-119206971D01*
X162580374Y-119292007D01*
X162785317Y-119385096D01*
X162785321Y-119385097D01*
X163003579Y-119440094D01*
X163003581Y-119440094D01*
X163003588Y-119440096D01*
X163135783Y-119450500D01*
X165764216Y-119450499D01*
X165896412Y-119440096D01*
X166114683Y-119385096D01*
X166319626Y-119292007D01*
X166395014Y-119239778D01*
X170049500Y-119239778D01*
X170049500Y-119460222D01*
X170053666Y-119486523D01*
X170083985Y-119677952D01*
X170152103Y-119887603D01*
X170152104Y-119887606D01*
X170252187Y-120084025D01*
X170381752Y-120262358D01*
X170381756Y-120262363D01*
X170537636Y-120418243D01*
X170537641Y-120418247D01*
X170649727Y-120499682D01*
X170692393Y-120555011D01*
X170698372Y-120624625D01*
X170665767Y-120686420D01*
X170649727Y-120700318D01*
X170537641Y-120781752D01*
X170537636Y-120781756D01*
X170381756Y-120937636D01*
X170381752Y-120937641D01*
X170252187Y-121115974D01*
X170152104Y-121312393D01*
X170152103Y-121312396D01*
X170083985Y-121522047D01*
X170049500Y-121739778D01*
X170049500Y-121960221D01*
X170083985Y-122177952D01*
X170152103Y-122387603D01*
X170152104Y-122387606D01*
X170252187Y-122584025D01*
X170381752Y-122762358D01*
X170381756Y-122762363D01*
X170402794Y-122783401D01*
X170436279Y-122844724D01*
X170431295Y-122914416D01*
X170389423Y-122970349D01*
X170358448Y-122987263D01*
X170307674Y-123006201D01*
X170307664Y-123006206D01*
X170192455Y-123092452D01*
X170192452Y-123092455D01*
X170106206Y-123207664D01*
X170106202Y-123207671D01*
X170055908Y-123342517D01*
X170050013Y-123397351D01*
X170049501Y-123402123D01*
X170049500Y-123402135D01*
X170049500Y-125297870D01*
X170049501Y-125297876D01*
X170055908Y-125357483D01*
X170106202Y-125492328D01*
X170106206Y-125492335D01*
X170192452Y-125607544D01*
X170192455Y-125607547D01*
X170307664Y-125693793D01*
X170307671Y-125693797D01*
X170442517Y-125744091D01*
X170442516Y-125744091D01*
X170449444Y-125744835D01*
X170502127Y-125750500D01*
X172397872Y-125750499D01*
X172457483Y-125744091D01*
X172592331Y-125693796D01*
X172707546Y-125607546D01*
X172793796Y-125492331D01*
X172844091Y-125357483D01*
X172850500Y-125297873D01*
X172850499Y-123402128D01*
X172844091Y-123342517D01*
X172793796Y-123207669D01*
X172793795Y-123207668D01*
X172793793Y-123207664D01*
X172707547Y-123092455D01*
X172707544Y-123092452D01*
X172592335Y-123006206D01*
X172592329Y-123006203D01*
X172541552Y-122987264D01*
X172485619Y-122945392D01*
X172461202Y-122879927D01*
X172476054Y-122811655D01*
X172497206Y-122783401D01*
X172518242Y-122762365D01*
X172647815Y-122584022D01*
X172747895Y-122387606D01*
X172816015Y-122177951D01*
X172850500Y-121960222D01*
X172850500Y-121739778D01*
X172816015Y-121522049D01*
X172778850Y-121407664D01*
X172747896Y-121312396D01*
X172747895Y-121312393D01*
X172693787Y-121206202D01*
X172647815Y-121115978D01*
X172606806Y-121059534D01*
X172518247Y-120937641D01*
X172518243Y-120937636D01*
X172362365Y-120781758D01*
X172362357Y-120781752D01*
X172250270Y-120700317D01*
X172207606Y-120644989D01*
X172201627Y-120575376D01*
X172234232Y-120513580D01*
X172250265Y-120499686D01*
X172362365Y-120418242D01*
X172518242Y-120262365D01*
X172647815Y-120084022D01*
X172747895Y-119887606D01*
X172816015Y-119677951D01*
X172850500Y-119460222D01*
X172850500Y-119239778D01*
X172816015Y-119022049D01*
X172750245Y-118819626D01*
X172747896Y-118812396D01*
X172747895Y-118812393D01*
X172697872Y-118714219D01*
X172647815Y-118615978D01*
X172577745Y-118519534D01*
X172518247Y-118437641D01*
X172518243Y-118437636D01*
X172362363Y-118281756D01*
X172362358Y-118281752D01*
X172260976Y-118208094D01*
X172184025Y-118152187D01*
X172184024Y-118152186D01*
X172184022Y-118152185D01*
X172106427Y-118112648D01*
X174054500Y-118112648D01*
X174054500Y-118317351D01*
X174086522Y-118519534D01*
X174149781Y-118714223D01*
X174242715Y-118896613D01*
X174363028Y-119062213D01*
X174507786Y-119206971D01*
X174624832Y-119292008D01*
X174673390Y-119327287D01*
X174764840Y-119373883D01*
X174766080Y-119374515D01*
X174816876Y-119422490D01*
X174833671Y-119490311D01*
X174811134Y-119556446D01*
X174766080Y-119595485D01*
X174673386Y-119642715D01*
X174507786Y-119763028D01*
X174363028Y-119907786D01*
X174242715Y-120073386D01*
X174149781Y-120255776D01*
X174086522Y-120450465D01*
X174054500Y-120652648D01*
X174054500Y-120857351D01*
X174086522Y-121059534D01*
X174149781Y-121254223D01*
X174242715Y-121436613D01*
X174363028Y-121602213D01*
X174507786Y-121746971D01*
X174662749Y-121859556D01*
X174673390Y-121867287D01*
X174764840Y-121913883D01*
X174766080Y-121914515D01*
X174816876Y-121962490D01*
X174833671Y-122030311D01*
X174811134Y-122096446D01*
X174766080Y-122135485D01*
X174673386Y-122182715D01*
X174507786Y-122303028D01*
X174363028Y-122447786D01*
X174242715Y-122613386D01*
X174149781Y-122795776D01*
X174086522Y-122990465D01*
X174070369Y-123092454D01*
X174054500Y-123192648D01*
X174054500Y-123397352D01*
X174055257Y-123402129D01*
X174086522Y-123599534D01*
X174149781Y-123794223D01*
X174211838Y-123916014D01*
X174229409Y-123950500D01*
X174242715Y-123976613D01*
X174363028Y-124142213D01*
X174507786Y-124286971D01*
X174662672Y-124399500D01*
X174673390Y-124407287D01*
X174764840Y-124453883D01*
X174766080Y-124454515D01*
X174816876Y-124502490D01*
X174833671Y-124570311D01*
X174811134Y-124636446D01*
X174766080Y-124675485D01*
X174673386Y-124722715D01*
X174507786Y-124843028D01*
X174363028Y-124987786D01*
X174242715Y-125153386D01*
X174149781Y-125335776D01*
X174086522Y-125530465D01*
X174054500Y-125732648D01*
X174054500Y-125937351D01*
X174086522Y-126139534D01*
X174149781Y-126334223D01*
X174242715Y-126516613D01*
X174363028Y-126682213D01*
X174507786Y-126826971D01*
X174615489Y-126905220D01*
X174673390Y-126947287D01*
X174777826Y-127000500D01*
X174855776Y-127040218D01*
X174855778Y-127040218D01*
X174855781Y-127040220D01*
X174929633Y-127064216D01*
X175050465Y-127103477D01*
X175151557Y-127119488D01*
X175252648Y-127135500D01*
X175252649Y-127135500D01*
X176257351Y-127135500D01*
X176257352Y-127135500D01*
X176459534Y-127103477D01*
X176654219Y-127040220D01*
X176836610Y-126947287D01*
X176965482Y-126853657D01*
X177002213Y-126826971D01*
X177002215Y-126826968D01*
X177002219Y-126826966D01*
X177146966Y-126682219D01*
X177146968Y-126682215D01*
X177146971Y-126682213D01*
X177245048Y-126547219D01*
X177267287Y-126516610D01*
X177360220Y-126334219D01*
X177423477Y-126139534D01*
X177455500Y-125937352D01*
X177455500Y-125732648D01*
X177435686Y-125607547D01*
X177423477Y-125530465D01*
X177379613Y-125395466D01*
X177360220Y-125335781D01*
X177360218Y-125335778D01*
X177360218Y-125335776D01*
X177308865Y-125234991D01*
X177267287Y-125153390D01*
X177251892Y-125132200D01*
X177146971Y-124987786D01*
X177002213Y-124843028D01*
X176836614Y-124722715D01*
X176807789Y-124708028D01*
X176743917Y-124675483D01*
X176693123Y-124627511D01*
X176676328Y-124559690D01*
X176698865Y-124493555D01*
X176743917Y-124454516D01*
X176836610Y-124407287D01*
X176908550Y-124355020D01*
X177002213Y-124286971D01*
X177002215Y-124286968D01*
X177002219Y-124286966D01*
X177146966Y-124142219D01*
X177146968Y-124142215D01*
X177146971Y-124142213D01*
X177199732Y-124069590D01*
X177267287Y-123976610D01*
X177360220Y-123794219D01*
X177423477Y-123599534D01*
X177455500Y-123397352D01*
X177455500Y-123192648D01*
X177423477Y-122990466D01*
X177422436Y-122987263D01*
X177386919Y-122877951D01*
X177360220Y-122795781D01*
X177360218Y-122795778D01*
X177360218Y-122795776D01*
X177291149Y-122660222D01*
X177267287Y-122613390D01*
X177190568Y-122507794D01*
X177146971Y-122447786D01*
X177002213Y-122303028D01*
X176836614Y-122182715D01*
X176827264Y-122177951D01*
X176743917Y-122135483D01*
X176693123Y-122087511D01*
X176676328Y-122019690D01*
X176698865Y-121953555D01*
X176743917Y-121914516D01*
X176836610Y-121867287D01*
X176857770Y-121851913D01*
X177002213Y-121746971D01*
X177002215Y-121746968D01*
X177002219Y-121746966D01*
X177146966Y-121602219D01*
X177146968Y-121602215D01*
X177146971Y-121602213D01*
X177205214Y-121522047D01*
X177267287Y-121436610D01*
X177360220Y-121254219D01*
X177423477Y-121059534D01*
X177455500Y-120857352D01*
X177455500Y-120652648D01*
X177434249Y-120518477D01*
X177423477Y-120450465D01*
X177362359Y-120262365D01*
X177360220Y-120255781D01*
X177360218Y-120255778D01*
X177360218Y-120255776D01*
X177326503Y-120189607D01*
X177267287Y-120073390D01*
X177259556Y-120062749D01*
X177146971Y-119907786D01*
X177002213Y-119763028D01*
X176836614Y-119642715D01*
X176830006Y-119639348D01*
X176743917Y-119595483D01*
X176693123Y-119547511D01*
X176676328Y-119479690D01*
X176698865Y-119413555D01*
X176743917Y-119374516D01*
X176836610Y-119327287D01*
X176957057Y-119239778D01*
X177002213Y-119206971D01*
X177002215Y-119206968D01*
X177002219Y-119206966D01*
X177146966Y-119062219D01*
X177146968Y-119062215D01*
X177146971Y-119062213D01*
X177231792Y-118945465D01*
X177267287Y-118896610D01*
X177360220Y-118714219D01*
X177423477Y-118519534D01*
X177455500Y-118317352D01*
X177455500Y-118112648D01*
X181674500Y-118112648D01*
X181674500Y-118317351D01*
X181706522Y-118519534D01*
X181769781Y-118714223D01*
X181862715Y-118896613D01*
X181983028Y-119062213D01*
X182127786Y-119206971D01*
X182244832Y-119292008D01*
X182293390Y-119327287D01*
X182384840Y-119373883D01*
X182386080Y-119374515D01*
X182436876Y-119422490D01*
X182453671Y-119490311D01*
X182431134Y-119556446D01*
X182386080Y-119595485D01*
X182293386Y-119642715D01*
X182127786Y-119763028D01*
X181983028Y-119907786D01*
X181862715Y-120073386D01*
X181769781Y-120255776D01*
X181706522Y-120450465D01*
X181674500Y-120652648D01*
X181674500Y-120857351D01*
X181706522Y-121059534D01*
X181769781Y-121254223D01*
X181862715Y-121436613D01*
X181983028Y-121602213D01*
X182127786Y-121746971D01*
X182282749Y-121859556D01*
X182293390Y-121867287D01*
X182384840Y-121913883D01*
X182386080Y-121914515D01*
X182436876Y-121962490D01*
X182453671Y-122030311D01*
X182431134Y-122096446D01*
X182386080Y-122135485D01*
X182293386Y-122182715D01*
X182127786Y-122303028D01*
X181983028Y-122447786D01*
X181862715Y-122613386D01*
X181769781Y-122795776D01*
X181706522Y-122990465D01*
X181690369Y-123092454D01*
X181674500Y-123192648D01*
X181674500Y-123397352D01*
X181675257Y-123402129D01*
X181706522Y-123599534D01*
X181769781Y-123794223D01*
X181831838Y-123916014D01*
X181849409Y-123950500D01*
X181862715Y-123976613D01*
X181983028Y-124142213D01*
X181983034Y-124142219D01*
X182127781Y-124286966D01*
X182221452Y-124355021D01*
X182264117Y-124410350D01*
X182270096Y-124479963D01*
X182237491Y-124541759D01*
X182187571Y-124573045D01*
X182105666Y-124600186D01*
X182105663Y-124600187D01*
X181956342Y-124692289D01*
X181832289Y-124816342D01*
X181740187Y-124965663D01*
X181740186Y-124965666D01*
X181685001Y-125132203D01*
X181685001Y-125132204D01*
X181685000Y-125132204D01*
X181674500Y-125234983D01*
X181674500Y-126435001D01*
X181674501Y-126435018D01*
X181685000Y-126537796D01*
X181685001Y-126537799D01*
X181688121Y-126547213D01*
X181740186Y-126704334D01*
X181832288Y-126853656D01*
X181956344Y-126977712D01*
X182105666Y-127069814D01*
X182272203Y-127124999D01*
X182374991Y-127135500D01*
X184375008Y-127135499D01*
X184477797Y-127124999D01*
X184644334Y-127069814D01*
X184793656Y-126977712D01*
X184917712Y-126853656D01*
X185009814Y-126704334D01*
X185064999Y-126537797D01*
X185075500Y-126435009D01*
X185075499Y-125597648D01*
X186424500Y-125597648D01*
X186424500Y-125802351D01*
X186456522Y-126004534D01*
X186519781Y-126199223D01*
X186612715Y-126381613D01*
X186733028Y-126547213D01*
X186877786Y-126691971D01*
X187032749Y-126804556D01*
X187043390Y-126812287D01*
X187159607Y-126871503D01*
X187225776Y-126905218D01*
X187225778Y-126905218D01*
X187225781Y-126905220D01*
X187330137Y-126939127D01*
X187420465Y-126968477D01*
X187521557Y-126984488D01*
X187622648Y-127000500D01*
X187622649Y-127000500D01*
X187827351Y-127000500D01*
X187827352Y-127000500D01*
X188029534Y-126968477D01*
X188224219Y-126905220D01*
X188406610Y-126812287D01*
X188499590Y-126744732D01*
X188572213Y-126691971D01*
X188572215Y-126691968D01*
X188572219Y-126691966D01*
X188716966Y-126547219D01*
X188716968Y-126547215D01*
X188716971Y-126547213D01*
X188798484Y-126435018D01*
X188837287Y-126381610D01*
X188930220Y-126199219D01*
X188993477Y-126004534D01*
X189025500Y-125802352D01*
X189025500Y-125597648D01*
X194044500Y-125597648D01*
X194044500Y-125802351D01*
X194076522Y-126004534D01*
X194139781Y-126199223D01*
X194232715Y-126381613D01*
X194353028Y-126547213D01*
X194497786Y-126691971D01*
X194652749Y-126804556D01*
X194663390Y-126812287D01*
X194779607Y-126871503D01*
X194845776Y-126905218D01*
X194845778Y-126905218D01*
X194845781Y-126905220D01*
X194950137Y-126939127D01*
X195040465Y-126968477D01*
X195141557Y-126984488D01*
X195242648Y-127000500D01*
X195242649Y-127000500D01*
X195447351Y-127000500D01*
X195447352Y-127000500D01*
X195649534Y-126968477D01*
X195844219Y-126905220D01*
X196026610Y-126812287D01*
X196119590Y-126744732D01*
X196192213Y-126691971D01*
X196192215Y-126691968D01*
X196192219Y-126691966D01*
X196336966Y-126547219D01*
X196336968Y-126547215D01*
X196336971Y-126547213D01*
X196418484Y-126435018D01*
X196457287Y-126381610D01*
X196550220Y-126199219D01*
X196613477Y-126004534D01*
X196645500Y-125802352D01*
X196645500Y-125597648D01*
X196613477Y-125395466D01*
X196550220Y-125200781D01*
X196550218Y-125200778D01*
X196550218Y-125200776D01*
X196491390Y-125085321D01*
X196457287Y-125018390D01*
X196435052Y-124987786D01*
X196336971Y-124852786D01*
X196192213Y-124708028D01*
X196026613Y-124587715D01*
X196026612Y-124587714D01*
X196026610Y-124587713D01*
X195969653Y-124558691D01*
X195844223Y-124494781D01*
X195649534Y-124431522D01*
X195474995Y-124403878D01*
X195447352Y-124399500D01*
X195242648Y-124399500D01*
X195218329Y-124403351D01*
X195040465Y-124431522D01*
X194845776Y-124494781D01*
X194663386Y-124587715D01*
X194497786Y-124708028D01*
X194353028Y-124852786D01*
X194232715Y-125018386D01*
X194139781Y-125200776D01*
X194076522Y-125395465D01*
X194044500Y-125597648D01*
X189025500Y-125597648D01*
X188993477Y-125395466D01*
X188930220Y-125200781D01*
X188930218Y-125200778D01*
X188930218Y-125200776D01*
X188871390Y-125085321D01*
X188837287Y-125018390D01*
X188815052Y-124987786D01*
X188716971Y-124852786D01*
X188572213Y-124708028D01*
X188406613Y-124587715D01*
X188406612Y-124587714D01*
X188406610Y-124587713D01*
X188349653Y-124558691D01*
X188224223Y-124494781D01*
X188029534Y-124431522D01*
X187854995Y-124403878D01*
X187827352Y-124399500D01*
X187622648Y-124399500D01*
X187598329Y-124403351D01*
X187420465Y-124431522D01*
X187225776Y-124494781D01*
X187043386Y-124587715D01*
X186877786Y-124708028D01*
X186733028Y-124852786D01*
X186612715Y-125018386D01*
X186519781Y-125200776D01*
X186456522Y-125395465D01*
X186424500Y-125597648D01*
X185075499Y-125597648D01*
X185075499Y-125234992D01*
X185064999Y-125132203D01*
X185009814Y-124965666D01*
X184917712Y-124816344D01*
X184793656Y-124692288D01*
X184644334Y-124600186D01*
X184562427Y-124573044D01*
X184504984Y-124533272D01*
X184478161Y-124468756D01*
X184490476Y-124399980D01*
X184528547Y-124355021D01*
X184622219Y-124286966D01*
X184766966Y-124142219D01*
X184766968Y-124142215D01*
X184766971Y-124142213D01*
X184819732Y-124069590D01*
X184887287Y-123976610D01*
X184980220Y-123794219D01*
X185043477Y-123599534D01*
X185075500Y-123397352D01*
X185075500Y-123192648D01*
X185043477Y-122990466D01*
X185042436Y-122987263D01*
X185006919Y-122877951D01*
X184980220Y-122795781D01*
X184980218Y-122795778D01*
X184980218Y-122795776D01*
X184911149Y-122660222D01*
X184887287Y-122613390D01*
X184766966Y-122447781D01*
X184758963Y-122439778D01*
X199884500Y-122439778D01*
X199884500Y-122660221D01*
X199918985Y-122877952D01*
X199987103Y-123087603D01*
X199987104Y-123087606D01*
X200087187Y-123284025D01*
X200216752Y-123462358D01*
X200216756Y-123462363D01*
X200372636Y-123618243D01*
X200372641Y-123618247D01*
X200474606Y-123692328D01*
X200550978Y-123747815D01*
X200679375Y-123813237D01*
X200747393Y-123847895D01*
X200747396Y-123847896D01*
X200852221Y-123881955D01*
X200957049Y-123916015D01*
X201174778Y-123950500D01*
X201174779Y-123950500D01*
X201395221Y-123950500D01*
X201395222Y-123950500D01*
X201612951Y-123916015D01*
X201822606Y-123847895D01*
X202019022Y-123747815D01*
X202197365Y-123618242D01*
X202247536Y-123568070D01*
X202308857Y-123534586D01*
X202378548Y-123539570D01*
X202434482Y-123581441D01*
X202451398Y-123612419D01*
X202481202Y-123692328D01*
X202481206Y-123692335D01*
X202567452Y-123807544D01*
X202567455Y-123807547D01*
X202682664Y-123893793D01*
X202682671Y-123893797D01*
X202817517Y-123944091D01*
X202817516Y-123944091D01*
X202824444Y-123944835D01*
X202877127Y-123950500D01*
X204772872Y-123950499D01*
X204832483Y-123944091D01*
X204967331Y-123893796D01*
X205082546Y-123807546D01*
X205168796Y-123692331D01*
X205219091Y-123557483D01*
X205225500Y-123497873D01*
X205225499Y-121602128D01*
X205219091Y-121542517D01*
X205211456Y-121522047D01*
X205168797Y-121407671D01*
X205168793Y-121407664D01*
X205082547Y-121292455D01*
X205082544Y-121292452D01*
X204967335Y-121206206D01*
X204967328Y-121206202D01*
X204832482Y-121155908D01*
X204832483Y-121155908D01*
X204772883Y-121149501D01*
X204772881Y-121149500D01*
X204772873Y-121149500D01*
X204772864Y-121149500D01*
X202877129Y-121149500D01*
X202877123Y-121149501D01*
X202817516Y-121155908D01*
X202682671Y-121206202D01*
X202682664Y-121206206D01*
X202567455Y-121292452D01*
X202567452Y-121292455D01*
X202481206Y-121407664D01*
X202481203Y-121407669D01*
X202451398Y-121487581D01*
X202409526Y-121543514D01*
X202344062Y-121567931D01*
X202275789Y-121553079D01*
X202247535Y-121531928D01*
X202197363Y-121481756D01*
X202197358Y-121481752D01*
X202019025Y-121352187D01*
X202019024Y-121352186D01*
X202019022Y-121352185D01*
X201901791Y-121292452D01*
X201822606Y-121252104D01*
X201822603Y-121252103D01*
X201612952Y-121183985D01*
X201504086Y-121166742D01*
X201395222Y-121149500D01*
X201174778Y-121149500D01*
X201102201Y-121160995D01*
X200957047Y-121183985D01*
X200747396Y-121252103D01*
X200747393Y-121252104D01*
X200550974Y-121352187D01*
X200372641Y-121481752D01*
X200372636Y-121481756D01*
X200216756Y-121637636D01*
X200216752Y-121637641D01*
X200087187Y-121815974D01*
X199987104Y-122012393D01*
X199987103Y-122012396D01*
X199918985Y-122222047D01*
X199884500Y-122439778D01*
X184758963Y-122439778D01*
X184622219Y-122303034D01*
X184622213Y-122303028D01*
X184456614Y-122182715D01*
X184447264Y-122177951D01*
X184363917Y-122135483D01*
X184313123Y-122087511D01*
X184296328Y-122019690D01*
X184318865Y-121953555D01*
X184363917Y-121914516D01*
X184456610Y-121867287D01*
X184477770Y-121851913D01*
X184622213Y-121746971D01*
X184622215Y-121746968D01*
X184622219Y-121746966D01*
X184766966Y-121602219D01*
X184766968Y-121602215D01*
X184766971Y-121602213D01*
X184825214Y-121522047D01*
X184887287Y-121436610D01*
X184980220Y-121254219D01*
X185043477Y-121059534D01*
X185075500Y-120857352D01*
X185075500Y-120652648D01*
X185054249Y-120518477D01*
X185043477Y-120450465D01*
X184982359Y-120262365D01*
X184980220Y-120255781D01*
X184980218Y-120255778D01*
X184980218Y-120255776D01*
X184946503Y-120189607D01*
X184887287Y-120073390D01*
X184879556Y-120062749D01*
X184766971Y-119907786D01*
X184622213Y-119763028D01*
X184456614Y-119642715D01*
X184450006Y-119639348D01*
X184363917Y-119595483D01*
X184313123Y-119547511D01*
X184296328Y-119479690D01*
X184318865Y-119413555D01*
X184363917Y-119374516D01*
X184456610Y-119327287D01*
X184577057Y-119239778D01*
X184622213Y-119206971D01*
X184622215Y-119206968D01*
X184622219Y-119206966D01*
X184681537Y-119147648D01*
X186439500Y-119147648D01*
X186439500Y-119352351D01*
X186471522Y-119554534D01*
X186534781Y-119749223D01*
X186598691Y-119874653D01*
X186615571Y-119907781D01*
X186627715Y-119931613D01*
X186748028Y-120097213D01*
X186892786Y-120241971D01*
X187047749Y-120354556D01*
X187058390Y-120362287D01*
X187168206Y-120418241D01*
X187240776Y-120455218D01*
X187240778Y-120455218D01*
X187240781Y-120455220D01*
X187345137Y-120489127D01*
X187435465Y-120518477D01*
X187536557Y-120534488D01*
X187637648Y-120550500D01*
X187637649Y-120550500D01*
X187842351Y-120550500D01*
X187842352Y-120550500D01*
X188044534Y-120518477D01*
X188239219Y-120455220D01*
X188421610Y-120362287D01*
X188559152Y-120262358D01*
X188587213Y-120241971D01*
X188587215Y-120241968D01*
X188587219Y-120241966D01*
X188731966Y-120097219D01*
X188731968Y-120097215D01*
X188731971Y-120097213D01*
X188784732Y-120024590D01*
X188852287Y-119931610D01*
X188945220Y-119749219D01*
X189008477Y-119554534D01*
X189040500Y-119352352D01*
X189040500Y-119147648D01*
X194059500Y-119147648D01*
X194059500Y-119352351D01*
X194091522Y-119554534D01*
X194154781Y-119749223D01*
X194218691Y-119874653D01*
X194235571Y-119907781D01*
X194247715Y-119931613D01*
X194368028Y-120097213D01*
X194512786Y-120241971D01*
X194667749Y-120354556D01*
X194678390Y-120362287D01*
X194788206Y-120418241D01*
X194860776Y-120455218D01*
X194860778Y-120455218D01*
X194860781Y-120455220D01*
X194965137Y-120489127D01*
X195055465Y-120518477D01*
X195156557Y-120534488D01*
X195257648Y-120550500D01*
X195257649Y-120550500D01*
X195462351Y-120550500D01*
X195462352Y-120550500D01*
X195664534Y-120518477D01*
X195859219Y-120455220D01*
X196041610Y-120362287D01*
X196179152Y-120262358D01*
X196207213Y-120241971D01*
X196207215Y-120241968D01*
X196207219Y-120241966D01*
X196351966Y-120097219D01*
X196351968Y-120097215D01*
X196351971Y-120097213D01*
X196404732Y-120024590D01*
X196472287Y-119931610D01*
X196565220Y-119749219D01*
X196628477Y-119554534D01*
X196660500Y-119352352D01*
X196660500Y-119147648D01*
X196640607Y-119022049D01*
X196628477Y-118945465D01*
X196565218Y-118750776D01*
X196495873Y-118614681D01*
X196472287Y-118568390D01*
X196464556Y-118557749D01*
X196351971Y-118402786D01*
X196207213Y-118258028D01*
X196041613Y-118137715D01*
X196041612Y-118137714D01*
X196041610Y-118137713D01*
X195984653Y-118108691D01*
X195859223Y-118044781D01*
X195664534Y-117981522D01*
X195489995Y-117953878D01*
X195462352Y-117949500D01*
X195257648Y-117949500D01*
X195233329Y-117953351D01*
X195055465Y-117981522D01*
X194860776Y-118044781D01*
X194678386Y-118137715D01*
X194512786Y-118258028D01*
X194368028Y-118402786D01*
X194247715Y-118568386D01*
X194154781Y-118750776D01*
X194091522Y-118945465D01*
X194059500Y-119147648D01*
X189040500Y-119147648D01*
X189020607Y-119022049D01*
X189008477Y-118945465D01*
X188945218Y-118750776D01*
X188875873Y-118614681D01*
X188852287Y-118568390D01*
X188844556Y-118557749D01*
X188731971Y-118402786D01*
X188587213Y-118258028D01*
X188421613Y-118137715D01*
X188421612Y-118137714D01*
X188421610Y-118137713D01*
X188364653Y-118108691D01*
X188239223Y-118044781D01*
X188044534Y-117981522D01*
X187869995Y-117953878D01*
X187842352Y-117949500D01*
X187637648Y-117949500D01*
X187613329Y-117953351D01*
X187435465Y-117981522D01*
X187240776Y-118044781D01*
X187058386Y-118137715D01*
X186892786Y-118258028D01*
X186748028Y-118402786D01*
X186627715Y-118568386D01*
X186534781Y-118750776D01*
X186471522Y-118945465D01*
X186439500Y-119147648D01*
X184681537Y-119147648D01*
X184766966Y-119062219D01*
X184796153Y-119022047D01*
X184851792Y-118945465D01*
X184887287Y-118896610D01*
X184980220Y-118714219D01*
X185043477Y-118519534D01*
X185075500Y-118317352D01*
X185075500Y-118112648D01*
X185065911Y-118052104D01*
X185043477Y-117910465D01*
X184980218Y-117715776D01*
X184946503Y-117649607D01*
X184887287Y-117533390D01*
X184879556Y-117522749D01*
X184766971Y-117367786D01*
X184622213Y-117223028D01*
X184456613Y-117102715D01*
X184456612Y-117102714D01*
X184456610Y-117102713D01*
X184399653Y-117073691D01*
X184274223Y-117009781D01*
X184079534Y-116946522D01*
X183904995Y-116918878D01*
X183877352Y-116914500D01*
X182872648Y-116914500D01*
X182848329Y-116918351D01*
X182670465Y-116946522D01*
X182475776Y-117009781D01*
X182293386Y-117102715D01*
X182127786Y-117223028D01*
X181983028Y-117367786D01*
X181862715Y-117533386D01*
X181769781Y-117715776D01*
X181706522Y-117910465D01*
X181674500Y-118112648D01*
X177455500Y-118112648D01*
X177445911Y-118052104D01*
X177423477Y-117910465D01*
X177360218Y-117715776D01*
X177326503Y-117649607D01*
X177267287Y-117533390D01*
X177259556Y-117522749D01*
X177146971Y-117367786D01*
X177002213Y-117223028D01*
X176836613Y-117102715D01*
X176836612Y-117102714D01*
X176836610Y-117102713D01*
X176779653Y-117073691D01*
X176654223Y-117009781D01*
X176459534Y-116946522D01*
X176284995Y-116918878D01*
X176257352Y-116914500D01*
X175252648Y-116914500D01*
X175228329Y-116918351D01*
X175050465Y-116946522D01*
X174855776Y-117009781D01*
X174673386Y-117102715D01*
X174507786Y-117223028D01*
X174363028Y-117367786D01*
X174242715Y-117533386D01*
X174149781Y-117715776D01*
X174086522Y-117910465D01*
X174054500Y-118112648D01*
X172106427Y-118112648D01*
X171987606Y-118052104D01*
X171987603Y-118052103D01*
X171777952Y-117983985D01*
X171669086Y-117966742D01*
X171560222Y-117949500D01*
X171339778Y-117949500D01*
X171267201Y-117960995D01*
X171122047Y-117983985D01*
X170912396Y-118052103D01*
X170912393Y-118052104D01*
X170715974Y-118152187D01*
X170537641Y-118281752D01*
X170537636Y-118281756D01*
X170381756Y-118437636D01*
X170381752Y-118437641D01*
X170252187Y-118615974D01*
X170152104Y-118812393D01*
X170152103Y-118812396D01*
X170083985Y-119022047D01*
X170064159Y-119147225D01*
X170049500Y-119239778D01*
X166395014Y-119239778D01*
X166504654Y-119163819D01*
X166663819Y-119004654D01*
X166792007Y-118819626D01*
X166885096Y-118614683D01*
X166940096Y-118396412D01*
X166950500Y-118264217D01*
X166950499Y-116635784D01*
X166940096Y-116503588D01*
X166885096Y-116285317D01*
X166792007Y-116080374D01*
X166663819Y-115895346D01*
X166504654Y-115736181D01*
X166504650Y-115736178D01*
X166504645Y-115736174D01*
X166319632Y-115607997D01*
X166319630Y-115607995D01*
X166319626Y-115607993D01*
X166114683Y-115514904D01*
X166114681Y-115514903D01*
X166114678Y-115514902D01*
X165896420Y-115459905D01*
X165896413Y-115459904D01*
X165852347Y-115456436D01*
X165764217Y-115449500D01*
X165764215Y-115449500D01*
X163135791Y-115449500D01*
X163135776Y-115449501D01*
X163003586Y-115459904D01*
X163003579Y-115459905D01*
X162785321Y-115514902D01*
X162785318Y-115514903D01*
X162580377Y-115607991D01*
X162580367Y-115607997D01*
X162395354Y-115736174D01*
X162395342Y-115736184D01*
X162236184Y-115895342D01*
X162236174Y-115895354D01*
X162107997Y-116080367D01*
X162107991Y-116080377D01*
X162014903Y-116285318D01*
X162014902Y-116285321D01*
X161959905Y-116503579D01*
X161959904Y-116503586D01*
X161949500Y-116635777D01*
X157500500Y-116635777D01*
X157500500Y-111993713D01*
X180109500Y-111993713D01*
X180109500Y-112206286D01*
X180133257Y-112356286D01*
X180142754Y-112416243D01*
X180191492Y-112566243D01*
X180208444Y-112618414D01*
X180304951Y-112807820D01*
X180429890Y-112979786D01*
X180580213Y-113130109D01*
X180752179Y-113255048D01*
X180752181Y-113255049D01*
X180752184Y-113255051D01*
X180941588Y-113351557D01*
X181143757Y-113417246D01*
X181353713Y-113450500D01*
X181353714Y-113450500D01*
X181566286Y-113450500D01*
X181566287Y-113450500D01*
X181776243Y-113417246D01*
X181978412Y-113351557D01*
X182167816Y-113255051D01*
X182289602Y-113166569D01*
X182339784Y-113130110D01*
X182339784Y-113130109D01*
X182339792Y-113130104D01*
X182453329Y-113016566D01*
X182514648Y-112983084D01*
X182584340Y-112988068D01*
X182640274Y-113029939D01*
X182657189Y-113060917D01*
X182706202Y-113192328D01*
X182706206Y-113192335D01*
X182792452Y-113307544D01*
X182792455Y-113307547D01*
X182907664Y-113393793D01*
X182907671Y-113393797D01*
X183042517Y-113444091D01*
X183042516Y-113444091D01*
X183049444Y-113444835D01*
X183102127Y-113450500D01*
X184897872Y-113450499D01*
X184957483Y-113444091D01*
X185092331Y-113393796D01*
X185207546Y-113307546D01*
X185293796Y-113192331D01*
X185344091Y-113057483D01*
X185350500Y-112997873D01*
X185350499Y-111352135D01*
X193574500Y-111352135D01*
X193574500Y-113147870D01*
X193574501Y-113147876D01*
X193580908Y-113207483D01*
X193631202Y-113342328D01*
X193631206Y-113342335D01*
X193717452Y-113457544D01*
X193717455Y-113457547D01*
X193832664Y-113543793D01*
X193832671Y-113543797D01*
X193967517Y-113594091D01*
X193967516Y-113594091D01*
X193974444Y-113594835D01*
X194027127Y-113600500D01*
X195822872Y-113600499D01*
X195882483Y-113594091D01*
X196017331Y-113543796D01*
X196132546Y-113457546D01*
X196218796Y-113342331D01*
X196267810Y-113210916D01*
X196309681Y-113154984D01*
X196375145Y-113130566D01*
X196443418Y-113145417D01*
X196471673Y-113166569D01*
X196585213Y-113280109D01*
X196757179Y-113405048D01*
X196757181Y-113405049D01*
X196757184Y-113405051D01*
X196946588Y-113501557D01*
X197148757Y-113567246D01*
X197358713Y-113600500D01*
X197358714Y-113600500D01*
X197571286Y-113600500D01*
X197571287Y-113600500D01*
X197781243Y-113567246D01*
X197983412Y-113501557D01*
X198172816Y-113405051D01*
X198246445Y-113351557D01*
X198344786Y-113280109D01*
X198344788Y-113280106D01*
X198344792Y-113280104D01*
X198495104Y-113129792D01*
X198495106Y-113129788D01*
X198495109Y-113129786D01*
X198620048Y-112957820D01*
X198620047Y-112957820D01*
X198620051Y-112957816D01*
X198716557Y-112768412D01*
X198782246Y-112566243D01*
X198815500Y-112356287D01*
X198815500Y-112143713D01*
X198782246Y-111933757D01*
X198716557Y-111731588D01*
X198620051Y-111542184D01*
X198620049Y-111542181D01*
X198620048Y-111542179D01*
X198495109Y-111370213D01*
X198344786Y-111219890D01*
X198172820Y-111094951D01*
X197983414Y-110998444D01*
X197983413Y-110998443D01*
X197983412Y-110998443D01*
X197781243Y-110932754D01*
X197781241Y-110932753D01*
X197781240Y-110932753D01*
X197619957Y-110907208D01*
X197571287Y-110899500D01*
X197358713Y-110899500D01*
X197310042Y-110907208D01*
X197148760Y-110932753D01*
X196946585Y-110998444D01*
X196757179Y-111094951D01*
X196585215Y-111219889D01*
X196471673Y-111333431D01*
X196410350Y-111366915D01*
X196340658Y-111361931D01*
X196284725Y-111320059D01*
X196267810Y-111289082D01*
X196218797Y-111157671D01*
X196218793Y-111157664D01*
X196132547Y-111042455D01*
X196132544Y-111042452D01*
X196017335Y-110956206D01*
X196017328Y-110956202D01*
X195882482Y-110905908D01*
X195882483Y-110905908D01*
X195822883Y-110899501D01*
X195822881Y-110899500D01*
X195822873Y-110899500D01*
X195822864Y-110899500D01*
X194027129Y-110899500D01*
X194027123Y-110899501D01*
X193967516Y-110905908D01*
X193832671Y-110956202D01*
X193832664Y-110956206D01*
X193717455Y-111042452D01*
X193717452Y-111042455D01*
X193631206Y-111157664D01*
X193631202Y-111157671D01*
X193580908Y-111292517D01*
X193574501Y-111352116D01*
X193574500Y-111352135D01*
X185350499Y-111352135D01*
X185350499Y-111202128D01*
X185344091Y-111142517D01*
X185342810Y-111139083D01*
X185293797Y-111007671D01*
X185293793Y-111007664D01*
X185207547Y-110892455D01*
X185207544Y-110892452D01*
X185092335Y-110806206D01*
X185092328Y-110806202D01*
X184957482Y-110755908D01*
X184957483Y-110755908D01*
X184897883Y-110749501D01*
X184897881Y-110749500D01*
X184897873Y-110749500D01*
X184897864Y-110749500D01*
X183102129Y-110749500D01*
X183102123Y-110749501D01*
X183042516Y-110755908D01*
X182907671Y-110806202D01*
X182907664Y-110806206D01*
X182792455Y-110892452D01*
X182792452Y-110892455D01*
X182706206Y-111007664D01*
X182706203Y-111007669D01*
X182657189Y-111139083D01*
X182615317Y-111195016D01*
X182549853Y-111219433D01*
X182481580Y-111204581D01*
X182453326Y-111183430D01*
X182339786Y-111069890D01*
X182167820Y-110944951D01*
X181978414Y-110848444D01*
X181978413Y-110848443D01*
X181978412Y-110848443D01*
X181776243Y-110782754D01*
X181776241Y-110782753D01*
X181776240Y-110782753D01*
X181614957Y-110757208D01*
X181566287Y-110749500D01*
X181353713Y-110749500D01*
X181305042Y-110757208D01*
X181143760Y-110782753D01*
X180941585Y-110848444D01*
X180752179Y-110944951D01*
X180580213Y-111069890D01*
X180429890Y-111220213D01*
X180304951Y-111392179D01*
X180208444Y-111581585D01*
X180142753Y-111783760D01*
X180109500Y-111993713D01*
X157500500Y-111993713D01*
X157500500Y-109624500D01*
X157520185Y-109557461D01*
X157572989Y-109511706D01*
X157624500Y-109500500D01*
X205875500Y-109500500D01*
X205942539Y-109520185D01*
G37*
%TD.AperFunction*%
M02*
