M48
; DRILL file {KiCad 9.0.3} date 2026-07-28T14:52:57+0530
; FORMAT={-:-/ absolute / metric / decimal}
; #@! TF.CreationDate,2026-07-28T14:52:57+05:30
; #@! TF.GenerationSoftware,Kicad,Pcbnew,9.0.3
; #@! TF.FileFunction,Plated,1,2,PTH
FMAT,2
METRIC
; #@! TA.AperFunction,Plated,PTH,ComponentDrill
T1C0.800
; #@! TA.AperFunction,Plated,PTH,ComponentDrill
T2C0.900
; #@! TA.AperFunction,Plated,PTH,ComponentDrill
T3C1.000
; #@! TA.AperFunction,Plated,PTH,ComponentDrill
T4C1.800
%
G90
G05
T1
X175.755Y-118.215
X175.755Y-120.755
X175.755Y-123.295
X175.755Y-125.835
X183.375Y-118.215
X183.375Y-120.755
X183.375Y-123.295
X183.375Y-125.835
X187.725Y-125.7
X187.74Y-119.25
X195.345Y-125.7
X195.36Y-119.25
T2
X201.285Y-122.55
X203.825Y-122.55
T3
X171.45Y-119.35
X171.45Y-121.85
X171.45Y-124.35
X181.46Y-112.1
X184.0Y-112.1
X194.925Y-112.25
X197.465Y-112.25
T4
G00X164.6Y-117.45
M15
G01X164.3Y-117.45
M16
G05
G00X164.6Y-126.25
M15
G01X164.3Y-126.25
M16
G05
M30
